<?xml version="1.0" encoding="utf-8"?>
<!-- Generator: Adobe Illustrator 24.2.1, SVG Export Plug-In . SVG Version: 6.00 Build 0)  -->
<svg version="1.1" id="레이어_1" xmlns="http://www.w3.org/2000/svg" xmlns:xlink="http://www.w3.org/1999/xlink" x="0px"
	 y="0px" viewBox="0 0 1280 720" enable-background="new 0 0 1280 720" xml:space="preserve">
<g>
	<g>
		<path d="M546.7,305.8v10.6h56.9V333h-56.9v8.6h58.7v18.8h-84.1v-75.5h82.3v20.9H546.7z M534.3,425.6v-49.5h22.5v29h84.4v20.6
			H534.3z M655.4,320.5v20h-17.5v39.7h-21.5V278.4h21.5v42H655.4z"/>
		<path d="M666.1,412.7v-22h52.8v-25.6h25.9v25.6h54.5v22H666.1z M744.1,286.5c4.3,18.8,26.5,54.9,44.2,77.8H760
			c-12-16.8-19.7-27.5-28.3-44.7c-7,15-16.8,30.4-27,44.7h-31.5c24.9-27.7,43.8-65.6,45.2-77.8H744.1z"/>
		<path d="M886.7,420.9h-15.8v-27c-10.3,9.2-25.4,12.7-37.8,13.9c-7.3,0.7-14.7,0.8-22.3,0.2v-14.5c23.2,4.6,53.8-6.6,59.9-9.1
			v-52.2h16V420.9z M842.9,334.5c8.7,0,14.3,6.4,14.3,14.4v14.3c0,8.8-5.8,14.3-15.5,14.3h-12.6c-7.6,0-14.6-5.3-14.6-13.3V349
			c0-8,6.2-14.4,14.6-14.4H842.9z M844.4,351.7c0-3.4-2.6-6-6.1-6h-4.5c-3.5,0-6.6,2.6-6.6,6v8.7c0,3.5,3.2,6.1,6.6,6.1h4.5
			c3.5,0,6.1-2.6,6.1-6.1V351.7z"/>
		<path d="M979.5,360.3h-74.8v-72.6h74.8V360.3z M923,377.3h22v28.8h83.3v21.1H923V377.3z M926.1,308.3v31.8h32.2v-31.8H926.1z
			 M1003.7,374.3v-95.7h22.9v95.7H1003.7z"/>
		<path d="M1182,367.5h-135.7v-20.6h55.6v-18.4h24.9v18.4h55.3V367.5z M1168.4,399.9c0,9.1-1.8,16.5-3.8,22
			c-1.1,3.2-2.3,6.1-3.6,8.8h-22c4.1-7.9,6.1-15.7,7-21.5c0.5-3.4,0.7-6.4,0.5-9.5h-86v-20.6h107.8V399.9z M1165,278.6v18.1h-37.2
			c8.6,13.2,24.1,21.1,36.5,24.5v16.3c-23.8-2.7-39.3-12.5-51.3-26.1c-12.3,15-36.1,24.7-51.5,28.4v-17.7
			c16.5-5.4,33.4-18.6,35.4-25.4h-36.1v-18.1H1165z"/>
	</g>
	<g>
		<path fill="#0F8EBE" d="M350.6,289.6c1.5-1.5,3.7-2.9,4.3-4.7c0.3-1-1.8-3.2-3.2-4.4c-2.6-2.2-5.5-4-8.1-6.3
			c-2-1.8-1.1-3.1,1.3-3.6c4.5-0.9,7.8,0.6,10.2,4.7c2.1,3.6,4.1,7.3,6.2,10.9c1.9,3.3,4.9,4.3,8.6,4.5c3.1,0.1,6.1,1,9.1,1.6
			c2.1,0.4,4.2,1.1,6.3,1.3c6.2,0.6,8.5,3,7.6,8.3c-0.8,5.3-5.4,8.6-10.5,7.2c-3.8-1.1-7.6,5.5-11.2,3.9c-3.7-1.7-8.9-3.5-9.9,0.6
			c-7.9,30.6-9.1-7-12.6-10.1c-2.8-2.5-5.3-5.5-7.6-8.4c-5.6-7-12.6-9.8-21.5-7.6c-8.8,2.2-17.7,4.3-26.6,6.4
			c-5.3,1.2-8.8,4.9-12,8.9c-3.2,4.1-6.1,8.4-9.3,12.5c-5,6.5-7,13.9-7.3,22c-0.1,3.7-0.8,7.3-0.9,11c-0.2,14.2,3.8,27.1,15.2,36.1
			c7.7,6.1,16.9,9.5,27.4,6.5c8.7-2.5,16.7,2,19.7,11.1c2.7,8.3,5.2,16.8,6.4,25.4c0.8,5.7-0.9,11.8-1.2,17.7
			c-0.1,3.1,0,6.3,0.9,9.2c2.5,7.9,5.5,15.7,8.4,23.5c0.8,2.1,1.5,4.3,2.5,6.3c2.8,5.8,6.2,7.4,12.4,5.5
			c13.2-4.2,23.9-12.2,31.9-23.5c2.4-3.4-15.4-86.8,33.3-83.8c1,0.1,1.4-1.5,2-2.3c5.3-6.3,5.4-9.2,0.7-15.9c-1.4-2-3-3.8-4.2-5.9
			c-2.1-3.7-1.2-6.9,2.6-8.3c4.7-1.8,7.3-5.2,8.5-9.9c0.7-2.6,1.5-5.1,2.4-7.6c0.9-2.5,3-3,4.7-1.2c1.8,1.9,4.2,4.4,4.3,6.7
			c0.6,12.4,1.3,24.8,0.7,37.1c-0.9,20.1-6.4,39.2-15.2,57.2c-25.7,52.2-67.1,84.5-124.2,95.3c-40.2,7.6-78.6,0.7-114.4-19.5
			c-1.5-0.8-3.3-2.1-3.6-3.5c-1.2-5.5-2.4-11.2-2.5-16.8c-0.1-6.1,4.8-9.8,9.2-13.2c4.7-3.7,9.8-6.8,14.4-10.6
			c14.7-11.9,20.3-30.9,14.4-47.8c-1.3-3.6-3.3-6.5-6.8-8.3c-4.3-2.2-8.4-4.7-12.9-6.6c-7.5-3.2-13.2-8.3-17.9-14.8
			c-4.2-5.8-9.2-10.8-15.7-14.2c-9.3-4.9-18.5-10.1-28.1-14.1c-15.9-6.7-21-23.6-10.1-37.5c5.7-7.3,12.4-13.8,18.6-20.6
			c3.3-3.7,6.8-7.2,9.8-11c3.6-4.6,7.8-7.9,13.7-9.6c5.3-1.5,10.2-4.3,15.3-6.6c8.2-3.7,11.9-10.2,12.3-18.9c0.1-2.5,0.5-5,0.7-7.6
			c0.5-4.5,0.1-8.6-2.5-12.7c-2.9-4.7-4.6-10-2.8-15.6c0.6-1.8,2.1-4,3.8-4.8c5.9-3.1,12.4-4.3,19.1-3.7c5.7,0.5,6.7,2.2,6,7.7
			c-0.7,6.3-1.5,12.6-1.8,18.9c-0.3,5.3,0.8,6.3,6,5.4c7.6-1.4,15-3.3,22.5-5.1c8.6-2,17.3-3.9,25.9-6.2c9.8-2.6,16.3-8.9,20.1-18.2
			c1.5-3.6,0.1-6.9-1.8-9.7c-3-4.3-6.5-8.3-9.7-12.4c20.7-5.7,93.1,25.7,105.3,46.1c-4.5,1.2-8.6,0.1-12.5-1.6
			c-9.4-4.1-18.7-8.2-28-12.6c-3-1.4-5.7-1.6-8.7-0.3c-4.5,2-9.1,3.8-13.7,5.7c-6.4,2.7-7.8,5.8-5.2,12.3c2.1,5.4,1.7,5.6-2.3,9.8
			c-5,5.2,5.2,18.6,10.8,22.1c3.6,2.3,7.4,4.5,11.2,6.5c4.4,2.3,9.5,3.9,7.8,11C349.6,289.2,350.1,289.4,350.6,289.6z"/>
		<path fill="#0F8EBE" d="M103.1,348.5c6.5,6.7,10.1,14.1,12.3,22.3c3,11,6.3,21.9,8.3,33.1c1.9,10.8,7,19.5,14.3,27.1
			c5.5,5.7,9,12.2,10,20c2.1,16.4,11,29.2,21.2,41.3c1.3,1.5,2.4,3.1,3.4,4.7C121.9,462.5,97.8,399.1,103.1,348.5z"/>
		<path fill="#8DD04D" d="M246,326.3c-10.1-7.4-17.6-14.8-28.3-12.8c-9.3,1.8-15.4,17.3-12.2,26.1c5.1,14.1,23.7,18.7,36.3,17.2
			c12.4-1.5,19.4-12.6,13.3-23.7C252.9,329.1,247.5,328.3,246,326.3z"/>
		<path fill="#8DD04D" d="M261.2,296.6c-4.5-3.8-7.6-10.3-13.5-10.5c-8.6-0.2-14.8,10.1-12.2,18.1c3.1,9.4,14.7,17,24.5,16
			c8.4-0.9,12.7-8.1,8.9-15.7c-1.7-3.3-3.1-3.3-5.2-6.4C263.5,298.3,261.4,296.5,261.2,296.6z"/>
		<path fill="#8DD04D" d="M266.3,291.4c3.3,1.3,6.5,3,10,3.8c7.8,1.7,12.6-3.7,10.6-11.3c-1.9-7.5-11.1-14.5-18.8-14.4
			c-6.8,0.1-11.4,2.5-10.6,9.3c0.5,4.7,2.6,8.7,6.2,11.6C263.5,290.6,266.4,291.2,266.3,291.4z"/>
		<path fill="#8DD04D" d="M303.8,262.9c-1.5-0.8-2.9-1.7-4.4-2.3c-5.8-2.4-11.2,1.7-10.2,7.9c1.1,6.6,4.9,11.2,11.2,13.4
			c6.1,2.1,10.9-2.5,9.5-8.9C309.1,269.1,306.9,265.7,303.8,262.9z"/>
		<path fill="#8DD04D" d="M389.9,274.8c2.5,3.1,4.9,5,8.3,5.5c3.2,0.5,6-1.7,6.3-4.9c0.6-5.8-4.4-12.3-10.1-13.3
			c-4.8-0.9-8.1,3.5-6.3,8.7C388.6,272.5,389.5,274,389.9,274.8z"/>
		<path fill="#8DD04D" d="M455.5,360c0,100.5-81.7,182.4-182.1,182.4c-103.1,0-182.7-83.2-182.5-182.6
			C91,258,172.3,177.6,273.1,177.6C372.9,177.7,455.5,257.6,455.5,360z M350.6,289.6c-0.5-0.2-1.1-0.4-1.6-0.6
			c1.7-7.1-3.4-8.7-7.8-11c-3.8-2-7.5-4.2-11.2-6.5c-19.2-14.8-13.2,3.2-21.4,8.8c-2.6,1.7-1.7,1.2-6.5,1.3c-2.5,0.1-4-1.5-6.5-2.2
			c-3.4-1-5.9-7.6-6.4-10.9c-2-12.2-0.1-12.9,12.3-12.3c7,0.3,12.9,2.7,17.7-6.7c4-4.2,4.5-4.4,2.3-9.8c-1.9-4.8,0.4-10.3,5.1-12.3
			c4.4-1.8,8.8-3.6,13.2-5.5c3-1.3,6.3-1.3,9.2,0.1c9.3,4.3,18.6,8.5,28,12.6c3.9,1.7,8,2.8,12.5,1.6
			c-12.2-20.3-84.6-51.8-105.3-46.1c3.2,4.1,6.7,8.1,9.7,12.4c2,2.8,3.3,6.1,1.8,9.7c-3.8,9.2-10.3,15.6-20.1,18.2
			c-8.6,2.2-17.2,4.1-25.9,6.2c-7.5,1.7-15,3.7-22.5,5.1c-5.2,0.9-6.2-0.1-6-5.4c0.3-6.3,1.1-12.6,1.8-18.9c0.6-5.6-0.4-7.2-6-7.7
			c-6.7-0.6-13.2,0.6-19.1,3.7c-1.7,0.9-3.2,3-3.8,4.8c-1.8,5.6-0.1,10.9,2.8,15.6c2.6,4.1,3,8.2,2.5,12.7c-0.3,2.5-0.6,5-0.7,7.6
			c-0.4,8.7-4.2,15.3-12.3,18.9c-5.1,2.3-10,5.2-15.3,6.6c-5.9,1.6-10,4.9-13.7,9.6c-3,3.9-6.5,7.4-9.8,11
			c-6.2,6.9-12.9,13.4-18.6,20.6c-10.9,13.8-5.8,30.8,10.1,37.5c9.4,4,18.3,9,27.4,13.7c6.6,3.4,12.1,8.5,16.4,14.5
			c4.7,6.5,10.5,11.6,17.9,14.9c4.4,1.9,8.6,4.4,12.9,6.6c3.5,1.8,5.5,4.7,6.8,8.3c5.8,16.9,0.2,35.9-14.4,47.8
			c-4.6,3.7-9.7,6.9-14.4,10.6c-4.4,3.4-9.3,7.1-9.2,13.2c0,5.6,1.3,11.3,2.5,16.8c0.3,1.4,2.2,2.7,3.6,3.5
			c35.6,20.1,73.8,27,113.8,19.7c50.4-9.3,93.3-40.4,119.1-84.6c12.3-21.1,19.9-43.9,21-68c0.6-12.3-0.1-24.8-0.7-37.1
			c-0.1-2.3-2.5-4.8-4.3-6.7c-1.7-1.8-3.8-1.3-4.7,1.2c-0.9,2.5-1.7,5-2.4,7.6c-1.2,4.7-3.8,8.1-8.5,9.9c-3.8,1.5-4.7,4.7-2.6,8.3
			c1.2,2.1,2.8,3.9,4.2,5.9c4.7,6.7,4.5,9.6-0.7,15.9c-0.7,0.8-1.4,1.5-2,2.3c-7.5,8.8-25.6-7.1-15.4,30.1c-1.5,8.7-3.8,17.2-8,25.2
			c-2.6,5-3.8,10.7-5.6,16.1c-1.4,4.2-1.9,9-4.3,12.5c-8,11.2-18.7,19.3-31.9,23.5c-6.2,2-9.5,0.3-12.4-5.5c-1-2-1.8-4.2-2.5-6.3
			c-2.9-7.8-5.9-15.6-8.4-23.5c-0.9-2.9-1-6.1-0.9-9.2c0.2-5.9,2-12,1.2-17.7c-1.2-8.6-3.7-17.1-6.4-25.4c-3-9.1-11-13.6-19.7-11.1
			c-10.5,3-19.7-0.4-27.4-6.5c-11.3-9-15.4-21.8-15.2-36.1c0.1-3.7,0.8-7.3,0.9-11c0.3-8.1,2.3-15.5,7.3-22
			c3.2-4.1,6.1-8.5,9.3-12.5c3.3-4.1,6.8-7.9,12.4-9c8.1-1.7,16.2-3.2,24.1-5.7c9.9-3.2,17.5-0.6,23.6,7c2.4,3,4.8,5.9,7.6,8.4
			c3.1,2.8,3,12.5,9.6,4.6c3.2-3.8,8.5-5.2,13-3.2c0,0,0.1,0,0.1,0c3.6,1.6,7.2,3.2,10.9,4.3c5.1,1.4,9.7-1.9,10.5-7.2
			c0.8-5.3-1.4-7.7-7.6-8.3c-2.1-0.2-4.2-0.9-6.3-1.3c-3-0.6-6.1-1.5-9.1-1.6c-3.7-0.1-6.7-1.2-8.6-4.5c-2.1-3.6-4.1-7.3-6.2-10.9
			c-2.4-4.1-5.8-5.6-10.2-4.7c-2.4,0.5-3.3,1.8-1.3,3.6c2.5,2.3,5.5,4,8.1,6.3c1.4,1.2,3.5,3.4,3.2,4.4
			C354.4,286.7,352.2,288.1,350.6,289.6z M103.1,348.5c-5.3,50.6,18.8,114,69.5,148.5c-1-1.7-2.1-3.2-3.4-4.7
			c-10.2-12.1-19.1-25-21.2-41.3c-1-7.8-4.5-14.3-10-20c-7.3-7.6-12.4-16.3-14.3-27.1c-2-11.2-5.3-22.1-8.3-33.1
			C113.2,362.6,109.5,355.2,103.1,348.5z"/>
	</g>
	<path d="M273.1,177.6C172.3,177.6,91,258,90.9,359.7c-0.2,99.4,79.4,182.6,182.5,182.6c100.4,0,182.1-81.8,182.1-182.4
		C455.5,257.6,372.9,177.7,273.1,177.6z M273.4,529.7c-95.9,0-170-77.4-169.8-169.9c0.2-94.7,75.8-169.4,169.6-169.4
		c92.8,0,169.7,74.4,169.7,169.7C442.9,453.5,366.8,529.7,273.4,529.7z"/>
</g>
</svg>
