<?xml version="1.0" encoding="utf-8"?>
<!-- Generator: Adobe Illustrator 24.2.1, SVG Export Plug-In . SVG Version: 6.00 Build 0)  -->
<svg version="1.1" id="레이어_1" xmlns="http://www.w3.org/2000/svg" xmlns:xlink="http://www.w3.org/1999/xlink" x="0px"
	 y="0px" viewBox="0 0 816 350" style="enable-background:new 0 0 816 350;" xml:space="preserve">
<g>
	<path d="M103,126.2v10.6h56.9v16.6H103v8.6h58.7v18.8H77.6v-75.5h82.3v20.9H103z M90.6,246.1v-49.5h22.5v29h84.4v20.6H90.6V246.1z
		 M211.7,141v20h-17.5v39.7h-21.5V98.9h21.5v42h17.5V141z"/>
	<path d="M222.4,233.2v-22h52.8v-25.6h25.9v25.6h54.5v22H222.4z M300.4,107c4.3,18.8,26.5,54.9,44.2,77.8h-28.3
		c-12-16.8-19.7-27.5-28.3-44.7c-7,15-16.8,30.4-27,44.7h-31.5c24.9-27.7,43.8-65.6,45.2-77.8H300.4z"/>
	<path d="M443,241.4h-15.8v-27c-10.3,9.2-25.4,12.7-37.8,13.9c-7.3,0.7-14.7,0.8-22.3,0.2V214c23.2,4.6,53.8-6.6,59.9-9.1v-52.2h16
		L443,241.4L443,241.4z M399.2,155c8.7,0,14.3,6.4,14.3,14.4v14.3c0,8.8-5.8,14.3-15.5,14.3h-12.6c-7.6,0-14.6-5.3-14.6-13.3v-15.2
		c0-8,6.2-14.4,14.6-14.4h13.8V155z M400.7,172.2c0-3.4-2.6-6-6.1-6h-4.5c-3.5,0-6.6,2.6-6.6,6v8.7c0,3.5,3.2,6.1,6.6,6.1h4.5
		c3.5,0,6.1-2.6,6.1-6.1V172.2z"/>
	<path d="M535.8,180.8H461v-72.6h74.8V180.8z M479.3,197.8h22v28.8h83.3v21.1H479.3V197.8z M482.4,128.8v31.8h32.2v-31.8H482.4z
		 M560,194.8V99h22.9v95.7H560z"/>
	<path d="M738.3,188H602.6v-20.6h55.6V149h24.9v18.4h55.3V188H738.3z M724.7,220.4c0,9.1-1.8,16.5-3.8,22c-1.1,3.2-2.3,6.1-3.6,8.8
		h-22c4.1-7.9,6.1-15.7,7-21.5c0.5-3.4,0.7-6.4,0.5-9.5h-86v-20.6h107.8L724.7,220.4L724.7,220.4z M721.3,99.1v18.1h-37.2
		c8.6,13.2,24.1,21.1,36.5,24.5V158c-23.8-2.7-39.3-12.5-51.3-26.1c-12.3,15-36.1,24.7-51.5,28.4v-17.7
		c16.5-5.4,33.4-18.6,35.4-25.4h-36.1V99L721.3,99.1L721.3,99.1z"/>
</g>
</svg>
