<?xml version="1.0" encoding="utf-8"?>
<!-- Generator: Adobe Illustrator 24.2.1, SVG Export Plug-In . SVG Version: 6.00 Build 0)  -->
<svg version="1.1" id="레이어_1" xmlns="http://www.w3.org/2000/svg" xmlns:xlink="http://www.w3.org/1999/xlink" x="0px"
	 y="0px" viewBox="0 0 720.8 720" enable-background="new 0 0 720.8 720" xml:space="preserve">
<g>
	<g>
		<path fill="#0F8EBE" d="M460.3,269.1c2-2,4.8-3.7,5.6-6.1c0.4-1.4-2.3-4.1-4.1-5.7c-3.3-2.9-7.1-5.2-10.4-8.1
			c-2.6-2.3-1.4-4,1.7-4.6c5.7-1.2,10.1,0.8,13.2,6.1c2.7,4.7,5.3,9.4,8.1,14c2.5,4.2,6.3,5.6,11.1,5.8c4,0.1,7.9,1.3,11.8,2.1
			c2.7,0.5,5.4,1.4,8.1,1.7c8.1,0.8,10.9,3.8,9.8,10.7c-1.1,6.8-7,11.1-13.6,9.3c-4.8-1.4-9.8,7.1-14.4,5
			c-4.8-2.2-11.4-4.5-12.8,0.7c-10.2,39.5-11.8-9-16.3-13c-3.6-3.3-6.8-7.1-9.9-10.9c-7.3-9.1-16.3-12.6-27.8-9.7
			c-11.4,2.9-22.8,5.6-34.3,8.3c-6.8,1.6-11.3,6.3-15.4,11.5c-4.2,5.2-7.9,10.8-12,16.2c-6.4,8.4-9.1,18-9.4,28.4
			c-0.1,4.7-1.1,9.4-1.2,14.2c-0.3,18.3,4.9,35,19.6,46.5c9.9,7.9,21.8,12.3,35.4,8.4c11.2-3.2,21.5,2.5,25.4,14.3
			c3.5,10.7,6.7,21.6,8.3,32.7c1.1,7.4-1.2,15.2-1.5,22.9c-0.2,4,0,8.2,1.1,11.9c3.3,10.2,7.1,20.3,10.8,30.4c1,2.8,2,5.6,3.3,8.2
			c3.7,7.5,8,9.6,16,7.1c17.1-5.4,30.9-15.8,41.2-30.3c3.2-4.4-19.8-112,43-108.2c1.3,0.1,1.8-1.9,2.6-2.9c6.8-8.1,7-11.9,1-20.5
			c-1.8-2.5-3.8-4.9-5.4-7.6c-2.8-4.7-1.6-8.9,3.3-10.7c6.1-2.4,9.4-6.7,11-12.8c0.9-3.3,1.9-6.6,3.1-9.8c1.2-3.3,3.9-3.9,6.1-1.5
			c2.4,2.5,5.4,5.7,5.5,8.7c0.8,15.9,1.7,32,0.9,47.9c-1.2,25.9-8.2,50.6-19.7,73.9c-33.1,67.3-86.6,109.1-160.3,122.9
			c-51.9,9.8-101.5,0.9-147.7-25.2c-1.9-1.1-4.3-2.8-4.7-4.5c-1.5-7.1-3.1-14.4-3.2-21.7c-0.1-7.9,6.2-12.7,11.9-17.1
			c6-4.7,12.6-8.8,18.6-13.6c18.9-15.3,26.2-39.8,18.6-61.7c-1.6-4.7-4.2-8.4-8.7-10.7c-5.6-2.8-10.9-6-16.6-8.5
			c-9.6-4.2-17.1-10.8-23.1-19.2c-5.4-7.5-11.9-14-20.2-18.3c-12-6.3-23.8-13-36.3-18.2c-20.5-8.7-27.1-30.5-13.1-48.4
			c7.3-9.4,15.9-17.8,24-26.6c4.3-4.7,8.8-9.3,12.7-14.3c4.7-6,10-10.2,17.7-12.3c6.9-1.9,13.2-5.6,19.8-8.6
			c10.5-4.7,15.4-13.2,15.9-24.4c0.2-3.3,0.6-6.5,0.9-9.8c0.6-5.8,0.1-11.1-3.2-16.4c-3.8-6-6-12.9-3.6-20.1
			c0.8-2.4,2.7-5.1,4.8-6.2c7.7-4,16.1-5.6,24.7-4.8c7.3,0.7,8.6,2.8,7.8,10c-0.9,8.1-1.9,16.3-2.3,24.4c-0.3,6.9,1,8.2,7.7,7
			c9.8-1.8,19.4-4.3,29.1-6.5c11.1-2.6,22.3-5,33.4-7.9c12.6-3.3,21-11.5,25.9-23.5c1.9-4.6,0.2-8.9-2.4-12.5
			c-3.9-5.6-8.4-10.7-12.5-16c26.7-7.4,120.2,33.2,135.9,59.5c-5.8,1.6-11.1,0.2-16.1-2c-12.1-5.3-24.2-10.6-36.2-16.2
			c-3.9-1.8-7.4-2.1-11.3-0.4c-5.8,2.6-11.8,4.9-17.6,7.4c-8.3,3.5-10,7.5-6.7,15.8c2.8,7,2.1,7.2-3,12.7c-6.4,6.8,6.8,24,13.9,28.5
			c4.7,3,9.5,5.8,14.4,8.3c5.7,3,12.3,5,10.1,14.1C458.9,268.7,459.6,268.9,460.3,269.1z"/>
		<path fill="#0F8EBE" d="M140.9,345.1c8.3,8.6,13,18.2,15.9,28.7c3.9,14.2,8.2,28.3,10.7,42.8c2.5,13.9,9,25.2,18.5,35
			c7.1,7.4,11.6,15.8,12.9,25.8c2.7,21.1,14.1,37.6,27.4,53.3c1.6,1.9,3.1,4,4.4,6.1C165.1,492.3,134.1,410.5,140.9,345.1z"/>
		<path fill="#8DD04D" d="M325.3,316.5c-13-9.5-22.7-19.1-36.5-16.5c-11.9,2.3-19.9,22.3-15.8,33.7c6.6,18.2,30.6,24.1,46.9,22.2
			c16-1.9,25-16.3,17.2-30.6C334.2,320.1,327.3,319.1,325.3,316.5z"/>
		<path fill="#8DD04D" d="M344.9,278.2c-5.8-4.9-9.8-13.3-17.4-13.5c-11.1-0.3-19.1,13-15.7,23.4c4,12.1,19,21.9,31.7,20.6
			c10.9-1.1,16.3-10.5,11.4-20.3c-2.1-4.2-4-4.2-6.7-8.2C347.9,280.4,345.2,278,344.9,278.2z"/>
		<path fill="#8DD04D" d="M351.5,271.5c4.3,1.7,8.4,3.9,12.8,4.9c10,2.1,16.2-4.8,13.7-14.6c-2.5-9.7-14.3-18.7-24.3-18.5
			c-8.8,0.1-14.7,3.2-13.7,12c0.7,6.1,3.4,11.3,8,15C347.9,270.4,351.6,271.2,351.5,271.5z"/>
		<path fill="#8DD04D" d="M399.9,234.7c-1.9-1-3.7-2.1-5.6-2.9c-7.5-3.1-14.5,2.2-13.2,10.2c1.4,8.5,6.4,14.4,14.5,17.3
			c7.8,2.7,14.1-3.3,12.3-11.5C406.7,242.7,403.9,238.3,399.9,234.7z"/>
		<path fill="#8DD04D" d="M511.1,250.1c3.3,4,6.4,6.5,10.7,7.1c4.1,0.6,7.7-2.2,8.1-6.3c0.7-7.4-5.6-15.8-13-17.1
			c-6.2-1.1-10.4,4.5-8.2,11.2C509.3,247,510.5,249,511.1,250.1z"/>
		<path fill="#8DD04D" d="M595.7,360c0,129.7-105.5,235.3-235.1,235.4c-133,0-235.7-107.4-235.5-235.7
			c0.2-131.3,105.1-235,235.2-235C489,124.7,595.7,227.8,595.7,360z M460.3,269.1c-0.7-0.2-1.4-0.5-2.1-0.7
			c2.2-9.1-4.4-11.2-10.1-14.1c-4.9-2.6-9.7-5.4-14.4-8.3c-24.8-19.1-17.1,4.1-27.7,11.3c-3.3,2.3-2.2,1.6-8.4,1.7
			c-3.2,0.1-5.2-2-8.3-2.9c-4.4-1.3-7.6-9.8-8.3-14.1c-2.5-15.8-0.2-16.6,15.9-15.9c9,0.4,16.6,3.4,22.9-8.7c5.1-5.4,5.8-5.7,3-12.6
			c-2.5-6.2,0.5-13.2,6.6-15.8c5.7-2.4,11.4-4.7,17.1-7.1c3.8-1.7,8.2-1.7,11.9,0.1c12,5.6,24.1,11,36.2,16.2
			c5.1,2.2,10.4,3.6,16.1,2c-15.7-26.3-109.2-66.9-135.9-59.5c4.2,5.3,8.6,10.4,12.5,16c2.5,3.6,4.3,7.9,2.4,12.5
			c-4.9,11.9-13.3,20.2-25.9,23.5c-11.1,2.9-22.2,5.3-33.4,7.9c-9.7,2.3-19.3,4.8-29.1,6.5c-6.7,1.2-8-0.1-7.7-7
			c0.4-8.2,1.4-16.3,2.3-24.4c0.8-7.2-0.5-9.3-7.8-10c-8.6-0.8-17,0.8-24.7,4.8c-2.1,1.1-4.1,3.8-4.8,6.2
			c-2.3,7.2-0.2,14.1,3.6,20.1c3.3,5.3,3.9,10.6,3.2,16.4c-0.4,3.3-0.8,6.5-0.9,9.8c-0.5,11.3-5.4,19.7-15.9,24.4
			c-6.6,2.9-12.9,6.7-19.8,8.6c-7.6,2.1-13,6.4-17.7,12.3c-3.9,5-8.4,9.5-12.7,14.3c-8,8.8-16.6,17.2-24,26.6
			c-14,17.9-7.5,39.7,13.1,48.4c12.1,5.1,23.6,11.6,35.3,17.7c8.5,4.4,15.6,11,21.2,18.8c6.1,8.4,13.5,15,23.2,19.2
			c5.7,2.4,11,5.7,16.6,8.5c4.5,2.3,7.1,6,8.7,10.7c7.5,21.9,0.3,46.3-18.6,61.7c-6,4.8-12.5,8.9-18.6,13.6
			c-5.7,4.4-12,9.2-11.9,17.1c0.1,7.2,1.7,14.5,3.2,21.7c0.4,1.8,2.8,3.5,4.7,4.5c45.9,26,95.2,34.9,146.8,25.4
			c65-12,120.5-52.1,153.7-109.2c15.8-27.2,25.7-56.6,27.1-87.8c0.7-15.9-0.1-32-0.9-47.9c-0.2-3-3.2-6.2-5.5-8.7
			c-2.2-2.4-4.9-1.7-6.1,1.5c-1.2,3.2-2.2,6.5-3.1,9.8c-1.6,6.1-4.9,10.4-11,12.8c-4.9,1.9-6,6-3.3,10.7c1.6,2.7,3.6,5.1,5.4,7.6
			c6,8.6,5.8,12.4-1,20.5c-0.8,1-1.8,1.9-2.6,2.9c-9.6,11.4-33-9.2-19.9,38.8c-1.9,11.3-5,22.2-10.3,32.6
			c-3.3,6.5-4.9,13.8-7.2,20.8c-1.8,5.4-2.4,11.6-5.6,16.1c-10.3,14.5-24.1,24.9-41.2,30.3c-8,2.5-12.3,0.4-16-7.1
			c-1.3-2.6-2.3-5.4-3.3-8.2c-3.7-10.1-7.6-20.1-10.8-30.4c-1.2-3.7-1.3-7.9-1.1-11.9c0.3-7.7,2.6-15.5,1.5-22.9
			c-1.6-11.1-4.8-22-8.3-32.7c-3.9-11.8-14.2-17.6-25.4-14.3c-13.6,3.9-25.4-0.6-35.4-8.4c-14.6-11.6-19.9-28.2-19.6-46.5
			c0.1-4.7,1-9.4,1.2-14.2c0.3-10.4,3-20,9.4-28.4c4.1-5.3,7.8-10.9,12-16.2c4.2-5.3,8.8-10.1,16-11.6c10.4-2.2,21-4.1,31.1-7.4
			c12.7-4.2,22.6-0.8,30.4,9c3.1,3.8,6.2,7.6,9.9,10.9c4,3.6,3.9,16.1,12.4,5.9c4.1-4.9,11-6.7,16.8-4.1c0,0,0.1,0,0.1,0.1
			c4.6,2.1,9.3,4.2,14.1,5.5c6.6,1.8,12.5-2.5,13.6-9.3c1.1-6.9-1.8-9.9-9.8-10.7c-2.7-0.3-5.4-1.2-8.1-1.7c-3.9-0.8-7.8-2-11.8-2.1
			c-4.8-0.2-8.7-1.5-11.1-5.8c-2.7-4.7-5.4-9.4-8.1-14c-3.1-5.3-7.5-7.3-13.2-6.1c-3.1,0.6-4.3,2.3-1.7,4.6
			c3.3,2.9,7.1,5.2,10.4,8.1c1.8,1.6,4.5,4.3,4.1,5.7C465.2,265.4,462.3,267.2,460.3,269.1z M140.9,345.1
			c-6.8,65.3,24.3,147.2,89.7,191.7c-1.3-2.2-2.8-4.2-4.4-6.1c-13.2-15.7-24.7-32.2-27.4-53.3c-1.3-10-5.8-18.4-12.9-25.8
			c-9.4-9.8-16-21-18.5-35c-2.5-14.4-6.8-28.6-10.7-42.8C153.9,363.4,149.2,353.8,140.9,345.1z"/>
	</g>
	<path d="M360.3,124.7c-130.1,0-235,103.7-235.2,235C124.9,488,227.6,595.4,360.6,595.3c129.6,0,235.1-105.6,235.1-235.4
		C595.7,227.8,489,124.7,360.3,124.7z M360.6,579c-123.8,0-219.4-99.9-219.2-219.3C141.7,237.5,239.2,141,360.3,141
		c119.8,0,219,96,219.1,219C579.4,480.7,481.2,579,360.6,579z"/>
</g>
<g>
	<g>
		<path stroke="#FFFFFF" stroke-width="3" stroke-miterlimit="10" d="M83.3,373.1v9.6h52V398h-52v7.8h53.6V423H60.1v-69h75.2v19.1
			H83.3z M72,482.7v-45.3h20.6v26.5h77.2v18.8H72z M182.7,386.5v18.3h-16v36.3H147v-93h19.6v38.4H182.7z"/>
		<path stroke="#FFFFFF" stroke-width="3" stroke-miterlimit="10" d="M192.5,470.9v-20.1h48.2v-23.4h23.7v23.4h49.9v20.1H192.5z
			 M263.8,355.5c3.9,17.2,24.2,50.2,40.4,71.1h-25.8c-11-15.4-18-25.2-25.8-40.9c-6.4,13.7-15.4,27.8-24.7,40.9H199
			c22.7-25.3,40-60,41.4-71.1H263.8z"/>
		<path stroke="#FFFFFF" stroke-width="3" stroke-miterlimit="10" d="M394.1,478.3h-14.4v-24.6c-9.4,8.4-23.2,11.6-34.6,12.7
			c-6.6,0.7-13.5,0.8-20.4,0.2v-13.3c21.2,4.2,49.2-6.1,54.8-8.3v-47.7h14.6V478.3z M354,399.4c8,0,13.1,5.9,13.1,13.2v13.1
			c0,8.1-5.3,13.1-14.2,13.1h-11.6c-6.9,0-13.4-4.8-13.4-12.1v-14.1c0-7.3,5.7-13.2,13.4-13.2H354z M355.5,415.1
			c0-3.1-2.4-5.5-5.6-5.5h-4.1c-3.2,0-6.1,2.4-6.1,5.5v8c0,3.2,2.9,5.6,6.1,5.6h4.1c3.2,0,5.6-2.4,5.6-5.6V415.1z"/>
		<path stroke="#FFFFFF" stroke-width="3" stroke-miterlimit="10" d="M478.9,423h-68.3v-66.4h68.3V423z M427.3,438.5h20.1v26.3h76.2
			v19.3h-96.3V438.5z M430.1,375.4v29.1h29.4v-29.1H430.1z M501,435.7v-87.5h20.9v87.5H501z"/>
		<path stroke="#FFFFFF" stroke-width="3" stroke-miterlimit="10" d="M664,429.5H539.9v-18.8h50.8v-16.8h22.7v16.8H664V429.5z
			 M651.6,459.1c0,8.3-1.6,15-3.4,20.1c-1,2.9-2.1,5.6-3.3,8h-20.1c3.8-7.2,5.6-14.4,6.4-19.6c0.5-3.1,0.7-5.9,0.5-8.7H553v-18.8
			h98.6V459.1z M648.5,348.3v16.5h-34c7.8,12.1,22.1,19.3,33.3,22.4v14.9c-21.7-2.5-36-11.4-46.9-23.9c-11.3,13.7-33,22.6-47.1,26
			V388c15-4.9,30.6-17,32.4-23.2h-33v-16.5H648.5z"/>
	</g>
</g>
</svg>
