<svg xmlns="http://www.w3.org/2000/svg" viewBox="0 0 390.28 238.5"><defs><style>.cls-1{fill:#0f8ebe;}.cls-2{fill:#8dd04d;}.cls-3{stroke:#fff;stroke-miterlimit:10;stroke-width:1.5px;}</style></defs><g id="레이어_2" data-name="레이어 2"><g id="레이어_1-2" data-name="레이어 1"><path class="cls-1" d="M245.36,73.21c1-1,2.45-1.87,2.83-3.08.22-.68-1.16-2.09-2.06-2.88-1.67-1.47-3.62-2.62-5.27-4.11-1.3-1.16-.69-2,.87-2.34a5.75,5.75,0,0,1,6.69,3.08c1.37,2.37,2.7,4.76,4.08,7.12,1.26,2.15,3.2,2.84,5.65,2.93a38.93,38.93,0,0,1,6,1.08c1.37.27,2.72.73,4.1.87,4.08.41,5.54,1.94,5,5.43S269.68,87,266.36,86c-2.46-.68-5,3.58-7.32,2.52s-5.79-2.29-6.48.38c-5.18,20-6-4.58-8.24-6.61a46.73,46.73,0,0,1-5-5.51c-3.68-4.59-8.25-6.41-14.06-4.94s-11.57,2.84-17.37,4.2c-3.47.82-5.75,3.22-7.83,5.83s-4,5.49-6.08,8.18a24.15,24.15,0,0,0-4.77,14.39c-.07,2.4-.55,4.79-.59,7.18-.15,9.3,2.5,17.72,9.91,23.58,5,4,11.05,6.23,17.93,4.26,5.68-1.62,10.91,1.29,12.86,7.27a98.85,98.85,0,0,1,4.2,16.59c.54,3.75-.59,7.71-.75,11.59a17.62,17.62,0,0,0,.57,6c1.66,5.18,3.63,10.27,5.49,15.38a40.33,40.33,0,0,0,1.66,4.15c1.86,3.78,4,4.87,8.11,3.58a40,40,0,0,0,20.86-15.34c1.6-2.25-10-56.77,21.77-54.82.66,0,.91-1,1.33-1.48,3.44-4.09,3.53-6,.49-10.38-.9-1.3-1.93-2.51-2.72-3.86-1.4-2.39-.79-4.49,1.67-5.44a8.84,8.84,0,0,0,5.58-6.49c.44-1.68,1-3.35,1.56-5s2-2,3.1-.79,2.72,2.88,2.8,4.4c.42,8.09.86,16.21.48,24.28a94.38,94.38,0,0,1-10,37.43c-16.79,34.12-43.89,55.26-81.23,62.3-26.3,4.95-51.43.44-74.84-12.78-1-.54-2.19-1.39-2.38-2.3a55.55,55.55,0,0,1-1.61-11c0-4,3.15-6.41,6-8.66,3.07-2.4,6.39-4.46,9.41-6.91,9.6-7.77,13.28-20.18,9.45-31.26a8.91,8.91,0,0,0-4.42-5.43c-2.82-1.41-5.53-3.06-8.41-4.3a28,28,0,0,1-11.73-9.7,29.65,29.65,0,0,0-10.24-9.27c-6.09-3.17-12.09-6.58-18.4-9.24-10.41-4.39-13.71-15.45-6.61-24.5,3.72-4.75,8.08-9,12.14-13.48,2.17-2.39,4.45-4.7,6.44-7.23a16.61,16.61,0,0,1,9-6.25c3.47-1,6.69-2.84,10-4.34,5.34-2.39,7.79-6.66,8-12.38.08-1.65.3-3.3.48-5a12.21,12.21,0,0,0-1.64-8.3c-1.93-3.06-3-6.56-1.83-10.2a5.76,5.76,0,0,1,2.45-3.15,22.34,22.34,0,0,1,12.52-2.44c3.7.34,4.36,1.41,3.94,5-.47,4.11-1,8.23-1.18,12.36-.17,3.5.5,4.15,3.89,3.53,4.95-.9,9.83-2.17,14.73-3.31,5.65-1.31,11.31-2.56,16.91-4,6.39-1.68,10.66-5.85,13.15-11.89,1-2.34.08-4.49-1.21-6.33-2-2.81-4.24-5.43-6.35-8.09C215.57,4.39,263,25,270.91,38.28c-2.92.8-5.6.09-8.17-1-6.14-2.68-12.26-5.39-18.32-8.23a6.42,6.42,0,0,0-5.71-.2c-3,1.3-6,2.5-8.94,3.75-4.21,1.76-5.08,3.81-3.41,8,1.4,3.53,1.09,3.66-1.51,6.41-3.25,3.43,3.42,12.15,7,14.43,2.38,1.51,4.82,2.93,7.31,4.23,2.87,1.5,6.21,2.54,5.11,7.17Z"/><path class="cls-1" d="M83.48,111.72a32.64,32.64,0,0,1,8,14.55c2,7.19,4.14,14.36,5.42,21.67a33.36,33.36,0,0,0,9.36,17.73,22.49,22.49,0,0,1,6.53,13.07c1.36,10.7,7.16,19.08,13.86,27a23.59,23.59,0,0,1,2.22,3.1C95.77,186.3,80,144.82,83.48,111.72Z"/><path class="cls-2" d="M176.92,97.19c-6.61-4.82-11.5-9.69-18.51-8.36-6.06,1.14-10.08,11.32-8,17.1,3.35,9.24,15.49,12.22,23.77,11.24,8.13-1,12.68-8.25,8.69-15.52C181.46,99,178,98.55,176.92,97.19Z"/><path class="cls-2" d="M186.88,77.79c-2.91-2.51-5-6.75-8.8-6.85-5.62-.14-9.69,6.61-8,11.87,2,6.15,9.63,11.12,16,10.46,5.5-.56,8.28-5.32,5.79-10.27-1.08-2.16-2-2.15-3.41-4.16C188.41,78.93,187,77.69,186.88,77.79Z"/><path class="cls-2" d="M190.21,74.4a44.72,44.72,0,0,0,6.51,2.46c5.07,1.09,8.23-2.41,6.94-7.4s-7.25-9.46-12.31-9.39c-4.46.06-7.44,1.61-6.95,6.06a11,11,0,0,0,4.06,7.6C188.41,73.87,190.27,74.25,190.21,74.4Z"/><path class="cls-2" d="M214.72,55.77c-.95-.5-1.87-1.08-2.86-1.49-3.81-1.55-7.34,1.12-6.67,5.18a10.68,10.68,0,0,0,7.36,8.77c4,1.38,7.13-1.67,6.22-5.82A12.15,12.15,0,0,0,214.72,55.77Z"/><path class="cls-2" d="M271.07,63.55c1.66,2,3.22,3.29,5.4,3.6A3.58,3.58,0,0,0,280.6,64,8.69,8.69,0,0,0,274,55.28c-3.14-.57-5.27,2.29-4.15,5.67A18.6,18.6,0,0,0,271.07,63.55Z"/><path class="cls-2" d="M314,119.24C314,185,260.5,238.49,194.84,238.5A119.25,119.25,0,1,1,314,119.24Zm-68.59-46-1.05-.37c1.1-4.63-2.24-5.67-5.11-7.17-2.49-1.3-4.93-2.72-7.31-4.23-12.59-9.68-8.64,2.09-14,5.74-1.68,1.14-1.1.8-4.25.88-1.64,0-2.64-1-4.22-1.45-2.25-.67-3.87-5-4.22-7.15-1.27-8-.09-8.41,8.05-8,4.58.2,8.07,1.78,11.27-4.37,2.6-2.74,2.29-2.95.89-6.48a6.19,6.19,0,0,1,3.35-8c2.89-1.21,6.8-2.72,9.66-4a7.3,7.3,0,0,1,6.05.05c6.06,2.84,12.14,5.93,18.28,8.61,2.57,1.12,5.25,1.83,8.17,1C263,25,215.57,4.39,202,8.15c2.11,2.66,4.37,5.28,6.35,8.09,1.29,1.84,2.17,4,1.21,6.33-2.49,6-6.76,10.21-13.15,11.89-5.6,1.46-11.26,2.71-16.91,4-4.9,1.14-9.78,2.41-14.73,3.31-3.39.62-4.06,0-3.89-3.53.2-4.13.71-8.25,1.18-12.36.42-3.64-.24-4.71-3.94-5a22.34,22.34,0,0,0-12.52,2.44,5.76,5.76,0,0,0-2.45,3.15c-1.19,3.64-.1,7.14,1.83,10.2a12.21,12.21,0,0,1,1.64,8.3c-.18,1.65-.4,3.3-.48,5-.26,5.72-2.71,10-8,12.38-3.32,1.5-6.54,3.38-10,4.34a16.61,16.61,0,0,0-9,6.25c-2,2.53-4.27,4.84-6.44,7.23-4.06,4.48-8.42,8.73-12.14,13.48-7.1,9.05-3.8,20.11,6.61,24.5,6.14,2.59,12,5.89,17.9,9a31.08,31.08,0,0,1,10.73,9.5,27.89,27.89,0,0,0,11.74,9.72c2.88,1.24,5.59,2.89,8.41,4.3a8.91,8.91,0,0,1,4.42,5.43c3.83,11.08.15,23.49-9.45,31.26-3,2.45-6.34,4.51-9.41,6.91-2.88,2.25-6.06,4.64-6,8.66a55.55,55.55,0,0,0,1.61,11c.19.91,1.43,1.76,2.38,2.3,23.28,13.15,48.26,17.68,74.41,12.86,32.93-6.08,61-26.39,77.88-55.34,8-13.78,13-28.69,13.74-44.47.38-8.07-.06-16.19-.48-24.28-.08-1.52-1.61-3.14-2.8-4.4s-2.48-.88-3.1.79-1.12,3.29-1.56,5a8.84,8.84,0,0,1-5.58,6.49c-2.46,1-3.07,3.05-1.67,5.44.79,1.35,1.82,2.56,2.72,3.86,3,4.36,2.95,6.29-.49,10.38-.42.51-.9,1-1.33,1.48-4.89,5.76-16.71-4.66-10.07,19.65a56.42,56.42,0,0,1-5.2,16.5c-1.68,3.27-2.48,7-3.66,10.52-.92,2.74-1.24,5.9-2.84,8.15a40,40,0,0,1-20.86,15.34c-4.07,1.29-6.25.2-8.11-3.58a40.33,40.33,0,0,1-1.66-4.15c-1.86-5.11-3.83-10.2-5.49-15.38a17.62,17.62,0,0,1-.57-6c.16-3.88,1.29-7.84.75-11.59a98.85,98.85,0,0,0-4.2-16.59c-1.95-6-7.18-8.89-12.86-7.27-6.88,2-12.89-.28-17.93-4.26-7.41-5.86-10.06-14.28-9.91-23.58,0-2.39.52-4.78.59-7.18A24.15,24.15,0,0,1,194,90.06c2.07-2.69,4-5.52,6.08-8.18s4.46-5.57,8.08-6.32a143.83,143.83,0,0,0,15.76-3.75c6.46-2.12,11.46,0,15.42,5a46.73,46.73,0,0,0,5,5.51c2.05,1.84,2,8.17,6.28,3a7.34,7.34,0,0,1,8.53-2.1l.07,0A49.13,49.13,0,0,0,266.36,86c3.32.94,6.33-1.26,6.86-4.7s-.91-5-5-5.43c-1.38-.14-2.73-.6-4.1-.87a38.93,38.93,0,0,0-6-1.08c-2.45-.09-4.39-.78-5.65-2.93-1.38-2.36-2.71-4.75-4.08-7.12a5.75,5.75,0,0,0-6.69-3.08c-1.56.32-2.17,1.18-.87,2.34,1.65,1.49,3.6,2.64,5.27,4.11.9.79,2.28,2.2,2.06,2.88C247.81,71.34,246.36,72.2,245.36,73.21ZM83.48,111.72c-3.45,33.1,12.29,74.58,45.44,97.14a23.59,23.59,0,0,0-2.22-3.1c-6.7-7.94-12.5-16.32-13.86-27a22.49,22.49,0,0,0-6.53-13.07A33.36,33.36,0,0,1,97,147.94c-1.28-7.31-3.46-14.48-5.42-21.67A32.64,32.64,0,0,0,83.48,111.72Z"/><path d="M194.66,0a119.25,119.25,0,1,0,.18,238.5C260.5,238.49,314,185,314,119.24A119,119,0,0,0,194.66,0Zm.17,230.21a111,111,0,1,1,110.84-111C305.67,180.41,255.93,230.2,194.83,230.21Z"/><path class="cls-3" d="M14.42,167.23c-5.72,0-13.67-4-13.67-14.82v-19.8C.75,124,8.21,117,15.25,117H22.7c7.38,0,14.17,7,14.17,15.66V153c0,8.53-6.55,14.24-13.17,14.24Zm5.88-8.69c4.22,0,6.88-4.06,6.88-7.29V133.44c0-3.65-3.57-6.8-6.88-6.8H17.65c-3.31,0-7.21,3-7.21,6.63v18.8c0,2.57,2.16,6.47,6.38,6.47Zm42.75,24.52H51.45V159.78H40.76v-9.69H51.45v-8.62H40.76V131.7H51.45V113.39h11.6Z"/><path class="cls-3" d="M109.18,118.19v7.71h-5a14.67,14.67,0,0,1,1.91,7.62v7.29a12.08,12.08,0,0,1-12.51,12H85.9c-6,0-10.85-4-10.85-11.85v-7.45a12.84,12.84,0,0,1,2.4-7.62H71.32v-7.71H84.83v-4.88H96.34v4.88ZM96.51,134.26c0-2.73-1.08-4.88-3.81-4.88H88.89c-2.74,0-4.15,2.15-4.15,4.88v5.8c0,2.74,1.41,4.14,4.31,4.14H92.2c2.73,0,4.31-1.65,4.31-4.39ZM126,159.61c5,0,9.69,3.48,9.69,8.54v6.79c0,4.64-3.81,8-8.86,8H94.69c-2.82,0-8.21-2.32-9.12-7.95v-6.87c.91-6,7.87-8.54,11.43-8.54Zm-25.6,8.62c-3.23,0-3.73,1.32-4.31,2.4L96,172.78c1,2.24,2.15,2.16,4.39,2.16h22.12c1.9,0,3.48-.58,3.48-2.16v-1.57a3.35,3.35,0,0,0-3.56-3Zm35.54-54.92v40.26H126.5v-14h-6.13v14h-9.45V113.31h9.45v18.3h6.13v-18.3Z"/><path class="cls-3" d="M178.86,179.21h-7.32V166.72c-4.78,4.24-11.76,5.9-17.51,6.44a56.67,56.67,0,0,1-10.35.1v-6.74c10.74,2.15,24.93-3.07,27.76-4.19v-24.2h7.42Zm-20.3-40a6.42,6.42,0,0,1,6.64,6.68v6.63c0,4.1-2.69,6.64-7.17,6.64h-5.86c-3.51,0-6.78-2.44-6.78-6.15v-7.12a6.62,6.62,0,0,1,6.78-6.68Zm.73,7.95a2.75,2.75,0,0,0-2.82-2.78h-2.1a3,3,0,0,0-3.08,2.78v4.05a3,3,0,0,0,3.08,2.83h2.1a2.76,2.76,0,0,0,2.82-2.83Z"/><path class="cls-3" d="M222.28,116.12v33.14h-35V116.12h10.69v9.11h13.58v-9.11Zm-30.07,49.46h37.61v-3.81H192.21v-6.71h49.12V173h-38.6v3.15h38.6v7.79H192.21Zm19.3-24.77V134H197.93v6.8Zm39.43-3.15h-9.52v12.92H231V113.22h10.44v14.67h9.52Z"/><path class="cls-3" d="M280.93,129.05c-.33,5-.58,24,13.09,28.66v9.61a31.58,31.58,0,0,1-7.79-3,21.71,21.71,0,0,1-10.77-12.17,21,21,0,0,1-10.85,12.51,28.12,28.12,0,0,1-7.79,2.65v-9.61c13.67-4.64,13.09-23.7,12.76-28.66H256.74v-9.28h37.44v9.28Zm41.58,7.53v10.69H312.16v35.79H300.64V114.22h11.52v22.36Z"/><path class="cls-3" d="M389.53,151.83h-26.6v6.95h21.13v7.87a37.05,37.05,0,0,1-1.82,10.61c-.5,1.57-1.08,3.06-1.66,4.47H370.39a32.59,32.59,0,0,0,3.23-9.44,22.63,22.63,0,0,0,.33-4H333.86v-9.53H352.5v-6.95h-25v-9.28h41.09a61.57,61.57,0,0,0,2.81-12.76,40.15,40.15,0,0,0,.34-5.3H334.35V115h48.3v8.7c-.25,6.21-2.73,15.74-3.65,18.89h10.53Z"/></g></g></svg>