<svg xmlns="http://www.w3.org/2000/svg" xmlns:xlink="http://www.w3.org/1999/xlink" viewBox="0 0 694.64 500"><defs><style>.cls-1{fill:#fff;}.cls-2{opacity:0.5;}.cls-3{fill:url(#무제_그라디언트_7);}.cls-4{fill:#f2ebd1;}.cls-5{fill:#666;}.cls-6{fill:#b1a9a2;}.cls-7,.cls-8{fill:none;stroke:#b1a9a2;stroke-width:1.08px;}.cls-7{stroke-miterlimit:10;}.cls-8{stroke-linejoin:round;}.cls-9{fill:url(#무제_그라디언트_63);}.cls-10{fill:#d7c6a3;}.cls-11{fill:#f9d55e;}.cls-12{fill:#473421;}.cls-13{fill:#bb5250;}.cls-14{fill:#9c6;}.cls-15{fill:#3f8cb9;}.cls-16{fill:#9bcc60;}</style><linearGradient id="무제_그라디언트_7" x1="347.32" y1="351.41" x2="347.32" y2="121.61" gradientUnits="userSpaceOnUse"><stop offset="0.45" stop-color="#fff"/><stop offset="0.67" stop-color="#f7fcfe"/><stop offset="0.77" stop-color="#f1fafd"/><stop offset="0.86" stop-color="#e5f5fe"/><stop offset="0.95" stop-color="#def2ff"/></linearGradient><linearGradient id="무제_그라디언트_63" x1="347.22" y1="374.38" x2="347.22" y2="300.77" gradientUnits="userSpaceOnUse"><stop offset="0" stop-color="#d6f2e9"/><stop offset="0.05" stop-color="#c2e4db"/><stop offset="0.12" stop-color="#b3d9d0"/><stop offset="0.19" stop-color="#aad3ca"/><stop offset="0.3" stop-color="#a7d1c8"/><stop offset="0.5" stop-color="#a6d0cb"/><stop offset="0.62" stop-color="#a1ced3"/><stop offset="0.64" stop-color="#a0cdd6"/><stop offset="0.83" stop-color="#9ccad9"/><stop offset="1" stop-color="#92c1df"/></linearGradient></defs><g id="레이어_3" data-name="레이어 3"><rect class="cls-1" x="40.73" y="125.19" width="613.18" height="249.96"/><g class="cls-2"><rect class="cls-3" x="40.73" y="126.28" width="613.19" height="248.7"/><path class="cls-4" d="M49.62,219.21v82.57H84.37V219.21Zm14,63.21H55.85v-2.78h7.79Zm0-6.55H55.85v-2.78h7.79Zm0-6.54H55.85v-2.78h7.79Zm0-6.55H55.85V260h7.79Zm0-6.54H55.85v-2.78h7.79Zm0-6.55H55.85v-2.78h7.79Zm0-6.54H55.85v-2.78h7.79Zm0-6.55H55.85v-2.78h7.79Zm0-6.55H55.85v-2.78h7.79Zm14.51,52.37H70.36v-2.78h7.79Zm0-6.55H70.36v-2.78h7.79Zm0-6.54H70.36v-2.78h7.79Zm0-6.55H70.36V260h7.79Zm0-6.54H70.36v-2.78h7.79Zm0-6.55H70.36v-2.78h7.79Zm0-6.54H70.36v-2.78h7.79Zm0-6.55H70.36v-2.78h7.79Zm0-6.55H70.36v-2.78h7.79Z"/><path class="cls-4" d="M546,239.64v62.14h26.16V239.64Zm10.55,47.57h-5.86v-2.1h5.86Zm0-4.93h-5.86v-2.09h5.86Zm0-4.93h-5.86v-2.09h5.86Zm0-4.92h-5.86v-2.1h5.86Zm0-4.93h-5.86v-2.09h5.86Zm0-4.93h-5.86v-2.09h5.86Zm0-4.92h-5.86v-2.09h5.86Zm0-4.93h-5.86v-2.09h5.86Zm0-4.92h-5.86v-2.1h5.86Zm10.92,39.41h-5.86v-2.1h5.86Zm0-4.93h-5.86v-2.09h5.86Zm0-4.93h-5.86v-2.09h5.86Zm0-4.92h-5.86v-2.1h5.86Zm0-4.93h-5.86v-2.09h5.86Zm0-4.93h-5.86v-2.09h5.86Zm0-4.92h-5.86v-2.09h5.86Zm0-4.93h-5.86v-2.09h5.86Zm0-4.92h-5.86v-2.1h5.86Z"/><path class="cls-4" d="M88.73,239.64v62.14h26.16V239.64Zm10.55,47.57H93.42v-2.1h5.86Zm0-4.93H93.42v-2.09h5.86Zm0-4.93H93.42v-2.09h5.86Zm0-4.92H93.42v-2.1h5.86Zm0-4.93H93.42v-2.09h5.86Zm0-4.93H93.42v-2.09h5.86Zm0-4.92H93.42v-2.09h5.86Zm0-4.93H93.42v-2.09h5.86Zm0-4.92H93.42v-2.1h5.86Zm10.92,39.41h-5.86v-2.1h5.86Zm0-4.93h-5.86v-2.09h5.86Zm0-4.93h-5.86v-2.09h5.86Zm0-4.92h-5.86v-2.1h5.86Zm0-4.93h-5.86v-2.09h5.86Zm0-4.93h-5.86v-2.09h5.86Zm0-4.92h-5.86v-2.09h5.86Zm0-4.93h-5.86v-2.09h5.86Zm0-4.92h-5.86v-2.1h5.86Z"/><path class="cls-4" d="M602.92,197.63v-2.86h-9v-10a1.79,1.79,0,0,0-1.79-1.79h-2.37V169.83a1.43,1.43,0,0,0-1.43-1.43h-.62a1.42,1.42,0,0,0-1.42,1.43V183h-2.37a1.8,1.8,0,0,0-1.8,1.79v10h-9v2.86h3.56v10.05H573v3h4.36v91h21.16v-91h4.37v-3h-3.57V197.63ZM595,296.24h-2.66v-7.91H595ZM595,284h-2.66v-7.9H595Zm0-12.27h-2.66v-7.91H595Zm0-12.27h-2.66v-7.91H595Zm0-12.28h-2.66v-7.91H595Zm0-12.27h-2.66V227H595Zm0-12.28h-2.66v-7.9H595Zm-4.36-25v10.05h-5.31V197.63Zm1.7,0h5.32v10.05h-5.32Zm-14,0h5.31v10.05H578.3Z"/><path class="cls-4" d="M640.3,236.19c-12.91-19.53-37-19.49-37-19.49v85.08h3.3V221s20.36,0,31.29,18.51a37.36,37.36,0,0,1,5,18.93v43.34h3.3V256.13A36.13,36.13,0,0,0,640.3,236.19Z"/><rect class="cls-4" x="608.44" y="266.51" width="32.6" height="5.32"/><rect class="cls-4" x="608.44" y="273.33" width="32.6" height="5.32"/><rect class="cls-4" x="608.44" y="259.69" width="32.6" height="5.32"/><rect class="cls-4" x="608.44" y="286.97" width="32.6" height="5.32"/><rect class="cls-4" x="608.44" y="293.79" width="32.6" height="5.32"/><rect class="cls-4" x="608.44" y="280.15" width="32.6" height="5.32"/><path class="cls-4" d="M608.44,252.87v5.32H641a41,41,0,0,0-.52-5.32Z"/><path class="cls-4" d="M627.87,230.91a34.12,34.12,0,0,0-19.43-7.38v7.38Z"/><path class="cls-4" d="M608.44,246.05v5.32h31.75a38.08,38.08,0,0,0-1.5-5.32Z"/><rect class="cls-4" x="608.44" y="300.61" width="32.6" height="0.86"/><path class="cls-4" d="M608.44,237.73h25.85a35.15,35.15,0,0,0-4.68-5.32H608.44Z"/><path class="cls-4" d="M638.09,244.55a32.8,32.8,0,0,0-1.5-3.17c-.42-.75-.85-1.46-1.29-2.15H608.44v5.32Z"/><path class="cls-5" d="M501,198.32c-6.18-9.28-11.46-1.19-11.46-1.19,6.74-5.64,11.23,4.05,11.23,4.05l.07-.42V201s6.25-8.69,11.8-1.9C512.64,199.11,508.94,190.07,501,198.32Z"/><path class="cls-5" d="M509.16,195.27a8,8,0,0,1,3.48,3.84,6.24,6.24,0,0,0-4.18-2.57Z"/><path class="cls-5" d="M494.07,193.92c-2.72.45-4.52,3.21-4.52,3.21a6.35,6.35,0,0,1,4.42-1.76Z"/><path class="cls-5" d="M550.26,192.31c-17-12.53-21.1,5.17-21.1,5.17,8.28-14.29,22.56,0,22.56,0l-.15-.79.15.46s5.42-19.39,19.69-10.89C571.41,186.3,559,172.63,550.26,192.31Z"/><path class="cls-5" d="M562.74,181.71c4.87.42,8.67,4.59,8.67,4.59-3.57-2.13-6.58-2.51-9.1-1.89Z"/><path class="cls-5" d="M535.1,188.92c-4.54,2.53-5.94,8.56-5.94,8.56,2-3.42,4.31-5.2,6.7-5.93Z"/><path class="cls-5" d="M524.13,168.47c-5.6-7.91-10-.76-10-.76C519.86,162.65,524,171,524,171l0-.37v.23s5.21-7.7,10.2-1.95C534.25,168.86,530.81,161.11,524.13,168.47Z"/><path class="cls-5" d="M531.13,165.62a7,7,0,0,1,3.12,3.24,5.44,5.44,0,0,0-3.7-2.12Z"/><path class="cls-5" d="M518,164.82a6.77,6.77,0,0,0-3.85,2.89,5.53,5.53,0,0,1,3.8-1.63Z"/><rect class="cls-6" x="40.32" y="262.39" width="614" height="10.47"/><line class="cls-7" x1="257.92" y1="254.91" x2="257.92" y2="262.68"/><line class="cls-7" x1="264.17" y1="256.79" x2="264.17" y2="262.68"/><line class="cls-7" x1="270.43" y1="258.51" x2="270.43" y2="262.68"/><line class="cls-7" x1="276.68" y1="260.4" x2="276.68" y2="262.68"/><rect class="cls-6" x="165" y="283.66" width="4.41" height="29.8" transform="translate(-131.36 465.77) rotate(-90)"/><rect class="cls-6" x="164.97" y="214.6" width="4.46" height="81.75"/><path class="cls-8" d="M167.21,217.1c2.58,1.41,5.12,2.78,7.64,4.11,34.34,18.13,72.63,31.86,119.24,43.75"/><line class="cls-8" x1="176.6" y1="222.13" x2="176.6" y2="262.68"/><line class="cls-8" x1="182.86" y1="225.29" x2="182.86" y2="265.84"/><line class="cls-8" x1="189.11" y1="228.34" x2="189.11" y2="262.68"/><line class="cls-8" x1="195.37" y1="231.24" x2="195.37" y2="262.68"/><line class="cls-8" x1="201.62" y1="234.11" x2="201.62" y2="262.68"/><line class="cls-8" x1="207.88" y1="236.69" x2="207.88" y2="262.68"/><line class="cls-8" x1="214.13" y1="239.24" x2="214.13" y2="262.68"/><line class="cls-8" x1="220.39" y1="241.86" x2="220.39" y2="262.68"/><line class="cls-8" x1="226.64" y1="244.25" x2="226.64" y2="262.68"/><line class="cls-8" x1="232.9" y1="246.57" x2="232.9" y2="262.68"/><line class="cls-8" x1="239.15" y1="248.7" x2="239.15" y2="262.68"/><line class="cls-8" x1="245.41" y1="250.89" x2="245.41" y2="262.68"/><line class="cls-8" x1="251.66" y1="252.9" x2="251.66" y2="262.68"/><path class="cls-8" d="M167.21,217.1q-3.87,2.11-7.65,4.11c-34.34,18.13-71.82,31.65-118.44,43.54"/><line class="cls-8" x1="157.81" y1="222.13" x2="157.81" y2="262.68"/><line class="cls-8" x1="151.55" y1="225.29" x2="151.55" y2="265.84"/><line class="cls-8" x1="145.3" y1="228.34" x2="145.3" y2="262.68"/><line class="cls-8" x1="139.04" y1="231.24" x2="139.04" y2="262.68"/><line class="cls-8" x1="132.79" y1="234.11" x2="132.79" y2="262.68"/><line class="cls-8" x1="126.53" y1="236.69" x2="126.53" y2="262.68"/><line class="cls-8" x1="120.28" y1="239.24" x2="120.28" y2="262.68"/><line class="cls-8" x1="114.03" y1="241.86" x2="114.03" y2="262.68"/><line class="cls-8" x1="107.77" y1="244.25" x2="107.77" y2="262.68"/><line class="cls-8" x1="101.52" y1="246.57" x2="101.52" y2="262.68"/><line class="cls-8" x1="95.26" y1="248.7" x2="95.26" y2="262.68"/><line class="cls-8" x1="89.01" y1="250.89" x2="89.01" y2="262.68"/><line class="cls-8" x1="82.75" y1="252.9" x2="82.75" y2="262.68"/><rect class="cls-6" x="525.23" y="283.66" width="4.41" height="29.8" transform="translate(228.87 826) rotate(-90)"/><rect class="cls-6" x="525.2" y="214.6" width="4.46" height="81.75"/><path class="cls-7" d="M527.43,217.1q3.87,2.11,7.65,4.11c34.34,18.13,71.81,31.65,118.42,43.54"/><line class="cls-7" x1="536.83" y1="222.13" x2="536.83" y2="262.68"/><line class="cls-7" x1="543.09" y1="225.29" x2="543.09" y2="265.84"/><line class="cls-7" x1="549.34" y1="228.34" x2="549.34" y2="262.68"/><line class="cls-7" x1="555.6" y1="231.24" x2="555.6" y2="262.68"/><line class="cls-7" x1="561.85" y1="234.11" x2="561.85" y2="262.68"/><line class="cls-7" x1="568.11" y1="236.69" x2="568.11" y2="262.68"/><line class="cls-7" x1="574.36" y1="239.24" x2="574.36" y2="262.68"/><line class="cls-7" x1="580.62" y1="241.86" x2="580.62" y2="262.68"/><line class="cls-7" x1="586.87" y1="244.25" x2="586.87" y2="262.68"/><line class="cls-7" x1="593.13" y1="246.57" x2="593.13" y2="262.68"/><line class="cls-7" x1="599.38" y1="248.7" x2="599.38" y2="262.68"/><line class="cls-7" x1="605.63" y1="250.89" x2="605.63" y2="262.68"/><line class="cls-7" x1="611.89" y1="252.9" x2="611.89" y2="262.68"/><path class="cls-7" d="M527.43,217.1q-3.85,2.11-7.64,4.11c-34.34,18.13-72.63,31.86-119.24,43.75"/><line class="cls-7" x1="518.04" y1="222.13" x2="518.04" y2="262.68"/><line class="cls-7" x1="511.78" y1="225.29" x2="511.78" y2="265.84"/><line class="cls-7" x1="505.53" y1="228.34" x2="505.53" y2="262.68"/><line class="cls-7" x1="499.27" y1="231.24" x2="499.27" y2="262.68"/><line class="cls-7" x1="493.02" y1="234.11" x2="493.02" y2="262.68"/><line class="cls-7" x1="486.76" y1="236.69" x2="486.76" y2="262.68"/><line class="cls-7" x1="480.51" y1="239.24" x2="480.51" y2="262.68"/><line class="cls-7" x1="474.25" y1="241.86" x2="474.25" y2="262.68"/><line class="cls-7" x1="468" y1="244.25" x2="468" y2="262.68"/><line class="cls-7" x1="461.74" y1="246.57" x2="461.74" y2="262.68"/><line class="cls-7" x1="455.49" y1="248.7" x2="455.49" y2="262.68"/><line class="cls-7" x1="449.23" y1="250.89" x2="449.23" y2="262.68"/><line class="cls-7" x1="442.98" y1="252.9" x2="442.98" y2="262.68"/><line class="cls-7" x1="76.5" y1="254.91" x2="76.5" y2="262.68"/><line class="cls-7" x1="70.24" y1="256.79" x2="70.24" y2="262.68"/><line class="cls-7" x1="63.99" y1="258.51" x2="63.99" y2="262.68"/><line class="cls-7" x1="57.73" y1="260.4" x2="57.73" y2="262.68"/><rect class="cls-9" x="40.63" y="300.77" width="613.19" height="73.61"/><rect class="cls-10" x="40.63" y="343.49" width="613.29" height="31.48"/><ellipse class="cls-11" cx="445.65" cy="202.66" rx="13.84" ry="13.67"/><rect class="cls-12" x="80.74" y="331" width="2.3" height="46.38" rx="1.08" transform="translate(-21.93 5.8) rotate(-3.58)"/><path class="cls-1" d="M95.8,351,67.7,352.8c.13-6.32,1.71-12.18,8.88-16.87,3.43-2.23,4.41-2.28,8.11-.58a18.07,18.07,0,0,1,10.37,11.83A35.87,35.87,0,0,1,95.8,351Z"/><path class="cls-13" d="M80.64,334.16c-6.3,6.3-8.9,9.64-10.76,18.5l-10.79.68C61.05,343.88,72.8,334.65,80.64,334.16Z"/><path class="cls-13" d="M80.64,334.16c7,5.46,10,8.45,13,17l10.8-.68C101.29,341.37,88.48,333.67,80.64,334.16Z"/><rect class="cls-12" x="211.42" y="329.17" width="2.54" height="51.2" rx="1.19" transform="translate(-21.71 13.95) rotate(-3.58)"/><path class="cls-1" d="M228.05,351.29l-31,1.94c.14-7,1.89-13.45,9.8-18.61,3.78-2.47,4.87-2.53,8.95-.65A20,20,0,0,1,227.23,347,43.09,43.09,0,0,1,228.05,351.29Z"/><path class="cls-13" d="M211.31,332.66c-6.95,6.95-9.82,10.63-11.87,20.42l-11.92.74C189.69,343.39,202.66,333.2,211.31,332.66Z"/><path class="cls-13" d="M211.31,332.66c7.77,6,11.07,9.33,14.33,18.78l11.92-.74C234.1,340.62,220,332.12,211.31,332.66Z"/><rect class="cls-12" x="357.68" y="334.7" width="2.54" height="51.2" rx="1.19" transform="translate(-21.77 23.08) rotate(-3.58)"/><path class="cls-1" d="M374.3,356.82l-31,1.93c.15-7,1.89-13.44,9.81-18.61,3.78-2.47,4.87-2.52,8.94-.64a19.92,19.92,0,0,1,11.45,13.05A37.73,37.73,0,0,1,374.3,356.82Z"/><path class="cls-13" d="M357.57,338.18c-7,6.95-9.82,10.64-11.88,20.42l-11.92.75C335.94,348.92,348.91,338.72,357.57,338.18Z"/><path class="cls-13" d="M357.57,338.18c7.77,6,11.07,9.33,14.33,18.79l11.91-.75C380.36,346.14,366.23,337.64,357.57,338.18Z"/><rect class="cls-12" x="254.83" y="345.96" width="1.94" height="39.08" rx="0.91" transform="translate(76.2 -42.87) rotate(11.25)"/><path class="cls-1" d="M267.81,365.93l-23.27-4.63c1.47-5.11,4-9.55,10.87-11.81,3.27-1.09,4.08-.91,6.72,1.27a15.21,15.21,0,0,1,5.9,11.87A30.77,30.77,0,0,1,267.81,365.93Z"/><path class="cls-13" d="M259.1,348.92c-6.49,3.77-9.33,5.93-12.75,12.74l-8.94-1.77C241.05,352.61,252.6,347.62,259.1,348.92Z"/><path class="cls-13" d="M259.1,348.92c4.55,6,6.34,9,6.9,16.65l8.94,1.78C274.36,359.24,265.59,350.21,259.1,348.92Z"/><rect class="cls-12" x="305.78" y="350.38" width="1.81" height="36.5" rx="0.85" transform="translate(107.39 -67.52) rotate(15.2)"/><path class="cls-1" d="M317.84,369.81,296.46,364c1.7-4.67,4.36-8.64,10.89-10.32,3.12-.79,3.87-.58,6.19,1.62a14.25,14.25,0,0,1,4.73,11.44A27.48,27.48,0,0,1,317.84,369.81Z"/><path class="cls-13" d="M310.82,353.39c-6.29,3.1-9.06,4.93-12.7,11.06l-8.21-2.23C293.77,355.67,304.86,351.77,310.82,353.39Z"/><path class="cls-13" d="M310.82,353.39c3.86,5.85,5.33,8.84,5.36,16l8.22,2.24C324.38,364,316.79,355,310.82,353.39Z"/><rect class="cls-12" x="166.08" y="358.24" width="1.22" height="24.54" rx="0.57" transform="translate(-104.71 68.18) rotate(-17.69)"/><path class="cls-1" d="M173.42,367.1l-14.19,4.53c-.75-3.26-.7-6.48,2.38-9.8,1.47-1.59,2-1.75,4.08-1.35a9.59,9.59,0,0,1,6.85,4.73A19.83,19.83,0,0,1,173.42,367.1Z"/><path class="cls-13" d="M163.46,360.39c-2.42,4.05-3.32,6.09-3.13,10.88L154.87,373C154.66,367.91,159.5,361.65,163.46,360.39Z"/><path class="cls-13" d="M163.46,360.39c4.32,1.9,6.24,3.05,8.86,7.06l5.45-1.74C175,361.43,167.42,359.13,163.46,360.39Z"/><rect class="cls-12" x="405.76" y="350.38" width="1.81" height="36.5" rx="0.85" transform="translate(110.88 -93.73) rotate(15.2)"/><path class="cls-1" d="M417.82,369.81,396.45,364c1.69-4.67,4.36-8.64,10.88-10.32,3.12-.79,3.87-.58,6.19,1.62a14.25,14.25,0,0,1,4.73,11.44A27.48,27.48,0,0,1,417.82,369.81Z"/><path class="cls-13" d="M410.81,353.39c-6.29,3.1-9.07,4.93-12.71,11.06l-8.21-2.23C393.75,355.67,404.84,351.77,410.81,353.39Z"/><path class="cls-13" d="M410.81,353.39c3.85,5.85,5.32,8.84,5.35,16l8.22,2.24C424.36,364,416.77,355,410.81,353.39Z"/><rect class="cls-12" x="122.82" y="355.56" width="1.6" height="32.25" rx="0.75" transform="translate(64.67 -15.56) rotate(9.74)"/><path class="cls-1" d="M133.54,371.78l-19.29-3.31c1.1-4.25,3.1-8,8.71-10,2.67-1,3.35-.84,5.57.9a12.58,12.58,0,0,1,5.13,9.67A24.07,24.07,0,0,1,133.54,371.78Z"/><path class="cls-13" d="M126,357.93c-5.28,3.25-7.57,5.09-10.25,10.79l-7.41-1.27C111.17,361.37,120.6,357,126,357.93Z"/><path class="cls-13" d="M126,357.93c3.88,4.82,5.43,7.32,6,13.59l7.42,1.27C138.8,366.11,131.37,358.85,126,357.93Z"/><rect class="cls-12" x="473.38" y="330.52" width="2.3" height="46.38" rx="1.08" transform="translate(-21.13 30.28) rotate(-3.58)"/><path class="cls-1" d="M488.44,350.56l-28.1,1.75c.13-6.31,1.71-12.18,8.88-16.86,3.42-2.23,4.41-2.28,8.1-.58a18.07,18.07,0,0,1,10.37,11.83A35.77,35.77,0,0,1,488.44,350.56Z"/><path class="cls-13" d="M473.28,333.68c-6.3,6.3-8.9,9.63-10.76,18.5l-10.8.67C453.69,343.4,465.44,334.17,473.28,333.68Z"/><path class="cls-13" d="M473.28,333.68c7,5.46,10,8.45,13,17l10.79-.67C493.93,340.89,481.12,333.19,473.28,333.68Z"/><rect class="cls-12" x="504.37" y="350.18" width="1.6" height="32.25" rx="0.75" transform="translate(69.26 -80.19) rotate(9.74)"/><path class="cls-1" d="M515.08,366.4l-19.29-3.31c1.1-4.25,3.11-8,8.71-10,2.67-1,3.35-.84,5.58.91a12.58,12.58,0,0,1,5.12,9.66A23.88,23.88,0,0,1,515.08,366.4Z"/><path class="cls-13" d="M507.53,352.55c-5.27,3.26-7.56,5.1-10.24,10.8l-7.42-1.27C492.72,356,502.14,351.63,507.53,352.55Z"/><path class="cls-13" d="M507.53,352.55c3.89,4.83,5.43,7.33,6.06,13.6l7.41,1.27C520.35,360.74,512.92,353.48,507.53,352.55Z"/><rect class="cls-12" x="610.03" y="334.94" width="2.3" height="46.38" rx="1.08" transform="translate(1198.85 753.68) rotate(-176.42)"/><path class="cls-1" d="M597.28,355l28.1,1.75c-.14-6.31-1.72-12.18-8.89-16.86-3.42-2.23-4.41-2.28-8.1-.58A18.07,18.07,0,0,0,598,351.12,33.58,33.58,0,0,0,597.28,355Z"/><path class="cls-13" d="M612.44,338.1c6.3,6.3,8.89,9.63,10.76,18.5l10.79.67C632,347.82,620.28,338.59,612.44,338.1Z"/><path class="cls-13" d="M612.44,338.1c-7,5.46-10,8.45-13,17l-10.8-.67C591.79,345.31,604.59,337.61,612.44,338.1Z"/><rect class="cls-12" x="570.88" y="356.23" width="1.6" height="32.25" rx="0.75" transform="translate(1198.11 642.63) rotate(170.26)"/><path class="cls-1" d="M561.76,372.45l19.3-3.31c-1.1-4.25-3.11-8-8.71-10-2.68-1-3.35-.84-5.58.91a12.53,12.53,0,0,0-5.12,9.66A23.85,23.85,0,0,0,561.76,372.45Z"/><path class="cls-13" d="M569.32,358.6c5.27,3.25,7.56,5.1,10.24,10.8l7.41-1.28C584.13,362,574.7,357.68,569.32,358.6Z"/><path class="cls-13" d="M569.32,358.6c-3.89,4.83-5.44,7.33-6.06,13.59l-7.42,1.28C556.5,366.79,563.93,359.53,569.32,358.6Z"/><rect class="cls-12" x="453.95" y="356.23" width="1.6" height="32.25" rx="0.75" transform="translate(965.95 662.41) rotate(170.26)"/><path class="cls-1" d="M444.84,372.45l19.29-3.31c-1.1-4.25-3.11-8-8.71-10-2.67-1-3.35-.84-5.58.91a12.56,12.56,0,0,0-5.12,9.66A24,24,0,0,0,444.84,372.45Z"/><path class="cls-13" d="M452.39,358.6c5.27,3.25,7.56,5.1,10.24,10.8l7.42-1.28C467.2,362,457.78,357.68,452.39,358.6Z"/><path class="cls-13" d="M452.39,358.6c-3.89,4.83-5.43,7.33-6.06,13.59l-7.41,1.28C439.57,366.79,447,359.53,452.39,358.6Z"/></g><path d="M105.68,205.72a1.16,1.16,0,0,1-1.72,0l-2.33-2.18c-.46-.46-.41-.95.15-1.48a33.51,33.51,0,0,0,5.49-6.52,35.55,35.55,0,0,0,3.65-7.61,36.87,36.87,0,0,0,1.71-7.34,56.65,56.65,0,0,0,.37-8.13.7.7,0,0,1,.22-.52.69.69,0,0,1,.47-.22l4.4.15a.57.57,0,0,1,.44.22.77.77,0,0,1,.2.52,65.44,65.44,0,0,1-.89,11.17,22.74,22.74,0,0,0,1.48,4.77,32.08,32.08,0,0,0,2.45,4.59,34.32,34.32,0,0,0,3,4.08,24,24,0,0,0,3.26,3.16c.52.39.56.92.1,1.58l-2.08,2.52a1,1,0,0,1-.67.4,1.35,1.35,0,0,1-.91-.3,22.52,22.52,0,0,1-2.59-2.37,34.22,34.22,0,0,1-2.6-3.09,38.08,38.08,0,0,1-2.27-3.41,20,20,0,0,1-1.63-3.39,34.25,34.25,0,0,1-2,4c-.76,1.28-1.55,2.51-2.39,3.68a33.11,33.11,0,0,1-2.62,3.21A27.2,27.2,0,0,1,105.68,205.72Zm34.74,10.43H136a.57.57,0,0,1-.64-.64V189.37H125.2a.72.72,0,0,1-.47-.2.57.57,0,0,1-.22-.44v-3.51a.52.52,0,0,1,.22-.42.74.74,0,0,1,.47-.17h10.18V169.9a.56.56,0,0,1,.64-.64h4.4a.56.56,0,0,1,.64.64v45.61A.57.57,0,0,1,140.42,216.15Z"/><path d="M191.11,192.75a.74.74,0,0,1-.49.23H171.94v3.65H181a4.17,4.17,0,0,1,2.7.62,3.11,3.11,0,0,1,.66,2.3v5.68a3.09,3.09,0,0,1-.66,2.32,4.25,4.25,0,0,1-2.7.6h-20.8c-.26,0-.43,0-.49.12a1,1,0,0,0-.1.57v1.53c0,.3,0,.47.1.52a1.15,1.15,0,0,0,.54.07h24.56a.79.79,0,0,1,.49.2.6.6,0,0,1,.25.49v3.22a.6.6,0,0,1-.25.46.7.7,0,0,1-.44.23H157.37a3.73,3.73,0,0,1-2.62-.69,3.16,3.16,0,0,1-.69-2.28V207a3.22,3.22,0,0,1,.66-2.27,3.65,3.65,0,0,1,2.6-.69h21a.94.94,0,0,0,.49-.08c.07,0,.1-.24.1-.57V202c0-.36,0-.58-.1-.64s-.25-.1-.54-.1H154.6a.7.7,0,0,1-.47-.2.57.57,0,0,1-.22-.44v-3.32a.57.57,0,0,1,.22-.44.7.7,0,0,1,.47-.2h11.66V193H147.58a.61.61,0,0,1-.69-.7v-3.06a.77.77,0,0,1,.2-.52.63.63,0,0,1,.49-.22h43a.89.89,0,0,1,.74.74v3.06A.6.6,0,0,1,191.11,192.75Zm-6.37-15.63a6.07,6.07,0,0,1-1,3.43,8.64,8.64,0,0,1-3,2.69,17.28,17.28,0,0,1-4.87,1.78,34.82,34.82,0,0,1-13.29,0,17.28,17.28,0,0,1-4.87-1.78,8.73,8.73,0,0,1-3-2.69,6.07,6.07,0,0,1-1-3.43,5.79,5.79,0,0,1,1-3.31,8.89,8.89,0,0,1,3-2.67,17.28,17.28,0,0,1,4.87-1.78,34.82,34.82,0,0,1,13.29,0,17.28,17.28,0,0,1,4.87,1.78,8.79,8.79,0,0,1,3,2.67A5.79,5.79,0,0,1,184.74,177.12ZM169.18,173a21.24,21.24,0,0,0-4,.34,15.43,15.43,0,0,0-3.14.92,6,6,0,0,0-2.07,1.35,2.43,2.43,0,0,0-.75,1.68,2.3,2.3,0,0,0,.75,1.61,6.07,6.07,0,0,0,2.07,1.33,15.43,15.43,0,0,0,3.14.92,23.29,23.29,0,0,0,7.93,0,15.27,15.27,0,0,0,3.16-.92,6.22,6.22,0,0,0,2.08-1.33,2.32,2.32,0,0,0,.74-1.61,2.46,2.46,0,0,0-.74-1.68,6.09,6.09,0,0,0-2.08-1.35,15.27,15.27,0,0,0-3.16-.92A21.37,21.37,0,0,0,169.18,173Z"/><path d="M129.71,244.9a4.34,4.34,0,0,1-1.29.92,4.84,4.84,0,0,1-1.66.46,9,9,0,0,1-1,0c-.38,0-.75-.07-1.11-.13s-.68-.12-1-.19a2.83,2.83,0,0,1-.63-.21,1.27,1.27,0,0,1-.35-.2s0-.14,0-.28l.14-1.44c0-.1,0-.17.1-.19s.14,0,.29.06a6.24,6.24,0,0,0,.66.22,7.1,7.1,0,0,0,1,.21,7.47,7.47,0,0,0,1.06.11,3.66,3.66,0,0,0,1-.08,3,3,0,0,0,.91-.36,1.84,1.84,0,0,0,.55-.52,1.76,1.76,0,0,0,.28-.66,3.08,3.08,0,0,0,.08-.75,2,2,0,0,0-.47-1,4.74,4.74,0,0,0-1.37-1.16q-1.09-.64-1.89-1.2a8.4,8.4,0,0,1-1.31-1.09,3.94,3.94,0,0,1-.76-1.13,3.14,3.14,0,0,1-.25-1.28,3.62,3.62,0,0,1,.33-1.52,3.93,3.93,0,0,1,.94-1.27,4.36,4.36,0,0,1,1.41-.87,5.08,5.08,0,0,1,1.82-.32,8.52,8.52,0,0,1,1.66.13,6.29,6.29,0,0,1,1.11.3.57.57,0,0,1,.27.16.35.35,0,0,1,0,.23l-.26,1.24a.46.46,0,0,1-.12.29q-.09.07-.3,0c-.2-.06-.41-.13-.64-.18l-.72-.15c-.25,0-.48-.06-.71-.08a3.92,3.92,0,0,0-.61,0,2.42,2.42,0,0,0-1.53.71,2.08,2.08,0,0,0-.43,1.35,1.8,1.8,0,0,0,.5,1.08,6.15,6.15,0,0,0,1.48,1.17q1.22.74,2,1.32a7.83,7.83,0,0,1,1.24,1.12,3.27,3.27,0,0,1,.64,1.07,3.8,3.8,0,0,1,.18,1.19A4.07,4.07,0,0,1,129.71,244.9Z"/><path d="M141.65,241.06a.29.29,0,0,1-.09.23.29.29,0,0,1-.19.08H135a3.5,3.5,0,0,0,.81,2.12,2.48,2.48,0,0,0,2,.83,7.45,7.45,0,0,0,1.46-.17,4.7,4.7,0,0,0,1.49-.57c.1-.05.15,0,.18,0a.82.82,0,0,1,0,.25v1.34a.49.49,0,0,1-.06.27.67.67,0,0,1-.23.2,4.79,4.79,0,0,1-1.37.44,9.52,9.52,0,0,1-1.6.14,4.49,4.49,0,0,1-3.64-1.45,6.37,6.37,0,0,1-1.24-4.24,8,8,0,0,1,.28-2.06,5.69,5.69,0,0,1,.82-1.8,4.22,4.22,0,0,1,1.41-1.28,4.05,4.05,0,0,1,2-.49,4.15,4.15,0,0,1,2,.45,3.9,3.9,0,0,1,1.35,1.2,5,5,0,0,1,.75,1.77,9.26,9.26,0,0,1,.24,2.15c0,.09,0,.2,0,.31S141.65,241,141.65,241.06Zm-4.25-4.27a1.85,1.85,0,0,0-.94.23,2.51,2.51,0,0,0-.7.6,3.22,3.22,0,0,0-.47.86,4.8,4.8,0,0,0-.26,1h4.44a3.48,3.48,0,0,0-.12-.86,3.17,3.17,0,0,0-.38-.86,2.27,2.27,0,0,0-.64-.67A1.59,1.59,0,0,0,137.4,236.79Z"/><path d="M152.24,244.45a4.51,4.51,0,0,1-1.66,1.33,5.52,5.52,0,0,1-4.39,0,4.29,4.29,0,0,1-1.59-1.22,5.2,5.2,0,0,1-1-1.8,7.69,7.69,0,0,1,0-4.39,5,5,0,0,1,1-1.8,4.54,4.54,0,0,1,1.58-1.21,5.05,5.05,0,0,1,2.2-.45,5.12,5.12,0,0,1,2.2.45,4.67,4.67,0,0,1,1.59,1.21,5.36,5.36,0,0,1,1,1.8,7.63,7.63,0,0,1,0,4.34A5.36,5.36,0,0,1,152.24,244.45Zm-3.86-7.62a2.43,2.43,0,0,0-1.31.33,2.65,2.65,0,0,0-.9.86,4.34,4.34,0,0,0-.53,1.2,5.45,5.45,0,0,0,0,2.7,4.27,4.27,0,0,0,.53,1.21,2.61,2.61,0,0,0,.9.88,2.77,2.77,0,0,0,2.62,0,2.61,2.61,0,0,0,.9-.88,4,4,0,0,0,.53-1.21,5.21,5.21,0,0,0,.17-1.35,5.11,5.11,0,0,0-.17-1.33,4,4,0,0,0-.53-1.2,2.68,2.68,0,0,0-.9-.87A2.41,2.41,0,0,0,148.38,236.83Z"/><path d="M162.63,245.93a.31.31,0,0,1-.17-.05.13.13,0,0,1,0-.15V245a3.33,3.33,0,0,1-1.24,1,3.62,3.62,0,0,1-1.52.33,3.48,3.48,0,0,1-2.82-1.11,4.77,4.77,0,0,1-.93-3.16v-6.5a.34.34,0,0,1,.07-.19.21.21,0,0,1,.17-.09h1.59a.24.24,0,0,1,.17.1.34.34,0,0,1,.08.2v6.17a3.39,3.39,0,0,0,.48,2.06,1.67,1.67,0,0,0,1.4.6,2.21,2.21,0,0,0,1.74-.8,3.53,3.53,0,0,0,.69-2.37v-5.68a.28.28,0,0,1,.07-.19.19.19,0,0,1,.16-.09h1.61a.21.21,0,0,1,.17.11.44.44,0,0,1,.07.21v7.92c0,.4,0,.79,0,1.18s0,.74,0,1.07c0,.17-.07.25-.21.25Z"/><path d="M167.6,246c-.14,0-.22-.08-.22-.24V230.44a.26.26,0,0,1,.07-.17.25.25,0,0,1,.17-.06h1.63a.23.23,0,0,1,.16.06.22.22,0,0,1,.07.17v15.29a.22.22,0,0,1-.07.17.24.24,0,0,1-.16.07Z"/><path d="M278.44,245c-.16,0-.24-.07-.24-.2V230.62q0-.27.24-.27h3.35a5.75,5.75,0,0,1,3.45.91,3.26,3.26,0,0,1,1.23,2.8,4,4,0,0,1-.47,2,3.36,3.36,0,0,1-1.35,1.29,3.48,3.48,0,0,1,1,.56,3.53,3.53,0,0,1,.7.8,3.75,3.75,0,0,1,.55,1.92,3.84,3.84,0,0,1-1.44,3.28,6.73,6.73,0,0,1-4.15,1.09Zm1.94-6.54v4.46h.95a4.36,4.36,0,0,0,2.61-.59,2,2,0,0,0,.75-1.62,1.92,1.92,0,0,0-.82-1.65,4.76,4.76,0,0,0-2.75-.6Zm0-6v3.94h1a3.21,3.21,0,0,0,2.18-.59,2,2,0,0,0,.64-1.53,1.71,1.71,0,0,0-.56-1.32,2.94,2.94,0,0,0-1.93-.5Z"/><path d="M296.66,245a.28.28,0,0,1-.16-.05c-.05,0-.06-.08-.05-.15V244a3.37,3.37,0,0,1-1.23,1,3.7,3.7,0,0,1-1.53.33,3.46,3.46,0,0,1-2.81-1.11A4.78,4.78,0,0,1,290,241v-6.5a.28.28,0,0,1,.07-.19.19.19,0,0,1,.16-.09h1.59a.26.26,0,0,1,.18.1.32.32,0,0,1,.07.19v6.18a3.39,3.39,0,0,0,.48,2.06,1.7,1.7,0,0,0,1.41.6,2.19,2.19,0,0,0,1.73-.8,3.53,3.53,0,0,0,.69-2.37v-5.68a.34.34,0,0,1,.07-.19.21.21,0,0,1,.17-.09h1.61a.19.19,0,0,1,.16.11.35.35,0,0,1,.07.2v7.92c0,.41,0,.8,0,1.19s0,.74,0,1.07c0,.16-.07.25-.21.25Z"/><path d="M306.35,244.58a4.36,4.36,0,0,1-2.49.7,7.7,7.7,0,0,1-.81,0l-.83-.1c-.26,0-.5-.08-.7-.13a3.13,3.13,0,0,1-.49-.16.51.51,0,0,1-.16-.11.2.2,0,0,1-.07-.22l.11-1.26A.61.61,0,0,1,301,243s.11,0,.25,0a8.26,8.26,0,0,0,1.33.28,9.64,9.64,0,0,0,1.24.09,1.72,1.72,0,0,0,1.27-.43,1.39,1.39,0,0,0,.42-1,1.14,1.14,0,0,0-.22-.63,2.34,2.34,0,0,0-.72-.65l-1.08-.63-1.11-.63a3.47,3.47,0,0,1-1-1,2.34,2.34,0,0,1-.42-1.35,3.06,3.06,0,0,1,.3-1.41,2.82,2.82,0,0,1,.77-1,3.07,3.07,0,0,1,1.12-.58,4.46,4.46,0,0,1,1.33-.19c.24,0,.5,0,.76,0s.53.06.78.11a5.33,5.33,0,0,1,.68.15,1.88,1.88,0,0,1,.46.19c.06,0,.1.07.1.1a.27.27,0,0,1,0,.15l-.11,1.24c0,.14-.05.23-.1.24a.67.67,0,0,1-.29,0,6.47,6.47,0,0,0-.84-.26l-.57-.07a5.28,5.28,0,0,0-.75,0,1.42,1.42,0,0,0-1.12.37,1.27,1.27,0,0,0-.33.89,1,1,0,0,0,.37.66,4.08,4.08,0,0,0,.93.64c.4.19.77.39,1.12.6s.59.38.76.51a3.59,3.59,0,0,1,1.05,1.09,2.81,2.81,0,0,1,.35,1.43A3,3,0,0,1,306.35,244.58Z"/><path d="M315.69,245a.36.36,0,0,1-.18,0,.22.22,0,0,1,0-.15v-.87a3,3,0,0,1-1.23,1,3.56,3.56,0,0,1-1.5.34,4.58,4.58,0,0,1-1.47-.22,3,3,0,0,1-1.15-.64,3,3,0,0,1-.74-1,3.71,3.71,0,0,1-.27-1.47,4.13,4.13,0,0,1,.34-1.74,3.1,3.1,0,0,1,1.1-1.24,5.69,5.69,0,0,1,1.91-.74,14.25,14.25,0,0,1,2.82-.24,3.81,3.81,0,0,0-.08-.74,2.12,2.12,0,0,0-.26-.66,1.4,1.4,0,0,0-.52-.47,1.7,1.7,0,0,0-.83-.19,4.9,4.9,0,0,0-1.58.24,5.76,5.76,0,0,0-1.33.62c-.21.13-.35.19-.42.17s-.11-.08-.11-.21v-1.48a.92.92,0,0,0,0-.16.33.33,0,0,1,0-.15,1.26,1.26,0,0,1,.29-.21,8.64,8.64,0,0,1,1.35-.54,5.71,5.71,0,0,1,1.74-.22,3.92,3.92,0,0,1,2.9.95,4.11,4.11,0,0,1,.94,3v4.6c0,.37,0,.74,0,1.14a10,10,0,0,0,.07,1c0,.2,0,.31-.21.31Zm-3.44-4.66a1.69,1.69,0,0,0-.93,1.57,1.38,1.38,0,0,0,.43,1.11,1.7,1.7,0,0,0,1.14.37,2.18,2.18,0,0,0,1.78-.82,4,4,0,0,0,.67-2.54v-.21A6.68,6.68,0,0,0,312.25,240.31Z"/><path d="M327.14,245a.21.21,0,0,1-.17-.09.32.32,0,0,1-.06-.18v-6.18a3.56,3.56,0,0,0-.44-2,1.55,1.55,0,0,0-1.37-.63,2.38,2.38,0,0,0-1.89.71,3,3,0,0,0-.61,2v6.08a.22.22,0,0,1-.24.25h-1.61a.19.19,0,0,1-.16-.09.27.27,0,0,1-.07-.18V237c0-.49,0-1,0-1.42s0-.8-.05-1.06.07-.26.27-.26h1.54c.14,0,.2.06.17.16l0,.71a4.17,4.17,0,0,1,1.17-.8,3.39,3.39,0,0,1,1.57-.34,3.61,3.61,0,0,1,2.84,1.1,4.58,4.58,0,0,1,1,3.17v6.49c0,.16-.07.25-.23.25Z"/><path d="M302.22,198.78a.69.69,0,0,1-.49.25H283.05V214.1a.61.61,0,0,1-.69.69h-4.3a.61.61,0,0,1-.69-.69V199H258.69a.58.58,0,0,1-.49-.25.79.79,0,0,1-.2-.49V195a.77.77,0,0,1,.2-.52.61.61,0,0,1,.49-.22h43a.86.86,0,0,1,.74.74v3.26A.69.69,0,0,1,302.22,198.78ZM295,187.91a4,4,0,0,1-2.92.84H268.38a4.4,4.4,0,0,1-3-.74,3.71,3.71,0,0,1-.79-2.76V169a.53.53,0,0,1,.2-.42.63.63,0,0,1,.44-.17h4.35a.72.72,0,0,1,.47.17.5.5,0,0,1,.22.42v5.58h19.77V169a.6.6,0,0,1,.2-.45.59.59,0,0,1,.44-.19h4.4a.61.61,0,0,1,.44.19.64.64,0,0,1,.2.45v16.4A3.5,3.5,0,0,1,295,187.91Zm-4.89-8.64H270.3v4c0,.33.06.53.18.62a1.12,1.12,0,0,0,.61.12h18.19a1.12,1.12,0,0,0,.61-.12c.12-.09.18-.29.18-.62Z"/><path d="M308.89,196.12a1.36,1.36,0,0,1-1,.29,1.3,1.3,0,0,1-.64-.44l-2-2.33c-.33-.36-.46-.66-.38-.91a1.42,1.42,0,0,1,.57-.67,32.18,32.18,0,0,0,4.85-4,20,20,0,0,0,3.43-4.67,22.84,22.84,0,0,0,2.05-5.71,33.1,33.1,0,0,0,.69-7.09.88.88,0,0,1,.25-.62.68.68,0,0,1,.49-.27l4.35.25c.43,0,.64.24.64.74,0,1.42-.06,2.75-.17,4a36,36,0,0,1-.52,3.61,15.88,15.88,0,0,0,1.78,4,24.11,24.11,0,0,0,2.64,3.48,25.63,25.63,0,0,0,3,2.81,18.92,18.92,0,0,0,3,2c.49.27.56.66.19,1.19l-1.87,2.66a1.13,1.13,0,0,1-.57.45.83.83,0,0,1-.72-.15,22.31,22.31,0,0,1-5.63-4,23.78,23.78,0,0,1-4.25-5.5,24.87,24.87,0,0,1-4.23,5.9A38.67,38.67,0,0,1,308.89,196.12Zm35,18a.91.91,0,0,1-.52.15H317.29a4.24,4.24,0,0,1-3-.79,3.88,3.88,0,0,1-.76-2.72V200a.66.66,0,0,1,.22-.47.65.65,0,0,1,.47-.22h4.25a.72.72,0,0,1,.52.22.71.71,0,0,1,.22.47v8.79c0,.33.06.55.2.65a1.17,1.17,0,0,0,.69.15h23.27a.78.78,0,0,1,.49.19.55.55,0,0,1,.25.45v3.51A.5.5,0,0,1,343.9,214.15Zm5.48-26.48a.67.67,0,0,1-.47.19h-6.72v13a.56.56,0,0,1-.64.64h-4.4a.57.57,0,0,1-.64-.64v-32a.57.57,0,0,1,.64-.64h4.4a.56.56,0,0,1,.64.64v14.23h6.72a.75.75,0,0,1,.47.17.53.53,0,0,1,.23.42v3.51A.6.6,0,0,1,349.38,187.67Z"/><polygon points="218.38 180.98 231.08 193.68 218.38 206.37 218.38 180.98"/><path class="cls-14" d="M58.32,51.84h578a17.6,17.6,0,0,1,17.6,17.6v56.84a0,0,0,0,1,0,0H40.73a0,0,0,0,1,0,0V69.44A17.6,17.6,0,0,1,58.32,51.84Z"/><path class="cls-14" d="M40.73,374.31H653.91a0,0,0,0,1,0,0v56.32a17.53,17.53,0,0,1-17.53,17.53H58.25a17.53,17.53,0,0,1-17.53-17.53V374.31A0,0,0,0,1,40.73,374.31Z"/><path d="M127.45,91.86a3.93,3.93,0,0,1-3.92-4.25V81.93a4.53,4.53,0,0,1,4.16-4.48h2.14a4.39,4.39,0,0,1,4.06,4.48v5.85a3.94,3.94,0,0,1-3.78,4.08Zm1.69-2.49a2.1,2.1,0,0,0,2-2.09V82.17a2.07,2.07,0,0,0-2-1.94h-.76a2.12,2.12,0,0,0-2.07,1.9v5.38a1.89,1.89,0,0,0,1.83,1.86Zm12.25,7h-3.33V89.72H135V86.94h3.06V84.48H135V81.67h3.06V76.43h3.33Z"/><path d="M154.61,77.8V80h-1.43a4.19,4.19,0,0,1,.55,2.19v2.09a3.46,3.46,0,0,1-3.58,3.44h-2.21c-1.71,0-3.11-1.14-3.11-3.4V82.2a3.64,3.64,0,0,1,.69-2.19h-1.76V77.8h3.87V76.4h3.3v1.4ZM151,82.41c0-.78-.31-1.4-1.1-1.4h-1.09c-.78,0-1.19.62-1.19,1.4v1.66a1.08,1.08,0,0,0,1.24,1.19h.9A1.15,1.15,0,0,0,151,84Zm8.45,7.27a2.63,2.63,0,0,1,2.78,2.44v1.95a2.37,2.37,0,0,1-2.54,2.3h-9.22a2.8,2.8,0,0,1-2.61-2.28v-2c.26-1.71,2.26-2.44,3.28-2.44Zm-7.34,2.46c-.92,0-1.07.38-1.23.69l0,.62c.29.64.62.62,1.26.62h6.34c.55,0,1-.17,1-.62V93a1,1,0,0,0-1-.86ZM162.28,76.4V87.94h-2.71v-4h-1.76v4h-2.7V76.4h2.7v5.25h1.76V76.4Z"/><path d="M174.57,95.29h-2.09V91.71a8.94,8.94,0,0,1-5,1.85,16.33,16.33,0,0,1-3,0V91.66c3.08.61,7.15-.88,8-1.21V83.52h2.12Zm-5.81-11.46a1.84,1.84,0,0,1,1.9,1.91v1.9a1.84,1.84,0,0,1-2.06,1.91h-1.67a1.85,1.85,0,0,1-2-1.76V85.74a1.9,1.9,0,0,1,2-1.91Zm.21,2.28a.79.79,0,0,0-.81-.8h-.6a.85.85,0,0,0-.88.8v1.16a.85.85,0,0,0,.88.81h.6a.79.79,0,0,0,.81-.81Z"/><path d="M187,77.21v9.5H177v-9.5H180v2.61h3.89V77.21ZM178.4,91.38h10.78V90.29H178.4V88.37h14.08V93.5H181.42v.9h11.06v2.23H178.4Zm5.53-7.09v-2H180v2Zm11.3-.91H192.5v3.71h-3V76.38h3v4.2h2.73Z"/><path d="M203.83,80.91c-.1,1.43-.17,6.89,3.75,8.22v2.75a8.8,8.8,0,0,1-2.23-.85,6.23,6.23,0,0,1-3.09-3.49,6,6,0,0,1-3.11,3.58,7.84,7.84,0,0,1-2.23.76V89.13c3.91-1.33,3.75-6.79,3.65-8.22h-3.68V78.26h10.73v2.65Zm11.91,2.16v3.07h-3V96.39h-3.3V76.66h3.3v6.41Z"/><path d="M235,87.44h-7.62v2h6v2.25a10.47,10.47,0,0,1-.52,3,13.65,13.65,0,0,1-.48,1.28h-2.92a9.21,9.21,0,0,0,.93-2.7,6.7,6.7,0,0,0,.09-1.14H219V89.44h5.35v-2h-7.18V84.78h11.78a17.56,17.56,0,0,0,.81-3.65,11.85,11.85,0,0,0,.09-1.52h-10.7V76.88H233v2.49a28.29,28.29,0,0,1-1,5.41h3Z"/><path class="cls-15" d="M104.67,79.06c.18-.18.44-.33.51-.55s-.2-.37-.36-.52-.65-.47-.94-.74-.12-.36.16-.42a1,1,0,0,1,1.19.56l.72,1.28a1.1,1.1,0,0,0,1,.54,5.65,5.65,0,0,1,1.06.2c.25,0,.49.13.74.16.72.08,1,.36.88,1a1,1,0,0,1-1.24.83c-.43-.13-.89.63-1.31.44s-1-.42-1.16.06c-1,3.56-1.06-.83-1.46-1.2a8.2,8.2,0,0,1-.88-1,2.29,2.29,0,0,0-2.51-.91L98,79.51a2.53,2.53,0,0,0-1.41,1c-.38.48-.73,1-1.1,1.46a4.31,4.31,0,0,0-.88,2.56c0,.43-.1.86-.11,1.29a4.94,4.94,0,0,0,1.73,4.23,3.46,3.46,0,0,0,3.2.79,1.82,1.82,0,0,1,2.29,1.32,17.86,17.86,0,0,1,.72,3,12.16,12.16,0,0,1-.15,2.07,3.25,3.25,0,0,0,.09,1.08c.29.93.63,1.84,1,2.76a6.67,6.67,0,0,0,.29.74,1,1,0,0,0,1.44.66,7.24,7.24,0,0,0,3.76-2.71c.29-.4-1.71-10.17,4-9.77.12,0,.17-.17.25-.26a1.21,1.21,0,0,0,.1-1.86c-.16-.23-.34-.45-.48-.69a.6.6,0,0,1,.31-1,1.57,1.57,0,0,0,1-1.15,9.24,9.24,0,0,1,.29-.89c.11-.3.35-.35.56-.14a1.53,1.53,0,0,1,.49.8c.06,1.44.13,2.89,0,4.34a16.92,16.92,0,0,1-1.84,6.67,19.52,19.52,0,0,1-14.62,11,19.31,19.31,0,0,1-13.36-2.4c-.17-.1-.39-.25-.43-.42a10.05,10.05,0,0,1-.27-2c0-.72.58-1.14,1.1-1.54s1.15-.79,1.69-1.22a5.07,5.07,0,0,0,1.74-5.57,1.6,1.6,0,0,0-.78-1c-.5-.26-1-.56-1.5-.78A5,5,0,0,1,85,90.21a5.3,5.3,0,0,0-1.82-1.67C82.09,88,81,87.34,79.9,86.86a2.73,2.73,0,0,1-1.15-4.39c.68-.85,1.46-1.6,2.2-2.39.39-.43.8-.84,1.16-1.28a3,3,0,0,1,1.61-1.11,12.76,12.76,0,0,0,1.8-.76A2.34,2.34,0,0,0,87,74.73c0-.29.06-.59.1-.88a2.24,2.24,0,0,0-.28-1.49,2.13,2.13,0,0,1-.31-1.83,1,1,0,0,1,.44-.56,4,4,0,0,1,2.24-.41c.66.06.78.26.7.91s-.19,1.47-.23,2.21.08.74.69.63c.88-.15,1.76-.37,2.64-.57s2-.44,3-.69A3.39,3.39,0,0,0,98.35,70a1.14,1.14,0,0,0-.2-1.14c-.35-.5-.75-1-1.12-1.45,2.42-.65,10.86,3.1,12.26,5.49a2.16,2.16,0,0,1-1.46-.19c-1.09-.49-2.18-1-3.26-1.51a1.18,1.18,0,0,0-1,0c-.53.23-1.07.44-1.6.66-.76.3-.92.67-.62,1.43s.18.65-.29,1.14.6,2.18,1.24,2.59c.42.27.86.53,1.3.77s1.11.46.9,1.29Z"/><path class="cls-15" d="M75.67,85.69a5.73,5.73,0,0,1,1.41,2.61c.34,1.29.72,2.57.94,3.88a6,6,0,0,0,1.64,3.19,4,4,0,0,1,1.15,2.34,9.35,9.35,0,0,0,2.44,4.86,5.44,5.44,0,0,1,.39.55A19.44,19.44,0,0,1,75.67,85.69Z"/><path class="cls-16" d="M92.4,83.24c-1.18-.88-2-1.76-3.3-1.53-1.08.2-1.82,2-1.45,3.05.58,1.65,2.74,2.21,4.23,2A1.84,1.84,0,0,0,93.46,84C93.2,83.57,92.58,83.48,92.4,83.24Z"/><path class="cls-16" d="M94.21,79.78c-.52-.45-.88-1.21-1.56-1.24a1.65,1.65,0,0,0-1.45,2.11,3,3,0,0,0,2.85,1.9,1.22,1.22,0,0,0,1.06-1.83c-.19-.38-.37-.39-.61-.75C94.48,80,94.23,79.77,94.21,79.78Z"/><path class="cls-16" d="M94.81,79.18a7.13,7.13,0,0,0,1.16.45,1,1,0,0,0,1.25-1.31A2.5,2.5,0,0,0,95,76.62c-.79,0-1.33.28-1.25,1.07a2,2,0,0,0,.72,1.37S94.82,79.16,94.81,79.18Z"/><path class="cls-16" d="M99.22,75.89a5,5,0,0,0-.51-.27.83.83,0,0,0-1.2.92,1.9,1.9,0,0,0,1.3,1.57.83.83,0,0,0,1.12-1A2.13,2.13,0,0,0,99.22,75.89Z"/><path class="cls-16" d="M109.28,77.37a1.55,1.55,0,0,0,1,.65.63.63,0,0,0,.74-.56,1.53,1.53,0,0,0-1.16-1.56c-.56-.11-.95.4-.76,1A4.41,4.41,0,0,0,109.28,77.37Z"/><path class="cls-16" d="M116.86,87.39a21.32,21.32,0,1,1-21.14-21.5A21.34,21.34,0,0,1,116.86,87.39Zm-12.19-8.33-.19-.07c.21-.83-.39-1-.9-1.29s-.88-.5-1.3-.77c-2.23-1.75-1.55.36-2.51,1-.31.2-.2.14-.77.15-.29,0-.46-.19-.75-.27s-.68-.89-.74-1.28c-.21-1.43,0-1.51,1.45-1.43.82,0,1.5.32,2.08-.77.47-.49.53-.51.29-1.14a1.11,1.11,0,0,1,.61-1.43c.52-.21,1-.41,1.55-.63a1.31,1.31,0,0,1,1.08,0c1.08.52,2.17,1,3.26,1.51a2.16,2.16,0,0,0,1.46.19c-1.4-2.39-9.84-6.14-12.26-5.49.37.48.77,1,1.12,1.45a1.14,1.14,0,0,1,.2,1.14A3.39,3.39,0,0,1,96,72.05c-1,.25-2,.47-3,.69s-1.76.42-2.64.57c-.61.11-.73,0-.69-.63s.14-1.48.23-2.21,0-.85-.7-.91a4,4,0,0,0-2.24.41,1,1,0,0,0-.44.56,2.13,2.13,0,0,0,.31,1.83,2.24,2.24,0,0,1,.28,1.49c0,.29-.08.59-.1.88a2.34,2.34,0,0,1-1.45,2.2,12.76,12.76,0,0,1-1.8.76,3,3,0,0,0-1.61,1.11c-.36.44-.77.85-1.16,1.28-.74.79-1.52,1.54-2.2,2.39a2.73,2.73,0,0,0,1.15,4.39c1.09.47,2.13,1.07,3.18,1.63A5.53,5.53,0,0,1,85,90.21,5,5,0,0,0,87.07,92c.51.22,1,.52,1.5.78a1.6,1.6,0,0,1,.78,1,5.07,5.07,0,0,1-1.74,5.57c-.54.43-1.14.8-1.69,1.22s-1.1.82-1.1,1.54a10.05,10.05,0,0,0,.27,2c0,.17.26.32.43.42a19.21,19.21,0,0,0,13.28,2.41,20.39,20.39,0,0,0,14-9.77,17.43,17.43,0,0,0,2.53-7.92c.08-1.45,0-2.9,0-4.34a1.53,1.53,0,0,0-.49-.8c-.21-.21-.45-.16-.56.14a9.24,9.24,0,0,0-.29.89,1.57,1.57,0,0,1-1,1.15.6.6,0,0,0-.31,1c.14.24.32.46.48.69a1.21,1.21,0,0,1-.1,1.86l-.25.26c-.88,1-3-.86-1.83,3.5a10,10,0,0,1-1,2.94,11.87,11.87,0,0,0-.67,1.87,5.61,5.61,0,0,1-.52,1.46,7.24,7.24,0,0,1-3.76,2.71,1,1,0,0,1-1.44-.66,6.67,6.67,0,0,1-.29-.74c-.33-.92-.67-1.83-1-2.76a3.25,3.25,0,0,1-.09-1.08,12.16,12.16,0,0,0,.15-2.07,17.86,17.86,0,0,0-.72-3,1.82,1.82,0,0,0-2.29-1.32,3.46,3.46,0,0,1-3.2-.79,4.94,4.94,0,0,1-1.73-4.23c0-.43.1-.86.11-1.29A4.31,4.31,0,0,1,95.46,82c.37-.48.72-1,1.1-1.46a2.55,2.55,0,0,1,1.46-1,25,25,0,0,0,2.82-.64,2.31,2.31,0,0,1,2.75.84,8.2,8.2,0,0,0,.88,1c.36.33.34,1.46,1.12.54a1.31,1.31,0,0,1,1.53-.36h0a9.9,9.9,0,0,0,1.27.51,1,1,0,0,0,1.24-.83c.1-.62-.16-.9-.88-1-.25,0-.49-.11-.74-.16a5.65,5.65,0,0,0-1.06-.2,1.1,1.1,0,0,1-1-.54l-.72-1.28a1,1,0,0,0-1.19-.56c-.28.06-.39.21-.16.42s.64.48.94.74.4.4.36.52S104.85,78.88,104.67,79.06Zm-29,6.63a19.44,19.44,0,0,0,8,17.43,5.44,5.44,0,0,0-.39-.55,9.35,9.35,0,0,1-2.44-4.86,4,4,0,0,0-1.15-2.34A6,6,0,0,1,78,92.18c-.22-1.31-.6-2.59-.94-3.88A5.73,5.73,0,0,0,75.67,85.69Z"/><path d="M95.53,65.89a21.32,21.32,0,1,0,21.33,21.32A21.21,21.21,0,0,0,95.53,65.89Zm0,41.16a19.84,19.84,0,1,1,19.82-19.84A19.79,19.79,0,0,1,95.56,107.05Z"/><path d="M603.6,429.85a1.47,1.47,0,0,1-.19-.5q0-18.14,0-36.27v-.45h6.36v36.8c0,.14,0,.28,0,.42Z"/><path d="M499.16,392.63h4.26v37.22h-4.26Z"/><path d="M616.15,429.85V392.62h4.26v37.23Z"/><path d="M531.13,429.85c0-.22,0-.44,0-.65V392.63h4.19v.57q0,18,0,36.05a2.61,2.61,0,0,1-.14.6Z"/><path d="M558.84,429.85a2.38,2.38,0,0,1-.15-.55q0-18.07,0-36.13v-.54h4.2a3.93,3.93,0,0,1,.06.48v36.23a3,3,0,0,1-.09.51Z"/><path d="M569.49,429.85a1.68,1.68,0,0,1-.18-.5q0-18.14,0-36.27v-.45h4.27v.48q0,18.11,0,36.23a4.38,4.38,0,0,1,0,.51Z"/><path d="M578,429.85a1.68,1.68,0,0,1-.18-.5q0-18.14,0-36.27v-.45h4.26v36.71c0,.17,0,.34,0,.51Z"/><path d="M586.55,429.85a1.47,1.47,0,0,1-.19-.5q0-18.14,0-36.27v-.45h4.27v36.71a4.4,4.4,0,0,1,0,.51Z"/><path d="M592.94,429.85c-.07-.17-.21-.33-.21-.49q0-18.15,0-36.29v-.44h4.21a2.84,2.84,0,0,1,.05.42v36.38c0,.14,0,.28,0,.42Z"/><path d="M505.55,429.85c0-.22,0-.44,0-.65V392.62h2.15v37.23Z"/><path d="M611.89,429.85V392.62H614c0,.14,0,.29,0,.44q0,18.18,0,36.37c0,.14,0,.28,0,.42Z"/><path d="M512,429.85V392.62h2.11v.5q0,18.11,0,36.19a1.73,1.73,0,0,1-.21.54Z"/><path d="M522.6,429.85c0-.2,0-.41,0-.61V392.63h2.1v.49q0,18.09,0,36.18a2,2,0,0,1-.18.55Z"/><path d="M541.79,429.85c0-.2,0-.41,0-.61V392.62h2.09v.53q0,18.08,0,36.15a2.34,2.34,0,0,1-.14.55Z"/><path d="M546.05,429.85c0-.2,0-.41,0-.61V392.62h2.09v.53q0,18.08,0,36.15a2.34,2.34,0,0,1-.14.55Z"/><path d="M550.31,429.85c0-.2,0-.41,0-.61V392.62h2.09V429.3a3,3,0,0,1-.14.55Z"/></g></svg>