<svg xmlns="http://www.w3.org/2000/svg" xmlns:xlink="http://www.w3.org/1999/xlink" viewBox="0 0 694.64 500"><defs><style>.cls-1{fill:#fff;}.cls-2{opacity:0.5;}.cls-3{fill:url(#무제_그라디언트_7);}.cls-4{fill:#483821;}.cls-5{fill:#30824d;}.cls-6{fill:#e8f5fb;}.cls-7{fill:#c9e9f4;}.cls-8{fill:#d7ecf4;}.cls-9{fill:#688c3f;}.cls-10{fill:#7ba04d;}.cls-11{fill:#26582d;}.cls-12{fill:#3db46c;}.cls-13{fill:#89cfe8;}.cls-14{fill:#69b7db;}.cls-15{fill:#a5bc62;}.cls-16{fill:#d6d6d6;}.cls-17{fill:#9a9a9a;}.cls-18{fill:#b3b3b3;}.cls-19{fill:#999;}.cls-20{fill:#c9c9c9;}.cls-21{fill:#7aa94f;}.cls-22{fill:#456f41;}.cls-23{fill:#bdcf5f;}.cls-24{fill:url(#무제_그라디언트_94);}.cls-25{fill:#326859;}.cls-26{fill:#c1594c;}.cls-27{fill:#844235;}.cls-28{fill:#418e7a;}.cls-29{fill:#717171;}.cls-30{fill:#9b4f40;}.cls-31{fill:#feffff;}.cls-32{fill:#545454;}.cls-33{fill:#757f89;}.cls-34{fill:#4c5260;}.cls-35{fill:#75be60;}.cls-36{fill:#ec82ac;}.cls-37{fill:#e9669c;}.cls-38{fill:#f2a9c4;}.cls-39{fill:#9c6;}.cls-40{fill:#3f8cb9;}.cls-41{fill:#9bcc60;}</style><linearGradient id="무제_그라디언트_7" x1="347.32" y1="350.98" x2="347.32" y2="121.19" gradientUnits="userSpaceOnUse"><stop offset="0.45" stop-color="#fff"/><stop offset="0.67" stop-color="#f7fcfe"/><stop offset="0.77" stop-color="#f1fafd"/><stop offset="0.86" stop-color="#e5f5fe"/><stop offset="0.95" stop-color="#def2ff"/></linearGradient><linearGradient id="무제_그라디언트_94" x1="160.43" y1="313.18" x2="160.43" y2="290.41" gradientUnits="userSpaceOnUse"><stop offset="0" stop-color="#737f4e"/><stop offset="0.31" stop-color="#869658"/><stop offset="0.59" stop-color="#9baf64"/><stop offset="0.8" stop-color="#b4c66f"/><stop offset="0.95" stop-color="#bfd174"/></linearGradient></defs><g id="레이어_3" data-name="레이어 3"><rect class="cls-1" x="40.73" y="125.19" width="613.18" height="249.96"/><g class="cls-2"><rect class="cls-3" x="40.72" y="125.85" width="613.19" height="248.7"/><polygon class="cls-4" points="89.82 271.32 88.77 307.38 93.2 307.38 92.13 271.32 89.82 271.32"/><path class="cls-5" d="M105.12,284.38l1,1.11a9.28,9.28,0,0,0,.72.8.5.5,0,0,1,.09.71,2.1,2.1,0,0,1-1.54,1.07,6.47,6.47,0,0,1-2.28.05c-.56-.06-.69.07-.69.64a3.39,3.39,0,0,0,.53,1.83.82.82,0,0,1,.2.45,9.49,9.49,0,0,1-2.12-.5,7.73,7.73,0,0,1-1-.42,1,1,0,0,1-.59-.59.37.37,0,0,0-.5-.25.42.42,0,0,0-.3.53,5.73,5.73,0,0,0,.74,1.83l.12.19c0,.13.19.27.08.4s-.29.06-.45,0a7.35,7.35,0,0,1-3.29-2.56.41.41,0,0,0-.45-.23.43.43,0,0,0-.33.38,2.87,2.87,0,0,1-.76,1.41A19.25,19.25,0,0,1,92,293.36c-.07.06-.15.19-.26.15s-.09-.2-.09-.32a22.53,22.53,0,0,0-.2-3c0-.25-.07-.49-.38-.53s-.41.15-.51.39a4.1,4.1,0,0,1-1.25,1.46,11.44,11.44,0,0,1-2,1.46c.17-.85.33-1.61.48-2.37,0-.28.11-.56.14-.84a.44.44,0,0,0-.37-.5.35.35,0,0,0-.44.29,2.37,2.37,0,0,1-1.23,1.59,14.69,14.69,0,0,1-3.09,1.56c-.26.1-.37.09-.33-.25a7.3,7.3,0,0,0,0-2c0-.27-.09-.54-.39-.59s-.39.16-.49.38a1.42,1.42,0,0,1-.53.53A10.6,10.6,0,0,1,78.08,292l.52-.81a1.91,1.91,0,0,0,.32-.87c0-.67-.13-.85-.8-.85a3.67,3.67,0,0,1-2.53-.76,2.32,2.32,0,0,1-.38-.44c-.4-.61-.38-.77.11-1.31a59.86,59.86,0,0,0,4.2-4.94,10.91,10.91,0,0,0,1.1-1.61.41.41,0,0,0-.08-.57.35.35,0,0,0-.55.06,2.49,2.49,0,0,1-2.57.88,1.18,1.18,0,0,1,.39-.58c1.6-1.87,3.16-3.78,4.58-5.79l0,0c.16-.27.49-.56.1-.86s-.56,0-.77.29a1.61,1.61,0,0,1-.93.41,3.73,3.73,0,0,1-1.55-.07c.72-.74,1.42-1.43,2.08-2.15a14.26,14.26,0,0,0,3.48-5.66c.07-.25.12-.48-.12-.65s-.43,0-.63.15a2.4,2.4,0,0,1-2,.53c.58-.81,1.14-1.59,1.68-2.37a47.44,47.44,0,0,0,3.21-5.1.35.35,0,0,0,0-.08c.11-.28.38-.59,0-.83s-.52.08-.72.32a1.66,1.66,0,0,1-1.67.42,34.62,34.62,0,0,0,3.57-5.81,38.46,38.46,0,0,0,2.43-6.31A43.92,43.92,0,0,0,97,258.53a2.79,2.79,0,0,1-1.41-.72,6.26,6.26,0,0,1-.53-.5c-.18-.18-.38-.26-.59-.09a.41.41,0,0,0-.07.61l1.24,2c1.08,1.77,2.17,3.53,3.25,5.29a.78.78,0,0,1,.2.44,1.78,1.78,0,0,1-1.35-.43c-.19-.16-.38-.33-.63-.15s-.19.44-.1.7a18.74,18.74,0,0,0,2.87,5.22c.71,1,1.48,1.89,2.27,2.79.07.09.22.17.14.3s-.19.06-.29.05a4.73,4.73,0,0,1-2.48-.71.59.59,0,0,0-.54-.14c-.3.11-.34.41-.1.74a23.2,23.2,0,0,0,3,3.11c.91.82,1.83,1.63,2.8,2.48a3.71,3.71,0,0,1-1.65.07,2.58,2.58,0,0,1-.87-.21.38.38,0,0,0-.49.11.42.42,0,0,0,0,.54A39.74,39.74,0,0,0,105.12,284.38Z"/><path class="cls-6" d="M460.65,225c-13.31,0-26.62,0-39.93,0-7.05,0-11.53-3.43-11.94-9.23-.42-6,3.31-10,10.5-10.52,3.33-.22,2.59-2.52,3-4.1,3.4-12.9,16.91-18.65,28.23-11.86a17.29,17.29,0,0,1,8.14,10.88c.53,2.08,1,2.8,3.61,2.26,5.68-1.2,9.05.75,11.53,6.18.86,1.87,1.57,2.63,3.43,1.42a3.66,3.66,0,0,1,.88-.45c5-1.61,8.21,2.81,12,3.63s8.42-2.2,12.46,1.16a9.63,9.63,0,0,1,3.19,4.93c1.3,4.58.56,5.67-4.2,5.68Q481.11,225,460.65,225Z"/><path class="cls-7" d="M590.29,178.6q14.61,0,29.22,0c5.15,0,8.44-2.52,8.73-6.76s-2.42-7.35-7.68-7.69c-2.43-.16-1.9-1.85-2.2-3-2.49-9.44-12.37-13.65-20.66-8.68a12.69,12.69,0,0,0-6,8c-.38,1.52-.76,2.05-2.64,1.65-4.15-.88-6.61.55-8.43,4.52-.63,1.38-1.15,1.93-2.51,1a2.69,2.69,0,0,0-.65-.34c-3.67-1.17-6,2.06-8.79,2.66s-6.17-1.61-9.12.85a7.06,7.06,0,0,0-2.33,3.61c-.95,3.35-.41,4.15,3.07,4.15Q575.33,178.62,590.29,178.6Z"/><path class="cls-7" d="M608.35,186.34h17.26c3,0,5-1.38,5.16-3.7s-1.43-4-4.54-4.22c-1.44-.08-1.12-1-1.3-1.64a8.26,8.26,0,0,0-12.2-4.75,7,7,0,0,0-3.52,4.36c-.23.83-.45,1.12-1.56.9-2.45-.48-3.9.3-5,2.48-.37.75-.68,1-1.48.57a1.88,1.88,0,0,0-.38-.18c-2.17-.65-3.55,1.13-5.2,1.45s-3.63-.88-5.38.47a3.84,3.84,0,0,0-1.38,2c-.56,1.83-.24,2.27,1.82,2.27Z"/><path class="cls-7" d="M411.31,228.78H389.42c-3.86,0-6.32-1.75-6.54-4.7s1.82-5.1,5.76-5.34c1.82-.11,1.42-1.28,1.65-2.09,1.86-6.56,9.26-9.48,15.47-6a8.9,8.9,0,0,1,4.46,5.53c.29,1.06.57,1.43,2,1.15,3.11-.61,5,.38,6.32,3.14.47,1,.86,1.34,1.88.73a2.12,2.12,0,0,1,.48-.23c2.76-.82,4.5,1.43,6.59,1.84s4.62-1.11,6.83.59a4.91,4.91,0,0,1,1.75,2.51c.71,2.33.3,2.88-2.3,2.89Z"/><path class="cls-7" d="M105.81,192.42H76.59c-5.15,0-8.44-2.51-8.74-6.75s2.43-7.35,7.69-7.7c2.43-.16,1.9-1.84,2.2-3,2.49-9.45,12.37-13.65,20.66-8.68a12.69,12.69,0,0,1,6,7.95c.38,1.53.76,2.06,2.64,1.66,4.15-.88,6.61.55,8.43,4.52.63,1.37,1.15,1.92,2.51,1a2.65,2.65,0,0,1,.65-.33c3.67-1.18,6,2.06,8.79,2.65s6.16-1.6,9.12.86a7.05,7.05,0,0,1,2.33,3.6c.95,3.36.41,4.15-3.07,4.16C125.77,192.43,115.79,192.41,105.81,192.42Z"/><path class="cls-7" d="M142.62,195.28H125.36c-3,0-5-1.37-5.16-3.7s1.43-4,4.54-4.21c1.44-.09,1.12-1,1.3-1.64a8.26,8.26,0,0,1,12.2-4.76,7,7,0,0,1,3.52,4.36c.23.84.45,1.13,1.56.91a4,4,0,0,1,5,2.47c.37.76.68,1.06,1.48.57a1.88,1.88,0,0,1,.38-.18c2.17-.64,3.55,1.13,5.2,1.46s3.64-.88,5.38.46a3.86,3.86,0,0,1,1.38,2c.56,1.84.24,2.27-1.82,2.28Z"/><path class="cls-8" d="M225.1,202.23H247c3.86,0,6.32-1.75,6.54-4.69s-1.81-5.11-5.75-5.35c-1.83-.11-1.43-1.28-1.65-2.08-1.87-6.56-9.27-9.48-15.48-6a8.87,8.87,0,0,0-4.46,5.53c-.29,1-.57,1.42-2,1.15-3.11-.62-5,.38-6.32,3.14-.47.95-.86,1.33-1.88.72a2.12,2.12,0,0,0-.48-.23c-2.75-.82-4.5,1.43-6.59,1.85s-4.62-1.12-6.83.59a4.89,4.89,0,0,0-1.75,2.5c-.71,2.33-.3,2.89,2.31,2.89Z"/><path class="cls-9" d="M475.1,303.1H378.67c-.84,0-1.26-.59-.67-.93,7.87-4.68,42.95-25.32,48.73-25.33,6,0,24.13,14,27.5,14.47,3.06.4,16.71,7.55,21.58,10.88C476.34,302.55,475.9,303.1,475.1,303.1Z"/><path class="cls-9" d="M653.69,302.24H440.36s105-74.08,120.68-74.09c14.51,0,57.9,39.55,66,40.81,4,.61,15.18,6.8,26.67,13.84"/><path class="cls-10" d="M653.91,282.8c-11.52-7-22.76-13.23-26.73-13.84-8.1-1.26-51.6-40.83-66.14-40.81l39.59,74.09h53.28"/><path class="cls-9" d="M369.94,302.74h94.43c.81,0,1.23-.39.65-.62C457.31,299,423,285.29,417.3,285.29c-5.92,0-23.63,9.31-26.93,9.61-3,.27-16.36,5-21.13,7.23C368.73,302.37,369.15,302.74,369.94,302.74Z"/><path class="cls-9" d="M195.05,302.16H404s-102.87-49.22-118.17-49.23c-14.21,0-56.7,26.28-64.61,27.12-3.88.41-14.87,4.52-26.12,9.2"/><path class="cls-10" d="M194.84,289.25c11.27-4.68,22.29-8.79,26.17-9.2,7.94-.84,50.53-27.13,64.77-27.12L247,302.16H194.84"/><polygon class="cls-4" points="643.83 259.52 642.44 307.38 648.31 307.38 646.89 259.52 643.83 259.52"/><path class="cls-11" d="M653.91,286a7.44,7.44,0,0,1-2.13-2.16.54.54,0,0,0-.6-.3.58.58,0,0,0-.43.51,3.9,3.9,0,0,1-1,1.87,27.39,27.39,0,0,1-3.15,2.84c-.1.08-.19.25-.34.2s-.13-.27-.13-.42a27.35,27.35,0,0,0-.26-3.94c-.05-.33-.09-.65-.5-.7s-.55.2-.68.52a5.55,5.55,0,0,1-1.66,1.94,16.51,16.51,0,0,1-2.7,1.94c.22-1.14.42-2.14.62-3.15.08-.38.16-.75.2-1.12a.59.59,0,0,0-.49-.66.47.47,0,0,0-.59.39,3.18,3.18,0,0,1-1.64,2.1,18.28,18.28,0,0,1-4.09,2.07c-.35.14-.49.13-.44-.33a10.06,10.06,0,0,0,.05-2.63c0-.35-.12-.7-.52-.77s-.51.2-.65.49a1.86,1.86,0,0,1-.7.72,14.77,14.77,0,0,1-3.89,1.58l.69-1.08a2.54,2.54,0,0,0,.42-1.16c.08-.89-.16-1.13-1.06-1.13a4.81,4.81,0,0,1-3.35-1,3.23,3.23,0,0,1-.51-.59c-.53-.81-.51-1,.15-1.73a85,85,0,0,0,5.57-6.56,15.64,15.64,0,0,0,1.46-2.15.55.55,0,0,0-.1-.75.48.48,0,0,0-.74.08,3.27,3.27,0,0,1-3.4,1.16c0-.34.31-.54.51-.76,2.12-2.49,4.19-5,6.08-7.68l0,0c.21-.36.65-.74.13-1.14s-.74.06-1,.38a2,2,0,0,1-1.23.55,5.16,5.16,0,0,1-2.06-.09c1-1,1.88-1.9,2.76-2.86a19,19,0,0,0,4.62-7.51c.09-.33.16-.63-.16-.86s-.57,0-.83.2a3.19,3.19,0,0,1-2.62.7c.77-1.08,1.51-2.11,2.23-3.15a62.63,62.63,0,0,0,4.27-6.77.33.33,0,0,1,.06-.1c.14-.37.5-.78,0-1.11s-.69.12-1,.43a2.18,2.18,0,0,1-2.22.55,46.49,46.49,0,0,0,4.74-7.7,51.08,51.08,0,0,0,3.22-8.38,58.19,58.19,0,0,0,8.45,15.8,3.76,3.76,0,0,1-1.88-1c-.24-.2-.47-.42-.7-.65s-.5-.35-.79-.12a.55.55,0,0,0-.09.8l1.65,2.7q1.2,2,2.41,3.91Z"/><polygon class="cls-4" points="601.05 274.62 600.1 307.38 604.12 307.38 603.14 274.62 601.05 274.62"/><path class="cls-12" d="M615,286.48c.31.34.61.68.92,1a7.67,7.67,0,0,0,.65.73.46.46,0,0,1,.08.65,1.9,1.9,0,0,1-1.39,1,6.06,6.06,0,0,1-2.08.05c-.5-.05-.63.06-.62.58a3,3,0,0,0,.48,1.66.82.82,0,0,1,.18.41,8.26,8.26,0,0,1-1.92-.45,8,8,0,0,1-.91-.38,1.05,1.05,0,0,1-.54-.54.34.34,0,0,0-.45-.23.39.39,0,0,0-.27.49,5.17,5.17,0,0,0,.67,1.65c0,.06.08.12.11.18s.18.24.07.36-.26.06-.41,0a6.59,6.59,0,0,1-3-2.33.36.36,0,0,0-.41-.2.38.38,0,0,0-.29.35,2.73,2.73,0,0,1-.69,1.27,17.37,17.37,0,0,1-2.16,1.95c-.07.06-.13.17-.23.14s-.09-.19-.09-.29a18.61,18.61,0,0,0-.18-2.69c0-.23-.06-.45-.34-.49s-.37.14-.47.36a3.69,3.69,0,0,1-1.13,1.32,10.42,10.42,0,0,1-1.85,1.33c.15-.77.29-1.46.43-2.15,0-.26.1-.51.13-.77a.4.4,0,0,0-.34-.45.32.32,0,0,0-.4.27,2.18,2.18,0,0,1-1.12,1.44,13.16,13.16,0,0,1-2.8,1.42c-.24.09-.34.08-.3-.23a7.23,7.23,0,0,0,0-1.8c0-.24-.08-.49-.35-.53s-.36.14-.45.34a1.33,1.33,0,0,1-.48.49,10.16,10.16,0,0,1-2.66,1.08l.47-.74a1.72,1.72,0,0,0,.29-.8c.05-.61-.11-.77-.72-.76a3.33,3.33,0,0,1-2.3-.69,2.64,2.64,0,0,1-.35-.4c-.36-.56-.35-.71.1-1.19a56.24,56.24,0,0,0,3.82-4.49,11.19,11.19,0,0,0,1-1.47.39.39,0,0,0-.07-.52.33.33,0,0,0-.51.06,2.24,2.24,0,0,1-2.33.79c0-.23.22-.36.35-.52,1.45-1.7,2.87-3.43,4.17-5.26l0,0c.15-.25.45-.5.09-.78s-.51,0-.7.26a1.39,1.39,0,0,1-.84.38,3.57,3.57,0,0,1-1.41-.07c.65-.67,1.29-1.29,1.89-1.95a13,13,0,0,0,3.16-5.14c.07-.23.11-.44-.11-.59s-.39,0-.57.13a2.14,2.14,0,0,1-1.79.48c.53-.74,1-1.44,1.53-2.15a43,43,0,0,0,2.92-4.64.43.43,0,0,0,0-.07c.1-.25.35-.53,0-.75s-.47.08-.65.29a1.51,1.51,0,0,1-1.52.38,31.63,31.63,0,0,0,3.24-5.27,35.84,35.84,0,0,0,2.21-5.74A39.63,39.63,0,0,0,607.58,263a2.59,2.59,0,0,1-1.28-.67c-.17-.14-.33-.29-.48-.44s-.35-.24-.54-.09a.38.38,0,0,0-.07.55c.38.62.75,1.24,1.13,1.85l3,4.81a.68.68,0,0,1,.18.4,1.67,1.67,0,0,1-1.23-.4c-.17-.14-.34-.3-.57-.13s-.17.4-.09.63a16.94,16.94,0,0,0,2.61,4.75c.64.88,1.34,1.72,2.06,2.54.07.07.19.15.13.27s-.18.05-.27.05a4.28,4.28,0,0,1-2.25-.66.55.55,0,0,0-.49-.12c-.28.1-.31.37-.09.67a21.39,21.39,0,0,0,2.72,2.83c.83.75,1.67,1.48,2.55,2.26a3.69,3.69,0,0,1-1.51.06,2.76,2.76,0,0,1-.79-.19.33.33,0,0,0-.44.1.38.38,0,0,0,0,.48A36,36,0,0,0,615,286.48Z"/><polygon class="cls-4" points="622.02 271.32 620.98 307.38 625.4 307.38 624.33 271.32 622.02 271.32"/><path class="cls-5" d="M637.33,284.38l1,1.11a6.85,6.85,0,0,0,.72.8.5.5,0,0,1,.08.71,2.1,2.1,0,0,1-1.53,1.07,6.53,6.53,0,0,1-2.29.05c-.55-.06-.69.07-.69.64a3.4,3.4,0,0,0,.54,1.83.89.89,0,0,1,.19.45,9.4,9.4,0,0,1-2.11-.5,7.17,7.17,0,0,1-1-.42,1.08,1.08,0,0,1-.6-.59.37.37,0,0,0-.5-.25.41.41,0,0,0-.29.53,6,6,0,0,0,.73,1.83,1.22,1.22,0,0,1,.12.19c.06.13.2.27.08.4s-.29.06-.45,0a7.35,7.35,0,0,1-3.29-2.56.4.4,0,0,0-.45-.23.43.43,0,0,0-.33.38,2.93,2.93,0,0,1-.75,1.41,20.82,20.82,0,0,1-2.37,2.14c-.08.06-.15.19-.26.15s-.1-.2-.1-.32a20.93,20.93,0,0,0-.2-3c0-.25-.06-.49-.37-.53s-.41.15-.52.39a4.1,4.1,0,0,1-1.25,1.46,11.72,11.72,0,0,1-2,1.46l.47-2.37c.05-.28.12-.56.15-.84a.44.44,0,0,0-.38-.5.36.36,0,0,0-.44.29,2.37,2.37,0,0,1-1.23,1.59,14.61,14.61,0,0,1-3.08,1.56c-.27.1-.38.09-.33-.25a8.2,8.2,0,0,0,0-2c0-.27-.1-.54-.4-.59s-.39.16-.49.38a1.35,1.35,0,0,1-.53.53,10.66,10.66,0,0,1-2.92,1.19c.2-.32.36-.56.51-.81a1.8,1.8,0,0,0,.32-.87c.06-.67-.12-.85-.8-.85a3.63,3.63,0,0,1-2.52-.76,1.77,1.77,0,0,1-.38-.44c-.41-.61-.39-.77.1-1.31a59.86,59.86,0,0,0,4.2-4.94,11.81,11.81,0,0,0,1.11-1.61.43.43,0,0,0-.08-.57.36.36,0,0,0-.56.06,2.48,2.48,0,0,1-2.56.88c0-.26.23-.41.38-.58,1.6-1.87,3.16-3.78,4.58-5.79l0,0c.16-.27.49-.56.1-.86s-.56,0-.77.29a1.58,1.58,0,0,1-.92.41,3.77,3.77,0,0,1-1.56-.07c.72-.74,1.42-1.43,2.08-2.15a14.4,14.4,0,0,0,3.49-5.66c.06-.25.11-.48-.13-.65s-.43,0-.63.15a2.37,2.37,0,0,1-2,.53L616,264a47.44,47.44,0,0,0,3.21-5.1l0-.08c.11-.28.39-.59,0-.83s-.52.08-.72.32a1.67,1.67,0,0,1-1.67.42,35.23,35.23,0,0,0,3.56-5.81,38.46,38.46,0,0,0,2.43-6.31,43.68,43.68,0,0,0,6.37,11.9,2.83,2.83,0,0,1-1.42-.72c-.18-.16-.36-.32-.53-.5s-.37-.26-.59-.09a.43.43,0,0,0-.07.61l1.24,2,3.26,5.29a.85.85,0,0,1,.19.44,1.76,1.76,0,0,1-1.34-.43c-.2-.16-.38-.33-.64-.15s-.18.44-.1.7a18.77,18.77,0,0,0,2.88,5.22,35.44,35.44,0,0,0,2.27,2.79c.07.09.21.17.13.3s-.19.06-.29.05a4.67,4.67,0,0,1-2.47-.71.62.62,0,0,0-.55-.14c-.3.11-.34.41-.1.74a24.5,24.5,0,0,0,3,3.11c.91.82,1.84,1.63,2.8,2.48a3.7,3.7,0,0,1-1.65.07,2.64,2.64,0,0,1-.87-.21.38.38,0,0,0-.49.11.44.44,0,0,0,0,.54A41.08,41.08,0,0,0,637.33,284.38Z"/><polygon class="cls-4" points="66.53 260.39 65.16 307.38 70.93 307.38 69.53 260.39 66.53 260.39"/><path class="cls-11" d="M86.47,277.41l1.31,1.45a10.38,10.38,0,0,0,.94,1,.66.66,0,0,1,.11.93,2.76,2.76,0,0,1-2,1.39,9,9,0,0,1-3,.07c-.72-.08-.9.08-.89.82a4.3,4.3,0,0,0,.69,2.39,1.15,1.15,0,0,1,.26.59,12.36,12.36,0,0,1-4-1.2,1.4,1.4,0,0,1-.78-.77.5.5,0,0,0-.65-.33.54.54,0,0,0-.38.69,7.41,7.41,0,0,0,1,2.39c0,.08.11.16.15.25s.26.34.11.51-.38.09-.59,0a9.48,9.48,0,0,1-4.29-3.34.53.53,0,0,0-.59-.29.55.55,0,0,0-.42.5,3.87,3.87,0,0,1-1,1.83,26.39,26.39,0,0,1-3.09,2.79c-.1.08-.19.25-.34.2s-.12-.27-.12-.42a29.33,29.33,0,0,0-.26-3.86c0-.32-.09-.64-.49-.69s-.54.2-.67.51a5.42,5.42,0,0,1-1.63,1.9,15.93,15.93,0,0,1-2.65,1.91c.22-1.12.42-2.11.61-3.1a10.13,10.13,0,0,0,.2-1.1.58.58,0,0,0-.49-.64.46.46,0,0,0-.57.38,3.12,3.12,0,0,1-1.61,2.06,17.68,17.68,0,0,1-4,2c-.34.13-.48.12-.43-.33a10.11,10.11,0,0,0,.05-2.58c0-.35-.12-.69-.51-.76s-.51.2-.64.49a1.72,1.72,0,0,1-.69.7,14.65,14.65,0,0,1-3.81,1.55c.26-.42.46-.74.67-1.06a2.54,2.54,0,0,0,.42-1.14c.07-.87-.17-1.1-1-1.1a4.78,4.78,0,0,1-3.3-1,2.68,2.68,0,0,1-.49-.57c-.53-.81-.51-1,.14-1.71a78.14,78.14,0,0,0,5.47-6.44,15.92,15.92,0,0,0,1.44-2.1.56.56,0,0,0-.11-.75.48.48,0,0,0-.72.09,3.24,3.24,0,0,1-3.34,1.14c0-.34.31-.53.5-.75,2.08-2.44,4.11-4.92,6-7.54l0-.05c.22-.36.64-.72.14-1.11s-.73,0-1,.37a2,2,0,0,1-1.2.54,5.21,5.21,0,0,1-2-.1c.94-1,1.85-1.86,2.71-2.8A18.59,18.59,0,0,0,60,253.92c.09-.32.16-.61-.16-.84s-.56,0-.82.19a3.08,3.08,0,0,1-2.56.69c.75-1.06,1.48-2.06,2.19-3.09a61.14,61.14,0,0,0,4.18-6.64s0-.07.06-.1c.15-.37.5-.77,0-1.09s-.67.11-.93.42a2.16,2.16,0,0,1-2.18.55,46,46,0,0,0,4.65-7.57,50.39,50.39,0,0,0,3.16-8.22,57.17,57.17,0,0,0,8.29,15.51,3.81,3.81,0,0,1-1.84-.95c-.24-.2-.47-.42-.69-.64s-.49-.34-.77-.12a.54.54,0,0,0-.09.79l1.62,2.65c1.41,2.3,2.83,4.59,4.24,6.9a1,1,0,0,1,.25.56,2.36,2.36,0,0,1-1.75-.56c-.25-.21-.49-.43-.83-.19s-.24.57-.13.9a24.61,24.61,0,0,0,3.75,6.81c.92,1.27,1.93,2.46,3,3.64.09.11.27.22.18.39s-.25.07-.39.07a6,6,0,0,1-3.22-.94.8.8,0,0,0-.71-.18c-.39.14-.45.54-.13,1a31.17,31.17,0,0,0,3.91,4.05c1.18,1.07,2.39,2.12,3.65,3.24a5,5,0,0,1-2.16.08,3.46,3.46,0,0,1-1.13-.27.48.48,0,0,0-.63.15.52.52,0,0,0,0,.69A51.9,51.9,0,0,0,86.47,277.41Z"/><polygon class="cls-4" points="47.18 274.62 46.22 307.38 50.25 307.38 49.27 274.62 47.18 274.62"/><path class="cls-12" d="M40.73,294.1a12.71,12.71,0,0,0,2.79-1.44,2.18,2.18,0,0,0,1.12-1.44A.32.32,0,0,1,45,291a.4.4,0,0,1,.34.45c0,.26-.09.51-.14.77-.13.69-.27,1.38-.43,2.15A9.74,9.74,0,0,0,46.66,293a3.72,3.72,0,0,0,1.14-1.32c.09-.22.2-.39.47-.36s.31.26.34.49a20.15,20.15,0,0,1,.18,2.69c0,.1,0,.24.09.29s.16-.08.23-.14a18.11,18.11,0,0,0,2.16-1.95,2.63,2.63,0,0,0,.68-1.27.4.4,0,0,1,.3-.35.36.36,0,0,1,.41.2,6.59,6.59,0,0,0,3,2.33c.15.07.3.14.41,0s0-.24-.08-.36a1.62,1.62,0,0,0-.1-.18,5.17,5.17,0,0,1-.67-1.65.39.39,0,0,1,.26-.49.34.34,0,0,1,.46.23,1.05,1.05,0,0,0,.54.54,7.82,7.82,0,0,0,.9.38,8.47,8.47,0,0,0,1.93.45.82.82,0,0,0-.18-.41,3,3,0,0,1-.49-1.66c0-.52.12-.63.63-.58a6,6,0,0,0,2.07-.05,1.9,1.9,0,0,0,1.4-1,.46.46,0,0,0-.08-.65,6.51,6.51,0,0,1-.65-.73c-.31-.33-.61-.67-.92-1A36,36,0,0,1,58,282.55a.38.38,0,0,1,0-.48.32.32,0,0,1,.44-.1,2.76,2.76,0,0,0,.79.19,3.69,3.69,0,0,0,1.51-.06c-.88-.78-1.73-1.51-2.55-2.26A21.39,21.39,0,0,1,55.42,277c-.23-.3-.19-.57.08-.67a.57.57,0,0,1,.5.12,4.25,4.25,0,0,0,2.25.66c.09,0,.21,0,.27-.05s-.07-.2-.13-.27c-.72-.82-1.42-1.66-2.06-2.54a17,17,0,0,1-2.62-4.75c-.07-.23-.14-.45.1-.63s.4,0,.57.13a1.67,1.67,0,0,0,1.23.4.74.74,0,0,0-.18-.4l-3-4.81c-.38-.61-.75-1.23-1.13-1.85a.39.39,0,0,1,.06-.55c.2-.15.38-.08.55.09l.47.44a2.58,2.58,0,0,0,1.29.67,39.63,39.63,0,0,1-5.78-10.82,35.84,35.84,0,0,1-2.21,5.74,31.63,31.63,0,0,1-3.24,5.27,1.51,1.51,0,0,0,1.52-.38c.18-.21.33-.49.65-.29s.11.5,0,.75a.43.43,0,0,1,0,.07A44.62,44.62,0,0,1,41.7,268l-.88,1.25v.93a2.5,2.5,0,0,0,1.14-.51c.18-.13.33-.31.57-.13s.18.36.11.59a10.94,10.94,0,0,1-1.91,3.56Z"/><rect class="cls-13" x="40.72" y="301.15" width="613.19" height="73.61"/><polygon class="cls-14" points="653.92 374.76 40.73 374.76 40.73 341.2 653.92 314.5 653.92 374.76"/><rect class="cls-15" x="40.72" y="344.91" width="612.01" height="31.48"/><rect class="cls-16" x="496.11" y="336.72" width="68.12" height="20.83"/><rect class="cls-16" x="502.35" y="301.48" width="55.64" height="35.24"/><rect class="cls-16" x="507.54" y="263.75" width="45.26" height="16.63"/><rect class="cls-17" x="488.17" y="357.51" width="83.99" height="7.47"/><rect class="cls-18" x="491.98" y="351.62" width="76.38" height="5.92"/><rect class="cls-18" x="491.98" y="290.15" width="76.38" height="5.92"/><rect class="cls-18" x="502.35" y="257.83" width="55.64" height="5.92"/><rect class="cls-18" x="491.98" y="336.72" width="76.38" height="5.92"/><rect class="cls-19" x="497.7" y="296.08" width="64.94" height="5.48"/><rect class="cls-18" x="504.51" y="230.01" width="51.31" height="4.6"/><rect class="cls-19" x="508.36" y="234.61" width="43.62" height="4.26"/><rect class="cls-19" x="512.98" y="211.96" width="34.37" height="3.25"/><polygon class="cls-20" points="552.71 280.38 530.17 280.38 507.63 280.38 484.61 285.18 484.61 290.15 530.17 290.15 575.73 290.15 575.73 285.18 552.71 280.38"/><rect class="cls-16" x="510.5" y="238.87" width="39.34" height="10.47"/><polygon class="cls-20" points="549.76 249.33 530.17 249.33 510.58 249.33 490.57 253.5 490.57 257.82 530.17 257.82 569.76 257.82 569.76 253.5 549.76 249.33"/><rect class="cls-16" x="514.4" y="215.21" width="31.54" height="7.61"/><polygon class="cls-20" points="546.75 222.82 530.17 222.82 513.59 222.82 496.66 226.35 496.66 230.01 530.17 230.01 563.68 230.01 563.68 226.35 546.75 222.82"/><polygon class="cls-20" points="544.38 198.57 530.17 198.57 515.96 198.57 501.45 201.59 501.45 204.73 530.17 204.73 558.88 204.73 558.88 201.59 544.38 198.57"/><polygon class="cls-20" points="542.37 172.14 530.17 172.14 517.97 172.14 505.51 175.87 505.51 179.75 530.17 179.75 554.83 179.75 554.83 175.87 542.37 172.14"/><polygon class="cls-18" points="547.63 211.96 530.41 211.96 513.2 211.96 509.28 208.41 509.28 204.73 530.41 204.73 551.05 204.73 551.05 208.41 547.63 211.96"/><rect class="cls-19" x="514.65" y="185.68" width="31.03" height="2.84"/><polygon class="cls-18" points="545.93 185.68 530.39 185.68 514.85 185.68 511.31 182.77 511.31 179.75 530.39 179.75 549.02 179.75 549.02 182.77 545.93 185.68"/><rect class="cls-16" x="516.65" y="188.53" width="27.03" height="10.04"/><path class="cls-16" d="M530.05,161.75c-6.17,0-6.51,10.39-6.51,10.39h13.25S536.23,161.75,530.05,161.75Z"/><path class="cls-21" d="M653.75,396.73q-40.54.06-81.08,0a3.83,3.83,0,0,1-.64-.13c-1.41-1.69-3.73-1.84-5.35-3.41-6.51-6.34-5.93-16.51,2.16-22.22,1.78-1.26,2.08-2.18,1.09-4.2-3.13-6.38-2.53-12.44,1.92-18.19,1-1.26,3-.91,3.31-2.76,4-3.29,8.58-3.81,13.44-3,1.36.24,2.1.56,2-1.45-.26-9.23,4.14-15.72,12-18.08,7.59-2.27,14.89.83,19.86,8.43a4.56,4.56,0,0,0,.44.54c1.27-.22,1.37-1.51,2-2.31a17,17,0,0,1,29,1.56v44"/><path class="cls-22" d="M40.72,380.71q36.16.06,72.34,0a2.87,2.87,0,0,0,.57-.11c1.28-1.53,3.38-1.67,4.84-3.1,5.88-5.74,5.35-15-2-20.14-1.6-1.14-1.87-2-1-3.81,2.83-5.78,2.29-11.27-1.74-16.48-.88-1.14-2.74-.83-3-2.5-3.58-3-7.75-3.46-12.14-2.69-1.23.21-1.9.5-1.85-1.32.24-8.37-3.75-14.25-10.88-16.39-6.86-2.05-13.46.76-17.94,7.65-.11.16-.25.3-.4.49-1.16-.21-1.25-1.38-1.76-2.1a15.36,15.36,0,0,0-17.07-6c-4.32,1.34-6.26,4.29-8,8.12Z"/><path class="cls-21" d="M240.54,374.62c-1.24-.75-1.46-1.19-.77-2.58a10.42,10.42,0,0,0-8.05-15.15c-1.53-.19-1.78-.72-1.78-2.12a10.34,10.34,0,0,0-7.46-9.92A10.55,10.55,0,0,0,210.74,349c-.36.5-.42,1.3-1.21,1.44a2.63,2.63,0,0,1-.28-.34c-2.84-4.35-6.9-6.33-11.21-5.52a5,5,0,0,1-.15-1.4A13.68,13.68,0,0,0,188,330a14,14,0,0,0-15.55,5.45c-.47.66-.55,1.73-1.6,1.91-.14-.17-.27-.3-.37-.44-4.08-6.28-10.09-8.84-16.34-7-6.5,1.94-10.13,7.3-9.91,14.92,0,1.66-.56,1.4-1.69,1.2-4-.7-7.79-.27-11.05,2.45-.24,1.53-1.93,1.24-2.73,2.28-3.66,4.75-4.15,9.75-1.58,15,.81,1.67.56,2.43-.9,3.46-6.65,4.72-7.13,13.12-1.78,18.35,1.33,1.3,3.24,1.43,4.41,2.82a2.39,2.39,0,0,0,.52.1q27.42,0,54.84,0,26,0,52.06,0a8.34,8.34,0,0,0,7.94-6.31A8.57,8.57,0,0,0,240.54,374.62Z"/><path class="cls-23" d="M79,347.46c3.36-2.81,7.27-3.25,11.39-2.53,1.16.2,1.79.47,1.74-1.23-.22-7.86,3.52-13.38,10.21-15.38,6.44-1.93,12.63.71,16.84,7.17a4.14,4.14,0,0,0,.37.46c1.08-.19,1.17-1.29,1.65-2a14.42,14.42,0,0,1,16-5.62A14.11,14.11,0,0,1,147.4,341.9c0,1.91.34,2.63,2.43,2.89a14.21,14.21,0,0,1,11,20.67c-.94,1.89-.64,2.49,1.05,3.52a11.67,11.67,0,0,1,5.1,13.15,11.36,11.36,0,0,1-10.83,8.61q-39.61.09-79.24,0a2.59,2.59,0,0,1-.54-.11c-1.2-1.43-3.17-1.56-4.54-2.9-5.52-5.39-5-14,1.83-18.9,1.51-1.07,1.76-1.85.92-3.57-2.65-5.42-2.14-10.58,1.63-15.47C77,348.73,78.76,349,79,347.46Z"/><path class="cls-24" d="M79.06,308.3c16.36-7.58,88-36.39,162.82.4,2.14,1.06,1.66,2.53-1.24,3.33a28.48,28.48,0,0,1-4.61.81c-7.14.74-137.61.06-147.91,0-.56,0-1.09,0-1.63-.07a39.38,39.38,0,0,1-6.09-1.07C77.32,310.9,76.75,309.37,79.06,308.3Z"/><rect class="cls-18" x="74.06" y="307.63" width="172.74" height="5.5"/><rect class="cls-25" x="140.33" y="287.66" width="41.31" height="2.52"/><rect class="cls-25" x="140.33" y="280.32" width="41.31" height="2.52"/><rect class="cls-25" x="136.5" y="283.96" width="10.04" height="2.39" transform="translate(-143.63 426.68) rotate(-90)"/><rect class="cls-25" x="149.48" y="284.14" width="10.04" height="2.39" transform="translate(-130.84 439.83) rotate(-90)"/><rect class="cls-25" x="153.8" y="284.14" width="10.04" height="2.39" transform="translate(-126.51 444.16) rotate(-90)"/><rect class="cls-25" x="158.13" y="284.14" width="10.04" height="2.39" transform="translate(-122.19 448.48) rotate(-90)"/><rect class="cls-25" x="162.45" y="284.14" width="10.04" height="2.39" transform="translate(-117.86 452.81) rotate(-90)"/><rect class="cls-25" x="175.43" y="283.96" width="10.04" height="2.39" transform="translate(-104.71 465.6) rotate(-90)"/><rect class="cls-26" x="122.75" y="261.9" width="7.12" height="35.94"/><rect class="cls-27" x="137.81" y="273.21" width="7.12" height="24.63"/><rect class="cls-27" x="175.61" y="273.21" width="7.12" height="24.63"/><rect class="cls-26" x="190.53" y="261.9" width="7.12" height="35.94"/><rect class="cls-28" x="129.81" y="261.9" width="60.67" height="11.31"/><rect class="cls-29" x="122.75" y="258.89" width="74.91" height="3.01"/><rect class="cls-30" x="129.87" y="287.66" width="60.67" height="5.04"/><rect class="cls-28" x="109.4" y="287.66" width="41.31" height="2.52"/><rect class="cls-28" x="109.4" y="280.14" width="41.31" height="2.52"/><rect class="cls-30" x="109.4" y="290.18" width="40.93" height="2.52"/><rect class="cls-28" x="105.57" y="283.96" width="10.04" height="2.39" transform="translate(-174.56 395.75) rotate(-90)"/><rect class="cls-28" x="109.9" y="283.96" width="10.04" height="2.39" transform="translate(-170.24 400.08) rotate(-90)"/><rect class="cls-28" x="114.22" y="283.96" width="10.04" height="2.39" transform="translate(-165.91 404.4) rotate(-90)"/><rect class="cls-28" x="118.55" y="283.96" width="10.04" height="2.39" transform="translate(-161.59 408.73) rotate(-90)"/><rect class="cls-28" x="122.87" y="283.96" width="10.04" height="2.39" transform="translate(-157.26 413.05) rotate(-90)"/><rect class="cls-28" x="127.2" y="283.96" width="10.04" height="2.39" transform="translate(-152.94 417.38) rotate(-90)"/><rect class="cls-28" x="131.52" y="283.96" width="10.04" height="2.39" transform="translate(-148.61 421.7) rotate(-90)"/><rect class="cls-28" x="135.85" y="283.96" width="10.04" height="2.39" transform="translate(-144.29 426.03) rotate(-90)"/><rect class="cls-28" x="140.17" y="283.96" width="10.04" height="2.39" transform="translate(-139.96 430.35) rotate(-90)"/><rect class="cls-31" x="150.71" y="264.55" width="18.87" height="6.01"/><path class="cls-32" d="M220.05,251.09s-1.82,6.18-13.31,8.29H112.62s-9.72-1.74-11.82-8.29"/><path class="cls-33" d="M160.43,257.64c-32.13,0-52.36-1.62-54.57-2.26s-5.06-4.29-5.06-4.29l26.38-4.2,2.17-11.2H191.5l2.17,11.2,26.38,4.2s-2.84,3.64-5.05,4.29S192.56,257.64,160.43,257.64Z"/><path class="cls-34" d="M197.83,249.33,196,249v7.88l1.86-.09Z"/><path class="cls-34" d="M194.23,248.73l-1.85-.31v8.63l1.85-.08Z"/><path class="cls-34" d="M190.64,247.92l-1.86-9.16v18.42l1.86-.06Z"/><path class="cls-34" d="M140.37,238.09h-1.86v19.29l1.86,0Z"/><path class="cls-34" d="M201.42,249.92l-1.86-.31v7.11l1.86-.1Z"/><path class="cls-34" d="M212.19,251.72l-1.86-.31V256l1.86-.19Z"/><path class="cls-34" d="M205,250.52l-1.86-.31v6.3l1.86-.12Z"/><path class="cls-34" d="M208.6,251.12l-1.86-.31v5.46l1.86-.14Z"/><path class="cls-34" d="M169.1,238.09h-1.86v19.53l1.86,0Z"/><path class="cls-34" d="M163.65,257.64h1.86V238.09h-1.86Z"/><path class="cls-34" d="M172.69,238.09h-1.86v19.49l1.86,0Z"/><path class="cls-34" d="M187.05,238.09h-1.86V257.3l1.86-.06Z"/><path class="cls-34" d="M217.51,252.61v1.31a7.35,7.35,0,0,0,1.06-1.14Z"/><path class="cls-34" d="M183.46,238.09H181.6v19.3l1.86,0Z"/><path class="cls-34" d="M179.87,238.09H178v19.38l1.86,0Z"/><path class="cls-34" d="M176.28,238.09h-1.86v19.45l1.86,0Z"/><path class="cls-34" d="M111.64,251.22l-1.86.31v4.38l1.86.17Z"/><path class="cls-34" d="M115.23,250.63l-1.86.31v5.27l1.86.14Z"/><path class="cls-34" d="M129.59,248.23l-1.85.31V257l1.85.08Z"/><path class="cls-34" d="M126,248.83l-1.86.31v7.72L126,257Z"/><path class="cls-34" d="M118.82,250l-1.86.31v6.13l1.86.11Z"/><path class="cls-34" d="M122.41,249.43l-1.86.31v6.94l1.86.1Z"/><path class="cls-34" d="M215.78,252.32l-1.86-.31v3.57c.51-.08.87-.14,1.08-.2s.53-.19.78-.3Z"/><path class="cls-34" d="M104.46,252.42l-2.17.36a7.91,7.91,0,0,0,2.17,2Z"/><path class="cls-34" d="M161.91,238.09h-1.85v19.55h1.85Z"/><path class="cls-34" d="M151.14,238.09h-1.86v19.49l1.86,0Z"/><path class="cls-34" d="M134.92,257.28l1.86.05V238.09h-1.86Z"/><path class="cls-34" d="M147.55,238.09h-1.86v19.43c.61,0,1.24,0,1.86,0Z"/><path class="cls-34" d="M108.05,251.82l-1.86.31v3.32q.6.12,1.86.27Z"/><path class="cls-34" d="M144,238.09H142.1v19.37l1.86,0Z"/><path class="cls-34" d="M154.73,238.09h-1.86v19.52l1.86,0Z"/><path class="cls-34" d="M131.33,257.16l1.86.06V238.09h-1l-.88,4.33Z"/><path class="cls-34" d="M158.32,238.09h-1.86v19.54h1.86Z"/><rect class="cls-26" x="146.57" y="261.9" width="2.02" height="11.31"/><rect class="cls-26" x="171.7" y="261.9" width="2.02" height="11.31"/><rect class="cls-26" x="181.17" y="259.09" width="2.02" height="16.92" transform="translate(-85.37 449.74) rotate(-90)"/><rect class="cls-26" x="137.26" y="259.09" width="2.02" height="16.92" transform="translate(-129.28 405.82) rotate(-90)"/><rect class="cls-18" x="150.71" y="287.66" width="20.12" height="5.04"/><rect class="cls-16" x="150.71" y="290.18" width="20.12" height="5.04"/><rect class="cls-16" x="150.71" y="292.7" width="20.12" height="5.04"/><rect class="cls-18" x="150.71" y="292.7" width="20.12" height="2.52"/><rect class="cls-28" x="144.5" y="283.96" width="10.04" height="2.39" transform="translate(-135.64 434.67) rotate(-90)"/><rect class="cls-28" x="170.83" y="287.66" width="41.31" height="2.52"/><rect class="cls-28" x="170.83" y="280.14" width="41.31" height="2.52"/><rect class="cls-30" x="170.83" y="290.18" width="40.93" height="2.52"/><rect class="cls-28" x="167" y="283.96" width="10.04" height="2.39" transform="translate(-113.13 457.18) rotate(-90)"/><rect class="cls-28" x="171.33" y="283.96" width="10.04" height="2.39" transform="translate(-108.81 461.5) rotate(-90)"/><rect class="cls-28" x="175.65" y="283.96" width="10.04" height="2.39" transform="translate(-104.48 465.83) rotate(-90)"/><rect class="cls-28" x="179.98" y="283.96" width="10.04" height="2.39" transform="translate(-100.16 470.15) rotate(-90)"/><rect class="cls-28" x="184.3" y="283.96" width="10.04" height="2.39" transform="translate(-95.83 474.48) rotate(-90)"/><rect class="cls-28" x="188.63" y="283.96" width="10.04" height="2.39" transform="translate(-91.51 478.8) rotate(-90)"/><rect class="cls-28" x="192.95" y="283.96" width="10.04" height="2.39" transform="translate(-87.19 483.13) rotate(-90)"/><rect class="cls-28" x="197.28" y="283.96" width="10.04" height="2.39" transform="translate(-82.86 487.45) rotate(-90)"/><rect class="cls-28" x="201.6" y="283.96" width="10.04" height="2.39" transform="translate(-78.54 491.78) rotate(-90)"/><rect class="cls-28" x="205.93" y="283.96" width="10.04" height="2.39" transform="translate(-74.21 496.1) rotate(-90)"/><path class="cls-35" d="M399.1,329.32l0,0a29.9,29.9,0,0,1,9.47.79,12.5,12.5,0,0,1,4.3,2,3.92,3.92,0,0,1,1.18,1.38c.33.64.16.88-.62.88H401.37c.07.3.32.27.5.33l8.9,2.74c.25.07.64.05.65.36s-.39.32-.63.42a24.23,24.23,0,0,1-10,1.58A21.62,21.62,0,0,1,392,337.9a6.72,6.72,0,0,1-2.29-1.63h0C384.69,329.67,398.29,329.69,399.1,329.32Z"/><path class="cls-36" d="M384.91,324c-.24.68,3.72,3.37,3.43,4.14-.56.76-1.62-.65-1.5.16.17,1.12-1.34,1.64-.89,2.6-.19.25-1.87.33-2.16.38a7.14,7.14,0,0,1-4.44-.52,2.55,2.55,0,0,0-.84-.22.26.26,0,0,0-.11-.34c-2.12-1.25-2.75-3.3-2.89-5.55a25.9,25.9,0,0,1,.28-6.28c.17-.93.54-1.08,1.3-.49s1.73,1.38,2.59,2.07c.11.09.22.28.39.08.14.61.72.83,1.1,1.21A26.36,26.36,0,0,0,384.91,324Z"/><path class="cls-37" d="M384.85,325.12c-1-.6-2.85-3.07-3.68-3.88-.38-.38-1-.6-1.1-1.21a17.34,17.34,0,0,1,1-6c.2-.65.62-.56,1-.14l5.78,5.81c-.69,1.54-1,2.54-1.74,4.09C386,324.1,385,324.79,384.85,325.12Z"/><path class="cls-36" d="M391.76,324c.24.68-3.72,3.37-3.43,4.14.56.76,1.62-.65,1.5.16-.17,1.12,1.34,1.64.89,2.6.19.25,1.87.33,2.16.38a7.14,7.14,0,0,0,4.44-.52,2.56,2.56,0,0,1,.83-.22.26.26,0,0,1,.12-.34c2.12-1.25,2.75-3.3,2.89-5.55a25.9,25.9,0,0,0-.28-6.28c-.17-.93-.54-1.08-1.3-.49s-1.73,1.38-2.59,2.07c-.12.09-.22.28-.39.08-.14.61-.72.83-1.1,1.21A26.36,26.36,0,0,1,391.76,324Z"/><path class="cls-37" d="M391.82,325.12c1-.6,2.85-3.07,3.68-3.88.38-.38,1-.6,1.1-1.21a17.12,17.12,0,0,0-1-6c-.19-.65-.61-.56-1-.14l-5.78,5.81c.69,1.54,1.05,2.54,1.74,4.09C390.65,324.1,391.7,324.79,391.82,325.12Z"/><path class="cls-37" d="M397.71,330.9a9.49,9.49,0,0,0-1.3.32,5,5,0,0,1-4.05-.32,6.83,6.83,0,0,1-3.82,1.33,5.72,5.72,0,0,1-3.25-1,1.4,1.4,0,0,0-.72-.33,1.14,1.14,0,0,1-.78.38,7.14,7.14,0,0,1-4.44-.52,2.55,2.55,0,0,0-.84-.22l-.78.5a14.3,14.3,0,0,0-2.08,1.36c-.76.56-.73.88.1,1.32a24.09,24.09,0,0,0,5.77,2,5.44,5.44,0,0,0,5.85-1.88c.46-.35.66-1.22,1.05-1.22s.63.9,1.13,1.22a7.26,7.26,0,0,0,3.23-.82,2.09,2.09,0,0,1,1-.19,8.1,8.1,0,0,0,2.14-.15l.49-.33,1.3-1.46Z"/><path class="cls-37" d="M379,330.88a10,10,0,0,1,1.31.32,5,5,0,0,0,4.05-.32,6.73,6.73,0,0,0,3.81,1.33,5.72,5.72,0,0,0,3.25-1,1.4,1.4,0,0,1,.73-.33,1.12,1.12,0,0,0,.77.38,7.18,7.18,0,0,0,4.45-.52,2.48,2.48,0,0,1,.83-.21l.78.49a13.93,13.93,0,0,1,2.09,1.37c.76.55.73.88-.11,1.31a24,24,0,0,1-5.77,2,5.47,5.47,0,0,1-5.85-1.89c-.46-.34-.65-1.21-1.05-1.22s-.62.9-1.13,1.22a7.09,7.09,0,0,1-3.22-.82,2.09,2.09,0,0,0-1-.18,8.18,8.18,0,0,1-2.15-.16l-.48-.33-1.3-1.46Z"/><path class="cls-36" d="M397,319.53s0-.07,0-.11l0-.05Z"/><path class="cls-38" d="M389.23,315.31c-.6-.83-.88-.83-1.44.05s-4.07,9.22-4.42,10.07a10.89,10.89,0,0,0-.3,2.67,4.77,4.77,0,0,0,2.22,3.13,5.72,5.72,0,0,0,3.25,1,6.83,6.83,0,0,0,3.82-1.33c.17-.2.34-.41.52-.6a4.46,4.46,0,0,0,.94-4.6C393.81,325.49,389.85,316.15,389.23,315.31Z"/><path class="cls-37" d="M397.71,330.9l0-.07,0,.07Z"/><path class="cls-35" d="M289.47,323.78h0a17.13,17.13,0,0,0-5.34.44,7.06,7.06,0,0,0-2.43,1.11,2.24,2.24,0,0,0-.67.77c-.19.37-.09.5.35.5,2.19,0,4.37,0,6.55,0h.29c0,.17-.18.16-.29.19l-5,1.55c-.14,0-.36,0-.36.2s.22.18.35.24a13.77,13.77,0,0,0,5.65.89,12.38,12.38,0,0,0,5-1,3.81,3.81,0,0,0,1.29-.92h0C297.6,324,289.93,324,289.47,323.78Z"/><path class="cls-36" d="M297.48,320.77c.14.39-2.1,1.91-1.93,2.34s.91-.36.84.1c-.09.63.76.92.5,1.46.11.14,1.06.19,1.22.22a4.08,4.08,0,0,0,2.51-.3,1.63,1.63,0,0,1,.47-.12.15.15,0,0,1,.07-.19,3.56,3.56,0,0,0,1.63-3.14,14.48,14.48,0,0,0-.16-3.54c-.1-.53-.3-.61-.74-.28s-1,.78-1.46,1.17c-.06.05-.12.16-.22.05-.08.34-.4.46-.62.68A14.89,14.89,0,0,1,297.48,320.77Z"/><path class="cls-37" d="M297.52,321.41a20.45,20.45,0,0,0,2.07-2.19c.22-.22.54-.34.62-.68a9.6,9.6,0,0,0-.57-3.4c-.12-.37-.35-.32-.58-.08l-3.27,3.28c.39.87.6,1.44,1,2.31C296.85,320.83,297.45,321.22,297.52,321.41Z"/><path class="cls-36" d="M293.61,320.77c-.13.39,2.11,1.91,1.94,2.34s-.91-.36-.84.1c.09.63-.76.92-.51,1.46-.11.14-1.06.19-1.22.22a4.05,4.05,0,0,1-2.5-.3,1.61,1.61,0,0,0-.48-.12.14.14,0,0,0-.06-.19,3.56,3.56,0,0,1-1.63-3.14,14,14,0,0,1,.16-3.54c.09-.53.3-.61.73-.28s1,.78,1.46,1.17c.07.05.12.16.22.05.08.34.41.46.62.68A15.48,15.48,0,0,0,293.61,320.77Z"/><path class="cls-37" d="M293.58,321.41a19.58,19.58,0,0,1-2.08-2.19c-.21-.22-.54-.34-.62-.68a9.84,9.84,0,0,1,.58-3.4c.11-.37.35-.32.58-.08l3.26,3.28c-.39.87-.59,1.44-1,2.31C294.24,320.83,293.65,321.22,293.58,321.41Z"/><path class="cls-37" d="M290.25,324.67a6.14,6.14,0,0,1,.74.18,2.82,2.82,0,0,0,2.29-.18,3.75,3.75,0,0,0,2.15.75,3.19,3.19,0,0,0,1.83-.56.85.85,0,0,1,.42-.19.62.62,0,0,0,.43.22,4.08,4.08,0,0,0,2.51-.3,1.63,1.63,0,0,1,.47-.12l.44.28a8.55,8.55,0,0,1,1.18.77c.43.31.41.5-.06.74a13.09,13.09,0,0,1-3.25,1.14,3.08,3.08,0,0,1-3.31-1.06c-.26-.2-.37-.69-.59-.69s-.35.51-.64.69a4.09,4.09,0,0,1-1.82-.46,1.14,1.14,0,0,0-.57-.11,4.46,4.46,0,0,1-1.21-.09l-.27-.18-.74-.83Z"/><path class="cls-37" d="M300.84,324.66a6.64,6.64,0,0,0-.74.18,2.8,2.8,0,0,1-2.28-.18,3.79,3.79,0,0,1-2.16.75,3.19,3.19,0,0,1-1.83-.56.81.81,0,0,0-.41-.19.65.65,0,0,1-.44.22,4.09,4.09,0,0,1-2.51-.3,1.63,1.63,0,0,0-.47-.12l-.44.28a8.55,8.55,0,0,0-1.18.77c-.43.31-.41.5.06.74a13,13,0,0,0,3.26,1.14,3.07,3.07,0,0,0,3.3-1.06c.26-.2.37-.69.6-.69s.35.51.63.69a4.09,4.09,0,0,0,1.82-.46,1.16,1.16,0,0,1,.57-.11,4.43,4.43,0,0,0,1.21-.09l.28-.18.73-.83Z"/><path class="cls-36" d="M290.64,318.26l0-.07,0,0Z"/><path class="cls-38" d="M295,315.87c.34-.47.5-.47.82,0s2.3,5.21,2.49,5.69a6,6,0,0,1,.17,1.5,2.66,2.66,0,0,1-1.26,1.77,3.19,3.19,0,0,1-1.83.56,3.75,3.75,0,0,1-2.15-.75l-.3-.34a2.51,2.51,0,0,1-.53-2.59C292.45,321.62,294.69,316.35,295,315.87Z"/><path class="cls-37" d="M290.25,324.67l0,0,0,0Z"/><path class="cls-35" d="M276.63,317h0a8.9,8.9,0,0,1,2.91.24,3.81,3.81,0,0,1,1.33.6,1.35,1.35,0,0,1,.37.42c.1.2,0,.28-.2.28h-3.73c0,.09.1.08.15.1l2.75.84c.07,0,.19,0,.2.11s-.12.1-.2.13a7.5,7.5,0,0,1-3.08.49,6.69,6.69,0,0,1-2.72-.56,2.11,2.11,0,0,1-.71-.51h0C272.19,317.1,276.38,317.1,276.63,317Z"/><path class="cls-36" d="M272.25,315.35c-.07.21,1.15,1,1.06,1.28s-.5-.2-.46.05-.41.5-.27.8c-.06.08-.58.1-.67.11a2.09,2.09,0,0,1-1.37-.16.76.76,0,0,0-.26-.06.08.08,0,0,0,0-.11,1.91,1.91,0,0,1-.89-1.71,8.41,8.41,0,0,1,.08-1.94c.06-.28.17-.33.41-.15l.79.64s.07.09.12,0c.05.18.22.25.34.37A8.76,8.76,0,0,0,272.25,315.35Z"/><path class="cls-37" d="M272.24,315.7a10.78,10.78,0,0,1-1.14-1.2c-.12-.12-.29-.19-.34-.37a5.35,5.35,0,0,1,.32-1.86c.06-.2.19-.17.32,0l1.78,1.79c-.22.48-.33.78-.54,1.26C272.6,315.38,272.27,315.59,272.24,315.7Z"/><path class="cls-36" d="M274.37,315.35c.07.21-1.15,1-1.06,1.28s.5-.2.46.05.41.5.28.8c.06.08.57.1.66.11a2.09,2.09,0,0,0,1.37-.16.82.82,0,0,1,.26-.06c0-.05,0-.08,0-.11a1.91,1.91,0,0,0,.89-1.71,7.89,7.89,0,0,0-.08-1.94c-.06-.28-.17-.33-.4-.15l-.8.64s-.07.09-.12,0c-.05.18-.22.25-.34.37A8.76,8.76,0,0,1,274.37,315.35Z"/><path class="cls-37" d="M274.39,315.7a11.69,11.69,0,0,0,1.13-1.2c.12-.12.29-.19.34-.37a5.35,5.35,0,0,0-.32-1.86c-.06-.2-.19-.17-.31,0L273.44,314c.22.48.33.78.54,1.26C274,315.38,274.35,315.59,274.39,315.7Z"/><path class="cls-37" d="M276.2,317.48a1.8,1.8,0,0,0-.4.1,1.56,1.56,0,0,1-1.25-.1,2.2,2.2,0,0,1-1.17.41,1.8,1.8,0,0,1-1-.31.35.35,0,0,0-.22-.1.32.32,0,0,1-.24.11,2.09,2.09,0,0,1-1.37-.16.76.76,0,0,0-.26-.06l-.24.15a4.41,4.41,0,0,0-.64.42c-.23.17-.22.27,0,.41a7.52,7.52,0,0,0,1.78.62,1.67,1.67,0,0,0,1.8-.58c.15-.11.21-.38.33-.38s.19.28.35.38a2.27,2.27,0,0,0,1-.25.56.56,0,0,1,.31-.06,2.89,2.89,0,0,0,.66-.05l.15-.1.4-.45Z"/><path class="cls-37" d="M270.42,317.47c.14,0,.27.07.4.1a1.56,1.56,0,0,0,1.25-.1,2.08,2.08,0,0,0,1.18.41,1.69,1.69,0,0,0,1-.31.62.62,0,0,1,.22-.1.39.39,0,0,0,.24.12,2.22,2.22,0,0,0,1.37-.16.84.84,0,0,1,.26-.07l.24.16a3.92,3.92,0,0,1,.64.42c.24.17.23.27,0,.4a7.37,7.37,0,0,1-1.78.62,1.68,1.68,0,0,1-1.8-.58c-.14-.11-.2-.37-.32-.38s-.2.28-.35.38a2.31,2.31,0,0,1-1-.25.66.66,0,0,0-.31-.06A2.45,2.45,0,0,1,271,318l-.15-.1-.4-.45Z"/><path class="cls-36" d="M276,314a0,0,0,0,1,0,0v0Z"/><path class="cls-38" d="M273.59,312.67c-.19-.25-.27-.26-.45,0s-1.25,2.84-1.36,3.1a3.23,3.23,0,0,0-.09.82,1.5,1.5,0,0,0,.68,1,1.8,1.8,0,0,0,1,.31,2.2,2.2,0,0,0,1.17-.41l.16-.19a1.36,1.36,0,0,0,.29-1.41C275,315.81,273.78,312.93,273.59,312.67Z"/><path class="cls-37" d="M276.2,317.48v0Z"/><path class="cls-35" d="M415.12,319h0a16.71,16.71,0,0,0-5.27.43,7.1,7.1,0,0,0-2.39,1.09,2.22,2.22,0,0,0-.66.77c-.18.36-.09.49.35.49h6.74c0,.17-.18.15-.28.18l-5,1.53c-.13,0-.35,0-.36.2s.22.18.35.23a13.42,13.42,0,0,0,5.57.88,12.24,12.24,0,0,0,4.92-1,4,4,0,0,0,1.27-.91h0C423.14,319.21,415.57,319.22,415.12,319Z"/><path class="cls-36" d="M423,316.05c.13.39-2.07,1.88-1.91,2.31s.9-.36.83.09c-.09.62.75.91.5,1.45.11.14,1,.18,1.2.21a4.07,4.07,0,0,0,2.48-.29,1.25,1.25,0,0,1,.46-.12.15.15,0,0,1,.07-.19,3.49,3.49,0,0,0,1.6-3.09,14.65,14.65,0,0,0-.15-3.5c-.1-.52-.3-.6-.73-.27s-1,.77-1.44,1.15c-.06.05-.12.15-.22.05-.07.33-.39.46-.61.67A13.76,13.76,0,0,1,423,316.05Z"/><path class="cls-37" d="M423.05,316.68a18.23,18.23,0,0,0,2.05-2.16c.22-.21.54-.34.61-.67a9.33,9.33,0,0,0-.57-3.35c-.11-.36-.34-.31-.57-.08l-3.21,3.23c.38.87.58,1.42,1,2.28C422.4,316.11,423,316.5,423.05,316.68Z"/><path class="cls-36" d="M419.21,316.05c-.14.39,2.07,1.88,1.91,2.31-.31.42-.9-.36-.84.09.1.62-.74.91-.49,1.45-.11.14-1.05.18-1.2.21a4.06,4.06,0,0,1-2.48-.29,1.25,1.25,0,0,0-.46-.12.15.15,0,0,0-.07-.19,3.49,3.49,0,0,1-1.6-3.09,14.15,14.15,0,0,1,.15-3.5c.1-.52.3-.6.73-.27s1,.77,1.44,1.15c.06.05.12.15.21.05.08.33.4.46.62.67A13.76,13.76,0,0,0,419.21,316.05Z"/><path class="cls-37" d="M419.17,316.68a19,19,0,0,1-2-2.16c-.22-.21-.54-.34-.62-.67a9.79,9.79,0,0,1,.57-3.35c.11-.36.35-.31.58-.08l3.21,3.23c-.38.87-.58,1.42-1,2.28C419.83,316.11,419.24,316.5,419.17,316.68Z"/><path class="cls-37" d="M415.89,319.9a4.55,4.55,0,0,1,.73.17,2.76,2.76,0,0,0,2.25-.17,3.83,3.83,0,0,0,2.13.74,3.23,3.23,0,0,0,1.81-.56.73.73,0,0,1,.4-.18.65.65,0,0,0,.43.21,4.07,4.07,0,0,0,2.48-.29,1.25,1.25,0,0,1,.46-.12l.44.27a9.63,9.63,0,0,1,1.16.76c.42.31.4.49-.06.73a13.19,13.19,0,0,1-3.21,1.13,3,3,0,0,1-3.26-1c-.26-.19-.36-.68-.59-.68s-.34.5-.63.68a4,4,0,0,1-1.79-.46,1.1,1.1,0,0,0-.56-.1,4.74,4.74,0,0,1-1.19-.09l-.27-.18-.73-.81Z"/><path class="cls-37" d="M426.33,319.89a4.81,4.81,0,0,0-.73.17,2.77,2.77,0,0,1-2.25-.17,3.83,3.83,0,0,1-2.12.74,3.18,3.18,0,0,1-1.81-.56.8.8,0,0,0-.41-.18.65.65,0,0,1-.43.21,4,4,0,0,1-2.47-.29,1.36,1.36,0,0,0-.47-.12l-.43.27a8.28,8.28,0,0,0-1.16.76c-.43.31-.41.49.06.73a12.9,12.9,0,0,0,3.21,1.13,3,3,0,0,0,3.26-1.05c.25-.19.36-.68.58-.68s.35.5.63.68a4,4,0,0,0,1.79-.46,1.13,1.13,0,0,1,.57-.1,4.74,4.74,0,0,0,1.19-.09l.27-.18.72-.81Z"/><path class="cls-36" d="M416.28,313.57a.14.14,0,0,0,0-.06l0,0Z"/><path class="cls-38" d="M420.62,311.22c.33-.47.49-.47.8,0s2.26,5.14,2.46,5.61a6.39,6.39,0,0,1,.17,1.49,2.69,2.69,0,0,1-1.24,1.74,3.23,3.23,0,0,1-1.81.56,3.83,3.83,0,0,1-2.13-.74c-.09-.12-.19-.23-.29-.34a2.47,2.47,0,0,1-.52-2.56C418.06,316.88,420.27,311.69,420.62,311.22Z"/><path class="cls-37" d="M415.89,319.9l0,0,0,0Z"/></g><path d="M105.68,205.73a1.16,1.16,0,0,1-1.72,0l-2.33-2.18c-.46-.46-.41-.95.15-1.48a33.51,33.51,0,0,0,5.49-6.52,35.32,35.32,0,0,0,3.65-7.61,36.87,36.87,0,0,0,1.71-7.34,56.65,56.65,0,0,0,.37-8.13.72.72,0,0,1,.22-.52.69.69,0,0,1,.47-.22l4.4.15a.57.57,0,0,1,.44.22.77.77,0,0,1,.2.52,65.35,65.35,0,0,1-.89,11.17,22.74,22.74,0,0,0,1.48,4.77,32.08,32.08,0,0,0,2.45,4.59,34.32,34.32,0,0,0,3,4.08,24,24,0,0,0,3.26,3.16c.52.39.56.92.1,1.58l-2.08,2.52a1,1,0,0,1-.67.4,1.35,1.35,0,0,1-.91-.3,22.52,22.52,0,0,1-2.59-2.37,34.22,34.22,0,0,1-2.6-3.09,38.08,38.08,0,0,1-2.27-3.41,20.32,20.32,0,0,1-1.63-3.38,34.91,34.91,0,0,1-2,4c-.76,1.28-1.55,2.51-2.39,3.68a33.11,33.11,0,0,1-2.62,3.21A28.59,28.59,0,0,1,105.68,205.73Zm34.74,10.42H136a.56.56,0,0,1-.64-.64V189.37H125.2a.68.68,0,0,1-.47-.2.57.57,0,0,1-.22-.44v-3.51a.52.52,0,0,1,.22-.42.74.74,0,0,1,.47-.17h10.18V169.9a.57.57,0,0,1,.64-.64h4.4a.57.57,0,0,1,.64.64v45.61A.56.56,0,0,1,140.42,216.15Z"/><path d="M191.11,192.76a.77.77,0,0,1-.49.22H171.94v3.65H181a4.17,4.17,0,0,1,2.7.62,3.11,3.11,0,0,1,.66,2.3v5.68a3.07,3.07,0,0,1-.66,2.32,4.25,4.25,0,0,1-2.7.6h-20.8c-.26,0-.43,0-.49.12a1,1,0,0,0-.1.57v1.53c0,.3,0,.47.1.52a1.15,1.15,0,0,0,.54.07h24.56a.79.79,0,0,1,.49.2.6.6,0,0,1,.25.49v3.22a.63.63,0,0,1-.25.47.73.73,0,0,1-.44.22H157.37a3.73,3.73,0,0,1-2.62-.69,3.16,3.16,0,0,1-.69-2.28V207a3.22,3.22,0,0,1,.66-2.27,3.65,3.65,0,0,1,2.6-.69h21a.94.94,0,0,0,.49-.08c.07,0,.1-.24.1-.57V202c0-.36,0-.58-.1-.64s-.25-.1-.54-.1H154.6a.7.7,0,0,1-.47-.2.57.57,0,0,1-.22-.44v-3.31a.58.58,0,0,1,.22-.45.7.7,0,0,1,.47-.2h11.66V193H147.58a.61.61,0,0,1-.69-.69v-3.07a.77.77,0,0,1,.2-.52.66.66,0,0,1,.49-.22h43a.89.89,0,0,1,.74.74v3.07A.63.63,0,0,1,191.11,192.76Zm-6.37-15.64a6.07,6.07,0,0,1-1,3.43,8.64,8.64,0,0,1-3,2.69,17,17,0,0,1-4.87,1.78,34.82,34.82,0,0,1-13.29,0,17,17,0,0,1-4.87-1.78,8.73,8.73,0,0,1-3-2.69,6.07,6.07,0,0,1-1-3.43,5.79,5.79,0,0,1,1-3.31,9,9,0,0,1,3-2.67,17.28,17.28,0,0,1,4.87-1.78,34.82,34.82,0,0,1,13.29,0,17.28,17.28,0,0,1,4.87,1.78,8.9,8.9,0,0,1,3,2.67A5.79,5.79,0,0,1,184.74,177.12ZM169.18,173a21.24,21.24,0,0,0-4,.34,15.43,15.43,0,0,0-3.14.92,6,6,0,0,0-2.07,1.36,2.39,2.39,0,0,0-.75,1.68,2.27,2.27,0,0,0,.75,1.6,6.23,6.23,0,0,0,2.07,1.34,16.12,16.12,0,0,0,3.14.91,22.63,22.63,0,0,0,7.93,0,15.94,15.94,0,0,0,3.16-.91,6.39,6.39,0,0,0,2.08-1.34,2.3,2.3,0,0,0,.74-1.6,2.42,2.42,0,0,0-.74-1.68,6.1,6.1,0,0,0-2.08-1.36,15.27,15.27,0,0,0-3.16-.92A21.37,21.37,0,0,0,169.18,173Z"/><path d="M129.71,244.9a4.34,4.34,0,0,1-1.29.92,4.63,4.63,0,0,1-1.66.46,6,6,0,0,1-1,0c-.38,0-.75-.07-1.11-.13s-.68-.12-1-.19a3.64,3.64,0,0,1-.63-.2,1.5,1.5,0,0,1-.35-.21s0-.14,0-.28l.14-1.44a.21.21,0,0,1,.1-.19c.05,0,.14,0,.29.06a6.24,6.24,0,0,0,.66.22,5.82,5.82,0,0,0,1,.21,7.47,7.47,0,0,0,1.06.11,3.66,3.66,0,0,0,1-.08,3,3,0,0,0,.91-.36,1.72,1.72,0,0,0,.55-.52,1.76,1.76,0,0,0,.28-.66,3.08,3.08,0,0,0,.08-.75,2,2,0,0,0-.47-1,4.74,4.74,0,0,0-1.37-1.16c-.73-.43-1.36-.83-1.89-1.19a9,9,0,0,1-1.31-1.1,3.94,3.94,0,0,1-.76-1.13,3.14,3.14,0,0,1-.25-1.28,3.62,3.62,0,0,1,.33-1.52,3.93,3.93,0,0,1,.94-1.27,4.36,4.36,0,0,1,1.41-.87,5.08,5.08,0,0,1,1.82-.32,8.52,8.52,0,0,1,1.66.13,6.29,6.29,0,0,1,1.11.3.57.57,0,0,1,.27.16.35.35,0,0,1,0,.23l-.26,1.24a.46.46,0,0,1-.12.29q-.09.07-.3,0c-.2-.06-.41-.13-.64-.18l-.72-.15c-.25,0-.48-.06-.71-.08a3.92,3.92,0,0,0-.61,0,2.47,2.47,0,0,0-1.53.71,2.08,2.08,0,0,0-.43,1.35,1.8,1.8,0,0,0,.5,1.08,6.15,6.15,0,0,0,1.48,1.17q1.22.74,2,1.32a7.83,7.83,0,0,1,1.24,1.12,3.21,3.21,0,0,1,.64,1.08,3.7,3.7,0,0,1,.18,1.18A4.07,4.07,0,0,1,129.71,244.9Z"/><path d="M141.65,241.06a.29.29,0,0,1-.09.23.29.29,0,0,1-.19.08H135a3.48,3.48,0,0,0,.81,2.12,2.48,2.48,0,0,0,2,.83,7.45,7.45,0,0,0,1.46-.17,4.7,4.7,0,0,0,1.49-.57c.1-.05.15,0,.18,0a.87.87,0,0,1,0,.25v1.34a.49.49,0,0,1-.06.27.67.67,0,0,1-.23.2,4.5,4.5,0,0,1-1.37.44,9.52,9.52,0,0,1-1.6.14,4.49,4.49,0,0,1-3.64-1.45,6.37,6.37,0,0,1-1.24-4.24,7.86,7.86,0,0,1,.28-2.05,5.64,5.64,0,0,1,.82-1.81,4.22,4.22,0,0,1,1.41-1.28,4.05,4.05,0,0,1,2-.49,4.15,4.15,0,0,1,2,.45,3.9,3.9,0,0,1,1.35,1.2,5,5,0,0,1,.75,1.77,9.26,9.26,0,0,1,.24,2.15c0,.1,0,.2,0,.32S141.65,241,141.65,241.06Zm-4.25-4.27a1.85,1.85,0,0,0-.94.23,2.69,2.69,0,0,0-.7.6,3.22,3.22,0,0,0-.47.86,4.8,4.8,0,0,0-.26,1h4.44a3.48,3.48,0,0,0-.12-.86,3.17,3.17,0,0,0-.38-.86,2.27,2.27,0,0,0-.64-.67A1.59,1.59,0,0,0,137.4,236.79Z"/><path d="M152.24,244.45a4.51,4.51,0,0,1-1.66,1.33,5.52,5.52,0,0,1-4.39,0,4.29,4.29,0,0,1-1.59-1.22,5.2,5.2,0,0,1-1-1.8,7.69,7.69,0,0,1,0-4.39,5.11,5.11,0,0,1,1-1.8,4.54,4.54,0,0,1,1.58-1.21,5.05,5.05,0,0,1,2.2-.45,5.12,5.12,0,0,1,2.2.45,4.67,4.67,0,0,1,1.59,1.21,5.45,5.45,0,0,1,1,1.8,7.63,7.63,0,0,1,0,4.34A5.36,5.36,0,0,1,152.24,244.45Zm-3.86-7.62a2.52,2.52,0,0,0-1.31.33,2.65,2.65,0,0,0-.9.86,4.34,4.34,0,0,0-.53,1.2,5.67,5.67,0,0,0-.17,1.35,5.55,5.55,0,0,0,.17,1.35,4.47,4.47,0,0,0,.53,1.22,2.68,2.68,0,0,0,.9.87,2.77,2.77,0,0,0,2.62,0,2.68,2.68,0,0,0,.9-.87,4.18,4.18,0,0,0,.53-1.22,5.37,5.37,0,0,0,0-2.68,4.06,4.06,0,0,0-.53-1.2,2.68,2.68,0,0,0-.9-.87A2.41,2.41,0,0,0,148.38,236.83Z"/><path d="M162.63,245.93a.31.31,0,0,1-.17-.05.13.13,0,0,1,0-.15V245a3.33,3.33,0,0,1-1.24,1,3.62,3.62,0,0,1-1.52.33,3.48,3.48,0,0,1-2.82-1.11,4.77,4.77,0,0,1-.93-3.16v-6.5a.34.34,0,0,1,.07-.19.23.23,0,0,1,.17-.08h1.59a.22.22,0,0,1,.17.09.34.34,0,0,1,.08.2v6.17a3.37,3.37,0,0,0,.48,2.06,1.67,1.67,0,0,0,1.4.6,2.21,2.21,0,0,0,1.74-.8,3.53,3.53,0,0,0,.69-2.37v-5.68a.28.28,0,0,1,.07-.19.21.21,0,0,1,.16-.08h1.61a.2.2,0,0,1,.17.1.44.44,0,0,1,.07.21v7.92c0,.4,0,.79,0,1.18s0,.74,0,1.07c0,.17-.07.25-.21.25Z"/><path d="M167.6,246a.2.2,0,0,1-.22-.23v-15.3a.28.28,0,0,1,.07-.17.25.25,0,0,1,.17-.06h1.63a.23.23,0,0,1,.16.06.23.23,0,0,1,.07.17v15.3a.24.24,0,0,1-.23.23Z"/><path d="M278.05,245c-.16,0-.23-.07-.23-.2V230.62c0-.18.07-.27.23-.27h3.36a5.67,5.67,0,0,1,3.44.92,3.24,3.24,0,0,1,1.23,2.79,3.88,3.88,0,0,1-.47,2,3.36,3.36,0,0,1-1.35,1.29,3.48,3.48,0,0,1,1,.56,3.53,3.53,0,0,1,.7.8,3.43,3.43,0,0,1,.42.94,3.72,3.72,0,0,1,.13,1,3.86,3.86,0,0,1-1.43,3.28A6.78,6.78,0,0,1,280.9,245Zm1.94-6.54v4.46h.95a4.36,4.36,0,0,0,2.61-.59,2.1,2.1,0,0,0-.07-3.27,4.76,4.76,0,0,0-2.75-.6Zm0-6v3.94h1.05a3.2,3.2,0,0,0,2.17-.59,2,2,0,0,0,.64-1.53,1.71,1.71,0,0,0-.56-1.32,2.93,2.93,0,0,0-1.92-.5Z"/><path d="M296.28,245a.31.31,0,0,1-.17-.05c-.05,0-.06-.08-.05-.15V244a3.37,3.37,0,0,1-1.23,1,3.66,3.66,0,0,1-1.53.33,3.46,3.46,0,0,1-2.81-1.11,4.77,4.77,0,0,1-.93-3.16v-6.5a.28.28,0,0,1,.07-.19.19.19,0,0,1,.16-.09h1.59a.24.24,0,0,1,.18.1.34.34,0,0,1,.08.2v6.17a3.4,3.4,0,0,0,.47,2.06,1.7,1.7,0,0,0,1.41.6,2.21,2.21,0,0,0,1.74-.8,3.58,3.58,0,0,0,.69-2.37v-5.68a.33.33,0,0,1,.06-.19.21.21,0,0,1,.17-.09h1.61a.19.19,0,0,1,.16.11.35.35,0,0,1,.07.21v7.92c0,.4,0,.79,0,1.18s0,.74,0,1.07c0,.17-.07.25-.21.25Z"/><path d="M303.48,247.4a2.66,2.66,0,0,1-1.75.58,5.8,5.8,0,0,1-.74,0,1.74,1.74,0,0,1-.58-.16.37.37,0,0,1-.16-.1.24.24,0,0,1,0-.19l.12-1.28c0-.17.07-.23.21-.17a4.31,4.31,0,0,0,.55.1l.46,0a1.3,1.3,0,0,0,.53-.09,1,1,0,0,0,.31-.25l.16-.33c.07-.14.15-.3.23-.48s.15-.36.22-.55.13-.4.18-.59l-3.31-9.43c-.07-.16,0-.23.15-.23h1.81c.12,0,.2,0,.23.09l2.15,6.44,2.2-6.44c0-.06.1-.09.23-.09h1.81c.16,0,.21.07.15.23l-3.94,11A4.79,4.79,0,0,1,303.48,247.4Z"/><path d="M318.4,240.1a.32.32,0,0,1-.08.23.29.29,0,0,1-.19.08h-6.39a3.57,3.57,0,0,0,.82,2.12,2.47,2.47,0,0,0,2,.83,7.53,7.53,0,0,0,1.46-.17,4.7,4.7,0,0,0,1.49-.57c.09-.05.15,0,.18,0a.85.85,0,0,1,0,.25v1.34a.5.5,0,0,1-.05.27.63.63,0,0,1-.24.2,4.62,4.62,0,0,1-1.36.44,9.54,9.54,0,0,1-1.61.14,4.52,4.52,0,0,1-3.64-1.45,6.37,6.37,0,0,1-1.23-4.24,8,8,0,0,1,.27-2.06,5.71,5.71,0,0,1,.83-1.8,4.22,4.22,0,0,1,1.41-1.28,4,4,0,0,1,2-.49,4.15,4.15,0,0,1,2,.45,3.9,3.9,0,0,1,1.35,1.2,5.24,5.24,0,0,1,.76,1.77,9.84,9.84,0,0,1,.23,2.15c0,.09,0,.2,0,.31S318.4,240.05,318.4,240.1Zm-4.25-4.27a1.78,1.78,0,0,0-.93.23,2.51,2.51,0,0,0-.7.6,3.22,3.22,0,0,0-.47.86,4.83,4.83,0,0,0-.27,1h4.45a3.1,3.1,0,0,0-.13-.86,2.89,2.89,0,0,0-.38-.86,2.15,2.15,0,0,0-.64-.67A1.57,1.57,0,0,0,314.15,235.83Z"/><path d="M329,243.49a4.47,4.47,0,0,1-1.67,1.33,5.5,5.5,0,0,1-4.38,0,4.41,4.41,0,0,1-1.6-1.22,5.56,5.56,0,0,1-1-1.8,7.69,7.69,0,0,1,0-4.39,5.36,5.36,0,0,1,1-1.8,4.67,4.67,0,0,1,1.59-1.21,5.58,5.58,0,0,1,4.39,0,4.49,4.49,0,0,1,1.59,1.21,5,5,0,0,1,1,1.8,7.63,7.63,0,0,1,0,4.34A5.16,5.16,0,0,1,329,243.49Zm-3.86-7.62a2.5,2.5,0,0,0-1.31.33,2.65,2.65,0,0,0-.9.86,4.06,4.06,0,0,0-.53,1.2,5.45,5.45,0,0,0,0,2.7,4,4,0,0,0,.53,1.21,2.61,2.61,0,0,0,.9.88,2.77,2.77,0,0,0,2.62,0,2.61,2.61,0,0,0,.9-.88,4.27,4.27,0,0,0,.53-1.21,5.67,5.67,0,0,0,.17-1.35,5.58,5.58,0,0,0-.17-1.33,4.21,4.21,0,0,0-.53-1.2,2.68,2.68,0,0,0-.9-.87A2.44,2.44,0,0,0,325.14,235.87Z"/><path d="M302.22,198.78a.69.69,0,0,1-.49.25H283.05V214.1a.61.61,0,0,1-.69.69h-4.3a.61.61,0,0,1-.69-.69V199H258.69a.58.58,0,0,1-.49-.25.77.77,0,0,1-.2-.49V195a.77.77,0,0,1,.2-.52.61.61,0,0,1,.49-.22h43a.69.69,0,0,1,.49.25.67.67,0,0,1,.25.49v3.26A.67.67,0,0,1,302.22,198.78ZM295,187.91a3.92,3.92,0,0,1-2.92.84H268.38a4.4,4.4,0,0,1-3-.74,3.71,3.71,0,0,1-.79-2.76V169a.56.56,0,0,1,.2-.42.67.67,0,0,1,.44-.17h4.35a.78.78,0,0,1,.47.17.52.52,0,0,1,.22.42v5.58h19.77V169a.58.58,0,0,1,.2-.44.57.57,0,0,1,.44-.2h4.4a.58.58,0,0,1,.44.2.62.62,0,0,1,.2.44v16.4A3.5,3.5,0,0,1,295,187.91Zm-4.89-8.64H270.3v4c0,.33.06.54.18.62a1.12,1.12,0,0,0,.61.12h18.19a1.12,1.12,0,0,0,.61-.12c.12-.08.18-.29.18-.62Z"/><path d="M319.22,203.82a10.49,10.49,0,0,1-5.07-1.21,10.84,10.84,0,0,1-3.78-3.36,15.91,15.91,0,0,1-2.34-5.16,25.06,25.06,0,0,1-.82-6.62,25.46,25.46,0,0,1,.82-6.72,15.7,15.7,0,0,1,2.34-5.14,10.51,10.51,0,0,1,3.78-3.28,11.63,11.63,0,0,1,11,.46,11.33,11.33,0,0,1,4,4.6h9.68v-8.5a.57.57,0,0,1,.65-.64h4.39a.57.57,0,0,1,.65.64V214.5a.57.57,0,0,1-.65.64h-4.39a.57.57,0,0,1-.65-.64V197.1H329.4a11.45,11.45,0,0,1-4,5A10.71,10.71,0,0,1,319.22,203.82Zm6.52-16.35a21.39,21.39,0,0,0-.42-4.32,13.17,13.17,0,0,0-1.24-3.59,7.14,7.14,0,0,0-2-2.44,4.65,4.65,0,0,0-2.82-.92,4.42,4.42,0,0,0-2.74.92,7.23,7.23,0,0,0-2,2.44,13.52,13.52,0,0,0-1.24,3.59,22.17,22.17,0,0,0,0,8.59,13.79,13.79,0,0,0,1.24,3.61,7.47,7.47,0,0,0,2,2.5,4.37,4.37,0,0,0,2.74.93,4.59,4.59,0,0,0,2.82-.93,7.37,7.37,0,0,0,2-2.5,13.44,13.44,0,0,0,1.24-3.61A21.18,21.18,0,0,0,325.74,187.47Zm5-5.44a26.91,26.91,0,0,1,.54,5.44,25.31,25.31,0,0,1-.44,5h8V182Z"/><polygon points="218.38 180.98 231.08 193.68 218.38 206.37 218.38 180.98"/><path class="cls-39" d="M58.32,51.84h578a17.6,17.6,0,0,1,17.6,17.6v56.84a0,0,0,0,1,0,0H40.73a0,0,0,0,1,0,0V69.44A17.6,17.6,0,0,1,58.32,51.84Z"/><path class="cls-39" d="M40.73,374.31H653.91a0,0,0,0,1,0,0v56.32a17.53,17.53,0,0,1-17.53,17.53H58.25a17.53,17.53,0,0,1-17.53-17.53V374.31A0,0,0,0,1,40.73,374.31Z"/><path d="M127.45,91.86a3.93,3.93,0,0,1-3.92-4.25V81.93a4.53,4.53,0,0,1,4.16-4.48h2.14a4.39,4.39,0,0,1,4.06,4.48v5.85a3.94,3.94,0,0,1-3.78,4.08Zm1.69-2.49a2.1,2.1,0,0,0,2-2.09V82.17a2.07,2.07,0,0,0-2-1.94h-.76a2.12,2.12,0,0,0-2.07,1.9v5.38a1.89,1.89,0,0,0,1.83,1.86Zm12.25,7h-3.33V89.72H135V86.94h3.06V84.48H135V81.67h3.06V76.43h3.33Z"/><path d="M154.61,77.8V80h-1.43a4.19,4.19,0,0,1,.55,2.19v2.09a3.46,3.46,0,0,1-3.58,3.44h-2.21c-1.71,0-3.11-1.14-3.11-3.4V82.2a3.64,3.64,0,0,1,.69-2.19h-1.76V77.8h3.87V76.4h3.3v1.4ZM151,82.41c0-.78-.31-1.4-1.1-1.4h-1.09c-.78,0-1.19.62-1.19,1.4v1.66a1.08,1.08,0,0,0,1.24,1.19h.9A1.15,1.15,0,0,0,151,84Zm8.45,7.27a2.63,2.63,0,0,1,2.78,2.44v1.95a2.37,2.37,0,0,1-2.54,2.3h-9.22a2.8,2.8,0,0,1-2.61-2.28v-2c.26-1.71,2.26-2.44,3.28-2.44Zm-7.34,2.46c-.92,0-1.07.38-1.23.69l0,.62c.29.64.62.62,1.26.62h6.34c.55,0,1-.17,1-.62V93a1,1,0,0,0-1-.86ZM162.28,76.4V87.94h-2.71v-4h-1.76v4h-2.7V76.4h2.7v5.25h1.76V76.4Z"/><path d="M174.57,95.29h-2.09V91.71a8.94,8.94,0,0,1-5,1.85,16.33,16.33,0,0,1-3,0V91.66c3.08.61,7.15-.88,8-1.21V83.52h2.12Zm-5.81-11.46a1.84,1.84,0,0,1,1.9,1.91v1.9a1.84,1.84,0,0,1-2.06,1.91h-1.67a1.85,1.85,0,0,1-2-1.76V85.74a1.9,1.9,0,0,1,2-1.91Zm.21,2.28a.79.79,0,0,0-.81-.8h-.6a.85.85,0,0,0-.88.8v1.16a.85.85,0,0,0,.88.81h.6a.79.79,0,0,0,.81-.81Z"/><path d="M187,77.21v9.5H177v-9.5H180v2.61h3.89V77.21ZM178.4,91.38h10.78V90.29H178.4V88.37h14.08V93.5H181.42v.9h11.06v2.23H178.4Zm5.53-7.09v-2H180v2Zm11.3-.91H192.5v3.71h-3V76.38h3v4.2h2.73Z"/><path d="M203.83,80.91c-.1,1.43-.17,6.89,3.75,8.22v2.75a8.8,8.8,0,0,1-2.23-.85,6.23,6.23,0,0,1-3.09-3.49,6,6,0,0,1-3.11,3.58,7.84,7.84,0,0,1-2.23.76V89.13c3.91-1.33,3.75-6.79,3.65-8.22h-3.68V78.26h10.73v2.65Zm11.91,2.16v3.07h-3V96.39h-3.3V76.66h3.3v6.41Z"/><path d="M235,87.44h-7.62v2h6v2.25a10.47,10.47,0,0,1-.52,3,13.65,13.65,0,0,1-.48,1.28h-2.92a9.21,9.21,0,0,0,.93-2.7,6.7,6.7,0,0,0,.09-1.14H219V89.44h5.35v-2h-7.18V84.78h11.78a17.56,17.56,0,0,0,.81-3.65,11.85,11.85,0,0,0,.09-1.52h-10.7V76.88H233v2.49a28.29,28.29,0,0,1-1,5.41h3Z"/><path class="cls-40" d="M104.67,79.06c.18-.18.44-.33.51-.55s-.2-.37-.36-.52-.65-.47-.94-.74-.12-.36.16-.42a1,1,0,0,1,1.19.56l.72,1.28a1.1,1.1,0,0,0,1,.54,5.65,5.65,0,0,1,1.06.2c.25,0,.49.13.74.16.72.08,1,.36.88,1a1,1,0,0,1-1.24.83c-.43-.13-.89.63-1.31.44s-1-.42-1.16.06c-1,3.56-1.06-.83-1.46-1.2a8.2,8.2,0,0,1-.88-1,2.29,2.29,0,0,0-2.51-.91L98,79.51a2.53,2.53,0,0,0-1.41,1c-.38.48-.73,1-1.1,1.46a4.31,4.31,0,0,0-.88,2.56c0,.43-.1.86-.11,1.29a4.94,4.94,0,0,0,1.73,4.23,3.46,3.46,0,0,0,3.2.79,1.82,1.82,0,0,1,2.29,1.32,17.86,17.86,0,0,1,.72,3,12.16,12.16,0,0,1-.15,2.07,3.25,3.25,0,0,0,.09,1.08c.29.93.63,1.84,1,2.76a6.67,6.67,0,0,0,.29.74,1,1,0,0,0,1.44.66,7.24,7.24,0,0,0,3.76-2.71c.29-.4-1.71-10.17,4-9.77.12,0,.17-.17.25-.26a1.21,1.21,0,0,0,.1-1.86c-.16-.23-.34-.45-.48-.69a.6.6,0,0,1,.31-1,1.57,1.57,0,0,0,1-1.15,9.24,9.24,0,0,1,.29-.89c.11-.3.35-.35.56-.14a1.53,1.53,0,0,1,.49.8c.06,1.44.13,2.89,0,4.34a16.92,16.92,0,0,1-1.84,6.67,19.52,19.52,0,0,1-14.62,11,19.31,19.31,0,0,1-13.36-2.4c-.17-.1-.39-.25-.43-.42a10.05,10.05,0,0,1-.27-2c0-.72.58-1.14,1.1-1.54s1.15-.79,1.69-1.22a5.07,5.07,0,0,0,1.74-5.57,1.6,1.6,0,0,0-.78-1c-.5-.26-1-.56-1.5-.78A5,5,0,0,1,85,90.21a5.3,5.3,0,0,0-1.82-1.67C82.09,88,81,87.34,79.9,86.86a2.73,2.73,0,0,1-1.15-4.39c.68-.85,1.46-1.6,2.2-2.39.39-.43.8-.84,1.16-1.28a3,3,0,0,1,1.61-1.11,12.76,12.76,0,0,0,1.8-.76A2.34,2.34,0,0,0,87,74.73c0-.29.06-.59.1-.88a2.24,2.24,0,0,0-.28-1.49,2.13,2.13,0,0,1-.31-1.83,1,1,0,0,1,.44-.56,4,4,0,0,1,2.24-.41c.66.06.78.26.7.91s-.19,1.47-.23,2.21.08.74.69.63c.88-.15,1.76-.37,2.64-.57s2-.44,3-.69A3.39,3.39,0,0,0,98.35,70a1.14,1.14,0,0,0-.2-1.14c-.35-.5-.75-1-1.12-1.45,2.42-.65,10.86,3.1,12.26,5.49a2.16,2.16,0,0,1-1.46-.19c-1.09-.49-2.18-1-3.26-1.51a1.18,1.18,0,0,0-1,0c-.53.23-1.07.44-1.6.66-.76.3-.92.67-.62,1.43s.18.65-.29,1.14.6,2.18,1.24,2.59c.42.27.86.53,1.3.77s1.11.46.9,1.29Z"/><path class="cls-40" d="M75.67,85.69a5.73,5.73,0,0,1,1.41,2.61c.34,1.29.72,2.57.94,3.88a6,6,0,0,0,1.64,3.19,4,4,0,0,1,1.15,2.34,9.35,9.35,0,0,0,2.44,4.86,5.44,5.44,0,0,1,.39.55A19.44,19.44,0,0,1,75.67,85.69Z"/><path class="cls-41" d="M92.4,83.24c-1.18-.88-2-1.76-3.3-1.53-1.08.2-1.82,2-1.45,3.05.58,1.65,2.74,2.21,4.23,2A1.84,1.84,0,0,0,93.46,84C93.2,83.57,92.58,83.48,92.4,83.24Z"/><path class="cls-41" d="M94.21,79.78c-.52-.45-.88-1.21-1.56-1.24a1.65,1.65,0,0,0-1.45,2.11,3,3,0,0,0,2.85,1.9,1.22,1.22,0,0,0,1.06-1.83c-.19-.38-.37-.39-.61-.75C94.48,80,94.23,79.77,94.21,79.78Z"/><path class="cls-41" d="M94.81,79.18a7.13,7.13,0,0,0,1.16.45,1,1,0,0,0,1.25-1.31A2.5,2.5,0,0,0,95,76.62c-.79,0-1.33.28-1.25,1.07a2,2,0,0,0,.72,1.37S94.82,79.16,94.81,79.18Z"/><path class="cls-41" d="M99.22,75.89a5,5,0,0,0-.51-.27.83.83,0,0,0-1.2.92,1.9,1.9,0,0,0,1.3,1.57.83.83,0,0,0,1.12-1A2.13,2.13,0,0,0,99.22,75.89Z"/><path class="cls-41" d="M109.28,77.37a1.55,1.55,0,0,0,1,.65.63.63,0,0,0,.74-.56,1.53,1.53,0,0,0-1.16-1.56c-.56-.11-.95.4-.76,1A4.41,4.41,0,0,0,109.28,77.37Z"/><path class="cls-41" d="M116.86,87.39a21.32,21.32,0,1,1-21.14-21.5A21.34,21.34,0,0,1,116.86,87.39Zm-12.19-8.33-.19-.07c.21-.83-.39-1-.9-1.29s-.88-.5-1.3-.77c-2.23-1.75-1.55.36-2.51,1-.31.2-.2.14-.77.15-.29,0-.46-.19-.75-.27s-.68-.89-.74-1.28c-.21-1.43,0-1.51,1.45-1.43.82,0,1.5.32,2.08-.77.47-.49.53-.51.29-1.14a1.11,1.11,0,0,1,.61-1.43c.52-.21,1-.41,1.55-.63a1.31,1.31,0,0,1,1.08,0c1.08.52,2.17,1,3.26,1.51a2.16,2.16,0,0,0,1.46.19c-1.4-2.39-9.84-6.14-12.26-5.49.37.48.77,1,1.12,1.45a1.14,1.14,0,0,1,.2,1.14A3.39,3.39,0,0,1,96,72.05c-1,.25-2,.47-3,.69s-1.76.42-2.64.57c-.61.11-.73,0-.69-.63s.14-1.48.23-2.21,0-.85-.7-.91a4,4,0,0,0-2.24.41,1,1,0,0,0-.44.56,2.13,2.13,0,0,0,.31,1.83,2.24,2.24,0,0,1,.28,1.49c0,.29-.08.59-.1.88a2.34,2.34,0,0,1-1.45,2.2,12.76,12.76,0,0,1-1.8.76,3,3,0,0,0-1.61,1.11c-.36.44-.77.85-1.16,1.28-.74.79-1.52,1.54-2.2,2.39a2.73,2.73,0,0,0,1.15,4.39c1.09.47,2.13,1.07,3.18,1.63A5.53,5.53,0,0,1,85,90.21,5,5,0,0,0,87.07,92c.51.22,1,.52,1.5.78a1.6,1.6,0,0,1,.78,1,5.07,5.07,0,0,1-1.74,5.57c-.54.43-1.14.8-1.69,1.22s-1.1.82-1.1,1.54a10.05,10.05,0,0,0,.27,2c0,.17.26.32.43.42a19.21,19.21,0,0,0,13.28,2.41,20.39,20.39,0,0,0,14-9.77,17.43,17.43,0,0,0,2.53-7.92c.08-1.45,0-2.9,0-4.34a1.53,1.53,0,0,0-.49-.8c-.21-.21-.45-.16-.56.14a9.24,9.24,0,0,0-.29.89,1.57,1.57,0,0,1-1,1.15.6.6,0,0,0-.31,1c.14.24.32.46.48.69a1.21,1.21,0,0,1-.1,1.86l-.25.26c-.88,1-3-.86-1.83,3.5a10,10,0,0,1-1,2.94,11.87,11.87,0,0,0-.67,1.87,5.61,5.61,0,0,1-.52,1.46,7.24,7.24,0,0,1-3.76,2.71,1,1,0,0,1-1.44-.66,6.67,6.67,0,0,1-.29-.74c-.33-.92-.67-1.83-1-2.76a3.25,3.25,0,0,1-.09-1.08,12.16,12.16,0,0,0,.15-2.07,17.86,17.86,0,0,0-.72-3,1.82,1.82,0,0,0-2.29-1.32,3.46,3.46,0,0,1-3.2-.79,4.94,4.94,0,0,1-1.73-4.23c0-.43.1-.86.11-1.29A4.31,4.31,0,0,1,95.46,82c.37-.48.72-1,1.1-1.46a2.55,2.55,0,0,1,1.46-1,25,25,0,0,0,2.82-.64,2.31,2.31,0,0,1,2.75.84,8.2,8.2,0,0,0,.88,1c.36.33.34,1.46,1.12.54a1.31,1.31,0,0,1,1.53-.36h0a9.9,9.9,0,0,0,1.27.51,1,1,0,0,0,1.24-.83c.1-.62-.16-.9-.88-1-.25,0-.49-.11-.74-.16a5.65,5.65,0,0,0-1.06-.2,1.1,1.1,0,0,1-1-.54l-.72-1.28a1,1,0,0,0-1.19-.56c-.28.06-.39.21-.16.42s.64.48.94.74.4.4.36.52S104.85,78.88,104.67,79.06Zm-29,6.63a19.44,19.44,0,0,0,8,17.43,5.44,5.44,0,0,0-.39-.55,9.35,9.35,0,0,1-2.44-4.86,4,4,0,0,0-1.15-2.34A6,6,0,0,1,78,92.18c-.22-1.31-.6-2.59-.94-3.88A5.73,5.73,0,0,0,75.67,85.69Z"/><path d="M95.53,65.89a21.32,21.32,0,1,0,21.33,21.32A21.21,21.21,0,0,0,95.53,65.89Zm0,41.16a19.84,19.84,0,1,1,19.82-19.84A19.79,19.79,0,0,1,95.56,107.05Z"/><path d="M603.6,429.85a1.47,1.47,0,0,1-.19-.5q0-18.14,0-36.27v-.45h6.36v36.8c0,.14,0,.28,0,.42Z"/><path d="M499.16,392.63h4.26v37.22h-4.26Z"/><path d="M616.15,429.85V392.62h4.26v37.23Z"/><path d="M531.13,429.85c0-.22,0-.44,0-.65V392.63h4.19v.57q0,18,0,36.05a2.61,2.61,0,0,1-.14.6Z"/><path d="M558.84,429.85a2.38,2.38,0,0,1-.15-.55q0-18.07,0-36.13v-.54h4.2a3.93,3.93,0,0,1,.06.48v36.23a3,3,0,0,1-.09.51Z"/><path d="M569.49,429.85a1.68,1.68,0,0,1-.18-.5q0-18.14,0-36.27v-.45h4.27v.48q0,18.11,0,36.23a4.38,4.38,0,0,1,0,.51Z"/><path d="M578,429.85a1.68,1.68,0,0,1-.18-.5q0-18.14,0-36.27v-.45h4.26v36.71c0,.17,0,.34,0,.51Z"/><path d="M586.55,429.85a1.47,1.47,0,0,1-.19-.5q0-18.14,0-36.27v-.45h4.27v36.71a4.4,4.4,0,0,1,0,.51Z"/><path d="M592.94,429.85c-.07-.17-.21-.33-.21-.49q0-18.15,0-36.29v-.44h4.21a2.84,2.84,0,0,1,.05.42v36.38c0,.14,0,.28,0,.42Z"/><path d="M505.55,429.85c0-.22,0-.44,0-.65V392.62h2.15v37.23Z"/><path d="M611.89,429.85V392.62H614c0,.14,0,.29,0,.44q0,18.18,0,36.37c0,.14,0,.28,0,.42Z"/><path d="M512,429.85V392.62h2.11v.5q0,18.11,0,36.19a1.73,1.73,0,0,1-.21.54Z"/><path d="M522.6,429.85c0-.2,0-.41,0-.61V392.63h2.1v.49q0,18.09,0,36.18a2,2,0,0,1-.18.55Z"/><path d="M541.79,429.85c0-.2,0-.41,0-.61V392.62h2.09v.53q0,18.08,0,36.15a2.34,2.34,0,0,1-.14.55Z"/><path d="M546.05,429.85c0-.2,0-.41,0-.61V392.62h2.09v.53q0,18.08,0,36.15a2.34,2.34,0,0,1-.14.55Z"/><path d="M550.31,429.85c0-.2,0-.41,0-.61V392.62h2.09V429.3a3,3,0,0,1-.14.55Z"/></g></svg>