<svg xmlns="http://www.w3.org/2000/svg" xmlns:xlink="http://www.w3.org/1999/xlink" viewBox="0 0 694.64 500"><defs><style>.cls-1{fill:#fff;}.cls-2{opacity:0.5;}.cls-3{fill:url(#무제_그라디언트_113);}.cls-4{fill:#688c3f;}.cls-5{fill:#a5bc62;}.cls-6{fill:#dded9d;}.cls-7{fill:#5b9549;}.cls-8{fill:#96bf71;}.cls-9{fill:#545454;}.cls-10{fill:#757f89;}.cls-11{fill:#4c5260;}.cls-12{fill:#c1594c;}.cls-13{fill:#844235;}.cls-14{fill:#a75641;}.cls-15{fill:#717171;}.cls-16{fill:#9b4f40;}.cls-17{fill:#feffff;}.cls-18{fill:#727c86;}.cls-19{fill:#7ba04d;}.cls-20{fill:none;stroke:#333;stroke-linecap:round;stroke-linejoin:round;stroke-width:0.31px;}.cls-21{fill:#f9d002;}.cls-22{fill:#af900e;}.cls-23{fill:#ea2f51;}.cls-24{fill:#f5dc67;}.cls-25{fill:#ceb54d;}.cls-26{fill:#9c6;}.cls-27{fill:#3f8cb9;}.cls-28{fill:#9bcc60;}</style><linearGradient id="무제_그라디언트_113" x1="347.32" y1="351.32" x2="347.32" y2="121.52" gradientUnits="userSpaceOnUse"><stop offset="0.45" stop-color="#fff"/><stop offset="0.53" stop-color="#fafbf7"/><stop offset="0.65" stop-color="#eef1e1"/><stop offset="0.77" stop-color="#dfe4c6"/><stop offset="0.82" stop-color="#d3dfb6"/><stop offset="0.9" stop-color="#c4d9a2"/><stop offset="0.95" stop-color="#bfd79b"/></linearGradient></defs><g id="레이어_3" data-name="레이어 3"><rect class="cls-1" x="40.73" y="125.19" width="613.18" height="249.96"/><g class="cls-2"><rect class="cls-3" x="40.73" y="126.19" width="613.19" height="248.7"/><path class="cls-4" d="M191.94,340.78h81.55a.79.79,0,0,0,.56-1.35c-6.66-6.76-36.32-36.58-41.21-36.58-5.11,0-20.41,20.25-23.26,20.89-2.58.58-14.13,10.92-18.25,15.73A.8.8,0,0,0,191.94,340.78Z"/><rect class="cls-5" x="40.73" y="339.83" width="613.19" height="35.06"/><path class="cls-1" d="M449.59,220.12q-20,0-39.93,0c-7,0-11.53-3.44-11.94-9.23-.42-6,3.31-10,10.5-10.52,3.33-.22,2.6-2.52,3-4.1,3.4-12.9,16.91-18.65,28.23-11.86a17.31,17.31,0,0,1,8.15,10.88c.52,2.08,1,2.8,3.61,2.26,5.67-1.2,9,.75,11.52,6.18.86,1.87,1.57,2.62,3.43,1.42a3.85,3.85,0,0,1,.88-.45c5-1.61,8.21,2.81,12,3.63s8.42-2.2,12.45,1.16a9.63,9.63,0,0,1,3.19,4.93c1.3,4.58.56,5.67-4.2,5.68Q470.06,220.14,449.59,220.12Z"/><path class="cls-1" d="M593.79,198.88H623c5.15,0,8.44-2.51,8.73-6.75s-2.42-7.35-7.68-7.7c-2.44-.16-1.9-1.84-2.2-3-2.49-9.44-12.38-13.64-20.66-8.68a12.68,12.68,0,0,0-6,8c-.39,1.52-.76,2-2.64,1.66-4.15-.88-6.62.54-8.43,4.52-.63,1.37-1.15,1.92-2.51,1a2.65,2.65,0,0,0-.65-.33c-3.67-1.18-6,2.06-8.8,2.65s-6.16-1.6-9.11.86a7.07,7.07,0,0,0-2.34,3.6c-.94,3.36-.4,4.15,3.08,4.16Z"/><path class="cls-6" d="M611.85,206.61h17.26c3,0,5-1.37,5.15-3.7s-1.43-4-4.53-4.21c-1.44-.09-1.12-1-1.3-1.64a8.26,8.26,0,0,0-12.2-4.76,7,7,0,0,0-3.52,4.36c-.23.83-.45,1.13-1.56.91a4,4,0,0,0-5,2.47c-.37.76-.68,1.06-1.48.57a1.88,1.88,0,0,0-.38-.18c-2.17-.64-3.55,1.13-5.2,1.46s-3.64-.88-5.38.46a3.86,3.86,0,0,0-1.38,2c-.56,1.84-.24,2.27,1.82,2.27Z"/><path class="cls-6" d="M399.39,224.73H377.5c-3.86,0-6.32-1.74-6.54-4.69s1.81-5.1,5.75-5.35c1.83-.11,1.43-1.28,1.65-2.08,1.87-6.56,9.27-9.48,15.48-6a8.87,8.87,0,0,1,4.46,5.53c.29,1.06.57,1.43,2,1.15,3.11-.61,5,.38,6.32,3.14.47.95.86,1.34,1.88.73a2.16,2.16,0,0,1,.48-.24c2.75-.81,4.5,1.43,6.59,1.85s4.62-1.12,6.83.59a4.91,4.91,0,0,1,1.75,2.51c.71,2.33.3,2.88-2.31,2.88C414.35,224.74,406.87,224.73,399.39,224.73Z"/><rect class="cls-7" x="579.66" y="185.06" width="8.15" height="27.2"/><rect class="cls-8" x="579.66" y="216.94" width="8.15" height="27.2"/><rect class="cls-7" x="579.66" y="248.82" width="8.15" height="27.2"/><rect class="cls-8" x="579.66" y="280.7" width="8.15" height="27.2"/><rect class="cls-7" x="579.66" y="312.58" width="8.15" height="27.2"/><path class="cls-7" d="M599.81,215.82c-9.64-.84-8.83,7.43-8.83,7.43S599,225.46,599.81,215.82Z"/><rect class="cls-8" x="602.53" y="248.82" width="8.15" height="27.2"/><rect class="cls-7" x="602.53" y="280.7" width="8.15" height="27.2"/><rect class="cls-8" x="602.53" y="312.58" width="8.15" height="27.2"/><path class="cls-7" d="M623.24,252.1c-9.65-.83-8.84,7.44-8.84,7.44S622.41,261.75,623.24,252.1Z"/><rect class="cls-8" x="472.97" y="216.94" width="8.15" height="27.2"/><rect class="cls-7" x="472.97" y="248.82" width="8.15" height="27.2"/><rect class="cls-8" x="472.97" y="280.7" width="8.15" height="27.2"/><rect class="cls-7" x="472.97" y="312.58" width="8.15" height="27.2"/><path class="cls-7" d="M493.67,220.22c-9.64-.83-8.83,7.44-8.83,7.44S492.84,229.87,493.67,220.22Z"/><path class="cls-7" d="M459.62,203.5c9.65-.83,8.84,7.44,8.84,7.44S460.46,213.15,459.62,203.5Z"/><rect class="cls-8" x="422.32" y="248.82" width="8.15" height="27.2"/><rect class="cls-7" x="422.32" y="280.7" width="8.15" height="27.2"/><rect class="cls-8" x="422.32" y="312.58" width="8.15" height="27.2"/><path class="cls-7" d="M411.05,236.18c9.65-.83,8.84,7.44,8.84,7.44S411.88,245.83,411.05,236.18Z"/><rect class="cls-7" x="445.78" y="185.06" width="8.15" height="27.2"/><rect class="cls-8" x="445.78" y="216.94" width="8.15" height="27.2"/><rect class="cls-7" x="445.78" y="248.82" width="8.15" height="27.2"/><rect class="cls-8" x="445.78" y="280.7" width="8.15" height="27.2"/><rect class="cls-7" x="445.78" y="312.58" width="8.15" height="27.2"/><path class="cls-7" d="M433.94,172.23c9.64-.83,8.83,7.44,8.83,7.44S434.77,181.88,433.94,172.23Z"/><rect class="cls-7" x="554.49" y="216.94" width="8.15" height="27.2"/><rect class="cls-8" x="554.49" y="248.82" width="8.15" height="27.2"/><rect class="cls-7" x="554.49" y="280.7" width="8.15" height="27.2"/><rect class="cls-8" x="554.49" y="312.58" width="8.15" height="27.2"/><path class="cls-7" d="M542.61,202.46c9.65-.83,8.84,7.43,8.84,7.43S543.44,212.1,542.61,202.46Z"/><path class="cls-9" d="M580.47,260.92s-1.93,10.32-14.14,13.84h-100s-10.32-2.9-12.55-13.84"/><path class="cls-10" d="M517.14,271.87c-34.12,0-55.61-2.71-58-3.79s-5.36-7.16-5.36-7.16l28-7,2.31-18.71h66l2.3,18.71,28,7s-3,6.07-5.36,7.16S551.27,271.87,517.14,271.87Z"/><path class="cls-11" d="M517.14,271.6c-34.12,0-55.61-2.71-58-3.79s-3.79-4.34-3.79-4.34L485,255.71l2.17-16.79h59.95l2.17,16.79,29.61,7.76s-1.45,3.25-3.79,4.34S551.27,271.6,517.14,271.6Z"/><rect class="cls-12" x="477.12" y="279.71" width="7.56" height="60.07"/><rect class="cls-13" x="493.12" y="298.61" width="7.56" height="41.17"/><rect class="cls-13" x="533.27" y="298.61" width="7.56" height="41.17"/><rect class="cls-12" x="549.12" y="279.71" width="7.56" height="60.07"/><rect class="cls-14" x="484.69" y="279.71" width="64.43" height="18.9"/><rect class="cls-15" x="477.12" y="274.69" width="79.56" height="5.03"/><rect class="cls-16" x="484.69" y="322.76" width="64.43" height="8.43"/><rect class="cls-17" x="501.13" y="284.14" width="31.54" height="10.05"/><path class="cls-18" d="M517.14,271.6c-34.12,0-55.61-2.71-58-3.79s-3.79-4.34-3.79-4.34L485,255.71l2.17-16.79h59.95l2.17,16.79,29.61,7.76s-1.45,3.25-3.79,4.34S551.27,271.6,517.14,271.6Z"/><path class="cls-11" d="M556.87,258l-2-.52v13.17l2-.15Z"/><path class="cls-11" d="M553.05,257l-2-.52v14.43l2-.13Z"/><path class="cls-11" d="M549.24,255.61l-2-15.3V271.1l2-.11Z"/><path class="cls-11" d="M495.84,239.18h-2v32.24l2,.07Z"/><path class="cls-11" d="M560.68,259l-2-.51v11.87l2-.17Z"/><path class="cls-11" d="M572.12,262l-2-.52v7.63c.73-.1,1.39-.21,2-.31Z"/><path class="cls-11" d="M564.5,260l-2-.52V270l2-.2Z"/><path class="cls-11" d="M568.31,261l-2-.52v9.12l2-.24Z"/><path class="cls-11" d="M526.35,239.18h-2v32.64l2,0Z"/><path class="cls-11" d="M520.56,271.86l2,0V239.18h-2Z"/><path class="cls-11" d="M530.17,239.18h-2v32.59l2,0Z"/><path class="cls-11" d="M545.42,239.18h-2v32.11l2-.09Z"/><path class="cls-11" d="M577.78,263.45v2.19a13,13,0,0,0,1.12-1.9Z"/><path class="cls-11" d="M541.61,239.18h-2v32.27l2-.08Z"/><path class="cls-11" d="M537.8,239.18h-2v32.4l2-.06Z"/><path class="cls-11" d="M534,239.18h-2v32.51l2-.05Z"/><path class="cls-11" d="M465.33,261.14l-2,.51V269l2,.28Z"/><path class="cls-11" d="M469.14,260.14l-2,.51v8.83l2,.23Z"/><path class="cls-11" d="M484.4,256.14l-2,.51v14.18l2,.12Z"/><path class="cls-11" d="M480.58,257.14l-2,.51v12.91l2,.14Z"/><path class="cls-11" d="M473,259.14l-2,.51V269.9l2,.19Z"/><path class="cls-11" d="M476.77,258.14l-2,.51v11.6l2,.17Z"/><path class="cls-11" d="M575.94,263l-2-.52v6a7.45,7.45,0,0,0,1.15-.34,5.38,5.38,0,0,0,.83-.5Z"/><path class="cls-11" d="M457.7,263.14l-2.31.6A11.57,11.57,0,0,0,457.7,267Z"/><path class="cls-11" d="M518.72,239.18h-2v32.69h2Z"/><path class="cls-11" d="M507.28,239.18h-2v32.57l2,0Z"/><path class="cls-11" d="M490.05,271.25l2,.09V239.18h-2Z"/><path class="cls-11" d="M503.47,239.18h-2v32.49l2,.05Z"/><path class="cls-11" d="M461.51,262.14l-2,.51v5.55a17.06,17.06,0,0,0,2,.46Z"/><path class="cls-11" d="M499.65,239.18h-2v32.38l2,.06Z"/><path class="cls-11" d="M511.1,239.18h-2v32.63l2,0Z"/><path class="cls-11" d="M486.24,271.06l2,.1v-32h-1l-.93,7.24Z"/><path class="cls-11" d="M514.91,239.18h-2v32.67h2Z"/><path class="cls-4" d="M40.91,339.78h180.4s-88.83-85.86-102-85.88c-12.27,0-49,45.85-55.8,47.3-3.35.72-12.84,7.89-22.55,16.05"/><path class="cls-19" d="M40.73,317.25c9.73-8.16,19.24-15.33,22.6-16.05,6.85-1.45,43.63-47.32,55.93-47.3L85.79,339.78H40.73"/><polyline class="cls-20" points="203.97 250.14 211.73 276.71 199.59 248.71"/><polyline class="cls-20" points="231.52 256.58 211.73 276.71 209.34 248.76"/><polyline class="cls-20" points="237.87 261.62 211.73 276.71 234.86 260.43"/><path class="cls-21" d="M204.08,233a23.78,23.78,0,0,1,6.82-2.48c11.48-2.62,24.58,2.07,31.45,11.22A19.62,19.62,0,0,1,246.6,255c-.27,4.62-3.09,7.1-8.19,7.25-.07,0-.16-.06-.17.06l0,0-.58-.12c-.09,0-.2-.1-.22.06h0a13.65,13.65,0,0,1-2.82-1.24l-.37-.24a14.63,14.63,0,0,1-3-3.55l-.2-.32a35.48,35.48,0,0,1-2.93-8.71,24.4,24.4,0,0,0-1.31-4.35,15.28,15.28,0,0,0-2.22-4.25,3.62,3.62,0,0,0-.19-.4c-3.65-5.47-9.56-7.68-16.17-6.86C206.88,232.46,205.48,232.76,204.08,233Z"/><path class="cls-22" d="M204.08,233c1.4-.24,2.8-.54,4.22-.72,6.61-.82,12.52,1.39,16.17,6.86a3.62,3.62,0,0,1,.19.4,24.77,24.77,0,0,0-8,4.6,40.64,40.64,0,0,1-7.54,5.22l-.4.16a13.9,13.9,0,0,1-4.94,1.15h-.42a8.71,8.71,0,0,1-4-1.44l-.63-.32c-.15-.22-.27-.46-.44-.67-2.93-3.5-3.11-6.7-.58-10.16a16.81,16.81,0,0,1,6-5l.34-.08Z"/><path class="cls-23" d="M204.13,233l-.34.08C203.89,233,204,232.94,204.13,233Z"/><path class="cls-24" d="M145.57,351.64a1.4,1.4,0,0,0-.19-.86,1.5,1.5,0,1,0-2.61,1.47l0,.05a1.57,1.57,0,0,0-.91.19,1.54,1.54,0,1,0,1.51,2.68l.1-.07a1.52,1.52,0,0,0,.19.77,1.49,1.49,0,0,0,2.64-1.4,1.35,1.35,0,0,0,.61-.18,1.49,1.49,0,0,0-1.38-2.65Z"/><path class="cls-25" d="M144.32,352.81a.47.47,0,0,0-.21-.15.44.44,0,0,0-.28.84h0a.41.41,0,0,0-.16.22.45.45,0,0,0,.29.57.45.45,0,0,0,.57-.28s0,0,0,0a.43.43,0,0,0,.19.13.44.44,0,0,0,.3-.83.44.44,0,0,0,.1-.16.44.44,0,0,0-.28-.56A.45.45,0,0,0,144.32,352.81Z"/><path class="cls-24" d="M92.84,349.23a2.73,2.73,0,0,0-.89-1.36,2.77,2.77,0,1,0-3.54,4.27l.1.07a2.75,2.75,0,0,0-1.46.93,2.86,2.86,0,1,0,4.4,3.64c0-.06.08-.13.13-.2a2.72,2.72,0,0,0,.83,1.2,2.76,2.76,0,0,0,3.64-4.16,2.69,2.69,0,0,0,.93-.72,2.77,2.77,0,0,0-4.14-3.67Z"/><path class="cls-25" d="M91.46,352.09A.72.72,0,0,0,91,352a.82.82,0,0,0,.07,1.63h0a.76.76,0,0,0-.14.49.84.84,0,1,0,1.68-.08s0,0,0-.07a.77.77,0,0,0,.42.1.82.82,0,0,0,0-1.63.65.65,0,0,0,.06-.34.82.82,0,0,0-1.63,0Z"/><path class="cls-1" d="M125.86,359.26a2.53,2.53,0,0,0,.42-1.39,2.47,2.47,0,1,0-4.93,0s0,.07,0,.11a2.45,2.45,0,0,0-1.46-.47,2.54,2.54,0,1,0,0,5.07l.21,0a2.43,2.43,0,0,0-.36,1.25,2.46,2.46,0,0,0,4.92.14,2.46,2.46,0,1,0,1.19-4.69Z"/><path class="cls-24" d="M123.12,359.93a.71.71,0,0,0-.18-.38.73.73,0,1,0-1.08,1l0,0a.75.75,0,1,0,.59,1.3l0,0a.69.69,0,0,0,.18.35.73.73,0,0,0,1.1-.95.76.76,0,0,0,.26-.15.72.72,0,0,0-.93-1.11Z"/><path class="cls-24" d="M221.57,361.93a1.55,1.55,0,0,0-.19-.86,1.5,1.5,0,1,0-2.61,1.47l0,0a1.51,1.51,0,0,0-.92.19,1.54,1.54,0,0,0,1.51,2.68l.11-.07a1.44,1.44,0,0,0,.19.77,1.49,1.49,0,0,0,2.64-1.4,1.38,1.38,0,0,0,.61-.18,1.49,1.49,0,0,0-1.38-2.65Z"/><path class="cls-25" d="M220.32,363.1a.41.41,0,0,0-.21-.15.44.44,0,1,0-.28.84h0a.48.48,0,0,0-.16.23.45.45,0,0,0,.28.57.46.46,0,0,0,.58-.29,0,0,0,0,1,0,0,.53.53,0,0,0,.19.13.45.45,0,0,0,.56-.28.44.44,0,0,0-.26-.55.44.44,0,0,0,.1-.16.45.45,0,0,0-.28-.56A.45.45,0,0,0,220.32,363.1Z"/><path class="cls-24" d="M172.14,357a2.78,2.78,0,1,0-4.44,2.9l.11.07a2.9,2.9,0,0,0-1.47.93,2.86,2.86,0,1,0,4.4,3.64,2.14,2.14,0,0,0,.13-.19,2.83,2.83,0,0,0,.84,1.2,2.77,2.77,0,0,0,3.64-4.17,2.66,2.66,0,0,0,.93-.71,2.77,2.77,0,0,0-4.14-3.67Z"/><path class="cls-25" d="M170.76,359.83a.85.85,0,0,0-.47-.12.82.82,0,1,0,.08,1.64h0a.82.82,0,0,0-.13.49.84.84,0,0,0,.87.81.85.85,0,0,0,.81-.88s0-.05,0-.07a.73.73,0,0,0,.42.1.82.82,0,0,0,0-1.63,1,1,0,0,0,.06-.34.82.82,0,0,0-1.63,0Z"/><path class="cls-24" d="M278.38,351.74a1.55,1.55,0,0,0-.19-.86,1.5,1.5,0,1,0-2.61,1.46l0,.06a1.51,1.51,0,0,0-.92.19,1.54,1.54,0,1,0,1.51,2.68l.11-.07a1.47,1.47,0,0,0,.18.76,9.48,9.48,0,0,1,3.25-1.57,1.49,1.49,0,0,0-1.37-2.65Z"/><path class="cls-25" d="M277.13,352.91a.45.45,0,0,0-.21-.15.44.44,0,0,0-.28.84h0a.41.41,0,0,0-.17.22.46.46,0,1,0,.87.29v0a.39.39,0,0,0,.2.13.42.42,0,0,0,.55-.27.43.43,0,0,0-.25-.55.51.51,0,0,0,.09-.16.44.44,0,0,0-.28-.56A.43.43,0,0,0,277.13,352.91Z"/><path class="cls-1" d="M262.06,363.58a1.35,1.35,0,1,0,2.17-1.39l-.05,0a1.38,1.38,0,0,0,.55-2.4,1.38,1.38,0,0,0-2,.17l-.07.09a1.27,1.27,0,0,0-.4-.59,8.33,8.33,0,0,1-2.24,2.35,1.34,1.34,0,0,0,2,1.8Z"/><path class="cls-24" d="M262.75,362.2a.33.33,0,0,0,.22.06.39.39,0,0,0,.38-.41.39.39,0,0,0-.41-.38h0a.38.38,0,0,0,.06-.24.4.4,0,0,0-.42-.39.41.41,0,0,0-.39.42v0a.29.29,0,0,0-.2-.05.39.39,0,0,0-.38.41.39.39,0,0,0,.38.38.45.45,0,0,0,0,.16.4.4,0,0,0,.8,0Z"/><path class="cls-24" d="M300.9,356.54a2.82,2.82,0,0,0-.89-1.36,2.77,2.77,0,1,0-3.54,4.27l.1.07a2.85,2.85,0,1,0,2.94,4.57c.05-.06.08-.13.13-.2a2.69,2.69,0,0,0,.83,1.21,2.77,2.77,0,0,0,3.65-4.17,2.77,2.77,0,1,0-3.22-4.39Z"/><path class="cls-25" d="M299.52,359.4a.79.79,0,0,0-.46-.12.82.82,0,0,0,.07,1.63h0a.76.76,0,0,0-.14.49.85.85,0,0,0,.88.8.84.84,0,0,0,.8-.87.15.15,0,0,0,0-.07.86.86,0,0,0,.42.09.82.82,0,0,0,.78-.85.83.83,0,0,0-.81-.78.65.65,0,0,0,.06-.34.82.82,0,0,0-1.63,0Z"/><path class="cls-1" d="M203.39,349.71a2.47,2.47,0,1,0-4.51-1.39s0,.07,0,.11a2.45,2.45,0,0,0-1.46-.47,2.54,2.54,0,1,0,0,5.07l.21,0a2.42,2.42,0,0,0-.35,1.25,2.46,2.46,0,0,0,4.91.13,2.32,2.32,0,0,0,1,.24,2.46,2.46,0,0,0,.17-4.92Z"/><path class="cls-24" d="M200.65,350.38a.71.71,0,0,0-.18-.38.73.73,0,1,0-1.08,1l0,0a.77.77,0,0,0-.41.19.75.75,0,0,0,1,1.11l.05-.05a.68.68,0,0,0,.17.35.73.73,0,0,0,1.1-.95.81.81,0,0,0,.27-.15.73.73,0,0,0-.94-1.11Z"/><path class="cls-1" d="M241.39,353.28a2.47,2.47,0,1,0-4.5-1.39.41.41,0,0,0,0,.11,2.51,2.51,0,0,0-1.47-.48,2.54,2.54,0,0,0,0,5.08l.21,0a2.4,2.4,0,0,0-.35,1.25,2.46,2.46,0,0,0,4.91.13,2.35,2.35,0,0,0,1,.23,2.46,2.46,0,0,0,.17-4.91Z"/><path class="cls-24" d="M238.65,354a.77.77,0,0,0-.18-.39.73.73,0,0,0-1.08,1l0,0a.77.77,0,0,0-.42.19.74.74,0,0,0-.05,1.05.76.76,0,0,0,1.06.06l0-.05a.69.69,0,0,0,.17.34,4.41,4.41,0,0,1,1.37-1.09.73.73,0,0,0-.94-1.11Z"/><path class="cls-24" d="M489.69,351.64a1.46,1.46,0,0,1,.18-.86,1.5,1.5,0,1,1,2.61,1.47l0,.05a1.58,1.58,0,0,1,.92.19,1.54,1.54,0,1,1-1.51,2.68l-.11-.07a1.49,1.49,0,1,1-2.83-.63,1.34,1.34,0,0,1-.6-.18,1.49,1.49,0,0,1,1.38-2.65Z"/><path class="cls-25" d="M490.93,352.81a.54.54,0,0,1,.21-.15.44.44,0,0,1,.28.84h0a.38.38,0,0,1,.17.22.45.45,0,0,1-.86.29.08.08,0,0,1,0,0,.5.5,0,0,1-.19.13.44.44,0,0,1-.56-.28.44.44,0,0,1,.25-.55.42.42,0,0,1-.09-.16.44.44,0,0,1,.28-.56A.44.44,0,0,1,490.93,352.81Z"/><path class="cls-24" d="M542.42,349.23a2.73,2.73,0,0,1,.89-1.36,2.77,2.77,0,1,1,3.54,4.27l-.1.07a2.75,2.75,0,0,1,1.46.93,2.86,2.86,0,0,1-4.4,3.64,1.37,1.37,0,0,1-.13-.2,2.8,2.8,0,0,1-.83,1.2,2.77,2.77,0,0,1-3.65-4.16,2.88,2.88,0,0,1-.93-.72,2.77,2.77,0,0,1,4.15-3.67Z"/><path class="cls-25" d="M543.79,352.09a.77.77,0,0,1,.47-.12.82.82,0,1,1-.07,1.63h0a.91.91,0,0,1,.14.49.85.85,0,0,1-.88.8.83.83,0,0,1-.8-.88.2.2,0,0,1,0-.07.77.77,0,0,1-.42.1.82.82,0,0,1,0-1.63.93.93,0,0,1-.06-.34.82.82,0,0,1,.86-.78A.8.8,0,0,1,543.79,352.09Z"/><path class="cls-1" d="M509.4,359.26a2.47,2.47,0,1,1,4.5-1.39.41.41,0,0,1,0,.11,2.5,2.5,0,0,1,1.47-.47,2.54,2.54,0,0,1,0,5.07l-.21,0a2.42,2.42,0,0,1,.35,1.25,2.46,2.46,0,0,1-4.91.14,2.45,2.45,0,0,1-3.49-2.24A2.46,2.46,0,0,1,509.4,359.26Z"/><path class="cls-24" d="M512.14,359.93a.71.71,0,0,1,.18-.38.73.73,0,0,1,1-.06.74.74,0,0,1,0,1l0,0a.77.77,0,0,1,.42.19.75.75,0,0,1-1,1.11l0,0a.68.68,0,0,1-.17.35,4.31,4.31,0,0,0-1.37-1.1.73.73,0,0,1,.94-1.11Z"/><path class="cls-24" d="M413.69,361.93a1.4,1.4,0,0,1,.19-.86,1.5,1.5,0,1,1,2.61,1.47l0,0a1.48,1.48,0,0,1,.91.19,1.54,1.54,0,1,1-1.51,2.68l-.1-.07a1.54,1.54,0,0,1-.19.77,1.49,1.49,0,0,1-2.64-1.4,1.35,1.35,0,0,1-.61-.18,1.49,1.49,0,0,1,1.38-2.65Z"/><path class="cls-25" d="M414.94,363.1a.41.41,0,0,1,.21-.15.44.44,0,0,1,.56.28.45.45,0,0,1-.28.56h0a.48.48,0,0,1,.16.23.45.45,0,1,1-.86.28v0a.53.53,0,0,1-.19.13.45.45,0,0,1-.56-.28.44.44,0,0,1,.26-.55.44.44,0,0,1-.1-.16.44.44,0,0,1,.28-.56A.45.45,0,0,1,414.94,363.1Z"/><path class="cls-24" d="M463.12,357a2.77,2.77,0,1,1,4.43,2.9l-.1.07a2.85,2.85,0,0,1,1.08,4.95,2.83,2.83,0,0,1-4-.38,2.31,2.31,0,0,1-.14-.19,2.72,2.72,0,0,1-.83,1.2,2.77,2.77,0,0,1-3.64-4.17,2.66,2.66,0,0,1-.93-.71,2.77,2.77,0,0,1,4.14-3.67Z"/><path class="cls-25" d="M464.5,359.83a.79.79,0,0,1,.46-.12.82.82,0,0,1,.79.86.83.83,0,0,1-.86.78h0a.82.82,0,0,1,.13.49.84.84,0,1,1-1.68-.07s0-.05,0-.07a.77.77,0,0,1-.42.1.82.82,0,0,1,0-1.63.79.79,0,0,1-.06-.34.82.82,0,0,1,1.63,0Z"/><path class="cls-24" d="M358.14,351.38a1.44,1.44,0,0,1,.67-.57,1.5,1.5,0,1,1,1.18,2.75l-.06,0a1.51,1.51,0,0,1,.62.7,1.54,1.54,0,1,1-2.83,1.22.56.56,0,0,1,0-.12,1.51,1.51,0,0,1-.62.49,1.49,1.49,0,0,1-1.25-2.71,1.2,1.2,0,0,1-.37-.51,1.49,1.49,0,0,1,2.7-1.27Z"/><path class="cls-25" d="M358.42,353.07a.39.39,0,0,1,.26,0,.44.44,0,1,1-.29.83h0a.53.53,0,0,1,0,.28.45.45,0,0,1-.86-.29l0,0a.49.49,0,0,1-.24,0,.44.44,0,0,1-.27-.56.43.43,0,0,1,.54-.28.41.41,0,0,1,0-.19.44.44,0,0,1,.84.26Z"/><path class="cls-1" d="M373.2,363.58a1.35,1.35,0,1,1-2.17-1.39l.05,0a1.47,1.47,0,0,1-.72-.44,1.39,1.39,0,1,1,2.12-1.79l.07.09a1.33,1.33,0,0,1,.39-.59,1.35,1.35,0,0,1,1.79,2,1.38,1.38,0,0,1,.46.34,1.35,1.35,0,0,1-.16,1.9A1.33,1.33,0,0,1,373.2,363.58Z"/><path class="cls-24" d="M372.51,362.2a.33.33,0,0,1-.22.06.4.4,0,1,1,0-.79h0a.45.45,0,0,1-.07-.24.41.41,0,0,1,.82,0,.08.08,0,0,1,0,0,.31.31,0,0,1,.21-.05.39.39,0,0,1,.38.41.4.4,0,0,1-.39.38.3.3,0,0,1,0,.16.4.4,0,0,1-.79,0Z"/><path class="cls-24" d="M337.56,357.24a2.78,2.78,0,1,1,.66,5.26l-.12,0a2.76,2.76,0,0,1,.24,1.71,2.85,2.85,0,1,1-5.62-1,1.41,1.41,0,0,1,.06-.22,2.72,2.72,0,0,1-1.45.14,17,17,0,0,0,.75-6.65,2.77,2.77,0,0,1,5.48.78Z"/><path class="cls-25" d="M335.73,359.4a.85.85,0,0,1,.47-.12.82.82,0,1,1-.07,1.63h0a.91.91,0,0,1,.14.49.85.85,0,0,1-.88.8.84.84,0,0,1-.81-.87.2.2,0,0,0,0-.07.82.82,0,0,1-1.2-.76.83.83,0,0,1,.81-.78.93.93,0,0,1-.06-.34.82.82,0,0,1,.86-.78A.81.81,0,0,1,335.73,359.4Z"/><path class="cls-1" d="M431.87,349.71a2.47,2.47,0,1,1,4.5-1.39s0,.07,0,.11a2.5,2.5,0,0,1,1.47-.47,2.54,2.54,0,0,1,0,5.07l-.21,0a2.42,2.42,0,0,1,.35,1.25,2.46,2.46,0,0,1-4.92.13,2.31,2.31,0,0,1-1,.24,2.46,2.46,0,0,1-.17-4.92Z"/><path class="cls-24" d="M434.61,350.38a.71.71,0,0,1,.18-.38.73.73,0,0,1,1-.06.74.74,0,0,1,.05,1l0,0a.77.77,0,0,1,.42.19.75.75,0,0,1-1,1.11l0-.05a.68.68,0,0,1-.17.35.73.73,0,0,1-1.1-.95.72.72,0,0,1-.27-.15.73.73,0,0,1-.05-1A.74.74,0,0,1,434.61,350.38Z"/><path class="cls-1" d="M393.87,353.28a2.47,2.47,0,1,1,4.5-1.39s0,.07,0,.11a2.51,2.51,0,0,1,1.47-.48,2.54,2.54,0,0,1,0,5.08l-.21,0a2.4,2.4,0,0,1,.35,1.25,2.46,2.46,0,0,1-4.92.13,2.3,2.3,0,0,1-1,.23,2.46,2.46,0,0,1-.17-4.91Z"/><path class="cls-24" d="M396.61,354a.77.77,0,0,1,.18-.39.73.73,0,1,1,1.07,1l0,0a.71.71,0,0,1,.41.19.74.74,0,0,1,.06,1.05.76.76,0,0,1-1.06.06l0-.05a.78.78,0,0,1-.17.34.72.72,0,0,1-1.1-.94.72.72,0,0,1-.27-.15.73.73,0,0,1-.05-1A.74.74,0,0,1,396.61,354Z"/><path class="cls-24" d="M603.79,361.93a1.46,1.46,0,0,1,.18-.86,1.5,1.5,0,0,1,2.61,1.47l0,0a1.49,1.49,0,0,1,.91.19,1.54,1.54,0,1,1-1.51,2.68l-.1-.07a1.54,1.54,0,0,1-.19.77,1.49,1.49,0,0,1-2.64-1.4,1.35,1.35,0,0,1-.61-.18,1.49,1.49,0,0,1,1.38-2.65Z"/><path class="cls-25" d="M605,363.1a.48.48,0,0,1,.22-.15.43.43,0,0,1,.55.28.44.44,0,0,1-.28.56h0a.48.48,0,0,1,.16.23.45.45,0,0,1-.86.28,0,0,0,0,1,0,0,.64.64,0,0,1-.19.13.45.45,0,0,1-.56-.28.43.43,0,0,1,.26-.55.34.34,0,0,1-.1-.16.44.44,0,0,1,.28-.56A.44.44,0,0,1,605,363.1Z"/><path class="cls-1" d="M563.29,363.58a1.28,1.28,0,0,1-.43.67,1.35,1.35,0,0,1-1.73-2.06l0,0a1.43,1.43,0,0,1-.72-.44,1.39,1.39,0,1,1,2.12-1.79l.06.09a1.44,1.44,0,0,1,.4-.59,1.35,1.35,0,0,1,1.79,2,1.38,1.38,0,0,1,.46.34,1.35,1.35,0,0,1-2,1.8Z"/><path class="cls-24" d="M562.61,362.2a.36.36,0,0,1-.23.06.39.39,0,0,1-.38-.41.4.4,0,0,1,.41-.38h0a.38.38,0,0,1-.07-.24.41.41,0,0,1,.42-.39.42.42,0,0,1,.4.42s0,0,0,0a.3.3,0,0,1,.21-.05.39.39,0,0,1,.38.41.4.4,0,0,1-.39.38.45.45,0,0,1,0,.16.41.41,0,0,1-.41.39A.4.4,0,0,1,562.61,362.2Z"/><path class="cls-1" d="M584,353.28a2.47,2.47,0,1,1,4.5-1.39s0,.07,0,.11a2.49,2.49,0,0,1,1.47-.48,2.54,2.54,0,0,1,0,5.08l-.21,0a2.49,2.49,0,0,1,.35,1.25,2.46,2.46,0,0,1-4.92.13,2.31,2.31,0,0,1-1,.23,2.46,2.46,0,0,1-.16-4.91Z"/><path class="cls-24" d="M586.7,354a.72.72,0,0,1,.19-.39.73.73,0,1,1,1.07,1l0,0a.75.75,0,1,1-.59,1.3l0-.05a.78.78,0,0,1-.17.34.73.73,0,0,1-1,.05.71.71,0,0,1-.07-1,.72.72,0,0,1-.27-.15.72.72,0,0,1,.93-1.11Z"/></g><path d="M105.68,205.73a1.16,1.16,0,0,1-1.72,0l-2.33-2.18c-.46-.46-.41-.95.15-1.48a33.51,33.51,0,0,0,5.49-6.52,35.32,35.32,0,0,0,3.65-7.61,36.87,36.87,0,0,0,1.71-7.34,56.58,56.58,0,0,0,.37-8.13.72.72,0,0,1,.22-.52.69.69,0,0,1,.47-.22l4.4.15a.57.57,0,0,1,.44.22.77.77,0,0,1,.2.52,65.35,65.35,0,0,1-.89,11.17,22.74,22.74,0,0,0,1.48,4.77,32.08,32.08,0,0,0,2.45,4.59,34.32,34.32,0,0,0,3,4.08,24,24,0,0,0,3.26,3.16c.52.4.56.92.1,1.58l-2.08,2.52a1,1,0,0,1-.67.4,1.35,1.35,0,0,1-.91-.3,21.64,21.64,0,0,1-2.59-2.37,34.22,34.22,0,0,1-2.6-3.09,38.08,38.08,0,0,1-2.27-3.41,20.32,20.32,0,0,1-1.63-3.38,34.91,34.91,0,0,1-2,4c-.76,1.28-1.55,2.51-2.39,3.68a33.11,33.11,0,0,1-2.62,3.21A28.59,28.59,0,0,1,105.68,205.73Zm34.74,10.42H136a.56.56,0,0,1-.64-.64V189.37H125.2a.68.68,0,0,1-.47-.2.57.57,0,0,1-.22-.44v-3.51a.52.52,0,0,1,.22-.42.8.8,0,0,1,.47-.17h10.18V169.9a.57.57,0,0,1,.64-.64h4.4a.57.57,0,0,1,.64.64v45.61A.56.56,0,0,1,140.42,216.15Z"/><path d="M191.11,192.76a.77.77,0,0,1-.49.22H171.94v3.66H181a4.18,4.18,0,0,1,2.7.61,3.11,3.11,0,0,1,.66,2.3v5.68a3.07,3.07,0,0,1-.66,2.32,4.25,4.25,0,0,1-2.7.6h-20.8c-.26,0-.43,0-.49.12a1,1,0,0,0-.1.57v1.53c0,.3,0,.47.1.52a1.15,1.15,0,0,0,.54.07h24.56a.79.79,0,0,1,.49.2.6.6,0,0,1,.25.5v3.21a.63.63,0,0,1-.25.47.73.73,0,0,1-.44.22H157.37a3.73,3.73,0,0,1-2.62-.69,3.14,3.14,0,0,1-.69-2.28V207a3.22,3.22,0,0,1,.66-2.27,3.65,3.65,0,0,1,2.6-.69h21a.94.94,0,0,0,.49-.08c.07,0,.1-.24.1-.57V202c0-.36,0-.58-.1-.64s-.25-.1-.54-.1H154.6a.7.7,0,0,1-.47-.2.57.57,0,0,1-.22-.44v-3.31a.58.58,0,0,1,.22-.45.69.69,0,0,1,.47-.19h11.66V193H147.58a.61.61,0,0,1-.69-.69v-3.07a.79.79,0,0,1,.2-.52.66.66,0,0,1,.49-.22h43a.89.89,0,0,1,.74.74v3.07A.63.63,0,0,1,191.11,192.76Zm-6.37-15.64a6.07,6.07,0,0,1-1,3.43,8.64,8.64,0,0,1-3,2.69,17,17,0,0,1-4.87,1.78,34.29,34.29,0,0,1-13.29,0,17,17,0,0,1-4.87-1.78,8.73,8.73,0,0,1-3-2.69,6.07,6.07,0,0,1-1-3.43,5.79,5.79,0,0,1,1-3.31,9,9,0,0,1,3-2.67,17.28,17.28,0,0,1,4.87-1.78,34.82,34.82,0,0,1,13.29,0,17.28,17.28,0,0,1,4.87,1.78,8.9,8.9,0,0,1,3,2.67A5.79,5.79,0,0,1,184.74,177.12ZM169.18,173a21.24,21.24,0,0,0-4,.34,15.43,15.43,0,0,0-3.14.92,6,6,0,0,0-2.07,1.36,2.39,2.39,0,0,0-.75,1.68,2.27,2.27,0,0,0,.75,1.6,6.23,6.23,0,0,0,2.07,1.34,15.46,15.46,0,0,0,3.14.91,22.63,22.63,0,0,0,7.93,0,15.29,15.29,0,0,0,3.16-.91,6.39,6.39,0,0,0,2.08-1.34,2.3,2.3,0,0,0,.74-1.6,2.42,2.42,0,0,0-.74-1.68,6.1,6.1,0,0,0-2.08-1.36,15.27,15.27,0,0,0-3.16-.92A21.37,21.37,0,0,0,169.18,173Z"/><path d="M129.71,244.9a4.34,4.34,0,0,1-1.29.92,4.63,4.63,0,0,1-1.66.46,6,6,0,0,1-1,0c-.38,0-.75-.07-1.11-.13s-.68-.12-1-.19a3.64,3.64,0,0,1-.63-.2,1.21,1.21,0,0,1-.35-.21s0-.14,0-.28l.14-1.44a.21.21,0,0,1,.1-.19c.05,0,.14,0,.29.06a6.24,6.24,0,0,0,.66.22,7,7,0,0,0,1,.22,9.28,9.28,0,0,0,1.06.1,3.42,3.42,0,0,0,1.87-.43,1.86,1.86,0,0,0,.55-.53,1.76,1.76,0,0,0,.28-.66,3.08,3.08,0,0,0,.08-.75,2,2,0,0,0-.47-1,4.74,4.74,0,0,0-1.37-1.16c-.73-.43-1.36-.82-1.89-1.19a9,9,0,0,1-1.31-1.1,3.94,3.94,0,0,1-.76-1.13,3.11,3.11,0,0,1-.25-1.28,3.62,3.62,0,0,1,.33-1.52,3.93,3.93,0,0,1,.94-1.27,4.54,4.54,0,0,1,1.41-.87,5.08,5.08,0,0,1,1.82-.32,9.38,9.38,0,0,1,1.66.13,6.29,6.29,0,0,1,1.11.3.5.5,0,0,1,.27.17.32.32,0,0,1,0,.22l-.26,1.24a.46.46,0,0,1-.12.29q-.09.07-.3,0l-.64-.18-.72-.15c-.25,0-.48-.06-.71-.08a3.92,3.92,0,0,0-.61,0,2.47,2.47,0,0,0-1.53.71,2.08,2.08,0,0,0-.43,1.35,1.8,1.8,0,0,0,.5,1.08,6.15,6.15,0,0,0,1.48,1.17q1.22.74,2,1.32a7.83,7.83,0,0,1,1.24,1.12,3.31,3.31,0,0,1,.64,1.08,3.7,3.7,0,0,1,.18,1.18A4.07,4.07,0,0,1,129.71,244.9Z"/><path d="M141.65,241.06a.29.29,0,0,1-.09.23.29.29,0,0,1-.19.08H135a3.48,3.48,0,0,0,.81,2.12,2.45,2.45,0,0,0,2,.83,7.45,7.45,0,0,0,1.46-.17,4.48,4.48,0,0,0,1.49-.57c.1-.05.15,0,.18,0a.87.87,0,0,1,0,.25v1.34a.55.55,0,0,1-.06.28.79.79,0,0,1-.23.19,4.79,4.79,0,0,1-1.37.45,9.51,9.51,0,0,1-1.6.13A4.52,4.52,0,0,1,134,244.8a6.41,6.41,0,0,1-1.24-4.25,7.86,7.86,0,0,1,.28-2.05,5.64,5.64,0,0,1,.82-1.81,4.22,4.22,0,0,1,1.41-1.28,4.05,4.05,0,0,1,2-.48,4.15,4.15,0,0,1,2,.44,3.9,3.9,0,0,1,1.35,1.2,5,5,0,0,1,.75,1.77,9.28,9.28,0,0,1,.24,2.16c0,.09,0,.19,0,.31S141.65,241,141.65,241.06Zm-4.25-4.27a2,2,0,0,0-.94.23,2.69,2.69,0,0,0-.7.6,3.22,3.22,0,0,0-.47.86,4.8,4.8,0,0,0-.26,1h4.44a3.48,3.48,0,0,0-.12-.86,3.31,3.31,0,0,0-.38-.86,2.27,2.27,0,0,0-.64-.67A1.59,1.59,0,0,0,137.4,236.79Z"/><path d="M152.24,244.46a4.73,4.73,0,0,1-1.66,1.33,5.64,5.64,0,0,1-4.39,0,4.42,4.42,0,0,1-1.59-1.23,5.11,5.11,0,0,1-1-1.8,7.69,7.69,0,0,1,0-4.39,5.11,5.11,0,0,1,1-1.8,4.54,4.54,0,0,1,1.58-1.21,5.05,5.05,0,0,1,2.2-.44,5.12,5.12,0,0,1,2.2.44,4.67,4.67,0,0,1,1.59,1.21,5.45,5.45,0,0,1,1,1.8,7.63,7.63,0,0,1,0,4.34A5.42,5.42,0,0,1,152.24,244.46Zm-3.86-7.63a2.52,2.52,0,0,0-1.31.33,2.74,2.74,0,0,0-.9.86,4.34,4.34,0,0,0-.53,1.2,5.67,5.67,0,0,0-.17,1.35,5.55,5.55,0,0,0,.17,1.35,4.47,4.47,0,0,0,.53,1.22,2.68,2.68,0,0,0,.9.87,2.77,2.77,0,0,0,2.62,0,2.68,2.68,0,0,0,.9-.87,4.18,4.18,0,0,0,.53-1.22,5.37,5.37,0,0,0,0-2.68,4.06,4.06,0,0,0-.53-1.2,2.68,2.68,0,0,0-.9-.87A2.41,2.41,0,0,0,148.38,236.83Z"/><path d="M162.63,245.93a.31.31,0,0,1-.17-.05.12.12,0,0,1,0-.14V245a3.41,3.41,0,0,1-1.24.95,3.62,3.62,0,0,1-1.52.33,3.51,3.51,0,0,1-2.82-1.1,4.81,4.81,0,0,1-.93-3.17v-6.5a.34.34,0,0,1,.07-.19.23.23,0,0,1,.17-.08h1.59a.22.22,0,0,1,.17.09.34.34,0,0,1,.08.2v6.17a3.37,3.37,0,0,0,.48,2.06,1.67,1.67,0,0,0,1.4.6,2.18,2.18,0,0,0,1.74-.8,3.52,3.52,0,0,0,.69-2.36v-5.69a.28.28,0,0,1,.07-.19.21.21,0,0,1,.16-.08h1.61a.2.2,0,0,1,.17.1.44.44,0,0,1,.07.21v7.92c0,.4,0,.79,0,1.18s0,.74,0,1.07c0,.17-.07.25-.21.25Z"/><path d="M167.6,246a.2.2,0,0,1-.22-.23v-15.3a.24.24,0,0,1,.07-.16.22.22,0,0,1,.17-.07h1.63a.24.24,0,0,1,.23.23v15.3a.24.24,0,0,1-.23.23Z"/><path d="M271.14,243.32a6.14,6.14,0,0,1-1.19.74,8.7,8.7,0,0,1-1.41.51,11.33,11.33,0,0,1-1.58.31,12.56,12.56,0,0,1-1.61.11H263c-.22,0-.36,0-.4-.08s-.07-.17-.07-.37V230.86c0-.25,0-.39.07-.44a.8.8,0,0,1,.43-.07h3.3c2.53,0,4.4.72,5.63,2.14a6.06,6.06,0,0,1,1.22,2.16,10,10,0,0,1,.39,3,8.23,8.23,0,0,1-.63,3.28A6.08,6.08,0,0,1,271.14,243.32Zm-.86-9.38a4.84,4.84,0,0,0-4-1.53h-1.52v10.5h.87a7.6,7.6,0,0,0,2.12-.28,4.93,4.93,0,0,0,1.75-.9,4.44,4.44,0,0,0,1.35-1.7,6,6,0,0,0,.47-2.47,7.62,7.62,0,0,0-.25-2.07A4,4,0,0,0,270.28,233.94Z"/><path d="M282.38,245a.36.36,0,0,1-.18,0,.21.21,0,0,1,0-.14v-.88a3,3,0,0,1-1.23,1,3.56,3.56,0,0,1-1.5.34,4.93,4.93,0,0,1-1.47-.21,3.16,3.16,0,0,1-1.14-.64,3,3,0,0,1-.75-1.06,3.71,3.71,0,0,1-.27-1.47,3.9,3.9,0,0,1,.35-1.73,3,3,0,0,1,1.09-1.25,5.48,5.48,0,0,1,1.91-.73,13.47,13.47,0,0,1,2.82-.25,3.63,3.63,0,0,0-.08-.73,1.94,1.94,0,0,0-.26-.66,1.39,1.39,0,0,0-.51-.48,1.77,1.77,0,0,0-.84-.18,4.9,4.9,0,0,0-1.58.23,5.76,5.76,0,0,0-1.33.62c-.21.13-.35.19-.42.17s-.11-.08-.11-.21v-1.47a1,1,0,0,0,0-.17.26.26,0,0,1,0-.14.94.94,0,0,1,.3-.22,8.16,8.16,0,0,1,1.34-.54,6,6,0,0,1,1.74-.22,3.88,3.88,0,0,1,2.9,1,4.09,4.09,0,0,1,.94,3v4.6c0,.36,0,.74,0,1.13a9.84,9.84,0,0,0,.07,1c0,.21,0,.31-.21.31Zm-3.44-4.66a1.69,1.69,0,0,0-.93,1.57,1.37,1.37,0,0,0,.43,1.11,1.65,1.65,0,0,0,1.14.37,2.18,2.18,0,0,0,1.78-.82A4,4,0,0,0,282,240v-.21A6.68,6.68,0,0,0,278.94,240.31Z"/><path d="M299.73,245a.21.21,0,0,1-.17-.09.24.24,0,0,1-.08-.18V238a2.43,2.43,0,0,0-.43-1.48,1.46,1.46,0,0,0-1.24-.58,2.19,2.19,0,0,0-1,.25,2.32,2.32,0,0,0-.77.66,3.19,3.19,0,0,0-.47,1,4.62,4.62,0,0,0-.17,1.26v5.63c0,.17-.07.25-.23.25h-1.61a.24.24,0,0,1-.18-.09.27.27,0,0,1-.07-.18V238c0-1.37-.57-2.06-1.71-2.06a2.2,2.2,0,0,0-1.7.66,2.58,2.58,0,0,0-.61,1.83v6.31c0,.17-.08.25-.23.25H287.4a.19.19,0,0,1-.16-.09.27.27,0,0,1-.07-.18V237c0-.49,0-1,0-1.41s0-.81-.06-1.07.07-.25.28-.25H289c.11,0,.17,0,.17.15l0,.69a3.15,3.15,0,0,1,1.07-.76,3.36,3.36,0,0,1,1.43-.32,3.74,3.74,0,0,1,1.85.47,2.63,2.63,0,0,1,1.2,1.38,3,3,0,0,1,1.32-1.39,3.89,3.89,0,0,1,1.87-.46,3.43,3.43,0,0,1,3.66,3.73v7a.27.27,0,0,1-.06.17.23.23,0,0,1-.17.08Z"/><path d="M307,247.4a2.64,2.64,0,0,1-1.75.58,5.9,5.9,0,0,1-.74,0,1.81,1.81,0,0,1-.58-.16.4.4,0,0,1-.15-.1.24.24,0,0,1,0-.19l.11-1.28c0-.17.08-.22.22-.17a2.82,2.82,0,0,0,.54.1l.47,0a1.25,1.25,0,0,0,.52-.09.88.88,0,0,0,.31-.25l.17-.33.22-.47c.08-.18.15-.36.22-.56s.14-.4.19-.59l-3.32-9.43c-.07-.16,0-.23.15-.23h1.81c.13,0,.21,0,.23.09l2.16,6.44,2.19-6.44c0-.06.1-.09.23-.09H312c.17,0,.22.07.15.23l-3.94,11A4.69,4.69,0,0,1,307,247.4Z"/><path d="M319.59,245a.36.36,0,0,1-.18,0,.21.21,0,0,1,0-.14v-.88a3,3,0,0,1-1.23,1,3.56,3.56,0,0,1-1.5.34,4.93,4.93,0,0,1-1.47-.21,3.16,3.16,0,0,1-1.14-.64,3,3,0,0,1-.75-1.06,3.71,3.71,0,0,1-.27-1.47,3.9,3.9,0,0,1,.35-1.73,3,3,0,0,1,1.09-1.25,5.46,5.46,0,0,1,1.92-.73,13.3,13.3,0,0,1,2.81-.25,3.63,3.63,0,0,0-.08-.73,1.94,1.94,0,0,0-.26-.66,1.31,1.31,0,0,0-.51-.48,1.74,1.74,0,0,0-.84-.18,4.9,4.9,0,0,0-1.58.23,5.76,5.76,0,0,0-1.33.62c-.21.13-.35.19-.42.17s-.1-.08-.1-.21v-1.47c0-.06,0-.11,0-.17a.16.16,0,0,1,0-.14.77.77,0,0,1,.29-.22,8.94,8.94,0,0,1,1.34-.54,6,6,0,0,1,1.74-.22,3.88,3.88,0,0,1,2.9,1,4.09,4.09,0,0,1,.95,3v4.6c0,.36,0,.74,0,1.13a7.89,7.89,0,0,0,.06,1c0,.21,0,.31-.21.31Zm-3.44-4.66a1.69,1.69,0,0,0-.93,1.57,1.37,1.37,0,0,0,.43,1.11,1.65,1.65,0,0,0,1.14.37,2.18,2.18,0,0,0,1.78-.82,4,4,0,0,0,.67-2.54v-.21A6.68,6.68,0,0,0,316.15,240.31Z"/><path d="M331,245a.22.22,0,0,1-.17-.09.32.32,0,0,1-.06-.18v-6.17a3.58,3.58,0,0,0-.44-2,1.55,1.55,0,0,0-1.37-.62,2.37,2.37,0,0,0-1.89.7,3.06,3.06,0,0,0-.61,2v6.08c0,.17-.08.25-.24.25h-1.61a.19.19,0,0,1-.16-.09.27.27,0,0,1-.07-.18V237c0-.49,0-1,0-1.41s0-.81-.05-1.07.07-.25.27-.25h1.54c.14,0,.2,0,.17.15l0,.71a4.74,4.74,0,0,1,1.17-.8,3.39,3.39,0,0,1,1.57-.34,3.61,3.61,0,0,1,2.84,1.1,4.58,4.58,0,0,1,1,3.17v6.49c0,.17-.07.25-.23.25Z"/><path d="M339.75,248a11.25,11.25,0,0,1-1.53-.11,7.25,7.25,0,0,1-1.49-.38,1.46,1.46,0,0,1-.25-.15.28.28,0,0,1-.06-.2l.09-1.57c0-.24.16-.31.39-.19a6,6,0,0,0,1.43.49,6.87,6.87,0,0,0,1.44.17,2.9,2.9,0,0,0,2-.66,2.48,2.48,0,0,0,.81-1.81,3.31,3.31,0,0,1-1.18.82,3.64,3.64,0,0,1-1.34.27,4.38,4.38,0,0,1-1.81-.38,4.28,4.28,0,0,1-1.44-1.05,4.87,4.87,0,0,1-.94-1.6,6.06,6.06,0,0,1-.34-2,6.54,6.54,0,0,1,1.16-4.25A4.07,4.07,0,0,1,340,234a3.47,3.47,0,0,1,.78.1,5,5,0,0,1,.77.25,5.43,5.43,0,0,1,.68.36,3,3,0,0,1,.54.44l0-.68a.39.39,0,0,1,0-.21s.11-.06.24-.06h1.53c.15,0,.23.09.23.29v8a5.89,5.89,0,0,1-1.28,4.06A4.72,4.72,0,0,1,339.75,248Zm.49-12.11a2.16,2.16,0,0,0-1.87.89,4.81,4.81,0,0,0-.65,2.83,4.17,4.17,0,0,0,.19,1.32,2.8,2.8,0,0,0,.54,1,2.24,2.24,0,0,0,.77.61,2,2,0,0,0,.92.22,2.26,2.26,0,0,0,1-.22,2.23,2.23,0,0,0,.82-.62,3,3,0,0,0,.55-1,3.93,3.93,0,0,0,.21-1.34,4.86,4.86,0,0,0-.66-2.72A2.11,2.11,0,0,0,340.24,235.89Z"/><path d="M287.37,190.56a1.16,1.16,0,0,1-.51.27,40.5,40.5,0,0,1-4.65.86q-2.71.38-5.66.6t-5.85.27c-1.95,0-3.72,0-5.34-.05a4.66,4.66,0,0,1-2.59-.84,2.93,2.93,0,0,1-1-2.47V173.54a3.27,3.27,0,0,1,.72-2.42,3.69,3.69,0,0,1,2.59-.7h17.4c.46,0,.69.22.69.65v3.41a.68.68,0,0,1-.2.46.64.64,0,0,1-.49.23H268.38c-.6,0-.89.28-.89.84v10.37a1.57,1.57,0,0,0,.27,1.07,2,2,0,0,0,1.21.32c1,.06,2.27.08,3.65,0s2.85-.1,4.38-.2,3.06-.25,4.59-.45,3-.42,4.33-.69a1.34,1.34,0,0,1,.69,0,.61.61,0,0,1,.39.5l.55,2.81A.77.77,0,0,1,287.37,190.56Zm7.56,23.05a3.76,3.76,0,0,1-2.69.79H270.45a4.19,4.19,0,0,1-3-.79,3.86,3.86,0,0,1-.76-2.72V201a3.83,3.83,0,0,1,.81-2.72,3.63,3.63,0,0,1,2.69-.84H292a3,3,0,0,1,3.76,3.61v9.88A3.6,3.6,0,0,1,294.93,213.61Zm-4.81-10.92a.87.87,0,0,0-.13-.57.77.77,0,0,0-.52-.12H273a.88.88,0,0,0-.52.1c-.08.06-.12.23-.12.49v6.62q0,.45.12.54a.88.88,0,0,0,.52.1h16.5a.86.86,0,0,0,.52-.1c.08-.06.13-.24.13-.54Zm12.77-18.13a.71.71,0,0,1-.47.19H295.7v9.59a.57.57,0,0,1-.64.64h-4.4c-.43,0-.64-.23-.64-.69v-25.4a.56.56,0,0,1,.64-.64h4.4a.57.57,0,0,1,.64.64v11.17h6.72a.8.8,0,0,1,.47.17.52.52,0,0,1,.22.42v3.46A.59.59,0,0,1,302.89,184.56Z"/><path d="M331,181.34a11.64,11.64,0,0,1-.89,4.57,10.58,10.58,0,0,1-2.5,3.61,11.27,11.27,0,0,1-3.83,2.35,13.72,13.72,0,0,1-4.89.84,13.32,13.32,0,0,1-4.84-.84,10.92,10.92,0,0,1-3.73-2.35,10.38,10.38,0,0,1-2.42-3.61,11.81,11.81,0,0,1-.87-4.57,11.56,11.56,0,0,1,.87-4.47,10.83,10.83,0,0,1,2.42-3.65,11.15,11.15,0,0,1,3.73-2.45,12.72,12.72,0,0,1,4.84-.89,13.09,13.09,0,0,1,4.89.89,11.49,11.49,0,0,1,3.83,2.45,11,11,0,0,1,2.5,3.65A11.4,11.4,0,0,1,331,181.34Zm-5.64.1a6.36,6.36,0,0,0-1.77-4.72,6.44,6.44,0,0,0-4.7-1.75,6.06,6.06,0,0,0-6.37,6.47,6.41,6.41,0,0,0,1.78,4.75,6.21,6.21,0,0,0,4.59,1.77,6.37,6.37,0,0,0,4.7-1.77A6.45,6.45,0,0,0,325.39,181.44Zm17.25,24.26a7,7,0,0,1-1.11,3.83,9.53,9.53,0,0,1-3.09,3,16.52,16.52,0,0,1-4.7,1.93,23.8,23.8,0,0,1-5.87.69,24.69,24.69,0,0,1-6.11-.69,15.55,15.55,0,0,1-4.59-1.93,9,9,0,0,1-2.92-3,7.56,7.56,0,0,1-1-3.86,7.43,7.43,0,0,1,1-3.8,9.08,9.08,0,0,1,2.92-3,15.55,15.55,0,0,1,4.59-1.92,26.53,26.53,0,0,1,12,0,16.21,16.21,0,0,1,4.7,1.9,9.79,9.79,0,0,1,3.09,3A7,7,0,0,1,342.64,205.7Zm-5.88.15a3.46,3.46,0,0,0-.72-2.17,5.7,5.7,0,0,0-1.92-1.58,10.5,10.5,0,0,0-2.82-1,17.84,17.84,0,0,0-3.43-.32,13.56,13.56,0,0,0-6.38,1.29,4,4,0,0,0-2.42,3.75,3.47,3.47,0,0,0,.64,2.08,5,5,0,0,0,1.83,1.48,11.15,11.15,0,0,0,2.79.91,17.64,17.64,0,0,0,3.54.32,17.08,17.08,0,0,0,3.43-.32,11.67,11.67,0,0,0,2.82-.91,5.72,5.72,0,0,0,1.92-1.48A3.23,3.23,0,0,0,336.76,205.85Zm12.57-20.18a.51.51,0,0,1,.23.42v3.46a.59.59,0,0,1-.23.44.69.69,0,0,1-.47.2h-6.72v4.74a.69.69,0,0,1-.19.47.58.58,0,0,1-.45.22h-4.4a.57.57,0,0,1-.44-.22.77.77,0,0,1-.2-.52v-26a.57.57,0,0,1,.64-.64h4.4a.56.56,0,0,1,.64.64v6.92h6.72a.75.75,0,0,1,.47.17.53.53,0,0,1,.23.42v3.46a.66.66,0,0,1-.23.47.63.63,0,0,1-.47.22h-6.72v4.94h6.72A.71.71,0,0,1,349.33,185.67Z"/><polygon points="218.38 180.98 231.08 193.68 218.38 206.37 218.38 180.98"/><path class="cls-26" d="M58.32,51.84h578a17.6,17.6,0,0,1,17.6,17.6v56.84a0,0,0,0,1,0,0H40.73a0,0,0,0,1,0,0V69.44A17.6,17.6,0,0,1,58.32,51.84Z"/><path class="cls-26" d="M40.73,374.31H653.91a0,0,0,0,1,0,0v56.32a17.53,17.53,0,0,1-17.53,17.53H58.25a17.53,17.53,0,0,1-17.53-17.53V374.31A0,0,0,0,1,40.73,374.31Z"/><path d="M127.45,91.86a3.93,3.93,0,0,1-3.92-4.25V81.93a4.53,4.53,0,0,1,4.16-4.48h2.14a4.39,4.39,0,0,1,4.06,4.48v5.85a3.94,3.94,0,0,1-3.78,4.08Zm1.69-2.49a2.1,2.1,0,0,0,2-2.09V82.17a2.08,2.08,0,0,0-2-2h-.76a2.13,2.13,0,0,0-2.07,1.91v5.38a1.89,1.89,0,0,0,1.83,1.86Zm12.25,7h-3.33V89.72H135V86.94h3.06V84.47H135v-2.8h3.06V76.43h3.33Z"/><path d="M154.61,77.8V80h-1.43a4.19,4.19,0,0,1,.55,2.19v2.09a3.46,3.46,0,0,1-3.58,3.44h-2.21c-1.71,0-3.11-1.14-3.11-3.4V82.2a3.64,3.64,0,0,1,.69-2.19h-1.76V77.8h3.87V76.4h3.3v1.4ZM151,82.41c0-.78-.31-1.4-1.1-1.4h-1.09c-.78,0-1.19.62-1.19,1.4v1.66a1.08,1.08,0,0,0,1.24,1.19h.9A1.15,1.15,0,0,0,151,84Zm8.45,7.27a2.63,2.63,0,0,1,2.78,2.44v1.95a2.37,2.37,0,0,1-2.54,2.3h-9.22a2.8,2.8,0,0,1-2.61-2.28v-2c.26-1.71,2.26-2.44,3.28-2.44Zm-7.34,2.46c-.92,0-1.07.38-1.23.69l0,.62c.29.64.62.62,1.26.62h6.34c.55,0,1-.17,1-.62V93a1,1,0,0,0-1-.86ZM162.28,76.4V87.94h-2.71v-4h-1.76v4h-2.7V76.4h2.7v5.25h1.76V76.4Z"/><path d="M174.57,95.29h-2.09V91.71a8.94,8.94,0,0,1-5,1.85,16.33,16.33,0,0,1-3,0V91.66c3.08.61,7.15-.88,8-1.21V83.52h2.12Zm-5.81-11.46a1.84,1.84,0,0,1,1.9,1.91v1.9a1.84,1.84,0,0,1-2.06,1.91h-1.67a1.85,1.85,0,0,1-2-1.76V85.74a1.9,1.9,0,0,1,2-1.91Zm.21,2.28a.79.79,0,0,0-.81-.8h-.6a.85.85,0,0,0-.88.8v1.16a.85.85,0,0,0,.88.81h.6a.79.79,0,0,0,.81-.81Z"/><path d="M187,77.21v9.5H177v-9.5H180v2.61h3.89V77.21ZM178.4,91.38h10.78V90.29H178.4V88.37h14.08V93.5H181.42v.9h11.06v2.23H178.4Zm5.53-7.09v-2H180v2Zm11.3-.91H192.5v3.71h-3V76.38h3v4.2h2.73Z"/><path d="M203.83,80.91c-.1,1.43-.17,6.89,3.75,8.22v2.75a8.8,8.8,0,0,1-2.23-.85,6.23,6.23,0,0,1-3.09-3.49,6,6,0,0,1-3.11,3.58,7.84,7.84,0,0,1-2.23.76V89.13c3.91-1.33,3.75-6.79,3.65-8.22h-3.68V78.26h10.73v2.65Zm11.91,2.16v3.07h-3V96.39h-3.3V76.66h3.3v6.41Z"/><path d="M235,87.44h-7.62v2h6v2.25a10.47,10.47,0,0,1-.52,3,13.65,13.65,0,0,1-.48,1.28h-2.92a9.21,9.21,0,0,0,.93-2.7,6.7,6.7,0,0,0,.09-1.14H219V89.44h5.35v-2h-7.18V84.78h11.78a17.56,17.56,0,0,0,.81-3.65,11.85,11.85,0,0,0,.09-1.52h-10.7V76.88H233v2.49a28.29,28.29,0,0,1-1,5.41h3Z"/><path class="cls-27" d="M104.67,79.06c.18-.18.44-.33.51-.55s-.2-.37-.36-.52-.65-.47-.94-.74-.12-.36.16-.42a1,1,0,0,1,1.19.56l.72,1.28a1.1,1.1,0,0,0,1,.54,5.65,5.65,0,0,1,1.06.2c.25,0,.49.13.74.16.72.08,1,.36.88,1a1,1,0,0,1-1.24.83c-.43-.13-.89.63-1.31.44s-1-.42-1.16.06c-1,3.56-1.06-.83-1.46-1.2a8.2,8.2,0,0,1-.88-1,2.29,2.29,0,0,0-2.51-.91L98,79.51a2.53,2.53,0,0,0-1.41,1c-.38.48-.73,1-1.1,1.46a4.31,4.31,0,0,0-.88,2.56c0,.43-.1.86-.11,1.29a4.94,4.94,0,0,0,1.73,4.23,3.46,3.46,0,0,0,3.2.79,1.82,1.82,0,0,1,2.29,1.32,17.86,17.86,0,0,1,.72,3,12.16,12.16,0,0,1-.15,2.07,3.25,3.25,0,0,0,.09,1.08c.29.93.63,1.84,1,2.76a6.67,6.67,0,0,0,.29.74,1,1,0,0,0,1.44.66,7.24,7.24,0,0,0,3.76-2.71c.29-.4-1.71-10.17,4-9.77.12,0,.17-.17.25-.26a1.21,1.21,0,0,0,.1-1.86c-.16-.23-.34-.45-.48-.69a.6.6,0,0,1,.31-1,1.57,1.57,0,0,0,1-1.15,9.24,9.24,0,0,1,.29-.89c.11-.3.35-.35.56-.14a1.53,1.53,0,0,1,.49.8c.06,1.44.13,2.89,0,4.34a16.92,16.92,0,0,1-1.84,6.67,19.52,19.52,0,0,1-14.62,11,19.31,19.31,0,0,1-13.36-2.4c-.17-.1-.39-.25-.43-.42a10.05,10.05,0,0,1-.27-2c0-.72.58-1.14,1.1-1.54s1.15-.79,1.69-1.22a5.07,5.07,0,0,0,1.74-5.57,1.6,1.6,0,0,0-.78-1c-.5-.26-1-.56-1.5-.78A5,5,0,0,1,85,90.21a5.3,5.3,0,0,0-1.82-1.67C82.09,88,81,87.34,79.9,86.86a2.73,2.73,0,0,1-1.15-4.39c.68-.85,1.46-1.6,2.2-2.39.39-.43.8-.84,1.16-1.28a3,3,0,0,1,1.61-1.11,12.76,12.76,0,0,0,1.8-.76A2.34,2.34,0,0,0,87,74.73c0-.29.06-.59.1-.88a2.24,2.24,0,0,0-.28-1.49,2.13,2.13,0,0,1-.31-1.83,1,1,0,0,1,.44-.56,4,4,0,0,1,2.24-.41c.66.06.78.26.7.91s-.19,1.47-.23,2.21.08.74.69.63c.88-.15,1.76-.37,2.64-.57s2-.44,3-.69A3.39,3.39,0,0,0,98.35,70a1.14,1.14,0,0,0-.2-1.14c-.35-.5-.75-1-1.12-1.45,2.42-.65,10.86,3.1,12.26,5.49a2.16,2.16,0,0,1-1.46-.19c-1.09-.49-2.18-1-3.26-1.51a1.18,1.18,0,0,0-1,0c-.53.23-1.07.44-1.6.66-.76.3-.92.67-.62,1.43s.18.65-.29,1.14.6,2.18,1.24,2.59c.42.27.86.53,1.3.77s1.11.46.9,1.29Z"/><path class="cls-27" d="M75.67,85.69a5.73,5.73,0,0,1,1.41,2.61c.34,1.29.72,2.57.94,3.88a6,6,0,0,0,1.64,3.19,4,4,0,0,1,1.15,2.34,9.35,9.35,0,0,0,2.44,4.86,5.44,5.44,0,0,1,.39.55A19.44,19.44,0,0,1,75.67,85.69Z"/><path class="cls-28" d="M92.4,83.24c-1.18-.88-2-1.76-3.3-1.53-1.08.2-1.82,2-1.45,3.05.58,1.65,2.74,2.21,4.23,2A1.84,1.84,0,0,0,93.46,84C93.2,83.57,92.58,83.48,92.4,83.24Z"/><path class="cls-28" d="M94.21,79.78c-.52-.45-.88-1.21-1.56-1.24a1.65,1.65,0,0,0-1.45,2.11,3,3,0,0,0,2.85,1.9,1.22,1.22,0,0,0,1.06-1.83c-.19-.38-.37-.39-.61-.75C94.48,80,94.23,79.77,94.21,79.78Z"/><path class="cls-28" d="M94.81,79.18a7.13,7.13,0,0,0,1.16.45,1,1,0,0,0,1.25-1.31A2.5,2.5,0,0,0,95,76.62c-.79,0-1.33.28-1.25,1.07a2,2,0,0,0,.72,1.37S94.82,79.16,94.81,79.18Z"/><path class="cls-28" d="M99.22,75.89a5,5,0,0,0-.51-.27.83.83,0,0,0-1.2.92,1.9,1.9,0,0,0,1.3,1.57.83.83,0,0,0,1.12-1A2.13,2.13,0,0,0,99.22,75.89Z"/><path class="cls-28" d="M109.28,77.37a1.55,1.55,0,0,0,1,.65.63.63,0,0,0,.74-.56,1.53,1.53,0,0,0-1.16-1.56c-.56-.11-.95.4-.76,1A4.41,4.41,0,0,0,109.28,77.37Z"/><path class="cls-28" d="M116.86,87.39a21.32,21.32,0,1,1-21.14-21.5A21.34,21.34,0,0,1,116.86,87.39Zm-12.19-8.33-.19-.07c.21-.83-.39-1-.9-1.29s-.88-.5-1.3-.77c-2.23-1.75-1.55.36-2.51,1-.31.2-.2.14-.77.15-.29,0-.46-.19-.75-.27s-.68-.89-.74-1.28c-.21-1.43,0-1.51,1.45-1.43.82,0,1.5.32,2.08-.77.47-.49.53-.51.29-1.14a1.11,1.11,0,0,1,.61-1.43c.52-.21,1-.41,1.55-.63a1.31,1.31,0,0,1,1.08,0c1.08.52,2.17,1,3.26,1.51a2.16,2.16,0,0,0,1.46.19c-1.4-2.39-9.84-6.14-12.26-5.49.37.48.77,1,1.12,1.45a1.14,1.14,0,0,1,.2,1.14A3.39,3.39,0,0,1,96,72.05c-1,.25-2,.47-3,.69s-1.76.42-2.64.57c-.61.11-.73,0-.69-.63s.14-1.48.23-2.21,0-.85-.7-.91a4,4,0,0,0-2.24.41,1,1,0,0,0-.44.56,2.13,2.13,0,0,0,.31,1.83,2.24,2.24,0,0,1,.28,1.49c0,.29-.08.59-.1.88a2.34,2.34,0,0,1-1.45,2.2,12.76,12.76,0,0,1-1.8.76,3,3,0,0,0-1.61,1.11c-.36.44-.77.85-1.16,1.28-.74.79-1.52,1.54-2.2,2.39a2.73,2.73,0,0,0,1.15,4.39c1.09.47,2.13,1.07,3.18,1.63A5.53,5.53,0,0,1,85,90.21,5,5,0,0,0,87.07,92c.51.22,1,.52,1.5.78a1.6,1.6,0,0,1,.78,1,5.07,5.07,0,0,1-1.74,5.57c-.54.43-1.14.8-1.69,1.22s-1.1.82-1.1,1.54a10.05,10.05,0,0,0,.27,2c0,.17.26.32.43.42a19.21,19.21,0,0,0,13.28,2.41,20.39,20.39,0,0,0,14-9.77,17.43,17.43,0,0,0,2.53-7.92c.08-1.45,0-2.9,0-4.34a1.53,1.53,0,0,0-.49-.8c-.21-.21-.45-.16-.56.14a9.24,9.24,0,0,0-.29.89,1.57,1.57,0,0,1-1,1.15.6.6,0,0,0-.31,1c.14.24.32.46.48.69a1.21,1.21,0,0,1-.1,1.86l-.25.26c-.88,1-3-.86-1.83,3.5a10,10,0,0,1-1,2.94,11.87,11.87,0,0,0-.67,1.87,5.61,5.61,0,0,1-.52,1.46,7.24,7.24,0,0,1-3.76,2.71,1,1,0,0,1-1.44-.66,6.67,6.67,0,0,1-.29-.74c-.33-.92-.67-1.83-1-2.76a3.25,3.25,0,0,1-.09-1.08,12.16,12.16,0,0,0,.15-2.07,17.86,17.86,0,0,0-.72-3,1.82,1.82,0,0,0-2.29-1.32,3.46,3.46,0,0,1-3.2-.79,4.94,4.94,0,0,1-1.73-4.23c0-.43.1-.86.11-1.29A4.31,4.31,0,0,1,95.46,82c.37-.48.72-1,1.1-1.46a2.55,2.55,0,0,1,1.46-1,25,25,0,0,0,2.82-.64,2.31,2.31,0,0,1,2.75.84,8.2,8.2,0,0,0,.88,1c.36.33.34,1.46,1.12.54a1.31,1.31,0,0,1,1.53-.36h0a9.9,9.9,0,0,0,1.27.51,1,1,0,0,0,1.24-.83c.1-.62-.16-.9-.88-1-.25,0-.49-.11-.74-.16a5.65,5.65,0,0,0-1.06-.2,1.1,1.1,0,0,1-1-.54l-.72-1.28a1,1,0,0,0-1.19-.56c-.28.06-.39.21-.16.42s.64.48.94.74.4.4.36.52S104.85,78.88,104.67,79.06Zm-29,6.63a19.44,19.44,0,0,0,8,17.43,5.44,5.44,0,0,0-.39-.55,9.35,9.35,0,0,1-2.44-4.86,4,4,0,0,0-1.15-2.34A6,6,0,0,1,78,92.18c-.22-1.31-.6-2.59-.94-3.88A5.73,5.73,0,0,0,75.67,85.69Z"/><path d="M95.53,65.89a21.32,21.32,0,1,0,21.33,21.32A21.21,21.21,0,0,0,95.53,65.89Zm0,41.16a19.84,19.84,0,1,1,19.82-19.84A19.79,19.79,0,0,1,95.56,107.05Z"/><path d="M603.6,429.85a1.47,1.47,0,0,1-.19-.5q0-18.14,0-36.27v-.45h6.36v36.8c0,.14,0,.28,0,.42Z"/><path d="M499.16,392.63h4.26v37.22h-4.26Z"/><path d="M616.15,429.85V392.62h4.26v37.23Z"/><path d="M531.13,429.85c0-.22,0-.44,0-.65V392.63h4.19v.57q0,18,0,36.05a2.61,2.61,0,0,1-.14.6Z"/><path d="M558.84,429.85a2.38,2.38,0,0,1-.15-.55q0-18.07,0-36.13v-.54h4.2a3.93,3.93,0,0,1,.06.48v36.23a3,3,0,0,1-.09.51Z"/><path d="M569.49,429.85a1.68,1.68,0,0,1-.18-.5q0-18.14,0-36.27v-.45h4.27v.48q0,18.11,0,36.23a4.38,4.38,0,0,1,0,.51Z"/><path d="M578,429.85a1.68,1.68,0,0,1-.18-.5q0-18.14,0-36.27v-.45h4.26v36.71c0,.17,0,.34,0,.51Z"/><path d="M586.55,429.85a1.47,1.47,0,0,1-.19-.5q0-18.14,0-36.27v-.45h4.27v36.71a4.4,4.4,0,0,1,0,.51Z"/><path d="M592.94,429.85c-.07-.17-.21-.33-.21-.49q0-18.15,0-36.29v-.44h4.21a2.84,2.84,0,0,1,.05.42v36.38c0,.14,0,.28,0,.42Z"/><path d="M505.55,429.85c0-.22,0-.44,0-.65V392.62h2.15v37.23Z"/><path d="M611.89,429.85V392.62H614c0,.14,0,.29,0,.44q0,18.18,0,36.37c0,.14,0,.28,0,.42Z"/><path d="M512,429.85V392.62h2.11v.5q0,18.11,0,36.19a1.73,1.73,0,0,1-.21.54Z"/><path d="M522.6,429.85c0-.2,0-.41,0-.61V392.63h2.1v.49q0,18.09,0,36.18a2,2,0,0,1-.18.55Z"/><path d="M541.79,429.85c0-.2,0-.41,0-.61V392.62h2.09v.53q0,18.08,0,36.15a2.34,2.34,0,0,1-.14.55Z"/><path d="M546.05,429.85c0-.2,0-.41,0-.61V392.62h2.09v.53q0,18.08,0,36.15a2.34,2.34,0,0,1-.14.55Z"/><path d="M550.31,429.85c0-.2,0-.41,0-.61V392.62h2.09V429.3a3,3,0,0,1-.14.55Z"/></g></svg>