<svg xmlns="http://www.w3.org/2000/svg" xmlns:xlink="http://www.w3.org/1999/xlink" viewBox="0 0 694.64 500"><defs><style>.cls-1{fill:#fff;}.cls-2{opacity:0.5;}.cls-3{fill:url(#무제_그라디언트_136);}.cls-4{fill:#ff6a03;}.cls-5{fill:#ffe4c6;}.cls-6{fill:#dda285;}.cls-7{fill:#4879c1;}.cls-8{fill:#416cb1;}.cls-9{fill:#688c3f;}.cls-10{fill:#f7fffa;}.cls-11{fill:#447dce;}.cls-12{fill:#666;}.cls-13{fill:#ffe8b2;}.cls-14{fill:#a57c60;}.cls-15{fill:#dd8a5b;}.cls-16{fill:#ccc;}.cls-17{fill:#ee955f;}.cls-18{fill:#c39370;}.cls-19{fill:#62a57a;}.cls-20{fill:#4d4d4d;}.cls-21{fill:#fff380;}.cls-22{fill:#1a1a1a;}.cls-23{fill:#f4aa82;}.cls-24{fill:#603813;}.cls-25{fill:#333;}.cls-26{fill:#7ba04d;}.cls-27{fill:#456f41;}.cls-28{fill:#4c3725;}.cls-29{fill:#bdcf5f;}.cls-30{fill:#9c6;}.cls-31{fill:#3f8cb9;}.cls-32{fill:#9bcc60;}</style><linearGradient id="무제_그라디언트_136" x1="347.32" y1="351.41" x2="347.32" y2="121.61" gradientUnits="userSpaceOnUse"><stop offset="0.26" stop-color="#fff"/><stop offset="0.33" stop-color="#fdfbf1"/><stop offset="0.47" stop-color="#f7f1cb"/><stop offset="0.51" stop-color="#f5eebe"/><stop offset="0.55" stop-color="#f5eab0"/><stop offset="0.69" stop-color="#f4db83"/><stop offset="0.75" stop-color="#f4d571"/><stop offset="0.83" stop-color="#f1c567"/><stop offset="0.96" stop-color="#eb9c4d"/><stop offset="1" stop-color="#e98f45"/></linearGradient></defs><g id="레이어_3" data-name="레이어 3"><rect class="cls-1" x="40.73" y="125.19" width="613.18" height="249.96"/><g class="cls-2"><rect class="cls-3" x="40.73" y="126.28" width="613.18" height="248.7"/><circle class="cls-4" cx="481.06" cy="258.94" r="60.35"/><path class="cls-1" d="M420.26,241q-20,0-39.94,0c-7,0-11.53-3.44-11.93-9.23-.42-6,3.31-10,10.5-10.52,3.33-.22,2.59-2.52,3-4.1,3.4-12.9,16.91-18.65,28.23-11.86a17.33,17.33,0,0,1,8.14,10.88c.53,2.08,1,2.8,3.61,2.26,5.68-1.2,9,.75,11.53,6.18.86,1.87,1.57,2.63,3.43,1.42a3.66,3.66,0,0,1,.88-.45c5-1.61,8.21,2.81,12,3.63s8.42-2.2,12.46,1.16a9.63,9.63,0,0,1,3.19,4.93c1.29,4.58.55,5.67-4.2,5.68Q440.72,241.05,420.26,241Z"/><path class="cls-5" d="M370.06,245.64H348.17c-3.86,0-6.32-1.75-6.54-4.7s1.81-5.1,5.75-5.34c1.83-.12,1.42-1.29,1.65-2.09,1.87-6.56,9.27-9.48,15.47-6A8.89,8.89,0,0,1,369,233c.29,1.06.57,1.43,2,1.15,3.11-.61,4.95.38,6.32,3.14.47,1,.86,1.34,1.87.73a2,2,0,0,1,.49-.23c2.75-.82,4.5,1.42,6.59,1.84s4.61-1.12,6.82.59a4.93,4.93,0,0,1,1.76,2.51c.7,2.33.3,2.88-2.31,2.88C385,245.65,377.53,245.64,370.06,245.64Z"/><path class="cls-1" d="M532,212.7q14.61,0,29.22,0c5.15,0,8.44-2.52,8.73-6.76s-2.42-7.35-7.68-7.69c-2.43-.16-1.9-1.85-2.2-3-2.49-9.44-12.37-13.65-20.66-8.68a12.69,12.69,0,0,0-6,8c-.38,1.52-.76,2.05-2.64,1.65-4.15-.88-6.61.55-8.43,4.52-.63,1.38-1.15,1.93-2.51,1a2.69,2.69,0,0,0-.65-.34c-3.67-1.17-6,2.06-8.79,2.66s-6.17-1.61-9.12.85a7,7,0,0,0-2.33,3.61c-.95,3.35-.41,4.15,3.07,4.15Q517.08,212.72,532,212.7Z"/><path class="cls-6" d="M550.11,220.44h17.25c3,0,5-1.38,5.16-3.7s-1.43-4-4.54-4.22c-1.44-.08-1.12-1-1.3-1.64a8.26,8.26,0,0,0-12.2-4.75,7,7,0,0,0-3.52,4.36c-.23.83-.45,1.12-1.56.9-2.45-.48-3.9.3-5,2.48-.37.75-.68,1-1.48.57a1.88,1.88,0,0,0-.38-.18c-2.17-.65-3.55,1.13-5.2,1.45s-3.63-.88-5.38.47a3.84,3.84,0,0,0-1.38,2c-.56,1.83-.24,2.27,1.82,2.27Z"/><rect class="cls-7" x="40.73" y="259.35" width="613.18" height="96.61"/><polygon class="cls-8" points="653.91 355.96 40.73 355.96 40.73 311.91 653.91 276.88 653.91 355.96"/><path class="cls-9" d="M653.91,333.35H496.18c.86-1.77,1.23-3.75,2.66-5.07,12.09-11.18,26.26-19.41,44.06-22.66,7.83-1.44,15.39-3.9,23.19-5.41,6-1.17,12.35-1.36,18.45-2.39,5.93-1,11.6.57,17.37.64,10.49.12,21-.48,31.49-.81,4.16-.13,8.32-.6,12.46-.44a31.15,31.15,0,0,1,8,1.23v34.91"/><path class="cls-1" d="M508.46,174c-17.32-9.53-18.81,7.53-18.81,7.53,5.79-14.41,20.84-2.85,20.84-2.85l-.25-.72.2.41s2.49-18.81,16.77-12.69C527.21,165.71,513.94,154.53,508.46,174Z"/><path d="M518.61,162.53c4.55-.23,8.6,3.18,8.6,3.18-3.57-1.53-6.4-1.5-8.64-.6Z"/><path d="M494,172.8c-3.87,2.94-4.37,8.76-4.37,8.76,1.38-3.45,3.3-5.41,5.42-6.4Z"/><path class="cls-1" d="M541.25,153.92c-4.52-12.35-12.72-4.45-12.72-4.45,9.2-4.69,11.69,7.68,11.69,7.68l.19-.47-.08.29s9.47-8.34,13.95,1C554.28,157.94,552.52,146.54,541.25,153.92Z"/><path d="M551.36,152.59a9.37,9.37,0,0,1,2.92,5.35,7.3,7.3,0,0,0-4.07-4.08Z"/><path d="M534.55,147c-3.22-.21-6,2.48-6,2.48a7.43,7.43,0,0,1,5.51-.84Z"/><path class="cls-10" d="M514.44,289.83l119.74,1.51-7.76,18.88-91.93-1.16S540.27,304.55,514.44,289.83Z"/><polygon class="cls-11" points="514.44 289.83 634.18 291.34 633.53 292.93 517.25 291.46 514.44 289.83"/><polygon class="cls-10" points="612.59 272.26 612.65 267.95 616.9 268.01 616.96 263.75 612.7 263.7 612.72 262.45 607.65 262.38 607.63 263.64 603.38 263.58 603.33 267.83 607.58 267.89 607.52 272.2 555.08 271.53 555.01 277.48 621.09 278.32 621.17 272.37 612.59 272.26"/><rect class="cls-12" x="604.6" y="264.33" width="3.26" height="2.84" transform="translate(3.4 -7.63) rotate(0.72)"/><rect class="cls-12" x="608.51" y="264.38" width="3.26" height="2.84" transform="translate(3.4 -7.68) rotate(0.72)"/><rect class="cls-12" x="612.42" y="264.43" width="3.26" height="2.84" transform="translate(3.41 -7.73) rotate(0.72)"/><rect class="cls-12" x="556.58" y="272.86" width="4.74" height="2.27" transform="matrix(1, 0.01, -0.01, 1, 3.5, -7.04)"/><rect class="cls-12" x="562.48" y="272.93" width="4.74" height="2.27" transform="translate(3.51 -7.11) rotate(0.72)"/><rect class="cls-12" x="568.39" y="273.01" width="4.74" height="2.27" transform="translate(3.51 -7.18) rotate(0.72)"/><rect class="cls-12" x="592.81" y="273.32" width="4.74" height="2.27" transform="translate(3.51 -7.49) rotate(0.72)"/><rect class="cls-12" x="579.9" y="273.2" width="11.86" height="4.07" transform="translate(3.52 -7.37) rotate(0.72)"/><rect class="cls-12" x="612.01" y="273.58" width="7.59" height="2.94" transform="translate(3.52 -7.75) rotate(0.72)"/><rect class="cls-12" x="598.72" y="273.39" width="4.74" height="2.27" transform="matrix(1, 0.01, -0.01, 1, 3.51, -7.57)"/><rect class="cls-12" x="604.62" y="273.46" width="4.74" height="2.27" transform="translate(3.52 -7.64) rotate(0.72)"/><polygon class="cls-10" points="537.83 290.12 551.25 277.45 555.01 277.5 627.31 278.41 632.05 291.31 537.83 290.12"/><polygon class="cls-12" points="549.24 279.35 552.42 279.39 552.4 281.27 547.27 281.21 549.24 279.35"/><polygon class="cls-12" points="545.74 282.66 552.38 282.74 552.36 284.63 543.77 284.52 545.74 282.66"/><polygon class="cls-12" points="542.16 286.01 552.34 286.14 552.3 289.01 539.16 288.84 542.16 286.01"/><rect class="cls-12" x="554.43" y="279.42" width="1.89" height="1.89" transform="translate(3.58 -6.99) rotate(0.72)"/><rect class="cls-12" x="558.25" y="279.47" width="1.89" height="1.89" transform="translate(3.58 -7.04) rotate(0.72)"/><rect class="cls-12" x="562.08" y="279.52" width="1.89" height="1.89" transform="translate(3.59 -7.09) rotate(0.72)"/><rect class="cls-12" x="565.91" y="279.57" width="1.89" height="1.89" transform="translate(3.59 -7.13) rotate(0.72)"/><rect class="cls-12" x="569.73" y="279.62" width="1.89" height="1.89" transform="translate(3.59 -7.18) rotate(0.72)"/><rect class="cls-12" x="573.56" y="279.67" width="1.89" height="1.89" transform="translate(3.59 -7.23) rotate(0.72)"/><rect class="cls-12" x="577.38" y="279.71" width="1.89" height="1.89" transform="translate(3.59 -7.28) rotate(0.72)"/><rect class="cls-12" x="581.21" y="279.76" width="1.89" height="1.89" transform="translate(3.59 -7.33) rotate(0.72)"/><rect class="cls-12" x="585.03" y="279.81" width="1.89" height="1.89" transform="translate(3.59 -7.38) rotate(0.72)"/><rect class="cls-12" x="588.86" y="279.86" width="1.89" height="1.89" transform="translate(3.59 -7.42) rotate(0.72)"/><rect class="cls-12" x="592.69" y="279.91" width="1.89" height="1.89" transform="translate(3.59 -7.47) rotate(0.72)"/><rect class="cls-12" x="596.51" y="279.95" width="1.89" height="1.89" transform="translate(3.59 -7.52) rotate(0.72)"/><rect class="cls-12" x="600.34" y="280" width="1.89" height="1.89" transform="translate(3.59 -7.57) rotate(0.72)"/><rect class="cls-12" x="604.16" y="280.05" width="1.89" height="1.89" transform="translate(3.6 -7.62) rotate(0.72)"/><rect class="cls-12" x="607.99" y="280.1" width="1.89" height="1.89" transform="translate(3.6 -7.67) rotate(0.72)"/><rect class="cls-12" x="611.81" y="280.15" width="1.89" height="1.89" transform="translate(3.6 -7.71) rotate(0.72)"/><rect class="cls-12" x="615.64" y="280.2" width="1.89" height="1.89" transform="translate(3.6 -7.76) rotate(0.72)"/><rect class="cls-12" x="619.46" y="280.24" width="1.89" height="1.89" transform="translate(3.6 -7.81) rotate(0.72)"/><rect class="cls-12" x="554.39" y="282.78" width="1.89" height="1.89" transform="translate(3.63 -6.99) rotate(0.72)"/><rect class="cls-12" x="558.21" y="282.83" width="1.89" height="1.89" transform="translate(3.63 -7.04) rotate(0.72)"/><rect class="cls-12" x="562.04" y="282.88" width="1.89" height="1.89" transform="translate(3.63 -7.09) rotate(0.72)"/><rect class="cls-12" x="565.86" y="282.93" width="1.89" height="1.89" transform="translate(3.63 -7.13) rotate(0.72)"/><rect class="cls-12" x="569.69" y="282.97" width="1.89" height="1.89" transform="translate(3.63 -7.18) rotate(0.72)"/><rect class="cls-12" x="573.51" y="283.02" width="1.89" height="1.89" transform="translate(3.63 -7.23) rotate(0.72)"/><rect class="cls-12" x="577.34" y="283.07" width="1.89" height="1.89" transform="translate(3.63 -7.28) rotate(0.72)"/><rect class="cls-12" x="581.17" y="283.12" width="1.89" height="1.89" transform="translate(3.63 -7.33) rotate(0.72)"/><rect class="cls-12" x="584.99" y="283.17" width="1.89" height="1.89" transform="translate(3.63 -7.37) rotate(0.72)"/><rect class="cls-12" x="588.82" y="283.22" width="1.89" height="1.89" transform="translate(3.63 -7.42) rotate(0.72)"/><rect class="cls-12" x="592.64" y="283.26" width="1.89" height="1.89" transform="translate(3.64 -7.47) rotate(0.72)"/><rect class="cls-12" x="596.47" y="283.31" width="1.89" height="1.89" transform="translate(3.64 -7.52) rotate(0.72)"/><rect class="cls-12" x="600.29" y="283.36" width="1.89" height="1.89" transform="translate(3.64 -7.57) rotate(0.72)"/><rect class="cls-12" x="604.12" y="283.41" width="1.89" height="1.89" transform="translate(3.64 -7.62) rotate(0.72)"/><rect class="cls-12" x="607.95" y="283.46" width="1.89" height="1.89" transform="translate(3.64 -7.66) rotate(0.72)"/><rect class="cls-12" x="611.77" y="283.51" width="1.89" height="1.89" transform="translate(3.64 -7.71) rotate(0.72)"/><rect class="cls-12" x="615.6" y="283.55" width="1.89" height="1.89" transform="translate(3.64 -7.76) rotate(0.72)"/><rect class="cls-12" x="619.42" y="283.6" width="1.89" height="1.89" transform="translate(3.64 -7.81) rotate(0.72)"/><rect class="cls-12" x="554.34" y="286.17" width="1.89" height="2.87" transform="translate(3.68 -6.99) rotate(0.72)"/><rect class="cls-12" x="558.16" y="286.22" width="1.89" height="2.87" transform="translate(3.68 -7.04) rotate(0.72)"/><rect class="cls-12" x="561.99" y="286.27" width="1.89" height="2.87" transform="translate(3.68 -7.08) rotate(0.72)"/><rect class="cls-12" x="565.81" y="286.32" width="1.89" height="2.87" transform="translate(3.68 -7.13) rotate(0.72)"/><rect class="cls-12" x="569.64" y="286.37" width="1.89" height="2.87" transform="translate(3.68 -7.18) rotate(0.72)"/><rect class="cls-12" x="573.47" y="286.41" width="1.89" height="2.87" transform="translate(3.68 -7.23) rotate(0.72)"/><rect class="cls-12" x="577.29" y="286.46" width="1.89" height="2.87" transform="translate(3.68 -7.28) rotate(0.72)"/><rect class="cls-12" x="581.12" y="286.51" width="1.89" height="2.87" transform="translate(3.68 -7.33) rotate(0.72)"/><rect class="cls-12" x="584.94" y="286.56" width="1.89" height="2.87" transform="translate(3.68 -7.37) rotate(0.72)"/><rect class="cls-12" x="588.77" y="286.61" width="1.89" height="2.87" transform="translate(3.68 -7.42) rotate(0.72)"/><rect class="cls-12" x="592.59" y="286.66" width="1.89" height="2.87" transform="translate(3.68 -7.47) rotate(0.72)"/><rect class="cls-12" x="596.42" y="286.7" width="1.89" height="2.87" transform="translate(3.69 -7.52) rotate(0.72)"/><rect class="cls-12" x="600.25" y="286.75" width="1.89" height="2.87" transform="translate(3.69 -7.57) rotate(0.72)"/><rect class="cls-12" x="604.07" y="286.8" width="1.89" height="2.87" transform="translate(3.69 -7.62) rotate(0.72)"/><rect class="cls-12" x="607.9" y="286.85" width="1.89" height="2.87" transform="translate(3.69 -7.66) rotate(0.72)"/><rect class="cls-12" x="611.72" y="286.9" width="1.89" height="2.87" transform="translate(3.69 -7.71) rotate(0.72)"/><rect class="cls-12" x="615.55" y="286.95" width="1.89" height="2.87" transform="translate(3.69 -7.76) rotate(0.72)"/><rect class="cls-12" x="619.37" y="286.99" width="1.89" height="2.87" transform="translate(3.69 -7.81) rotate(0.72)"/><polygon class="cls-12" points="628.02 280.34 623.07 280.28 623.04 282.16 628.72 282.24 628.02 280.34"/><polygon class="cls-12" points="629.25 283.71 623.03 283.64 623 285.52 629.95 285.61 629.25 283.71"/><polygon class="cls-12" points="630.5 287.12 622.98 287.03 622.95 289.9 631.56 290.01 630.5 287.12"/><path class="cls-11" d="M535,307.53l92.34,1.17-1,1.52-91.93-1.16A2.14,2.14,0,0,0,535,307.53Z"/><polygon class="cls-12" points="525.53 292.65 527.1 293.86 529.47 293.89 529.49 292.7 525.53 292.65"/><polygon class="cls-12" points="631.51 293.99 630.93 295.17 628.55 295.14 628.57 293.95 631.51 293.99"/><rect class="cls-12" x="530.11" y="292.72" width="2.77" height="1.19" transform="translate(3.75 -6.69) rotate(0.72)"/><rect class="cls-12" x="533.48" y="292.76" width="1.2" height="1.2" transform="translate(3.75 -6.72) rotate(0.72)"/><rect class="cls-12" x="535.28" y="292.79" width="2.77" height="1.19" transform="translate(3.75 -6.75) rotate(0.72)"/><rect class="cls-12" x="538.65" y="292.82" width="1.2" height="1.2" transform="translate(3.75 -6.78) rotate(0.72)"/><rect class="cls-12" x="540.46" y="292.85" width="2.77" height="1.19" transform="translate(3.75 -6.82) rotate(0.72)"/><rect class="cls-12" x="543.83" y="292.89" width="1.2" height="1.2" transform="translate(3.75 -6.85) rotate(0.72)"/><rect class="cls-12" x="545.63" y="292.92" width="2.77" height="1.19" transform="translate(3.75 -6.88) rotate(0.72)"/><rect class="cls-12" x="549" y="292.95" width="1.2" height="1.2" transform="translate(3.75 -6.92) rotate(0.72)"/><rect class="cls-12" x="550.8" y="292.99" width="2.77" height="1.19" transform="translate(3.75 -6.95) rotate(0.72)"/><rect class="cls-12" x="554.17" y="293.02" width="1.2" height="1.2" transform="translate(3.75 -6.98) rotate(0.72)"/><rect class="cls-12" x="555.97" y="293.05" width="2.77" height="1.19" transform="translate(3.75 -7.01) rotate(0.72)"/><rect class="cls-12" x="559.34" y="293.08" width="1.2" height="1.2" transform="translate(3.75 -7.05) rotate(0.72)"/><rect class="cls-12" x="561.15" y="293.12" width="2.77" height="1.19" transform="translate(3.75 -7.08) rotate(0.72)"/><rect class="cls-12" x="564.52" y="293.15" width="1.2" height="1.2" transform="translate(3.75 -7.11) rotate(0.72)"/><rect class="cls-12" x="566.32" y="293.18" width="2.77" height="1.19" transform="translate(3.75 -7.14) rotate(0.72)"/><rect class="cls-12" x="569.69" y="293.21" width="1.2" height="1.2" transform="translate(3.75 -7.18) rotate(0.72)"/><rect class="cls-12" x="571.49" y="293.25" width="2.77" height="1.19" transform="translate(3.76 -7.21) rotate(0.72)"/><rect class="cls-12" x="574.86" y="293.28" width="1.2" height="1.2" transform="translate(3.76 -7.24) rotate(0.72)"/><rect class="cls-12" x="576.66" y="293.31" width="2.77" height="1.19" transform="translate(3.76 -7.27) rotate(0.72)"/><rect class="cls-12" x="580.03" y="293.34" width="1.2" height="1.2" transform="translate(3.76 -7.31) rotate(0.72)"/><rect class="cls-12" x="581.83" y="293.38" width="2.77" height="1.19" transform="translate(3.76 -7.34) rotate(0.72)"/><rect class="cls-12" x="585.21" y="293.41" width="1.2" height="1.2" transform="translate(3.76 -7.37) rotate(0.72)"/><rect class="cls-12" x="587.01" y="293.44" width="2.77" height="1.19" transform="translate(3.76 -7.41) rotate(0.72)"/><rect class="cls-12" x="590.38" y="293.48" width="1.2" height="1.2" transform="translate(3.76 -7.44) rotate(0.72)"/><rect class="cls-12" x="592.18" y="293.51" width="2.77" height="1.19" transform="translate(3.76 -7.47) rotate(0.72)"/><rect class="cls-12" x="595.55" y="293.54" width="1.2" height="1.2" transform="translate(3.76 -7.5) rotate(0.72)"/><rect class="cls-12" x="597.35" y="293.57" width="2.77" height="1.19" transform="translate(3.76 -7.54) rotate(0.72)"/><rect class="cls-12" x="600.72" y="293.61" width="1.2" height="1.2" transform="translate(3.76 -7.57) rotate(0.72)"/><rect class="cls-12" x="602.52" y="293.64" width="2.77" height="1.19" transform="translate(3.76 -7.6) rotate(0.72)"/><rect class="cls-12" x="605.89" y="293.67" width="1.2" height="1.2" transform="translate(3.76 -7.63) rotate(0.72)"/><rect class="cls-12" x="607.7" y="293.7" width="2.77" height="1.19" transform="translate(3.76 -7.67) rotate(0.72)"/><rect class="cls-12" x="611.07" y="293.74" width="1.2" height="1.2" transform="translate(3.76 -7.7) rotate(0.72)"/><rect class="cls-12" x="612.87" y="293.77" width="2.77" height="1.19" transform="translate(3.77 -7.73) rotate(0.72)"/><rect class="cls-12" x="616.24" y="293.8" width="1.2" height="1.2" transform="translate(3.77 -7.76) rotate(0.72)"/><rect class="cls-12" x="618.04" y="293.83" width="2.77" height="1.19" transform="translate(3.77 -7.8) rotate(0.72)"/><rect class="cls-12" x="621.41" y="293.87" width="1.2" height="1.2" transform="translate(3.77 -7.83) rotate(0.72)"/><rect class="cls-12" x="623.21" y="293.9" width="2.77" height="1.19" transform="translate(3.77 -7.86) rotate(0.72)"/><rect class="cls-12" x="626.58" y="293.93" width="1.2" height="1.2" transform="translate(3.77 -7.89) rotate(0.72)"/><polygon class="cls-12" points="528.7 296.57 530.26 297.78 532.64 297.81 532.66 296.62 528.7 296.57"/><polygon class="cls-12" points="630.52 297.86 629.93 299.04 627.56 299.01 627.57 297.82 630.52 297.86"/><rect class="cls-12" x="533.28" y="296.65" width="2.77" height="1.19" transform="translate(3.8 -6.73) rotate(0.72)"/><rect class="cls-12" x="536.65" y="296.68" width="1.2" height="1.2" transform="translate(3.8 -6.76) rotate(0.72)"/><rect class="cls-12" x="538.45" y="296.71" width="2.77" height="1.19" transform="translate(3.8 -6.79) rotate(0.72)"/><rect class="cls-12" x="541.82" y="296.74" width="1.2" height="1.2" transform="translate(3.8 -6.82) rotate(0.72)"/><rect class="cls-12" x="543.62" y="296.78" width="2.77" height="1.19" transform="matrix(1, 0.01, -0.01, 1, 3.8, -6.86)"/><rect class="cls-12" x="546.99" y="296.81" width="1.2" height="1.2" transform="translate(3.8 -6.89) rotate(0.72)"/><rect class="cls-12" x="548.8" y="296.84" width="2.77" height="1.19" transform="translate(3.8 -6.92) rotate(0.72)"/><rect class="cls-12" x="552.17" y="296.87" width="1.2" height="1.2" transform="translate(3.8 -6.96) rotate(0.72)"/><rect class="cls-12" x="553.97" y="296.91" width="2.77" height="1.19" transform="translate(3.8 -6.99) rotate(0.72)"/><rect class="cls-12" x="557.34" y="296.94" width="1.2" height="1.2" transform="translate(3.8 -7.02) rotate(0.72)"/><rect class="cls-12" x="559.14" y="296.97" width="2.77" height="1.19" transform="translate(3.8 -7.05) rotate(0.72)"/><rect class="cls-12" x="562.51" y="297" width="1.2" height="1.2" transform="translate(3.8 -7.09) rotate(0.72)"/><rect class="cls-12" x="564.31" y="297.04" width="2.77" height="1.19" transform="translate(3.8 -7.12) rotate(0.72)"/><rect class="cls-12" x="567.68" y="297.07" width="1.2" height="1.2" transform="translate(3.8 -7.15) rotate(0.72)"/><rect class="cls-12" x="569.49" y="297.1" width="2.77" height="1.19" transform="translate(3.8 -7.18) rotate(0.72)"/><rect class="cls-12" x="572.86" y="297.14" width="1.2" height="1.2" transform="translate(3.8 -7.22) rotate(0.72)"/><rect class="cls-12" x="574.66" y="297.17" width="2.77" height="1.19" transform="translate(3.81 -7.25) rotate(0.72)"/><rect class="cls-12" x="578.03" y="297.2" width="1.2" height="1.2" transform="translate(3.81 -7.28) rotate(0.72)"/><rect class="cls-12" x="579.83" y="297.23" width="2.77" height="1.19" transform="translate(3.81 -7.31) rotate(0.72)"/><rect class="cls-12" x="583.2" y="297.27" width="1.2" height="1.2" transform="translate(3.81 -7.35) rotate(0.72)"/><rect class="cls-12" x="585" y="297.3" width="2.77" height="1.19" transform="translate(3.81 -7.38) rotate(0.72)"/><rect class="cls-12" x="588.37" y="297.33" width="1.2" height="1.2" transform="translate(3.81 -7.41) rotate(0.72)"/><rect class="cls-12" x="590.18" y="297.36" width="2.77" height="1.19" transform="translate(3.81 -7.44) rotate(0.72)"/><rect class="cls-12" x="593.55" y="297.4" width="1.2" height="1.2" transform="translate(3.81 -7.48) rotate(0.72)"/><rect class="cls-12" x="595.35" y="297.43" width="2.77" height="1.19" transform="translate(3.81 -7.51) rotate(0.72)"/><rect class="cls-12" x="598.72" y="297.46" width="1.2" height="1.2" transform="translate(3.81 -7.54) rotate(0.72)"/><rect class="cls-12" x="600.52" y="297.49" width="2.77" height="1.19" transform="translate(3.81 -7.58) rotate(0.72)"/><rect class="cls-12" x="603.89" y="297.53" width="1.2" height="1.2" transform="translate(3.81 -7.61) rotate(0.72)"/><rect class="cls-12" x="605.69" y="297.56" width="2.77" height="1.19" transform="translate(3.81 -7.64) rotate(0.72)"/><rect class="cls-12" x="609.06" y="297.59" width="1.2" height="1.2" transform="translate(3.81 -7.67) rotate(0.72)"/><rect class="cls-12" x="610.86" y="297.62" width="2.77" height="1.19" transform="translate(3.81 -7.71) rotate(0.72)"/><rect class="cls-12" x="614.23" y="297.66" width="1.2" height="1.2" transform="translate(3.81 -7.74) rotate(0.72)"/><rect class="cls-12" x="617.05" y="297.7" width="2.77" height="1.19" transform="translate(3.82 -7.78) rotate(0.72)"/><rect class="cls-12" x="620.42" y="297.74" width="1.2" height="1.2" transform="translate(3.82 -7.82) rotate(0.72)"/><rect class="cls-12" x="622.22" y="297.77" width="2.77" height="1.19" transform="translate(3.82 -7.85) rotate(0.72)"/><rect class="cls-12" x="625.59" y="297.8" width="1.2" height="1.2" transform="translate(3.82 -7.88) rotate(0.72)"/><polygon class="cls-12" points="532.42 300.5 533.99 301.71 536.36 301.74 536.38 300.55 532.42 300.5"/><polygon class="cls-12" points="628.78 301.71 628.2 302.9 625.82 302.87 625.84 301.68 628.78 301.71"/><rect class="cls-12" x="537" y="300.57" width="2.77" height="1.19" transform="translate(3.85 -6.77) rotate(0.72)"/><rect class="cls-12" x="540.37" y="300.61" width="1.2" height="1.2" transform="translate(3.85 -6.81) rotate(0.72)"/><rect class="cls-12" x="542.17" y="300.64" width="2.77" height="1.19" transform="translate(3.85 -6.84) rotate(0.72)"/><rect class="cls-12" x="545.54" y="300.67" width="1.2" height="1.2" transform="translate(3.85 -6.87) rotate(0.72)"/><rect class="cls-12" x="547.35" y="300.7" width="2.77" height="1.19" transform="translate(3.85 -6.9) rotate(0.72)"/><rect class="cls-12" x="550.72" y="300.74" width="1.2" height="1.2" transform="translate(3.85 -6.94) rotate(0.72)"/><rect class="cls-12" x="552.52" y="300.77" width="2.77" height="1.19" transform="translate(3.85 -6.97) rotate(0.72)"/><rect class="cls-12" x="555.89" y="300.8" width="1.2" height="1.2" transform="translate(3.85 -7) rotate(0.72)"/><rect class="cls-12" x="557.69" y="300.83" width="2.77" height="1.19" transform="translate(3.85 -7.03) rotate(0.72)"/><rect class="cls-12" x="561.06" y="300.87" width="1.2" height="1.2" transform="translate(3.85 -7.07) rotate(0.72)"/><rect class="cls-12" x="562.86" y="300.9" width="2.77" height="1.19" transform="translate(3.85 -7.1) rotate(0.72)"/><rect class="cls-12" x="566.23" y="300.93" width="1.2" height="1.2" transform="translate(3.85 -7.13) rotate(0.72)"/><rect class="cls-12" x="568.04" y="300.97" width="2.77" height="1.19" transform="translate(3.85 -7.17) rotate(0.72)"/><rect class="cls-12" x="571.41" y="301" width="1.2" height="1.2" transform="translate(3.85 -7.2) rotate(0.72)"/><rect class="cls-12" x="573.21" y="301.03" width="2.77" height="1.19" transform="translate(3.85 -7.23) rotate(0.72)"/><rect class="cls-12" x="576.58" y="301.06" width="1.2" height="1.2" transform="translate(3.85 -7.26) rotate(0.72)"/><rect class="cls-12" x="578.38" y="301.1" width="2.77" height="1.19" transform="translate(3.86 -7.3) rotate(0.72)"/><rect class="cls-12" x="581.75" y="301.13" width="1.2" height="1.2" transform="translate(3.86 -7.33) rotate(0.72)"/><rect class="cls-12" x="583.55" y="301.16" width="2.77" height="1.19" transform="translate(3.86 -7.36) rotate(0.72)"/><rect class="cls-12" x="586.92" y="301.19" width="1.2" height="1.2" transform="translate(3.86 -7.39) rotate(0.72)"/><rect class="cls-12" x="588.72" y="301.23" width="2.77" height="1.19" transform="translate(3.86 -7.43) rotate(0.72)"/><rect class="cls-12" x="592.1" y="301.26" width="1.2" height="1.2" transform="translate(3.86 -7.46) rotate(0.72)"/><rect class="cls-12" x="593.9" y="301.29" width="2.77" height="1.19" transform="translate(3.86 -7.49) rotate(0.72)"/><rect class="cls-12" x="597.27" y="301.32" width="1.2" height="1.2" transform="translate(3.86 -7.52) rotate(0.72)"/><rect class="cls-12" x="599.07" y="301.36" width="2.77" height="1.19" transform="translate(3.86 -7.56) rotate(0.72)"/><rect class="cls-12" x="602.44" y="301.39" width="1.2" height="1.2" transform="translate(3.86 -7.59) rotate(0.72)"/><rect class="cls-12" x="604.24" y="301.42" width="2.77" height="1.19" transform="translate(3.86 -7.62) rotate(0.72)"/><rect class="cls-12" x="607.61" y="301.46" width="1.2" height="1.2" transform="translate(3.86 -7.65) rotate(0.72)"/><rect class="cls-12" x="609.41" y="301.49" width="2.77" height="1.19" transform="translate(3.86 -7.69) rotate(0.72)"/><rect class="cls-12" x="612.78" y="301.52" width="1.2" height="1.2" transform="translate(3.86 -7.72) rotate(0.72)"/><rect class="cls-12" x="615.31" y="301.56" width="2.77" height="1.19" transform="translate(3.86 -7.76) rotate(0.72)"/><rect class="cls-12" x="618.68" y="301.59" width="1.2" height="1.2" transform="translate(3.86 -7.79) rotate(0.72)"/><rect class="cls-12" x="620.48" y="301.63" width="2.77" height="1.19" transform="translate(3.87 -7.83) rotate(0.72)"/><rect class="cls-12" x="623.85" y="301.66" width="1.2" height="1.2" transform="translate(3.87 -7.86) rotate(0.72)"/><polygon class="cls-12" points="535.57 304.42 537.14 305.63 539.52 305.66 539.53 304.47 535.57 304.42"/><rect class="cls-12" x="540.16" y="304.49" width="2.77" height="1.19" transform="translate(3.9 -6.81) rotate(0.72)"/><rect class="cls-12" x="543.53" y="304.53" width="1.2" height="1.2" transform="translate(3.9 -6.85) rotate(0.72)"/><rect class="cls-12" x="545.33" y="304.56" width="2.77" height="1.19" transform="translate(3.9 -6.88) rotate(0.72)"/><rect class="cls-12" x="548.7" y="304.59" width="1.2" height="1.2" transform="translate(3.9 -6.91) rotate(0.72)"/><rect class="cls-12" x="550.5" y="304.63" width="2.77" height="1.19" transform="translate(3.9 -6.94) rotate(0.72)"/><rect class="cls-12" x="553.87" y="304.66" width="1.2" height="1.2" transform="translate(3.9 -6.98) rotate(0.72)"/><rect class="cls-12" x="555.67" y="304.69" width="2.77" height="1.19" transform="translate(3.9 -7.01) rotate(0.72)"/><rect class="cls-12" x="559.05" y="304.72" width="1.2" height="1.2" transform="translate(3.9 -7.04) rotate(0.72)"/><rect class="cls-12" x="560.85" y="304.76" width="2.77" height="1.19" transform="translate(3.9 -7.07) rotate(0.72)"/><rect class="cls-12" x="564.22" y="304.79" width="1.2" height="1.2" transform="translate(3.9 -7.11) rotate(0.72)"/><rect class="cls-12" x="566.02" y="304.82" width="2.77" height="1.19" transform="translate(3.9 -7.14) rotate(0.72)"/><rect class="cls-12" x="569.39" y="304.85" width="1.2" height="1.2" transform="translate(3.9 -7.17) rotate(0.72)"/><rect class="cls-12" x="571.19" y="304.89" width="2.77" height="1.19" transform="translate(3.9 -7.2) rotate(0.72)"/><rect class="cls-12" x="574.56" y="304.92" width="1.2" height="1.2" transform="translate(3.9 -7.24) rotate(0.72)"/><rect class="cls-12" x="576.36" y="304.95" width="2.77" height="1.19" transform="translate(3.9 -7.27) rotate(0.72)"/><rect class="cls-12" x="579.73" y="304.98" width="1.2" height="1.2" transform="translate(3.9 -7.3) rotate(0.72)"/><rect class="cls-12" x="581.54" y="305.02" width="2.77" height="1.19" transform="translate(3.9 -7.34) rotate(0.72)"/><rect class="cls-12" x="584.91" y="305.05" width="1.2" height="1.2" transform="translate(3.91 -7.37) rotate(0.72)"/><rect class="cls-12" x="586.71" y="305.08" width="2.77" height="1.19" transform="translate(3.91 -7.4) rotate(0.72)"/><rect class="cls-12" x="590.08" y="305.11" width="1.2" height="1.2" transform="translate(3.91 -7.43) rotate(0.72)"/><rect class="cls-12" x="591.88" y="305.15" width="2.77" height="1.19" transform="translate(3.91 -7.47) rotate(0.72)"/><rect class="cls-12" x="595.25" y="305.18" width="1.2" height="1.2" transform="translate(3.91 -7.5) rotate(0.72)"/><polygon class="cls-12" points="627.52 305.58 626.94 306.76 624.56 306.73 624.58 305.54 627.52 305.58"/><rect class="cls-12" x="596.73" y="305.2" width="1.2" height="1.2" transform="translate(3.91 -7.52) rotate(0.72)"/><rect class="cls-12" x="598.53" y="305.23" width="2.77" height="1.19" transform="translate(3.91 -7.55) rotate(0.72)"/><rect class="cls-12" x="601.9" y="305.26" width="1.2" height="1.2" transform="translate(3.91 -7.58) rotate(0.72)"/><rect class="cls-12" x="603.7" y="305.3" width="2.77" height="1.19" transform="translate(3.91 -7.62) rotate(0.72)"/><rect class="cls-12" x="607.07" y="305.33" width="1.2" height="1.2" transform="translate(3.91 -7.65) rotate(0.72)"/><rect class="cls-12" x="608.88" y="305.36" width="2.77" height="1.19" transform="translate(3.91 -7.68) rotate(0.72)"/><rect class="cls-12" x="612.25" y="305.39" width="1.2" height="1.2" transform="translate(3.91 -7.71) rotate(0.72)"/><rect class="cls-12" x="614.05" y="305.43" width="2.77" height="1.19" transform="translate(3.91 -7.75) rotate(0.72)"/><rect class="cls-12" x="617.42" y="305.46" width="1.2" height="1.2" transform="translate(3.91 -7.78) rotate(0.72)"/><rect class="cls-12" x="619.22" y="305.49" width="2.77" height="1.19" transform="translate(3.91 -7.81) rotate(0.72)"/><rect class="cls-12" x="622.59" y="305.53" width="1.2" height="1.2" transform="translate(3.91 -7.84) rotate(0.72)"/><rect class="cls-13" x="40.73" y="333.03" width="613.18" height="42.93"/><path class="cls-14" d="M367.66,335l-.23-.31a3.31,3.31,0,0,0-2.56-1.42,1.68,1.68,0,0,0-.6.07,7.42,7.42,0,0,0-1.91,1.08l-7,4.64-1.2,3.06v3.09l3.07.42Z"/><path class="cls-15" d="M371.63,351.45l.17,1.31s2.94.32,3.32-1.28l-.66-2.28Z"/><path class="cls-16" d="M371.8,352.76a2.81,2.81,0,0,0-.35,1.81,2.56,2.56,0,0,0,.29.78s3.45-.64,6.22-1.06a25.42,25.42,0,0,0,4.75-1.18s2.5-1.35.54-1.83-2,0-3.93,0S375,351,375,351,375.53,351.85,371.8,352.76Z"/><polygon class="cls-14" points="367.05 345.22 371.17 353 373.65 350.99 370.48 341.81 367.6 341.31 365.56 344.55 367.05 345.22"/><path class="cls-17" d="M375.68,350.93l.17,1.3s2.94.33,3.32-1.28l-.66-2.27Z"/><path class="cls-18" d="M371.37,335.05a5.68,5.68,0,0,0-3.22-.35C367,335.2,338,355.32,338,355.32s2.14,9.46,11.28,7.73a18.83,18.83,0,0,0,12.85-9.2l5.63-9.82s.18-.31.8-.14c.89.23,5.87,8.28,6,8.5s5.58-4.25,5.58-4.25S371.64,335.25,371.37,335.05Z"/><path class="cls-17" d="M357.12,319.5a5.82,5.82,0,0,0-.5-1.45,3.54,3.54,0,0,0-1.89-1.93,1.58,1.58,0,0,0-.43-.12,5,5,0,0,0-2.82,1.56c-.55.76-.6,3-1,2.71s-1.59.07-1.78,1.09,1.28,1.95,1.28,1.95l.07.58a8,8,0,0,1-2-.08,10.32,10.32,0,0,0-.88,2.22c.05.37,1.08,1.9,1.93,1.88s3.47-2.54,3.7-2.52a3.55,3.55,0,0,1,.5-.05c.51.06,1.43.5,2.05.25,1.13-.45,1.75-3.26,1.75-3.26.36-.71-.54.23.81-.42C359,321.38,357.3,321.34,357.12,319.5Z"/><path d="M350.44,320.37s.73,1.24,2.27-.14c.78-.68,2.71-.45,3.59-.8s-.26-1.65,0-2.2,1.44-1.41.79-2.11c-.5-.55-2.8-2.48-3.71-2.49a11.49,11.49,0,0,0-4,.52c-.85.46-2,.51-2.9,1.92a15.11,15.11,0,0,0-1.91,3.08c-.45,1.16.15,3.37.3,4a3.57,3.57,0,0,0,.88,1.95c.54.38.71.84,1.62.85a11.14,11.14,0,0,0,1.82-.11c.47-.06.82-.1,1-.29a.81.81,0,0,0-.15-1.2,1.72,1.72,0,0,1-.59-.62,1.94,1.94,0,0,1-.2-1.67A.88.88,0,0,1,350.44,320.37Z"/><path class="cls-19" d="M347.29,325.46s-8.88,8.1-9.43,16.64-.28,12.29.11,13.22,6.29,4.54,11.17,1.35,6.3-5,6.78-5.89a8.87,8.87,0,0,0,1-2.79c.05-.67,1.31-7.32,1.34-8.1s2.73-.36,2.73-.36a4.7,4.7,0,0,0,3.58.37c3.45-1.2,2.7-2.54,1.92-4a4.67,4.67,0,0,0-1.18-1.25l-11.12-8.56s-2.25-.62-3.49,0-2,.87-2.56.64S347.29,325.46,347.29,325.46Z"/><path class="cls-1" d="M375.85,352.23a2.86,2.86,0,0,0-.36,1.81,2.31,2.31,0,0,0,.3.79s3.45-.64,6.22-1.06a25.17,25.17,0,0,0,4.74-1.18s2.51-1.35.55-1.83-2-.06-3.93-.05-4.34-.22-4.34-.22S379.58,351.33,375.85,352.23Z"/><path class="cls-15" d="M383.4,354.26l.14,1.07s2.42.27,2.73-1.05l-.54-1.86Z"/><path class="cls-20" d="M380.15,340.79l-.18-.26a2.73,2.73,0,0,0-2.1-1.16,1.35,1.35,0,0,0-.5.06,5.93,5.93,0,0,0-1.56.88l-5.7,3.8-1,2.51v2.53l2.51.34Z"/><polygon class="cls-20" points="379.66 349.16 383.03 355.53 385.06 353.89 382.47 346.36 380.11 345.95 378.44 348.61 379.66 349.16"/><path class="cls-12" d="M383.19,340.83a4.63,4.63,0,0,0-2.64-.29c-.95.41-24.72,16.89-24.72,16.89s1.75,7.75,9.24,6.34a15.43,15.43,0,0,0,10.53-7.54l4.62-8s.14-.26.65-.12c.73.19,4.81,6.79,4.9,7a55.66,55.66,0,0,0,4.57-3.48S383.42,341,383.19,340.83Z"/><path class="cls-21" d="M363.47,333s-7.28,6.63-7.73,13.63-.23,10.07.09,10.83,5.15,3.72,9.15,1.11,5.16-4.08,5.55-4.83a6.87,6.87,0,0,0,.8-2.28c0-.55,1.07-6,1.1-6.64s2.24-.29,2.24-.29a3.82,3.82,0,0,0,2.93.3c2.82-1,2.21-2.08,1.57-3.27a3.72,3.72,0,0,0-1-1l-9.11-7a5.24,5.24,0,0,0-2.86,0c-1,.48-1.65.71-2.11.52S363.47,333,363.47,333Z"/><path class="cls-22" d="M383.54,355.33a2.32,2.32,0,0,0-.28,1.49,1.83,1.83,0,0,0,.24.64s2.83-.52,5.09-.87a20,20,0,0,0,3.89-1s2.06-1.1.45-1.49-1.61-.05-3.22,0-3.56-.18-3.56-.18S386.61,354.59,383.54,355.33Z"/><path class="cls-23" d="M386.72,353.83l.14,1.07s2.41.27,2.73-1l-.54-1.86Z"/><path class="cls-23" d="M371.52,328.09a4.68,4.68,0,0,0-.41-1.19,2.89,2.89,0,0,0-1.55-1.58,1.18,1.18,0,0,0-.35-.1,4.21,4.21,0,0,0-2.31,1.27c-.45.63-.5,2.48-.84,2.23s-1.3.06-1.45.89,1,1.6,1,1.6l.06.48a6.79,6.79,0,0,1-1.65-.07,8.38,8.38,0,0,0-.72,1.82c0,.3.89,1.55,1.58,1.54s2.85-2.08,3-2.07a2.79,2.79,0,0,1,.41,0c.42.05,1.17.41,1.69.2.92-.36,1.43-2.66,1.43-2.66.3-.59-.45.19.67-.35C373,329.63,371.67,329.59,371.52,328.09Z"/><path class="cls-24" d="M366.05,328.8s1.12,1,2.64-.57a6.37,6.37,0,0,1,1.93-1.53c.72-.28.74-.55.94-1a1.91,1.91,0,0,0-.61-1.78,5.33,5.33,0,0,0-2.52-1.47,9.74,9.74,0,0,0-3.3.43c-.7.38-1.61.42-2.38,1.58a12.22,12.22,0,0,0-1.56,2.52c-.37.95.26,5.73-2.94,11.7-.24.45.28,1.28.73,1.59s.57.69,1.32.7a8.83,8.83,0,0,0,1.49-.09c.39-.05.68-.08.81-.23a39.71,39.71,0,0,0,2.68-3.33c.35-.55.77-1,1.13-1.51,2-3-1.18-4.92-1.24-5.11a1.52,1.52,0,0,1-.16-1.36A.72.72,0,0,1,366.05,328.8Z"/><path class="cls-25" d="M386.86,354.9a2.37,2.37,0,0,0-.29,1.49,1.91,1.91,0,0,0,.25.64s2.82-.52,5.09-.87a20.28,20.28,0,0,0,3.89-1s2.05-1.1.45-1.49-1.62-.05-3.22,0-3.56-.18-3.56-.18S389.92,354.16,386.86,354.9Z"/><path class="cls-26" d="M40.73,376H320.58c-1.52-3.31-2.17-7-4.7-9.48-21.37-20.9-46.44-36.28-77.91-42.37-13.84-2.68-27.2-7.29-41-10.11-10.69-2.19-21.83-2.55-32.61-4.46-10.49-1.86-20.52,1.06-30.71,1.19-18.55.23-37.13-.91-55.69-1.52-7.34-.25-14.71-1.11-22-.83-5.37.21-10.75.59-15.2,2.16Z"/><path class="cls-27" d="M87.77,340.13a13.21,13.21,0,0,0,3.71-.2c5.85-1.16,22.52-6,23.75-23.19,0,0,3-10.59-4.54-21.68a14.87,14.87,0,0,1-2.63-8.14c-.06-5.85-1.78-16.56-11.85-26.5a13.2,13.2,0,0,0-11.56-3.72c-5.62,1-12.89,5.55-17.58,20.46,0,0-2.71,8.12-.84,19.78a13.41,13.41,0,0,1-.89,7.59C61.37,313.52,54.35,337.06,87.77,340.13Z"/><path class="cls-28" d="M104.23,296.33a2.3,2.3,0,0,0-3.16.86,52,52,0,0,1-9.9,12.47V283a2.32,2.32,0,1,0-4.63,0V317.8a52.3,52.3,0,0,1-9.9-12.47,2.32,2.32,0,0,0-4,2.28,55.64,55.64,0,0,0,13.93,16.28V350a2.32,2.32,0,0,0,4.63,0V315.76a55.5,55.5,0,0,0,13.92-16.28A2.3,2.3,0,0,0,104.23,296.33Z"/><path class="cls-29" d="M141.83,343a10.08,10.08,0,0,1-2.74-.14c-4.32-.86-16.62-4.42-17.53-17.12a20.41,20.41,0,0,1,3.35-16,10.92,10.92,0,0,0,1.94-6c.05-4.32,1.31-12.23,8.75-19.57a9.74,9.74,0,0,1,8.53-2.74c4.15.76,9.51,4.1,13,15.1a33.39,33.39,0,0,1,.61,14.6,10.06,10.06,0,0,0,.66,5.61C161.31,323.4,166.49,340.78,141.83,343Z"/><path class="cls-28" d="M151.55,314a1.58,1.58,0,0,0-2.16.59,35.72,35.72,0,0,1-6.78,8.54V304.82a1.59,1.59,0,1,0-3.17,0v23.87a35.89,35.89,0,0,1-6.78-8.55,1.59,1.59,0,0,0-2.76,1.57,38.18,38.18,0,0,0,9.54,11.15v17.9a1.59,1.59,0,0,0,3.17,0V327.29a38.18,38.18,0,0,0,9.54-11.15A1.59,1.59,0,0,0,151.55,314Z"/></g><path d="M105.68,205.73a1.16,1.16,0,0,1-1.72,0l-2.33-2.18c-.46-.46-.41-.95.15-1.48a33.51,33.51,0,0,0,5.49-6.52,35.32,35.32,0,0,0,3.65-7.61,36.87,36.87,0,0,0,1.71-7.34,56.58,56.58,0,0,0,.37-8.13.72.72,0,0,1,.22-.52.69.69,0,0,1,.47-.22l4.4.15a.57.57,0,0,1,.44.22.77.77,0,0,1,.2.52,65.35,65.35,0,0,1-.89,11.17,22.74,22.74,0,0,0,1.48,4.77,32.08,32.08,0,0,0,2.45,4.59,34.32,34.32,0,0,0,3,4.08,24,24,0,0,0,3.26,3.16c.52.39.56.92.1,1.58l-2.08,2.52a1,1,0,0,1-.67.4,1.35,1.35,0,0,1-.91-.3,22.52,22.52,0,0,1-2.59-2.37,34.22,34.22,0,0,1-2.6-3.09,38.08,38.08,0,0,1-2.27-3.41,20.32,20.32,0,0,1-1.63-3.38,34.91,34.91,0,0,1-2,4c-.76,1.28-1.55,2.51-2.39,3.68a33.11,33.11,0,0,1-2.62,3.21A28.59,28.59,0,0,1,105.68,205.73Zm34.74,10.42H136a.56.56,0,0,1-.64-.64V189.37H125.2a.68.68,0,0,1-.47-.2.57.57,0,0,1-.22-.44v-3.51a.52.52,0,0,1,.22-.42.8.8,0,0,1,.47-.17h10.18V169.9a.57.57,0,0,1,.64-.64h4.4a.57.57,0,0,1,.64.64v45.61A.56.56,0,0,1,140.42,216.15Z"/><path d="M191.11,192.76a.77.77,0,0,1-.49.22H171.94v3.65H181a4.17,4.17,0,0,1,2.7.62,3.11,3.11,0,0,1,.66,2.3v5.68a3.07,3.07,0,0,1-.66,2.32,4.25,4.25,0,0,1-2.7.6h-20.8c-.26,0-.43,0-.49.12a1,1,0,0,0-.1.57v1.53c0,.3,0,.47.1.52a1.15,1.15,0,0,0,.54.07h24.56a.79.79,0,0,1,.49.2.6.6,0,0,1,.25.49v3.22a.63.63,0,0,1-.25.47.73.73,0,0,1-.44.22H157.37a3.73,3.73,0,0,1-2.62-.69,3.16,3.16,0,0,1-.69-2.28V207a3.22,3.22,0,0,1,.66-2.27,3.65,3.65,0,0,1,2.6-.69h21a.94.94,0,0,0,.49-.08c.07,0,.1-.24.1-.57V202c0-.36,0-.58-.1-.64s-.25-.1-.54-.1H154.6a.7.7,0,0,1-.47-.2.57.57,0,0,1-.22-.44v-3.31a.58.58,0,0,1,.22-.45.7.7,0,0,1,.47-.2h11.66V193H147.58a.61.61,0,0,1-.69-.69v-3.07a.79.79,0,0,1,.2-.52.66.66,0,0,1,.49-.22h43a.89.89,0,0,1,.74.74v3.07A.63.63,0,0,1,191.11,192.76Zm-6.37-15.64a6.07,6.07,0,0,1-1,3.43,8.64,8.64,0,0,1-3,2.69,17,17,0,0,1-4.87,1.78,34.82,34.82,0,0,1-13.29,0,17,17,0,0,1-4.87-1.78,8.73,8.73,0,0,1-3-2.69,6.07,6.07,0,0,1-1-3.43,5.79,5.79,0,0,1,1-3.31,9,9,0,0,1,3-2.67,17.28,17.28,0,0,1,4.87-1.78,34.82,34.82,0,0,1,13.29,0,17.28,17.28,0,0,1,4.87,1.78,8.9,8.9,0,0,1,3,2.67A5.79,5.79,0,0,1,184.74,177.12ZM169.18,173a21.24,21.24,0,0,0-4,.34,15.43,15.43,0,0,0-3.14.92,6,6,0,0,0-2.07,1.36,2.39,2.39,0,0,0-.75,1.68,2.27,2.27,0,0,0,.75,1.6,6.23,6.23,0,0,0,2.07,1.34,16.12,16.12,0,0,0,3.14.91,22.63,22.63,0,0,0,7.93,0,15.94,15.94,0,0,0,3.16-.91,6.39,6.39,0,0,0,2.08-1.34,2.3,2.3,0,0,0,.74-1.6,2.42,2.42,0,0,0-.74-1.68,6.1,6.1,0,0,0-2.08-1.36,15.27,15.27,0,0,0-3.16-.92A21.37,21.37,0,0,0,169.18,173Z"/><path d="M129.71,244.9a4.34,4.34,0,0,1-1.29.92,4.63,4.63,0,0,1-1.66.46,6,6,0,0,1-1,0c-.38,0-.75-.07-1.11-.13s-.68-.12-1-.19a3.64,3.64,0,0,1-.63-.2,1.5,1.5,0,0,1-.35-.21s0-.14,0-.28l.14-1.44a.21.21,0,0,1,.1-.19c.05,0,.14,0,.29.06a6.24,6.24,0,0,0,.66.22,5.82,5.82,0,0,0,1,.21,7.47,7.47,0,0,0,1.06.11,3.66,3.66,0,0,0,1-.08,3,3,0,0,0,.91-.36,1.72,1.72,0,0,0,.55-.52,1.76,1.76,0,0,0,.28-.66,3.08,3.08,0,0,0,.08-.75,2,2,0,0,0-.47-1,4.74,4.74,0,0,0-1.37-1.16c-.73-.43-1.36-.83-1.89-1.19a9,9,0,0,1-1.31-1.1,3.94,3.94,0,0,1-.76-1.13,3.11,3.11,0,0,1-.25-1.28,3.62,3.62,0,0,1,.33-1.52,3.93,3.93,0,0,1,.94-1.27,4.36,4.36,0,0,1,1.41-.87,5.08,5.08,0,0,1,1.82-.32,9.38,9.38,0,0,1,1.66.13,6.29,6.29,0,0,1,1.11.3.57.57,0,0,1,.27.16.35.35,0,0,1,0,.23l-.26,1.24a.46.46,0,0,1-.12.29q-.09.07-.3,0c-.2-.06-.41-.13-.64-.18l-.72-.15c-.25,0-.48-.06-.71-.08a3.92,3.92,0,0,0-.61,0,2.47,2.47,0,0,0-1.53.71,2.08,2.08,0,0,0-.43,1.35,1.8,1.8,0,0,0,.5,1.08,6.15,6.15,0,0,0,1.48,1.17q1.22.74,2,1.32a7.83,7.83,0,0,1,1.24,1.12,3.21,3.21,0,0,1,.64,1.08,3.7,3.7,0,0,1,.18,1.18A4.07,4.07,0,0,1,129.71,244.9Z"/><path d="M141.65,241.06a.29.29,0,0,1-.09.23.29.29,0,0,1-.19.08H135a3.48,3.48,0,0,0,.81,2.12,2.48,2.48,0,0,0,2,.83,7.45,7.45,0,0,0,1.46-.17,4.7,4.7,0,0,0,1.49-.57c.1-.05.15,0,.18,0a.87.87,0,0,1,0,.25v1.34a.49.49,0,0,1-.06.27.67.67,0,0,1-.23.2,4.79,4.79,0,0,1-1.37.45,10.68,10.68,0,0,1-1.6.13,4.49,4.49,0,0,1-3.64-1.45,6.37,6.37,0,0,1-1.24-4.24,7.86,7.86,0,0,1,.28-2.05,5.64,5.64,0,0,1,.82-1.81,4.22,4.22,0,0,1,1.41-1.28,4.05,4.05,0,0,1,2-.49,4.15,4.15,0,0,1,2,.45,3.9,3.9,0,0,1,1.35,1.2,5,5,0,0,1,.75,1.77,9.26,9.26,0,0,1,.24,2.15c0,.1,0,.2,0,.32S141.65,241,141.65,241.06Zm-4.25-4.27a1.85,1.85,0,0,0-.94.23,2.69,2.69,0,0,0-.7.6,3.22,3.22,0,0,0-.47.86,4.8,4.8,0,0,0-.26,1h4.44a3.48,3.48,0,0,0-.12-.86,3.17,3.17,0,0,0-.38-.86,2.27,2.27,0,0,0-.64-.67A1.59,1.59,0,0,0,137.4,236.79Z"/><path d="M152.24,244.45a4.51,4.51,0,0,1-1.66,1.33,5.52,5.52,0,0,1-4.39,0,4.29,4.29,0,0,1-1.59-1.22,5.2,5.2,0,0,1-1-1.8,7.69,7.69,0,0,1,0-4.39,5.11,5.11,0,0,1,1-1.8,4.54,4.54,0,0,1,1.58-1.21,5.05,5.05,0,0,1,2.2-.45,5.12,5.12,0,0,1,2.2.45,4.67,4.67,0,0,1,1.59,1.21,5.45,5.45,0,0,1,1,1.8,7.63,7.63,0,0,1,0,4.34A5.36,5.36,0,0,1,152.24,244.45Zm-3.86-7.62a2.52,2.52,0,0,0-1.31.33,2.65,2.65,0,0,0-.9.86,4.34,4.34,0,0,0-.53,1.2,5.67,5.67,0,0,0-.17,1.35,5.55,5.55,0,0,0,.17,1.35,4.47,4.47,0,0,0,.53,1.22,2.68,2.68,0,0,0,.9.87,2.77,2.77,0,0,0,2.62,0,2.68,2.68,0,0,0,.9-.87,4.18,4.18,0,0,0,.53-1.22,5.37,5.37,0,0,0,0-2.68,4.06,4.06,0,0,0-.53-1.2,2.68,2.68,0,0,0-.9-.87A2.41,2.41,0,0,0,148.38,236.83Z"/><path d="M162.63,245.93a.31.31,0,0,1-.17-.05.13.13,0,0,1,0-.15V245a3.33,3.33,0,0,1-1.24,1,3.62,3.62,0,0,1-1.52.33,3.48,3.48,0,0,1-2.82-1.11,4.77,4.77,0,0,1-.93-3.16v-6.5a.34.34,0,0,1,.07-.19.23.23,0,0,1,.17-.08h1.59a.22.22,0,0,1,.17.09.34.34,0,0,1,.08.2v6.17a3.37,3.37,0,0,0,.48,2.06,1.67,1.67,0,0,0,1.4.6,2.21,2.21,0,0,0,1.74-.8,3.53,3.53,0,0,0,.69-2.37v-5.68a.28.28,0,0,1,.07-.19.21.21,0,0,1,.16-.08h1.61a.2.2,0,0,1,.17.1.44.44,0,0,1,.07.21v7.92c0,.4,0,.79,0,1.18s0,.74,0,1.07c0,.17-.07.25-.21.25Z"/><path d="M167.6,246a.2.2,0,0,1-.22-.23v-15.3a.24.24,0,0,1,.07-.16.22.22,0,0,1,.17-.07h1.63a.24.24,0,0,1,.23.23v15.3a.24.24,0,0,1-.23.23Z"/><path d="M263.06,244.54a3.64,3.64,0,0,1-.85.3c-.34.09-.7.16-1.1.23s-.79.11-1.2.14-.79,0-1.16,0a8.75,8.75,0,0,1-3-.5,6.57,6.57,0,0,1-2.35-1.48,6.88,6.88,0,0,1-1.56-2.39,8.76,8.76,0,0,1-.56-3.22,8.55,8.55,0,0,1,.52-3,6.93,6.93,0,0,1,1.5-2.39,6.76,6.76,0,0,1,2.35-1.58,8.23,8.23,0,0,1,3.1-.56,14.38,14.38,0,0,1,2.08.13,10.39,10.39,0,0,1,1.73.38.44.44,0,0,1,.25.12.19.19,0,0,1,0,.15l-.23,1.65a.31.31,0,0,1-.1.19s-.15,0-.29,0a13.09,13.09,0,0,0-1.73-.42,11.93,11.93,0,0,0-1.75-.12,5.33,5.33,0,0,0-2.11.4,4.57,4.57,0,0,0-1.63,1.12,5.12,5.12,0,0,0-1.06,1.74,6.4,6.4,0,0,0-.38,2.25,7,7,0,0,0,.38,2.38A4.91,4.91,0,0,0,255,241.8a4.42,4.42,0,0,0,1.64,1.06,5.84,5.84,0,0,0,2.09.36,13.4,13.4,0,0,0,1.52-.07,3.07,3.07,0,0,0,1-.24V239H258a.25.25,0,0,1-.19-.07.24.24,0,0,1-.07-.16v-1.56a.25.25,0,0,1,.09-.19A.29.29,0,0,1,258,237h5c.19,0,.31,0,.36.1a.59.59,0,0,1,.08.39v6.4a.78.78,0,0,1-.11.45A1,1,0,0,1,263.06,244.54Z"/><path d="M272.85,245a.36.36,0,0,1-.18,0,.22.22,0,0,1,0-.15v-.87a3,3,0,0,1-1.23,1,3.56,3.56,0,0,1-1.5.34,4.93,4.93,0,0,1-1.47-.21,3.16,3.16,0,0,1-1.14-.64,3,3,0,0,1-.75-1.06,3.71,3.71,0,0,1-.27-1.47,4,4,0,0,1,.35-1.74,3,3,0,0,1,1.09-1.24,5.48,5.48,0,0,1,1.91-.73,13.47,13.47,0,0,1,2.82-.25,3.81,3.81,0,0,0-.08-.74,2.12,2.12,0,0,0-.26-.66,1.4,1.4,0,0,0-.52-.47,1.7,1.7,0,0,0-.83-.18,4.9,4.9,0,0,0-1.58.23,5.76,5.76,0,0,0-1.33.62c-.21.13-.35.19-.42.17s-.11-.08-.11-.21v-1.47a1,1,0,0,0,0-.17.33.33,0,0,1,0-.15,1.26,1.26,0,0,1,.29-.21,8.64,8.64,0,0,1,1.35-.54,6,6,0,0,1,1.74-.22,3.88,3.88,0,0,1,2.9,1,4.08,4.08,0,0,1,.94,3v4.6c0,.37,0,.75,0,1.14a9.84,9.84,0,0,0,.07,1c0,.21,0,.31-.21.31Zm-3.44-4.66a1.69,1.69,0,0,0-.93,1.57,1.38,1.38,0,0,0,.43,1.11,1.7,1.7,0,0,0,1.14.37,2.18,2.18,0,0,0,1.78-.82,4,4,0,0,0,.67-2.54v-.21A6.68,6.68,0,0,0,269.41,240.31Z"/><path d="M284.3,245a.21.21,0,0,1-.17-.09.32.32,0,0,1-.06-.18v-6.17a3.58,3.58,0,0,0-.44-2,1.55,1.55,0,0,0-1.37-.62,2.37,2.37,0,0,0-1.89.7,3.06,3.06,0,0,0-.61,2v6.08c0,.17-.08.25-.24.25h-1.61a.19.19,0,0,1-.16-.09.27.27,0,0,1-.07-.18V237c0-.49,0-1,0-1.41s0-.81-.05-1.07.07-.26.27-.26h1.54c.14,0,.2.06.17.16l0,.71a4.56,4.56,0,0,1,1.17-.8,3.39,3.39,0,0,1,1.57-.34,3.61,3.61,0,0,1,2.84,1.1,4.58,4.58,0,0,1,1,3.17v6.49c0,.17-.07.25-.23.25Z"/><path d="M293,248a11.25,11.25,0,0,1-1.53-.11,7.25,7.25,0,0,1-1.49-.38,1.46,1.46,0,0,1-.25-.15.28.28,0,0,1-.06-.2l.09-1.57c0-.25.16-.31.39-.19a6,6,0,0,0,1.43.49,6.87,6.87,0,0,0,1.44.17,2.93,2.93,0,0,0,2-.66,2.48,2.48,0,0,0,.81-1.81,3.26,3.26,0,0,1-1.19.82,3.6,3.6,0,0,1-1.34.27,4.37,4.37,0,0,1-1.8-.38,4.19,4.19,0,0,1-1.44-1.05,4.87,4.87,0,0,1-.94-1.6,5.82,5.82,0,0,1-.34-2,6.54,6.54,0,0,1,1.16-4.25,4.07,4.07,0,0,1,3.31-1.38,3.47,3.47,0,0,1,.78.1,5,5,0,0,1,.77.25,5.43,5.43,0,0,1,.68.36,3.44,3.44,0,0,1,.54.44l0-.68a.45.45,0,0,1,0-.22.38.38,0,0,1,.24,0h1.53c.15,0,.23.09.23.29v8a6,6,0,0,1-1.28,4.07A4.72,4.72,0,0,1,293,248Zm.49-12.11a2.15,2.15,0,0,0-1.87.89,4.81,4.81,0,0,0-.65,2.83,4.17,4.17,0,0,0,.19,1.32,3,3,0,0,0,.53,1,2.37,2.37,0,0,0,.78.61,2,2,0,0,0,.92.22,2.29,2.29,0,0,0,1-.22,2.44,2.44,0,0,0,.82-.62,3.14,3.14,0,0,0,.55-1,3.94,3.94,0,0,0,.2-1.34,4.77,4.77,0,0,0-.66-2.72A2.08,2.08,0,0,0,293.5,235.89Z"/><path d="M307.82,245a.19.19,0,0,1-.16-.09.27.27,0,0,1-.07-.18v-6.17a3.49,3.49,0,0,0-.44-2,1.53,1.53,0,0,0-1.36-.62,2.38,2.38,0,0,0-1.9.7,3.11,3.11,0,0,0-.61,2v6.08c0,.17-.08.25-.23.25h-1.61a.21.21,0,0,1-.17-.09.34.34,0,0,1-.07-.18v-9.14c0-.46,0-.81-.05-1.07s.06-.26.27-.26H303c.14,0,.2.06.18.16l0,.71a4.5,4.5,0,0,1,1.16-.8,3.42,3.42,0,0,1,1.57-.34,3.63,3.63,0,0,1,2.85,1.1,4.63,4.63,0,0,1,1,3.17v6.49c0,.17-.08.25-.23.25Z"/><path d="M321,240.1a.29.29,0,0,1-.09.23.25.25,0,0,1-.18.08h-6.39a3.54,3.54,0,0,0,.82,2.12,2.47,2.47,0,0,0,2,.83,7.53,7.53,0,0,0,1.46-.17,4.7,4.7,0,0,0,1.49-.57c.09-.05.15,0,.18,0a.85.85,0,0,1,0,.25v1.34a.5.5,0,0,1-.05.27.63.63,0,0,1-.24.2,4.6,4.6,0,0,1-1.37.44,9.34,9.34,0,0,1-1.6.14,4.52,4.52,0,0,1-3.64-1.45,6.37,6.37,0,0,1-1.23-4.24,8,8,0,0,1,.27-2.06,5.71,5.71,0,0,1,.83-1.8,4.22,4.22,0,0,1,1.41-1.28,4,4,0,0,1,2-.49,4.15,4.15,0,0,1,2,.45,3.9,3.9,0,0,1,1.35,1.2,5.24,5.24,0,0,1,.76,1.77,9.84,9.84,0,0,1,.23,2.15c0,.09,0,.2,0,.31S321,240.05,321,240.1Zm-4.25-4.27a1.78,1.78,0,0,0-.93.23,2.51,2.51,0,0,0-.7.6,3.22,3.22,0,0,0-.47.86,4.83,4.83,0,0,0-.27,1h4.45a3.1,3.1,0,0,0-.13-.86,2.89,2.89,0,0,0-.38-.86,2.15,2.15,0,0,0-.64-.67A1.59,1.59,0,0,0,316.79,235.83Z"/><path d="M330.26,245a.28.28,0,0,1-.16-.05c-.05,0-.06-.08-.05-.15V244a3.37,3.37,0,0,1-1.23,1,3.7,3.7,0,0,1-1.53.33,3.46,3.46,0,0,1-2.81-1.11,4.77,4.77,0,0,1-.93-3.16v-6.5a.28.28,0,0,1,.07-.19.18.18,0,0,1,.16-.09h1.59a.26.26,0,0,1,.18.1.32.32,0,0,1,.07.2v6.17a3.37,3.37,0,0,0,.48,2.06,1.7,1.7,0,0,0,1.41.6,2.19,2.19,0,0,0,1.73-.8,3.53,3.53,0,0,0,.69-2.37v-5.68a.34.34,0,0,1,.07-.19.21.21,0,0,1,.17-.09h1.61a.19.19,0,0,1,.16.11.35.35,0,0,1,.07.21v7.92c0,.4,0,.79,0,1.18s0,.74,0,1.07c0,.17-.07.25-.21.25Z"/><path d="M341.93,245a.21.21,0,0,1-.17-.09.32.32,0,0,1-.06-.18v-6.17a3.58,3.58,0,0,0-.44-2,1.55,1.55,0,0,0-1.37-.62,2.37,2.37,0,0,0-1.89.7,3.06,3.06,0,0,0-.61,2v6.08c0,.17-.08.25-.24.25h-1.61a.19.19,0,0,1-.16-.09.27.27,0,0,1-.07-.18V237c0-.49,0-1,0-1.41s0-.81-.05-1.07.07-.26.27-.26h1.54c.14,0,.2.06.17.16l0,.71a4.56,4.56,0,0,1,1.17-.8A3.39,3.39,0,0,1,340,234a3.61,3.61,0,0,1,2.84,1.1,4.58,4.58,0,0,1,1,3.17v6.49c0,.17-.07.25-.23.25Z"/><path d="M350.64,248a11.25,11.25,0,0,1-1.53-.11,7.25,7.25,0,0,1-1.49-.38,1.46,1.46,0,0,1-.25-.15.28.28,0,0,1-.06-.2l.09-1.57c0-.25.16-.31.39-.19a6,6,0,0,0,1.43.49,6.87,6.87,0,0,0,1.44.17,2.93,2.93,0,0,0,2-.66,2.48,2.48,0,0,0,.81-1.81,3.26,3.26,0,0,1-1.19.82,3.6,3.6,0,0,1-1.34.27,4.33,4.33,0,0,1-1.8-.38,4.19,4.19,0,0,1-1.44-1.05,4.87,4.87,0,0,1-.94-1.6,5.82,5.82,0,0,1-.34-2,6.54,6.54,0,0,1,1.16-4.25A4.07,4.07,0,0,1,350.9,234a3.47,3.47,0,0,1,.78.1,5,5,0,0,1,.77.25,5.43,5.43,0,0,1,.68.36,3.44,3.44,0,0,1,.54.44l0-.68a.45.45,0,0,1,0-.22.38.38,0,0,1,.24,0h1.53c.15,0,.23.09.23.29v8a6,6,0,0,1-1.28,4.07A4.72,4.72,0,0,1,350.64,248Zm.49-12.11a2.15,2.15,0,0,0-1.87.89,4.81,4.81,0,0,0-.65,2.83,4.17,4.17,0,0,0,.19,1.32,3,3,0,0,0,.53,1,2.37,2.37,0,0,0,.78.61,2,2,0,0,0,.92.22,2.29,2.29,0,0,0,1-.22,2.44,2.44,0,0,0,.82-.62,3.14,3.14,0,0,0,.55-1,3.94,3.94,0,0,0,.2-1.34,4.77,4.77,0,0,0-.66-2.72A2.08,2.08,0,0,0,351.13,235.89Z"/><path d="M262.74,196.17c-.79.33-1.31.19-1.58-.4l-1.28-2.62a1.41,1.41,0,0,1-.13-.84,1,1,0,0,1,.62-.64,33,33,0,0,0,10.18-6.52A20.12,20.12,0,0,0,276,176.7a2.14,2.14,0,0,0,.14-1.11c-.06-.22-.34-.32-.84-.32H261.9a.58.58,0,0,1-.47-.23.83.83,0,0,1-.17-.52v-3.26a.61.61,0,0,1,.69-.69H278.7a5,5,0,0,1,3,.69,2.75,2.75,0,0,1,.87,2.28,5.13,5.13,0,0,1-.05.56c0,.25-.08.51-.13.77s-.1.5-.14.72-.1.37-.13.47a27.43,27.43,0,0,1-6.74,11.83A36.55,36.55,0,0,1,262.74,196.17Zm33.45,9.33a7.1,7.1,0,0,1-1.11,3.88,10,10,0,0,1-3.09,3,16,16,0,0,1-4.69,2,22.88,22.88,0,0,1-5.88.72,23.64,23.64,0,0,1-6.1-.72,15.53,15.53,0,0,1-4.6-2,9,9,0,0,1-2.91-3,7.73,7.73,0,0,1-1-3.91,7.34,7.34,0,0,1,1-3.8,9.09,9.09,0,0,1,2.91-3,15.54,15.54,0,0,1,4.6-2,24.1,24.1,0,0,1,6.1-.71,23.82,23.82,0,0,1,5.88.69,15.91,15.91,0,0,1,4.69,1.95,9.81,9.81,0,0,1,3.09,3A7,7,0,0,1,296.19,205.5Zm-5.83.2a3.66,3.66,0,0,0-.71-2.2,6,6,0,0,0-1.95-1.63,11.38,11.38,0,0,0-2.85-1,15,15,0,0,0-3.43-.38,12.69,12.69,0,0,0-6.35,1.39,4.27,4.27,0,0,0-2.4,3.85,3.56,3.56,0,0,0,.65,2.1,5,5,0,0,0,1.8,1.53,10.33,10.33,0,0,0,2.77,1,16.78,16.78,0,0,0,3.53.34,16.29,16.29,0,0,0,3.43-.34,11.77,11.77,0,0,0,2.85-1,5.63,5.63,0,0,0,1.95-1.53A3.35,3.35,0,0,0,290.36,205.7Zm12.55-20.9a.79.79,0,0,1-.49.2h-6.67v9.54c0,.42-.23.64-.69.64h-4.35a.7.7,0,0,1-.47-.2.63.63,0,0,1-.22-.49v-25.6a.57.57,0,0,1,.22-.44.7.7,0,0,1,.47-.2h4.35c.46,0,.69.21.69.64v11.37h6.67a.78.78,0,0,1,.49.19.57.57,0,0,1,.25.45v3.46A.55.55,0,0,1,302.91,184.8Z"/><path d="M348.62,195.84a.68.68,0,0,1-.5.28h-43a.63.63,0,0,1-.5-.25.88.88,0,0,1-.2-.54v-3.17a.61.61,0,0,1,.7-.69h43a.8.8,0,0,1,.5.22.65.65,0,0,1,.24.47v3.17A.79.79,0,0,1,348.62,195.84Zm-6.28,11.34q0,3.76-4.12,6t-11.59,2.25q-7.45,0-11.59-2.25t-4.12-6a5.64,5.64,0,0,1,1.06-3.33,8.71,8.71,0,0,1,3.06-2.59,17.73,17.73,0,0,1,4.94-1.69,37.77,37.77,0,0,1,13.3,0,17.73,17.73,0,0,1,4.94,1.69,8.71,8.71,0,0,1,3.06,2.59A5.64,5.64,0,0,1,342.34,207.18Zm.13-19.09a.62.62,0,0,1-.42.22H315a3.73,3.73,0,0,1-2.62-.69,3.13,3.13,0,0,1-.69-2.27v-5.84a3.18,3.18,0,0,1,.67-2.27,3.6,3.6,0,0,1,2.59-.69h20.7c.27,0,.43,0,.5-.12a1.14,1.14,0,0,0,.1-.57v-1.93c0-.26,0-.42-.1-.47a1.2,1.2,0,0,0-.55-.07H312.5a.7.7,0,0,1-.47-.2.57.57,0,0,1-.22-.44v-3.17a.57.57,0,0,1,.22-.44.7.7,0,0,1,.47-.2h25.89a4.13,4.13,0,0,1,2.69.62,3.07,3.07,0,0,1,.67,2.3v5.88a3.06,3.06,0,0,1-.67,2.32,4.3,4.3,0,0,1-2.69.59H317.88c-.29,0-.47,0-.54.13a1,1,0,0,0-.1.56v1.93c0,.33,0,.52.1.57a1.34,1.34,0,0,0,.59.07H342a.75.75,0,0,1,.47.18.57.57,0,0,1,.22.46v3.07A.71.71,0,0,1,342.47,188.09Zm-15.84,15.19a17.8,17.8,0,0,0-7.51,1.24c-1.71.82-2.57,1.73-2.57,2.71s.86,1.9,2.57,2.72a23.36,23.36,0,0,0,15,0c1.71-.82,2.57-1.73,2.57-2.72s-.86-1.89-2.57-2.71A17.8,17.8,0,0,0,326.63,203.28Z"/><polygon points="218.38 180.98 231.08 193.68 218.38 206.37 218.38 180.98"/><path class="cls-30" d="M58.32,51.84h578a17.6,17.6,0,0,1,17.6,17.6v56.84a0,0,0,0,1,0,0H40.73a0,0,0,0,1,0,0V69.44A17.6,17.6,0,0,1,58.32,51.84Z"/><path class="cls-30" d="M40.73,374.31H653.91a0,0,0,0,1,0,0v56.32a17.53,17.53,0,0,1-17.53,17.53H58.25a17.53,17.53,0,0,1-17.53-17.53V374.31A0,0,0,0,1,40.73,374.31Z"/><path d="M127.45,91.86a3.93,3.93,0,0,1-3.92-4.25V81.94a4.54,4.54,0,0,1,4.16-4.49h2.14a4.39,4.39,0,0,1,4.06,4.49v5.84a3.94,3.94,0,0,1-3.78,4.08Zm1.69-2.49a2.1,2.1,0,0,0,2-2.09V82.17a2.07,2.07,0,0,0-2-1.94h-.76a2.12,2.12,0,0,0-2.07,1.9v5.38a1.89,1.89,0,0,0,1.83,1.86Zm12.25,7h-3.33V89.72H135V86.94h3.06V84.48H135V81.67h3.06V76.43h3.33Z"/><path d="M154.61,77.8V80h-1.43a4.19,4.19,0,0,1,.55,2.19v2.09a3.46,3.46,0,0,1-3.58,3.44h-2.21c-1.71,0-3.11-1.14-3.11-3.4V82.2a3.64,3.64,0,0,1,.69-2.19h-1.76V77.8h3.87V76.4h3.3v1.4ZM151,82.41c0-.78-.31-1.4-1.1-1.4h-1.09c-.78,0-1.19.62-1.19,1.4v1.66c0,.79.41,1.19,1.24,1.19h.9A1.15,1.15,0,0,0,151,84Zm8.45,7.27a2.63,2.63,0,0,1,2.78,2.44v1.95a2.37,2.37,0,0,1-2.54,2.3h-9.22a2.8,2.8,0,0,1-2.61-2.28v-2c.26-1.71,2.26-2.44,3.28-2.44Zm-7.34,2.46c-.92,0-1.07.38-1.23.69l0,.62c.29.64.62.62,1.26.62h6.34c.55,0,1-.17,1-.62V93a1,1,0,0,0-1-.86ZM162.28,76.4V87.94h-2.71v-4h-1.76v4h-2.7V76.4h2.7v5.25h1.76V76.4Z"/><path d="M174.57,95.29h-2.09V91.71a8.94,8.94,0,0,1-5,1.85,16.33,16.33,0,0,1-3,0V91.66c3.08.61,7.15-.88,8-1.21V83.52h2.12Zm-5.81-11.46a1.84,1.84,0,0,1,1.9,1.91v1.91a1.83,1.83,0,0,1-2.06,1.9h-1.67a1.85,1.85,0,0,1-2-1.76V85.74a1.9,1.9,0,0,1,2-1.91Zm.21,2.28a.79.79,0,0,0-.81-.8h-.6a.85.85,0,0,0-.88.8v1.16a.85.85,0,0,0,.88.81h.6a.79.79,0,0,0,.81-.81Z"/><path d="M187,77.21v9.5H177v-9.5H180v2.61h3.89V77.21ZM178.4,91.38h10.78V90.29H178.4V88.37h14.08V93.5H181.42v.9h11.06v2.23H178.4Zm5.53-7.09v-2H180v2Zm11.3-.91H192.5v3.71h-3V76.38h3v4.2h2.73Z"/><path d="M203.83,80.91c-.1,1.43-.17,6.89,3.75,8.22v2.75a8.8,8.8,0,0,1-2.23-.85,6.23,6.23,0,0,1-3.09-3.49,6,6,0,0,1-3.11,3.58,7.84,7.84,0,0,1-2.23.76V89.13c3.91-1.33,3.75-6.79,3.65-8.22h-3.68V78.26h10.73v2.65Zm11.91,2.16v3.07h-3V96.39h-3.3V76.66h3.3v6.41Z"/><path d="M235,87.44h-7.62v2h6v2.25a10.47,10.47,0,0,1-.52,3,13.65,13.65,0,0,1-.48,1.28h-2.92a9.21,9.21,0,0,0,.93-2.7,6.7,6.7,0,0,0,.09-1.14H219V89.44h5.35v-2h-7.18V84.78h11.78a17.56,17.56,0,0,0,.81-3.65,11.85,11.85,0,0,0,.09-1.52h-10.7V76.88H233v2.49a28.29,28.29,0,0,1-1,5.41h3Z"/><path class="cls-31" d="M104.67,79.06c.18-.18.44-.33.51-.55s-.2-.37-.36-.52-.65-.47-.94-.74-.12-.36.16-.42a1,1,0,0,1,1.19.56l.72,1.28a1.1,1.1,0,0,0,1,.54,5.65,5.65,0,0,1,1.06.2c.25,0,.49.13.74.16.72.08,1,.36.88,1a1,1,0,0,1-1.24.83c-.43-.13-.89.63-1.31.44s-1-.42-1.16.06c-1,3.56-1.06-.83-1.46-1.2a8.2,8.2,0,0,1-.88-1,2.29,2.29,0,0,0-2.51-.91L98,79.51a2.53,2.53,0,0,0-1.41,1c-.38.48-.73,1-1.1,1.46a4.31,4.31,0,0,0-.88,2.56c0,.43-.1.86-.11,1.29a4.94,4.94,0,0,0,1.73,4.23,3.46,3.46,0,0,0,3.2.79,1.82,1.82,0,0,1,2.29,1.32,17.86,17.86,0,0,1,.72,3,12.16,12.16,0,0,1-.15,2.07,3.25,3.25,0,0,0,.09,1.08c.29.93.63,1.84,1,2.76a6.67,6.67,0,0,0,.29.74,1,1,0,0,0,1.44.66,7.24,7.24,0,0,0,3.76-2.71c.29-.4-1.71-10.17,4-9.77.12,0,.17-.17.25-.26a1.21,1.21,0,0,0,.1-1.86c-.16-.23-.34-.45-.48-.69a.6.6,0,0,1,.31-1,1.57,1.57,0,0,0,1-1.15,9.24,9.24,0,0,1,.29-.89c.11-.3.35-.35.56-.14a1.53,1.53,0,0,1,.49.8c.06,1.44.13,2.89,0,4.34a16.92,16.92,0,0,1-1.84,6.67,19.52,19.52,0,0,1-14.62,11,19.31,19.31,0,0,1-13.36-2.4c-.17-.1-.39-.25-.43-.42a10.05,10.05,0,0,1-.27-2c0-.72.58-1.14,1.1-1.54s1.15-.79,1.69-1.22a5.07,5.07,0,0,0,1.74-5.57,1.6,1.6,0,0,0-.78-1c-.5-.26-1-.56-1.5-.78A5,5,0,0,1,85,90.21a5.3,5.3,0,0,0-1.82-1.67C82.09,88,81,87.34,79.9,86.86a2.73,2.73,0,0,1-1.15-4.39c.68-.85,1.46-1.6,2.2-2.39.39-.43.8-.84,1.16-1.28a3,3,0,0,1,1.61-1.11,12.76,12.76,0,0,0,1.8-.76A2.34,2.34,0,0,0,87,74.73c0-.29.06-.59.1-.88a2.24,2.24,0,0,0-.28-1.49,2.13,2.13,0,0,1-.31-1.83,1,1,0,0,1,.44-.56,4,4,0,0,1,2.24-.41c.66.06.78.26.7.91s-.19,1.47-.23,2.21.08.74.69.63c.88-.15,1.76-.37,2.64-.57s2-.44,3-.69A3.39,3.39,0,0,0,98.35,70a1.14,1.14,0,0,0-.2-1.14c-.35-.5-.75-1-1.12-1.45,2.42-.65,10.86,3.1,12.26,5.49a2.16,2.16,0,0,1-1.46-.19c-1.09-.49-2.18-1-3.26-1.51a1.18,1.18,0,0,0-1,0c-.53.23-1.07.44-1.6.66-.76.3-.92.67-.62,1.43s.18.65-.29,1.14.6,2.18,1.24,2.59c.42.27.86.53,1.3.77s1.11.46.9,1.29Z"/><path class="cls-31" d="M75.67,85.69a5.73,5.73,0,0,1,1.41,2.61c.34,1.29.72,2.57.94,3.88a6,6,0,0,0,1.64,3.19,4,4,0,0,1,1.15,2.34,9.35,9.35,0,0,0,2.44,4.86,5.44,5.44,0,0,1,.39.55A19.44,19.44,0,0,1,75.67,85.69Z"/><path class="cls-32" d="M92.4,83.24c-1.18-.88-2-1.76-3.3-1.53-1.08.2-1.82,2-1.45,3.05.58,1.65,2.74,2.21,4.23,2A1.84,1.84,0,0,0,93.46,84C93.2,83.57,92.58,83.48,92.4,83.24Z"/><path class="cls-32" d="M94.21,79.78c-.52-.45-.88-1.21-1.56-1.24a1.65,1.65,0,0,0-1.45,2.11,3,3,0,0,0,2.85,1.9,1.22,1.22,0,0,0,1.06-1.83c-.19-.38-.37-.39-.61-.75C94.48,80,94.23,79.77,94.21,79.78Z"/><path class="cls-32" d="M94.81,79.18a7.13,7.13,0,0,0,1.16.45,1,1,0,0,0,1.25-1.31A2.5,2.5,0,0,0,95,76.62c-.79,0-1.33.28-1.25,1.07a2,2,0,0,0,.72,1.37S94.82,79.16,94.81,79.18Z"/><path class="cls-32" d="M99.22,75.89a5,5,0,0,0-.51-.27.83.83,0,0,0-1.2.92,1.9,1.9,0,0,0,1.3,1.57.83.83,0,0,0,1.12-1A2.13,2.13,0,0,0,99.22,75.89Z"/><path class="cls-32" d="M109.28,77.37a1.55,1.55,0,0,0,1,.65.63.63,0,0,0,.74-.56,1.53,1.53,0,0,0-1.16-1.56c-.56-.11-.95.4-.76,1A4.41,4.41,0,0,0,109.28,77.37Z"/><path class="cls-32" d="M116.86,87.39a21.32,21.32,0,1,1-21.14-21.5A21.34,21.34,0,0,1,116.86,87.39Zm-12.19-8.33-.19-.07c.21-.83-.39-1-.9-1.29s-.88-.5-1.3-.77c-2.23-1.75-1.55.36-2.51,1-.31.2-.2.14-.77.15-.29,0-.46-.19-.75-.27s-.68-.89-.74-1.28c-.21-1.43,0-1.51,1.45-1.43.82,0,1.5.32,2.08-.77.47-.49.53-.51.29-1.14a1.11,1.11,0,0,1,.61-1.43c.52-.21,1-.41,1.55-.63a1.31,1.31,0,0,1,1.08,0c1.08.52,2.17,1,3.26,1.51a2.16,2.16,0,0,0,1.46.19c-1.4-2.39-9.84-6.14-12.26-5.49.37.48.77,1,1.12,1.45a1.14,1.14,0,0,1,.2,1.14A3.39,3.39,0,0,1,96,72.05c-1,.25-2,.47-3,.69s-1.76.42-2.64.57c-.61.11-.73,0-.69-.63s.14-1.48.23-2.21,0-.85-.7-.91a4,4,0,0,0-2.24.41,1,1,0,0,0-.44.56,2.13,2.13,0,0,0,.31,1.83,2.24,2.24,0,0,1,.28,1.49c0,.29-.08.59-.1.88a2.34,2.34,0,0,1-1.45,2.2,12.76,12.76,0,0,1-1.8.76,3,3,0,0,0-1.61,1.11c-.36.44-.77.85-1.16,1.28-.74.79-1.52,1.54-2.2,2.39a2.73,2.73,0,0,0,1.15,4.39c1.09.47,2.13,1.07,3.18,1.63A5.53,5.53,0,0,1,85,90.21,5,5,0,0,0,87.07,92c.51.22,1,.52,1.5.78a1.6,1.6,0,0,1,.78,1,5.07,5.07,0,0,1-1.74,5.57c-.54.43-1.14.8-1.69,1.22s-1.1.82-1.1,1.54a10.05,10.05,0,0,0,.27,2c0,.17.26.32.43.42a19.21,19.21,0,0,0,13.28,2.41,20.39,20.39,0,0,0,14-9.77,17.43,17.43,0,0,0,2.53-7.92c.08-1.45,0-2.9,0-4.34a1.53,1.53,0,0,0-.49-.8c-.21-.21-.45-.16-.56.14a9.24,9.24,0,0,0-.29.89,1.57,1.57,0,0,1-1,1.15.6.6,0,0,0-.31,1c.14.24.32.46.48.69a1.21,1.21,0,0,1-.1,1.86l-.25.26c-.88,1-3-.86-1.83,3.5a10,10,0,0,1-1,2.94,11.87,11.87,0,0,0-.67,1.87,5.61,5.61,0,0,1-.52,1.46,7.24,7.24,0,0,1-3.76,2.71,1,1,0,0,1-1.44-.66,6.67,6.67,0,0,1-.29-.74c-.33-.92-.67-1.83-1-2.76a3.25,3.25,0,0,1-.09-1.08,12.16,12.16,0,0,0,.15-2.07,17.86,17.86,0,0,0-.72-3,1.82,1.82,0,0,0-2.29-1.32,3.46,3.46,0,0,1-3.2-.79,4.94,4.94,0,0,1-1.73-4.23c0-.43.1-.86.11-1.29A4.31,4.31,0,0,1,95.46,82c.37-.48.72-1,1.1-1.46a2.55,2.55,0,0,1,1.46-1,25,25,0,0,0,2.82-.64,2.31,2.31,0,0,1,2.75.84,8.2,8.2,0,0,0,.88,1c.36.33.34,1.46,1.12.54a1.31,1.31,0,0,1,1.53-.36h0a9.9,9.9,0,0,0,1.27.51,1,1,0,0,0,1.24-.83c.1-.62-.16-.9-.88-1-.25,0-.49-.11-.74-.16a5.65,5.65,0,0,0-1.06-.2,1.1,1.1,0,0,1-1-.54l-.72-1.28a1,1,0,0,0-1.19-.56c-.28.06-.39.21-.16.42s.64.48.94.74.4.4.36.52S104.85,78.88,104.67,79.06Zm-29,6.63a19.44,19.44,0,0,0,8,17.43,5.44,5.44,0,0,0-.39-.55,9.35,9.35,0,0,1-2.44-4.86,4,4,0,0,0-1.15-2.34A6,6,0,0,1,78,92.18c-.22-1.31-.6-2.59-.94-3.88A5.73,5.73,0,0,0,75.67,85.69Z"/><path d="M95.53,65.89a21.32,21.32,0,1,0,21.33,21.32A21.21,21.21,0,0,0,95.53,65.89Zm0,41.16a19.84,19.84,0,1,1,19.82-19.84A19.79,19.79,0,0,1,95.56,107.05Z"/><path d="M603.6,429.85a1.47,1.47,0,0,1-.19-.5q0-18.14,0-36.27v-.45h6.36v36.8c0,.14,0,.28,0,.42Z"/><path d="M499.16,392.63h4.26v37.22h-4.26Z"/><path d="M616.15,429.85V392.62h4.26v37.23Z"/><path d="M531.13,429.85c0-.22,0-.44,0-.65V392.63h4.19v.57q0,18,0,36.05a2.61,2.61,0,0,1-.14.6Z"/><path d="M558.84,429.85a2.38,2.38,0,0,1-.15-.55q0-18.07,0-36.13v-.54h4.2a3.93,3.93,0,0,1,.06.48v36.23a3,3,0,0,1-.09.51Z"/><path d="M569.49,429.85a1.68,1.68,0,0,1-.18-.5q0-18.14,0-36.27v-.45h4.27v.48q0,18.11,0,36.23a4.38,4.38,0,0,1,0,.51Z"/><path d="M578,429.85a1.68,1.68,0,0,1-.18-.5q0-18.14,0-36.27v-.45h4.26v36.71c0,.17,0,.34,0,.51Z"/><path d="M586.55,429.85a1.47,1.47,0,0,1-.19-.5q0-18.14,0-36.27v-.45h4.27v36.71a4.4,4.4,0,0,1,0,.51Z"/><path d="M592.94,429.85c-.07-.17-.21-.33-.21-.49q0-18.15,0-36.29v-.44h4.21a2.84,2.84,0,0,1,.05.42v36.38c0,.14,0,.28,0,.42Z"/><path d="M505.55,429.85c0-.22,0-.44,0-.65V392.62h2.15v37.23Z"/><path d="M611.89,429.85V392.62H614c0,.14,0,.29,0,.44q0,18.18,0,36.37c0,.14,0,.28,0,.42Z"/><path d="M512,429.85V392.62h2.11v.5q0,18.11,0,36.19a1.73,1.73,0,0,1-.21.54Z"/><path d="M522.6,429.85c0-.2,0-.41,0-.61V392.63h2.1v.49q0,18.09,0,36.18a2,2,0,0,1-.18.55Z"/><path d="M541.79,429.85c0-.2,0-.41,0-.61V392.62h2.09v.53q0,18.08,0,36.15a2.34,2.34,0,0,1-.14.55Z"/><path d="M546.05,429.85c0-.2,0-.41,0-.61V392.62h2.09v.53q0,18.08,0,36.15a2.34,2.34,0,0,1-.14.55Z"/><path d="M550.31,429.85c0-.2,0-.41,0-.61V392.62h2.09V429.3a3,3,0,0,1-.14.55Z"/></g></svg>