<svg xmlns="http://www.w3.org/2000/svg" xmlns:xlink="http://www.w3.org/1999/xlink" viewBox="0 0 694.64 500"><defs><style>.cls-1{fill:#fff;}.cls-2{opacity:0.5;}.cls-3{fill:url(#무제_그라디언트_52);}.cls-4{fill:#688c3f;}.cls-5{fill:#7ba04d;}.cls-6{fill:#ffe655;}.cls-7{fill:#fcd04b;}.cls-8{fill:#f2a90e;}.cls-9{fill:#fef72d;}.cls-10{fill:#654e25;}.cls-11{fill:#f9d80d;}.cls-12{fill:#806547;}.cls-13{fill:#434017;}.cls-14{fill:#ebffff;}.cls-15{fill:#ffbbae;}.cls-16{fill:#8c3699;}.cls-17{fill:#bd43ca;}.cls-18{fill:#350400;}.cls-19{fill:#4c6397;}.cls-20{fill:#ce4fe0;}.cls-21{fill:#946683;}.cls-22{fill:#263b77;}.cls-23{fill:#00d599;}.cls-24{fill:#db5067;}.cls-25{fill:#985113;}.cls-26{fill:#e64741;}.cls-27{fill:#221300;}.cls-28{fill:#fffdf4;}.cls-29{fill:none;stroke:#333;stroke-miterlimit:10;stroke-width:0.7px;}.cls-30{fill:#c1c0bf;}.cls-31{fill:#c6a467;}.cls-32{fill:#2f469b;}.cls-33{fill:#3a59af;}.cls-34{fill:#bdcf5f;}.cls-35{fill:#96b444;}.cls-36{fill:#9c6;}.cls-37{fill:#3f8cb9;}.cls-38{fill:#9bcc60;}</style><linearGradient id="무제_그라디언트_52" x1="347.26" y1="351.41" x2="347.26" y2="121.61" gradientUnits="userSpaceOnUse"><stop offset="0.14" stop-color="#fff"/><stop offset="0.22" stop-color="#fefbf1"/><stop offset="0.39" stop-color="#fbf1cb"/><stop offset="0.47" stop-color="#f9ecb7"/><stop offset="0.59" stop-color="#f9e49e"/><stop offset="0.69" stop-color="#f9df8c"/><stop offset="1" stop-color="#fcdc56"/></linearGradient></defs><g id="레이어_3" data-name="레이어 3"><rect class="cls-1" x="40.73" y="125.19" width="613.18" height="249.96"/><g class="cls-2"><rect class="cls-3" x="40.66" y="126.28" width="613.19" height="248.7"/><path class="cls-4" d="M461,334.53H357c-.9,0-1.35-.58-.72-.93,8.49-4.68,46.32-25.32,52.55-25.33,6.52,0,26,14,29.66,14.47,3.29.4,18,7.56,23.27,10.89C462.37,334,461.89,334.53,461,334.53Z"/><path class="cls-4" d="M653.61,333.67h-230s113.28-74.08,130.13-74.09c15.65,0,62.44,39.55,71.16,40.81,4.27.61,16.37,6.8,28.75,13.84"/><path class="cls-5" d="M653.85,314.23c-12.42-7-24.54-13.23-28.82-13.84-8.74-1.26-55.64-40.82-71.33-40.81l42.69,74.09h57.46"/><path class="cls-4" d="M329.34,335.39H485c1.35,0,2-.59,1.09-.94-12.72-4.67-69.35-25.31-78.68-25.32-9.76,0-39,14-44.4,14.46-4.93.41-27,7.56-34.84,10.89C327.34,334.84,328,335.39,329.34,335.39Z"/><path class="cls-4" d="M41,334.53H385.41s-169.59-74.08-194.82-74.1c-23.42,0-93.47,39.56-106.52,40.82-6.4.61-24.51,6.8-43,13.84"/><path class="cls-5" d="M40.66,315.09c18.59-7,36.75-13.23,43.15-13.84,13.09-1.26,83.3-40.83,106.78-40.82l-63.91,74.1h-86"/><rect class="cls-6" x="40.66" y="333.48" width="613.19" height="41.5"/><path class="cls-1" d="M478.52,208.19q-20,0-39.93,0c-7,0-11.53-3.44-11.94-9.24-.41-6,3.31-10,10.5-10.51,3.33-.22,2.6-2.52,3-4.1,3.4-12.9,16.91-18.65,28.23-11.86a17.29,17.29,0,0,1,8.15,10.87c.53,2.08,1,2.81,3.61,2.27,5.67-1.21,9,.74,11.52,6.17.86,1.88,1.57,2.63,3.43,1.43a3.89,3.89,0,0,1,.88-.46c5-1.6,8.21,2.82,12,3.63s8.42-2.19,12.45,1.17a9.71,9.71,0,0,1,3.2,4.93c1.29,4.58.55,5.67-4.21,5.68C505.81,208.2,492.16,208.18,478.52,208.19Z"/><path class="cls-1" d="M595.52,176.9q14.61,0,29.22,0c5.16,0,8.44-2.51,8.74-6.75s-2.42-7.35-7.69-7.7c-2.43-.16-1.89-1.84-2.2-3-2.49-9.44-12.37-13.64-20.65-8.67a12.6,12.6,0,0,0-6,7.95c-.39,1.52-.77,2.06-2.65,1.66-4.15-.88-6.61.54-8.43,4.52-.63,1.37-1.15,1.92-2.51,1a2.78,2.78,0,0,0-.64-.33c-3.68-1.18-6,2.06-8.8,2.65s-6.16-1.6-9.12.86a7.05,7.05,0,0,0-2.33,3.6c-1,3.36-.41,4.15,3.07,4.16C575.56,176.91,585.54,176.89,595.52,176.9Z"/><path class="cls-7" d="M613.59,184.63h17.25c3,0,5-1.37,5.16-3.7s-1.43-4-4.54-4.21c-1.44-.09-1.12-1-1.3-1.64a8.26,8.26,0,0,0-12.2-4.76,7,7,0,0,0-3.52,4.36c-.22.84-.45,1.13-1.56.91-2.45-.48-3.9.3-5,2.47-.37.76-.67,1.06-1.48.58a1.35,1.35,0,0,0-.38-.19c-2.17-.64-3.54,1.13-5.19,1.46s-3.64-.88-5.39.46a4,4,0,0,0-1.38,2c-.55,1.84-.23,2.27,1.82,2.28Z"/><path class="cls-8" d="M428.32,215.81H406.43c-3.86,0-6.32-1.74-6.54-4.69s1.81-5.11,5.76-5.35c1.82-.11,1.42-1.28,1.65-2.08,1.86-6.56,9.26-9.48,15.47-6a8.87,8.87,0,0,1,4.46,5.53c.29,1.05.57,1.42,2,1.15,3.11-.61,5,.38,6.32,3.14.47,1,.86,1.33,1.88.72a2.12,2.12,0,0,1,.48-.23c2.76-.82,4.5,1.43,6.59,1.85s4.62-1.12,6.83.59a4.89,4.89,0,0,1,1.75,2.5c.71,2.33.3,2.89-2.3,2.89Z"/><path class="cls-9" d="M155.75,291.24a31.21,31.21,0,0,1-4.84-.14c-7.64-.86-21.56-2.38-31.77-12,0,0-9.86-8.34,0-16.55,2.15-1.79,2.92-7.42,3-9.59.09-4.32-2.86-13.26,10.28-20.62,4-2.21,22-3.37,27.43-2.8,6.87.71,11.59,3.51,21,13.09a23.51,23.51,0,0,0,3.7,3.09c3,2,8.46,6.64,6.64,13.05-.54,1.9.88,5.21,2.25,7C198.54,272.37,199.34,289,155.75,291.24Z"/><path class="cls-10" d="M170.9,265.62a2.62,2.62,0,0,0-3.21.73,46.77,46.77,0,0,1-10.05,10.41V254.45a2.39,2.39,0,0,0-4.7,0v29.1a46.34,46.34,0,0,1-10.06-10.41,2.61,2.61,0,0,0-3.2-.73,1.76,1.76,0,0,0-.88,2.64,50.67,50.67,0,0,0,14.14,13.59v6.9l-1.2,41.21h7.09l-1.19-40.27V281.85a50.81,50.81,0,0,0,14.14-13.59A1.77,1.77,0,0,0,170.9,265.62Z"/><path class="cls-11" d="M245.39,291.24a31.25,31.25,0,0,1-4.84-.14c-7.63-.86-21.56-2.38-31.76-12,0,0-9.87-8.34,0-16.55,2.15-1.79,2.92-7.42,3-9.59.09-4.32-2.86-13.26,10.27-20.62,4-2.21,22-3.37,27.44-2.8,6.87.71,11.59,3.51,21,13.09a23.59,23.59,0,0,0,3.71,3.09c2.94,2,8.46,6.64,6.64,13.05-.54,1.9.88,5.21,2.25,7C288.19,272.37,289,289,245.39,291.24Z"/><path class="cls-10" d="M260.54,265.62a2.6,2.6,0,0,0-3.2.73,46.78,46.78,0,0,1-10.06,10.41V254.45a2.39,2.39,0,0,0-4.7,0v29.1a46.55,46.55,0,0,1-10.05-10.41,2.62,2.62,0,0,0-3.21-.73,1.77,1.77,0,0,0-.88,2.64,50.81,50.81,0,0,0,14.14,13.59v6.9l-1.19,41.21h7.09l-1.2-40.27V281.85a50.67,50.67,0,0,0,14.14-13.59A1.76,1.76,0,0,0,260.54,265.62Z"/><path class="cls-11" d="M40.66,286.5c7.56,3.19,15.23,4,20.21,4.6a31.25,31.25,0,0,0,4.84.14c43.6-2.27,42.8-18.87,37.63-25.52-1.37-1.76-2.79-5.07-2.25-7,1.82-6.41-3.7-11.08-6.64-13.05a23.59,23.59,0,0,1-3.71-3.09c-9.37-9.58-14.09-12.38-21-13.09-5.47-.57-23.48.59-27.44,2.8-.59.34-1.15.67-1.68,1Z"/><path class="cls-10" d="M80.86,265.62a2.6,2.6,0,0,0-3.2.73A46.78,46.78,0,0,1,67.6,276.76V254.45a2.39,2.39,0,0,0-4.7,0v29.1a46.55,46.55,0,0,1-10-10.41,2.62,2.62,0,0,0-3.21-.73,1.77,1.77,0,0,0-.88,2.64A50.81,50.81,0,0,0,62.9,288.64v6.9l-1.19,41.21H68.8l-1.2-40.27V281.85a50.67,50.67,0,0,0,14.14-13.59A1.76,1.76,0,0,0,80.86,265.62Z"/><path class="cls-11" d="M654,230.22a23.74,23.74,0,0,0-3.86-.7c-5.47-.57-23.48.59-27.44,2.8-13.13,7.36-10.18,16.3-10.27,20.62-.05,2.17-.82,7.8-3,9.59-9.87,8.21,0,16.55,0,16.55,10.2,9.64,24.13,11.16,31.76,12a31.25,31.25,0,0,0,4.84.14q4.24-.23,7.93-.61Z"/><path class="cls-9" d="M78,310.88a4,4,0,0,0,4.1-2.75c.11-.27.24-.56.08-.81s-.57-.16-.86-.13c-.92.12-.93.13-.72-.77.06-.3.27-.63,0-.86s-.59,0-.88.06a4.45,4.45,0,0,0-3,4.65C76.79,311.3,77.61,310.69,78,310.88Z"/><path class="cls-9" d="M97.14,310.54a4.17,4.17,0,0,0,3.68-2.25c.28-.46.16-.67-.39-.63-.17,0-.34,0-.51,0-.53,0-.65-.17-.42-.66.15-.31.49-.67.23-1s-.72-.15-1.12-.07a4,4,0,0,0-3.38,3.68c0,.39.1.52.41.59Z"/><path class="cls-9" d="M89.71,303.92a4,4,0,0,0-2.93-4c-.35-.1-.77-.24-1,0s0,.59.11.86c.26.69,0,.8-.59.62-.28-.08-.68-.18-.88.08s0,.59.16.86a4,4,0,0,0,4.78,2.23C89.77,304.52,89.7,304.22,89.71,303.92Z"/><path class="cls-9" d="M168.68,313.62a4,4,0,0,0,1-4.84c-.11-.26-.22-.57-.51-.63s-.52.29-.7.51c-.58.74-.57.75-1.06,0-.17-.26-.26-.64-.62-.61s-.44.4-.58.67a4.46,4.46,0,0,0,1.14,5.43C168.11,314.78,168.26,313.76,168.68,313.62Z"/><path class="cls-9" d="M182,299.89a4.19,4.19,0,0,0,1-4.19c-.13-.52-.36-.59-.72-.17-.11.13-.25.23-.36.36-.36.39-.58.34-.76-.17-.12-.32-.13-.83-.54-.86s-.61.41-.84.74a4,4,0,0,0,.2,5,.44.44,0,0,0,.7.12Z"/><path class="cls-9" d="M172.07,300.44a4,4,0,0,0-4.88-.75c-.32.18-.71.37-.73.75s.42.43.69.54c.67.3.59.53,0,.85-.25.15-.6.35-.56.68s.44.39.72.49a4,4,0,0,0,5-1.79C172.53,300.82,172.28,300.66,172.07,300.44Z"/><path class="cls-9" d="M52.11,302.32a4,4,0,0,0,4.1-2.75c.11-.27.24-.56.08-.81s-.57-.17-.86-.13c-.92.11-.93.13-.72-.77.06-.3.27-.63,0-.87s-.59,0-.88.07a4.46,4.46,0,0,0-3,4.65C50.89,302.74,51.71,302.12,52.11,302.32Z"/><path class="cls-9" d="M50.42,312.37a4.19,4.19,0,0,0-.56-4.28c-.3-.44-.55-.42-.73.1-.06.16-.15.3-.21.46-.19.5-.42.53-.77.12-.23-.26-.42-.72-.81-.61s-.43.6-.52,1a4,4,0,0,0,2,4.59.45.45,0,0,0,.7-.13Z"/><path class="cls-9" d="M48.49,296.27a4,4,0,0,0-2.92-4c-.36-.1-.77-.24-1,0s0,.59.1.86c.27.69.05.79-.59.62-.28-.08-.67-.18-.88.08s0,.59.17.86A4,4,0,0,0,48.1,297C48.56,296.86,48.48,296.57,48.49,296.27Z"/><path class="cls-9" d="M45.52,323.77a4,4,0,0,0,2.28-4.38c-.07-.36-.12-.79-.48-.93s-.53.26-.73.47c-.49.55-.69.4-.81-.25-.06-.29-.14-.69-.46-.76s-.51.3-.7.53a4.05,4.05,0,0,0,.1,5.27C45,324.09,45.25,323.9,45.52,323.77Z"/><path class="cls-9" d="M224,317.05a4,4,0,0,0,4.1-2.75c.11-.27.25-.56.09-.81s-.57-.17-.86-.13c-.93.11-.93.13-.73-.77.07-.3.27-.63,0-.87s-.59,0-.88.07a4.45,4.45,0,0,0-3,4.65C222.75,317.47,223.57,316.85,224,317.05Z"/><path class="cls-9" d="M234,308.25a4.15,4.15,0,0,0-.56-4.27c-.3-.44-.55-.42-.73.1-.06.16-.15.3-.21.46-.19.49-.42.53-.77.12s-.42-.73-.81-.61-.43.6-.52,1a4,4,0,0,0,2,4.59.45.45,0,0,0,.7-.13C233.4,309,233.75,308.55,234,308.25Z"/><path class="cls-9" d="M230.85,299.57a4,4,0,0,0-2.93-4c-.35-.09-.77-.24-1,0s0,.59.1.86c.27.68.05.79-.59.61-.28-.07-.67-.18-.87.08s0,.59.16.87a4,4,0,0,0,4.78,2.22C230.91,300.16,230.84,299.87,230.85,299.57Z"/><path class="cls-9" d="M233.07,326.16a4,4,0,0,0,2.28-4.38c-.07-.36-.12-.8-.48-.93s-.54.26-.73.47c-.5.54-.69.39-.81-.26-.06-.28-.14-.68-.46-.75s-.52.29-.7.53a4,4,0,0,0,.1,5.26C232.57,326.47,232.8,326.28,233.07,326.16Z"/><path class="cls-9" d="M145.06,320.51a4,4,0,0,1-3-3.91c0-.29,0-.61.18-.79s.59,0,.86.14c.84.41.84.42.93-.5,0-.3,0-.68.29-.81s.56.16.81.34a4.43,4.43,0,0,1,1.38,5.37C146.07,321.3,145.49,320.45,145.06,320.51Z"/><path class="cls-9" d="M127,314.09a4.15,4.15,0,0,1-2.77-3.3c-.12-.52.06-.69.57-.47.15.06.32.09.48.15.49.2.67,0,.61-.48,0-.34-.26-.8.09-1s.74.09,1.08.29a4,4,0,0,1,2,4.57c-.08.39-.26.46-.57.42Z"/><path class="cls-9" d="M136.18,310.19a4,4,0,0,1,4-2.84c.37,0,.8,0,1,.36s-.19.56-.38.78c-.47.57-.29.74.37.77.29,0,.69.05.8.36s-.22.55-.43.77a4,4,0,0,1-5.23.58C135.93,310.73,136.09,310.48,136.18,310.19Z"/><path class="cls-9" d="M133,303a4,4,0,0,0,.13-4.94c-.22-.29-.46-.66-.85-.62s-.36.47-.44.74c-.21.71-.45.66-.85.13-.17-.23-.42-.56-.74-.47s-.33.48-.4.78a4,4,0,0,0,2.42,4.68C132.65,303.47,132.77,303.2,133,303Z"/><path class="cls-9" d="M263.55,328.22a4,4,0,0,1,.63-4.89c.19-.22.39-.47.68-.44s.41.44.51.71c.31.88.3.89,1,.31.24-.2.45-.53.78-.38s.29.52.33.82a4.44,4.44,0,0,1-2.82,4.78C263.71,329.5,263.9,328.49,263.55,328.22Z"/><path class="cls-9" d="M255.33,310.94a4.16,4.16,0,0,1,.37-4.29c.29-.46.53-.45.74.06.06.16.16.3.23.45.21.49.44.51.77.09.22-.27.39-.74.78-.65s.46.59.56,1a4,4,0,0,1-1.79,4.68.44.44,0,0,1-.7-.11C255.92,311.69,255.55,311.22,255.33,310.94Z"/><path class="cls-9" d="M264.56,314.65a4,4,0,0,1,4.87.85c.24.27.55.58.44.95s-.53.26-.82.29c-.73.06-.73.31-.29.8.2.22.46.52.32.82s-.54.23-.84.24a4,4,0,0,1-4.12-3.29C264,314.86,264.3,314.79,264.56,314.65Z"/><path class="cls-9" d="M267.39,307.27a4,4,0,0,0,3.58-3.41c0-.36.13-.79-.16-1s-.59.08-.84.22c-.65.35-.78.14-.69-.51,0-.29.1-.69-.19-.86s-.58.11-.83.27a4,4,0,0,0-1.61,5C266.81,307.4,267.09,307.3,267.39,307.27Z"/><path class="cls-9" d="M637.16,311.78a4,4,0,0,1-4.1-2.74c-.11-.27-.24-.56-.08-.81s.57-.17.86-.13c.92.11.93.13.72-.78-.06-.29-.27-.63,0-.86s.59,0,.89.07a4.44,4.44,0,0,1,3,4.65C638.38,312.21,637.56,311.59,637.16,311.78Z"/><path class="cls-9" d="M627.61,299a4.19,4.19,0,0,1,.56-4.28c.3-.44.55-.42.73.1.06.16.15.3.21.46.19.49.42.53.77.12s.42-.73.81-.61.43.6.52,1a4,4,0,0,1-2,4.59.45.45,0,0,1-.7-.13Z"/><path class="cls-9" d="M628.38,321.36A4,4,0,0,1,626.1,317c.06-.35.12-.79.48-.93s.53.26.73.48c.49.54.69.39.81-.26,0-.29.14-.69.46-.75s.51.29.7.53a4,4,0,0,1-.11,5.26C628.88,321.68,628.65,321.49,628.38,321.36Z"/><path class="cls-9" d="M338.09,291.24a31.21,31.21,0,0,1-4.84-.14c-7.63-.86-21.56-2.38-31.77-12,0,0-9.86-8.34,0-16.55,2.15-1.79,2.92-7.42,3-9.59.09-4.32-2.86-13.26,10.27-20.62,4-2.21,22-3.37,27.44-2.8,6.86.71,11.59,3.51,21,13.09a24,24,0,0,0,3.7,3.09c2.95,2,8.47,6.64,6.65,13.05-.54,1.9.88,5.21,2.24,7C380.89,272.37,381.68,289,338.09,291.24Z"/><path class="cls-10" d="M353.24,265.62a2.6,2.6,0,0,0-3.2.73A47,47,0,0,1,340,276.76V254.45a2.39,2.39,0,0,0-4.7,0v29.1a46.34,46.34,0,0,1-10.06-10.41,2.61,2.61,0,0,0-3.2-.73,1.77,1.77,0,0,0-.88,2.64,50.67,50.67,0,0,0,14.14,13.59v6.9l-1.2,41.21h7.1L340,296.48V281.85a50.67,50.67,0,0,0,14.14-13.59A1.76,1.76,0,0,0,353.24,265.62Z"/><path class="cls-11" d="M427.74,291.24a31.21,31.21,0,0,1-4.84-.14c-7.63-.86-21.56-2.38-31.77-12,0,0-9.86-8.34,0-16.55,2.15-1.79,2.92-7.42,3-9.59.09-4.32-2.86-13.26,10.28-20.62,4-2.21,22-3.37,27.44-2.8,6.86.71,11.59,3.51,21,13.09a23.51,23.51,0,0,0,3.7,3.09c2.95,2,8.47,6.64,6.65,13.05-.54,1.9.87,5.21,2.24,7C470.54,272.37,471.33,289,427.74,291.24Z"/><path class="cls-10" d="M442.89,265.62a2.62,2.62,0,0,0-3.21.73,46.77,46.77,0,0,1-10.05,10.41V254.45a2.39,2.39,0,0,0-4.7,0v29.1a46.34,46.34,0,0,1-10.06-10.41,2.61,2.61,0,0,0-3.2-.73,1.76,1.76,0,0,0-.88,2.64,50.67,50.67,0,0,0,14.14,13.59v6.9l-1.2,41.21h7.1l-1.2-40.27V281.85a50.81,50.81,0,0,0,14.14-13.59A1.76,1.76,0,0,0,442.89,265.62Z"/><path class="cls-9" d="M437,304.33a4,4,0,0,0,4.1-2.75c.11-.27.25-.56.09-.8s-.58-.17-.86-.14c-.93.12-.94.13-.73-.77.07-.3.27-.63,0-.86s-.59,0-.88.07a4.42,4.42,0,0,0-3,4.64C435.8,304.75,436.62,304.14,437,304.33Z"/><path class="cls-9" d="M456.15,304a4.17,4.17,0,0,0,3.68-2.25c.28-.45.16-.67-.39-.63-.17,0-.34,0-.51,0-.52,0-.65-.17-.42-.66.15-.3.5-.67.23-1s-.72-.15-1.11-.07a4,4,0,0,0-3.39,3.68c0,.4.1.52.41.59Z"/><path class="cls-9" d="M448.72,297.38a4,4,0,0,0-2.93-4c-.35-.1-.76-.24-1.05,0s0,.6.11.87c.27.68,0,.79-.59.61-.28-.08-.68-.18-.88.08s0,.59.17.87a4,4,0,0,0,4.77,2.22C448.78,298,448.71,297.68,448.72,297.38Z"/><path class="cls-9" d="M421.29,320a4,4,0,0,1-4.1-2.75c-.11-.26-.25-.56-.09-.8s.58-.17.86-.14c.93.12.94.13.73-.77-.07-.3-.27-.63,0-.86s.59,0,.88.07a4.42,4.42,0,0,1,3,4.64C422.5,320.42,421.68,319.81,421.29,320Z"/><path class="cls-9" d="M402.16,319.66a4.16,4.16,0,0,1-3.68-2.25c-.28-.45-.16-.67.39-.63.16,0,.34,0,.5,0,.53,0,.66-.17.43-.65-.15-.31-.5-.68-.23-1s.72-.15,1.11-.07a4,4,0,0,1,3.39,3.68c0,.4-.1.52-.41.59Z"/><path class="cls-9" d="M409.59,313.05a4,4,0,0,1,2.93-4c.35-.1.76-.24,1,0s0,.6-.1.87c-.27.68,0,.79.59.61.28-.08.67-.18.88.08s0,.59-.17.87a4,4,0,0,1-4.77,2.22C409.53,313.64,409.6,313.35,409.59,313.05Z"/><path class="cls-9" d="M404.24,307.23a4,4,0,0,0-1.46-4.72c-.3-.21-.64-.48-1-.32s-.2.56-.19.85c0,.73-.21.76-.76.38-.24-.16-.58-.39-.85-.21s-.16.57-.13.87a4,4,0,0,0,3.78,3.67C404.1,307.81,404.13,307.51,404.24,307.23Z"/><path class="cls-9" d="M357.33,310a4,4,0,0,1-4.1-2.75c-.11-.27-.25-.56-.08-.8s.57-.17.85-.14c.93.12.94.13.73-.77-.06-.3-.27-.63,0-.86s.59,0,.88.07a4.42,4.42,0,0,1,3,4.64C358.55,310.44,357.73,309.83,357.33,310Z"/><path class="cls-9" d="M347.78,297.18a4.14,4.14,0,0,1,.56-4.27c.3-.44.55-.43.73.09.05.16.15.31.21.47.19.49.42.52.77.11.22-.25.42-.72.81-.61s.42.61.52,1a4,4,0,0,1-2,4.6.44.44,0,0,1-.7-.14Z"/><path class="cls-9" d="M365.85,318a4,4,0,0,1,2.93-4c.35-.1.76-.24,1.05,0s0,.6-.11.87c-.27.68-.05.79.59.61.28-.07.67-.18.88.08s0,.59-.17.87a4,4,0,0,1-4.77,2.22C365.79,318.55,365.86,318.26,365.85,318Z"/><path class="cls-9" d="M348.54,319.6a4,4,0,0,1-2.28-4.38c.07-.36.13-.79.49-.93s.53.26.73.47c.49.54.69.39.81-.26,0-.28.13-.68.46-.75s.51.29.7.53a4,4,0,0,1-.11,5.27C349.05,319.92,348.82,319.72,348.54,319.6Z"/><path class="cls-9" d="M309.11,324.7a4,4,0,0,0,2.63-4.17c0-.29,0-.62-.24-.78s-.59.08-.84.23c-.8.48-.8.5-1-.41-.06-.3,0-.69-.36-.79s-.55.22-.78.42a4.44,4.44,0,0,0-.87,5.48C308.18,325.58,308.67,324.68,309.11,324.7Z"/><path class="cls-9" d="M326.46,316.63a4.16,4.16,0,0,0,2.45-3.55c.07-.53-.12-.68-.61-.42-.15.08-.31.13-.46.2-.48.24-.67.12-.65-.42,0-.35.17-.82-.19-1s-.73.16-1.05.39a4,4,0,0,0-1.6,4.74c.12.38.3.43.61.37Z"/><path class="cls-9" d="M317,313.6a4,4,0,0,0-4.29-2.45c-.35.05-.79.09-.94.45s.24.54.44.74c.52.52.37.71-.29.81-.28,0-.68.1-.77.43s.28.52.51.72a4,4,0,0,0,5.26.09C317.28,314.11,317.1,313.87,317,313.6Z"/><path class="cls-9" d="M319.51,306.11a4.05,4.05,0,0,1-.58-4.91c.19-.31.4-.69.78-.7s.41.44.51.7c.28.69.51.62.85.05.16-.25.37-.59.7-.54s.38.46.47.74a4,4,0,0,1-2,4.89C319.87,306.58,319.72,306.32,319.51,306.11Z"/><path class="cls-10" d="M654,277.31a49.1,49.1,0,0,1-6,4.54v14.63l1.2,40.27h-7.1l1.2-41.21v-6.9a50.81,50.81,0,0,1-14.14-13.59,1.77,1.77,0,0,1,.88-2.64,2.62,2.62,0,0,1,3.21.73,46.33,46.33,0,0,0,10,10.41v-29.1a2.39,2.39,0,0,1,4.7,0v22.31a48.24,48.24,0,0,0,6-5.45Z"/><rect class="cls-12" x="236.48" y="342.13" width="18.37" height="4.63" transform="translate(-98.78 590.12) rotate(-90)"/><rect class="cls-12" x="251.43" y="342.13" width="18.37" height="4.63" transform="translate(-83.84 605.06) rotate(-90)"/><rect class="cls-12" x="206.73" y="342.13" width="18.37" height="4.63" transform="translate(-128.54 560.36) rotate(-90)"/><rect class="cls-12" x="221.67" y="342.13" width="18.37" height="4.63" transform="translate(-113.59 575.3) rotate(-90)"/><rect class="cls-12" x="176.26" y="342.13" width="18.37" height="4.63" transform="translate(-159.01 529.89) rotate(-90)"/><rect class="cls-12" x="191.2" y="342.13" width="18.37" height="4.63" transform="translate(-144.06 544.83) rotate(-90)"/><rect class="cls-12" x="145.79" y="342.13" width="18.37" height="4.63" transform="translate(-189.48 499.42) rotate(-90)"/><rect class="cls-12" x="160.73" y="342.13" width="18.37" height="4.63" transform="translate(-174.53 514.36) rotate(-90)"/><rect class="cls-12" x="115.32" y="342.13" width="18.37" height="4.63" transform="translate(-219.95 468.95) rotate(-90)"/><rect class="cls-12" x="130.26" y="342.13" width="18.37" height="4.63" transform="translate(-205 483.89) rotate(-90)"/><rect class="cls-12" x="84.85" y="342.13" width="18.37" height="4.63" transform="translate(-250.42 438.48) rotate(-90)"/><rect class="cls-12" x="99.79" y="342.13" width="18.37" height="4.63" transform="translate(-235.47 453.42) rotate(-90)"/><rect class="cls-12" x="54.38" y="342.13" width="18.37" height="4.63" transform="translate(-280.89 408.01) rotate(-90)"/><rect class="cls-12" x="69.32" y="342.13" width="18.37" height="4.63" transform="translate(-265.94 422.95) rotate(-90)"/><rect class="cls-12" x="38.85" y="342.13" width="18.37" height="4.63" transform="translate(-296.41 392.48) rotate(-90)"/><rect class="cls-12" x="266.37" y="342.13" width="18.37" height="4.63" transform="translate(-68.9 620) rotate(-90)"/><rect class="cls-12" x="281.31" y="342.13" width="18.37" height="4.63" transform="translate(-53.96 634.94) rotate(-90)"/><rect class="cls-12" x="296.25" y="342.13" width="18.37" height="4.63" transform="translate(-39.01 649.88) rotate(-90)"/><rect class="cls-12" x="311.19" y="342.13" width="18.37" height="4.63" transform="translate(-24.07 664.82) rotate(-90)"/><rect class="cls-12" x="326.13" y="342.13" width="18.37" height="4.63" transform="translate(-9.13 679.76) rotate(-90)"/><rect class="cls-12" x="341.07" y="342.13" width="18.37" height="4.63" transform="translate(5.81 694.71) rotate(-90)"/><rect class="cls-12" x="356.01" y="342.13" width="18.37" height="4.63" transform="translate(20.75 709.65) rotate(-90)"/><rect class="cls-12" x="370.96" y="342.13" width="18.37" height="4.63" transform="translate(35.69 724.59) rotate(-90)"/><rect class="cls-12" x="385.9" y="342.13" width="18.37" height="4.63" transform="translate(50.63 739.53) rotate(-90)"/><rect class="cls-12" x="400.84" y="342.13" width="18.37" height="4.63" transform="translate(65.57 754.47) rotate(-90)"/><rect class="cls-12" x="415.78" y="342.13" width="18.37" height="4.63" transform="translate(80.51 769.41) rotate(-90)"/><rect class="cls-12" x="430.72" y="342.13" width="18.37" height="4.63" transform="translate(95.46 784.35) rotate(-90)"/><rect class="cls-12" x="445.66" y="342.13" width="18.37" height="4.63" transform="translate(110.4 799.29) rotate(-90)"/><rect class="cls-12" x="460.6" y="342.13" width="18.37" height="4.63" transform="translate(125.34 814.23) rotate(-90)"/><rect class="cls-12" x="475.54" y="342.13" width="18.37" height="4.63" transform="translate(140.28 829.18) rotate(-90)"/><rect class="cls-12" x="490.49" y="342.13" width="18.37" height="4.63" transform="translate(155.22 844.12) rotate(-90)"/><rect class="cls-12" x="505.43" y="342.13" width="18.37" height="4.63" transform="translate(170.16 859.06) rotate(-90)"/><rect class="cls-12" x="520.37" y="342.13" width="18.37" height="4.63" transform="translate(185.1 874) rotate(-90)"/><rect class="cls-12" x="535.31" y="342.13" width="18.37" height="4.63" transform="translate(200.04 888.94) rotate(-90)"/><rect class="cls-12" x="550.25" y="342.13" width="18.37" height="4.63" transform="translate(214.99 903.88) rotate(-90)"/><rect class="cls-12" x="565.19" y="342.13" width="18.37" height="4.63" transform="translate(229.93 918.82) rotate(-90)"/><rect class="cls-12" x="580.13" y="342.13" width="18.37" height="4.63" transform="translate(244.87 933.76) rotate(-90)"/><rect class="cls-12" x="595.07" y="342.13" width="18.37" height="4.63" transform="translate(259.81 948.71) rotate(-90)"/><rect class="cls-12" x="611.46" y="342.13" width="18.37" height="4.63" transform="translate(276.2 965.09) rotate(-90)"/><rect class="cls-12" x="626.4" y="342.13" width="18.37" height="4.63" transform="translate(291.14 980.04) rotate(-90)"/><rect class="cls-12" x="642.51" y="342.13" width="18.37" height="4.63" transform="translate(307.25 996.15) rotate(-90)"/><rect class="cls-13" x="40.63" y="333.48" width="613.39" height="4.63"/><rect class="cls-13" x="40.63" y="350.31" width="613.39" height="4.63"/><rect class="cls-14" x="569.61" y="304.49" width="37.95" height="2.99" transform="translate(282.6 894.57) rotate(-90)"/><polygon class="cls-15" points="555 290.85 552.26 292.39 551.1 295.08 552.2 295.98 553.98 294.2 556.18 293.22 555 290.85"/><polygon class="cls-16" points="566.17 279.09 566.99 286.63 554.66 290.82 556.06 293.86 570.61 290.59 572.28 279.84 570.43 275.88 567.58 276.19 566.17 279.09"/><path class="cls-15" d="M572.28,256.79s-5.27-3-7.09,1.93c0,0-4,6.46,3.36,7.66l.54,4.18s-.34,2.54,2.7.72l.49-5.47"/><path class="cls-17" d="M569.09,270.56s-8.5,1.15,0,22.86c0,0,7.5,5.48,12.91,2,0,0,1.9-9.29-5.15-24.28l-3.67-2.29-.9-.45s-2.38,2-3.19,2.16Z"/><path class="cls-18" d="M570,254.17s-5-.55-5.79,4.34c0,0,2.45,2.89,7.57,2.56,0,0,.44,8.17-.84,11.06s2.39,3.9,2.39,3.9,3,2,4.84-1.56-2.17-11.12-1.33-14.57-1.34-6.17-3.06-6.12A36.49,36.49,0,0,0,570,254.17Z"/><path class="cls-19" d="M566.64,292.05S551.69,288,551,288c-2.84.09.11,18.73.11,18.73l3.56.61s1.81-8,1.81-9.32A12.61,12.61,0,0,0,556,295s16.52,8,21.3,8,5-7.93,5-7.93"/><path class="cls-20" d="M567.9,278.09l1.6,9.34-12.22,5.21,1.65,3,14.56-4.45.56-12.78a2,2,0,0,0-.26-1.09l-1.19-2.11a2,2,0,0,0-2.15-1l-.33.07a2,2,0,0,0-1.52,1.25L568,277A1.93,1.93,0,0,0,567.9,278.09Z"/><polygon class="cls-15" points="557.5 293.02 554.77 294.71 553.7 297.5 554.86 298.37 556.6 296.48 558.8 295.38 557.5 293.02"/><polygon class="cls-15" points="551.1 306.7 551.47 309.18 554.4 309.18 554.66 307.31 551.1 306.7"/><path class="cls-21" d="M551.47,309.18l-6.86,2.09h0a2.12,2.12,0,0,0,2.24,1.7c2.4-.19,6.41-.5,7.81-.67,2-.25-.26-3.12-.26-3.12Z"/><polygon class="cls-15" points="501.19 288.66 498.18 290.35 496.9 293.3 498.11 294.29 500.07 292.34 502.49 291.26 501.19 288.66"/><polygon class="cls-15" points="499.46 283.95 494.62 285.26 491.97 288.53 493.47 290.03 496.84 288.14 500.66 287.41 499.46 283.95"/><polygon class="cls-22" points="515.45 272.78 514.27 282.28 497.92 283.83 498.75 287.98 517.57 288.19 522.73 275.48 521.61 270.07 518.03 269.62 515.45 272.78"/><path class="cls-15" d="M520.18,251.22s-5.79-3.34-7.79,2.12c0,0-4.39,7.1,3.69,8.42l.59,4.6a6.74,6.74,0,0,0,6.55-.13l-.89-5.41s.1-.83.27-1.78a35.28,35.28,0,0,0,.41-4.72C523,253.45,520.18,251.22,520.18,251.22Z"/><rect class="cls-14" x="518.48" y="304.49" width="37.95" height="2.99" transform="translate(231.47 843.44) rotate(-90)"/><polygon class="cls-23" points="490.44 325.74 495.75 310.55 535.98 310.55 535.98 325.74 490.44 325.74"/><rect class="cls-24" x="510.16" y="302.28" width="24.23" height="5.33"/><rect class="cls-24" x="521.42" y="293.07" width="24.23" height="4.85" transform="translate(238.04 829.03) rotate(-90)"/><rect class="cls-14" x="498.84" y="309.12" width="30.25" height="2.99" transform="translate(203.34 824.58) rotate(-90)"/><rect class="cls-14" x="512.46" y="295.49" width="26.49" height="2.99" transform="translate(1051.42 593.98) rotate(-180)"/><rect class="cls-14" x="510.16" y="307.61" width="28.79" height="2.99" transform="translate(1049.11 618.21) rotate(-180)"/><path class="cls-25" d="M477.15,308.35h6.16a1.48,1.48,0,0,1,1.48,1.48v10.92a1.48,1.48,0,0,1-1.48,1.48h-6.16a0,0,0,0,1,0,0V308.35A0,0,0,0,1,477.15,308.35Z"/><path class="cls-14" d="M476,308.35h1.12a0,0,0,0,1,0,0v13.87a0,0,0,0,1,0,0H476a1.48,1.48,0,0,1-1.48-1.48V309.83A1.48,1.48,0,0,1,476,308.35Z"/><polygon class="cls-23" points="541.54 325.74 546.85 310.55 587.09 310.55 587.09 325.74 541.54 325.74"/><rect class="cls-25" x="495.14" y="325.74" width="77.49" height="3.69"/><path class="cls-26" d="M500.17,334.1a15.86,15.86,0,0,0-31.72,0Z"/><circle class="cls-27" cx="484.31" cy="334.1" r="10.83"/><circle class="cls-28" cx="484.31" cy="334.1" r="7.66"/><line class="cls-29" x1="484.31" y1="326.44" x2="484.31" y2="341.76"/><line class="cls-29" x1="476.65" y1="334.1" x2="491.97" y2="334.1"/><line class="cls-29" x1="478.89" y1="339.52" x2="489.72" y2="328.68"/><line class="cls-29" x1="489.72" y1="339.52" x2="478.89" y2="328.68"/><circle class="cls-26" cx="484.31" cy="334.1" r="2.47"/><rect class="cls-24" x="561.26" y="302.76" width="24.23" height="4.85"/><rect class="cls-24" x="572.52" y="293.07" width="24.23" height="4.85" transform="translate(289.15 880.13) rotate(-90)"/><rect class="cls-14" x="549.94" y="309.12" width="30.25" height="2.99" transform="translate(254.45 875.68) rotate(-90)"/><path class="cls-26" d="M595.29,334.1a15.87,15.87,0,0,0-31.73,0Z"/><circle class="cls-27" cx="579.43" cy="334.1" r="10.83"/><circle class="cls-28" cx="579.43" cy="334.1" r="7.66"/><line class="cls-29" x1="579.43" y1="326.44" x2="579.43" y2="341.76"/><line class="cls-29" x1="571.77" y1="334.1" x2="587.09" y2="334.1"/><line class="cls-29" x1="574.01" y1="339.52" x2="584.84" y2="328.68"/><line class="cls-29" x1="584.84" y1="339.52" x2="574.01" y2="328.68"/><circle class="cls-26" cx="579.43" cy="334.1" r="2.47"/><rect class="cls-14" x="563.56" y="295.49" width="26.49" height="2.99" transform="translate(1153.62 593.98) rotate(-180)"/><rect class="cls-14" x="561.26" y="307.61" width="28.79" height="2.99" transform="translate(1151.32 618.21) rotate(-180)"/><path class="cls-18" d="M512.21,250.28a6.65,6.65,0,0,0-1,3.5s1.31,1.64,4.9,1l1.57,2c-.06.52.35-1.39,1-1.28s2.61,1.22,0,2.73c0,0-.13,2.38,1.47,2.87s2.83,0,5-2.09c1.71-1.67,1.74-4.9.87-6.87,0,0,.29-3.31-2.14-4.29a15.21,15.21,0,0,0-6-.87c-2.66-.1-2.92,1.07-4,1.68A4.19,4.19,0,0,0,512.21,250.28Z"/><polygon class="cls-15" points="493.21 308.8 493.67 312.8 497.14 311.52 496.9 309.38 493.21 308.8"/><path class="cls-30" d="M493.47,312.22l-7.82,4.88h0a2.73,2.73,0,0,0,3.35.9c2.91-1.13,7.79-3,9.47-3.76,2.45-1.06-1.36-3.16-1.36-3.16Z"/><path class="cls-31" d="M513.12,290.43s-16.43-4.51-17.2-4.48c-3.12.09-5.55,23.5-5.55,23.5l7.64.46s2.65-12.69,2.65-14.19,1.83.26,1.83.26,17.11,6.56,22.36,6.57,5.9-10.67,5.9-10.67"/><polygon class="cls-15" points="500.84 290.16 496.67 291.48 494.49 294.42 495.85 295.67 498.72 293.9 502.01 293.13 500.84 290.16"/><path class="cls-32" d="M516.67,266.36s-3.2-1-2.2,22.3c0,.88-.68,5.39.17,5.6,2.87.72,9.68,2.08,14.47.29a2.61,2.61,0,0,0,1.64-2.67,83.8,83.8,0,0,0-7.86-27.66h0a3.65,3.65,0,0,1-3.28,1.59l-.91.1-.35.07c-.31.08-1,.25-1.68.38Z"/><path class="cls-33" d="M517.08,273.59,516.83,286l-17.05,3.69,1.4,4.27,19.87-2.14,3.89-16.34a2.63,2.63,0,0,0-.06-1.47l-1-3a2.69,2.69,0,0,0-2.53-1.83h-.44a2.67,2.67,0,0,0-2.27,1.24l-1.13,1.77A2.76,2.76,0,0,0,517.08,273.59Z"/><path class="cls-34" d="M575.23,348.66c-.28,1.84-2.33,1.5-3.3,2.75-4.44,5.75-5,11.81-1.92,18.19,1,2,.69,2.94-1.08,4.2-8.07,5.71-8.65,15.88-2.16,22.22,1.61,1.57,3.93,1.73,5.34,3.41-2.12.62-4.28.26-6.42.27-15,.05-30,0-45,0-4.32,0-7.84-1.47-9.93-5.41-1.81-3.41-2.11-7.45.53-10,3.36-3.29,3.62-6.13,2.77-10.6-1.41-7.4,4.93-13.51,12.66-13.16,2.34.1,3.33-.06,3.35-2.85a11.66,11.66,0,0,1,8.46-11,12.3,12.3,0,0,1,13.33,4.25c.53.66,1,1.35,1.64,2.16,2.89-4.32,6.46-7.13,11.81-6.9a11.93,11.93,0,0,1,6.36,2.08C572.9,349.07,574,349.43,575.23,348.66Z"/><path class="cls-35" d="M653.86,399.57q-40.54.06-81.08,0a2.8,2.8,0,0,1-.64-.13c-1.42-1.68-3.74-1.84-5.35-3.41-6.51-6.34-5.93-16.51,2.16-22.22,1.77-1.26,2.07-2.17,1.08-4.2-3.12-6.38-2.52-12.44,1.93-18.19,1-1.25,3-.91,3.31-2.75,4-3.3,8.57-3.82,13.44-3,1.36.23,2.1.55,2-1.45-.26-9.24,4.15-15.73,12-18.09,7.6-2.26,14.9.84,19.86,8.43.12.18.27.34.44.55,1.28-.23,1.38-1.52,1.95-2.32a17,17,0,0,1,29,1.56v44"/><path class="cls-34" d="M173.63,347.58c.2,1.35,1.64,1.1,2.32,2a12.14,12.14,0,0,1,1.35,13.28c-.69,1.48-.48,2.15.76,3.07a10.57,10.57,0,0,1,1.52,16.23c-1.14,1.15-2.76,1.26-3.75,2.49a15.16,15.16,0,0,0,4.51.19c10.53,0,21.06,0,31.59,0,3,0,5.52-1.08,7-4,1.27-2.49,1.48-5.43-.38-7.32-2.36-2.41-2.54-4.48-1.94-7.75,1-5.4-3.47-9.87-8.91-9.61-1.64.08-2.33,0-2.35-2.08a8.47,8.47,0,0,0-15.32-5c-.37.49-.72,1-1.15,1.58-2-3.16-4.54-5.21-8.3-5a8.16,8.16,0,0,0-4.47,1.52A2,2,0,0,1,173.63,347.58Z"/><path class="cls-4" d="M40.63,384.26c27,0,54.21,0,81.23,0a3.46,3.46,0,0,0,.64-.13c1.42-1.69,3.74-1.84,5.35-3.41,6.51-6.34,5.93-16.51-2.16-22.22-1.77-1.26-2.07-2.18-1.08-4.2,3.12-6.38,2.52-12.44-1.93-18.19-1-1.26-3-.91-3.31-2.76-4-3.29-8.57-3.82-13.44-3-1.36.24-2.1.56-2-1.45.26-9.23-4.15-15.72-12-18.08-7.6-2.27-14.9.83-19.86,8.43-.12.18-.27.33-.44.54-1.28-.22-1.38-1.51-2-2.31a17,17,0,0,0-29,1.56Z"/><path class="cls-35" d="M119.45,333.34c.28,1.85,2.32,1.5,3.3,2.76,4.44,5.75,5,11.81,1.92,18.19-1,2-.69,2.94,1.08,4.2,8.06,5.71,8.64,15.88,2.15,22.22-1.61,1.57-3.92,1.72-5.33,3.41,2.11.62,4.28.26,6.41.26,15,.06,30,0,45,.05,4.33,0,7.85-1.48,9.94-5.41,1.81-3.42,2.11-7.45-.54-10-3.36-3.29-3.61-6.12-2.76-10.59,1.41-7.4-4.94-13.52-12.67-13.17-2.34.11-3.32-.05-3.34-2.85a11.68,11.68,0,0,0-8.47-11,12.31,12.31,0,0,0-13.33,4.26c-.52.66-1,1.34-1.63,2.15-2.9-4.32-6.46-7.12-11.81-6.89a11.73,11.73,0,0,0-6.36,2.08C121.78,333.75,120.73,334.12,119.45,333.34Z"/></g><path d="M105.68,205.73a1.16,1.16,0,0,1-1.72,0l-2.33-2.18c-.46-.46-.41-.95.15-1.48a33.51,33.51,0,0,0,5.49-6.52,35.32,35.32,0,0,0,3.65-7.61,36.87,36.87,0,0,0,1.71-7.34,56.58,56.58,0,0,0,.37-8.13.72.72,0,0,1,.22-.52.69.69,0,0,1,.47-.22l4.4.15a.57.57,0,0,1,.44.22.77.77,0,0,1,.2.52,65.35,65.35,0,0,1-.89,11.17,22.74,22.74,0,0,0,1.48,4.77,32.08,32.08,0,0,0,2.45,4.59,34.32,34.32,0,0,0,3,4.08,24,24,0,0,0,3.26,3.16c.52.4.56.92.1,1.58l-2.08,2.52a1,1,0,0,1-.67.4,1.35,1.35,0,0,1-.91-.3,21.64,21.64,0,0,1-2.59-2.37,34.22,34.22,0,0,1-2.6-3.09,38.08,38.08,0,0,1-2.27-3.41,20.32,20.32,0,0,1-1.63-3.38,34.91,34.91,0,0,1-2,4c-.76,1.28-1.55,2.51-2.39,3.68a33.11,33.11,0,0,1-2.62,3.21A28.59,28.59,0,0,1,105.68,205.73Zm34.74,10.42H136a.56.56,0,0,1-.64-.64V189.37H125.2a.68.68,0,0,1-.47-.2.57.57,0,0,1-.22-.44v-3.51a.52.52,0,0,1,.22-.42.8.8,0,0,1,.47-.17h10.18V169.9a.57.57,0,0,1,.64-.64h4.4a.57.57,0,0,1,.64.64v45.61A.56.56,0,0,1,140.42,216.15Z"/><path d="M191.11,192.76a.77.77,0,0,1-.49.22H171.94v3.65H181a4.17,4.17,0,0,1,2.7.62,3.11,3.11,0,0,1,.66,2.3v5.68a3.07,3.07,0,0,1-.66,2.32,4.25,4.25,0,0,1-2.7.6h-20.8c-.26,0-.43,0-.49.12a1,1,0,0,0-.1.57v1.53c0,.3,0,.47.1.52a1.15,1.15,0,0,0,.54.07h24.56a.79.79,0,0,1,.49.2.6.6,0,0,1,.25.5v3.21a.63.63,0,0,1-.25.47.73.73,0,0,1-.44.22H157.37a3.73,3.73,0,0,1-2.62-.69,3.14,3.14,0,0,1-.69-2.28V207a3.22,3.22,0,0,1,.66-2.27,3.65,3.65,0,0,1,2.6-.69h21a.94.94,0,0,0,.49-.08c.07,0,.1-.24.1-.57V202c0-.36,0-.58-.1-.64s-.25-.1-.54-.1H154.6a.7.7,0,0,1-.47-.2.57.57,0,0,1-.22-.44v-3.31a.58.58,0,0,1,.22-.45.7.7,0,0,1,.47-.2h11.66V193H147.58a.61.61,0,0,1-.69-.69v-3.07a.79.79,0,0,1,.2-.52.66.66,0,0,1,.49-.22h43a.89.89,0,0,1,.74.74v3.07A.63.63,0,0,1,191.11,192.76Zm-6.37-15.64a6.07,6.07,0,0,1-1,3.43,8.64,8.64,0,0,1-3,2.69,17,17,0,0,1-4.87,1.78,34.29,34.29,0,0,1-13.29,0,17,17,0,0,1-4.87-1.78,8.73,8.73,0,0,1-3-2.69,6.07,6.07,0,0,1-1-3.43,5.79,5.79,0,0,1,1-3.31,9,9,0,0,1,3-2.67,17.28,17.28,0,0,1,4.87-1.78,34.82,34.82,0,0,1,13.29,0,17.28,17.28,0,0,1,4.87,1.78,8.9,8.9,0,0,1,3,2.67A5.79,5.79,0,0,1,184.74,177.12ZM169.18,173a21.24,21.24,0,0,0-4,.34,15.43,15.43,0,0,0-3.14.92,6,6,0,0,0-2.07,1.36,2.39,2.39,0,0,0-.75,1.68,2.27,2.27,0,0,0,.75,1.6,6.23,6.23,0,0,0,2.07,1.34,15.46,15.46,0,0,0,3.14.91,22.63,22.63,0,0,0,7.93,0,15.29,15.29,0,0,0,3.16-.91,6.39,6.39,0,0,0,2.08-1.34,2.3,2.3,0,0,0,.74-1.6,2.42,2.42,0,0,0-.74-1.68,6.1,6.1,0,0,0-2.08-1.36,15.27,15.27,0,0,0-3.16-.92A21.37,21.37,0,0,0,169.18,173Z"/><path d="M129.71,244.9a4.34,4.34,0,0,1-1.29.92,4.63,4.63,0,0,1-1.66.46,6,6,0,0,1-1,0c-.38,0-.75-.07-1.11-.13s-.68-.12-1-.19a3.64,3.64,0,0,1-.63-.2,1.21,1.21,0,0,1-.35-.21s0-.14,0-.28l.14-1.44a.21.21,0,0,1,.1-.19c.05,0,.14,0,.29.06a6.24,6.24,0,0,0,.66.22,5.82,5.82,0,0,0,1,.21,7.47,7.47,0,0,0,1.06.11,3.28,3.28,0,0,0,1-.08,3,3,0,0,0,.91-.36,1.72,1.72,0,0,0,.55-.52,1.76,1.76,0,0,0,.28-.66,3.08,3.08,0,0,0,.08-.75,2,2,0,0,0-.47-1,4.74,4.74,0,0,0-1.37-1.16c-.73-.43-1.36-.82-1.89-1.19a9,9,0,0,1-1.31-1.1,3.94,3.94,0,0,1-.76-1.13,3.11,3.11,0,0,1-.25-1.28,3.62,3.62,0,0,1,.33-1.52,3.93,3.93,0,0,1,.94-1.27,4.36,4.36,0,0,1,1.41-.87,5.08,5.08,0,0,1,1.82-.32,9.38,9.38,0,0,1,1.66.13,6.29,6.29,0,0,1,1.11.3.5.5,0,0,1,.27.17.32.32,0,0,1,0,.22l-.26,1.24a.46.46,0,0,1-.12.29q-.09.07-.3,0l-.64-.18-.72-.15c-.25,0-.48-.06-.71-.08a3.92,3.92,0,0,0-.61,0,2.47,2.47,0,0,0-1.53.71,2.08,2.08,0,0,0-.43,1.35,1.8,1.8,0,0,0,.5,1.08,6.15,6.15,0,0,0,1.48,1.17q1.22.74,2,1.32a7.83,7.83,0,0,1,1.24,1.12,3.31,3.31,0,0,1,.64,1.08,3.7,3.7,0,0,1,.18,1.18A4.07,4.07,0,0,1,129.71,244.9Z"/><path d="M141.65,241.06a.29.29,0,0,1-.09.23.29.29,0,0,1-.19.08H135a3.48,3.48,0,0,0,.81,2.12,2.45,2.45,0,0,0,2,.83,7.45,7.45,0,0,0,1.46-.17,4.48,4.48,0,0,0,1.49-.57c.1-.05.15,0,.18,0a.87.87,0,0,1,0,.25v1.34a.55.55,0,0,1-.06.28.79.79,0,0,1-.23.19,4.79,4.79,0,0,1-1.37.45,9.51,9.51,0,0,1-1.6.13A4.52,4.52,0,0,1,134,244.8a6.41,6.41,0,0,1-1.24-4.25,7.86,7.86,0,0,1,.28-2.05,5.64,5.64,0,0,1,.82-1.81,4.22,4.22,0,0,1,1.41-1.28,4.05,4.05,0,0,1,2-.49,4.15,4.15,0,0,1,2,.45,3.9,3.9,0,0,1,1.35,1.2,5,5,0,0,1,.75,1.77,9.28,9.28,0,0,1,.24,2.16c0,.09,0,.19,0,.31S141.65,241,141.65,241.06Zm-4.25-4.27a2,2,0,0,0-.94.23,2.69,2.69,0,0,0-.7.6,3.22,3.22,0,0,0-.47.86,4.8,4.8,0,0,0-.26,1h4.44a3.48,3.48,0,0,0-.12-.86,3.31,3.31,0,0,0-.38-.86,2.27,2.27,0,0,0-.64-.67A1.59,1.59,0,0,0,137.4,236.79Z"/><path d="M152.24,244.46a4.73,4.73,0,0,1-1.66,1.33,5.64,5.64,0,0,1-4.39,0,4.42,4.42,0,0,1-1.59-1.23,5.2,5.2,0,0,1-1-1.8,7.69,7.69,0,0,1,0-4.39,5.11,5.11,0,0,1,1-1.8,4.54,4.54,0,0,1,1.58-1.21,5.05,5.05,0,0,1,2.2-.45,5.12,5.12,0,0,1,2.2.45,4.67,4.67,0,0,1,1.59,1.21,5.45,5.45,0,0,1,1,1.8,7.63,7.63,0,0,1,0,4.34A5.52,5.52,0,0,1,152.24,244.46Zm-3.86-7.63a2.52,2.52,0,0,0-1.31.33,2.74,2.74,0,0,0-.9.86,4.34,4.34,0,0,0-.53,1.2,5.67,5.67,0,0,0-.17,1.35,5.55,5.55,0,0,0,.17,1.35,4.47,4.47,0,0,0,.53,1.22,2.68,2.68,0,0,0,.9.87,2.77,2.77,0,0,0,2.62,0,2.68,2.68,0,0,0,.9-.87,4.18,4.18,0,0,0,.53-1.22,5.37,5.37,0,0,0,0-2.68,4.06,4.06,0,0,0-.53-1.2,2.68,2.68,0,0,0-.9-.87A2.41,2.41,0,0,0,148.38,236.83Z"/><path d="M162.63,245.93a.31.31,0,0,1-.17-.05.12.12,0,0,1,0-.14V245a3.41,3.41,0,0,1-1.24.95,3.62,3.62,0,0,1-1.52.33,3.48,3.48,0,0,1-2.82-1.11,4.77,4.77,0,0,1-.93-3.16v-6.5a.34.34,0,0,1,.07-.19.23.23,0,0,1,.17-.08h1.59a.22.22,0,0,1,.17.09.34.34,0,0,1,.08.2v6.17a3.37,3.37,0,0,0,.48,2.06,1.67,1.67,0,0,0,1.4.6,2.21,2.21,0,0,0,1.74-.8,3.52,3.52,0,0,0,.69-2.36v-5.69a.28.28,0,0,1,.07-.19.21.21,0,0,1,.16-.08h1.61a.2.2,0,0,1,.17.1.44.44,0,0,1,.07.21v7.92c0,.4,0,.79,0,1.18s0,.74,0,1.07c0,.17-.07.25-.21.25Z"/><path d="M167.6,246a.2.2,0,0,1-.22-.23v-15.3a.24.24,0,0,1,.07-.16.22.22,0,0,1,.17-.07h1.63a.24.24,0,0,1,.23.23v15.3a.24.24,0,0,1-.23.23Z"/><path d="M270.32,244.54a3.81,3.81,0,0,1-.85.3c-.34.09-.7.16-1.1.23s-.79.11-1.2.14-.79,0-1.16,0a8.65,8.65,0,0,1-3-.5,6.53,6.53,0,0,1-2.36-1.48,6.88,6.88,0,0,1-1.56-2.39,8.73,8.73,0,0,1-.56-3.22,8.55,8.55,0,0,1,.52-3,6.93,6.93,0,0,1,1.5-2.39,6.76,6.76,0,0,1,2.35-1.58,8.23,8.23,0,0,1,3.1-.56,14.38,14.38,0,0,1,2.08.13,10.39,10.39,0,0,1,1.73.38.44.44,0,0,1,.25.12.2.2,0,0,1,0,.15l-.23,1.65a.31.31,0,0,1-.1.19s-.15,0-.29,0a13.09,13.09,0,0,0-1.73-.42,12,12,0,0,0-1.75-.12,5.33,5.33,0,0,0-2.11.4,4.57,4.57,0,0,0-1.63,1.12,5.12,5.12,0,0,0-1.06,1.74,6.4,6.4,0,0,0-.38,2.25,7,7,0,0,0,.38,2.38,4.91,4.91,0,0,0,1.07,1.75,4.42,4.42,0,0,0,1.64,1.06,5.84,5.84,0,0,0,2.09.36,13.4,13.4,0,0,0,1.52-.07,3.15,3.15,0,0,0,1-.24V239h-3.2a.25.25,0,0,1-.19-.07.24.24,0,0,1-.07-.16v-1.56a.25.25,0,0,1,.09-.19.29.29,0,0,1,.18-.08h5a.48.48,0,0,1,.36.1.61.61,0,0,1,.08.39v6.4a.78.78,0,0,1-.11.45A1,1,0,0,1,270.32,244.54Z"/><path d="M280.11,245a.36.36,0,0,1-.18,0,.21.21,0,0,1,0-.14v-.88a3,3,0,0,1-1.23,1,3.56,3.56,0,0,1-1.5.34,4.88,4.88,0,0,1-1.47-.21,3.3,3.3,0,0,1-1.15-.64,3.11,3.11,0,0,1-.74-1.06,3.71,3.71,0,0,1-.27-1.47,4,4,0,0,1,.34-1.73,3.06,3.06,0,0,1,1.1-1.25,5.48,5.48,0,0,1,1.91-.73,13.47,13.47,0,0,1,2.82-.25,3.63,3.63,0,0,0-.08-.73,1.94,1.94,0,0,0-.26-.66,1.34,1.34,0,0,0-.52-.48,1.7,1.7,0,0,0-.83-.18,4.9,4.9,0,0,0-1.58.23,5.58,5.58,0,0,0-1.33.62c-.21.13-.35.19-.42.17s-.11-.08-.11-.21v-1.47a1,1,0,0,0,0-.17.26.26,0,0,1,0-.14,1,1,0,0,1,.29-.22,8.64,8.64,0,0,1,1.35-.54,6,6,0,0,1,1.74-.22,3.9,3.9,0,0,1,2.9,1,4.08,4.08,0,0,1,.94,3v4.61c0,.36,0,.74,0,1.13a9.84,9.84,0,0,0,.07,1c0,.21,0,.31-.21.31Zm-3.44-4.66a1.69,1.69,0,0,0-.93,1.57,1.37,1.37,0,0,0,.43,1.11,1.65,1.65,0,0,0,1.14.37,2.18,2.18,0,0,0,1.78-.82,4,4,0,0,0,.67-2.54v-.21A6.68,6.68,0,0,0,276.67,240.31Z"/><path d="M289.46,245.44a3.38,3.38,0,0,1-1.49-.34,3.62,3.62,0,0,1-1.21-.89v3.48a.43.43,0,0,1,0,.2.26.26,0,0,1-.18.05h-1.61a.3.3,0,0,1-.18-.05.3.3,0,0,1-.05-.2V234.53c0-.21.09-.31.29-.31h1.49c.18,0,.27.1.27.31v.7a4,4,0,0,1,1.23-.88,3.58,3.58,0,0,1,1.47-.31,4.22,4.22,0,0,1,1.88.4,3.8,3.8,0,0,1,1.39,1.13,5.22,5.22,0,0,1,.88,1.8,9,9,0,0,1,.3,2.41,8.5,8.5,0,0,1-.31,2.34,5.36,5.36,0,0,1-.89,1.79,3.9,3.9,0,0,1-1.39,1.13A4.3,4.3,0,0,1,289.46,245.44Zm-.21-9.42a1.94,1.94,0,0,0-.95.24,2.33,2.33,0,0,0-.79.72,4,4,0,0,0-.54,1.17,5.61,5.61,0,0,0-.21,1.61,4.75,4.75,0,0,0,.68,2.81,2.17,2.17,0,0,0,1.81.9,2.07,2.07,0,0,0,1.84-1,5,5,0,0,0,.64-2.75,4.88,4.88,0,0,0-.66-2.81A2.1,2.1,0,0,0,289.25,236Z"/><path d="M298.86,247.4a2.66,2.66,0,0,1-1.75.58,5.9,5.9,0,0,1-.74,0,1.81,1.81,0,0,1-.58-.16.37.37,0,0,1-.16-.1.24.24,0,0,1,0-.19l.11-1.28c0-.17.07-.22.22-.17a2.82,2.82,0,0,0,.54.1l.47,0a1.25,1.25,0,0,0,.52-.09,1,1,0,0,0,.31-.25l.16-.33c.08-.14.15-.3.23-.47s.15-.36.22-.56.13-.4.19-.59l-3.32-9.43c-.07-.16,0-.23.15-.23h1.81c.13,0,.2,0,.23.09l2.15,6.44,2.2-6.44c0-.06.1-.09.23-.09h1.81c.16,0,.22.07.15.23l-3.94,11A4.79,4.79,0,0,1,298.86,247.4Z"/><path d="M313.78,240.1a.32.32,0,0,1-.08.23.29.29,0,0,1-.19.08h-6.38a3.48,3.48,0,0,0,.81,2.12,2.47,2.47,0,0,0,2,.83,7.53,7.53,0,0,0,1.46-.17,4.7,4.7,0,0,0,1.49-.57c.09-.05.15,0,.18,0a.87.87,0,0,1,0,.25v1.34a.49.49,0,0,1-.06.27.63.63,0,0,1-.24.2,4.35,4.35,0,0,1-1.36.44,9.54,9.54,0,0,1-1.61.14,4.52,4.52,0,0,1-3.64-1.45,6.37,6.37,0,0,1-1.23-4.24,7.85,7.85,0,0,1,.27-2.05,5.88,5.88,0,0,1,.83-1.81,4.22,4.22,0,0,1,1.41-1.28,4,4,0,0,1,2-.49,4.15,4.15,0,0,1,2,.45,3.9,3.9,0,0,1,1.35,1.2,5.24,5.24,0,0,1,.76,1.77,9.27,9.27,0,0,1,.23,2.15c0,.1,0,.2,0,.31S313.78,240.05,313.78,240.1Zm-4.25-4.27a1.78,1.78,0,0,0-.93.23,2.69,2.69,0,0,0-.7.6,3.22,3.22,0,0,0-.47.86,4.83,4.83,0,0,0-.27,1h4.45a3.1,3.1,0,0,0-.13-.86,3.15,3.15,0,0,0-.37-.86,2.31,2.31,0,0,0-.65-.67A1.55,1.55,0,0,0,309.53,235.83Z"/><path d="M324.38,243.49a4.47,4.47,0,0,1-1.67,1.33,5.5,5.5,0,0,1-4.38,0,4.41,4.41,0,0,1-1.6-1.22,5.56,5.56,0,0,1-1-1.8,7.69,7.69,0,0,1,0-4.39,5.36,5.36,0,0,1,1-1.8,4.67,4.67,0,0,1,1.59-1.21,5.58,5.58,0,0,1,4.39,0,4.49,4.49,0,0,1,1.59,1.21,5.21,5.21,0,0,1,1,1.8,7.63,7.63,0,0,1,0,4.34A5.36,5.36,0,0,1,324.38,243.49Zm-3.86-7.62a2.5,2.5,0,0,0-1.31.33,2.65,2.65,0,0,0-.9.86,4.06,4.06,0,0,0-.53,1.2,5.67,5.67,0,0,0-.17,1.35,5.61,5.61,0,0,0,.17,1.35,4,4,0,0,0,.53,1.21,2.61,2.61,0,0,0,.9.88,2.77,2.77,0,0,0,2.62,0,2.61,2.61,0,0,0,.9-.88,4,4,0,0,0,.53-1.21,5.37,5.37,0,0,0,0-2.68,4.06,4.06,0,0,0-.53-1.2,2.68,2.68,0,0,0-.9-.87A2.44,2.44,0,0,0,320.52,235.87Z"/><path d="M334.67,245a.22.22,0,0,1-.17-.09.32.32,0,0,1-.06-.18v-6.17a3.58,3.58,0,0,0-.44-2,1.55,1.55,0,0,0-1.37-.62,2.37,2.37,0,0,0-1.89.7,3.06,3.06,0,0,0-.61,2v6.08c0,.17-.08.25-.24.25h-1.61a.19.19,0,0,1-.16-.09.27.27,0,0,1-.07-.18V237c0-.49,0-1,0-1.41s0-.81-.05-1.07.07-.25.27-.25h1.54c.14,0,.2,0,.17.15l0,.71a4.56,4.56,0,0,1,1.17-.8,3.39,3.39,0,0,1,1.57-.34,3.61,3.61,0,0,1,2.84,1.1,4.58,4.58,0,0,1,1,3.17v6.49c0,.17-.07.25-.23.25Z"/><path d="M343.38,248a11.25,11.25,0,0,1-1.53-.11,7.25,7.25,0,0,1-1.49-.38,1.46,1.46,0,0,1-.25-.15.28.28,0,0,1-.06-.2l.09-1.57c0-.25.16-.31.39-.19a6,6,0,0,0,1.43.49,6.87,6.87,0,0,0,1.44.17,2.92,2.92,0,0,0,2-.66,2.48,2.48,0,0,0,.81-1.81,3.31,3.31,0,0,1-1.18.82,3.64,3.64,0,0,1-1.34.27,4.38,4.38,0,0,1-1.81-.38,4.28,4.28,0,0,1-1.44-1.05,4.87,4.87,0,0,1-.94-1.6,6.06,6.06,0,0,1-.34-2,6.54,6.54,0,0,1,1.16-4.25,4.07,4.07,0,0,1,3.31-1.38,3.47,3.47,0,0,1,.78.1,5,5,0,0,1,.77.25,5.43,5.43,0,0,1,.68.36,3,3,0,0,1,.54.44l0-.68a.39.39,0,0,1,0-.21s.11-.06.24-.06h1.53c.15,0,.23.09.23.29v8a5.89,5.89,0,0,1-1.28,4.06A4.72,4.72,0,0,1,343.38,248Zm.49-12.11a2.16,2.16,0,0,0-1.87.89,4.81,4.81,0,0,0-.65,2.83,4.17,4.17,0,0,0,.19,1.32,2.8,2.8,0,0,0,.54,1,2.24,2.24,0,0,0,.77.61,2,2,0,0,0,.92.22,2.26,2.26,0,0,0,1-.22,2.35,2.35,0,0,0,.82-.62,3,3,0,0,0,.55-1,3.93,3.93,0,0,0,.21-1.34,4.86,4.86,0,0,0-.66-2.72A2.11,2.11,0,0,0,343.87,235.89Z"/><path d="M283.15,175.66a33.32,33.32,0,0,1-1.83,8.67,32.78,32.78,0,0,1-4.08,7.88,38.49,38.49,0,0,1-6.25,6.92,45.39,45.39,0,0,1-8.25,5.73,1.65,1.65,0,0,1-.81.18.85.85,0,0,1-.67-.4l-2-2.46a.79.79,0,0,1-.14-.7,1,1,0,0,1,.44-.57A37.43,37.43,0,0,0,271.49,191,27,27,0,0,0,277,178.33a1.77,1.77,0,0,0-.12-1.31,1.54,1.54,0,0,0-1.16-.32H261.8c-.42,0-.64-.23-.64-.69v-3.46c0-.4.22-.59.64-.59h17.84c1.48,0,2.46.3,2.94.91A4,4,0,0,1,283.15,175.66Zm19.79,15.17a.77.77,0,0,1-.52.2h-6.67V214.5a.57.57,0,0,1-.64.64h-4.4a.57.57,0,0,1-.64-.64V168.89a.56.56,0,0,1,.64-.64h4.4a.56.56,0,0,1,.64.64v17.39h6.67a.8.8,0,0,1,.52.18.5.5,0,0,1,.22.42v3.46A.63.63,0,0,1,302.94,190.83Z"/><path d="M306.47,189.45c.76,0,1.48.05,2.17.05h2.08V175.07H307a.87.87,0,0,1-.54-.25.69.69,0,0,1-.3-.54v-3.07a.68.68,0,0,1,.3-.49.93.93,0,0,1,.54-.25h24.26a.78.78,0,0,1,.57.23.69.69,0,0,1,.23.51v3.12a.73.73,0,0,1-.23.52.81.81,0,0,1-.57.22h-3.8v14.08l2.72-.2c.89-.06,1.81-.15,2.77-.24a.78.78,0,0,1,.51.07.51.51,0,0,1,.32.37l.4,3a.73.73,0,0,1-.2.6.86.86,0,0,1-.49.34q-5.79.64-12.77.89t-14.21.1a.67.67,0,0,1-.54-.22.72.72,0,0,1-.2-.52v-3.16C305.73,189.68,306,189.45,306.47,189.45Zm37.08,20.35a10.26,10.26,0,0,1-3.28,2.87,17.36,17.36,0,0,1-4.87,1.8,27.64,27.64,0,0,1-5.95.62,29,29,0,0,1-6.21-.62,16.54,16.54,0,0,1-4.79-1.78,9,9,0,0,1-3.09-2.84,6.88,6.88,0,0,1-1.08-3.8,6.68,6.68,0,0,1,1.08-3.73,9.21,9.21,0,0,1,3.09-2.82,17.46,17.46,0,0,1,4.79-1.8,29.89,29.89,0,0,1,12.16,0,18.34,18.34,0,0,1,4.87,1.78,10.25,10.25,0,0,1,3.28,2.82,6.46,6.46,0,0,1,0,7.53Zm-24.38-20.33c1,0,2,0,2.91-.07V175.07h-6V189.5Q317.69,189.5,319.17,189.47Zm18.92,14.6a5.83,5.83,0,0,0-2.1-1.46,13.25,13.25,0,0,0-3-.84,22.64,22.64,0,0,0-3.53-.27,23.47,23.47,0,0,0-3.68.27,12.47,12.47,0,0,0-3,.84,5.33,5.33,0,0,0-2,1.46,3.34,3.34,0,0,0-.71,2.13,2.91,2.91,0,0,0,.74,2,5.61,5.61,0,0,0,2,1.39,12.12,12.12,0,0,0,3,.79,26.18,26.18,0,0,0,3.64.24,25.41,25.41,0,0,0,3.53-.24,12.81,12.81,0,0,0,3-.79,6,6,0,0,0,2.1-1.39,2.82,2.82,0,0,0,.79-2A3.09,3.09,0,0,0,338.09,204.07Zm-5.73-28.21h6.23v-7c0-.43.23-.64.69-.64h4.35a.72.72,0,0,1,.47.2.61.61,0,0,1,.22.44v26.49a.71.71,0,0,1-.22.54.72.72,0,0,1-.47.2h-4.35c-.46,0-.69-.22-.69-.65v-8.25h-6.18a.69.69,0,0,1-.47-.19.59.59,0,0,1-.22-.45v-3a.5.5,0,0,1,.22-.42.73.73,0,0,1,.47-.18h6.18v-3h-6.23a.8.8,0,0,1-.47-.17.52.52,0,0,1-.22-.42v-3a.52.52,0,0,1,.22-.42A.8.8,0,0,1,332.36,175.86Z"/><polygon points="218.38 180.98 231.08 193.68 218.38 206.37 218.38 180.98"/><path class="cls-36" d="M58.32,51.84h578a17.6,17.6,0,0,1,17.6,17.6v56.84a0,0,0,0,1,0,0H40.73a0,0,0,0,1,0,0V69.44A17.6,17.6,0,0,1,58.32,51.84Z"/><path class="cls-36" d="M40.73,374.31H653.91a0,0,0,0,1,0,0v56.32a17.53,17.53,0,0,1-17.53,17.53H58.25a17.53,17.53,0,0,1-17.53-17.53V374.31A0,0,0,0,1,40.73,374.31Z"/><path d="M127.45,91.86a3.93,3.93,0,0,1-3.92-4.25V81.93a4.53,4.53,0,0,1,4.16-4.48h2.14a4.39,4.39,0,0,1,4.06,4.48v5.85a3.94,3.94,0,0,1-3.78,4.08Zm1.69-2.49a2.1,2.1,0,0,0,2-2.09V82.17a2.08,2.08,0,0,0-2-2h-.76a2.13,2.13,0,0,0-2.07,1.91v5.38a1.89,1.89,0,0,0,1.83,1.86Zm12.25,7h-3.33V89.72H135V86.94h3.06V84.47H135v-2.8h3.06V76.43h3.33Z"/><path d="M154.61,77.8V80h-1.43a4.19,4.19,0,0,1,.55,2.19v2.09a3.46,3.46,0,0,1-3.58,3.44h-2.21c-1.71,0-3.11-1.14-3.11-3.4V82.2a3.64,3.64,0,0,1,.69-2.19h-1.76V77.8h3.87V76.4h3.3v1.4ZM151,82.41c0-.78-.31-1.4-1.1-1.4h-1.09c-.78,0-1.19.62-1.19,1.4v1.66a1.08,1.08,0,0,0,1.24,1.19h.9A1.15,1.15,0,0,0,151,84Zm8.45,7.26a2.64,2.64,0,0,1,2.78,2.45v1.95a2.37,2.37,0,0,1-2.54,2.3h-9.22a2.8,2.8,0,0,1-2.61-2.28v-2c.26-1.71,2.26-2.45,3.28-2.45Zm-7.34,2.47c-.92,0-1.07.38-1.23.69l0,.62c.29.64.62.62,1.26.62h6.34c.55,0,1-.17,1-.62V93a1,1,0,0,0-1-.86ZM162.28,76.4V87.94h-2.71v-4h-1.76v4h-2.7V76.4h2.7v5.25h1.76V76.4Z"/><path d="M174.57,95.29h-2.09V91.71a8.94,8.94,0,0,1-5,1.85,16.33,16.33,0,0,1-3,0V91.66c3.08.61,7.15-.88,8-1.21V83.52h2.12Zm-5.81-11.46a1.84,1.84,0,0,1,1.9,1.91v1.9a1.84,1.84,0,0,1-2.06,1.91h-1.67a1.85,1.85,0,0,1-2-1.76V85.74a1.9,1.9,0,0,1,2-1.91Zm.21,2.28a.79.79,0,0,0-.81-.8h-.6a.85.85,0,0,0-.88.8v1.16a.85.85,0,0,0,.88.81h.6a.79.79,0,0,0,.81-.81Z"/><path d="M187,77.21v9.5H177v-9.5H180v2.61h3.89V77.21ZM178.4,91.38h10.78V90.29H178.4V88.37h14.08V93.5H181.42v.9h11.06v2.23H178.4Zm5.53-7.09v-2H180v2Zm11.3-.91H192.5v3.71h-3V76.38h3v4.2h2.73Z"/><path d="M203.83,80.91c-.1,1.43-.17,6.89,3.75,8.22v2.75a8.8,8.8,0,0,1-2.23-.85,6.23,6.23,0,0,1-3.09-3.49,6,6,0,0,1-3.11,3.58,7.84,7.84,0,0,1-2.23.76V89.13c3.91-1.33,3.75-6.79,3.65-8.22h-3.68V78.26h10.73v2.65Zm11.91,2.16v3.07h-3V96.39h-3.3V76.66h3.3v6.41Z"/><path d="M235,87.44h-7.62v2h6v2.25a10.47,10.47,0,0,1-.52,3,13.65,13.65,0,0,1-.48,1.28h-2.92a9.21,9.21,0,0,0,.93-2.7,6.7,6.7,0,0,0,.09-1.14H219V89.44h5.35v-2h-7.18V84.78h11.78a17.56,17.56,0,0,0,.81-3.65,11.85,11.85,0,0,0,.09-1.52h-10.7V76.88H233v2.49a28.29,28.29,0,0,1-1,5.41h3Z"/><path class="cls-37" d="M104.67,79.06c.18-.18.44-.33.51-.55s-.2-.37-.36-.52-.65-.47-.94-.74-.12-.36.16-.42a1,1,0,0,1,1.19.56l.72,1.28a1.1,1.1,0,0,0,1,.54,5.65,5.65,0,0,1,1.06.2c.25,0,.49.13.74.16.72.08,1,.36.88,1a1,1,0,0,1-1.24.83c-.43-.13-.89.63-1.31.44s-1-.42-1.16.06c-1,3.56-1.06-.83-1.46-1.2a8.2,8.2,0,0,1-.88-1,2.29,2.29,0,0,0-2.51-.91L98,79.51a2.53,2.53,0,0,0-1.41,1c-.38.48-.73,1-1.1,1.46a4.31,4.31,0,0,0-.88,2.56c0,.43-.1.86-.11,1.29a4.94,4.94,0,0,0,1.73,4.23,3.46,3.46,0,0,0,3.2.79,1.82,1.82,0,0,1,2.29,1.32,17.86,17.86,0,0,1,.72,3,12.16,12.16,0,0,1-.15,2.07,3.25,3.25,0,0,0,.09,1.08c.29.93.63,1.84,1,2.76a6.67,6.67,0,0,0,.29.74,1,1,0,0,0,1.44.66,7.24,7.24,0,0,0,3.76-2.71c.29-.4-1.71-10.17,4-9.77.12,0,.17-.17.25-.26a1.21,1.21,0,0,0,.1-1.86c-.16-.23-.34-.45-.48-.69a.6.6,0,0,1,.31-1,1.57,1.57,0,0,0,1-1.15,9.24,9.24,0,0,1,.29-.89c.11-.3.35-.35.56-.14a1.53,1.53,0,0,1,.49.8c.06,1.44.13,2.89,0,4.34a16.92,16.92,0,0,1-1.84,6.67,19.52,19.52,0,0,1-14.62,11,19.31,19.31,0,0,1-13.36-2.4c-.17-.1-.39-.25-.43-.42a10.05,10.05,0,0,1-.27-2c0-.72.58-1.14,1.1-1.54s1.15-.79,1.69-1.22a5.07,5.07,0,0,0,1.74-5.57,1.6,1.6,0,0,0-.78-1c-.5-.26-1-.56-1.5-.78A5,5,0,0,1,85,90.21a5.3,5.3,0,0,0-1.82-1.67C82.09,88,81,87.34,79.9,86.86a2.73,2.73,0,0,1-1.15-4.39c.68-.85,1.46-1.6,2.2-2.39.39-.43.8-.84,1.16-1.28a3,3,0,0,1,1.61-1.11,12.76,12.76,0,0,0,1.8-.76A2.34,2.34,0,0,0,87,74.73c0-.29.06-.59.1-.88a2.24,2.24,0,0,0-.28-1.49,2.13,2.13,0,0,1-.31-1.83,1,1,0,0,1,.44-.56,4,4,0,0,1,2.24-.41c.66.06.78.26.7.91s-.19,1.47-.23,2.21.08.74.69.63c.88-.15,1.76-.37,2.64-.57s2-.44,3-.69A3.39,3.39,0,0,0,98.35,70a1.14,1.14,0,0,0-.2-1.14c-.35-.5-.75-1-1.12-1.45,2.42-.65,10.86,3.1,12.26,5.49a2.16,2.16,0,0,1-1.46-.19c-1.09-.49-2.18-1-3.26-1.51a1.18,1.18,0,0,0-1,0c-.53.23-1.07.44-1.6.66-.76.3-.92.67-.62,1.43s.18.65-.29,1.14.6,2.18,1.24,2.59c.42.27.86.53,1.3.77s1.11.46.9,1.29Z"/><path class="cls-37" d="M75.67,85.69a5.73,5.73,0,0,1,1.41,2.61c.34,1.29.72,2.57.94,3.88a6,6,0,0,0,1.64,3.19,4,4,0,0,1,1.15,2.34,9.35,9.35,0,0,0,2.44,4.86,5.44,5.44,0,0,1,.39.55A19.44,19.44,0,0,1,75.67,85.69Z"/><path class="cls-38" d="M92.4,83.24c-1.18-.88-2-1.76-3.3-1.53-1.08.2-1.82,2-1.45,3.05.58,1.65,2.74,2.21,4.23,2A1.84,1.84,0,0,0,93.46,84C93.2,83.57,92.58,83.48,92.4,83.24Z"/><path class="cls-38" d="M94.21,79.78c-.52-.45-.88-1.21-1.56-1.24a1.65,1.65,0,0,0-1.45,2.11,3,3,0,0,0,2.85,1.9,1.22,1.22,0,0,0,1.06-1.83c-.19-.38-.37-.39-.61-.75C94.48,80,94.23,79.77,94.21,79.78Z"/><path class="cls-38" d="M94.81,79.18a7.13,7.13,0,0,0,1.16.45,1,1,0,0,0,1.25-1.31A2.5,2.5,0,0,0,95,76.62c-.79,0-1.33.28-1.25,1.07a2,2,0,0,0,.72,1.37S94.82,79.16,94.81,79.18Z"/><path class="cls-38" d="M99.22,75.89a5,5,0,0,0-.51-.27.83.83,0,0,0-1.2.92,1.9,1.9,0,0,0,1.3,1.57.83.83,0,0,0,1.12-1A2.13,2.13,0,0,0,99.22,75.89Z"/><path class="cls-38" d="M109.28,77.37a1.55,1.55,0,0,0,1,.65.63.63,0,0,0,.74-.56,1.53,1.53,0,0,0-1.16-1.56c-.56-.11-.95.4-.76,1A4.41,4.41,0,0,0,109.28,77.37Z"/><path class="cls-38" d="M116.86,87.39a21.32,21.32,0,1,1-21.14-21.5A21.34,21.34,0,0,1,116.86,87.39Zm-12.19-8.33-.19-.07c.21-.83-.39-1-.9-1.29s-.88-.5-1.3-.77c-2.23-1.75-1.55.36-2.51,1-.31.2-.2.14-.77.15-.29,0-.46-.19-.75-.27s-.68-.89-.74-1.28c-.21-1.43,0-1.51,1.45-1.43.82,0,1.5.32,2.08-.77.47-.49.53-.51.29-1.14a1.11,1.11,0,0,1,.61-1.43c.52-.21,1-.41,1.55-.63a1.31,1.31,0,0,1,1.08,0c1.08.52,2.17,1,3.26,1.51a2.16,2.16,0,0,0,1.46.19c-1.4-2.39-9.84-6.14-12.26-5.49.37.48.77,1,1.12,1.45a1.14,1.14,0,0,1,.2,1.14A3.39,3.39,0,0,1,96,72.05c-1,.25-2,.47-3,.69s-1.76.42-2.64.57c-.61.11-.73,0-.69-.63s.14-1.48.23-2.21,0-.85-.7-.91a4,4,0,0,0-2.24.41,1,1,0,0,0-.44.56,2.13,2.13,0,0,0,.31,1.83,2.24,2.24,0,0,1,.28,1.49c0,.29-.08.59-.1.88a2.34,2.34,0,0,1-1.45,2.2,12.76,12.76,0,0,1-1.8.76,3,3,0,0,0-1.61,1.11c-.36.44-.77.85-1.16,1.28-.74.79-1.52,1.54-2.2,2.39a2.73,2.73,0,0,0,1.15,4.39c1.09.47,2.13,1.07,3.18,1.63A5.53,5.53,0,0,1,85,90.21,5,5,0,0,0,87.07,92c.51.22,1,.52,1.5.78a1.6,1.6,0,0,1,.78,1,5.07,5.07,0,0,1-1.74,5.57c-.54.43-1.14.8-1.69,1.22s-1.1.82-1.1,1.54a10.05,10.05,0,0,0,.27,2c0,.17.26.32.43.42a19.21,19.21,0,0,0,13.28,2.41,20.39,20.39,0,0,0,14-9.77,17.43,17.43,0,0,0,2.53-7.92c.08-1.45,0-2.9,0-4.34a1.53,1.53,0,0,0-.49-.8c-.21-.21-.45-.16-.56.14a9.24,9.24,0,0,0-.29.89,1.57,1.57,0,0,1-1,1.15.6.6,0,0,0-.31,1c.14.24.32.46.48.69a1.21,1.21,0,0,1-.1,1.86l-.25.26c-.88,1-3-.86-1.83,3.5a10,10,0,0,1-1,2.94,11.87,11.87,0,0,0-.67,1.87,5.61,5.61,0,0,1-.52,1.46,7.24,7.24,0,0,1-3.76,2.71,1,1,0,0,1-1.44-.66,6.67,6.67,0,0,1-.29-.74c-.33-.92-.67-1.83-1-2.76a3.25,3.25,0,0,1-.09-1.08,12.16,12.16,0,0,0,.15-2.07,17.86,17.86,0,0,0-.72-3,1.82,1.82,0,0,0-2.29-1.32,3.46,3.46,0,0,1-3.2-.79,4.94,4.94,0,0,1-1.73-4.23c0-.43.1-.86.11-1.29A4.31,4.31,0,0,1,95.46,82c.37-.48.72-1,1.1-1.46a2.55,2.55,0,0,1,1.46-1,25,25,0,0,0,2.82-.64,2.31,2.31,0,0,1,2.75.84,8.2,8.2,0,0,0,.88,1c.36.33.34,1.46,1.12.54a1.31,1.31,0,0,1,1.53-.36h0a9.9,9.9,0,0,0,1.27.51,1,1,0,0,0,1.24-.83c.1-.62-.16-.9-.88-1-.25,0-.49-.11-.74-.16a5.65,5.65,0,0,0-1.06-.2,1.1,1.1,0,0,1-1-.54l-.72-1.28a1,1,0,0,0-1.19-.56c-.28.06-.39.21-.16.42s.64.48.94.74.4.4.36.52S104.85,78.88,104.67,79.06Zm-29,6.63a19.44,19.44,0,0,0,8,17.43,5.44,5.44,0,0,0-.39-.55,9.35,9.35,0,0,1-2.44-4.86,4,4,0,0,0-1.15-2.34A6,6,0,0,1,78,92.18c-.22-1.31-.6-2.59-.94-3.88A5.73,5.73,0,0,0,75.67,85.69Z"/><path d="M95.53,65.89a21.32,21.32,0,1,0,21.33,21.32A21.21,21.21,0,0,0,95.53,65.89Zm0,41.16a19.84,19.84,0,1,1,19.82-19.84A19.79,19.79,0,0,1,95.56,107.05Z"/><path d="M603.6,429.85a1.47,1.47,0,0,1-.19-.5q0-18.14,0-36.27v-.45h6.36v36.8c0,.14,0,.28,0,.42Z"/><path d="M499.16,392.63h4.26v37.22h-4.26Z"/><path d="M616.15,429.85V392.62h4.26v37.23Z"/><path d="M531.13,429.85c0-.22,0-.44,0-.65V392.63h4.19v.57q0,18,0,36.05a2.61,2.61,0,0,1-.14.6Z"/><path d="M558.84,429.85a2.38,2.38,0,0,1-.15-.55q0-18.07,0-36.13v-.54h4.2a3.93,3.93,0,0,1,.06.48v36.23a3,3,0,0,1-.09.51Z"/><path d="M569.49,429.85a1.68,1.68,0,0,1-.18-.5q0-18.14,0-36.27v-.45h4.27v.48q0,18.11,0,36.23a4.38,4.38,0,0,1,0,.51Z"/><path d="M578,429.85a1.68,1.68,0,0,1-.18-.5q0-18.14,0-36.27v-.45h4.26v36.71c0,.17,0,.34,0,.51Z"/><path d="M586.55,429.85a1.47,1.47,0,0,1-.19-.5q0-18.14,0-36.27v-.45h4.27v36.71a4.4,4.4,0,0,1,0,.51Z"/><path d="M592.94,429.85c-.07-.17-.21-.33-.21-.49q0-18.15,0-36.29v-.44h4.21a2.84,2.84,0,0,1,.05.42v36.38c0,.14,0,.28,0,.42Z"/><path d="M505.55,429.85c0-.22,0-.44,0-.65V392.62h2.15v37.23Z"/><path d="M611.89,429.85V392.62H614c0,.14,0,.29,0,.44q0,18.18,0,36.37c0,.14,0,.28,0,.42Z"/><path d="M512,429.85V392.62h2.11v.5q0,18.11,0,36.19a1.73,1.73,0,0,1-.21.54Z"/><path d="M522.6,429.85c0-.2,0-.41,0-.61V392.63h2.1v.49q0,18.09,0,36.18a2,2,0,0,1-.18.55Z"/><path d="M541.79,429.85c0-.2,0-.41,0-.61V392.62h2.09v.53q0,18.08,0,36.15a2.34,2.34,0,0,1-.14.55Z"/><path d="M546.05,429.85c0-.2,0-.41,0-.61V392.62h2.09v.53q0,18.08,0,36.15a2.34,2.34,0,0,1-.14.55Z"/><path d="M550.31,429.85c0-.2,0-.41,0-.61V392.62h2.09V429.3a3,3,0,0,1-.14.55Z"/></g></svg>