<svg xmlns="http://www.w3.org/2000/svg" xmlns:xlink="http://www.w3.org/1999/xlink" viewBox="0 0 694.64 500"><defs><style>.cls-1{fill:#fff;}.cls-2{opacity:0.5;}.cls-3{fill:url(#무제_그라디언트_111);}.cls-4{fill:#363830;}.cls-5{fill:#dcdeb9;stroke:#afaf94;stroke-miterlimit:10;stroke-width:0.85px;}.cls-6{fill:#a0d177;}.cls-7{fill:#26582d;}.cls-8{fill:#3db46c;}.cls-9{fill:#6c533c;}.cls-10{fill:#483821;}.cls-11{fill:#efbc30;}.cls-12{fill:#a5bc62;}.cls-13{fill:#fceee6;}.cls-14{fill:#eabda9;}.cls-15{fill:#e4dcc6;}.cls-16{fill:#494640;}.cls-17{fill:#c1bbac;}.cls-18{fill:url(#무제_그라디언트_95);}.cls-19{fill:url(#무제_그라디언트_94);}.cls-20{fill:#456f41;}.cls-21{fill:#7aa94f;}.cls-22{fill:#96b444;}.cls-23{fill:#bdcf5f;}.cls-24{fill:#f5dc67;}.cls-25{fill:#ceb54d;}.cls-26{fill:#dda285;}.cls-27{fill:#9c6;}.cls-28{fill:#3f8cb9;}.cls-29{fill:#9bcc60;}</style><linearGradient id="무제_그라디언트_111" x1="347.36" y1="350.62" x2="347.36" y2="120.83" gradientUnits="userSpaceOnUse"><stop offset="0.26" stop-color="#fff"/><stop offset="0.34" stop-color="#fdf9f1"/><stop offset="0.49" stop-color="#f8eacb"/><stop offset="0.51" stop-color="#f7e7c5"/><stop offset="0.54" stop-color="#f6e5c4"/><stop offset="0.75" stop-color="#f2d3bd"/><stop offset="0.94" stop-color="#ecc3af"/><stop offset="1" stop-color="#eabda9"/></linearGradient><linearGradient id="무제_그라디언트_95" x1="258.45" y1="351.35" x2="258.45" y2="325.53" gradientUnits="userSpaceOnUse"><stop offset="0" stop-color="#737f4e"/><stop offset="0.25" stop-color="#849357"/><stop offset="0.53" stop-color="#9baf64"/><stop offset="0.78" stop-color="#b4c66f"/><stop offset="0.95" stop-color="#bfd174"/></linearGradient><linearGradient id="무제_그라디언트_94" x1="142.91" y1="357.58" x2="142.91" y2="288.09" gradientUnits="userSpaceOnUse"><stop offset="0" stop-color="#737f4e"/><stop offset="0.31" stop-color="#869658"/><stop offset="0.59" stop-color="#9baf64"/><stop offset="0.8" stop-color="#b4c66f"/><stop offset="0.95" stop-color="#bfd174"/></linearGradient></defs><g id="레이어_3" data-name="레이어 3"><rect class="cls-1" x="40.73" y="126.6" width="613.18" height="249.96"/><g class="cls-2"><rect class="cls-1" x="40.77" y="125.49" width="613.19" height="248.7"/><rect class="cls-3" x="40.77" y="125.49" width="613.19" height="248.7"/><rect class="cls-4" x="481.56" y="331.94" width="15.23" height="21.25"/><rect class="cls-4" x="504.06" y="331.94" width="15.23" height="21.25"/><rect class="cls-5" x="472" y="331.94" width="9.57" height="21.25"/><rect class="cls-5" x="496.79" y="331.94" width="7.27" height="21.25"/><rect class="cls-5" x="519.29" y="331.94" width="9.57" height="21.25"/><rect class="cls-5" x="472" y="321.93" width="56.86" height="10.01"/><path class="cls-6" d="M121.86,266.61c-.63-1.83-.34-3.7-.33-5.55a.52.52,0,0,1,.49-.53c.4,0,.59.24.62.6A12.23,12.23,0,0,1,121.86,266.61Z"/><path class="cls-6" d="M131.56,265c-1.29,1.35-2.79,1.55-4,2.22a.42.42,0,0,1-.62-.26.78.78,0,0,1,.29-.66C128.47,265.67,129.6,264.58,131.56,265Z"/><path class="cls-6" d="M118.06,262.93c.56,1.1,1.13,2.19,1.67,3.3.15.3.19.7-.22.82a.72.72,0,0,1-.65-.29c-.56-1.16-1.5-2.2-1.36-3.59Z"/><path class="cls-6" d="M124.59,266.79c-.28,0-.51-.05-.57-.39s1.62-3,2.09-3a.42.42,0,0,1,.54.39A7.28,7.28,0,0,1,124.59,266.79Z"/><path class="cls-7" d="M71.57,253.19H66.35c-5.89,0-11.79-.08-17.68,0a3.3,3.3,0,0,1-3.54-2.56C42.6,243.44,49,235.5,56.7,236.48a2,2,0,0,0,2.35-1.11,11.76,11.76,0,0,1,19.87-.51c.74,1.07,1.33,1.65,2.83,1.5a9.76,9.76,0,0,1,10.84,10.7c-.11.73-.41,1.38-1.24,1.26-4.21-.62-6.87,1.51-8.87,4.87Zm5.08-3.06c.81.52,1.41-.13,2-.48,2.44-1.49,4.85-3.06,7.25-4.62.43-.27,1.15-.65.82-1.18-.45-.7-1.11-.07-1.56.21-2.65,1.68-5.27,3.41-7.9,5.12C76.9,249.4,76.53,249.6,76.65,250.13Zm-7-6.88h0c0-1.46,0-2.93,0-4.39,0-.42.19-1.08-.48-1.12s-.7.53-.7,1c0,3,0,6,0,9,0,.4,0,.89.54.91.69,0,.64-.55.65-1C69.62,246.18,69.61,244.71,69.61,243.25Zm-17.67,0c-.09.07-.29.16-.35.3a.71.71,0,0,0,.31.88c2.74,1.79,5.48,3.58,8.23,5.34a1,1,0,0,0,.74,0c.08,0,.13-.34.09-.51C60.89,248.9,52.47,243.27,51.94,243.28Zm10.6-.39c-.37,0-.57.25-.5.51a26.87,26.87,0,0,0,2.12,5.11.46.46,0,0,0,.7.1.81.81,0,0,0,.22-.69c-.67-1.58-1.39-3.15-2.11-4.71C62.9,243.06,62.67,243,62.54,242.89Zm14,1.13c-.12-.23-.18-.57-.35-.64a.7.7,0,0,0-.66.22c-.75,1.39-1.47,2.81-2.16,4.23a.8.8,0,0,0,.14.71c.2.2.51.08.69-.14A18.21,18.21,0,0,0,76.51,244Z"/><path class="cls-8" d="M82.48,253.19c2-3.36,4.66-5.49,8.87-4.87.83.12,1.13-.53,1.24-1.26.38-.36.78-.7,1.14-1.09a8.75,8.75,0,0,1,13.51.67,2.76,2.76,0,0,0,2.85,1.44A7,7,0,0,1,117.5,254c.55,1.47,0,2.86-.39,4.23a2.87,2.87,0,0,1-3.29,2.23c-2.93-.15-5.87,0-8.81,0l-3.45.13a25.07,25.07,0,0,0-5,0c-3.75,0-7.5-.09-11.24,0a2.67,2.67,0,0,1-3-2.26A10.06,10.06,0,0,1,82.48,253.19Zm17.3.28c0,.93,0,1.85,0,2.78,0,.41.08.85.61.84s.55-.34.55-.69c0-1.85,0-3.71,0-5.56a.65.65,0,0,0-.62-.66c-.42,0-.49.37-.5.71C99.77,251.75,99.78,252.61,99.78,253.47Zm-9.78.94c-.51,0-.8,0-.89.32s.19.63.48.78c1.55.79,3.11,1.56,4.67,2.33.31.16.69.21.87-.13a.74.74,0,0,0-.21-.69A25.5,25.5,0,0,0,90,254.41Zm20.87,1.82c0-.4-.21-.63-.51-.58a17.94,17.94,0,0,0-4.92,1.43.44.44,0,0,0-.2.66.81.81,0,0,0,.71.21c1.47-.39,2.93-.82,4.39-1.27C110.56,256.61,110.72,256.36,110.87,256.23Zm-7.32.8c.11-.07.27-.11.32-.21.64-1.2,1.58-2.26,1.8-3.65,0-.23-.41-.46-.61-.28a9.12,9.12,0,0,0-2,3.11,1.38,1.38,0,0,0,0,.58C103.05,256.9,103.24,257,103.55,257Zm-5.79-.6c-.64-.89-.75-2.25-1.85-3-.07,0-.43.11-.46.22-.28,1.17.63,2,1,2.93a1.3,1.3,0,0,0,.3.51c.18.16.44.37.64.35C97.82,257.34,97.72,256.92,97.76,256.43Z"/><path class="cls-7" d="M105,260.45c2.94,0,5.88-.13,8.81,0a2.87,2.87,0,0,0,3.29-2.23c.4-1.37.94-2.76.39-4.23,2.63-.06,5.42-.19,7.32,1.92a8.47,8.47,0,0,0,5.62,2.86c4,.57,6.15,4.82,4.82,8.59a3.3,3.3,0,0,1-3.55,2.56c-4-.09-7.9,0-11.85,0-.73,0-1.47.09-2.2.14l-4.4,0c-2.06,0-4.13-.1-6.19-.11-2.95,0-3.73-.78-3.83-3.75a7.28,7.28,0,0,1,1.13-4.18C104.67,261.53,105.31,261.18,105,260.45Zm10.29,6.75c0-.12,0-.29-.12-.35a15.85,15.85,0,0,0-4.86-2.64c-.48-.16-.62.58-.27.79a24,24,0,0,0,4.68,2.58A.42.42,0,0,0,115.3,267.2Zm4.56-.59a12.23,12.23,0,0,0,.78-5.48c0-.36-.22-.64-.62-.6a.52.52,0,0,0-.49.53C119.52,262.91,119.23,264.78,119.86,266.61Zm9.7-1.66c-2-.37-3.09.72-4.37,1.3a.78.78,0,0,0-.29.66.42.42,0,0,0,.62.26C126.77,266.5,128.27,266.3,129.56,265Zm-13.5-2-.56.24c-.14,1.39.8,2.43,1.36,3.59a.72.72,0,0,0,.65.29c.41-.12.37-.52.22-.82C117.19,265.12,116.62,264,116.06,262.93Zm6.53,3.86a7.28,7.28,0,0,0,2.06-3,.42.42,0,0,0-.54-.39c-.47.06-2.17,2.55-2.09,3S122.31,266.8,122.59,266.79Z"/><path class="cls-7" d="M89.94,294.65c-2.7,0-5.41-.45-8.07.29-1.4-.7-2.88-.23-4.32-.28a1.75,1.75,0,0,1-1.94-1.56c-1-4.19,1.73-7.73,6-7.68,1.07,0,1.62-.13,2-1.26A6.58,6.58,0,0,1,90,279.72c3-.17,5.56.75,7,3.63a1.61,1.61,0,0,0,1.79,1.08A6.15,6.15,0,0,1,105,290.2c.15,2.84-1.23,4.29-4.07,4.32C97.29,294.55,93.61,294.6,89.94,294.65Zm1.38-10.34c-1.06,1.35-1.56,5.63-1,6.44a.85.85,0,0,0,.6.38c.44,0,.43-.45.43-.77C91.33,288.52,91.32,286.68,91.32,284.31Zm-5.26,7.2c0-.12-.08-.28-.17-.35a17.56,17.56,0,0,0-4.7-2.55.66.66,0,0,0-.5.19c0,.23,0,.59.21.68,1.49.86,3,1.7,4.52,2.5C85.81,292.18,86,291.9,86.06,291.51Zm10.17.27c1.14-.95,2.92-.75,3.87-2.14.06-.09-.13-.48-.19-.48-1.52,0-2.71.93-4,1.55a.65.65,0,0,0-.16.13.46.46,0,0,0-.13.68C95.71,291.65,96,291.67,96.23,291.78Zm-7.77.18a6.81,6.81,0,0,0-1.72-4.77C86.49,289.24,86.74,289.92,88.46,292Zm7.28-3.77c-.08-.24-.09-.46-.21-.58a.46.46,0,0,0-.69.07A9.18,9.18,0,0,0,93,290.47a1.06,1.06,0,0,0,.18.7.64.64,0,0,0,.52-.09C94.42,290.13,95.08,289.15,95.74,288.19Z"/><path class="cls-8" d="M81,278.58a28.24,28.24,0,0,0-3.56,0c-2.16.23-3-.8-3.1-2.79.22-4,2.27-6,6.32-6.13a1.61,1.61,0,0,0,1.37-.55c3.11-3.51,4.94-3.89,9.24-2,1,1.55,2.11,3.09,4.38,2.51,2.67.54,4,2.34,4.5,4.87a12.88,12.88,0,0,1-.79,3.18,3.15,3.15,0,0,1-2.73.91C91.43,278.52,86.22,278.56,81,278.58Zm6.76-5.66c-.45-.86.64-2.54-.75-2.58-1,0-.47,1.68-.47,2.58s-.58,2.52.54,2.53S87.43,273.81,87.77,272.92Zm-4.94,3.28c0-.54-3.5-2.95-4-2.76a.49.49,0,0,0-.23.81,13.74,13.74,0,0,0,3.61,2.46C82.62,276.91,82.81,276.59,82.83,276.2Zm9.23.28c1.14-.49,2.17-.93,3.19-1.41.22-.1.47-.37.29-.64a.74.74,0,0,0-.64-.3c-1.06.36-2.1.77-3.14,1.2a.56.56,0,0,0-.29.82C91.58,276.33,91.89,276.39,92.06,276.48Zm-2.88-.6c1.09-.69,2.64-2.73,2.46-3.29,0-.15-.33-.38-.37-.35a5,5,0,0,0-2.27,3.3C89,275.64,89.11,275.77,89.18,275.88ZM83.36,273a.4.4,0,0,0-.39.55c.5.91,1,1.8,1.62,2.66.18.26.49.08.62-.19C85.5,275.45,84,273,83.36,273Z"/><path class="cls-9" d="M99.37,277.62a12.88,12.88,0,0,0,.79-3.18c4.67-.58,9.21-1.51,13.1-4.39l4.4,0c-3.46,4.52-8.34,6.36-13.73,7.18C102.43,277.49,100.89,277.51,99.37,277.62Z"/><path class="cls-10" d="M40.73,401.22l0-69.17c3.11-7.61,1.37-19,1.49-24.52.13-5.69-1.53-7.45-1.53-7.45V291.2a8.59,8.59,0,0,0,1.53,2.44c4.93,3,10.23-2.35,15.26-10.06,5.8-8.88,5.8-13.5,7.81-22.21a31.52,31.52,0,0,0,.78-8.17h5.22A138,138,0,0,1,67.48,278c.17.08.23.14.27.13l6.36-2.36c.07,2,.94,3,3.1,2.79a28.24,28.24,0,0,1,3.56,0,126.87,126.87,0,0,0-16,9.48,21.38,21.38,0,0,0-2.31,2.43c-3.47,3.48-3.84,5.68-5.18,9.22,9.53-1.33,15.91-1.29,24.4-4.77,2.66-.74,5.37-.27,8.07-.29-3.83,3.8-8.7,5.67-13.71,7.15-7.85,2.32-9.44,2.1-17.49,3.39a19.16,19.16,0,0,0,.44,6.24,41.69,41.69,0,0,1,.94,12,65.59,65.59,0,0,1-3.62,17.27s-3.17,3.54-1.82,17.2c0,0,2.87,33.55-.17,43.33H40.73"/><path class="cls-6" d="M76.65,250.13c-.12-.53.25-.73.58-.95,2.63-1.71,5.25-3.44,7.9-5.12.45-.28,1.11-.91,1.56-.21.33.53-.39.91-.82,1.18-2.4,1.56-4.81,3.13-7.25,4.62C78.06,250,77.46,250.65,76.65,250.13Z"/><path class="cls-6" d="M69.61,243.25c0,1.46,0,2.93,0,4.39,0,.45,0,1-.65,1-.51,0-.54-.51-.54-.91,0-3,0-6,0-9,0-.48.12-1.05.7-1s.47.7.48,1.12c0,1.46,0,2.93,0,4.39Z"/><path class="cls-6" d="M51.94,243.28c.53,0,9,5.62,9,6,0,.17,0,.48-.09.51a1,1,0,0,1-.74,0c-2.75-1.76-5.49-3.55-8.23-5.34a.71.71,0,0,1-.31-.88C51.65,243.44,51.85,243.35,51.94,243.28Z"/><path class="cls-6" d="M62.54,242.89c.13.09.36.17.43.32.72,1.56,1.44,3.13,2.11,4.71a.81.81,0,0,1-.22.69.46.46,0,0,1-.7-.1A26.87,26.87,0,0,1,62,243.4C62,243.14,62.17,242.91,62.54,242.89Z"/><path class="cls-6" d="M76.51,244a18.21,18.21,0,0,1-2.34,4.38c-.18.22-.49.34-.69.14a.8.8,0,0,1-.14-.71c.69-1.42,1.41-2.84,2.16-4.23a.7.7,0,0,1,.66-.22C76.33,243.45,76.39,243.79,76.51,244Z"/><path class="cls-9" d="M101.56,260.58c-1.14,3.54-3.5,6.28-5.9,9-2.27.57-3.33-1-4.38-2.52,2.08-1.89,4.25-3.71,5.23-6.49A25.07,25.07,0,0,1,101.56,260.58Z"/><path class="cls-6" d="M99.78,253.47c0-.86,0-1.72,0-2.58,0-.34.08-.72.5-.71a.65.65,0,0,1,.62.66c0,1.85,0,3.71,0,5.56,0,.35-.16.69-.55.69s-.6-.43-.61-.84C99.77,255.32,99.78,254.4,99.78,253.47Z"/><path class="cls-6" d="M90,254.41A25.5,25.5,0,0,1,94.92,257a.74.74,0,0,1,.21.69c-.18.34-.56.29-.87.13-1.56-.77-3.12-1.54-4.67-2.33-.29-.15-.61-.37-.48-.78S89.49,254.42,90,254.41Z"/><path class="cls-6" d="M110.87,256.23c-.15.13-.31.38-.53.45-1.46.45-2.92.88-4.39,1.27a.81.81,0,0,1-.71-.21.44.44,0,0,1,.2-.66,17.94,17.94,0,0,1,4.92-1.43C110.66,255.6,110.83,255.83,110.87,256.23Z"/><path class="cls-6" d="M103.55,257c-.31,0-.5-.13-.52-.45a1.38,1.38,0,0,1,0-.58,9.12,9.12,0,0,1,2-3.11c.2-.18.65.05.61.28-.22,1.39-1.16,2.45-1.8,3.65C103.82,256.92,103.66,257,103.55,257Z"/><path class="cls-6" d="M97.76,256.43c0,.49.06.91-.38,1-.2,0-.46-.19-.64-.35a1.3,1.3,0,0,1-.3-.51c-.36-1-1.27-1.76-1-2.93,0-.11.39-.27.46-.22C97,254.18,97.12,255.54,97.76,256.43Z"/><path class="cls-6" d="M115.3,267.2a.42.42,0,0,1-.57.38,24,24,0,0,1-4.68-2.58c-.35-.21-.21-.95.27-.79a15.85,15.85,0,0,1,4.86,2.64C115.26,266.91,115.26,267.08,115.3,267.2Z"/><path class="cls-6" d="M91.32,284.31c0,2.37,0,4.21,0,6.05,0,.32,0,.74-.43.77a.85.85,0,0,1-.6-.38C89.76,289.94,90.26,285.66,91.32,284.31Z"/><path class="cls-6" d="M86.06,291.51c0,.39-.25.67-.64.47-1.52-.8-3-1.64-4.52-2.5-.16-.09-.2-.45-.21-.68a.66.66,0,0,1,.5-.19,17.56,17.56,0,0,1,4.7,2.55C86,291.23,86,291.39,86.06,291.51Z"/><path class="cls-6" d="M96.23,291.78c-.28-.11-.52-.13-.62-.26a.46.46,0,0,1,.13-.68.65.65,0,0,1,.16-.13c1.3-.62,2.49-1.51,4-1.55.06,0,.25.39.19.48C99.15,291,97.37,290.83,96.23,291.78Z"/><path class="cls-6" d="M88.46,292c-1.72-2-2-2.72-1.72-4.77A6.81,6.81,0,0,1,88.46,292Z"/><path class="cls-6" d="M95.74,288.19c-.66,1-1.32,1.94-2,2.89a.64.64,0,0,1-.52.09,1.06,1.06,0,0,1-.18-.7,9.18,9.18,0,0,1,1.81-2.79.46.46,0,0,1,.69-.07C95.65,287.73,95.66,288,95.74,288.19Z"/><path class="cls-6" d="M87.77,272.92c-.34.89.48,2.53-.68,2.53s-.53-1.65-.54-2.53-.53-2.61.47-2.58C88.41,270.38,87.32,272.06,87.77,272.92Z"/><path class="cls-6" d="M82.83,276.2c0,.39-.21.71-.61.51a13.74,13.74,0,0,1-3.61-2.46.49.49,0,0,1,.23-.81C79.33,273.25,82.8,275.66,82.83,276.2Z"/><path class="cls-6" d="M92.06,276.48c-.17-.09-.48-.15-.59-.33a.56.56,0,0,1,.29-.82c1-.43,2.08-.84,3.14-1.2a.74.74,0,0,1,.64.3c.18.27-.07.54-.29.64C94.23,275.55,93.2,276,92.06,276.48Z"/><path class="cls-6" d="M89.18,275.88c-.07-.11-.2-.24-.18-.34a5,5,0,0,1,2.27-3.3s.32.2.37.35C91.82,273.15,90.27,275.19,89.18,275.88Z"/><path class="cls-6" d="M83.36,273c.61,0,2.14,2.42,1.85,3-.13.27-.44.45-.62.19-.59-.86-1.12-1.75-1.62-2.66A.4.4,0,0,1,83.36,273Z"/><path class="cls-7" d="M611.56,264.17c-1.34-2.25-3.12-3.68-5.94-3.26-.55.08-.76-.36-.83-.84a6.53,6.53,0,0,1,7.26-7.16,1.78,1.78,0,0,0,1.89-1,7.86,7.86,0,0,1,13.29.35,1.32,1.32,0,0,0,1.57.74,7.34,7.34,0,0,1,7.74,9.48,2.2,2.2,0,0,1-2.36,1.71c-3.95-.06-7.89,0-11.83,0H611.56Zm3.51-2.69c-1.76-1.14-3.51-2.29-5.28-3.42-.31-.19-.75-.61-1-.14s.26.61.54.79c1.61,1,3.22,2.09,4.86,3.09.37.23.77.67,1.31.32C615.53,261.76,615.29,261.63,615.07,261.48Zm5.1-1c0,.3,0,.7.43.67s.36-.34.36-.61q0-3,0-6c0-.31-.08-.7-.47-.67s-.31.47-.32.75c0,1,0,2,0,2.94h0C620.16,258.5,620.16,259.48,620.17,260.45Zm5.78,1.1c0,.11,0,.33.06.34a.72.72,0,0,0,.5,0q2.76-1.77,5.5-3.57a.47.47,0,0,0,.21-.59c0-.1-.17-.16-.23-.2A45.21,45.21,0,0,0,626,261.55Zm-1.34-4.06c-.49,1.05-1,2.09-1.41,3.15a.54.54,0,0,0,.14.46.3.3,0,0,0,.47-.06,17.89,17.89,0,0,0,1.42-3.42c0-.18-.09-.33-.33-.35S624.66,257.39,624.61,257.49ZM617.12,261c.12.14.33.22.46.09a.55.55,0,0,0,.09-.48c-.46-.95-.94-1.9-1.44-2.83a.49.49,0,0,0-.44-.15c-.12,0-.16.28-.24.43A12.18,12.18,0,0,0,617.12,261Z"/><path class="cls-7" d="M654,277.32h-1.22a5.26,5.26,0,0,0-3.48,0,22.6,22.6,0,0,0-2.71-2.17h.8c.17,0,.37,0,.42-.24a.41.41,0,0,0-.35-.48c-1.53-.44-3.07-.85-4.6-1.28-.22-.06-.45-.11-.52.19s.13.37.34.47c1,.48,2.17.44,3.11,1.07a6.54,6.54,0,0,0-6,2.14,2.24,2.24,0,0,1-1.07-1.16,5.55,5.55,0,0,1,.15-5.87,5.38,5.38,0,0,1,5.22-2.69,2,2,0,0,0,2.13-1.07A6.89,6.89,0,0,1,654,263.7Zm-1.51-8.65c0-.3,0-.69-.44-.66s-.35.35-.35.61c0,1.69,0,3.39,0,5.08,0,.21,0,.49.27.53s.49-.22.49-.48c0-.94,0-1.87,0-2.81h0C652.44,270.19,652.45,269.43,652.44,268.67Zm-3.27,5.65c.06.06.32,0,.46-.12a.44.44,0,0,0,0-.36c-.66-.77-1.32-1.53-2-2.27a.65.65,0,0,0-.49-.09c-.08,0-.14.18-.25.33C647.61,272.66,648.38,273.5,649.17,274.32Z"/><path class="cls-8" d="M611.7,267.6a1.79,1.79,0,0,1-2,1.52c-2.51-.07-5,0-7.52,0a16.6,16.6,0,0,0-3.38,0l-2.31-.09c-2,0-3.93-.08-5.89,0a1.91,1.91,0,0,1-2.2-1.49,4.31,4.31,0,0,1-.26-2.83,4.69,4.69,0,0,1,5-4,1.86,1.86,0,0,0,1.9-1,5.85,5.85,0,0,1,9-.45c.24.26.51.49.76.73.07.48.28.92.83.84,2.82-.42,4.6,1,5.94,3.26A6.87,6.87,0,0,1,611.7,267.6Zm-11.72-5c0-.23-.05-.48-.33-.48a.46.46,0,0,0-.42.45c0,1.24,0,2.48,0,3.71,0,.24.12.47.37.47s.41-.29.41-.56c0-.62,0-1.24,0-1.87S600,263.2,600,262.63Zm3.25,4.1a.53.53,0,0,0-.14.46c.12.23.37.19.59.09l3.12-1.56c.19-.1.4-.25.32-.52s-.26-.21-.59-.22A17,17,0,0,0,603.23,266.73Zm-10.31-.23c1,.31,2,.59,2.93.86a.6.6,0,0,0,.48-.15.29.29,0,0,0-.13-.44,12.26,12.26,0,0,0-3.3-1c-.2,0-.31.12-.34.39C592.66,266.29,592.77,266.46,592.92,266.5Zm4.89-.07a.85.85,0,0,0,0-.39,6.31,6.31,0,0,0-1.34-2.07c-.13-.12-.43,0-.41.18a8.07,8.07,0,0,0,1.21,2.44c0,.07.14.1.21.15S597.8,266.65,597.81,266.43Zm3.78.55c.13,0,.31-.12.43-.23a.81.81,0,0,0,.19-.34c.25-.65.85-1.18.67-2a.4.4,0,0,0-.31-.15c-.73.53-.81,1.44-1.23,2C601.36,266.66,601.3,266.94,601.59,267Z"/><path class="cls-8" d="M653.82,286c-2.94-.05-5.88,0-8.82,0l-10.24,0a4.49,4.49,0,0,1-1.15-5.11,4.59,4.59,0,0,1,4.7-2.85c.85.09,1.25-.15,1.44-.92a6.54,6.54,0,0,1,6-2.14H646a.56.56,0,0,0,.55.26h0a22.6,22.6,0,0,1,2.71,2.17c-.07.67.3.8.89.78s1.48,0,2.23,0c.38.22.77.43,1.14.67a4.91,4.91,0,0,1,.44.31Zm-8.92-6.73c0-.31-.08-.68-.49-.65s-.28.4-.29.65a19.51,19.51,0,0,1-.21,4.11.49.49,0,0,0,.39.61c.39.06.57-.25.58-.58,0-.71,0-1.42,0-2.14h0C644.91,280.56,644.92,279.89,644.9,279.22Zm-4.18,5.2a.32.32,0,0,0-.12-.46,20.41,20.41,0,0,0-4.05-1.73.39.39,0,0,0-.35.13.31.31,0,0,0,.13.45c1.33.62,2.67,1.22,4,1.8C640.5,284.53,640.67,284.51,640.72,284.42Zm7.59-.58a.58.58,0,0,0-.09.48.26.26,0,0,0,.43.11c1.1-.88,2.58-1.07,3.64-2.06C650.7,282.2,649.54,283.11,648.31,283.84Zm-6,0c.3.22.56,0,.44-.35a6.82,6.82,0,0,0-1.46-2c-.22-.24-.48-.08-.57.25A5.85,5.85,0,0,0,642.26,283.88Zm4.81-.37c.23-.56.73-1,.67-1.68,0-.18-.36-.22-.45-.1a7,7,0,0,0-1.25,2.15.29.29,0,0,0,.3.35A1.16,1.16,0,0,0,647.07,283.51Z"/><path class="cls-7" d="M596.91,270.07a4.92,4.92,0,0,1,.76,2.79c-.07,2-.59,2.5-2.57,2.51-1.38,0-2.76.05-4.14.08l-2.94,0c-.49,0-1-.1-1.47-.1-2.64,0-5.29-.06-7.93,0a2.22,2.22,0,0,1-2.38-1.72,4.26,4.26,0,0,1,3.23-5.75,5.68,5.68,0,0,0,3.76-1.91c1.27-1.41,3.14-1.33,4.9-1.28a4.31,4.31,0,0,0,.26,2.83,1.91,1.91,0,0,0,2.2,1.49c2-.1,3.93,0,5.89,0C596.28,269.51,596.71,269.75,596.91,270.07ZM590,273.8a16.74,16.74,0,0,0,3.13-1.73c.24-.14.14-.64-.18-.53a10.8,10.8,0,0,0-3.25,1.76.57.57,0,0,0-.08.24A.28.28,0,0,0,590,273.8Zm-3.21-4.37a.34.34,0,0,0-.33-.35c-.27,0-.39.16-.41.4a8.1,8.1,0,0,0,.52,3.67A11.1,11.1,0,0,0,586.77,269.43Zm-4,4.09a.28.28,0,0,0,.42-.18.5.5,0,0,0-.2-.43c-.85-.39-1.61-1.13-2.92-.87A8.35,8.35,0,0,0,582.76,273.52Zm5.21-.63c-.1.2-.12.47.15.55a.46.46,0,0,0,.43-.2c.38-.77,1-1.47.92-2.4l-.38-.16C588.72,271.42,588.33,272.15,588,272.89Zm-2.87.12a4.49,4.49,0,0,0-1.39-2,.29.29,0,0,0-.37.27,5,5,0,0,0,1.38,2C584.91,273.27,585.06,273.24,585.1,273Z"/><path class="cls-7" d="M599.19,291.82c-1.9,0-2.83-1-2.73-2.9a4.14,4.14,0,0,1,4.2-3.86,1.07,1.07,0,0,0,1.2-.71,4.46,4.46,0,0,1,4.68-2.44,4.41,4.41,0,0,1,4.23,3c.28.76.65.84,1.36.84a4,4,0,0,1,4,5.14,1.18,1.18,0,0,1-1.3,1c-1,0-2-.28-2.89.19-1.79-.5-3.6-.18-5.4-.2Zm6.45-2.78c0,.21,0,.49.29.51a.57.57,0,0,0,.4-.25c.35-.55,0-3.41-.69-4.31Zm4,1.08c1-.54,2-1.1,3-1.68.11-.06.14-.29.14-.45a.42.42,0,0,0-.33-.12,11.58,11.58,0,0,0-3.15,1.7c-.06.05-.07.15-.11.23C609.19,290.07,609.33,290.25,609.59,290.12Zm-6.82-.31c.13-.16.06-.33-.09-.46a.39.39,0,0,0-.1-.08,6.88,6.88,0,0,0-2.68-1s-.17.27-.13.32c.63.93,1.83.8,2.59,1.43C602.55,289.91,602.71,289.9,602.77,289.81Zm5.93-2.89a4.59,4.59,0,0,0-1.15,3.18C608.71,288.74,608.87,288.28,608.7,286.92Zm-4.67,2.6a.46.46,0,0,0,.35.06c.07-.14.17-.35.12-.47a6.26,6.26,0,0,0-1.21-1.87c-.13-.13-.31-.2-.46-.05s-.09.23-.14.39C603.13,288.23,603.57,288.88,604,289.52Z"/><path class="cls-8" d="M602.08,281.12a2.08,2.08,0,0,1-1.82-.61,9.17,9.17,0,0,1-.54-2.12,3.72,3.72,0,0,1,3-3.26c1.52.38,2.23-.64,2.93-1.68,2.88-1.26,4.1-1,6.18,1.34a1.06,1.06,0,0,0,.91.37c2.72.1,4.09,1.45,4.23,4.1,0,1.33-.62,2-2.07,1.87a18.93,18.93,0,0,0-2.38,0C609.06,281.14,605.57,281.12,602.08,281.12Zm6.39-2.06c.75,0,.36-1.1.36-1.7s.36-1.74-.31-1.72c-.93,0-.2,1.15-.5,1.73C608.25,278,607.7,279.06,608.47,279.06Zm3.26.84a9.23,9.23,0,0,0,2.42-1.64.33.33,0,0,0-.16-.54,6.16,6.16,0,0,0-2.67,1.84C611.34,279.82,611.46,280,611.73,279.9Zm-6.19-.37a.38.38,0,0,0-.19-.55c-.7-.29-1.4-.56-2.11-.8a.49.49,0,0,0-.42.2c-.12.17,0,.36.19.43.68.32,1.38.61,2.14.94C605.26,279.69,605.47,279.65,605.54,279.53Zm1.65-.41a3.35,3.35,0,0,0-1.51-2.21s-.22.14-.25.24c-.12.37.91,1.74,1.64,2.2C607.12,279.27,607.21,279.18,607.19,279.12Zm2.54.34c.09.18.29.3.41.13a19.28,19.28,0,0,0,1.09-1.78.27.27,0,0,0-.26-.37C610.56,277.4,609.54,279.06,609.73,279.46Z"/><path class="cls-9" d="M600.26,280.51a9.17,9.17,0,0,1-.54-2.12c-3.11-.39-6.16-1-8.76-2.94l-2.94,0c2.32,3,5.58,4.25,9.19,4.8C598.21,280.43,599.24,280.44,600.26,280.51Z"/><path class="cls-9" d="M649.25,277.35c-.07.67.3.8.89.78s1.48,0,2.23,0l.36-.83A5.26,5.26,0,0,0,649.25,277.35Z"/><path class="cls-10" d="M646,363.2c-1.24-2.71.28-19.29.28-19.29,1.51-10.37-4.23-21.43-6.6-26.5s-1.12-13.08-1.21-16.89,1.66-4.82,1.66-4.82c1.9-.88,3.34-8.47,5-9.73h-3.41c-1,.4-2.43,4.75-3.29,5.27-3.29,2-6.84-1.57-10.21-6.73-3.88-5.94-3.88-9-5.22-14.86a21.26,21.26,0,0,1-.52-5.46H619a92.58,92.58,0,0,0,2.58,16.58c-.11.06-.16.1-.18.09l-4.26-1.58c0,1.33-.62,2-2.07,1.87a18.93,18.93,0,0,0-2.38,0,85.76,85.76,0,0,1,10.74,6.34,15,15,0,0,1,1.54,1.63c2.33,2.33,2.57,3.8,3.47,6.17-6.37-.89-10.64-.86-16.32-3.19-1.79-.5-3.6-.18-5.4-.2,2.56,2.55,5.81,3.8,9.17,4.79,5.25,1.55,6.32,1.4,11.7,2.27a12.76,12.76,0,0,1-.29,4.17,27.76,27.76,0,0,0-.64,8,44.1,44.1,0,0,0,2.43,11.56s2.12,2.37,1.21,11.5c0,0-1.91,22.45.12,29Z"/><path class="cls-6" d="M615.45,262.12c.08-.36-.16-.49-.38-.64-1.76-1.14-3.51-2.29-5.28-3.42-.31-.19-.75-.61-1-.14s.26.61.54.79c1.61,1,3.22,2.09,4.86,3.09C614.51,262,614.91,262.47,615.45,262.12Z"/><path class="cls-6" d="M620.16,257.52c0,1,0,2,0,2.93,0,.3,0,.7.43.67s.36-.34.36-.61q0-3,0-6c0-.31-.08-.7-.47-.67s-.31.47-.32.75c0,1,0,2,0,2.94Z"/><path class="cls-6" d="M632,257.54a45.21,45.21,0,0,0-6,4c0,.11,0,.33.06.34a.72.72,0,0,0,.5,0q2.76-1.77,5.5-3.57a.47.47,0,0,0,.21-.59C632.18,257.64,632.05,257.58,632,257.54Z"/><path class="cls-6" d="M624.9,257.27c-.09.07-.24.12-.29.22-.49,1.05-1,2.09-1.41,3.15a.54.54,0,0,0,.14.46.3.3,0,0,0,.47-.06,17.89,17.89,0,0,0,1.42-3.42C625.28,257.44,625.14,257.29,624.9,257.27Z"/><path class="cls-6" d="M615.55,258a12.18,12.18,0,0,0,1.57,2.94c.12.14.33.22.46.09a.55.55,0,0,0,.09-.48c-.46-.95-.94-1.9-1.44-2.83a.49.49,0,0,0-.44-.15C615.67,257.65,615.63,257.88,615.55,258Z"/><path class="cls-6" d="M652.44,270.94c0-.75,0-1.51,0-2.27,0-.3,0-.69-.44-.66s-.35.35-.35.61c0,1.69,0,3.39,0,5.08,0,.21,0,.49.27.53s.49-.22.49-.48c0-.94,0-1.87,0-2.81Z"/><path class="cls-6" d="M645.74,274.91H646a.59.59,0,0,1,.55.26h.8c.17,0,.37,0,.42-.24a.41.41,0,0,0-.35-.48c-1.53-.44-3.07-.85-4.6-1.28-.22-.06-.45-.11-.52.19s.13.37.34.47C643.63,274.32,644.8,274.28,645.74,274.91Z"/><path class="cls-6" d="M646.83,271.81c.78.85,1.55,1.69,2.34,2.51.06.06.32,0,.46-.12a.44.44,0,0,0,0-.36c-.66-.77-1.32-1.53-2-2.27a.65.65,0,0,0-.49-.09C647,271.49,646.94,271.66,646.83,271.81Z"/><path class="cls-9" d="M598.79,269.11a17.26,17.26,0,0,0,4,6c1.52.38,2.23-.64,2.93-1.68-1.39-1.27-2.84-2.49-3.5-4.35A17.35,17.35,0,0,0,598.79,269.11Z"/><path class="cls-6" d="M600,264.35c0-.57,0-1.15,0-1.72,0-.23-.05-.48-.33-.48a.46.46,0,0,0-.42.45c0,1.24,0,2.48,0,3.71,0,.24.12.47.37.47s.41-.29.41-.56C600,265.6,600,265,600,264.35Z"/><path class="cls-6" d="M606.53,265a17,17,0,0,0-3.3,1.75.53.53,0,0,0-.14.46c.12.23.37.19.59.09l3.12-1.56c.19-.1.4-.25.32-.52S606.86,265,606.53,265Z"/><path class="cls-6" d="M592.56,266.2c.1.09.21.26.36.3,1,.31,2,.59,2.93.86a.6.6,0,0,0,.48-.15.29.29,0,0,0-.13-.44,12.26,12.26,0,0,0-3.3-1C592.7,265.78,592.59,265.93,592.56,266.2Z"/><path class="cls-6" d="M597.46,266.74c.21,0,.34-.09.35-.31a.85.85,0,0,0,0-.39,6.31,6.31,0,0,0-1.34-2.07c-.13-.12-.43,0-.41.18a8.07,8.07,0,0,0,1.21,2.44C597.28,266.66,597.39,266.69,597.46,266.74Z"/><path class="cls-6" d="M601.34,266.33c0,.33,0,.61.25.65.13,0,.31-.12.43-.23a.81.81,0,0,0,.19-.34c.25-.65.85-1.18.67-2a.4.4,0,0,0-.31-.15C601.84,264.83,601.76,265.74,601.34,266.33Z"/><path class="cls-6" d="M644.91,281.22c0-.66,0-1.33,0-2,0-.31-.08-.68-.49-.65s-.28.4-.29.65a19.51,19.51,0,0,1-.21,4.11.49.49,0,0,0,.39.61c.39.06.57-.25.58-.58,0-.71,0-1.42,0-2.14Z"/><path class="cls-6" d="M640.29,284.61c.21-.08.38-.1.43-.19a.32.32,0,0,0-.12-.46,20.41,20.41,0,0,0-4.05-1.73.39.39,0,0,0-.35.13.31.31,0,0,0,.13.45C637.66,283.43,639,284,640.29,284.61Z"/><path class="cls-6" d="M652.29,282.37c-1.59-.17-2.75.74-4,1.47a.58.58,0,0,0-.09.48.26.26,0,0,0,.43.11C649.75,283.55,651.23,283.36,652.29,282.37Z"/><path class="cls-6" d="M640.67,281.75a5.85,5.85,0,0,0,1.59,2.13c.3.22.56,0,.44-.35a6.82,6.82,0,0,0-1.46-2C641,281.26,640.76,281.42,640.67,281.75Z"/><path class="cls-6" d="M646.34,284.23a1.16,1.16,0,0,0,.73-.72c.23-.56.73-1,.67-1.68,0-.18-.36-.22-.45-.1a7,7,0,0,0-1.25,2.15A.29.29,0,0,0,646.34,284.23Z"/><path class="cls-6" d="M646.54,275.18a.59.59,0,0,0-.55-.26A.56.56,0,0,0,646.54,275.18Z"/><path class="cls-6" d="M589.6,273.54a.28.28,0,0,0,.38.26,16.74,16.74,0,0,0,3.13-1.73c.24-.14.14-.64-.18-.53a10.8,10.8,0,0,0-3.25,1.76A.57.57,0,0,0,589.6,273.54Z"/><path class="cls-6" d="M586.55,273.15a11.1,11.1,0,0,0,.22-3.72.34.34,0,0,0-.33-.35c-.27,0-.39.16-.41.4A8.1,8.1,0,0,0,586.55,273.15Z"/><path class="cls-6" d="M580.06,272a8.35,8.35,0,0,0,2.7,1.48.28.28,0,0,0,.42-.18.5.5,0,0,0-.2-.43C582.13,272.52,581.37,271.78,580.06,272Z"/><path class="cls-6" d="M589.09,270.68c-.37.74-.76,1.47-1.12,2.21-.1.2-.12.47.15.55a.46.46,0,0,0,.43-.2c.38-.77,1-1.47.92-2.4Z"/><path class="cls-6" d="M584.72,273.26c.19,0,.34,0,.38-.25a4.49,4.49,0,0,0-1.39-2,.29.29,0,0,0-.37.27A5,5,0,0,0,584.72,273.26Z"/><path class="cls-6" d="M605.64,285V289c0,.21,0,.49.29.51a.57.57,0,0,0,.4-.25C606.68,288.75,606.35,285.89,605.64,285Z"/><path class="cls-6" d="M609.16,289.8c0,.27.17.45.43.32,1-.54,2-1.1,3-1.68.11-.06.14-.29.14-.45a.42.42,0,0,0-.33-.12,11.58,11.58,0,0,0-3.15,1.7C609.21,289.62,609.2,289.72,609.16,289.8Z"/><path class="cls-6" d="M602.36,290c.19-.07.35-.08.41-.17s.06-.33-.09-.46a.39.39,0,0,0-.1-.08,6.88,6.88,0,0,0-2.68-1s-.17.27-.13.32C600.4,289.48,601.6,289.35,602.36,290Z"/><path class="cls-6" d="M607.55,290.1c1.16-1.36,1.32-1.82,1.15-3.18A4.59,4.59,0,0,0,607.55,290.1Z"/><path class="cls-6" d="M602.69,287.58c.44.65.88,1.3,1.34,1.94a.46.46,0,0,0,.35.06c.07-.14.17-.35.12-.47a6.26,6.26,0,0,0-1.21-1.87c-.13-.13-.31-.2-.46-.05S602.74,287.42,602.69,287.58Z"/><path class="cls-6" d="M608,277.37c.23.6-.32,1.69.45,1.69s.36-1.1.36-1.7.36-1.74-.31-1.72C607.59,275.66,608.32,276.79,608,277.37Z"/><path class="cls-6" d="M611.32,279.56c0,.26.14.48.41.34a9.23,9.23,0,0,0,2.42-1.64.33.33,0,0,0-.16-.54A6.16,6.16,0,0,0,611.32,279.56Z"/><path class="cls-6" d="M605.15,279.75c.11-.06.32-.1.39-.22a.38.38,0,0,0-.19-.55c-.7-.29-1.4-.56-2.11-.8a.49.49,0,0,0-.42.2c-.12.17,0,.36.19.43C603.69,279.13,604.39,279.42,605.15,279.75Z"/><path class="cls-6" d="M607.08,279.35c0-.08.13-.17.11-.23a3.35,3.35,0,0,0-1.51-2.21s-.22.14-.25.24C605.31,277.52,606.34,278.89,607.08,279.35Z"/><path class="cls-6" d="M611,277.44c-.41,0-1.43,1.62-1.24,2,.09.18.29.3.41.13a19.28,19.28,0,0,0,1.09-1.78A.27.27,0,0,0,611,277.44Z"/><ellipse class="cls-11" cx="561.19" cy="170.24" rx="19" ry="18.78"/><rect class="cls-12" x="40.77" y="339.13" width="613.19" height="35.06"/><path class="cls-13" d="M450.43,227.59c-13.31,0-26.62,0-39.93,0-7,0-11.53-3.43-11.94-9.23-.41-6,3.31-10,10.5-10.52,3.33-.22,2.6-2.52,3-4.09,3.41-12.91,16.91-18.66,28.23-11.87a17.31,17.31,0,0,1,8.15,10.88c.53,2.08,1,2.81,3.61,2.26,5.67-1.2,9,.75,11.53,6.18.85,1.87,1.56,2.63,3.42,1.42a3.72,3.72,0,0,1,.89-.45c5-1.61,8.2,2.81,12,3.63s8.42-2.2,12.45,1.16a9.71,9.71,0,0,1,3.2,4.93c1.29,4.59.55,5.67-4.21,5.68Q470.9,227.61,450.43,227.59Z"/><path class="cls-14" d="M594.63,206.35h29.22c5.15,0,8.44-2.51,8.74-6.75s-2.43-7.35-7.69-7.7c-2.43-.16-1.9-1.84-2.2-3-2.49-9.45-12.37-13.65-20.65-8.68a12.67,12.67,0,0,0-6,8c-.38,1.53-.76,2.06-2.64,1.66-4.15-.88-6.61.55-8.43,4.52-.63,1.37-1.15,1.92-2.51,1a2.78,2.78,0,0,0-.64-.33c-3.68-1.18-6,2.06-8.8,2.65s-6.16-1.6-9.12.86a7.05,7.05,0,0,0-2.33,3.6c-1,3.36-.41,4.15,3.07,4.16C574.67,206.36,584.65,206.34,594.63,206.35Z"/><path class="cls-15" d="M567.1,348.74c0-.69-.23-1-.93-.95-1.46,0-2.92,0-4.39,0s-1.6,0-1.8-1.55a2.38,2.38,0,0,1,0-.46,156.59,156.59,0,0,0-2.53-23,169.6,169.6,0,0,0-8.91-32.19c-1.85-4.79-3.83-9.54-5.37-14.43a119.49,119.49,0,0,1-4.22-20.1c-.65-4.83-1.28-9.65-1.78-14.49-.38-3.66-.6-7.34-.79-11-.27-5.28-.43-10.58-.67-15.87,0-.9.31-1.12,1.14-1.08,1.29.06,2.58,0,3.91,0V204c-1.53,0-2.91,0-4.29,0-.76,0-1-.26-1-1,0-1.31,0-2.62,0-3.92,0-1-.31-1.34-1.32-1.33-3.5.06-7,0-10.49,0-10.77,0-21.53,0-32.3,0-1.1,0-1.52.32-1.45,1.44s0,2.53,0,3.8c0,.74-.23,1-1,1-1.42-.05-2.84,0-4.26,0-.7,0-1,.28-1,.95,0,2.58,0,5.15,0,7.73,0,.75.3,1,1,1,1.31-.05,2.62,0,3.92,0,.83,0,1.12.29,1.05,1.07,0,.34,0,.69,0,1-.24,5.4-.43,10.81-.74,16.21-.24,4.17-.48,8.36-1,12.5-.78,6.42-1.65,12.84-2.76,19.22A93.81,93.81,0,0,1,479,285.55a150.8,150.8,0,0,0-7.33,20.82,172,172,0,0,0-6.27,40.45c0,.77-.26,1-1,1-1.62,0-3.23,0-4.85,0-1,0-1.27.35-1.25,1.28q.06,3.63,0,7.26c0,1,.37,1.33,1.3,1.24.26,0,.53,0,.8,0H565c.39,0,.77,0,1.16,0,.69,0,.93-.28.92-1C567.07,354,567.07,351.36,567.1,348.74Z"/><rect class="cls-16" x="497.83" y="255.79" width="28.75" height="24.18"/><path class="cls-17" d="M483.76,206.87a7.38,7.38,0,0,1,.94,0h55.11a7.43,7.43,0,0,1,.91.06V204c-1.53,0-2.91,0-4.29,0-.62,0-.89-.18-1-.65-7.59,0-15.19,0-22.78,0s-15.19,0-22.79,0c-.07.47-.35.67-1,.65-1.42-.05-2.84,0-4.26,0-.7,0-1,.28-1,.95v1.89Z"/><path class="cls-17" d="M489.94,200.46q22.76.07,45.5,0,0-.66,0-1.32c0-1-.31-1.34-1.32-1.33-3.5.05-7,0-10.49,0-10.77,0-21.53,0-32.3,0-1.1,0-1.52.32-1.45,1.44C489.93,199.65,489.94,200.06,489.94,200.46Z"/><path class="cls-17" d="M458.39,352.11c0-.12.62-.26.95-.27,2.67,0,5.35,0,8,0h98.21a3.53,3.53,0,0,1,1.53.25c0-1.11,0-2.23,0-3.35,0-.69-.23-1-.93-.95-1.46,0-2.92,0-4.39,0-.78,0-1.18,0-1.41-.19a2.7,2.7,0,0,1-.61,0c-2.66,0-5.33,0-8,0s-5.41,0-8.12,0c-.82,0-1.11-.21-1.1-.85q.06-3.42,0-6.85c0-.66.33-.82,1.13-.81q7.86,0,15.72,0h.17c-.09-1.16-.2-2.31-.32-3.46-.51,0-.93,0-1.34,0-.69,0-1-.18-1-.87,0-2.47,0-4.95,0-7.42,0-.27.39-.54.6-.81.16.16.39.31.55.47-.22-1.38-.44-2.76-.68-4.13-.33,0-.59.06-.85.06-4.34,0-8.68,0-13,0-.95,0-1.36-.21-1.33-1.19.07-2.27,0-4.55,0-6.83,0-.76.16-1.13,1.11-1.12,3.83,0,7.67,0,11.51.05a1.54,1.54,0,0,1,.83.35c-.29-1.3-.6-2.6-.92-3.89-.35,0-.6,0-.86,0-8.1,0-16.21,0-24.32,0-1,0-1.43-.22-1.39-1.24.07-2.31,0-4.63,0-6.95,0-.79.19-1.11,1.13-1.11,7.34,0,14.68,0,22,0a2,2,0,0,1,.91.3c-.4-1.26-.8-2.53-1.23-3.78h-7.4c-.71,0-.86-.31-.86-.88,0-2.43,0-4.87,0-7.31,0-.74.35-.91,1.09-.94,3.34-.14,3.65-.16,4.71,2.25l-.07-.18c-.73-1.89-1.48-3.78-2.21-5.67a5.09,5.09,0,0,1-.54,0c-5,0-9.9,0-14.85,0-1.11,0-1.47-.3-1.44-1.28.07-2.23.06-4.47,0-6.71,0-.84.23-1.18,1.27-1.17,4,.05,7.94,0,11.91.05a1.75,1.75,0,0,1,.42.07c-.37-1.18-.71-2.37-1-3.56h-9.57c-3.25,0-3.25,0-3.25-2.86,0-1.92,0-3.85,0-5.77,0-.83.22-1.21,1.24-1.19,2.81.05,5.62,0,8.42.05a1.67,1.67,0,0,1,1.19.67q-.37-2.08-.69-4.17c-3,0-5.93,0-8.82,0a1.06,1.06,0,0,1-.75-.73c-.06-2.37-.06-4.75,0-7.12,0-.24.59-.66.92-.67,2.4-.06,4.8-.05,7.2,0a.71.71,0,0,1,.29.08c-.15-1.18-.29-2.35-.43-3.52-.43,0-.82.05-1.2.05-6.8,0-13.59,0-20.39,0-1.19,0-1.55-.31-1.51-1.34.07-2.23,0-4.47,0-6.7,0-.8.28-1.12,1.23-1.12q9.93,0,19.85,0c.59,0,.91.15,1.09.47-.12-1.36-.21-2.73-.29-4.1l-.09,0q-2.9.1-5.81,0a1.18,1.18,0,0,1-.81-.78c-.09-1.25,0-2.51,0-3.77s0-2.35,0-3.53c0-.68.19-1,1.08-1,1.56.05,3.13,0,4.7,0a2.19,2.19,0,0,1,.55.05c0-1.2-.11-2.4-.16-3.59a2.23,2.23,0,0,1-.79.09h-9.74c-3.11,0-6.23,0-9.34,0-1,0-1.4-.17-1.38-.95.06-2.14,0-4.29,0-6.44,0-.65.19-1,1.21-1,6.31,0,12.63,0,18.94,0,.48,0,.83,0,1,.24a1.18,1.18,0,0,1,.91-.21c1.29.06,2.58,0,3.91,0v-4a3.38,3.38,0,0,1-.6.06q-12.51,0-25,0h-2.82q-13.9,0-27.82,0a3.75,3.75,0,0,1-.77-.11c0,1,0,2,0,3.06,0,.75.3,1,1,1,1.31-.05,2.62,0,3.92,0,.48,0,.76.09.91.32.17-.25.49-.35,1.08-.35q9.47,0,18.93,0c.87,0,1.22.17,1.2.85,0,2.21,0,4.43,0,6.64,0,.68-.32.87-1.19.86-3.21,0-6.41,0-9.61,0s-6.31,0-9.47,0a1.89,1.89,0,0,1-1.07-.19c-.05,1.28-.11,2.56-.17,3.84a.92.92,0,0,1,.42-.16,35.74,35.74,0,0,1,4.14,0c.31,0,.84.48.85.74q.09,3.75,0,7.52c0,.27-.53.75-.84.76-1.61.06-3.24,0-5,0-.08,1.38-.17,2.75-.28,4.13a2,2,0,0,1,1.17-.53c2.77,0,5.55,0,8.32,0,3.71,0,7.42.06,11.13,0,1.4,0,1.75.37,1.7,1.54-.11,2.2,0,4.4,0,6.59,0,.54,0,1-.85,1H487.62c-.15,1.17-.3,2.33-.46,3.5a.84.84,0,0,1,.34-.11q3.33-.09,6.66,0a1.18,1.18,0,0,1,.82.77c.1,1.16,0,2.33,0,3.5s0,2.17,0,3.26c0,.68-.18,1.05-1,1q-3.8,0-7.61,0a1.76,1.76,0,0,1-.42,0c-.23,1.49-.47,3-.73,4.45.16-.65.51-1,1.4-1,2.58.05,5.17,0,7.75,0,.9,0,1.24.24,1.23,1.08q-.08,3.89,0,7.76c0,.8-.33,1-1.16,1-3.58,0-7.17,0-11.05,0-.29,1.17-.61,2.34-.94,3.5h0c3.93,0,7.85,0,11.78,0,.73,0,1.05.19,1,.87,0,2.44,0,4.87,0,7.31,0,.63-.22.93-1,.93H479.24l-.23.54c-.76,1.73-1.47,3.46-2.16,5.21.07-.15.13-.31.2-.46.74-1.69,1.95-2.22,3.89-1.65a1,1,0,0,1,.54.75c0,2.51,0,5,0,7.52a1.11,1.11,0,0,1-.78.75c-2,.06-4.06,0-6.35,0-.43,1.27-.86,2.54-1.25,3.83a1.41,1.41,0,0,1,.79-.34c6.94,0,13.89,0,20.83-.05.84,0,1.11.25,1.1,1,0,2.43,0,4.87,0,7.3,0,.58-.07,1-.88,1q-12.15,0-24.29,0c-.33,1.3-.63,2.6-.93,3.9a1.33,1.33,0,0,1,.75-.37c3.55-.05,7.09,0,10.64,0,.7,0,1,.22,1,.88,0,2.44,0,4.87,0,7.31,0,.64-.23.93-.94.92l-13,0-.14,0q-.54,3-1,6.06c.11-.65.22-1.3.35-1.94.05-.28.57-.23.82-.47.21.27.59.53.6.81,0,2.47,0,4.94,0,7.42,0,.68-.29.9-1,.87-.49,0-1,0-1.65,0-.12,1.16-.22,2.32-.31,3.48,5.15,0,10.3,0,15.45,0,.73,0,1,.21,1,.75,0,2.31,0,4.63,0,6.95,0,.68-.38.81-1.15.81-2.63,0-5.25,0-7.87,0s-5.25,0-7.88,0l-.22,0a1.07,1.07,0,0,1-.73.18c-1.62,0-3.23,0-4.85,0-1,0-1.27.35-1.25,1.28,0,1.2,0,2.41,0,3.61C458.35,352.48,458.37,352.3,458.39,352.11Zm51.32-4.46c-3.76,0-7.53,0-11.29,0s-7.44,0-11.16,0c-.95,0-1.35-.15-1.32-1,.07-2.22.05-4.44,0-6.65,0-.69.26-.9,1.15-.9q11.36,0,22.7,0c.93,0,1.14.27,1.12.92,0,2.22-.05,4.44,0,6.65C511,347.43,510.66,347.66,509.71,347.65Zm2.45-12c-3.66,0-7.31,0-11,0-1.08,0-1.37-.31-1.35-1.27.07-2.28.05-4.56,0-6.83,0-.75.24-1.05,1.09-1.05q11.34,0,22.69,0c.84,0,1.1.29,1.08,1.05,0,2.35-.05,4.71,0,7.06,0,.89-.39,1-1.22,1C519.72,335.68,515.94,335.69,512.16,335.69Zm-12.64-33.52c0-.77.26-1,1.11-1q11.37,0,22.76,0c.86,0,1.1.28,1.09,1,0,2.4-.05,4.79,0,7.19,0,.82-.27,1.09-1.16,1.08-3.8,0-7.59,0-11.39,0s-7.42,0-11.12,0c-1.05,0-1.31-.3-1.29-1.21C499.57,306.88,499.56,304.53,499.52,302.17ZM525,277.93c0,1-.33,1.21-1.31,1.21q-11.31-.08-22.63-.05c-.95,0-1.24-.25-1.24-1.14q.06-10.14,0-20.27c0-1,.37-1.2,1.33-1.19,3.75,0,7.5,0,11.25,0s7.42,0,11.12,0c1.06,0,1.5.19,1.49,1.29C524.94,264.5,525,271.22,525,277.93Zm-24.35,3.58c4.29.05,8.57,0,12.85,0,3.61,0,7.22.13,10.83.13,1,0,1.26.36,1.26,1.19s-.25,1.19-1.28,1.18c-4,0-7.94,0-11.91,0s-7.85,0-11.78,0c-1.14,0-1.41-.34-1.43-1.29S499.55,281.5,500.64,281.51Zm38.22,65.29c0,.64-.27.85-1.09.85q-11,0-22.06,0c-.93,0-1.15-.28-1.14-.93,0-2.21,0-4.43,0-6.65,0-.73.31-.95,1.25-.94,3.68,0,7.35,0,11,0s7.18,0,10.78,0c.91,0,1.26.17,1.25.93C538.81,342.3,538.82,344.55,538.86,346.8Zm13.88-20.24c.91,0,1.17.33,1.16,1.12,0,2.32,0,4.63,0,6.95,0,.83-.31,1.08-1.19,1.08-3.87,0-7.74,0-11.61,0s-7.56,0-11.34,0c-1,0-1.38-.18-1.34-1.17.07-2.31.05-4.63,0-7,0-.76.28-1,1.1-1Q541.14,326.59,552.74,326.56Zm-15.33-12.68c.91,0,1.16.28,1.15,1.09q-.07,3.48,0,7c0,.83-.3,1.09-1.17,1.08-3.67,0-7.34,0-11,0s-7.18,0-10.77,0c-.87,0-1.31-.18-1.29-1.11.05-2.31,0-4.63,0-6.95,0-.84.32-1.07,1.19-1.07Q526.45,313.93,537.41,313.88Zm.48-25.3c.81,0,1.15.22,1.13,1,0,2.36,0,4.71,0,7.07,0,.84-.31,1.07-1.19,1.06-3.73,0-7.47,0-11.2,0s-7.48,0-11.21,0c-.93,0-1.3-.21-1.27-1.12.06-2.32.05-4.63,0-6.95,0-.84.31-1.09,1.19-1.08Q526.62,288.61,537.89,288.58Zm-37.8-54c-1,0-1.37-.26-1.34-1.15.06-2.24.07-4.48,0-6.71,0-1,.26-1.3,1.45-1.28,4,.06,8,0,12,0s8.11,0,12.17,0c1,0,1.38.24,1.36,1.13-.07,2.28-.06,4.56,0,6.83,0,.85-.26,1.18-1.31,1.18Q512.27,234.51,500.09,234.55Zm.43,17q11.87,0,23.74,0c1,0,1.32.18,1.34,1.12s-.42,1.22-1.41,1.22c-4,0-8,0-11.94,0s-7.78,0-11.67,0c-1,0-1.43-.21-1.41-1.22S499.57,251.58,500.52,251.59Zm-14,46.14c-1,0-1.28-.25-1.25-1.14.06-2.27.07-4.55,0-6.83,0-1,.38-1.19,1.35-1.19,3.73,0,7.47,0,11.2,0s7.47,0,11.21,0c1.07,0,1.41.29,1.38,1.27-.07,2.24-.06,4.48,0,6.72,0,.84-.21,1.17-1.21,1.17Q497.85,297.68,486.52,297.73Zm.49,16.15c3.72.05,7.43,0,11.15,0s7.43,0,11.14,0c.87,0,1.22.22,1.2,1.06q-.06,3.48,0,7c0,.8-.27,1.12-1.16,1.11q-11.22,0-22.43,0c-.86,0-1.18-.24-1.17-1.08q.09-3.42,0-6.84C485.72,314.18,486,313.86,487,313.88Zm-14.12,21.83c-1,0-1.44-.2-1.41-1.23.08-2.27.06-4.55,0-6.83,0-.83.3-1.09,1.18-1.09q11.16,0,22.32,0c.92,0,1.15.33,1.14,1.12,0,2.32-.05,4.64,0,6.95,0,.84-.29,1.08-1.17,1.08-3.74,0-7.49,0-11.23,0S476.5,335.66,472.89,335.71Z"/><path class="cls-17" d="M566.56,354.94a8.16,8.16,0,0,1-1,0H460c-.54,0-1.51-.09-1.54-.28a3.51,3.51,0,0,1-.09-.65c0,.77,0,1.54,0,2.31,0,1,.37,1.33,1.3,1.24.26,0,.53,0,.8,0H565c.39,0,.77,0,1.16,0,.69,0,.93-.28.92-1s0-1.22,0-1.83A1.81,1.81,0,0,1,566.56,354.94Z"/><path class="cls-15" d="M625.59,336.69c-.72,0-1.11,0-1.49,0-.66,0-.92-.24-.91-.9,0-2.47,0-4.94,0-7.41,0-.26.32-.52.49-.78.2.15.53.27.56.45C624.72,330.86,625.14,333.67,625.59,336.69Z"/><path class="cls-18" d="M216,349.2c9.8-12.68,46.48-52.68,84.91.51a4.74,4.74,0,0,1-2.25,7.31l-.12,0c-3.75,1.11-71.91.1-78.3,0a4.25,4.25,0,0,1-1.18-.16,9.06,9.06,0,0,1-1.5-.6A4.74,4.74,0,0,1,216,349.2Z"/><path class="cls-19" d="M56.61,342.68c17.35-23.12,93.32-111,172.69,1.24A7.45,7.45,0,0,1,228,354.06a14.43,14.43,0,0,1-4.89,2.48c-7.57,2.25-146,.17-156.89,0a7.19,7.19,0,0,1-1.72-.23A19.14,19.14,0,0,1,58,353.07,7.44,7.44,0,0,1,56.61,342.68Z"/><rect class="cls-4" x="124.75" y="336.33" width="15.23" height="21.25"/><rect class="cls-4" x="147.25" y="336.33" width="15.23" height="21.25"/><rect class="cls-5" x="115.18" y="336.33" width="9.57" height="21.25"/><rect class="cls-5" x="139.97" y="336.33" width="7.27" height="21.25"/><rect class="cls-5" x="162.47" y="336.33" width="9.57" height="21.25"/><rect class="cls-5" x="115.18" y="326.31" width="56.86" height="10.01"/><path class="cls-20" d="M40.77,374.7c15.28,0,30.57,0,45.85,0a2.66,2.66,0,0,0,.37-.07c.81-1,2.14-1.06,3.06-2,3.73-3.64,3.4-9.48-1.24-12.77-1-.72-1.18-1.24-.62-2.41A9.27,9.27,0,0,0,87.09,347c-.56-.72-1.74-.52-1.9-1.58a8.92,8.92,0,0,0-7.69-1.71c-.78.14-1.21.32-1.18-.83.15-5.31-2.37-9-6.89-10.39-4.35-1.31-8.54.47-11.38,4.84-.07.1-.15.19-.25.31-.73-.13-.79-.87-1.12-1.33a9.75,9.75,0,0,0-10.82-3.8c-2.74.85-4,2.72-5.09,5.15Z"/><path class="cls-21" d="M73.2,356.46a6.63,6.63,0,0,1,5.71-1.27c.57.1.89.24.86-.62-.11-3.93,1.77-6.7,5.12-7.7s6.33.35,8.43,3.59c.05.08.12.14.19.23.54-.09.59-.64.83-1a7.22,7.22,0,0,1,8-2.82,7.07,7.07,0,0,1,5.1,6.78c0,1,.18,1.32,1.22,1.45a7.13,7.13,0,0,1,5.51,10.36c-.48.94-.33,1.25.52,1.76a5.86,5.86,0,0,1,2.56,6.59,5.69,5.69,0,0,1-5.43,4.31c-13.23,0-26.47,0-39.7,0a1.31,1.31,0,0,1-.27-.06c-.6-.72-1.59-.78-2.28-1.45a6,6,0,0,1,.92-9.47c.76-.53.88-.93.46-1.79a6.89,6.89,0,0,1,.82-7.75C72.21,357.1,73.08,357.24,73.2,356.46Z"/><path class="cls-22" d="M653.87,387.35q-40.54,0-81.09,0a3.53,3.53,0,0,1-.63-.13c-1.42-1.69-3.74-1.84-5.36-3.42-6.51-6.33-5.92-16.5,2.16-22.22,1.78-1.25,2.08-2.17,1.09-4.2-3.12-6.37-2.53-12.43,1.93-18.18,1-1.26,3-.91,3.31-2.76,4-3.29,8.57-3.82,13.43-3,1.37.24,2.1.56,2-1.45-.26-9.23,4.15-15.72,12-18.08,7.6-2.27,14.89.83,19.86,8.43a5.85,5.85,0,0,0,.44.54c1.28-.22,1.37-1.52,1.95-2.31a17,17,0,0,1,29,1.56v44"/><path class="cls-23" d="M575.24,336.43c-.28,1.85-2.33,1.5-3.3,2.76-4.44,5.75-5,11.81-1.92,18.18,1,2,.68,2.95-1.09,4.2-8.06,5.72-8.64,15.89-2.15,22.22,1.61,1.58,3.92,1.73,5.34,3.42-2.12.61-4.28.25-6.42.26-15,0-30,0-45,0-4.33,0-7.85-1.48-9.94-5.41-1.81-3.42-2.1-7.45.54-10,3.36-3.29,3.61-6.12,2.76-10.6-1.41-7.39,4.94-13.51,12.67-13.16,2.34.11,3.33-.06,3.34-2.85a11.67,11.67,0,0,1,8.47-11,12.29,12.29,0,0,1,13.33,4.26c.53.66,1,1.34,1.63,2.15,2.9-4.32,6.46-7.12,11.82-6.89a11.7,11.7,0,0,1,6.35,2.08C572.91,336.84,574,337.2,575.24,336.43Z"/><path class="cls-1" d="M592.62,351.43a3.06,3.06,0,1,0-5.59-1.72c0,.05,0,.09,0,.14a3.09,3.09,0,0,0-1.82-.59,3.15,3.15,0,0,0,0,6.29l.26,0a3,3,0,0,0-.43,1.55,3.05,3.05,0,0,0,6.1.17,2.94,2.94,0,0,0,1.26.28,3.05,3.05,0,0,0,.21-6.1Z"/><path class="cls-24" d="M589.22,352.27a.92.92,0,0,0-.22-.48.9.9,0,0,0-1.28-.06.89.89,0,0,0-.06,1.27l0,0a.83.83,0,0,0-.51.23.93.93,0,0,0-.07,1.31.92.92,0,0,0,1.31.06s0,0,.05-.05a.88.88,0,0,0,.21.42,5.94,5.94,0,0,1,1.7-1.36.9.9,0,0,0-1.16-1.37Z"/><path class="cls-1" d="M551.59,368a1.55,1.55,0,0,0,.27-.88,1.58,1.58,0,1,0-3.15,0v.07a1.58,1.58,0,0,0-.94-.31,1.63,1.63,0,0,0,0,3.25h.14a1.53,1.53,0,0,0-.23.8,1.58,1.58,0,0,0,3.15.08,1.44,1.44,0,0,0,.65.15,1.58,1.58,0,0,0,.11-3.15Z"/><path class="cls-24" d="M549.84,368.46a.49.49,0,0,0-.12-.25.46.46,0,0,0-.69.62l0,0a.48.48,0,1,0,.37.83l0,0a.51.51,0,0,0,.11.22.47.47,0,0,0,.66,0,.47.47,0,0,0,0-.64.61.61,0,0,0,.18-.09.47.47,0,0,0,0-.66A.45.45,0,0,0,549.84,368.46Z"/><path class="cls-24" d="M610.71,366.32a3.86,3.86,0,0,0,1.38-1.74,3.76,3.76,0,1,0-7-2.73s0,.11-.05.16a3.86,3.86,0,1,0-4.63,5.72c.1,0,.21.06.31.09a3.68,3.68,0,0,0-1.19,1.59,3.75,3.75,0,0,0,6.91,2.91,3.58,3.58,0,0,0,1.32.89,3.75,3.75,0,0,0,3-6.89Z"/><path class="cls-25" d="M606.44,365.76a1.11,1.11,0,1,0-2.11.14l0,0a1.1,1.1,0,0,0-.69,0,1.14,1.14,0,1,0,.81,2.13l.09,0a1.05,1.05,0,0,0,.05.58,1.11,1.11,0,0,0,2.09-.73,1.06,1.06,0,0,0,.46-.07,1.11,1.11,0,0,0-.72-2.09Z"/><path class="cls-1" d="M535.57,360.66a3.66,3.66,0,0,0,1.34-1.76,3.76,3.76,0,0,0-7.06-2.59c0,.06,0,.11,0,.16A3.81,3.81,0,0,0,528,355a3.87,3.87,0,1,0-2.66,7.26,1.57,1.57,0,0,0,.31.08,3.72,3.72,0,0,0-1.16,1.61,3.75,3.75,0,0,0,7,2.78,3.56,3.56,0,0,0,1.33.86,3.76,3.76,0,0,0,2.82-7Z"/><path class="cls-24" d="M531.3,360.19a1.13,1.13,0,0,0-.06-.65,1.11,1.11,0,1,0-2,.84l0,0a1.17,1.17,0,0,0-.69.05,1.15,1.15,0,0,0-.63,1.49,1.13,1.13,0,0,0,1.48.62l.09,0a1.06,1.06,0,0,0,.06.58,1.1,1.1,0,0,0,2.07-.77,1.09,1.09,0,0,0,.47-.08,1.11,1.11,0,0,0-.76-2.08Z"/><path class="cls-24" d="M619,336.63a5.57,5.57,0,1,0-10.18-3.14c0,.09,0,.16,0,.25a5.64,5.64,0,0,0-3.31-1.07,5.73,5.73,0,0,0,0,11.46c.16,0,.31,0,.47,0a5.56,5.56,0,1,0,10.32,3.13,5.39,5.39,0,0,0,2.3.52,5.56,5.56,0,0,0,.38-11.11Z"/><path class="cls-25" d="M612.85,338.15a1.6,1.6,0,0,0-.41-.87,1.64,1.64,0,1,0-2.43,2.2l0,0a1.66,1.66,0,0,0-.94.43,1.69,1.69,0,1,0,2.27,2.5.81.81,0,0,0,.09-.1,1.66,1.66,0,0,0,.39.77,1.64,1.64,0,0,0,2.49-2.13,1.76,1.76,0,0,0,.61-.34,1.64,1.64,0,0,0-2.12-2.51Z"/><path class="cls-24" d="M560,352.12a3,3,0,0,0,.51-1.67,3,3,0,0,0-5.91,0,.51.51,0,0,0,0,.13,3.07,3.07,0,0,0-1.76-.56,3,3,0,1,0,0,6.08l.25,0a2.95,2.95,0,1,0,5.47,1.67,2.91,2.91,0,0,0,1.22.27,2.95,2.95,0,0,0,.2-5.89Z"/><path class="cls-25" d="M556.75,352.93a.89.89,0,0,0-.22-.47.87.87,0,0,0-1.23-.06.88.88,0,0,0-.06,1.23l0,0a.9.9,0,1,0,.71,1.55l0-.06a.86.86,0,0,0,.2.42.87.87,0,0,0,1.32-1.14.68.68,0,0,0,.32-.18.87.87,0,0,0-1.12-1.32Z"/><path class="cls-24" d="M101.51,359.32a1.64,1.64,0,0,0-.2-.91A1.58,1.58,0,1,0,98.55,360l0,.06a1.53,1.53,0,0,0-1,.2,1.63,1.63,0,1,0,1.6,2.83l.11-.07a1.5,1.5,0,0,0,.2.81,1.58,1.58,0,0,0,2.79-1.48,1.36,1.36,0,0,0,.64-.19,1.58,1.58,0,0,0,.6-2.15A1.56,1.56,0,0,0,101.51,359.32Z"/><path class="cls-25" d="M100.19,360.56a.48.48,0,0,0-.23-.16.47.47,0,0,0-.59.29.48.48,0,0,0,.3.6h0a.48.48,0,0,0-.17.23.47.47,0,0,0,.3.61.48.48,0,0,0,.61-.3v0a.6.6,0,0,0,.21.14.47.47,0,0,0,.32-.88.4.4,0,0,0,.1-.17.47.47,0,0,0-.3-.59A.45.45,0,0,0,100.19,360.56Z"/><path class="cls-24" d="M56,346.86a2.93,2.93,0,1,0-4.69,3.07l.11.08a3,3,0,1,0,3.1,4.83,1.28,1.28,0,0,0,.14-.21,3,3,0,0,0,.88,1.27,2.93,2.93,0,0,0,3.86-4.4,2.83,2.83,0,0,0,1-.76A2.93,2.93,0,0,0,56,346.86Z"/><path class="cls-25" d="M54.53,349.88a.82.82,0,0,0-.49-.13.87.87,0,0,0-.83.9.88.88,0,0,0,.91.83h0A.93.93,0,0,0,54,352a.89.89,0,0,0,1.78-.08s0-.05,0-.08a.82.82,0,0,0,.44.11.87.87,0,0,0,0-1.73.86.86,0,0,0,.07-.36.87.87,0,0,0-1.73,0Z"/><path class="cls-1" d="M633.27,358.13a2,2,0,0,0,.36-1.15,2.06,2.06,0,1,0-4.11,0s0,.06,0,.09a2,2,0,0,0-1.22-.4,2.12,2.12,0,0,0,0,4.23l.17,0a2.05,2.05,0,1,0,3.81,1.16,2,2,0,0,0,.85.19,2.05,2.05,0,0,0,.13-4.1Z"/><path class="cls-24" d="M631,358.7a.55.55,0,0,0-.15-.33.61.61,0,0,0-.9.82h0a.67.67,0,0,0-.34.16.62.62,0,0,0,0,.88.61.61,0,0,0,.88,0l0,0a.62.62,0,0,0,.14.28.6.6,0,0,0,.86,0,.59.59,0,0,0,.06-.82.61.61,0,1,0-.56-1.05Z"/><path class="cls-24" d="M643,344a3.08,3.08,0,1,0-2.82-5.17l-.08.11a3.08,3.08,0,0,0-.9-1.7,3.17,3.17,0,0,0-4.42,4.54,1.56,1.56,0,0,0,.2.16,3,3,0,0,0-1.41.82,3.07,3.07,0,0,0,4.29,4.4,3,3,0,0,0,.71,1.1A3.07,3.07,0,0,0,643,344Z"/><path class="cls-25" d="M640,342.19a.89.89,0,0,0,.17-.51.91.91,0,1,0-1.81-.06v0a.91.91,0,0,0-.53-.2.94.94,0,0,0-1,.9.93.93,0,0,0,.9,1h.07a.85.85,0,0,0-.14.45.91.91,0,0,0,1.81.12,1.06,1.06,0,0,0,.37.1.92.92,0,0,0,.94-.88A.9.9,0,0,0,640,342.19Z"/><path class="cls-1" d="M89,364.72a2.56,2.56,0,0,0,.45-1.47,2.61,2.61,0,1,0-5.21,0s0,.08,0,.12a2.62,2.62,0,0,0-1.55-.51,2.69,2.69,0,0,0,0,5.37l.22,0a2.57,2.57,0,0,0-.37,1.32,2.6,2.6,0,0,0,5.2.14,2.45,2.45,0,0,0,1.08.25,2.6,2.6,0,0,0,.17-5.2Z"/><path class="cls-24" d="M86.07,365.43a.81.81,0,0,0-.19-.41.77.77,0,0,0-1.09,0,.76.76,0,0,0-.05,1.08l0,0a.79.79,0,0,0-.44.19.8.8,0,0,0,1.07,1.18.1.1,0,0,1,0-.05.77.77,0,1,0,1.34-.64.69.69,0,0,0,.29-.16.76.76,0,0,0,0-1.08A.75.75,0,0,0,86.07,365.43Z"/><path class="cls-26" d="M612.7,214.08H630c3,0,5-1.37,5.16-3.7s-1.43-4-4.54-4.21c-1.44-.09-1.12-1-1.3-1.64a8.26,8.26,0,0,0-12.2-4.76,7,7,0,0,0-3.52,4.36c-.23.84-.45,1.13-1.56.91-2.45-.48-3.9.3-5,2.47-.37.76-.68,1.06-1.48.58a1.35,1.35,0,0,0-.38-.19c-2.17-.64-3.55,1.13-5.19,1.46s-3.64-.88-5.39.47a3.92,3.92,0,0,0-1.38,2c-.56,1.84-.24,2.27,1.82,2.28Z"/><path class="cls-14" d="M400.23,235.21H378.34c-3.85,0-6.32-1.75-6.54-4.7s1.82-5.1,5.76-5.34c1.82-.12,1.42-1.28,1.65-2.09,1.86-6.56,9.27-9.48,15.47-6a8.92,8.92,0,0,1,4.47,5.53c.29,1.06.57,1.43,2,1.15,3.11-.61,5,.38,6.32,3.14.47,1,.86,1.34,1.88.73a2.12,2.12,0,0,1,.48-.23c2.76-.82,4.5,1.43,6.59,1.84s4.62-1.11,6.83.59a4.91,4.91,0,0,1,1.75,2.51c.71,2.33.3,2.88-2.3,2.89Z"/><path class="cls-13" d="M536.44,167.87H521.71c-2.59,0-4.25-1.18-4.4-3.16s1.22-3.44,3.87-3.6c1.23-.08,1-.86,1.11-1.4a7.05,7.05,0,0,1,10.42-4.06,6,6,0,0,1,3,3.72c.2.71.39,1,1.33.77a3.43,3.43,0,0,1,4.26,2.12c.31.64.57.9,1.26.48a1.24,1.24,0,0,1,.33-.15c1.85-.55,3,1,4.43,1.24s3.11-.75,4.59.4a3.3,3.3,0,0,1,1.18,1.69c.48,1.56.21,1.94-1.55,1.94Z"/></g><path d="M105.68,205.72a1.15,1.15,0,0,1-1.72-.05l-2.33-2.17c-.46-.46-.41-.95.15-1.48a33.51,33.51,0,0,0,5.49-6.52,35.55,35.55,0,0,0,3.65-7.61,36.87,36.87,0,0,0,1.71-7.34,56.65,56.65,0,0,0,.37-8.13.7.7,0,0,1,.22-.52.65.65,0,0,1,.47-.22l4.4.15a.57.57,0,0,1,.44.22.77.77,0,0,1,.2.52,65.44,65.44,0,0,1-.89,11.17,22.48,22.48,0,0,0,1.48,4.76,31.66,31.66,0,0,0,2.45,4.6,35.16,35.16,0,0,0,3,4.08,24,24,0,0,0,3.26,3.16c.52.39.56.92.1,1.58l-2.08,2.52a.9.9,0,0,1-.67.39,1.29,1.29,0,0,1-.91-.29,22.52,22.52,0,0,1-2.59-2.37,34.22,34.22,0,0,1-2.6-3.09,38.08,38.08,0,0,1-2.27-3.41,20,20,0,0,1-1.63-3.39,34.25,34.25,0,0,1-2,4c-.76,1.28-1.55,2.51-2.39,3.68a33.11,33.11,0,0,1-2.62,3.21A27.2,27.2,0,0,1,105.68,205.72Zm34.74,10.43H136a.57.57,0,0,1-.64-.64V189.37H125.2a.72.72,0,0,1-.47-.2.57.57,0,0,1-.22-.44v-3.51a.51.51,0,0,1,.22-.42.74.74,0,0,1,.47-.17h10.18V169.9a.56.56,0,0,1,.64-.64h4.4a.56.56,0,0,1,.64.64v45.61A.57.57,0,0,1,140.42,216.15Z"/><path d="M191.11,192.75a.74.74,0,0,1-.49.23H171.94v3.65H181a4.17,4.17,0,0,1,2.7.62,3.11,3.11,0,0,1,.66,2.3v5.68a3.09,3.09,0,0,1-.66,2.32,4.25,4.25,0,0,1-2.7.6h-20.8c-.26,0-.43,0-.49.12a1,1,0,0,0-.1.57v1.53c0,.29,0,.47.1.52a1.15,1.15,0,0,0,.54.07h24.56a.79.79,0,0,1,.49.2.6.6,0,0,1,.25.49v3.22a.6.6,0,0,1-.25.46.7.7,0,0,1-.44.23H157.37a3.73,3.73,0,0,1-2.62-.69,3.16,3.16,0,0,1-.69-2.28V207a3.22,3.22,0,0,1,.66-2.27,3.65,3.65,0,0,1,2.6-.69h21a.94.94,0,0,0,.49-.08c.07,0,.1-.24.1-.57V202c0-.36,0-.58-.1-.64s-.25-.1-.54-.1H154.6a.7.7,0,0,1-.47-.2.58.58,0,0,1-.22-.45v-3.31a.57.57,0,0,1,.22-.44.7.7,0,0,1,.47-.2h11.66V193H147.58a.61.61,0,0,1-.69-.7v-3.06a.77.77,0,0,1,.2-.52.63.63,0,0,1,.49-.22h43a.89.89,0,0,1,.74.74v3.06A.6.6,0,0,1,191.11,192.75Zm-6.37-15.63a6.07,6.07,0,0,1-1,3.43,8.64,8.64,0,0,1-3,2.69,17.28,17.28,0,0,1-4.87,1.78,34.82,34.82,0,0,1-13.29,0,17.28,17.28,0,0,1-4.87-1.78,8.73,8.73,0,0,1-3-2.69,6.07,6.07,0,0,1-1-3.43,5.79,5.79,0,0,1,1-3.31,8.89,8.89,0,0,1,3-2.67,17.28,17.28,0,0,1,4.87-1.78,34.82,34.82,0,0,1,13.29,0,17.28,17.28,0,0,1,4.87,1.78,8.79,8.79,0,0,1,3,2.67A5.79,5.79,0,0,1,184.74,177.12ZM169.18,173a21.24,21.24,0,0,0-4,.34,15.43,15.43,0,0,0-3.14.92,6,6,0,0,0-2.07,1.35,2.43,2.43,0,0,0-.75,1.68,2.28,2.28,0,0,0,.75,1.61,6.07,6.07,0,0,0,2.07,1.33,15.43,15.43,0,0,0,3.14.92,23.29,23.29,0,0,0,7.93,0,15.27,15.27,0,0,0,3.16-.92,6.22,6.22,0,0,0,2.08-1.33,2.31,2.31,0,0,0,.74-1.61,2.46,2.46,0,0,0-.74-1.68,6.09,6.09,0,0,0-2.08-1.35,15.27,15.27,0,0,0-3.16-.92A21.37,21.37,0,0,0,169.18,173Z"/><path d="M129.71,244.9a4.34,4.34,0,0,1-1.29.92,4.63,4.63,0,0,1-1.66.46,9,9,0,0,1-1,0c-.38,0-.75-.07-1.11-.13s-.68-.12-1-.19a2.83,2.83,0,0,1-.63-.21,1.27,1.27,0,0,1-.35-.2c0-.05,0-.14,0-.28l.14-1.44c0-.1,0-.17.1-.19s.14,0,.29.06a6.24,6.24,0,0,0,.66.22,7.1,7.1,0,0,0,1,.21,7.47,7.47,0,0,0,1.06.11,3.66,3.66,0,0,0,1-.08,3,3,0,0,0,.91-.36,1.72,1.72,0,0,0,.55-.52,1.76,1.76,0,0,0,.28-.66,3.08,3.08,0,0,0,.08-.75,2,2,0,0,0-.47-1,4.74,4.74,0,0,0-1.37-1.16q-1.09-.64-1.89-1.2a8.4,8.4,0,0,1-1.31-1.09,3.94,3.94,0,0,1-.76-1.13,3.14,3.14,0,0,1-.25-1.28,3.62,3.62,0,0,1,.33-1.52,3.93,3.93,0,0,1,.94-1.27,4.36,4.36,0,0,1,1.41-.87,5.08,5.08,0,0,1,1.82-.32,8.52,8.52,0,0,1,1.66.13,6.29,6.29,0,0,1,1.11.3.57.57,0,0,1,.27.16.35.35,0,0,1,0,.23l-.26,1.24a.46.46,0,0,1-.12.29q-.09.07-.3,0c-.2-.06-.41-.13-.64-.18l-.72-.15c-.25,0-.48-.06-.71-.08a3.92,3.92,0,0,0-.61,0,2.42,2.42,0,0,0-1.53.71,2.08,2.08,0,0,0-.43,1.35,1.8,1.8,0,0,0,.5,1.08,6.15,6.15,0,0,0,1.48,1.17q1.22.74,2,1.32a7.83,7.83,0,0,1,1.24,1.12,3.27,3.27,0,0,1,.64,1.07,3.8,3.8,0,0,1,.18,1.19A4.07,4.07,0,0,1,129.71,244.9Z"/><path d="M141.65,241.06a.29.29,0,0,1-.09.23.29.29,0,0,1-.19.08H135a3.48,3.48,0,0,0,.81,2.12,2.48,2.48,0,0,0,2,.83,7.45,7.45,0,0,0,1.46-.17,4.7,4.7,0,0,0,1.49-.57c.1-.05.15,0,.18,0a.82.82,0,0,1,0,.25v1.34a.49.49,0,0,1-.06.27.67.67,0,0,1-.23.2,4.79,4.79,0,0,1-1.37.44,9.52,9.52,0,0,1-1.6.14,4.49,4.49,0,0,1-3.64-1.45,6.38,6.38,0,0,1-1.24-4.24,7.86,7.86,0,0,1,.28-2.05,5.64,5.64,0,0,1,.82-1.81,4.22,4.22,0,0,1,1.41-1.28,4,4,0,0,1,2-.49,4.15,4.15,0,0,1,2,.45,3.9,3.9,0,0,1,1.35,1.2,5,5,0,0,1,.75,1.77,9.26,9.26,0,0,1,.24,2.15c0,.09,0,.2,0,.31S141.65,241,141.65,241.06Zm-4.25-4.27a1.85,1.85,0,0,0-.94.23,2.51,2.51,0,0,0-.7.6,3.22,3.22,0,0,0-.47.86,4.8,4.8,0,0,0-.26,1h4.44a3.48,3.48,0,0,0-.12-.86,3.17,3.17,0,0,0-.38-.86,2.27,2.27,0,0,0-.64-.67A1.59,1.59,0,0,0,137.4,236.79Z"/><path d="M152.24,244.45a4.51,4.51,0,0,1-1.66,1.33,5.52,5.52,0,0,1-4.39,0,4.29,4.29,0,0,1-1.59-1.22,5.16,5.16,0,0,1-1-1.81,7.65,7.65,0,0,1,0-4.38,5,5,0,0,1,1-1.8,4.54,4.54,0,0,1,1.58-1.21,5.05,5.05,0,0,1,2.2-.45,5.12,5.12,0,0,1,2.2.45,4.67,4.67,0,0,1,1.59,1.21,5.36,5.36,0,0,1,1,1.8,7.63,7.63,0,0,1,0,4.34A5.36,5.36,0,0,1,152.24,244.45Zm-3.86-7.62a2.43,2.43,0,0,0-1.31.33,2.65,2.65,0,0,0-.9.86,4.34,4.34,0,0,0-.53,1.2,5.45,5.45,0,0,0,0,2.7,4.27,4.27,0,0,0,.53,1.21,2.61,2.61,0,0,0,.9.88,2.77,2.77,0,0,0,2.62,0,2.61,2.61,0,0,0,.9-.88,4,4,0,0,0,.53-1.21,5.21,5.21,0,0,0,.17-1.35,5.11,5.11,0,0,0-.17-1.33,4.06,4.06,0,0,0-.53-1.2,2.8,2.8,0,0,0-.9-.88A2.5,2.5,0,0,0,148.38,236.83Z"/><path d="M162.63,245.93a.31.31,0,0,1-.17-.05.13.13,0,0,1,0-.15V245a3.33,3.33,0,0,1-1.24,1,3.62,3.62,0,0,1-1.52.33,3.48,3.48,0,0,1-2.82-1.11,4.77,4.77,0,0,1-.93-3.16v-6.5a.34.34,0,0,1,.07-.19.21.21,0,0,1,.17-.09h1.59a.24.24,0,0,1,.17.1.34.34,0,0,1,.08.2v6.17a3.37,3.37,0,0,0,.48,2.06,1.67,1.67,0,0,0,1.4.6,2.21,2.21,0,0,0,1.74-.8,3.53,3.53,0,0,0,.69-2.37v-5.68a.28.28,0,0,1,.07-.19.19.19,0,0,1,.16-.09h1.61a.21.21,0,0,1,.17.11.44.44,0,0,1,.07.2v7.92c0,.41,0,.8,0,1.19s0,.74,0,1.07c0,.16-.07.25-.21.25Z"/><path d="M167.6,246a.2.2,0,0,1-.22-.23v-15.3a.26.26,0,0,1,.07-.17.25.25,0,0,1,.17-.06h1.63a.23.23,0,0,1,.16.06.22.22,0,0,1,.07.17v15.3a.21.21,0,0,1-.07.16.24.24,0,0,1-.16.07Z"/><path d="M273,244.54a3.81,3.81,0,0,1-.85.3c-.34.09-.7.16-1.1.23s-.79.11-1.2.14-.8,0-1.16,0a8.48,8.48,0,0,1-3-.51,6.42,6.42,0,0,1-2.35-1.47,6.88,6.88,0,0,1-1.56-2.39,8.76,8.76,0,0,1-.56-3.22,8.55,8.55,0,0,1,.52-3,6.93,6.93,0,0,1,1.5-2.39,6.67,6.67,0,0,1,2.35-1.58,8.23,8.23,0,0,1,3.1-.56,14.38,14.38,0,0,1,2.08.13,11.51,11.51,0,0,1,1.73.37.5.5,0,0,1,.25.13.25.25,0,0,1,0,.15l-.24,1.65a.26.26,0,0,1-.09.19s-.15,0-.29,0a13.09,13.09,0,0,0-1.73-.42,12,12,0,0,0-1.75-.12,5.33,5.33,0,0,0-2.11.4,4.57,4.57,0,0,0-1.63,1.12,5.12,5.12,0,0,0-1.06,1.74,6.4,6.4,0,0,0-.38,2.25,7,7,0,0,0,.38,2.38,4.78,4.78,0,0,0,1.07,1.74,4.33,4.33,0,0,0,1.64,1.07,5.84,5.84,0,0,0,2.09.36,11.25,11.25,0,0,0,1.52-.08,3.2,3.2,0,0,0,1-.23V239H268a.24.24,0,0,1-.18-.07.2.2,0,0,1-.07-.16v-1.56a.25.25,0,0,1,.09-.19A.29.29,0,0,1,268,237h5c.2,0,.32,0,.37.1a.66.66,0,0,1,.08.39v6.4a.71.71,0,0,1-.12.45A.81.81,0,0,1,273,244.54Z"/><path d="M279.19,247.4a2.61,2.61,0,0,1-1.74.58c-.26,0-.51,0-.74,0a1.74,1.74,0,0,1-.58-.16.37.37,0,0,1-.16-.1.24.24,0,0,1,0-.19l.12-1.28c0-.17.07-.23.21-.17a4.31,4.31,0,0,0,.55.1l.46,0a1.3,1.3,0,0,0,.53-.09,1,1,0,0,0,.31-.25l.16-.33c.07-.14.15-.3.22-.48a5.92,5.92,0,0,0,.23-.56c.07-.19.13-.39.18-.58l-3.32-9.43c-.06-.16,0-.24.16-.24h1.8c.13,0,.21,0,.24.1l2.15,6.44,2.19-6.44c0-.06.11-.1.24-.1h1.8c.17,0,.22.08.16.24l-3.94,11A4.69,4.69,0,0,1,279.19,247.4Z"/><path d="M294.12,240.1a.29.29,0,0,1-.09.23.27.27,0,0,1-.18.08h-6.39a3.57,3.57,0,0,0,.82,2.12,2.47,2.47,0,0,0,2,.83,7.36,7.36,0,0,0,1.45-.17,4.67,4.67,0,0,0,1.5-.57c.09-.05.15,0,.17,0a.6.6,0,0,1,0,.25v1.34a.49.49,0,0,1-.06.27.52.52,0,0,1-.23.2,4.69,4.69,0,0,1-1.37.44,9.34,9.34,0,0,1-1.6.14,4.51,4.51,0,0,1-3.64-1.45,6.38,6.38,0,0,1-1.23-4.24,8,8,0,0,1,.27-2.06,5.71,5.71,0,0,1,.83-1.8,4.19,4.19,0,0,1,1.4-1.28,4,4,0,0,1,2-.49,4.15,4.15,0,0,1,2,.45,3.9,3.9,0,0,1,1.35,1.2,5.24,5.24,0,0,1,.76,1.77,9.84,9.84,0,0,1,.23,2.15c0,.09,0,.2,0,.31S294.12,240,294.12,240.1Zm-4.25-4.27a1.78,1.78,0,0,0-.93.23,2.24,2.24,0,0,0-.7.6,3.35,3.35,0,0,0-.48.85,5.08,5.08,0,0,0-.26,1H292a3.52,3.52,0,0,0-.13-.86,2.89,2.89,0,0,0-.38-.86,2.27,2.27,0,0,0-.64-.67A1.59,1.59,0,0,0,289.87,235.83Z"/><path d="M304.72,243.49a4.54,4.54,0,0,1-1.67,1.33,5,5,0,0,1-2.19.46,5.12,5.12,0,0,1-2.2-.45,4.46,4.46,0,0,1-1.59-1.22,5.16,5.16,0,0,1-1-1.81,7.65,7.65,0,0,1,0-4.38,5,5,0,0,1,1-1.8,4.73,4.73,0,0,1,1.58-1.21,5.6,5.6,0,0,1,4.4,0,4.67,4.67,0,0,1,1.59,1.21,5,5,0,0,1,1,1.8,7.07,7.07,0,0,1,.32,2.19,7.17,7.17,0,0,1-.31,2.15A5.16,5.16,0,0,1,304.72,243.49Zm-3.86-7.62a2.39,2.39,0,0,0-1.31.33,2.67,2.67,0,0,0-.91.86,4.19,4.19,0,0,0-.52,1.2,5.45,5.45,0,0,0,0,2.7,4.26,4.26,0,0,0,.52,1.21,2.73,2.73,0,0,0,.91.88,2.47,2.47,0,0,0,1.31.33,2.52,2.52,0,0,0,1.31-.33,2.61,2.61,0,0,0,.9-.88,4,4,0,0,0,.52-1.21,5.22,5.22,0,0,0,.18-1.35,5.13,5.13,0,0,0-.18-1.33,3.83,3.83,0,0,0-.52-1.2,2.8,2.8,0,0,0-.9-.88A2.52,2.52,0,0,0,300.86,235.87Z"/><path d="M315,245a.21.21,0,0,1-.17-.09.34.34,0,0,1-.07-.18v-6.18a3.57,3.57,0,0,0-.43-2,1.55,1.55,0,0,0-1.37-.63,2.35,2.35,0,0,0-1.89.71,3.06,3.06,0,0,0-.62,2v6.08c0,.16-.07.25-.23.25h-1.61a.19.19,0,0,1-.16-.09.27.27,0,0,1-.07-.18V237c0-.49,0-1,0-1.42s0-.8-.05-1.06.06-.26.27-.26h1.53c.15,0,.2.06.18.16l0,.71a4.5,4.5,0,0,1,1.16-.8A3.47,3.47,0,0,1,313,234a3.61,3.61,0,0,1,2.84,1.1,4.63,4.63,0,0,1,1,3.17v6.49c0,.16-.08.25-.23.25Z"/><path d="M323.72,248a11,11,0,0,1-1.53-.11,7.34,7.34,0,0,1-1.5-.38l-.24-.15a.28.28,0,0,1-.07-.2l.1-1.57c0-.25.16-.31.39-.19a6,6,0,0,0,1.42.49,7,7,0,0,0,1.45.17,2.93,2.93,0,0,0,2-.66,2.48,2.48,0,0,0,.81-1.81,3.38,3.38,0,0,1-1.19.82,3.6,3.6,0,0,1-1.34.27,4.33,4.33,0,0,1-1.8-.38,4.19,4.19,0,0,1-1.44-1.05,5,5,0,0,1-.94-1.6,5.82,5.82,0,0,1-.34-2,6.54,6.54,0,0,1,1.15-4.25A4.08,4.08,0,0,1,324,234a3.11,3.11,0,0,1,.79.1,5,5,0,0,1,.77.25,4.87,4.87,0,0,1,.68.36,4,4,0,0,1,.54.44l0-.68a.19.19,0,0,1,.25-.27h1.54c.15,0,.23.09.23.29v8a6,6,0,0,1-1.28,4.07A4.76,4.76,0,0,1,323.72,248Zm.49-12.12a2.18,2.18,0,0,0-1.88.9,4.88,4.88,0,0,0-.65,2.83,4.16,4.16,0,0,0,.2,1.32,3,3,0,0,0,.53,1,2.37,2.37,0,0,0,.78.61,2.11,2.11,0,0,0,.92.22,2.44,2.44,0,0,0,1-.22,2.31,2.31,0,0,0,.81-.62,3,3,0,0,0,.56-1,4.2,4.2,0,0,0,.2-1.34,4.81,4.81,0,0,0-.66-2.73A2.1,2.1,0,0,0,324.21,235.88Z"/><path d="M333.62,246.89a1.93,1.93,0,0,1-.82.85,2.45,2.45,0,0,1-1.22.3H331a1.63,1.63,0,0,1-.45-.09.27.27,0,0,1-.18-.27v-1.25c0-.11.08-.17.23-.17a1.9,1.9,0,0,0,1-.05.63.63,0,0,0,.43-.49A3.88,3.88,0,0,0,332,245c0-.35,0-.72,0-1.12v-9.37c0-.17.08-.26.23-.26h1.63c.15,0,.22.09.22.26V244a12.4,12.4,0,0,1-.11,1.69A3.56,3.56,0,0,1,333.62,246.89Zm-.52-14.73a1.31,1.31,0,0,1-.94-.37,1.23,1.23,0,0,1-.38-.93,1.28,1.28,0,0,1,1.32-1.32,1.33,1.33,0,0,1,.94.37,1.29,1.29,0,0,1,.4,1,1.25,1.25,0,0,1-.4.93A1.38,1.38,0,0,1,333.1,232.16Z"/><path d="M343.85,245a.28.28,0,0,1-.16-.05.12.12,0,0,1-.05-.15V244a3.37,3.37,0,0,1-1.23,1,3.7,3.7,0,0,1-1.53.33,3.46,3.46,0,0,1-2.81-1.11,4.77,4.77,0,0,1-.94-3.16v-6.5a.34.34,0,0,1,.07-.19.21.21,0,0,1,.17-.09H339a.24.24,0,0,1,.17.1.29.29,0,0,1,.08.2v6.17a3.39,3.39,0,0,0,.48,2.06,1.67,1.67,0,0,0,1.4.6,2.21,2.21,0,0,0,1.74-.8,3.53,3.53,0,0,0,.69-2.37v-5.68a.28.28,0,0,1,.07-.19.19.19,0,0,1,.16-.09h1.62a.21.21,0,0,1,.16.11.35.35,0,0,1,.07.2v7.92c0,.41,0,.8,0,1.19s0,.74,0,1.07c0,.16-.07.25-.22.25Z"/><path d="M283.69,173.63a3.54,3.54,0,0,1-.05.57c0,.25-.07.5-.12.77s-.1.5-.15.71-.09.38-.12.47a.2.2,0,0,0-.05.15h8.94v-7.41a.57.57,0,0,1,.65-.64h4.39a.56.56,0,0,1,.64.64v26.19c0,.49-.21.74-.64.74h-4.39c-.43,0-.65-.23-.65-.69v-4.75H281.52a.69.69,0,0,1-.47-.19.58.58,0,0,1-.22-.45v-3.26a.52.52,0,0,1,.22-.42.78.78,0,0,1,.47-.17h10.62v-5H281.42a28.23,28.23,0,0,1-6.79,9,38.45,38.45,0,0,1-10.7,6.57,1.55,1.55,0,0,1-.94.17.89.89,0,0,1-.64-.56l-1.29-2.62a1.42,1.42,0,0,1-.12-.84.91.91,0,0,1,.57-.64,35.34,35.34,0,0,0,5.56-3,29.76,29.76,0,0,0,4.54-3.66,24.21,24.21,0,0,0,3.39-4.12,17.9,17.9,0,0,0,2.07-4.37,2,2,0,0,0,.15-1.09q-.11-.3-.84-.3H263.14a.59.59,0,0,1-.52-.24.92.92,0,0,1-.17-.55v-3.26c0-.46.24-.69.74-.69h16.55a5.11,5.11,0,0,1,3.06.69A2.68,2.68,0,0,1,283.69,173.63Zm14.23,32.17a6.89,6.89,0,0,1-1.11,3.8,9.67,9.67,0,0,1-3.06,3,16.19,16.19,0,0,1-4.67,1.93,23.82,23.82,0,0,1-5.88.69,25.15,25.15,0,0,1-6.1-.67,15,15,0,0,1-4.6-1.9,8.85,8.85,0,0,1-2.91-3,7.41,7.41,0,0,1-1-3.85,7.34,7.34,0,0,1,1-3.8,8.51,8.51,0,0,1,2.91-2.94,16,16,0,0,1,4.6-1.91,24.61,24.61,0,0,1,6.1-.69,24.33,24.33,0,0,1,5.88.67,15.64,15.64,0,0,1,4.67,1.9,9.81,9.81,0,0,1,3.06,2.94A6.87,6.87,0,0,1,297.92,205.8Zm-5.83.15a3.43,3.43,0,0,0-.71-2.15,6,6,0,0,0-1.93-1.56,10.41,10.41,0,0,0-2.84-1,18,18,0,0,0-3.41-.32,13.81,13.81,0,0,0-6.4,1.26,4,4,0,0,0-2.4,3.73,3.82,3.82,0,0,0,2.45,3.53,14.32,14.32,0,0,0,6.35,1.21,19.86,19.86,0,0,0,3.41-.29,11.16,11.16,0,0,0,2.84-.89,5.56,5.56,0,0,0,1.93-1.49A3.23,3.23,0,0,0,292.09,206Z"/><path d="M348.67,197.94a.71.71,0,0,1-.5.25H329.54V214.1a.61.61,0,0,1-.69.69h-4.3a.61.61,0,0,1-.69-.69V198.19H305.14a.6.6,0,0,1-.5-.25.77.77,0,0,1-.2-.49v-3.21a.77.77,0,0,1,.2-.52.63.63,0,0,1,.5-.22h43a.84.84,0,0,1,.74.74v3.21A.69.69,0,0,1,348.67,197.94Zm-37.85-8.79a1.06,1.06,0,0,1-.79-.1,1,1,0,0,1-.45-.49l-1.13-3a.69.69,0,0,1,.14-.64,1.27,1.27,0,0,1,.5-.45q3.45-.84,6.77-1.9c2.2-.71,4.26-1.46,6.18-2.27a50.78,50.78,0,0,0,5.16-2.52,23.53,23.53,0,0,0,3.83-2.64c.36-.3.56-.54.59-.72s-.23-.27-.79-.27H312.74a.57.57,0,0,1-.64-.64v-3.36c0-.4.22-.6.64-.6H336a6.65,6.65,0,0,1,3.09.62,1.83,1.83,0,0,1,1.16,1.61,3.49,3.49,0,0,1-.47,1.65,12.44,12.44,0,0,1-.87,1.41,23.83,23.83,0,0,1-6.22,5.48c.89.33,1.83.67,2.84,1s2,.68,3.06,1,2.07.63,3.09.89,2,.48,2.87.64a1,1,0,0,1,.54.37.68.68,0,0,1,.05.67l-1.19,3a.91.91,0,0,1-1.08.65c-1-.2-2.1-.48-3.34-.84s-2.52-.79-3.85-1.26-2.69-1-4-1.56-2.68-1.12-3.93-1.68a71,71,0,0,1-8.28,3.43A87.08,87.08,0,0,1,310.82,189.15Z"/><polygon points="218.38 180.98 231.08 193.68 218.38 206.37 218.38 180.98"/><path class="cls-27" d="M58.32,51.84h578a17.6,17.6,0,0,1,17.6,17.6v56.84a0,0,0,0,1,0,0H40.73a0,0,0,0,1,0,0V69.44A17.6,17.6,0,0,1,58.32,51.84Z"/><path class="cls-27" d="M40.73,374.31H653.91a0,0,0,0,1,0,0v56.32a17.53,17.53,0,0,1-17.53,17.53H58.25a17.53,17.53,0,0,1-17.53-17.53V374.31A0,0,0,0,1,40.73,374.31Z"/><path d="M127.45,91.86a3.93,3.93,0,0,1-3.92-4.25V81.93a4.53,4.53,0,0,1,4.16-4.48h2.14a4.38,4.38,0,0,1,4.06,4.48v5.85a3.94,3.94,0,0,1-3.78,4.08Zm1.69-2.49a2.1,2.1,0,0,0,2-2.09V82.17a2.08,2.08,0,0,0-2-2h-.76a2.13,2.13,0,0,0-2.07,1.9v5.39a1.89,1.89,0,0,0,1.83,1.86Zm12.25,7h-3.33V89.72H135V86.94h3.06V84.47H135v-2.8h3.06V76.43h3.33Z"/><path d="M154.61,77.8V80h-1.43a4.19,4.19,0,0,1,.55,2.19v2.09a3.46,3.46,0,0,1-3.58,3.44h-2.21c-1.71,0-3.11-1.14-3.11-3.4V82.2a3.64,3.64,0,0,1,.69-2.19h-1.76V77.8h3.87V76.4h3.3v1.4ZM151,82.41c0-.78-.31-1.4-1.1-1.4h-1.09c-.78,0-1.19.62-1.19,1.4v1.66a1.08,1.08,0,0,0,1.24,1.19h.9A1.15,1.15,0,0,0,151,84Zm8.45,7.26a2.64,2.64,0,0,1,2.78,2.45v1.95a2.37,2.37,0,0,1-2.54,2.3h-9.22a2.81,2.81,0,0,1-2.61-2.28v-2c.26-1.71,2.26-2.45,3.28-2.45Zm-7.34,2.47c-.92,0-1.07.38-1.23.69l0,.62c.29.64.62.62,1.26.62h6.34c.55,0,1-.17,1-.62V93a1,1,0,0,0-1-.86ZM162.28,76.4V87.94h-2.71v-4h-1.76v4h-2.7V76.4h2.7v5.25h1.76V76.4Z"/><path d="M174.57,95.29h-2.09V91.71a8.94,8.94,0,0,1-5,1.85,15.49,15.49,0,0,1-3,0V91.66c3.08.61,7.15-.88,8-1.21V83.52h2.12Zm-5.81-11.46a1.84,1.84,0,0,1,1.9,1.91v1.9a1.84,1.84,0,0,1-2.06,1.91h-1.67a1.85,1.85,0,0,1-2-1.76V85.74a1.9,1.9,0,0,1,2-1.91Zm.21,2.28a.79.79,0,0,0-.81-.8h-.6a.85.85,0,0,0-.88.8v1.16a.85.85,0,0,0,.88.81h.6a.79.79,0,0,0,.81-.81Z"/><path d="M187,77.21v9.5H177v-9.5H180v2.61h3.89V77.21ZM178.4,91.38h10.78V90.29H178.4V88.37h14.08V93.5H181.42v.9h11.06v2.23H178.4Zm5.53-7.09v-2H180v2Zm11.3-.91H192.5v3.71h-3V76.38h3v4.2h2.73Z"/><path d="M203.83,80.91c-.1,1.43-.17,6.89,3.75,8.22v2.75a8.8,8.8,0,0,1-2.23-.85,6.23,6.23,0,0,1-3.09-3.49,6,6,0,0,1-3.11,3.58,7.84,7.84,0,0,1-2.23.76V89.13c3.91-1.33,3.75-6.79,3.65-8.22h-3.68V78.25h10.73v2.66Zm11.91,2.16v3.07h-3V96.39h-3.3V76.66h3.3v6.41Z"/><path d="M235,87.44h-7.62v2h6v2.25a10.47,10.47,0,0,1-.52,3,13.65,13.65,0,0,1-.48,1.28h-2.92a9.21,9.21,0,0,0,.93-2.7,6.7,6.7,0,0,0,.09-1.14H219V89.44h5.35v-2h-7.18V84.78h11.78a17.56,17.56,0,0,0,.81-3.65,11.85,11.85,0,0,0,.09-1.52h-10.7V76.88H233v2.49a28.29,28.29,0,0,1-1,5.41h3Z"/><path class="cls-28" d="M104.67,79.06c.18-.18.44-.33.51-.55s-.2-.37-.36-.52-.65-.47-.94-.74-.12-.36.16-.42a1,1,0,0,1,1.19.56l.72,1.28a1.1,1.1,0,0,0,1,.54,5.65,5.65,0,0,1,1.06.2c.25,0,.49.13.74.16.72.08,1,.36.88,1a1,1,0,0,1-1.24.83c-.43-.13-.89.63-1.31.44s-1-.42-1.16.06c-1,3.56-1.06-.83-1.46-1.2a8.2,8.2,0,0,1-.88-1,2.29,2.29,0,0,0-2.51-.91L98,79.51a2.53,2.53,0,0,0-1.41,1c-.38.48-.73,1-1.1,1.46a4.31,4.31,0,0,0-.88,2.56c0,.43-.1.86-.11,1.29a4.94,4.94,0,0,0,1.73,4.23,3.46,3.46,0,0,0,3.2.79,1.82,1.82,0,0,1,2.29,1.32,17.86,17.86,0,0,1,.72,3,12.16,12.16,0,0,1-.15,2.07,3.25,3.25,0,0,0,.09,1.08c.29.93.63,1.84,1,2.76a6.67,6.67,0,0,0,.29.74,1,1,0,0,0,1.44.66,7.24,7.24,0,0,0,3.76-2.71c.29-.4-1.71-10.17,4-9.77.12,0,.17-.17.25-.26a1.21,1.21,0,0,0,.1-1.86c-.16-.23-.34-.45-.48-.69a.6.6,0,0,1,.31-1,1.57,1.57,0,0,0,1-1.15,9.24,9.24,0,0,1,.29-.89c.11-.3.35-.35.56-.14a1.53,1.53,0,0,1,.49.8c.06,1.44.13,2.89,0,4.34a16.92,16.92,0,0,1-1.84,6.67,19.52,19.52,0,0,1-14.62,11,19.31,19.31,0,0,1-13.36-2.4c-.17-.1-.39-.25-.43-.42a10.05,10.05,0,0,1-.27-2c0-.72.58-1.14,1.1-1.54s1.15-.79,1.69-1.22a5.07,5.07,0,0,0,1.74-5.57,1.6,1.6,0,0,0-.78-1c-.5-.26-1-.56-1.5-.78A5,5,0,0,1,85,90.21a5.3,5.3,0,0,0-1.82-1.67C82.09,88,81,87.34,79.9,86.86a2.73,2.73,0,0,1-1.15-4.39c.68-.85,1.46-1.6,2.2-2.39.39-.43.8-.84,1.16-1.28a3,3,0,0,1,1.61-1.11,12.76,12.76,0,0,0,1.8-.76A2.34,2.34,0,0,0,87,74.73c0-.29.06-.59.1-.88a2.24,2.24,0,0,0-.28-1.49,2.13,2.13,0,0,1-.31-1.83,1,1,0,0,1,.44-.56,4,4,0,0,1,2.24-.41c.66.06.78.26.7.91s-.19,1.47-.23,2.21.08.74.69.63c.88-.15,1.76-.37,2.64-.57s2-.44,3-.69A3.39,3.39,0,0,0,98.35,70a1.14,1.14,0,0,0-.2-1.14c-.35-.5-.75-1-1.12-1.45,2.42-.65,10.86,3.1,12.26,5.49a2.16,2.16,0,0,1-1.46-.19c-1.09-.49-2.18-1-3.26-1.51a1.18,1.18,0,0,0-1,0c-.53.23-1.07.44-1.6.66-.76.3-.92.67-.62,1.43s.18.65-.29,1.14.6,2.18,1.24,2.59c.42.27.86.53,1.3.77s1.11.46.9,1.29Z"/><path class="cls-28" d="M75.67,85.69a5.73,5.73,0,0,1,1.41,2.61c.34,1.29.72,2.57.94,3.88a6,6,0,0,0,1.64,3.19,4,4,0,0,1,1.15,2.34,9.35,9.35,0,0,0,2.44,4.86,5.44,5.44,0,0,1,.39.55A19.44,19.44,0,0,1,75.67,85.69Z"/><path class="cls-29" d="M92.4,83.24c-1.18-.88-2-1.76-3.3-1.53-1.08.2-1.82,2-1.45,3.05.58,1.65,2.74,2.21,4.23,2A1.84,1.84,0,0,0,93.46,84C93.2,83.57,92.58,83.48,92.4,83.24Z"/><path class="cls-29" d="M94.21,79.78c-.52-.45-.88-1.21-1.56-1.24a1.65,1.65,0,0,0-1.45,2.11,3,3,0,0,0,2.85,1.9,1.22,1.22,0,0,0,1.06-1.83c-.19-.38-.37-.39-.61-.75C94.48,80,94.23,79.77,94.21,79.78Z"/><path class="cls-29" d="M94.81,79.18a7.13,7.13,0,0,0,1.16.45,1,1,0,0,0,1.25-1.31A2.5,2.5,0,0,0,95,76.62c-.79,0-1.33.28-1.25,1.07a2,2,0,0,0,.72,1.37S94.82,79.16,94.81,79.18Z"/><path class="cls-29" d="M99.22,75.89a5,5,0,0,0-.51-.27.83.83,0,0,0-1.2.92,1.9,1.9,0,0,0,1.3,1.57.83.83,0,0,0,1.12-1A2.13,2.13,0,0,0,99.22,75.89Z"/><path class="cls-29" d="M109.28,77.37a1.55,1.55,0,0,0,1,.65.63.63,0,0,0,.74-.56,1.53,1.53,0,0,0-1.16-1.56c-.56-.11-.95.4-.76,1A4.41,4.41,0,0,0,109.28,77.37Z"/><path class="cls-29" d="M116.86,87.39a21.32,21.32,0,1,1-21.14-21.5A21.34,21.34,0,0,1,116.86,87.39Zm-12.19-8.33-.19-.07c.21-.83-.39-1-.9-1.29s-.88-.5-1.3-.77c-2.23-1.75-1.55.36-2.51,1-.31.2-.2.14-.77.15-.29,0-.46-.19-.75-.27s-.68-.89-.74-1.28c-.21-1.43,0-1.51,1.45-1.43.82,0,1.5.32,2.08-.77.47-.49.53-.51.29-1.14a1.11,1.11,0,0,1,.61-1.43c.52-.21,1-.41,1.55-.63a1.31,1.31,0,0,1,1.08,0c1.08.52,2.17,1,3.26,1.51a2.16,2.16,0,0,0,1.46.19c-1.4-2.39-9.84-6.14-12.26-5.49.37.48.77,1,1.12,1.45a1.14,1.14,0,0,1,.2,1.14A3.39,3.39,0,0,1,96,72.05c-1,.25-2,.47-3,.69s-1.76.42-2.64.57c-.61.11-.73,0-.69-.63s.14-1.48.23-2.21,0-.85-.7-.91a4,4,0,0,0-2.24.41,1,1,0,0,0-.44.56,2.13,2.13,0,0,0,.31,1.83,2.24,2.24,0,0,1,.28,1.49c0,.29-.08.59-.1.88a2.34,2.34,0,0,1-1.45,2.2,12.76,12.76,0,0,1-1.8.76,3,3,0,0,0-1.61,1.11c-.36.44-.77.85-1.16,1.28-.74.79-1.52,1.54-2.2,2.39a2.73,2.73,0,0,0,1.15,4.39c1.09.47,2.13,1.07,3.18,1.63A5.53,5.53,0,0,1,85,90.21,5,5,0,0,0,87.07,92c.51.22,1,.52,1.5.78a1.6,1.6,0,0,1,.78,1,5.07,5.07,0,0,1-1.74,5.57c-.54.43-1.14.8-1.69,1.22s-1.1.82-1.1,1.54a10.05,10.05,0,0,0,.27,2c0,.17.26.32.43.42a19.21,19.21,0,0,0,13.28,2.41,20.39,20.39,0,0,0,14-9.77,17.43,17.43,0,0,0,2.53-7.92c.08-1.45,0-2.9,0-4.34a1.53,1.53,0,0,0-.49-.8c-.21-.21-.45-.16-.56.14a9.24,9.24,0,0,0-.29.89,1.57,1.57,0,0,1-1,1.15.6.6,0,0,0-.31,1c.14.24.32.46.48.69a1.21,1.21,0,0,1-.1,1.86l-.25.26c-.88,1-3-.86-1.83,3.5a10,10,0,0,1-1,2.94,11.87,11.87,0,0,0-.67,1.87,5.61,5.61,0,0,1-.52,1.46,7.24,7.24,0,0,1-3.76,2.71,1,1,0,0,1-1.44-.66,6.67,6.67,0,0,1-.29-.74c-.33-.92-.67-1.83-1-2.76a3.25,3.25,0,0,1-.09-1.08,12.16,12.16,0,0,0,.15-2.07,17.86,17.86,0,0,0-.72-3,1.82,1.82,0,0,0-2.29-1.32,3.46,3.46,0,0,1-3.2-.79,4.94,4.94,0,0,1-1.73-4.23c0-.43.1-.86.11-1.29A4.31,4.31,0,0,1,95.46,82c.37-.48.72-1,1.1-1.46a2.55,2.55,0,0,1,1.46-1,25,25,0,0,0,2.82-.64,2.31,2.31,0,0,1,2.75.84,8.2,8.2,0,0,0,.88,1c.36.33.34,1.46,1.12.54a1.31,1.31,0,0,1,1.53-.36h0a9.9,9.9,0,0,0,1.27.51,1,1,0,0,0,1.24-.83c.1-.62-.16-.9-.88-1-.25,0-.49-.11-.74-.16a5.65,5.65,0,0,0-1.06-.2,1.1,1.1,0,0,1-1-.54l-.72-1.28a1,1,0,0,0-1.19-.56c-.28.06-.39.21-.16.42s.64.48.94.74.4.4.36.52S104.85,78.88,104.67,79.06Zm-29,6.63a19.44,19.44,0,0,0,8,17.43,5.44,5.44,0,0,0-.39-.55,9.35,9.35,0,0,1-2.44-4.86,4,4,0,0,0-1.15-2.34A6,6,0,0,1,78,92.18c-.22-1.31-.6-2.59-.94-3.88A5.73,5.73,0,0,0,75.67,85.69Z"/><path d="M95.53,65.89a21.32,21.32,0,1,0,21.33,21.32A21.21,21.21,0,0,0,95.53,65.89Zm0,41.16a19.84,19.84,0,1,1,19.82-19.84A19.79,19.79,0,0,1,95.56,107.05Z"/><path d="M603.6,429.85a1.47,1.47,0,0,1-.19-.5q0-18.14,0-36.27v-.45h6.36v36.8c0,.14,0,.28,0,.42Z"/><path d="M499.16,392.63h4.26v37.22h-4.26Z"/><path d="M616.15,429.85V392.62h4.26v37.23Z"/><path d="M531.13,429.85c0-.22,0-.44,0-.65V392.63h4.19v.57q0,18,0,36.05a2.61,2.61,0,0,1-.14.6Z"/><path d="M558.84,429.85a2.38,2.38,0,0,1-.15-.55q0-18.07,0-36.13v-.54h4.2a3.93,3.93,0,0,1,.06.48v36.23a3,3,0,0,1-.09.51Z"/><path d="M569.49,429.85a1.68,1.68,0,0,1-.18-.5q0-18.14,0-36.27v-.45h4.27v.48q0,18.11,0,36.23a4.38,4.38,0,0,1,0,.51Z"/><path d="M578,429.85a1.68,1.68,0,0,1-.18-.5q0-18.14,0-36.27v-.45h4.26v36.71c0,.17,0,.34,0,.51Z"/><path d="M586.55,429.85a1.47,1.47,0,0,1-.19-.5q0-18.14,0-36.27v-.45h4.27v36.71a4.4,4.4,0,0,1,0,.51Z"/><path d="M592.94,429.85c-.07-.17-.21-.33-.21-.49q0-18.15,0-36.29v-.44h4.21a2.84,2.84,0,0,1,.05.42v36.38c0,.14,0,.28,0,.42Z"/><path d="M505.55,429.85c0-.22,0-.44,0-.65V392.62h2.15v37.23Z"/><path d="M611.89,429.85V392.62H614c0,.14,0,.29,0,.44q0,18.18,0,36.37c0,.14,0,.28,0,.42Z"/><path d="M512,429.85V392.62h2.11v.5q0,18.11,0,36.19a1.73,1.73,0,0,1-.21.54Z"/><path d="M522.6,429.85c0-.2,0-.41,0-.61V392.63h2.1v.49q0,18.09,0,36.18a2,2,0,0,1-.18.55Z"/><path d="M541.79,429.85c0-.2,0-.41,0-.61V392.62h2.09v.53q0,18.08,0,36.15a2.34,2.34,0,0,1-.14.55Z"/><path d="M546.05,429.85c0-.2,0-.41,0-.61V392.62h2.09v.53q0,18.08,0,36.15a2.34,2.34,0,0,1-.14.55Z"/><path d="M550.31,429.85c0-.2,0-.41,0-.61V392.62h2.09V429.3a3,3,0,0,1-.14.55Z"/></g></svg>