<svg xmlns="http://www.w3.org/2000/svg" xmlns:xlink="http://www.w3.org/1999/xlink" viewBox="0 0 694.64 500"><defs><style>.cls-1{fill:#fff;}.cls-2{opacity:0.5;}.cls-3{fill:url(#무제_그라디언트_42);}.cls-4{fill:#688c3f;}.cls-5{fill:#7ba04d;}.cls-6{fill:#b6c546;}.cls-7{fill:#f29a39;}.cls-8{fill:#9e5e23;}.cls-10,.cls-13,.cls-14,.cls-9{fill:none;stroke:#000;stroke-linecap:round;stroke-miterlimit:10;}.cls-9{stroke-width:0.9px;}.cls-10{stroke-width:0.68px;}.cls-11{fill:#f2b45a;}.cls-12{fill:#b76b2c;}.cls-13{stroke-width:0.63px;}.cls-14{stroke-width:0.47px;}.cls-15{fill:#456f41;}.cls-16{fill:#4c3725;}.cls-17{fill:#bdcf5f;}.cls-18{fill:#9c6;}.cls-19{fill:#3f8cb9;}.cls-20{fill:#9bcc60;}</style><linearGradient id="무제_그라디언트_42" x1="347.32" y1="342.62" x2="347.32" y2="121.8" gradientUnits="userSpaceOnUse"><stop offset="0.13" stop-color="#fff"/><stop offset="0.35" stop-color="#f1fbfd"/><stop offset="0.36" stop-color="#f0fbfd"/><stop offset="0.37" stop-color="#effbfc"/><stop offset="0.51" stop-color="#e1f6f5"/><stop offset="0.62" stop-color="#dcf4f3"/><stop offset="0.73" stop-color="#d3eff2"/><stop offset="0.89" stop-color="#bce3f1"/><stop offset="1" stop-color="#a8d9ef"/></linearGradient></defs><g id="레이어_3" data-name="레이어 3"><rect class="cls-1" x="40.73" y="125.19" width="613.18" height="249.96"/><g class="cls-2"><rect class="cls-3" x="40.73" y="126.28" width="613.19" height="238.98"/><path class="cls-1" d="M444.66,223.82q-20,0-39.93,0c-7,0-11.53-3.44-11.94-9.23-.42-6,3.31-10,10.5-10.52,3.33-.22,2.6-2.52,3-4.1,3.4-12.9,16.91-18.65,28.23-11.86A17.31,17.31,0,0,1,442.68,199c.53,2.08,1,2.8,3.61,2.26,5.67-1.2,9,.75,11.52,6.18.86,1.87,1.57,2.62,3.43,1.42a3.85,3.85,0,0,1,.88-.45c5-1.61,8.21,2.81,12,3.63s8.42-2.2,12.45,1.16a9.63,9.63,0,0,1,3.19,4.93c1.3,4.58.56,5.67-4.2,5.68Q465.13,223.84,444.66,223.82Z"/><path class="cls-1" d="M574.3,177.41q14.61,0,29.22,0c5.15,0,8.44-2.52,8.74-6.76s-2.43-7.35-7.69-7.69c-2.43-.16-1.9-1.85-2.2-3-2.49-9.44-12.37-13.65-20.65-8.68a12.67,12.67,0,0,0-6,8c-.38,1.52-.76,2.05-2.64,1.65-4.15-.88-6.61.55-8.43,4.52-.63,1.38-1.15,1.92-2.51,1.05a2.82,2.82,0,0,0-.64-.34c-3.68-1.17-6,2.06-8.8,2.66s-6.16-1.61-9.12.85a7.08,7.08,0,0,0-2.33,3.61c-.95,3.35-.41,4.15,3.07,4.15Q559.34,177.43,574.3,177.41Z"/><path class="cls-1" d="M592.37,185.14h17.25c3,0,5-1.38,5.16-3.7s-1.43-4-4.54-4.22c-1.44-.08-1.12-1-1.3-1.64a8.26,8.26,0,0,0-12.2-4.75,7,7,0,0,0-3.52,4.36c-.22.83-.45,1.12-1.56.9-2.45-.48-3.9.3-5,2.48-.37.75-.67,1-1.48.57a1.66,1.66,0,0,0-.38-.18c-2.17-.65-3.54,1.12-5.19,1.45s-3.64-.88-5.39.47a3.92,3.92,0,0,0-1.38,2c-.55,1.84-.23,2.28,1.82,2.28C580.58,185.15,586.47,185.14,592.37,185.14Z"/><path class="cls-1" d="M394.46,231.44H372.57c-3.86,0-6.32-1.74-6.54-4.69s1.81-5.1,5.75-5.35c1.83-.11,1.43-1.28,1.65-2.08,1.87-6.56,9.27-9.48,15.48-6a8.87,8.87,0,0,1,4.46,5.53c.29,1.06.57,1.43,2,1.15,3.11-.61,5,.38,6.32,3.14.47.95.86,1.34,1.88.73a2.16,2.16,0,0,1,.48-.24c2.75-.81,4.5,1.43,6.59,1.85s4.62-1.12,6.83.59a4.91,4.91,0,0,1,1.75,2.51c.71,2.33.3,2.88-2.31,2.88C409.42,231.45,401.94,231.44,394.46,231.44Z"/><path class="cls-1" d="M89.82,191.23H60.6c-5.15,0-8.44-2.51-8.73-6.75s2.42-7.35,7.68-7.7c2.44-.16,1.9-1.84,2.2-3,2.49-9.44,12.37-13.64,20.66-8.67a12.63,12.63,0,0,1,6,7.95c.39,1.52.76,2.06,2.64,1.66,4.15-.88,6.62.54,8.43,4.52.63,1.37,1.15,1.92,2.51,1a2.65,2.65,0,0,1,.65-.33c3.67-1.18,6,2.06,8.79,2.65s6.17-1.6,9.12.86a7.07,7.07,0,0,1,2.34,3.6c.94,3.36.4,4.15-3.08,4.16C109.79,191.24,99.8,191.22,89.82,191.23Z"/><path class="cls-1" d="M125.19,188.71H107.94c-3,0-5-1.37-5.16-3.7s1.43-4,4.54-4.21c1.44-.09,1.12-1,1.3-1.64a8.26,8.26,0,0,1,12.2-4.76,7,7,0,0,1,3.52,4.36c.23.84.45,1.13,1.56.91,2.45-.48,3.9.3,5,2.47.37.76.68,1.06,1.48.58a1.5,1.5,0,0,1,.38-.19c2.17-.64,3.55,1.13,5.2,1.46s3.63-.88,5.38.47a3.86,3.86,0,0,1,1.38,2c.56,1.84.24,2.27-1.82,2.28Z"/><path class="cls-1" d="M203.88,247.27h21.89c3.86,0,6.32-1.75,6.54-4.7s-1.81-5.1-5.76-5.34c-1.82-.11-1.42-1.28-1.65-2.08-1.86-6.56-9.26-9.49-15.47-6a8.86,8.86,0,0,0-4.46,5.52c-.29,1.06-.57,1.43-2,1.15-3.11-.61-5,.38-6.32,3.14-.47,1-.86,1.34-1.88.73a2.12,2.12,0,0,0-.48-.23c-2.76-.82-4.5,1.43-6.59,1.84s-4.62-1.11-6.83.6a4.85,4.85,0,0,0-1.75,2.5c-.71,2.33-.3,2.88,2.3,2.89Z"/><path class="cls-4" d="M386.23,334.34H241.87c-1.25,0-1.88-1.12-1-1.79,11.79-8.93,64.31-48.34,72.95-48.35,9.06,0,36.13,26.77,41.18,27.62,4.57.77,25,14.43,32.3,20.79C388.09,333.29,387.43,334.34,386.23,334.34Z"/><path class="cls-4" d="M653.59,332.69H334.23S491.49,191.26,514.88,191.23c21.73,0,86.68,75.52,98.79,77.92,5.92,1.17,22.72,13,39.92,26.43"/><path class="cls-5" d="M653.91,295.58c-17.23-13.44-34.07-25.26-40-26.43-12.13-2.4-77.24-77.94-99-77.92l59.27,141.46h79.76"/><path class="cls-5" d="M41,333.75H291.86S168.32,225.92,149.94,225.89c-17.06,0-68.09,57.58-77.6,59.41-4.65.9-17.85,9.9-31.35,20.15"/><path class="cls-4" d="M40.73,305.45C54.27,295.2,67.49,286.2,72.16,285.3c9.53-1.83,60.68-59.43,77.78-59.41l51.21,107.86H40.73"/><rect class="cls-6" x="40.73" y="328.3" width="613.19" height="46.68"/><path class="cls-1" d="M466.6,249.87c.19-.64,1.79-5.5,6.39-4.7a.14.14,0,0,1,.06.23c-.95.83-4.83,4.35-4.07,6.16s-2-1.13-2.35-1.57A.14.14,0,0,1,466.6,249.87Z"/><path class="cls-1" d="M460.92,247.22c.19-.64,1.79-5.49,6.39-4.69a.13.13,0,0,1,.06.23c-.95.82-4.83,4.35-4.07,6.16s-2-1.14-2.35-1.58A.13.13,0,0,1,460.92,247.22Z"/><path class="cls-7" d="M485.35,267,478,259.62s4.25-1.6,3.67-3.09-5.69-7.44-10.16-3.62c0,0-9.79-8.29-14.68-5.53s-7,6.17-8.93,6.6-11.28,2.34-11.7,5.1-5.11,12.56,6,13.19,11.92.64,12.13,1.71,1.18,31.34,11,42.83c0,0,2.86,35.67,3.71,37.58s5.95.22,6.59,0-.22-34-.22-34l4.25.64s.87,37.66,1.5,38.08,5.75,4.05,8.51-1.06l-.55-34.62s58.62,7.21,68.61,4.87l-.41,31.67s6,.63,7.87-1.07,1.48-31.45,1.48-31.45,5.1-1.27,5.74-1.49-.41,31.15-.41,31.15,5.11-.67,6-1.14,6-31.14,6-31.14l9.82-20.56s2.52,35.91,2.31,38.46-4.25,9.57-4.25,12.13.42,3.4,2.12,2.34,6-5.11,6-9.36-1.91-24.05-1.91-26.39.42-26.16-3-33.39S579.17,273.34,563,271,534.82,264.3,485.35,267Z"/><path class="cls-8" d="M436.3,258.69c.15-.38,1.3-1.54,1.67-1.47,1.53.3,4.13,3.52,4.42,7.21a32.52,32.52,0,0,1-.23,7.84s-5.47-.17-6.57-2.75S433.89,265,436.3,258.69Z"/><path class="cls-9" d="M471.87,257.46s3.76-2.72,6.93-1.42"/><path class="cls-9" d="M438.28,263.11s-1.91,2.23,1.17,3.27"/><path class="cls-10" d="M454,257.46s-.07,1.83,2.25,1.83"/><path class="cls-11" d="M541.73,295.63l-5.09-5.08s3-1.11,2.55-2.14-4-5.16-7-2.51c0,0-6.79-5.75-10.18-3.83s-4.86,4.28-6.19,4.57-7.82,1.62-8.11,3.54-3.54,8.7,4.13,9.14,8.25.44,8.4,1.18.82,21.72,7.6,29.69c0,0,2,24.72,2.58,26.05s4.12.15,4.57,0-.16-23.6-.16-23.6l3,.44s.6,26.11,1,26.4,4,2.8,5.9-.74l-.39-24s40.63,5,47.56,3.38l-.28,21.94s4.12.44,5.45-.74,1-21.79,1-21.79,3.54-.89,4-1-.28,21.58-.28,21.58a27.31,27.31,0,0,0,4.13-.79c.59-.32,4.12-21.58,4.12-21.58l6.81-14.25s1.75,24.89,1.6,26.66-2.95,6.63-2.95,8.4.3,2.36,1.48,1.62,4.12-3.54,4.12-6.49-1.32-16.66-1.32-18.28.29-18.13-2.07-23.15-10.91-10.17-22.11-11.79S576,293.79,541.73,295.63Z"/><path class="cls-12" d="M507.73,289.91c.11-.27.91-1.07,1.16-1,1.06.21,2.86,2.44,3.06,5a22.23,22.23,0,0,1-.15,5.43s-3.8-.12-4.56-1.91S506.06,294.3,507.73,289.91Z"/><path class="cls-13" d="M532.38,289.05s2.61-1.88,4.81-1"/><path class="cls-13" d="M509.11,293s-1.33,1.54.81,2.27"/><path class="cls-14" d="M520,289.05s-.05,1.27,1.55,1.27"/><path class="cls-15" d="M94.34,326.2a27.1,27.1,0,0,0,5.48-.2c8.66-1.24,33.32-6.34,35.14-24.61,0,0,4.47-11.23-6.71-23a12.87,12.87,0,0,1-3.89-8.63c-.1-6.2-2.64-17.57-17.53-28.12a24.82,24.82,0,0,0-17.11-3.95c-8.31,1.1-19.06,5.9-26,21.72,0,0-4,8.62-1.23,21a10.69,10.69,0,0,1-1.32,8.06C55.29,298,44.91,323,94.34,326.2Z"/><path class="cls-16" d="M118.68,279.73a4.19,4.19,0,0,0-4.66.92,64.19,64.19,0,0,1-14.65,13.23V265.53c0-1.35-1.54-2.45-3.43-2.45s-3.42,1.1-3.42,2.45v37a63.66,63.66,0,0,1-14.65-13.23,4.19,4.19,0,0,0-4.67-.92c-1.64.66-2.22,2.17-1.28,3.35A70.89,70.89,0,0,0,92.52,309V361.8c0,1.35,1.53,2.45,3.42,2.45s3.43-1.1,3.43-2.45V300.35A71,71,0,0,0,120,283.08C120.9,281.9,120.33,280.4,118.68,279.73Z"/><path class="cls-17" d="M157.54,324a20.31,20.31,0,0,1-4-.14c-6.38-.86-24.59-4.41-25.93-17.12,0,0-3.3-7.81,4.95-16a8.73,8.73,0,0,0,2.87-6c.08-4.31,2-12.22,13-19.56A19.15,19.15,0,0,1,161,262.43c6.13.77,14.07,4.1,19.2,15.11,0,0,3,6,.91,14.6a7.07,7.07,0,0,0,1,5.6C186.36,304.38,194,321.75,157.54,324Z"/><path class="cls-16" d="M171.93,295.51a2.87,2.87,0,0,0-3.19.63,43.8,43.8,0,0,1-10,9V285.87c0-.92-1-1.67-2.34-1.67S154,285,154,285.87V311a43.56,43.56,0,0,1-10-9,2.89,2.89,0,0,0-3.2-.63c-1.12.46-1.52,1.48-.88,2.28A48.67,48.67,0,0,0,154,315.38v43.71c0,.92,1.05,1.67,2.35,1.67s2.34-.75,2.34-1.67V309.52a48.67,48.67,0,0,0,14.11-11.73C173.45,297,173.06,296,171.93,295.51Z"/><g id="BYlcqU"><path class="cls-4" d="M488.61,349.4c.75-1.25.88-2.78,2-3.92a42,42,0,0,0-1.06,12.34l3.79-6.1c.7.24.45.89.51,1.36q.57,4.28,1.08,8.56c.09.74.26,1.34,1.17,1.32s1.22-.63,1.26-1.46c.22-3.74.25-7.44-1.37-11,1.88,1.85,2.61,4.22,3.4,6.57.68-.76.68-.76,1.95,2.31a35,35,0,0,1,2.31-7c-.11,3.47-.57,6.94.2,10.41,1.19-4.24,1.63-8.62,2.95-13.33,1.63,3.41,2.24,6.66,3.32,10.32a47.11,47.11,0,0,1,1.83-11.6c.51,3.11-.09,6.3.82,9.49,2.81-2,2-5.63,3.9-7.91l1.51,11.54c.4-2.61.38-5,1.32-7.33l1.17,5.8a9.56,9.56,0,0,1,2.53-2.8c.74-.49.59-1.29.64-2,.29-3.53.47-7.08,1.1-10.58.05-.27,0-.63.53-.82a99,99,0,0,0,.5,11.27c1.54-2.71,2.89-5.2,5.11-7.12-.6,1.3-1.27,2.57-1.81,3.89a20.73,20.73,0,0,0-1.93,8.16,4.48,4.48,0,0,0,0,1.1c.19.71-.05,1.88,1,1.86.87,0,.86-1.12.88-1.79.07-2.68,0-5.36,0-8l.67-.12,1.44,5.32a10.28,10.28,0,0,1,2.12-4.65,12.21,12.21,0,0,0,1.26,9.08,15.55,15.55,0,0,0,4-14.44c2,4.66,2.4,9.61,3.45,14.53,1-5.85,1.27-11.84,4.24-17.15a44.39,44.39,0,0,0-1,12.32l4-6.49c.45,3.48.86,6.61,1.33,10.22.83-1.71.68-3.15.92-4.6,1,.39.95,1.33,1.6,2.25a17.59,17.59,0,0,0-.26-4.52c-.35-1.4-.79-2.77-1.33-4.67a18.73,18.73,0,0,1,3.57,7.14c.88-1.48,1-.42,1.21.31l.66,2.13a34.87,34.87,0,0,1,2.4-7.19c-.18,3.49-.58,6.95.18,10.43,1.16-4.26,1.63-8.64,3-13.26,1.61,3.32,2.19,6.59,3.29,10.22a48.67,48.67,0,0,1,1.79-11.55c.57,3.06,0,6.22.83,9.46,2.83-2,2-5.67,3.93-7.86.48,3.67,1,7.39,1.47,11.29.49-2.46.38-4.84,1.37-7.09l1,5.29c3.46-1.81,3.45-5.06,3.62-8.24a29.16,29.16,0,0,1,1.13-7.44c0,3.65.31,7.27.64,11.26a26.77,26.77,0,0,1,5.13-7.19c-.6,1.29-1.24,2.57-1.8,3.88a20.27,20.27,0,0,0-1.95,8.52,7.58,7.58,0,0,0,.2,1.64c.1.44.15,1.06.81,1s.7-.64.79-1.09a40.81,40.81,0,0,0,.29-7.33V353l.54-.13c.48,1.78,1,3.56,1.49,5.48a10.32,10.32,0,0,1,2-4.81c.12,1.65-.63,3.28,0,4.95.91-.41.77-1.6,1.79-2,.13,1.64-.63,3.31.38,4.86,3.58-3.77,3.92-8.29,3-13.14l.51-.07,3.73,12.48c.41-5.61,1.18-10.56,3.62-15.12a44.43,44.43,0,0,0-1,12.3l4-6.47,1,7.37c.8-.63.55-1.74,1.5-2.3.26,2.08.17,4.14,1,6.05.55-4,.61-8-1.05-11.93a14.32,14.32,0,0,1,3.11,5.82c.09.27.05,1.4.73.19.24-.42.52.22.62.53.25.75.48,1.5.77,2.45.73-2.51,1.41-4.82,2.09-7.13l.52,0c-.35,3.48-.84,7,0,10.42,1.26-4.25,1.52-8.69,3-13.25,1.51,3.34,2.18,6.55,3.21,10.19a50.72,50.72,0,0,1,1.86-11.55c.47,3.09,0,6.22.77,9.47,2.91-1.93,2.07-5.64,3.94-7.87.49,3.72,1,7.47,1.51,11.47.4-2.58.4-5,1.33-7.27.36,1.78.71,3.55,1.08,5.36,3.15-2.54,3.29-2.9,3.6-8.27.1-1.71.28-3.42.48-5.12a7.28,7.28,0,0,1,.65-2.33c.06,3.65.27,7.27.66,11.19,1.54-2.69,2.88-5.2,5.13-7.1-.58,1.24-1.21,2.46-1.75,3.72a20.54,20.54,0,0,0-2,8.32,4.46,4.46,0,0,0,0,1.1c.19.71-.05,1.88,1,1.86.87,0,.87-1.12.88-1.79.07-2.68,0-5.36,0-8.05l.72-.12,1.41,5.49a9.45,9.45,0,0,1,2.13-4.79,11.5,11.5,0,0,0,.36,7.13c.24.6.27,1.52,1,1.58s.8-.82,1.17-1.29a13.9,13.9,0,0,0,2.59-11.79,8.72,8.72,0,0,1-.06-.93c.77.09.7.67.82,1.08a65.76,65.76,0,0,1,2.17,11.9c.07.67,0,1.37.66,1.82v12.87c-.73,0-1.46.1-2.2.1H511.92c-7.77,0-15.54-.07-23.31-.1Zm4.32,4.82a28,28,0,0,0-2.42,7.51c-.11.65-.14,1.24.78,1.29.76.05.91-.39,1-1C492.47,359.41,492.7,356.82,492.93,354.22Zm55.9,0a24.73,24.73,0,0,0-2.4,7.44c-.11.66,0,1.26.87,1.33s.79-.59.84-1.13Z"/></g><g id="BYlcqU-2" data-name="BYlcqU"><path class="cls-4" d="M323.18,349.4c.75-1.25.88-2.78,2-3.92a42.39,42.39,0,0,0-1,12.34c1.36-2.2,2.57-4.13,3.79-6.1.7.24.44.89.51,1.36q.57,4.28,1.08,8.56c.08.74.25,1.34,1.17,1.32s1.21-.63,1.26-1.46c.22-3.74.24-7.44-1.37-11,1.87,1.85,2.61,4.22,3.39,6.57.69-.76.69-.76,2,2.31a35,35,0,0,1,2.31-7c-.11,3.47-.57,6.94.2,10.41,1.19-4.24,1.62-8.62,3-13.33,1.63,3.41,2.24,6.66,3.32,10.32a46.65,46.65,0,0,1,1.83-11.6c.51,3.11-.09,6.3.82,9.49,2.81-2,2-5.63,3.9-7.91l1.5,11.54c.41-2.61.39-5,1.33-7.33l1.17,5.8a9.56,9.56,0,0,1,2.53-2.8c.73-.49.58-1.29.64-2,.29-3.53.47-7.08,1.09-10.58,0-.27,0-.63.54-.82a99,99,0,0,0,.5,11.27c1.54-2.71,2.89-5.2,5.11-7.12-.61,1.3-1.27,2.57-1.81,3.89a20.57,20.57,0,0,0-1.94,8.16,5,5,0,0,0,0,1.1c.18.71-.05,1.88,1,1.86.88,0,.87-1.12.89-1.79.07-2.68,0-5.36,0-8l.67-.12,1.44,5.32a10.28,10.28,0,0,1,2.12-4.65,12.25,12.25,0,0,0,1.25,9.08,15.53,15.53,0,0,0,4-14.44c2,4.66,2.4,9.61,3.44,14.53,1-5.85,1.28-11.84,4.24-17.15a44.78,44.78,0,0,0-1,12.32c1.37-2.21,2.57-4.14,4-6.49.45,3.48.86,6.61,1.33,10.22.83-1.71.68-3.15.91-4.6,1,.39.95,1.33,1.61,2.25a17.13,17.13,0,0,0-.27-4.52c-.34-1.4-.78-2.77-1.32-4.67a18.73,18.73,0,0,1,3.57,7.14c.88-1.48,1-.42,1.21.31s.36,1.17.66,2.13a34.29,34.29,0,0,1,2.4-7.19c-.18,3.49-.59,6.95.18,10.43,1.16-4.26,1.63-8.64,3-13.26,1.62,3.32,2.2,6.59,3.3,10.22a48.17,48.17,0,0,1,1.79-11.55c.56,3.06,0,6.22.83,9.46,2.83-2,2-5.67,3.93-7.86.48,3.67,1,7.39,1.47,11.29.49-2.46.38-4.84,1.37-7.09l1.05,5.29c3.46-1.81,3.44-5.06,3.61-8.24a29.62,29.62,0,0,1,1.14-7.44c0,3.65.31,7.27.64,11.26a26.77,26.77,0,0,1,5.13-7.19c-.6,1.29-1.24,2.57-1.8,3.88a20.27,20.27,0,0,0-2,8.52,7.58,7.58,0,0,0,.2,1.64c.1.44.14,1.06.81,1s.7-.64.79-1.09a40.81,40.81,0,0,0,.29-7.33V353l.54-.13,1.48,5.48a10.43,10.43,0,0,1,2-4.81c.12,1.65-.63,3.28,0,4.95.92-.41.78-1.6,1.8-2,.13,1.64-.63,3.31.38,4.86,3.57-3.77,3.91-8.29,3-13.14l.52-.07,3.73,12.48c.41-5.61,1.18-10.56,3.62-15.12a44.05,44.05,0,0,0-1,12.3l4-6.47,1,7.37c.8-.63.54-1.74,1.5-2.3.26,2.08.16,4.14,1,6.05.55-4,.61-8-1-11.93a14.56,14.56,0,0,1,3.11,5.82c.09.27.05,1.4.73.19.23-.42.52.22.62.53.25.75.47,1.5.77,2.45.73-2.51,1.41-4.82,2.09-7.13l.51,0c-.35,3.48-.83,7,0,10.42,1.26-4.25,1.52-8.69,3-13.25a70.76,70.76,0,0,1,3.21,10.19,50.18,50.18,0,0,1,1.86-11.55c.47,3.09,0,6.22.77,9.47,2.91-1.93,2.07-5.64,3.94-7.87.49,3.72,1,7.47,1.51,11.47.4-2.58.4-5,1.33-7.27.36,1.78.71,3.55,1.07,5.36,3.16-2.54,3.3-2.9,3.61-8.27.1-1.71.28-3.42.47-5.12a7.57,7.57,0,0,1,.66-2.33c.05,3.65.26,7.27.66,11.19,1.54-2.69,2.88-5.2,5.13-7.1-.59,1.24-1.21,2.46-1.75,3.72a20.71,20.71,0,0,0-2,8.32,5,5,0,0,0,0,1.1c.19.71-.05,1.88,1,1.86.87,0,.87-1.12.88-1.79.07-2.68,0-5.36,0-8.05l.72-.12,1.4,5.49a9.46,9.46,0,0,1,2.14-4.79,11.5,11.5,0,0,0,.36,7.13c.24.6.27,1.52,1,1.58s.8-.82,1.17-1.29A13.94,13.94,0,0,0,485,349.13a8.72,8.72,0,0,1-.06-.93c.77.09.7.67.82,1.08a65.76,65.76,0,0,1,2.17,11.9c.07.67,0,1.37.66,1.82v12.87c-.73,0-1.47.1-2.2.1H346.49c-7.77,0-15.54-.07-23.31-.1Zm4.32,4.82a27.67,27.67,0,0,0-2.42,7.51c-.11.65-.14,1.24.78,1.29.76.05.9-.39,1-1C327,359.41,327.27,356.82,327.5,354.22Zm55.9,0a24.45,24.45,0,0,0-2.4,7.44c-.11.66,0,1.26.86,1.33s.79-.59.84-1.13C382.94,359.3,383.17,356.76,383.4,354.21Z"/></g><g id="BYlcqU-3" data-name="BYlcqU"><path class="cls-4" d="M157.74,349.4c.75-1.25.89-2.78,2-3.92a42.39,42.39,0,0,0-1.05,12.34c1.36-2.2,2.56-4.13,3.79-6.1.7.24.44.89.51,1.36.38,2.85.73,5.7,1.07,8.56.09.74.26,1.34,1.17,1.32s1.22-.63,1.27-1.46c.21-3.74.24-7.44-1.37-11,1.87,1.85,2.61,4.22,3.39,6.57.69-.76.69-.76,2,2.31a35,35,0,0,1,2.31-7c-.11,3.47-.57,6.94.2,10.41,1.19-4.24,1.62-8.62,2.95-13.33,1.63,3.41,2.23,6.66,3.32,10.32a46.65,46.65,0,0,1,1.83-11.6c.51,3.11-.09,6.3.82,9.49,2.81-2,2-5.63,3.9-7.91l1.5,11.54c.4-2.61.39-5,1.33-7.33l1.17,5.8a9.56,9.56,0,0,1,2.53-2.8c.73-.49.58-1.29.64-2,.29-3.53.46-7.08,1.09-10.58,0-.27,0-.63.54-.82a96.64,96.64,0,0,0,.49,11.27c1.55-2.71,2.9-5.2,5.12-7.12-.61,1.3-1.27,2.57-1.81,3.89a20.57,20.57,0,0,0-1.94,8.16,5,5,0,0,0,0,1.1c.18.71-.05,1.88,1,1.86.88,0,.87-1.12.89-1.79.07-2.68,0-5.36,0-8l.66-.12,1.45,5.32a10.28,10.28,0,0,1,2.12-4.65,12.16,12.16,0,0,0,1.25,9.08,15.56,15.56,0,0,0,4-14.44c2,4.66,2.4,9.61,3.44,14.53,1-5.85,1.27-11.84,4.24-17.15a44.78,44.78,0,0,0-1,12.32c1.37-2.21,2.57-4.14,4-6.49.45,3.48.86,6.61,1.33,10.22.83-1.71.68-3.15.91-4.6,1,.39,1,1.33,1.61,2.25a17.13,17.13,0,0,0-.27-4.52c-.34-1.4-.78-2.77-1.32-4.67a18.88,18.88,0,0,1,3.57,7.14c.88-1.48,1-.42,1.21.31s.36,1.17.66,2.13a34.29,34.29,0,0,1,2.4-7.19c-.18,3.49-.59,6.95.17,10.43,1.16-4.26,1.64-8.64,3-13.26,1.61,3.32,2.2,6.59,3.3,10.22a48.17,48.17,0,0,1,1.79-11.55c.56,3.06,0,6.22.83,9.46,2.83-2,2-5.67,3.93-7.86.47,3.67,1,7.39,1.47,11.29.49-2.46.38-4.84,1.37-7.09l1,5.29c3.46-1.81,3.44-5.06,3.61-8.24a29.17,29.17,0,0,1,1.14-7.44c0,3.65.31,7.27.64,11.26a26.77,26.77,0,0,1,5.13-7.19c-.6,1.29-1.25,2.57-1.8,3.88a20.43,20.43,0,0,0-2,8.52,9.07,9.07,0,0,0,.2,1.64c.11.44.15,1.06.82,1s.7-.64.78-1.09a39.91,39.91,0,0,0,.3-7.33V353l.54-.13,1.48,5.48a10.33,10.33,0,0,1,2-4.81c.12,1.65-.64,3.28,0,4.95.92-.41.78-1.6,1.8-2,.13,1.64-.63,3.31.38,4.86,3.57-3.77,3.91-8.29,3-13.14l.52-.07,3.73,12.48c.41-5.61,1.18-10.56,3.62-15.12a44.05,44.05,0,0,0-1,12.3l4-6.47,1,7.37c.8-.63.54-1.74,1.49-2.3.27,2.08.17,4.14,1,6.05.55-4,.61-8-1.05-11.93a14.56,14.56,0,0,1,3.11,5.82c.08.27.05,1.4.73.19.23-.42.52.22.62.53.25.75.47,1.5.76,2.45l2.1-7.13.51,0c-.35,3.48-.83,7,0,10.42,1.26-4.25,1.51-8.69,3-13.25A70.76,70.76,0,0,1,291,359.78a50.73,50.73,0,0,1,1.85-11.55c.48,3.09,0,6.22.78,9.47,2.91-1.93,2.07-5.64,3.94-7.87.49,3.72,1,7.47,1.51,11.47.4-2.58.4-5,1.33-7.27.36,1.78.71,3.55,1.07,5.36,3.16-2.54,3.3-2.9,3.61-8.27.1-1.71.28-3.42.47-5.12a7.57,7.57,0,0,1,.66-2.33c.05,3.65.26,7.27.66,11.19,1.53-2.69,2.88-5.2,5.13-7.1-.59,1.24-1.21,2.46-1.75,3.72a20.71,20.71,0,0,0-2,8.32,4.45,4.45,0,0,0,0,1.1c.19.71-.05,1.88,1,1.86.87,0,.86-1.12.88-1.79.07-2.68,0-5.36,0-8.05l.72-.12,1.4,5.49a9.46,9.46,0,0,1,2.14-4.79,11.5,11.5,0,0,0,.36,7.13c.23.6.27,1.52,1,1.58s.8-.82,1.16-1.29a13.94,13.94,0,0,0,2.6-11.79,8.72,8.72,0,0,1-.06-.93c.77.09.7.67.81,1.08a64.92,64.92,0,0,1,2.18,11.9c.06.67,0,1.37.66,1.82v12.87c-.74,0-1.47.1-2.2.1H181.06c-7.77,0-15.54-.07-23.32-.1Zm4.33,4.82a27.67,27.67,0,0,0-2.42,7.51c-.11.65-.14,1.24.77,1.29s.91-.39,1-1C161.6,359.41,161.84,356.82,162.07,354.22Zm55.9,0a24.75,24.75,0,0,0-2.41,7.44c-.1.66,0,1.26.87,1.33s.79-.59.84-1.13C217.51,359.3,217.74,356.76,218,354.21Z"/></g><g id="BYlcqU-4" data-name="BYlcqU"><path class="cls-4" d="M40.73,359.58a15.67,15.67,0,0,0,1.72-11.45c2,4.66,2.4,9.61,3.44,14.53,1-5.85,1.27-11.84,4.24-17.15a44.39,44.39,0,0,0-1,12.32l4-6.49c.45,3.48.86,6.61,1.33,10.22.83-1.71.67-3.15.91-4.6,1,.39,1,1.33,1.61,2.25a17.13,17.13,0,0,0-.27-4.52c-.34-1.4-.78-2.77-1.32-4.67A18.88,18.88,0,0,1,59,357.16c.88-1.48,1-.42,1.21.31s.36,1.17.66,2.13a34.29,34.29,0,0,1,2.4-7.19c-.18,3.49-.59,6.95.17,10.43,1.16-4.26,1.64-8.64,3-13.26,1.61,3.32,2.2,6.59,3.3,10.22a48.18,48.18,0,0,1,1.78-11.55c.57,3.06,0,6.22.83,9.46,2.83-2,2-5.67,3.93-7.86.48,3.67,1,7.39,1.47,11.29.5-2.46.39-4.84,1.38-7.09l1,5.29c3.47-1.81,3.45-5.06,3.62-8.24a29.17,29.17,0,0,1,1.14-7.44c0,3.65.3,7.27.63,11.26a27,27,0,0,1,5.14-7.19c-.61,1.29-1.25,2.57-1.8,3.88a20.28,20.28,0,0,0-2,8.52,9.07,9.07,0,0,0,.2,1.64c.11.44.15,1.06.82,1s.7-.64.78-1.09a39,39,0,0,0,.29-7.33V353l.55-.13L91,358.31a10.33,10.33,0,0,1,2-4.81c.12,1.65-.64,3.28,0,4.95.92-.41.78-1.6,1.8-2,.13,1.64-.63,3.31.38,4.86,3.57-3.77,3.91-8.29,3-13.14l.51-.07c1.19,4,2.39,8,3.73,12.48.42-5.61,1.19-10.56,3.63-15.12a44.43,44.43,0,0,0-1,12.3l4-6.47,1,7.37c.81-.63.55-1.74,1.5-2.3.27,2.08.17,4.14,1,6.05.55-4,.62-8-1-11.93a14.56,14.56,0,0,1,3.11,5.82c.08.27.05,1.4.72.19.24-.42.52.22.63.53.25.75.47,1.5.76,2.45.74-2.51,1.42-4.82,2.09-7.13l.52,0c-.35,3.48-.83,7,0,10.42,1.26-4.25,1.51-8.69,3-13.25a70.76,70.76,0,0,1,3.21,10.19,50.19,50.19,0,0,1,1.85-11.55c.47,3.09,0,6.22.77,9.47,2.92-1.93,2.08-5.64,4-7.87.49,3.72,1,7.47,1.51,11.47.39-2.58.4-5,1.33-7.27.35,1.78.71,3.55,1.07,5.36,3.16-2.54,3.3-2.9,3.61-8.27.09-1.71.28-3.42.47-5.12a7.57,7.57,0,0,1,.66-2.33c0,3.65.26,7.27.65,11.19,1.54-2.69,2.89-5.2,5.14-7.1-.59,1.24-1.21,2.46-1.76,3.72a20.87,20.87,0,0,0-2,8.32,4.45,4.45,0,0,0,0,1.1c.19.71-.06,1.88,1,1.86.88,0,.87-1.12.89-1.79.07-2.68,0-5.36,0-8.05l.71-.12,1.41,5.49A9.53,9.53,0,0,1,149,353.5a11.65,11.65,0,0,0,.36,7.13c.24.6.27,1.52,1,1.58s.8-.82,1.16-1.29a13.94,13.94,0,0,0,2.6-11.79,6.71,6.71,0,0,1-.06-.93c.76.09.69.67.81,1.08a64.92,64.92,0,0,1,2.18,11.9c.06.67,0,1.37.65,1.82v12.87c-.73,0-1.46.1-2.19.1H40.73Zm11.81-5.37a24.47,24.47,0,0,0-2.41,7.44c-.1.66,0,1.26.87,1.33s.79-.59.84-1.13C52.08,359.3,52.31,356.76,52.54,354.21Z"/></g></g><path d="M105.68,205.73a1.16,1.16,0,0,1-1.72,0l-2.33-2.18c-.46-.46-.41-.95.15-1.48a33.51,33.51,0,0,0,5.49-6.52,35.32,35.32,0,0,0,3.65-7.61,36.71,36.71,0,0,0,1.71-7.34,56.51,56.51,0,0,0,.37-8.13.68.68,0,0,1,.22-.51.66.66,0,0,1,.47-.23l4.4.15a.61.61,0,0,1,.44.22.77.77,0,0,1,.2.52,65.35,65.35,0,0,1-.89,11.17,22.74,22.74,0,0,0,1.48,4.77,31.55,31.55,0,0,0,2.45,4.59,34.32,34.32,0,0,0,3,4.08,23.37,23.37,0,0,0,3.26,3.16c.52.4.56.92.1,1.58l-2.08,2.52a1,1,0,0,1-.67.4,1.35,1.35,0,0,1-.91-.3,21.64,21.64,0,0,1-2.59-2.37,32.89,32.89,0,0,1-2.6-3.09,38.08,38.08,0,0,1-2.27-3.41,20.32,20.32,0,0,1-1.63-3.38,34.91,34.91,0,0,1-2,4c-.76,1.28-1.55,2.51-2.39,3.68a33.11,33.11,0,0,1-2.62,3.21A28.59,28.59,0,0,1,105.68,205.73Zm34.74,10.42H136a.56.56,0,0,1-.64-.64V189.37H125.2a.68.68,0,0,1-.47-.2.56.56,0,0,1-.22-.44v-3.51a.52.52,0,0,1,.22-.42.8.8,0,0,1,.47-.17h10.18V169.9a.57.57,0,0,1,.64-.64h4.4a.57.57,0,0,1,.64.64v45.61A.56.56,0,0,1,140.42,216.15Z"/><path d="M191.11,192.76a.72.72,0,0,1-.49.22H171.94v3.66H181a4.18,4.18,0,0,1,2.7.61,3.11,3.11,0,0,1,.66,2.3v5.68a3.07,3.07,0,0,1-.66,2.32,4.25,4.25,0,0,1-2.7.6h-20.8c-.26,0-.43,0-.49.12a1,1,0,0,0-.1.57v1.53c0,.3,0,.47.1.52a1.15,1.15,0,0,0,.54.07h24.56a.79.79,0,0,1,.49.2.6.6,0,0,1,.25.5v3.21a.63.63,0,0,1-.25.47.68.68,0,0,1-.44.22H157.37a3.73,3.73,0,0,1-2.62-.69,3.14,3.14,0,0,1-.69-2.28V207a3.22,3.22,0,0,1,.66-2.27,3.65,3.65,0,0,1,2.6-.69h21a.94.94,0,0,0,.49-.08c.07,0,.1-.24.1-.56V202c0-.36,0-.57-.1-.64s-.25-.1-.54-.1H154.6a.7.7,0,0,1-.47-.2.57.57,0,0,1-.22-.44v-3.31a.58.58,0,0,1,.22-.45.69.69,0,0,1,.47-.19h11.66V193H147.58a.61.61,0,0,1-.69-.69v-3.07a.79.79,0,0,1,.2-.52.66.66,0,0,1,.49-.22h43a.73.73,0,0,1,.49.25.71.71,0,0,1,.25.49v3.07A.63.63,0,0,1,191.11,192.76Zm-6.37-15.64a6.07,6.07,0,0,1-1,3.43,8.76,8.76,0,0,1-3,2.7,17.28,17.28,0,0,1-4.87,1.77,34.29,34.29,0,0,1-13.29,0,17.28,17.28,0,0,1-4.87-1.77,8.85,8.85,0,0,1-3-2.7,6.07,6.07,0,0,1-1-3.43,5.79,5.79,0,0,1,1-3.31,9,9,0,0,1,3-2.67,17.28,17.28,0,0,1,4.87-1.78,34.82,34.82,0,0,1,13.29,0,17.28,17.28,0,0,1,4.87,1.78,8.9,8.9,0,0,1,3,2.67A5.79,5.79,0,0,1,184.74,177.12ZM169.18,173a21.24,21.24,0,0,0-4,.34,15.43,15.43,0,0,0-3.14.92,6,6,0,0,0-2.07,1.36,2.39,2.39,0,0,0-.75,1.68,2.27,2.27,0,0,0,.75,1.6,6.23,6.23,0,0,0,2.07,1.34,15.46,15.46,0,0,0,3.14.91,22.63,22.63,0,0,0,7.93,0,15.29,15.29,0,0,0,3.16-.91,6.39,6.39,0,0,0,2.08-1.34,2.3,2.3,0,0,0,.74-1.6,2.42,2.42,0,0,0-.74-1.68,6.1,6.1,0,0,0-2.08-1.36,15.27,15.27,0,0,0-3.16-.92A21.37,21.37,0,0,0,169.18,173Z"/><path d="M129.71,244.9a4.55,4.55,0,0,1-1.29.93,4.82,4.82,0,0,1-1.66.45,6,6,0,0,1-1,0q-.57,0-1.11-.12c-.35-.06-.68-.13-1-.2a3.64,3.64,0,0,1-.63-.2,1.21,1.21,0,0,1-.35-.21s0-.14,0-.28l.14-1.44a.21.21,0,0,1,.1-.19c.05,0,.14,0,.29.06a6.24,6.24,0,0,0,.66.22,7,7,0,0,0,1,.22,9.28,9.28,0,0,0,1.06.1,3.28,3.28,0,0,0,1-.08,3,3,0,0,0,.91-.35,1.86,1.86,0,0,0,.55-.53,1.76,1.76,0,0,0,.28-.66,3.08,3.08,0,0,0,.08-.75,2,2,0,0,0-.47-1,4.61,4.61,0,0,0-1.37-1.17c-.73-.43-1.36-.82-1.89-1.19a9,9,0,0,1-1.31-1.1,3.94,3.94,0,0,1-.76-1.13,3.11,3.11,0,0,1-.25-1.28,3.62,3.62,0,0,1,.33-1.52,3.93,3.93,0,0,1,.94-1.27,4.54,4.54,0,0,1,1.41-.87,5.08,5.08,0,0,1,1.82-.32,9.38,9.38,0,0,1,1.66.13,6.29,6.29,0,0,1,1.11.3.5.5,0,0,1,.27.17.32.32,0,0,1,0,.22l-.26,1.24a.46.46,0,0,1-.12.29q-.09.07-.3,0l-.64-.18-.72-.15c-.25,0-.48-.06-.71-.08a3.92,3.92,0,0,0-.61,0,2.47,2.47,0,0,0-1.53.71,2.08,2.08,0,0,0-.43,1.35,1.77,1.77,0,0,0,.5,1.08,5.91,5.91,0,0,0,1.48,1.17q1.22.75,2,1.32a7.83,7.83,0,0,1,1.24,1.12,3.41,3.41,0,0,1,.64,1.08,3.7,3.7,0,0,1,.18,1.18A4.07,4.07,0,0,1,129.71,244.9Z"/><path d="M141.65,241.06a.29.29,0,0,1-.09.23.29.29,0,0,1-.19.08H135a3.51,3.51,0,0,0,.81,2.13,2.47,2.47,0,0,0,2,.82,7.38,7.38,0,0,0,1.46-.16,4.72,4.72,0,0,0,1.49-.58c.1-.05.15,0,.18,0a.87.87,0,0,1,0,.25v1.34a.55.55,0,0,1-.06.28.79.79,0,0,1-.23.19,4.5,4.5,0,0,1-1.37.45,9.51,9.51,0,0,1-1.6.13A4.52,4.52,0,0,1,134,244.8a6.41,6.41,0,0,1-1.24-4.25,7.92,7.92,0,0,1,.28-2.05,5.64,5.64,0,0,1,.82-1.81,4.22,4.22,0,0,1,1.41-1.28,4.05,4.05,0,0,1,2-.48,4.15,4.15,0,0,1,2,.44,3.83,3.83,0,0,1,1.35,1.21,4.91,4.91,0,0,1,.75,1.76,9.28,9.28,0,0,1,.24,2.16c0,.09,0,.19,0,.31S141.65,241,141.65,241.06Zm-4.25-4.27a2,2,0,0,0-.94.23,2.69,2.69,0,0,0-.7.6,3.22,3.22,0,0,0-.47.86,4.8,4.8,0,0,0-.26,1h4.44a3.48,3.48,0,0,0-.12-.86,3.31,3.31,0,0,0-.38-.86,2.27,2.27,0,0,0-.64-.67A1.59,1.59,0,0,0,137.4,236.79Z"/><path d="M152.24,244.46a4.73,4.73,0,0,1-1.66,1.33,5.64,5.64,0,0,1-4.39,0,4.42,4.42,0,0,1-1.59-1.23,5.11,5.11,0,0,1-1-1.8,7.69,7.69,0,0,1,0-4.39,5.2,5.2,0,0,1,1-1.8,4.54,4.54,0,0,1,1.58-1.21,5.05,5.05,0,0,1,2.2-.44,5.12,5.12,0,0,1,2.2.44,4.67,4.67,0,0,1,1.59,1.21,5.56,5.56,0,0,1,1,1.8,7.63,7.63,0,0,1,0,4.34A5.42,5.42,0,0,1,152.24,244.46Zm-3.86-7.63a2.52,2.52,0,0,0-1.31.33,2.74,2.74,0,0,0-.9.86,4.34,4.34,0,0,0-.53,1.2,5.67,5.67,0,0,0-.17,1.35,5.55,5.55,0,0,0,.17,1.35,4.47,4.47,0,0,0,.53,1.22,2.68,2.68,0,0,0,.9.87,2.77,2.77,0,0,0,2.62,0,2.68,2.68,0,0,0,.9-.87,4.18,4.18,0,0,0,.53-1.22,5.37,5.37,0,0,0,0-2.68,4.06,4.06,0,0,0-.53-1.2,2.77,2.77,0,0,0-.9-.87A2.41,2.41,0,0,0,148.38,236.83Z"/><path d="M162.63,245.93a.31.31,0,0,1-.17-.05.12.12,0,0,1,0-.14V245a3.41,3.41,0,0,1-1.24.95,3.62,3.62,0,0,1-1.52.33,3.51,3.51,0,0,1-2.82-1.1,4.81,4.81,0,0,1-.93-3.17v-6.5a.34.34,0,0,1,.07-.19.23.23,0,0,1,.17-.08h1.59a.22.22,0,0,1,.17.09.34.34,0,0,1,.08.2v6.17a3.37,3.37,0,0,0,.48,2.06,1.67,1.67,0,0,0,1.4.6,2.18,2.18,0,0,0,1.74-.8,3.52,3.52,0,0,0,.69-2.36v-5.69a.28.28,0,0,1,.07-.19.21.21,0,0,1,.16-.08h1.61a.2.2,0,0,1,.17.1.44.44,0,0,1,.07.21v7.92c0,.4,0,.79,0,1.18s0,.75,0,1.07c0,.17-.07.25-.21.25Z"/><path d="M167.6,246a.2.2,0,0,1-.22-.23v-15.3a.24.24,0,0,1,.07-.16.22.22,0,0,1,.17-.07h1.63a.24.24,0,0,1,.23.23v15.3a.24.24,0,0,1-.23.23Z"/><path d="M248.58,245a.24.24,0,0,1-.23-.23V230.59a.22.22,0,0,1,.07-.17.24.24,0,0,1,.16-.07h1.73a.26.26,0,0,1,.17.07.25.25,0,0,1,.06.17v5.82h6v-5.82a.22.22,0,0,1,.07-.17.24.24,0,0,1,.16-.07h1.73a.26.26,0,0,1,.17.07.25.25,0,0,1,.06.17v14.17a.23.23,0,0,1-.06.16.22.22,0,0,1-.17.07h-1.73a.21.21,0,0,1-.23-.23v-6.31h-6v6.31a.2.2,0,0,1-.23.23Z"/><path d="M270.4,243.5a4.67,4.67,0,0,1-1.67,1.33,5.58,5.58,0,0,1-4.39,0,4.46,4.46,0,0,1-1.59-1.22,5.56,5.56,0,0,1-1-1.8,7.69,7.69,0,0,1,0-4.39,5.45,5.45,0,0,1,1-1.8,4.73,4.73,0,0,1,1.58-1.21,5.1,5.1,0,0,1,2.21-.45,5,5,0,0,1,2.19.45,4.49,4.49,0,0,1,1.59,1.21,5.11,5.11,0,0,1,1,1.8,7.63,7.63,0,0,1,0,4.34A5.3,5.3,0,0,1,270.4,243.5Zm-3.86-7.63a2.5,2.5,0,0,0-1.31.33,2.65,2.65,0,0,0-.9.86,4.06,4.06,0,0,0-.53,1.2,5.21,5.21,0,0,0-.17,1.35,5.1,5.1,0,0,0,.17,1.35,4.18,4.18,0,0,0,.53,1.22,2.68,2.68,0,0,0,.9.87,2.77,2.77,0,0,0,2.62,0,2.68,2.68,0,0,0,.9-.87,4.47,4.47,0,0,0,.53-1.22,5.37,5.37,0,0,0,0-2.68,4.34,4.34,0,0,0-.53-1.2,2.68,2.68,0,0,0-.9-.87A2.44,2.44,0,0,0,266.54,235.87Z"/><path d="M282.14,240.1a.28.28,0,0,1-.08.23.29.29,0,0,1-.19.08h-6.38a3.48,3.48,0,0,0,.81,2.12,2.47,2.47,0,0,0,2,.83,7.53,7.53,0,0,0,1.46-.17,4.7,4.7,0,0,0,1.49-.57c.09-.05.15,0,.18,0a.87.87,0,0,1,0,.25v1.34a.49.49,0,0,1-.06.27.63.63,0,0,1-.24.2,4.62,4.62,0,0,1-1.36.45,9.54,9.54,0,0,1-1.61.13,4.48,4.48,0,0,1-3.63-1.45,6.31,6.31,0,0,1-1.24-4.24,7.85,7.85,0,0,1,.27-2.05,5.88,5.88,0,0,1,.83-1.81,4.22,4.22,0,0,1,1.41-1.28,4.05,4.05,0,0,1,2-.49,4.2,4.2,0,0,1,2,.45,4,4,0,0,1,1.34,1.2,5.05,5.05,0,0,1,.76,1.77,9.29,9.29,0,0,1,.23,2.16c0,.09,0,.19,0,.31S282.14,240.05,282.14,240.1Zm-4.25-4.27a1.89,1.89,0,0,0-.93.23,2.69,2.69,0,0,0-.7.6,3.22,3.22,0,0,0-.47.86,4.22,4.22,0,0,0-.26,1H280a3.1,3.1,0,0,0-.13-.86,3.29,3.29,0,0,0-.37-.86,2.41,2.41,0,0,0-.64-.67A1.6,1.6,0,0,0,277.89,235.83Z"/><path d="M291.27,245a.21.21,0,0,1-.17-.09.3.3,0,0,1-.06-.18v-6.17a3.58,3.58,0,0,0-.44-2,1.55,1.55,0,0,0-1.37-.62,2.35,2.35,0,0,0-1.89.7,3.06,3.06,0,0,0-.61,2v6.08c0,.17-.08.25-.24.25h-1.61a.19.19,0,0,1-.16-.09.26.26,0,0,1-.07-.18V237c0-.49,0-1,0-1.41s0-.81-.05-1.07.07-.25.27-.25h1.54c.14,0,.2,0,.17.15l0,.71a4.39,4.39,0,0,1,1.17-.8,3.52,3.52,0,0,1,1.57-.34,3.61,3.61,0,0,1,2.84,1.1,4.59,4.59,0,0,1,1,3.18v6.48c0,.17-.08.25-.23.25Z"/><path d="M300,248a11,11,0,0,1-1.53-.11,7.34,7.34,0,0,1-1.5-.38l-.24-.15a.28.28,0,0,1-.07-.2l.1-1.57c0-.24.16-.31.39-.19a5.88,5.88,0,0,0,1.43.49,6.87,6.87,0,0,0,1.44.17,2.93,2.93,0,0,0,2-.66,2.46,2.46,0,0,0,.81-1.81,3.26,3.26,0,0,1-1.19.82,3.6,3.6,0,0,1-1.34.27,4.33,4.33,0,0,1-1.8-.38,4.19,4.19,0,0,1-1.44-1.05,4.87,4.87,0,0,1-.94-1.6,5.82,5.82,0,0,1-.34-2,6.54,6.54,0,0,1,1.16-4.25,4.07,4.07,0,0,1,3.31-1.38,3.55,3.55,0,0,1,.78.1,6.3,6.3,0,0,1,.77.25,6.23,6.23,0,0,1,.68.36,3.44,3.44,0,0,1,.54.44l0-.68a.41.41,0,0,1,0-.21s.1-.06.23-.06h1.54c.15,0,.23.1.23.29v8a5.94,5.94,0,0,1-1.28,4.06A4.73,4.73,0,0,1,300,248Zm.49-12.11a2.18,2.18,0,0,0-1.88.89,4.88,4.88,0,0,0-.65,2.83,4.11,4.11,0,0,0,.2,1.32,3,3,0,0,0,.53,1,2.37,2.37,0,0,0,.78.61,2,2,0,0,0,.92.22,2.4,2.4,0,0,0,1.83-.84,3.14,3.14,0,0,0,.55-1,4.15,4.15,0,0,0,.2-1.34,4.77,4.77,0,0,0-.66-2.72A2.1,2.1,0,0,0,300.47,235.89Z"/><path d="M312.81,244.58a4.33,4.33,0,0,1-2.48.7,7.88,7.88,0,0,1-.82,0c-.28,0-.56-.06-.82-.09s-.5-.09-.71-.14a2.34,2.34,0,0,1-.49-.16,1,1,0,0,1-.16-.1.24.24,0,0,1-.07-.23l.12-1.26a.4.4,0,0,1,.06-.23s.11,0,.25,0a8.26,8.26,0,0,0,1.33.28,9.62,9.62,0,0,0,1.23.09,1.68,1.68,0,0,0,1.27-.43,1.35,1.35,0,0,0,.42-1,1.13,1.13,0,0,0-.21-.63,2.76,2.76,0,0,0-.72-.65l-1.09-.63c-.38-.22-.74-.43-1.11-.63a3.21,3.21,0,0,1-1-1,2.34,2.34,0,0,1-.42-1.35,3.22,3.22,0,0,1,.29-1.41,2.91,2.91,0,0,1,.78-1,3.1,3.1,0,0,1,1.11-.58,4.86,4.86,0,0,1,1.33-.19c.25,0,.5,0,.77,0l.77.11a6.91,6.91,0,0,1,.68.16,1.46,1.46,0,0,1,.46.18c.07,0,.1.07.11.11a.82.82,0,0,1,0,.14l-.12,1.24c0,.15,0,.23-.1.25a.72.72,0,0,1-.29,0,8.26,8.26,0,0,0-.83-.26l-.57-.07a5.28,5.28,0,0,0-.75,0,1.45,1.45,0,0,0-1.13.37,1.27,1.27,0,0,0-.33.89,1,1,0,0,0,.37.66,4.22,4.22,0,0,0,.93.64c.4.2.78.4,1.12.6s.6.38.77.51a3.67,3.67,0,0,1,1,1.09,2.71,2.71,0,0,1,.35,1.43A3,3,0,0,1,312.81,244.58Z"/><path d="M324.48,240.1a.29.29,0,0,1-.09.23.29.29,0,0,1-.18.08h-6.39a3.54,3.54,0,0,0,.82,2.12,2.47,2.47,0,0,0,2,.83,7.44,7.44,0,0,0,1.45-.17,4.76,4.76,0,0,0,1.5-.57c.09-.05.15,0,.17,0a.62.62,0,0,1,0,.25v1.34a.49.49,0,0,1-.06.27.59.59,0,0,1-.23.2,4.69,4.69,0,0,1-1.37.45,9.42,9.42,0,0,1-1.6.13,4.51,4.51,0,0,1-3.64-1.45,6.37,6.37,0,0,1-1.23-4.24,7.85,7.85,0,0,1,.27-2.05,5.87,5.87,0,0,1,.82-1.81,4.22,4.22,0,0,1,1.41-1.28,4.05,4.05,0,0,1,2-.49,4.15,4.15,0,0,1,2,.45,3.9,3.9,0,0,1,1.35,1.2,5.24,5.24,0,0,1,.76,1.77,9.87,9.87,0,0,1,.23,2.16c0,.09,0,.19,0,.31S324.48,240.05,324.48,240.1Zm-4.25-4.27a1.89,1.89,0,0,0-.93.23,2.4,2.4,0,0,0-.7.6,3,3,0,0,0-.48.86,4.8,4.8,0,0,0-.26,1h4.45a3.52,3.52,0,0,0-.13-.86,3.31,3.31,0,0,0-.38-.86,2.27,2.27,0,0,0-.64-.67A1.59,1.59,0,0,0,320.23,235.83Z"/><path d="M335.08,243.5a4.76,4.76,0,0,1-1.67,1.33,5.18,5.18,0,0,1-2.2.45,5.1,5.1,0,0,1-2.19-.45,4.46,4.46,0,0,1-1.59-1.22,5.2,5.2,0,0,1-1-1.8,7.69,7.69,0,0,1,0-4.39,5.11,5.11,0,0,1,1-1.8,4.63,4.63,0,0,1,1.58-1.21,5.05,5.05,0,0,1,2.2-.45,5.12,5.12,0,0,1,2.2.45,4.67,4.67,0,0,1,1.59,1.21,5.11,5.11,0,0,1,1,1.8,7.48,7.48,0,0,1,.32,2.19,7.12,7.12,0,0,1-.31,2.15A5.5,5.5,0,0,1,335.08,243.5Zm-3.87-7.63a2.46,2.46,0,0,0-1.3.33,2.77,2.77,0,0,0-.91.86,4,4,0,0,0-.52,1.2,5.22,5.22,0,0,0-.18,1.35,5.11,5.11,0,0,0,.18,1.35,4.16,4.16,0,0,0,.52,1.22,2.8,2.8,0,0,0,.91.87,2.46,2.46,0,0,0,1.3.33,2.54,2.54,0,0,0,1.32-.33,2.77,2.77,0,0,0,.9-.87A4.16,4.16,0,0,0,334,241a5.08,5.08,0,0,0,0-2.68,4,4,0,0,0-.52-1.2,2.77,2.77,0,0,0-.9-.87A2.45,2.45,0,0,0,331.21,235.87Z"/><path d="M345.37,245a.2.2,0,0,1-.17-.09.31.31,0,0,1-.07-.18v-6.17a3.59,3.59,0,0,0-.43-2,1.56,1.56,0,0,0-1.37-.62,2.38,2.38,0,0,0-1.9.7,3.11,3.11,0,0,0-.61,2v6.08c0,.17-.08.25-.23.25H339a.21.21,0,0,1-.17-.09.3.3,0,0,1-.06-.18V237c0-.49,0-1,0-1.41s0-.81-.05-1.07.06-.25.27-.25h1.53c.15,0,.2,0,.18.15l0,.71a4.5,4.5,0,0,1,1.16-.8,4.08,4.08,0,0,1,4.42.76,4.64,4.64,0,0,1,1,3.18v6.48c0,.17-.08.25-.23.25Z"/><path d="M354.08,248a11,11,0,0,1-1.53-.11,7.18,7.18,0,0,1-1.5-.38,1.28,1.28,0,0,1-.24-.15.24.24,0,0,1-.07-.2l.1-1.57c0-.24.15-.31.39-.19a6,6,0,0,0,1.42.49,7,7,0,0,0,1.45.17,2.93,2.93,0,0,0,2-.66,2.42,2.42,0,0,0,.8-1.81,3.22,3.22,0,0,1-1.18.82,3.6,3.6,0,0,1-1.34.27,4.3,4.3,0,0,1-1.8-.38,4.19,4.19,0,0,1-1.44-1.05,4.7,4.7,0,0,1-.94-1.6,5.82,5.82,0,0,1-.34-2,6.54,6.54,0,0,1,1.15-4.25,4.08,4.08,0,0,1,3.31-1.38,3.64,3.64,0,0,1,.79.1,6.91,6.91,0,0,1,.77.25,6.23,6.23,0,0,1,.68.36,4,4,0,0,1,.54.44l0-.68a.32.32,0,0,1,0-.21s.1-.06.23-.06h1.53c.16,0,.24.1.24.29v8a5.94,5.94,0,0,1-1.28,4.06A4.75,4.75,0,0,1,354.08,248Zm.49-12.11a2.18,2.18,0,0,0-1.88.89,4.88,4.88,0,0,0-.65,2.83,4.11,4.11,0,0,0,.2,1.32,2.78,2.78,0,0,0,.53,1,2.37,2.37,0,0,0,.78.61,2,2,0,0,0,.92.22,2.29,2.29,0,0,0,1-.22,2.2,2.2,0,0,0,.81-.62,3,3,0,0,0,.56-1,4.15,4.15,0,0,0,.2-1.34,4.77,4.77,0,0,0-.66-2.72A2.1,2.1,0,0,0,354.57,235.89Z"/><path d="M274.9,179.42a18,18,0,0,1,4.39.49,12.2,12.2,0,0,1,3.41,1.36,6.93,6.93,0,0,1,2.23,2,4.6,4.6,0,0,1,.79,2.57,4.93,4.93,0,0,1-2.05,3.9,11.45,11.45,0,0,1-5.56,2.23v2.47q2.86-.11,5.61-.3c1.83-.13,3.6-.28,5.31-.44a1.24,1.24,0,0,1,.57,0,.49.49,0,0,1,.37.47l.3,2.72a.64.64,0,0,1-.18.59,1,1,0,0,1-.47.25c-2.34.29-4.79.53-7.36.69s-5.15.3-7.73.39-5.15.16-7.69.18-4.95,0-7.26,0a.67.67,0,0,1-.54-.22.77.77,0,0,1-.2-.52v-3c0-.46.25-.69.74-.69q3.12.09,6.37.12c2.18,0,4.4,0,6.67-.07v-2.48a12.82,12.82,0,0,1-6.25-2.17,5,5,0,0,1-2.34-4.1,4.52,4.52,0,0,1,.79-2.57,6.9,6.9,0,0,1,2.22-2,12.29,12.29,0,0,1,3.44-1.36A18.35,18.35,0,0,1,274.9,179.42Zm12.62-1.58a.75.75,0,0,1-.57.24H261.8a.68.68,0,0,1-.49-.27.82.82,0,0,1-.25-.57v-2.37a.68.68,0,0,1,.27-.49.81.81,0,0,1,.52-.25H287a.77.77,0,0,1,.57.22.7.7,0,0,1,.22.52v2.42A.8.8,0,0,1,287.52,177.84ZM298,208a5,5,0,0,1-1,2.94,7.9,7.9,0,0,1-2.89,2.34,18.44,18.44,0,0,1-4.79,1.56,39.9,39.9,0,0,1-13.44,0,18.53,18.53,0,0,1-4.8-1.56A8,8,0,0,1,268.2,211a5,5,0,0,1-1-2.94,4.81,4.81,0,0,1,1-2.87,7.81,7.81,0,0,1,2.89-2.3,19.37,19.37,0,0,1,4.8-1.53,39.9,39.9,0,0,1,13.44,0,19.29,19.29,0,0,1,4.79,1.53,7.73,7.73,0,0,1,2.89,2.3A4.81,4.81,0,0,1,298,208ZM281.2,172.2a.72.72,0,0,1-.57.25h-12.4a.87.87,0,0,1-.47-.2.63.63,0,0,1-.27-.54v-2.47a.63.63,0,0,1,.27-.54.8.8,0,0,1,.47-.2h12.4a.86.86,0,0,1,.79.79v2.37A.76.76,0,0,1,281.2,172.2Zm-6.3,11.07a8.05,8.05,0,0,0-3.83.77c-.94.51-1.41,1.13-1.41,1.85s.47,1.3,1.41,1.83a9.61,9.61,0,0,0,7.63,0c1-.53,1.43-1.14,1.43-1.83s-.47-1.34-1.43-1.85A8.06,8.06,0,0,0,274.9,183.27Zm7.71,21.54a28.44,28.44,0,0,0-4.5.3,16.05,16.05,0,0,0-3,.74,3.91,3.91,0,0,0-1.65,1,1.85,1.85,0,0,0-.5,1.19c0,.82.79,1.58,2.37,2.27a19.2,19.2,0,0,0,7.27,1,18.9,18.9,0,0,0,7.23-1c1.57-.69,2.35-1.45,2.35-2.27s-.78-1.54-2.35-2.23A18.9,18.9,0,0,0,282.61,204.81Zm14.52-4.94h-4.34a.74.74,0,0,1-.48-.17.59.59,0,0,1-.22-.47V168.89a.61.61,0,0,1,.22-.44.73.73,0,0,1,.48-.2h4.34c.46,0,.69.21.69.64v30.34C297.82,199.66,297.59,199.87,297.13,199.87Z"/><path d="M309,195.67a1.23,1.23,0,0,1-.67-.49l-2-2.32c-.36-.36-.5-.66-.42-.89a1.3,1.3,0,0,1,.62-.64,32.56,32.56,0,0,0,4.82-4,20.08,20.08,0,0,0,5.48-10.23,33.46,33.46,0,0,0,.67-7.06.78.78,0,0,1,.25-.59.67.67,0,0,1,.49-.25l4.35.2c.43,0,.64.24.64.74a40.21,40.21,0,0,1-.22,4.4c-.15,1.35-.36,2.65-.62,3.9a16.24,16.24,0,0,0,2.05,3.53,25.37,25.37,0,0,0,2.69,3,28.11,28.11,0,0,0,2.94,2.42,16.65,16.65,0,0,0,2.85,1.65c.55.23.65.63.29,1.19l-1.68,2.76a1.05,1.05,0,0,1-1.38.4,22.94,22.94,0,0,1-5.61-3.66,23.83,23.83,0,0,1-4.42-5.15,24.2,24.2,0,0,1-4.23,5.74,41.77,41.77,0,0,1-5.95,5C309.53,195.62,309.21,195.74,309,195.67Zm34.58,13.94a9.62,9.62,0,0,1-3.11,3,16.3,16.3,0,0,1-4.72,1.9,24.33,24.33,0,0,1-5.88.67,25.58,25.58,0,0,1-6.13-.67,15.49,15.49,0,0,1-4.62-1.87,8.78,8.78,0,0,1-2.91-2.94,7.47,7.47,0,0,1-1-3.86,7.23,7.23,0,0,1,1-3.78,9.15,9.15,0,0,1,2.91-2.94,15,15,0,0,1,4.62-1.9,26.1,26.1,0,0,1,6.13-.67,24.84,24.84,0,0,1,5.88.67,16.57,16.57,0,0,1,4.72,1.88,9.6,9.6,0,0,1,3.11,2.91,7.13,7.13,0,0,1,0,7.64Zm-5.48-5.81a5.63,5.63,0,0,0-1.95-1.53,11.28,11.28,0,0,0-2.84-.94,18,18,0,0,0-3.44-.32,14.16,14.16,0,0,0-6.4,1.24A3.94,3.94,0,0,0,321,206a3.29,3.29,0,0,0,.66,2.05,5.42,5.42,0,0,0,1.83,1.46,10.52,10.52,0,0,0,2.79.89,19.82,19.82,0,0,0,3.56.29,18.85,18.85,0,0,0,3.44-.29,11.69,11.69,0,0,0,2.84-.89,5.74,5.74,0,0,0,1.95-1.46,3.16,3.16,0,0,0,.72-2.05A3.44,3.44,0,0,0,338.07,203.8Zm-8.87-21.72v-3.5a.5.5,0,0,1,.22-.42.75.75,0,0,1,.47-.18h8.7v-9.09c0-.43.23-.64.69-.64h4.35a.72.72,0,0,1,.47.2.61.61,0,0,1,.22.44v26.24a.64.64,0,0,1-.22.49.68.68,0,0,1-.47.2h-4.35a.61.61,0,0,1-.69-.69V182.68h-8.7a.75.75,0,0,1-.47-.18A.5.5,0,0,1,329.2,182.08Z"/><polygon points="218.38 180.98 231.08 193.68 218.38 206.37 218.38 180.98"/><path class="cls-18" d="M58.32,51.84h578a17.6,17.6,0,0,1,17.6,17.6v56.84a0,0,0,0,1,0,0H40.73a0,0,0,0,1,0,0V69.44A17.6,17.6,0,0,1,58.32,51.84Z"/><path class="cls-18" d="M40.73,374.31H653.91a0,0,0,0,1,0,0v56.32a17.53,17.53,0,0,1-17.53,17.53H58.25a17.53,17.53,0,0,1-17.53-17.53V374.31A0,0,0,0,1,40.73,374.31Z"/><path d="M127.45,91.86a3.93,3.93,0,0,1-3.92-4.25V81.93a4.53,4.53,0,0,1,4.16-4.48h2.14a4.38,4.38,0,0,1,4.06,4.48v5.85a3.94,3.94,0,0,1-3.78,4.08Zm1.69-2.49a2.1,2.1,0,0,0,2-2.09V82.17a2.08,2.08,0,0,0-2-2h-.76a2.13,2.13,0,0,0-2.07,1.9v5.39a1.89,1.89,0,0,0,1.83,1.86Zm12.25,7h-3.33V89.72H135V86.94h3.06V84.47H135v-2.8h3.06V76.43h3.33Z"/><path d="M154.61,77.8V80h-1.43a4.19,4.19,0,0,1,.55,2.19v2.09a3.46,3.46,0,0,1-3.58,3.44h-2.21c-1.71,0-3.11-1.14-3.11-3.4V82.2a3.64,3.64,0,0,1,.69-2.19h-1.76V77.8h3.87V76.4h3.3v1.4ZM151,82.41c0-.78-.31-1.4-1.1-1.4h-1.09c-.78,0-1.19.62-1.19,1.4v1.66a1.08,1.08,0,0,0,1.24,1.19h.9A1.15,1.15,0,0,0,151,84Zm8.45,7.26a2.64,2.64,0,0,1,2.78,2.45v1.95a2.37,2.37,0,0,1-2.54,2.3h-9.22a2.81,2.81,0,0,1-2.61-2.28v-2c.26-1.71,2.26-2.45,3.28-2.45Zm-7.34,2.47c-.92,0-1.07.38-1.23.69l0,.62c.29.64.62.62,1.26.62h6.34c.55,0,1-.17,1-.62V93a1,1,0,0,0-1-.86ZM162.28,76.4V87.94h-2.71v-4h-1.76v4h-2.7V76.4h2.7v5.25h1.76V76.4Z"/><path d="M174.57,95.29h-2.09V91.71a8.94,8.94,0,0,1-5,1.85,15.49,15.49,0,0,1-3,0V91.66c3.08.61,7.15-.88,8-1.21V83.52h2.12Zm-5.81-11.46a1.84,1.84,0,0,1,1.9,1.91v1.9a1.84,1.84,0,0,1-2.06,1.91h-1.67a1.85,1.85,0,0,1-2-1.76V85.74a1.9,1.9,0,0,1,2-1.91Zm.21,2.28a.79.79,0,0,0-.81-.8h-.6a.85.85,0,0,0-.88.8v1.16a.85.85,0,0,0,.88.81h.6a.79.79,0,0,0,.81-.81Z"/><path d="M187,77.21v9.5H177v-9.5H180v2.61h3.89V77.21ZM178.4,91.38h10.78V90.29H178.4V88.37h14.08V93.5H181.42v.9h11.06v2.23H178.4Zm5.53-7.09v-2H180v2Zm11.3-.91H192.5v3.71h-3V76.38h3v4.2h2.73Z"/><path d="M203.83,80.91c-.1,1.43-.17,6.89,3.75,8.22v2.75a8.8,8.8,0,0,1-2.23-.85,6.23,6.23,0,0,1-3.09-3.49,6,6,0,0,1-3.11,3.58,7.84,7.84,0,0,1-2.23.76V89.13c3.91-1.33,3.75-6.79,3.65-8.22h-3.68V78.25h10.73v2.66Zm11.91,2.16v3.07h-3V96.39h-3.3V76.66h3.3v6.41Z"/><path d="M235,87.44h-7.62v2h6v2.25a10.47,10.47,0,0,1-.52,3,13.65,13.65,0,0,1-.48,1.28h-2.92a9.21,9.21,0,0,0,.93-2.7,6.7,6.7,0,0,0,.09-1.14H219V89.44h5.35v-2h-7.18V84.78h11.78a17.56,17.56,0,0,0,.81-3.65,11.85,11.85,0,0,0,.09-1.52h-10.7V76.88H233v2.49a28.29,28.29,0,0,1-1,5.41h3Z"/><path class="cls-19" d="M104.67,79.06c.18-.18.44-.33.51-.55s-.2-.37-.36-.52-.65-.47-.94-.74-.12-.36.16-.42a1,1,0,0,1,1.19.56l.72,1.28a1.1,1.1,0,0,0,1,.54,5.65,5.65,0,0,1,1.06.2c.25,0,.49.13.74.16.72.08,1,.36.88,1a1,1,0,0,1-1.24.83c-.43-.13-.89.63-1.31.44s-1-.42-1.16.06c-1,3.56-1.06-.83-1.46-1.2a8.2,8.2,0,0,1-.88-1,2.29,2.29,0,0,0-2.51-.91L98,79.51a2.53,2.53,0,0,0-1.41,1c-.38.48-.73,1-1.1,1.46a4.31,4.31,0,0,0-.88,2.56c0,.43-.1.86-.11,1.29a4.94,4.94,0,0,0,1.73,4.23,3.46,3.46,0,0,0,3.2.79,1.82,1.82,0,0,1,2.29,1.32,17.86,17.86,0,0,1,.72,3,12.16,12.16,0,0,1-.15,2.07,3.25,3.25,0,0,0,.09,1.08c.29.93.63,1.84,1,2.76a6.67,6.67,0,0,0,.29.74,1,1,0,0,0,1.44.66,7.24,7.24,0,0,0,3.76-2.71c.29-.4-1.71-10.17,4-9.77.12,0,.17-.17.25-.26a1.21,1.21,0,0,0,.1-1.86c-.16-.23-.34-.45-.48-.69a.6.6,0,0,1,.31-1,1.57,1.57,0,0,0,1-1.15,9.24,9.24,0,0,1,.29-.89c.11-.3.35-.35.56-.14a1.53,1.53,0,0,1,.49.8c.06,1.44.13,2.89,0,4.34a16.92,16.92,0,0,1-1.84,6.67,19.52,19.52,0,0,1-14.62,11,19.31,19.31,0,0,1-13.36-2.4c-.17-.1-.39-.25-.43-.42a10.05,10.05,0,0,1-.27-2c0-.72.58-1.14,1.1-1.54s1.15-.79,1.69-1.22a5.07,5.07,0,0,0,1.74-5.57,1.6,1.6,0,0,0-.78-1c-.5-.26-1-.56-1.5-.78A5,5,0,0,1,85,90.21a5.3,5.3,0,0,0-1.82-1.67C82.09,88,81,87.34,79.9,86.86a2.73,2.73,0,0,1-1.15-4.39c.68-.85,1.46-1.6,2.2-2.39.39-.43.8-.84,1.16-1.28a3,3,0,0,1,1.61-1.11,12.76,12.76,0,0,0,1.8-.76A2.34,2.34,0,0,0,87,74.73c0-.29.06-.59.1-.88a2.24,2.24,0,0,0-.28-1.49,2.13,2.13,0,0,1-.31-1.83,1,1,0,0,1,.44-.56,4,4,0,0,1,2.24-.41c.66.06.78.26.7.91s-.19,1.47-.23,2.21.08.74.69.63c.88-.15,1.76-.37,2.64-.57s2-.44,3-.69A3.39,3.39,0,0,0,98.35,70a1.14,1.14,0,0,0-.2-1.14c-.35-.5-.75-1-1.12-1.45,2.42-.65,10.86,3.1,12.26,5.49a2.16,2.16,0,0,1-1.46-.19c-1.09-.49-2.18-1-3.26-1.51a1.18,1.18,0,0,0-1,0c-.53.23-1.07.44-1.6.66-.76.3-.92.67-.62,1.43s.18.65-.29,1.14.6,2.18,1.24,2.59c.42.27.86.53,1.3.77s1.11.46.9,1.29Z"/><path class="cls-19" d="M75.67,85.69a5.73,5.73,0,0,1,1.41,2.61c.34,1.29.72,2.57.94,3.88a6,6,0,0,0,1.64,3.19,4,4,0,0,1,1.15,2.34,9.35,9.35,0,0,0,2.44,4.86,5.44,5.44,0,0,1,.39.55A19.44,19.44,0,0,1,75.67,85.69Z"/><path class="cls-20" d="M92.4,83.24c-1.18-.88-2-1.76-3.3-1.53-1.08.2-1.82,2-1.45,3.05.58,1.65,2.74,2.21,4.23,2A1.84,1.84,0,0,0,93.46,84C93.2,83.57,92.58,83.48,92.4,83.24Z"/><path class="cls-20" d="M94.21,79.78c-.52-.45-.88-1.21-1.56-1.24a1.65,1.65,0,0,0-1.45,2.11,3,3,0,0,0,2.85,1.9,1.22,1.22,0,0,0,1.06-1.83c-.19-.38-.37-.39-.61-.75C94.48,80,94.23,79.77,94.21,79.78Z"/><path class="cls-20" d="M94.81,79.18a7.13,7.13,0,0,0,1.16.45,1,1,0,0,0,1.25-1.31A2.5,2.5,0,0,0,95,76.62c-.79,0-1.33.28-1.25,1.07a2,2,0,0,0,.72,1.37S94.82,79.16,94.81,79.18Z"/><path class="cls-20" d="M99.22,75.89a5,5,0,0,0-.51-.27.83.83,0,0,0-1.2.92,1.9,1.9,0,0,0,1.3,1.57.83.83,0,0,0,1.12-1A2.13,2.13,0,0,0,99.22,75.89Z"/><path class="cls-20" d="M109.28,77.37a1.55,1.55,0,0,0,1,.65.63.63,0,0,0,.74-.56,1.53,1.53,0,0,0-1.16-1.56c-.56-.11-.95.4-.76,1A4.41,4.41,0,0,0,109.28,77.37Z"/><path class="cls-20" d="M116.86,87.39a21.32,21.32,0,1,1-21.14-21.5A21.34,21.34,0,0,1,116.86,87.39Zm-12.19-8.33-.19-.07c.21-.83-.39-1-.9-1.29s-.88-.5-1.3-.77c-2.23-1.75-1.55.36-2.51,1-.31.2-.2.14-.77.15-.29,0-.46-.19-.75-.27s-.68-.89-.74-1.28c-.21-1.43,0-1.51,1.45-1.43.82,0,1.5.32,2.08-.77.47-.49.53-.51.29-1.14a1.11,1.11,0,0,1,.61-1.43c.52-.21,1-.41,1.55-.63a1.31,1.31,0,0,1,1.08,0c1.08.52,2.17,1,3.26,1.51a2.16,2.16,0,0,0,1.46.19c-1.4-2.39-9.84-6.14-12.26-5.49.37.48.77,1,1.12,1.45a1.14,1.14,0,0,1,.2,1.14A3.39,3.39,0,0,1,96,72.05c-1,.25-2,.47-3,.69s-1.76.42-2.64.57c-.61.11-.73,0-.69-.63s.14-1.48.23-2.21,0-.85-.7-.91a4,4,0,0,0-2.24.41,1,1,0,0,0-.44.56,2.13,2.13,0,0,0,.31,1.83,2.24,2.24,0,0,1,.28,1.49c0,.29-.08.59-.1.88a2.34,2.34,0,0,1-1.45,2.2,12.76,12.76,0,0,1-1.8.76,3,3,0,0,0-1.61,1.11c-.36.44-.77.85-1.16,1.28-.74.79-1.52,1.54-2.2,2.39a2.73,2.73,0,0,0,1.15,4.39c1.09.47,2.13,1.07,3.18,1.63A5.53,5.53,0,0,1,85,90.21,5,5,0,0,0,87.07,92c.51.22,1,.52,1.5.78a1.6,1.6,0,0,1,.78,1,5.07,5.07,0,0,1-1.74,5.57c-.54.43-1.14.8-1.69,1.22s-1.1.82-1.1,1.54a10.05,10.05,0,0,0,.27,2c0,.17.26.32.43.42a19.21,19.21,0,0,0,13.28,2.41,20.39,20.39,0,0,0,14-9.77,17.43,17.43,0,0,0,2.53-7.92c.08-1.45,0-2.9,0-4.34a1.53,1.53,0,0,0-.49-.8c-.21-.21-.45-.16-.56.14a9.24,9.24,0,0,0-.29.89,1.57,1.57,0,0,1-1,1.15.6.6,0,0,0-.31,1c.14.24.32.46.48.69a1.21,1.21,0,0,1-.1,1.86l-.25.26c-.88,1-3-.86-1.83,3.5a10,10,0,0,1-1,2.94,11.87,11.87,0,0,0-.67,1.87,5.61,5.61,0,0,1-.52,1.46,7.24,7.24,0,0,1-3.76,2.71,1,1,0,0,1-1.44-.66,6.67,6.67,0,0,1-.29-.74c-.33-.92-.67-1.83-1-2.76a3.25,3.25,0,0,1-.09-1.08,12.16,12.16,0,0,0,.15-2.07,17.86,17.86,0,0,0-.72-3,1.82,1.82,0,0,0-2.29-1.32,3.46,3.46,0,0,1-3.2-.79,4.94,4.94,0,0,1-1.73-4.23c0-.43.1-.86.11-1.29A4.31,4.31,0,0,1,95.46,82c.37-.48.72-1,1.1-1.46a2.55,2.55,0,0,1,1.46-1,25,25,0,0,0,2.82-.64,2.31,2.31,0,0,1,2.75.84,8.2,8.2,0,0,0,.88,1c.36.33.34,1.46,1.12.54a1.31,1.31,0,0,1,1.53-.36h0a9.9,9.9,0,0,0,1.27.51,1,1,0,0,0,1.24-.83c.1-.62-.16-.9-.88-1-.25,0-.49-.11-.74-.16a5.65,5.65,0,0,0-1.06-.2,1.1,1.1,0,0,1-1-.54l-.72-1.28a1,1,0,0,0-1.19-.56c-.28.06-.39.21-.16.42s.64.48.94.74.4.4.36.52S104.85,78.88,104.67,79.06Zm-29,6.63a19.44,19.44,0,0,0,8,17.43,5.44,5.44,0,0,0-.39-.55,9.35,9.35,0,0,1-2.44-4.86,4,4,0,0,0-1.15-2.34A6,6,0,0,1,78,92.18c-.22-1.31-.6-2.59-.94-3.88A5.73,5.73,0,0,0,75.67,85.69Z"/><path d="M95.53,65.89a21.32,21.32,0,1,0,21.33,21.32A21.21,21.21,0,0,0,95.53,65.89Zm0,41.16a19.84,19.84,0,1,1,19.82-19.84A19.79,19.79,0,0,1,95.56,107.05Z"/><path d="M603.6,429.85a1.47,1.47,0,0,1-.19-.5q0-18.14,0-36.27v-.45h6.36v36.8c0,.14,0,.28,0,.42Z"/><path d="M499.16,392.63h4.26v37.22h-4.26Z"/><path d="M616.15,429.85V392.62h4.26v37.23Z"/><path d="M531.13,429.85c0-.22,0-.44,0-.65V392.63h4.19v.57q0,18,0,36.05a2.61,2.61,0,0,1-.14.6Z"/><path d="M558.84,429.85a2.38,2.38,0,0,1-.15-.55q0-18.07,0-36.13v-.54h4.2a3.93,3.93,0,0,1,.06.48v36.23a3,3,0,0,1-.09.51Z"/><path d="M569.49,429.85a1.68,1.68,0,0,1-.18-.5q0-18.14,0-36.27v-.45h4.27v.48q0,18.11,0,36.23a4.38,4.38,0,0,1,0,.51Z"/><path d="M578,429.85a1.68,1.68,0,0,1-.18-.5q0-18.14,0-36.27v-.45h4.26v36.71c0,.17,0,.34,0,.51Z"/><path d="M586.55,429.85a1.47,1.47,0,0,1-.19-.5q0-18.14,0-36.27v-.45h4.27v36.71a4.4,4.4,0,0,1,0,.51Z"/><path d="M592.94,429.85c-.07-.17-.21-.33-.21-.49q0-18.15,0-36.29v-.44h4.21a2.84,2.84,0,0,1,.05.42v36.38c0,.14,0,.28,0,.42Z"/><path d="M505.55,429.85c0-.22,0-.44,0-.65V392.62h2.15v37.23Z"/><path d="M611.89,429.85V392.62H614c0,.14,0,.29,0,.44q0,18.18,0,36.37c0,.14,0,.28,0,.42Z"/><path d="M512,429.85V392.62h2.11v.5q0,18.11,0,36.19a1.73,1.73,0,0,1-.21.54Z"/><path d="M522.6,429.85c0-.2,0-.41,0-.61V392.63h2.1v.49q0,18.09,0,36.18a2,2,0,0,1-.18.55Z"/><path d="M541.79,429.85c0-.2,0-.41,0-.61V392.62h2.09v.53q0,18.08,0,36.15a2.34,2.34,0,0,1-.14.55Z"/><path d="M546.05,429.85c0-.2,0-.41,0-.61V392.62h2.09v.53q0,18.08,0,36.15a2.34,2.34,0,0,1-.14.55Z"/><path d="M550.31,429.85c0-.2,0-.41,0-.61V392.62h2.09V429.3a3,3,0,0,1-.14.55Z"/></g></svg>