<svg xmlns="http://www.w3.org/2000/svg" xmlns:xlink="http://www.w3.org/1999/xlink" viewBox="0 0 694.64 500"><defs><style>.cls-1{fill:#fff;}.cls-2{opacity:0.5;}.cls-3{fill:url(#무제_그라디언트_11);}.cls-4{fill:#2f9dd1;}.cls-5{fill:#b6c546;}.cls-6{fill:#66a830;}.cls-7{fill:#008200;}.cls-8{fill:#2daeb1;}.cls-9{fill:#588d2d;}.cls-10{fill:#456f41;}.cls-11{fill:#4c3725;}.cls-12{fill:#108a53;}.cls-13{fill:#47bf7d;}.cls-14{fill:#86817d;}.cls-15{fill:#9d9a95;}.cls-16{fill:#d2c9c0;}.cls-17,.cls-18,.cls-21,.cls-22,.cls-23,.cls-24,.cls-25,.cls-26,.cls-27,.cls-30,.cls-34{fill:none;}.cls-17,.cls-18,.cls-23,.cls-24{stroke:#888580;}.cls-17,.cls-18,.cls-21,.cls-22,.cls-23,.cls-24,.cls-25,.cls-26,.cls-27,.cls-30{stroke-linecap:round;}.cls-17,.cls-18,.cls-21,.cls-23,.cls-24,.cls-25,.cls-27,.cls-30,.cls-34{stroke-miterlimit:10;}.cls-17{stroke-width:0.46px;}.cls-18{stroke-width:0.46px;}.cls-19{fill:#888580;}.cls-20{fill:#c5bdb2;}.cls-21,.cls-22,.cls-25,.cls-26{stroke:#86817d;}.cls-21,.cls-22{stroke-width:1.2px;}.cls-22,.cls-26{stroke-linejoin:round;}.cls-23{stroke-width:0.37px;}.cls-24{stroke-width:0.37px;}.cls-25,.cls-26{stroke-width:0.98px;}.cls-27,.cls-30{stroke:#009a00;}.cls-27{stroke-width:1.85px;}.cls-28{fill:#f90;}.cls-29{fill:#009a00;}.cls-30{stroke-width:1.21px;}.cls-31{fill:#ffbf0b;}.cls-32{fill:#33333f;}.cls-33{fill:#fed7c6;}.cls-34{stroke:#fd5800;stroke-width:1.41px;}.cls-35{fill:#ebf700;}.cls-36{fill:#ceb54d;}.cls-37{fill:#9c6;}.cls-38{fill:#3f8cb9;}.cls-39{fill:#9bcc60;}</style><linearGradient id="무제_그라디언트_11" x1="347.32" y1="351.41" x2="347.32" y2="121.61" gradientUnits="userSpaceOnUse"><stop offset="0.26" stop-color="#fff"/><stop offset="0.5" stop-color="#f1fffa"/><stop offset="0.51" stop-color="#f0fffa"/><stop offset="0.58" stop-color="#e8fff8"/><stop offset="0.75" stop-color="#d6fef3"/><stop offset="0.93" stop-color="#c6fdfb"/><stop offset="1" stop-color="#bffcff"/></linearGradient></defs><g id="레이어_3" data-name="레이어 3"><rect class="cls-1" x="40.73" y="125.19" width="613.18" height="249.96"/><g class="cls-2"><rect class="cls-3" x="40.73" y="126.28" width="613.19" height="248.7"/><path class="cls-1" d="M461,214.76c-13.31,0-26.63,0-39.94,0-7,0-11.53-3.43-11.93-9.23-.42-6,3.31-10,10.5-10.52,3.33-.22,2.59-2.52,3-4.09,3.4-12.91,16.91-18.66,28.23-11.86A17.28,17.28,0,0,1,459,189.94c.53,2.08,1,2.81,3.61,2.26,5.68-1.2,9,.75,11.53,6.18.86,1.88,1.57,2.63,3.43,1.42a4.06,4.06,0,0,1,.88-.45c5-1.61,8.21,2.81,12,3.63s8.42-2.2,12.46,1.16a9.63,9.63,0,0,1,3.19,4.93c1.29,4.59.55,5.67-4.2,5.68C488.25,214.78,474.61,214.76,461,214.76Z"/><path class="cls-1" d="M590.61,168.35h29.22c5.15,0,8.44-2.51,8.73-6.76s-2.42-7.34-7.68-7.69c-2.44-.16-1.9-1.84-2.2-3-2.49-9.44-12.37-13.65-20.66-8.68a12.68,12.68,0,0,0-6,8c-.39,1.52-.76,2.05-2.64,1.65-4.15-.88-6.62.55-8.43,4.52-.63,1.38-1.15,1.93-2.51,1a3.09,3.09,0,0,0-.65-.34c-3.67-1.17-6,2.06-8.79,2.66s-6.17-1.61-9.12.85a7.14,7.14,0,0,0-2.34,3.61c-.94,3.35-.4,4.15,3.08,4.15Q575.63,168.37,590.61,168.35Z"/><path class="cls-1" d="M608.67,176.09h17.26c3,0,5-1.38,5.16-3.7s-1.43-4-4.54-4.21c-1.44-.09-1.12-1-1.3-1.65a8.26,8.26,0,0,0-12.2-4.75,7,7,0,0,0-3.52,4.36c-.23.83-.45,1.12-1.56.9a4,4,0,0,0-5,2.48c-.37.75-.68,1-1.48.57a1.88,1.88,0,0,0-.38-.18c-2.17-.64-3.55,1.13-5.2,1.45s-3.64-.88-5.38.47a3.82,3.82,0,0,0-1.38,2c-.56,1.83-.24,2.27,1.82,2.27Z"/><path class="cls-1" d="M410.77,222.38H388.88c-3.86,0-6.32-1.75-6.54-4.7s1.81-5.1,5.75-5.34c1.83-.11,1.42-1.28,1.65-2.09,1.87-6.56,9.27-9.48,15.47-6a8.92,8.92,0,0,1,4.47,5.53c.29,1.06.57,1.43,2,1.15,3.11-.61,4.95.38,6.32,3.14.47,1,.86,1.34,1.87.73a2.42,2.42,0,0,1,.49-.23c2.75-.82,4.5,1.43,6.59,1.84s4.61-1.11,6.83.59a5,5,0,0,1,1.75,2.51c.7,2.33.3,2.88-2.31,2.89Z"/><path class="cls-1" d="M106.13,182.17q-14.61,0-29.22,0c-5.15,0-8.44-2.52-8.74-6.76s2.43-7.35,7.69-7.7c2.43-.16,1.9-1.84,2.2-3,2.49-9.45,12.37-13.65,20.65-8.68a12.67,12.67,0,0,1,6,7.95c.38,1.53.76,2.06,2.64,1.66,4.15-.88,6.61.55,8.43,4.52.63,1.37,1.15,1.92,2.51,1a2.78,2.78,0,0,1,.64-.33c3.68-1.18,6,2.06,8.8,2.66s6.16-1.61,9.12.85a7,7,0,0,1,2.33,3.61c.95,3.35.41,4.14-3.07,4.15Q121.1,182.19,106.13,182.17Z"/><path class="cls-1" d="M141.5,179.65H124.25c-3,0-5-1.38-5.16-3.7s1.43-4,4.54-4.22c1.44-.09,1.12-1,1.3-1.64a8.26,8.26,0,0,1,12.2-4.75,7,7,0,0,1,3.52,4.35c.22.84.45,1.13,1.56.91,2.45-.48,3.9.3,5,2.48.37.75.67,1,1.48.57a1.66,1.66,0,0,1,.38-.18c2.17-.65,3.54,1.12,5.19,1.45s3.64-.88,5.38.47a3.8,3.8,0,0,1,1.38,2c.56,1.84.24,2.28-1.81,2.28Z"/><path class="cls-1" d="M220.19,238.22h21.88c3.86,0,6.32-1.75,6.55-4.69s-1.82-5.11-5.76-5.35c-1.82-.11-1.42-1.28-1.65-2.08-1.86-6.56-9.27-9.48-15.47-6a8.92,8.92,0,0,0-4.47,5.53c-.29,1.05-.57,1.42-2,1.15-3.1-.62-4.95.38-6.31,3.14-.47,1-.86,1.33-1.88.72a2,2,0,0,0-.49-.23c-2.75-.82-4.49,1.43-6.59,1.84s-4.61-1.11-6.82.6a4.89,4.89,0,0,0-1.75,2.5c-.71,2.33-.31,2.89,2.3,2.89Z"/><rect class="cls-4" x="40.73" y="319.11" width="613.19" height="56.03"/><path class="cls-5" d="M244.46,319.1s15.45,27.31,43.09,28.12,62.61.81,75.61,4.06,46.74,17.43,65,18.24,44.35-16.25,102.92-2.63c54.4,12.66,122.8-6.12,122.8-6.12V319.1Z"/><path class="cls-6" d="M356.87,324.06s84.95-54.39,95.73-75.94c0,0,.43-17.45,6.9-22.06s27.17-9.75,39.25-5.65c0,0,2.15-1,13.36,26.68,0,0-.43,12.32,37.09,34.38l64.69,45.39s-46.15,5.93-52.18,6.44-18.11-2.05-25.88,0-13.37,4.11-20.27,3.08-23.22-5.13-33.6-4.11-18.14,5.17-25,4.38-16-3.35-25-3.86-25-4-31.91-3.78-20.27-2.44-26.3-2.15S364.63,326.63,356.87,324.06Z"/><path class="cls-7" d="M512.11,247.09s2.52,5.13-1.44,5.13-9-2.61-13.46-2.56-6,3.5-11.83,2.56-5.06-7.11-8.76-5.13-2.11,1.34-6.86,2.45-7.39-5.53-10.29-2.84-8.69,5.47-8.35,3.92a10.7,10.7,0,0,0,1.1-2.81c.44-2.14,1.43-11.27,1.86-13.12s2.32-6.34,5.42-8.63,10.27-4.86,15.83-5.77a94.2,94.2,0,0,1,12.14-1.37c1.87,0,8.26.13,11.28,1.49s5.93,9.36,7.56,13S512.11,247.09,512.11,247.09Z"/><path class="cls-8" d="M465.4,232s3.81-4.56,12.76-5.78a14.39,14.39,0,0,1,9,.06c5.34,1.59,8.68,2.86,9.48,4.61s-1.6.16-3.07,1.11-2.4,3.65-3.6,3.65-3.08-4.29-5.75-4-5.47-.47-7.21.32-2.8,3.81-5.34,3.65-1.87-2.54-3.47-2.54S466.47,233.58,465.4,232Z"/><path class="cls-9" d="M384,327.59s36.36-30.88,37.78-31.73-25,33.08-25,33.08S387.07,329.93,384,327.59Z"/><path class="cls-9" d="M410.36,329.94s43.71-48.78,45.37-49.63-29.4,51.94-29.4,51.94S411.72,330.36,410.36,329.94Z"/><path class="cls-9" d="M441.88,334s18.6-40.6,20.55-40-5.51,42.68-5.51,42.68S451.11,336.66,441.88,334Z"/><path class="cls-9" d="M470.93,334.41s9.23-44.05,9.27-48.39,1-19.19,2.65-19.19S486,332.11,486,332.11,474.6,333.46,470.93,334.41Z"/><path class="cls-9" d="M501.33,333.77S496,308,497.68,307.69s3.12,10,4,13,4.42,13.91,4.42,13.91S504.88,334.34,501.33,333.77Z"/><path class="cls-9" d="M521.62,336.54s-24.33-58.23-21.21-58.71,31.7,56.48,31.7,56.48S525.5,336.49,521.62,336.54Z"/><path class="cls-9" d="M547,332.58S532.41,313,534.36,311.87s12.88,20.73,18.33,21.1Z"/><path class="cls-9" d="M585.4,330.47s-31.91-21.09-34.1-23.28-10.73-7-11.66-8-3.44-4.71-4.48-4.21,16.66,20.2,18.33,22.68,13.89,15,13.89,15Z"/><path class="cls-10" d="M333.65,329.07a8,8,0,0,0,2.29-.12c3.6-.72,13.86-3.68,14.61-14.27a17,17,0,0,0-2.79-13.35,9.1,9.1,0,0,1-1.62-5A23.2,23.2,0,0,0,338.85,280a8.17,8.17,0,0,0-7.12-2.29c-3.46.64-7.93,3.42-10.82,12.6a27.79,27.79,0,0,0-.51,12.17,8.38,8.38,0,0,1-.55,4.67C317.41,312.7,313.09,327.18,333.65,329.07Z"/><path class="cls-11" d="M343.78,302.11a1.42,1.42,0,0,0-1.94.54,32.37,32.37,0,0,1-6.09,7.67V293.88a1.43,1.43,0,1,0-2.85,0v21.45a32,32,0,0,1-6.1-7.68,1.42,1.42,0,0,0-2.47,1.41,34,34,0,0,0,8.57,10v16.08a1.43,1.43,0,1,0,2.85,0V314.07a34.18,34.18,0,0,0,8.57-10A1.42,1.42,0,0,0,343.78,302.11Z"/><path class="cls-12" d="M366.92,330.86a5.92,5.92,0,0,1-1.68-.09c-2.66-.53-10.23-2.71-10.79-10.53a12.52,12.52,0,0,1,2.06-9.85,6.64,6.64,0,0,0,1.19-3.7,17.1,17.1,0,0,1,5.39-12,6,6,0,0,1,5.25-1.69c2.55.47,5.85,2.53,8,9.3a20.58,20.58,0,0,1,.38,9,6.08,6.08,0,0,0,.4,3.45C378.91,318.78,382.1,329.47,366.92,330.86Z"/><path class="cls-11" d="M372.91,313a1,1,0,0,0-1.33.36,22,22,0,0,1-4.18,5.26V307.34a1,1,0,1,0-1.95,0V322a22.27,22.27,0,0,1-4.17-5.26,1,1,0,1,0-1.7,1,23.67,23.67,0,0,0,5.87,6.87v11a1,1,0,1,0,1.95,0V321.17a23.28,23.28,0,0,0,5.87-6.86A1,1,0,0,0,372.91,313Z"/><path class="cls-10" d="M433.75,337.93a8,8,0,0,1-2.29-.12c-3.6-.72-13.86-3.68-14.62-14.28a17,17,0,0,1,2.8-13.34,9.09,9.09,0,0,0,1.61-5,23.2,23.2,0,0,1,7.3-16.31,8.12,8.12,0,0,1,7.11-2.29c3.46.64,7.94,3.42,10.83,12.6a28,28,0,0,1,.51,12.17,8.29,8.29,0,0,0,.55,4.67C450,321.55,454.31,336,433.75,337.93Z"/><path class="cls-11" d="M423.62,311a1.42,1.42,0,0,1,1.94.53,32.46,32.46,0,0,0,6.09,7.68V302.74a1.43,1.43,0,1,1,2.85,0v21.45a32.5,32.5,0,0,0,6.1-7.68,1.42,1.42,0,0,1,1.94-.54,1.43,1.43,0,0,1,.53,1.95,34.32,34.32,0,0,1-8.57,10V344a1.43,1.43,0,0,1-2.85,0V322.93a34.33,34.33,0,0,1-8.57-10A1.42,1.42,0,0,1,423.62,311Z"/><path class="cls-13" d="M395.74,341.15a6,6,0,0,0,1.69-.09c2.66-.53,10.23-2.71,10.79-10.53a12.57,12.57,0,0,0-2.06-9.85A6.73,6.73,0,0,1,405,317a17.11,17.11,0,0,0-5.38-12,6,6,0,0,0-5.25-1.69c-2.56.47-5.86,2.52-8,9.3a20.58,20.58,0,0,0-.38,9,6.08,6.08,0,0,1-.41,3.45C383.75,329.06,380.56,339.76,395.74,341.15Z"/><path class="cls-11" d="M389.76,323.26a1,1,0,0,1,1.33.37,21.89,21.89,0,0,0,4.17,5.25V317.62a1,1,0,0,1,1.95,0v14.7a22.27,22.27,0,0,0,4.18-5.26,1,1,0,1,1,1.69,1,23.29,23.29,0,0,1-5.87,6.86v11a1,1,0,0,1-1.95,0V331.46a23.52,23.52,0,0,1-5.87-6.87A1,1,0,0,1,389.76,323.26Z"/><path class="cls-13" d="M303.08,322a4.7,4.7,0,0,0,1.35-.07c2.13-.42,8.18-2.17,8.63-8.42a10,10,0,0,0-1.65-7.88,5.31,5.31,0,0,1-1-3,13.72,13.72,0,0,0-4.31-9.63,4.82,4.82,0,0,0-4.2-1.35c-2,.38-4.68,2-6.39,7.44a16.49,16.49,0,0,0-.3,7.18,4.91,4.91,0,0,1-.33,2.76C293.49,312.35,290.94,320.9,303.08,322Z"/><path class="cls-11" d="M298.29,307.71a.78.78,0,0,1,1.07.29,17.35,17.35,0,0,0,3.34,4.2v-9a.78.78,0,0,1,1.56,0V315a17.72,17.72,0,0,0,3.34-4.21.77.77,0,0,1,1.06-.29.78.78,0,0,1,.29,1.06,18.69,18.69,0,0,1-4.69,5.49v8.81a.78.78,0,0,1-1.56,0V314.26a18.67,18.67,0,0,1-4.7-5.49A.78.78,0,0,1,298.29,307.71Z"/><ellipse class="cls-14" cx="565.77" cy="276.28" rx="5.77" ry="6.5"/><ellipse class="cls-14" cx="530.31" cy="276.28" rx="5.77" ry="6.5"/><path class="cls-15" d="M564.88,285.52c-5.81-7.31-9.8-8.47-12.37-7.68a13.63,13.63,0,0,1-7.85,0c-2.57-.79-6.55.37-12.36,7.68-8.73,11-7,35.24-5.28,48a14,14,0,0,0,10.29,11.72,67.11,67.11,0,0,0,9.74,1.83,14.41,14.41,0,0,0,3.08,0,67.6,67.6,0,0,0,9.74-1.83,14,14,0,0,0,10.28-11.72C571.83,320.76,573.6,296.51,564.88,285.52Z"/><path class="cls-16" d="M554.71,291.85h-13a12.24,12.24,0,0,1-12.1-14.09l1.89-12.41a12.24,12.24,0,0,1,12.1-10.4h9a12.24,12.24,0,0,1,12.07,10.18l2.13,12.4A12.25,12.25,0,0,1,554.71,291.85Z"/><path class="cls-15" d="M564.62,255c0-9.75-7.36-17.66-16.43-17.66S531.77,245.2,531.77,255Z"/><path class="cls-16" d="M563.56,300.09c-.24-.18-10-.28-10-.28a1.48,1.48,0,0,0-1.48,1.48v.51a1.48,1.48,0,1,1,0,3v.51a1.49,1.49,0,0,1,0,3v.5a1.49,1.49,0,0,1,0,3v.51a1.48,1.48,0,1,1,0,3v.51a1.48,1.48,0,0,0,1.48,1.48s9.81-.1,10-.28a5.88,5.88,0,0,0,4.11-5.62V305.7A5.87,5.87,0,0,0,563.56,300.09Z"/><line class="cls-17" x1="553.19" y1="313.7" x2="562.7" y2="313.7"/><line class="cls-17" x1="553.19" y1="310.23" x2="562.7" y2="310.23"/><line class="cls-17" x1="553.19" y1="306.75" x2="562.7" y2="306.75"/><line class="cls-17" x1="553.19" y1="303.28" x2="562.7" y2="303.28"/><path class="cls-16" d="M533.61,304.62c.24-.17,10-.27,10-.27a1.49,1.49,0,0,1,1.49,1.48v.51a1.48,1.48,0,1,0,0,3v.51a1.48,1.48,0,1,0,0,3v.51a1.49,1.49,0,1,0,0,3v.5a1.49,1.49,0,1,0,0,3v.51a1.49,1.49,0,0,1-1.49,1.48s-9.81-.11-10-.28a5.9,5.9,0,0,1-4.11-5.62v-5.57A5.91,5.91,0,0,1,533.61,304.62Z"/><line class="cls-18" x1="544.08" y1="318.24" x2="534.47" y2="318.24"/><line class="cls-18" x1="544.08" y1="314.76" x2="534.47" y2="314.76"/><line class="cls-18" x1="544.08" y1="311.29" x2="534.47" y2="311.29"/><line class="cls-18" x1="544.08" y1="307.82" x2="534.47" y2="307.82"/><rect class="cls-19" x="525.31" y="254.35" width="45.76" height="9.5" rx="4.75"/><path class="cls-20" d="M525.33,257.83v-.12c0-1.86,2-3.36,4.58-3.36h36.61c2.52,0,4.57,1.5,4.57,3.36v.12C571.09,259.75,523.65,259.27,525.33,257.83Z"/><circle class="cls-15" cx="555.21" cy="271.53" r="4.35"/><circle class="cls-15" cx="541.17" cy="271.53" r="4.35"/><ellipse class="cls-14" cx="548.19" cy="276.86" rx="6.76" ry="4.35"/><path class="cls-21" d="M538.64,281s10.27,4,19.1,0"/><path class="cls-22" d="M538.72,266.22a16.54,16.54,0,0,1,9.47.68,16.54,16.54,0,0,1,9.47-.68"/><ellipse class="cls-14" cx="608.19" cy="286.68" rx="4.68" ry="5.27"/><ellipse class="cls-14" cx="579.44" cy="286.68" rx="4.68" ry="5.27"/><path class="cls-15" d="M607.47,294.17c-4.71-5.93-7.94-6.87-10-6.23a10.94,10.94,0,0,1-6.36,0c-2.09-.64-5.32.3-10,6.23-7.08,8.91-5.64,28.58-4.28,38.91a11.41,11.41,0,0,0,8.34,9.51,55.22,55.22,0,0,0,7.9,1.47,10.45,10.45,0,0,0,2.5,0,55.14,55.14,0,0,0,7.89-1.47,11.41,11.41,0,0,0,8.35-9.51C613.11,322.75,614.54,303.08,607.47,294.17Z"/><path class="cls-16" d="M599.23,299.3H588.65a9.93,9.93,0,0,1-9.82-11.42l1.54-10.06a9.93,9.93,0,0,1,9.81-8.44h7.32a9.94,9.94,0,0,1,9.79,8.25L609,287.69A9.93,9.93,0,0,1,599.23,299.3Z"/><path class="cls-15" d="M607.26,269.38c0-7.91-6-14.32-13.32-14.32s-13.32,6.41-13.32,14.32Z"/><path class="cls-16" d="M606.4,306c-.19-.14-8.15-.22-8.15-.22a1.2,1.2,0,0,0-1.2,1.2v.41a1.2,1.2,0,1,1,0,2.4v.42a1.2,1.2,0,1,1,0,2.4V313a1.21,1.21,0,0,1,0,2.41v.41a1.2,1.2,0,1,1,0,2.4v.41a1.21,1.21,0,0,0,1.2,1.21s8-.09,8.15-.23a4.78,4.78,0,0,0,3.34-4.56v-4.51A4.78,4.78,0,0,0,606.4,306Z"/><line class="cls-23" x1="597.99" y1="317.02" x2="605.71" y2="317.02"/><line class="cls-23" x1="597.99" y1="314.2" x2="605.71" y2="314.2"/><line class="cls-23" x1="597.99" y1="311.39" x2="605.71" y2="311.39"/><line class="cls-23" x1="597.99" y1="308.57" x2="605.71" y2="308.57"/><path class="cls-16" d="M582.11,309.66c.2-.14,8.16-.22,8.16-.22a1.2,1.2,0,0,1,1.2,1.2v.41a1.2,1.2,0,0,0,0,2.4v.42a1.2,1.2,0,0,0,0,2.4v.41a1.21,1.21,0,0,0,0,2.41v.41a1.2,1.2,0,0,0,0,2.4v.41a1.21,1.21,0,0,1-1.2,1.21s-8-.09-8.16-.23a4.78,4.78,0,0,1-3.33-4.56v-4.51A4.78,4.78,0,0,1,582.11,309.66Z"/><line class="cls-24" x1="590.6" y1="320.7" x2="582.81" y2="320.7"/><line class="cls-24" x1="590.6" y1="317.88" x2="582.81" y2="317.88"/><line class="cls-24" x1="590.6" y1="315.07" x2="582.81" y2="315.07"/><line class="cls-24" x1="590.6" y1="312.25" x2="582.81" y2="312.25"/><rect class="cls-19" x="575.38" y="268.89" width="37.11" height="7.7" rx="3.85"/><path class="cls-20" d="M575.4,271.72v-.1c0-1.51,1.66-2.73,3.71-2.73H608.8c2.05,0,3.71,1.22,3.71,2.73v.1C612.51,273.28,574,272.89,575.4,271.72Z"/><circle class="cls-15" cx="599.63" cy="282.83" r="3.53"/><circle class="cls-15" cx="588.25" cy="282.83" r="3.53"/><ellipse class="cls-14" cx="593.94" cy="287.15" rx="5.48" ry="3.53"/><path class="cls-25" d="M586.19,290.46s8.33,3.22,15.49,0"/><path class="cls-26" d="M586.26,278.52a13.46,13.46,0,0,1,7.68.55,13.46,13.46,0,0,1,7.68-.55"/><line class="cls-27" x1="632.3" y1="312.09" x2="630.86" y2="321.25"/><path class="cls-28" d="M638.41,325.64l.51-1.26a1.92,1.92,0,0,0-1.06-2.49l-1.7-.68a1.91,1.91,0,0,0-2.49,1.06l-.18.45a1.92,1.92,0,0,0-1.06-2.5l-1.69-.68a1.92,1.92,0,0,0-2.49,1.06l-.26.66a2,2,0,0,0-.8-.62L625.5,320A1.92,1.92,0,0,0,623,321l-.69,1.7a1.92,1.92,0,0,0,.2,1.79,15.23,15.23,0,1,0,15.89,1.13Z"/><path class="cls-29" d="M631.83,316.05s4.71-6.38,12.7-1.31C644.53,314.74,641.54,321.22,631.83,316.05Z"/><line class="cls-30" x1="607.81" y1="322.84" x2="608.76" y2="328.84"/><path class="cls-31" d="M603.81,331.72l-.33-.83a1.25,1.25,0,0,1,.69-1.63l1.11-.45a1.26,1.26,0,0,1,1.63.7l.12.29a1.25,1.25,0,0,1,.7-1.63l1.11-.45a1.25,1.25,0,0,1,1.63.7l.17.43a1.27,1.27,0,0,1,.53-.41l1.11-.44a1.25,1.25,0,0,1,1.63.69l.45,1.11a1.26,1.26,0,0,1-.13,1.18,10,10,0,0,1-.87,18.13,10,10,0,0,1-9.55-17.39Z"/><path class="cls-29" d="M608.12,325.43s-3.09-4.18-8.33-.86C599.79,324.57,601.76,328.82,608.12,325.43Z"/><path class="cls-32" d="M131.51,309.75c-.18-1.7-3.14-1.88-3.59-2s-1.79,4.57-1.79,4.57a29.41,29.41,0,0,0-.71-3.14c-.27-.62-2-.89-1.4.81s0,8.13,0,8.13c-1,4.79-17.16,22.25-17.86,22.82a3.87,3.87,0,0,1-3.8,0c-1.5-.73-.69-3.07-.69-3.07H93.33s.8,2.34-.7,3.07a3.84,3.84,0,0,1-3.79,0c-.7-.57-16.86-18-17.86-22.82,0,0-.57-6.43,0-8.13s-1.13-1.43-1.4-.81a27.6,27.6,0,0,0-.72,3.14s-1.34-4.66-1.79-4.57-3.4.27-3.58,2a10.13,10.13,0,0,0,1.61,5.46c.72.9.9,2.51,1.34,3.41s4.74,13.29,16.48,30.62a13.11,13.11,0,0,1,.54,3.49c0,1.79.45,7.63.45,7.63h27.18s.45-5.84.45-7.63a13.34,13.34,0,0,1,.53-3.49c11.75-17.33,16-29.73,16.48-30.62s.63-2.51,1.34-3.41A10.14,10.14,0,0,0,131.51,309.75Z"/><circle class="cls-32" cx="97.5" cy="331.66" r="9.33"/><ellipse class="cls-33" cx="97.49" cy="331.66" rx="7.16" ry="6.95"/><ellipse class="cls-34" cx="97.49" cy="330.84" rx="7.78" ry="4.02"/><circle class="cls-32" cx="95.49" cy="330.84" r="0.66"/><circle class="cls-32" cx="99.51" cy="330.84" r="0.66"/><path class="cls-1" d="M120.26,356.42a1.83,1.83,0,0,1-.69,1.35,6.24,6.24,0,0,1-1.28.89,17.65,17.65,0,0,1-2.85,1.18,41,41,0,0,1-6,1.35,76.39,76.39,0,0,1-12.18.81,75.07,75.07,0,0,1-12.15-1.09,40.74,40.74,0,0,1-5.95-1.48,16.57,16.57,0,0,1-2.83-1.25,7,7,0,0,1-1.26-.91,1.84,1.84,0,0,1-.65-1.37,1.71,1.71,0,0,0,.83,1.16,6.22,6.22,0,0,0,1.31.67,18.3,18.3,0,0,0,2.85.83,55.72,55.72,0,0,0,5.9.94c4,.42,8,.63,12,.67s8-.06,12-.4a53.3,53.3,0,0,0,5.92-.8,18.38,18.38,0,0,0,2.87-.77,6.2,6.2,0,0,0,1.32-.64A1.72,1.72,0,0,0,120.26,356.42Z"/><path class="cls-1" d="M88.79,364c-1.61-.12-3.21-.32-4.81-.54s-3.19-.54-4.77-.88a36.28,36.28,0,0,1-4.67-1.39,12,12,0,0,1-2.18-1.1,3.5,3.5,0,0,1-.49-.37,3.05,3.05,0,0,1-.44-.44,1.48,1.48,0,0,1-.41-1.12c0,.84.81,1.35,1.46,1.73a12.54,12.54,0,0,0,2.19,1,41.28,41.28,0,0,0,4.64,1.26c1.56.39,3.15.67,4.73,1Z"/><path class="cls-1" d="M124.83,357.67a1.92,1.92,0,0,1-.51,1.35,7.37,7.37,0,0,1-1,1.06,15,15,0,0,1-2.45,1.64,26.25,26.25,0,0,1-5.49,2.1,37.75,37.75,0,0,1-5.78,1,40.86,40.86,0,0,1-5.85.13,55.5,55.5,0,0,0,11.51-1.58,28.34,28.34,0,0,0,5.45-2,15.21,15.21,0,0,0,2.47-1.5,7.49,7.49,0,0,0,1.07-1A2,2,0,0,0,124.83,357.67Z"/><path class="cls-1" d="M80.6,365.53a36.72,36.72,0,0,1-7-1.41,21,21,0,0,1-3.3-1.35,8.31,8.31,0,0,1-1.49-1,2,2,0,0,1-.78-1.57,2,2,0,0,0,.93,1.39,8,8,0,0,0,1.5.86,25.36,25.36,0,0,0,3.28,1.23c1.11.38,2.25.67,3.39,1Z"/><path class="cls-1" d="M126.76,359.59a1.56,1.56,0,0,1-.31,1.26,4.94,4.94,0,0,1-.91,1,13.49,13.49,0,0,1-2.21,1.4,22.46,22.46,0,0,1-4.9,1.72c.79-.37,1.58-.7,2.36-1.05s1.57-.69,2.32-1.09a16.65,16.65,0,0,0,2.21-1.27,5,5,0,0,0,1-.82A1.57,1.57,0,0,0,126.76,359.59Z"/><path class="cls-35" d="M499.14,301a3.86,3.86,0,0,0,1.38-1.74,3.76,3.76,0,1,0-7-2.73c0,.05,0,.11,0,.16a3.87,3.87,0,1,0-4.63,5.73l.3.08a3.75,3.75,0,1,0,5.72,4.5,3.58,3.58,0,0,0,1.32.89,3.75,3.75,0,0,0,3-6.89Z"/><path class="cls-36" d="M494.88,300.48a1.11,1.11,0,1,0-2.12.14l0,0a1.12,1.12,0,0,0-.7,0,1.14,1.14,0,1,0,.82,2.13l.08,0a1.15,1.15,0,0,0,.05.58,1.11,1.11,0,0,0,1.43.64,1.1,1.1,0,0,0,.66-1.37,1.12,1.12,0,0,0,.47-.07,1.11,1.11,0,0,0-.72-2.09Z"/><path class="cls-35" d="M486.53,275.56a5.57,5.57,0,1,0-10.18-3.14,2.13,2.13,0,0,0,0,.25,5.73,5.73,0,1,0-3.32,10.39c.16,0,.32,0,.47,0a5.56,5.56,0,1,0,10.32,3.13,5.39,5.39,0,0,0,2.3.52,5.56,5.56,0,0,0,.38-11.11Z"/><path class="cls-36" d="M480.34,277.08a1.6,1.6,0,0,0-.41-.87,1.64,1.64,0,1,0-2.43,2.2.12.12,0,0,0,.05,0,1.69,1.69,0,1,0,1.33,2.93.94.94,0,0,0,.1-.1,1.56,1.56,0,0,0,.38.77,1.64,1.64,0,0,0,2.49-2.13,1.68,1.68,0,0,0,.61-.34,1.64,1.64,0,0,0-2.12-2.51Z"/><path class="cls-35" d="M510.53,282.9a3.08,3.08,0,1,0-2.82-5.17l-.09.11a3.08,3.08,0,0,0-.9-1.7,3.17,3.17,0,0,0-4.42,4.54,1.56,1.56,0,0,0,.2.16,3,3,0,0,0-1.4.82,3.07,3.07,0,0,0,4.28,4.4,3,3,0,0,0,.71,1.1,3.08,3.08,0,0,0,4.44-4.26Z"/><path class="cls-36" d="M507.49,281.12a.89.89,0,0,0,.17-.51.91.91,0,1,0-1.81-.06v0a.91.91,0,0,0-.53-.2.94.94,0,0,0-1,.9.93.93,0,0,0,.9,1h.08a.86.86,0,0,0-.15.45.9.9,0,0,0,.87.94.91.91,0,0,0,.94-.82,1.13,1.13,0,0,0,.37.1.92.92,0,0,0,.94-.88A.9.9,0,0,0,507.49,281.12Z"/></g><path d="M105.68,205.73a1.16,1.16,0,0,1-1.72,0l-2.33-2.18c-.46-.46-.41-.95.15-1.48a33.51,33.51,0,0,0,5.49-6.52,35.32,35.32,0,0,0,3.65-7.61,36.87,36.87,0,0,0,1.71-7.34,56.58,56.58,0,0,0,.37-8.13.72.72,0,0,1,.22-.52.69.69,0,0,1,.47-.22l4.4.15a.57.57,0,0,1,.44.22.77.77,0,0,1,.2.52,65.35,65.35,0,0,1-.89,11.17,22.74,22.74,0,0,0,1.48,4.77,31.55,31.55,0,0,0,2.45,4.59,34.32,34.32,0,0,0,3,4.08,24,24,0,0,0,3.26,3.16c.52.4.56.92.1,1.58l-2.08,2.52a1,1,0,0,1-.67.4,1.35,1.35,0,0,1-.91-.3,21.64,21.64,0,0,1-2.59-2.37,32.89,32.89,0,0,1-2.6-3.09,38.08,38.08,0,0,1-2.27-3.41,20.32,20.32,0,0,1-1.63-3.38,34.91,34.91,0,0,1-2,4c-.76,1.28-1.55,2.51-2.39,3.68a33.11,33.11,0,0,1-2.62,3.21A28.59,28.59,0,0,1,105.68,205.73Zm34.74,10.42H136a.56.56,0,0,1-.64-.64V189.37H125.2a.68.68,0,0,1-.47-.2.57.57,0,0,1-.22-.44v-3.51a.52.52,0,0,1,.22-.42.8.8,0,0,1,.47-.17h10.18V169.9a.57.57,0,0,1,.64-.64h4.4a.57.57,0,0,1,.64.64v45.61A.56.56,0,0,1,140.42,216.15Z"/><path d="M191.11,192.76a.77.77,0,0,1-.49.22H171.94v3.65H181a4.17,4.17,0,0,1,2.7.62,3.11,3.11,0,0,1,.66,2.3v5.68a3.07,3.07,0,0,1-.66,2.32,4.25,4.25,0,0,1-2.7.6h-20.8c-.26,0-.43,0-.49.12a1,1,0,0,0-.1.57v1.53c0,.3,0,.47.1.52a1.15,1.15,0,0,0,.54.07h24.56a.79.79,0,0,1,.49.2.6.6,0,0,1,.25.5v3.21a.63.63,0,0,1-.25.47.73.73,0,0,1-.44.22H157.37a3.73,3.73,0,0,1-2.62-.69,3.14,3.14,0,0,1-.69-2.28V207a3.22,3.22,0,0,1,.66-2.27,3.65,3.65,0,0,1,2.6-.69h21a.94.94,0,0,0,.49-.08c.07,0,.1-.24.1-.56V202c0-.36,0-.58-.1-.64s-.25-.1-.54-.1H154.6a.7.7,0,0,1-.47-.2.57.57,0,0,1-.22-.44v-3.31a.58.58,0,0,1,.22-.45.7.7,0,0,1,.47-.2h11.66V193H147.58a.61.61,0,0,1-.69-.69v-3.07a.79.79,0,0,1,.2-.52.66.66,0,0,1,.49-.22h43a.89.89,0,0,1,.74.74v3.07A.63.63,0,0,1,191.11,192.76Zm-6.37-15.64a6.07,6.07,0,0,1-1,3.43,8.64,8.64,0,0,1-3,2.69,17,17,0,0,1-4.87,1.78,34.29,34.29,0,0,1-13.29,0,17,17,0,0,1-4.87-1.78,8.73,8.73,0,0,1-3-2.69,6.07,6.07,0,0,1-1-3.43,5.79,5.79,0,0,1,1-3.31,9,9,0,0,1,3-2.67,17.28,17.28,0,0,1,4.87-1.78,34.82,34.82,0,0,1,13.29,0,17.28,17.28,0,0,1,4.87,1.78,8.9,8.9,0,0,1,3,2.67A5.79,5.79,0,0,1,184.74,177.12ZM169.18,173a21.24,21.24,0,0,0-4,.34,15.43,15.43,0,0,0-3.14.92,6,6,0,0,0-2.07,1.36,2.39,2.39,0,0,0-.75,1.68,2.27,2.27,0,0,0,.75,1.6,6.23,6.23,0,0,0,2.07,1.34,15.46,15.46,0,0,0,3.14.91,22.63,22.63,0,0,0,7.93,0,15.29,15.29,0,0,0,3.16-.91,6.39,6.39,0,0,0,2.08-1.34,2.3,2.3,0,0,0,.74-1.6,2.42,2.42,0,0,0-.74-1.68,6.1,6.1,0,0,0-2.08-1.36,15.27,15.27,0,0,0-3.16-.92A21.37,21.37,0,0,0,169.18,173Z"/><path d="M129.71,244.9a4.34,4.34,0,0,1-1.29.92,4.63,4.63,0,0,1-1.66.46,6,6,0,0,1-1,0c-.38,0-.75-.07-1.11-.13s-.68-.12-1-.19a3.64,3.64,0,0,1-.63-.2,1.21,1.21,0,0,1-.35-.21s0-.14,0-.28l.14-1.44a.21.21,0,0,1,.1-.19c.05,0,.14,0,.29.06a6.24,6.24,0,0,0,.66.22,5.82,5.82,0,0,0,1,.21,7.47,7.47,0,0,0,1.06.11,3.28,3.28,0,0,0,1-.08,3,3,0,0,0,.91-.36,1.72,1.72,0,0,0,.55-.52,1.76,1.76,0,0,0,.28-.66,3.08,3.08,0,0,0,.08-.75,2,2,0,0,0-.47-1,4.74,4.74,0,0,0-1.37-1.16c-.73-.43-1.36-.83-1.89-1.19a9,9,0,0,1-1.31-1.1,3.94,3.94,0,0,1-.76-1.13,3.11,3.11,0,0,1-.25-1.28,3.62,3.62,0,0,1,.33-1.52,3.93,3.93,0,0,1,.94-1.27,4.54,4.54,0,0,1,1.41-.87,5.08,5.08,0,0,1,1.82-.32,9.38,9.38,0,0,1,1.66.13,6.29,6.29,0,0,1,1.11.3.57.57,0,0,1,.27.16.35.35,0,0,1,0,.23l-.26,1.24a.46.46,0,0,1-.12.29q-.09.07-.3,0l-.64-.18-.72-.15c-.25,0-.48-.06-.71-.08a3.92,3.92,0,0,0-.61,0,2.47,2.47,0,0,0-1.53.71,2.08,2.08,0,0,0-.43,1.35,1.8,1.8,0,0,0,.5,1.08,6.15,6.15,0,0,0,1.48,1.17q1.22.74,2,1.32a7.83,7.83,0,0,1,1.24,1.12,3.31,3.31,0,0,1,.64,1.08,3.7,3.7,0,0,1,.18,1.18A4.07,4.07,0,0,1,129.71,244.9Z"/><path d="M141.65,241.06a.29.29,0,0,1-.09.23.29.29,0,0,1-.19.08H135a3.48,3.48,0,0,0,.81,2.12,2.48,2.48,0,0,0,2,.83,6.76,6.76,0,0,0,1.46-.17,4.7,4.7,0,0,0,1.49-.57c.1-.05.15,0,.18,0a.87.87,0,0,1,0,.25v1.34a.49.49,0,0,1-.06.27.67.67,0,0,1-.23.2,4.5,4.5,0,0,1-1.37.45,10.68,10.68,0,0,1-1.6.13,4.49,4.49,0,0,1-3.64-1.45,6.37,6.37,0,0,1-1.24-4.24,7.92,7.92,0,0,1,.28-2.05,5.64,5.64,0,0,1,.82-1.81,4.22,4.22,0,0,1,1.41-1.28,4.05,4.05,0,0,1,2-.48,4.15,4.15,0,0,1,2,.44,3.9,3.9,0,0,1,1.35,1.2,5,5,0,0,1,.75,1.77,9.28,9.28,0,0,1,.24,2.16c0,.09,0,.19,0,.31S141.65,241,141.65,241.06Zm-4.25-4.27a1.85,1.85,0,0,0-.94.23,2.69,2.69,0,0,0-.7.6,3.22,3.22,0,0,0-.47.86,4.8,4.8,0,0,0-.26,1h4.44a3.48,3.48,0,0,0-.12-.86,3.31,3.31,0,0,0-.38-.86,2.27,2.27,0,0,0-.64-.67A1.59,1.59,0,0,0,137.4,236.79Z"/><path d="M152.24,244.45a4.51,4.51,0,0,1-1.66,1.33,5.52,5.52,0,0,1-4.39,0,4.29,4.29,0,0,1-1.59-1.22,5.2,5.2,0,0,1-1-1.8,7.69,7.69,0,0,1,0-4.39,5.11,5.11,0,0,1,1-1.8,4.54,4.54,0,0,1,1.58-1.21,5.05,5.05,0,0,1,2.2-.44,5.12,5.12,0,0,1,2.2.44,4.67,4.67,0,0,1,1.59,1.21,5.45,5.45,0,0,1,1,1.8,7.63,7.63,0,0,1,0,4.34A5.36,5.36,0,0,1,152.24,244.45Zm-3.86-7.62a2.52,2.52,0,0,0-1.31.33,2.74,2.74,0,0,0-.9.86,4.34,4.34,0,0,0-.53,1.2,5.67,5.67,0,0,0-.17,1.35,5.55,5.55,0,0,0,.17,1.35,4.47,4.47,0,0,0,.53,1.22,2.68,2.68,0,0,0,.9.87,2.77,2.77,0,0,0,2.62,0,2.68,2.68,0,0,0,.9-.87,4.18,4.18,0,0,0,.53-1.22,5.37,5.37,0,0,0,0-2.68,4.06,4.06,0,0,0-.53-1.2,2.77,2.77,0,0,0-.9-.87A2.41,2.41,0,0,0,148.38,236.83Z"/><path d="M162.63,245.93a.31.31,0,0,1-.17-.05.12.12,0,0,1,0-.14V245a3.33,3.33,0,0,1-1.24,1,3.62,3.62,0,0,1-1.52.33,3.48,3.48,0,0,1-2.82-1.11,4.77,4.77,0,0,1-.93-3.16v-6.5a.34.34,0,0,1,.07-.19.23.23,0,0,1,.17-.08h1.59a.22.22,0,0,1,.17.09.34.34,0,0,1,.08.2v6.17a3.37,3.37,0,0,0,.48,2.06,1.67,1.67,0,0,0,1.4.6,2.21,2.21,0,0,0,1.74-.8,3.52,3.52,0,0,0,.69-2.36v-5.69a.28.28,0,0,1,.07-.19.21.21,0,0,1,.16-.08h1.61a.2.2,0,0,1,.17.1.44.44,0,0,1,.07.21v7.92c0,.4,0,.79,0,1.18s0,.75,0,1.07c0,.17-.07.25-.21.25Z"/><path d="M167.6,246a.2.2,0,0,1-.22-.23v-15.3a.24.24,0,0,1,.07-.16.22.22,0,0,1,.17-.07h1.63a.24.24,0,0,1,.23.23v15.3a.24.24,0,0,1-.23.23Z"/><path d="M291.05,244a2.36,2.36,0,0,1-1.18.89,4.63,4.63,0,0,1-1.57.27h-.68a4.17,4.17,0,0,1-.62-.06c-.26-.07-.39-.19-.39-.37v-1.59c0-.06,0-.1,0-.12a.11.11,0,0,1,.09,0,.68.68,0,0,1,.2,0,2.77,2.77,0,0,0,.63.1l.59,0a1.18,1.18,0,0,0,1-.46,2.81,2.81,0,0,0,.36-1.66V230.59a.23.23,0,0,1,.08-.17.28.28,0,0,1,.17-.07h1.73a.31.31,0,0,1,.18.07.22.22,0,0,1,.07.17v10.32a9.72,9.72,0,0,1-.15,1.74A3.63,3.63,0,0,1,291.05,244Z"/><path d="M303.05,240.1a.29.29,0,0,1-.09.23.29.29,0,0,1-.18.08h-6.39a3.54,3.54,0,0,0,.82,2.12,2.47,2.47,0,0,0,2,.83,7.44,7.44,0,0,0,1.45-.17,4.76,4.76,0,0,0,1.5-.57c.09-.05.15,0,.17,0a.6.6,0,0,1,0,.25v1.34a.49.49,0,0,1-.06.27.59.59,0,0,1-.23.2,4.41,4.41,0,0,1-1.37.44,9.42,9.42,0,0,1-1.6.14,4.51,4.51,0,0,1-3.64-1.45,6.37,6.37,0,0,1-1.23-4.24,8,8,0,0,1,.27-2.06,5.92,5.92,0,0,1,.82-1.8,4.22,4.22,0,0,1,1.41-1.28,4.05,4.05,0,0,1,2-.49,4.15,4.15,0,0,1,2,.45,3.9,3.9,0,0,1,1.35,1.2,5.24,5.24,0,0,1,.76,1.77,9.84,9.84,0,0,1,.23,2.15c0,.09,0,.2,0,.32S303.05,240.05,303.05,240.1Zm-4.25-4.27a1.78,1.78,0,0,0-.93.23,2.26,2.26,0,0,0-.7.6,3.25,3.25,0,0,0-.48.86,4.8,4.8,0,0,0-.26,1h4.45a3.52,3.52,0,0,0-.13-.86,3.17,3.17,0,0,0-.38-.86,2.27,2.27,0,0,0-.64-.67A1.59,1.59,0,0,0,298.8,235.83Z"/><path d="M307.26,246.89a2,2,0,0,1-.82.86,2.56,2.56,0,0,1-1.22.29h-.63a1.63,1.63,0,0,1-.45-.09.27.27,0,0,1-.18-.27v-1.24q0-.18.24-.18a1.77,1.77,0,0,0,1-.05.61.61,0,0,0,.43-.49,3.88,3.88,0,0,0,.06-.69c0-.34,0-.72,0-1.12v-9.37c0-.17.08-.25.23-.25h1.63c.15,0,.22.08.22.25V244a12.4,12.4,0,0,1-.11,1.69A3.56,3.56,0,0,1,307.26,246.89Zm-.52-14.73a1.31,1.31,0,0,1-.94-.37,1.32,1.32,0,0,1,.94-2.25,1.3,1.3,0,0,1,.94.38,1.29,1.29,0,0,1,0,1.87A1.38,1.38,0,0,1,306.74,232.16Z"/><path d="M317.49,245a.28.28,0,0,1-.16-.05.12.12,0,0,1-.05-.14V244a3.37,3.37,0,0,1-1.23,1,3.7,3.7,0,0,1-1.53.33,3.46,3.46,0,0,1-2.81-1.11,4.77,4.77,0,0,1-.93-3.16v-6.5a.33.33,0,0,1,.06-.19.23.23,0,0,1,.17-.08h1.59a.22.22,0,0,1,.17.09.29.29,0,0,1,.08.2v6.17a3.37,3.37,0,0,0,.48,2.06,1.67,1.67,0,0,0,1.41.6,2.2,2.2,0,0,0,1.73-.8,3.53,3.53,0,0,0,.69-2.37v-5.68a.28.28,0,0,1,.07-.19.21.21,0,0,1,.16-.08H319a.19.19,0,0,1,.16.1.35.35,0,0,1,.07.21v7.92c0,.4,0,.79,0,1.18s0,.74,0,1.07c0,.17-.07.25-.22.25Z"/><path d="M261.31,203.33a1.09,1.09,0,0,1-.74.25.94.94,0,0,1-.74-.35l-2-2.37a1.1,1.1,0,0,1-.2-.76.9.9,0,0,1,.45-.67,34.24,34.24,0,0,0,5.41-4.7,36.54,36.54,0,0,0,4.25-5.46,37.14,37.14,0,0,0,3-5.7,25.94,25.94,0,0,0,1.63-5.44,2,2,0,0,0,.05-1c-.07-.18-.32-.27-.74-.27H261.26a.45.45,0,0,1-.39-.23.88.88,0,0,1-.15-.51V173c0-.49.19-.74.59-.74h13.14a5.29,5.29,0,0,1,3.07.69,2.33,2.33,0,0,1,.93,2c0,.3,0,.63,0,1a6.83,6.83,0,0,1-.12,1,39.51,39.51,0,0,1-3.76,10.88c.5.88,1.08,1.82,1.76,2.79s1.38,1.9,2.12,2.79,1.47,1.7,2.18,2.42a13.78,13.78,0,0,0,1.9,1.68c.36.27.53.52.52.77a1.41,1.41,0,0,1-.37.76l-1.88,2.33c-.46.59-1,.6-1.68,0a13,13,0,0,1-1.68-1.5q-.94-1-1.95-2.13t-2-2.49c-.64-.89-1.23-1.76-1.75-2.62a44.18,44.18,0,0,1-4.67,5.68A45.87,45.87,0,0,1,261.31,203.33Zm28.51,10.23h-4a.61.61,0,0,1-.69-.69V189.1h-5.88a.7.7,0,0,1-.47-.2.59.59,0,0,1-.23-.44v-3.41a.52.52,0,0,1,.23-.42.72.72,0,0,1,.47-.17h5.88V169.68c0-.42.23-.64.69-.64h4c.46,0,.69.22.69.64v43.19A.61.61,0,0,1,289.82,213.56Zm9.44,1.68H295a.56.56,0,0,1-.64-.64V168.89c0-.43.23-.64.69-.64h4.25a.56.56,0,0,1,.64.64V214.6A.56.56,0,0,1,299.26,215.24Z"/><path d="M348.67,197.94a.71.71,0,0,1-.5.25H329.54V214.1a.61.61,0,0,1-.69.69h-4.3a.61.61,0,0,1-.69-.69V198.19H305.14a.6.6,0,0,1-.5-.25.77.77,0,0,1-.2-.49v-3.21a.77.77,0,0,1,.2-.52.63.63,0,0,1,.5-.22h43a.86.86,0,0,1,.74.74v3.21A.69.69,0,0,1,348.67,197.94Zm-37.85-8.79a1.06,1.06,0,0,1-.79-.1.92.92,0,0,1-.45-.49l-1.13-3a.69.69,0,0,1,.14-.64,1.16,1.16,0,0,1,.5-.44c2.3-.57,4.56-1.2,6.77-1.91s4.26-1.46,6.18-2.27a50.78,50.78,0,0,0,5.16-2.52,23.53,23.53,0,0,0,3.83-2.64c.36-.3.56-.54.59-.72s-.23-.27-.79-.27H312.74a.57.57,0,0,1-.64-.64v-3.36c0-.4.22-.6.64-.6H336a6.65,6.65,0,0,1,3.09.62,1.83,1.83,0,0,1,1.16,1.61,3.49,3.49,0,0,1-.47,1.65,12.44,12.44,0,0,1-.87,1.41,23.85,23.85,0,0,1-6.22,5.49c.89.33,1.83.66,2.84,1s2,.68,3.06,1,2.07.63,3.09.89,2,.48,2.87.64a1,1,0,0,1,.54.37.68.68,0,0,1,.05.67l-1.19,3a.91.91,0,0,1-1.08.64c-1-.2-2.1-.48-3.34-.84s-2.52-.78-3.85-1.26-2.69-1-4-1.56-2.68-1.12-3.93-1.68a71,71,0,0,1-8.28,3.44Q315,188.16,310.82,189.15Z"/><polygon points="218.38 180.98 231.08 193.68 218.38 206.37 218.38 180.98"/><path class="cls-37" d="M58.32,51.84h578a17.6,17.6,0,0,1,17.6,17.6v56.84a0,0,0,0,1,0,0H40.73a0,0,0,0,1,0,0V69.44A17.6,17.6,0,0,1,58.32,51.84Z"/><path class="cls-37" d="M40.73,374.31H653.91a0,0,0,0,1,0,0v56.32a17.53,17.53,0,0,1-17.53,17.53H58.25a17.53,17.53,0,0,1-17.53-17.53V374.31A0,0,0,0,1,40.73,374.31Z"/><path d="M127.45,91.86a3.93,3.93,0,0,1-3.92-4.25V81.94a4.54,4.54,0,0,1,4.16-4.49h2.14a4.39,4.39,0,0,1,4.06,4.49v5.84a3.94,3.94,0,0,1-3.78,4.08Zm1.69-2.49a2.1,2.1,0,0,0,2-2.09V82.17a2.07,2.07,0,0,0-2-1.94h-.76a2.12,2.12,0,0,0-2.07,1.9v5.38a1.89,1.89,0,0,0,1.83,1.86Zm12.25,7h-3.33V89.72H135V86.94h3.06V84.48H135V81.67h3.06V76.43h3.33Z"/><path d="M154.61,77.8V80h-1.43a4.19,4.19,0,0,1,.55,2.19v2.09a3.46,3.46,0,0,1-3.58,3.44h-2.21c-1.71,0-3.11-1.14-3.11-3.4V82.2a3.64,3.64,0,0,1,.69-2.19h-1.76V77.8h3.87V76.4h3.3v1.4ZM151,82.41c0-.78-.31-1.4-1.1-1.4h-1.09c-.78,0-1.19.62-1.19,1.4v1.66c0,.79.41,1.19,1.24,1.19h.9A1.15,1.15,0,0,0,151,84Zm8.45,7.27a2.63,2.63,0,0,1,2.78,2.44v1.95a2.37,2.37,0,0,1-2.54,2.3h-9.22a2.8,2.8,0,0,1-2.61-2.28v-2c.26-1.71,2.26-2.44,3.28-2.44Zm-7.34,2.46c-.92,0-1.07.38-1.23.69l0,.62c.29.64.62.62,1.26.62h6.34c.55,0,1-.17,1-.62V93a1,1,0,0,0-1-.86ZM162.28,76.4V87.94h-2.71v-4h-1.76v4h-2.7V76.4h2.7v5.25h1.76V76.4Z"/><path d="M174.57,95.29h-2.09V91.71a8.94,8.94,0,0,1-5,1.85,16.33,16.33,0,0,1-3,0V91.66c3.08.61,7.15-.88,8-1.21V83.52h2.12Zm-5.81-11.46a1.84,1.84,0,0,1,1.9,1.91v1.91a1.83,1.83,0,0,1-2.06,1.9h-1.67a1.85,1.85,0,0,1-2-1.76V85.74a1.9,1.9,0,0,1,2-1.91Zm.21,2.28a.79.79,0,0,0-.81-.8h-.6a.85.85,0,0,0-.88.8v1.16a.85.85,0,0,0,.88.81h.6a.79.79,0,0,0,.81-.81Z"/><path d="M187,77.21v9.5H177v-9.5H180v2.61h3.89V77.21ZM178.4,91.38h10.78V90.29H178.4V88.37h14.08V93.5H181.42v.9h11.06v2.23H178.4Zm5.53-7.09v-2H180v2Zm11.3-.91H192.5v3.71h-3V76.38h3v4.2h2.73Z"/><path d="M203.83,80.91c-.1,1.43-.17,6.89,3.75,8.22v2.75a8.8,8.8,0,0,1-2.23-.85,6.23,6.23,0,0,1-3.09-3.49,6,6,0,0,1-3.11,3.58,7.84,7.84,0,0,1-2.23.76V89.13c3.91-1.33,3.75-6.79,3.65-8.22h-3.68V78.26h10.73v2.65Zm11.91,2.16v3.07h-3V96.39h-3.3V76.66h3.3v6.41Z"/><path d="M235,87.44h-7.62v2h6v2.25a10.47,10.47,0,0,1-.52,3,13.65,13.65,0,0,1-.48,1.28h-2.92a9.21,9.21,0,0,0,.93-2.7,6.7,6.7,0,0,0,.09-1.14H219V89.44h5.35v-2h-7.18V84.78h11.78a17.56,17.56,0,0,0,.81-3.65,11.85,11.85,0,0,0,.09-1.52h-10.7V76.88H233v2.49a28.29,28.29,0,0,1-1,5.41h3Z"/><path class="cls-38" d="M104.67,79.06c.18-.18.44-.33.51-.55s-.2-.37-.36-.52-.65-.47-.94-.74-.12-.36.16-.42a1,1,0,0,1,1.19.56l.72,1.28a1.1,1.1,0,0,0,1,.54,5.65,5.65,0,0,1,1.06.2c.25,0,.49.13.74.16.72.08,1,.36.88,1a1,1,0,0,1-1.24.83c-.43-.13-.89.63-1.31.44s-1-.42-1.16.06c-1,3.56-1.06-.83-1.46-1.2a8.2,8.2,0,0,1-.88-1,2.29,2.29,0,0,0-2.51-.91L98,79.51a2.53,2.53,0,0,0-1.41,1c-.38.48-.73,1-1.1,1.46a4.31,4.31,0,0,0-.88,2.56c0,.43-.1.86-.11,1.29a4.94,4.94,0,0,0,1.73,4.23,3.46,3.46,0,0,0,3.2.79,1.82,1.82,0,0,1,2.29,1.32,17.86,17.86,0,0,1,.72,3,12.16,12.16,0,0,1-.15,2.07,3.25,3.25,0,0,0,.09,1.08c.29.93.63,1.84,1,2.76a6.67,6.67,0,0,0,.29.74,1,1,0,0,0,1.44.66,7.24,7.24,0,0,0,3.76-2.71c.29-.4-1.71-10.17,4-9.77.12,0,.17-.17.25-.26a1.21,1.21,0,0,0,.1-1.86c-.16-.23-.34-.45-.48-.69a.6.6,0,0,1,.31-1,1.57,1.57,0,0,0,1-1.15,9.24,9.24,0,0,1,.29-.89c.11-.3.35-.35.56-.14a1.53,1.53,0,0,1,.49.8c.06,1.44.13,2.89,0,4.34a16.92,16.92,0,0,1-1.84,6.67,19.52,19.52,0,0,1-14.62,11,19.31,19.31,0,0,1-13.36-2.4c-.17-.1-.39-.25-.43-.42a10.05,10.05,0,0,1-.27-2c0-.72.58-1.14,1.1-1.54s1.15-.79,1.69-1.22a5.07,5.07,0,0,0,1.74-5.57,1.6,1.6,0,0,0-.78-1c-.5-.26-1-.56-1.5-.78A5,5,0,0,1,85,90.21a5.3,5.3,0,0,0-1.82-1.67C82.09,88,81,87.34,79.9,86.86a2.73,2.73,0,0,1-1.15-4.39c.68-.85,1.46-1.6,2.2-2.39.39-.43.8-.84,1.16-1.28a3,3,0,0,1,1.61-1.11,12.76,12.76,0,0,0,1.8-.76A2.34,2.34,0,0,0,87,74.73c0-.29.06-.59.1-.88a2.24,2.24,0,0,0-.28-1.49,2.13,2.13,0,0,1-.31-1.83,1,1,0,0,1,.44-.56,4,4,0,0,1,2.24-.41c.66.06.78.26.7.91s-.19,1.47-.23,2.21.08.74.69.63c.88-.15,1.76-.37,2.64-.57s2-.44,3-.69A3.39,3.39,0,0,0,98.35,70a1.14,1.14,0,0,0-.2-1.14c-.35-.5-.75-1-1.12-1.45,2.42-.65,10.86,3.1,12.26,5.49a2.16,2.16,0,0,1-1.46-.19c-1.09-.49-2.18-1-3.26-1.51a1.18,1.18,0,0,0-1,0c-.53.23-1.07.44-1.6.66-.76.3-.92.67-.62,1.43s.18.65-.29,1.14.6,2.18,1.24,2.59c.42.27.86.53,1.3.77s1.11.46.9,1.29Z"/><path class="cls-38" d="M75.67,85.69a5.73,5.73,0,0,1,1.41,2.61c.34,1.29.72,2.57.94,3.88a6,6,0,0,0,1.64,3.19,4,4,0,0,1,1.15,2.34,9.35,9.35,0,0,0,2.44,4.86,5.44,5.44,0,0,1,.39.55A19.44,19.44,0,0,1,75.67,85.69Z"/><path class="cls-39" d="M92.4,83.24c-1.18-.88-2-1.76-3.3-1.53-1.08.2-1.82,2-1.45,3.05.58,1.65,2.74,2.21,4.23,2A1.84,1.84,0,0,0,93.46,84C93.2,83.57,92.58,83.48,92.4,83.24Z"/><path class="cls-39" d="M94.21,79.78c-.52-.45-.88-1.21-1.56-1.24a1.65,1.65,0,0,0-1.45,2.11,3,3,0,0,0,2.85,1.9,1.22,1.22,0,0,0,1.06-1.83c-.19-.38-.37-.39-.61-.75C94.48,80,94.23,79.77,94.21,79.78Z"/><path class="cls-39" d="M94.81,79.18a7.13,7.13,0,0,0,1.16.45,1,1,0,0,0,1.25-1.31A2.5,2.5,0,0,0,95,76.62c-.79,0-1.33.28-1.25,1.07a2,2,0,0,0,.72,1.37S94.82,79.16,94.81,79.18Z"/><path class="cls-39" d="M99.22,75.89a5,5,0,0,0-.51-.27.83.83,0,0,0-1.2.92,1.9,1.9,0,0,0,1.3,1.57.83.83,0,0,0,1.12-1A2.13,2.13,0,0,0,99.22,75.89Z"/><path class="cls-39" d="M109.28,77.37a1.55,1.55,0,0,0,1,.65.63.63,0,0,0,.74-.56,1.53,1.53,0,0,0-1.16-1.56c-.56-.11-.95.4-.76,1A4.41,4.41,0,0,0,109.28,77.37Z"/><path class="cls-39" d="M116.86,87.39a21.32,21.32,0,1,1-21.14-21.5A21.34,21.34,0,0,1,116.86,87.39Zm-12.19-8.33-.19-.07c.21-.83-.39-1-.9-1.29s-.88-.5-1.3-.77c-2.23-1.75-1.55.36-2.51,1-.31.2-.2.14-.77.15-.29,0-.46-.19-.75-.27s-.68-.89-.74-1.28c-.21-1.43,0-1.51,1.45-1.43.82,0,1.5.32,2.08-.77.47-.49.53-.51.29-1.14a1.11,1.11,0,0,1,.61-1.43c.52-.21,1-.41,1.55-.63a1.31,1.31,0,0,1,1.08,0c1.08.52,2.17,1,3.26,1.51a2.16,2.16,0,0,0,1.46.19c-1.4-2.39-9.84-6.14-12.26-5.49.37.48.77,1,1.12,1.45a1.14,1.14,0,0,1,.2,1.14A3.39,3.39,0,0,1,96,72.05c-1,.25-2,.47-3,.69s-1.76.42-2.64.57c-.61.11-.73,0-.69-.63s.14-1.48.23-2.21,0-.85-.7-.91a4,4,0,0,0-2.24.41,1,1,0,0,0-.44.56,2.13,2.13,0,0,0,.31,1.83,2.24,2.24,0,0,1,.28,1.49c0,.29-.08.59-.1.88a2.34,2.34,0,0,1-1.45,2.2,12.76,12.76,0,0,1-1.8.76,3,3,0,0,0-1.61,1.11c-.36.44-.77.85-1.16,1.28-.74.79-1.52,1.54-2.2,2.39a2.73,2.73,0,0,0,1.15,4.39c1.09.47,2.13,1.07,3.18,1.63A5.53,5.53,0,0,1,85,90.21,5,5,0,0,0,87.07,92c.51.22,1,.52,1.5.78a1.6,1.6,0,0,1,.78,1,5.07,5.07,0,0,1-1.74,5.57c-.54.43-1.14.8-1.69,1.22s-1.1.82-1.1,1.54a10.05,10.05,0,0,0,.27,2c0,.17.26.32.43.42a19.21,19.21,0,0,0,13.28,2.41,20.39,20.39,0,0,0,14-9.77,17.43,17.43,0,0,0,2.53-7.92c.08-1.45,0-2.9,0-4.34a1.53,1.53,0,0,0-.49-.8c-.21-.21-.45-.16-.56.14a9.24,9.24,0,0,0-.29.89,1.57,1.57,0,0,1-1,1.15.6.6,0,0,0-.31,1c.14.24.32.46.48.69a1.21,1.21,0,0,1-.1,1.86l-.25.26c-.88,1-3-.86-1.83,3.5a10,10,0,0,1-1,2.94,11.87,11.87,0,0,0-.67,1.87,5.61,5.61,0,0,1-.52,1.46,7.24,7.24,0,0,1-3.76,2.71,1,1,0,0,1-1.44-.66,6.67,6.67,0,0,1-.29-.74c-.33-.92-.67-1.83-1-2.76a3.25,3.25,0,0,1-.09-1.08,12.16,12.16,0,0,0,.15-2.07,17.86,17.86,0,0,0-.72-3,1.82,1.82,0,0,0-2.29-1.32,3.46,3.46,0,0,1-3.2-.79,4.94,4.94,0,0,1-1.73-4.23c0-.43.1-.86.11-1.29A4.31,4.31,0,0,1,95.46,82c.37-.48.72-1,1.1-1.46a2.55,2.55,0,0,1,1.46-1,25,25,0,0,0,2.82-.64,2.31,2.31,0,0,1,2.75.84,8.2,8.2,0,0,0,.88,1c.36.33.34,1.46,1.12.54a1.31,1.31,0,0,1,1.53-.36h0a9.9,9.9,0,0,0,1.27.51,1,1,0,0,0,1.24-.83c.1-.62-.16-.9-.88-1-.25,0-.49-.11-.74-.16a5.65,5.65,0,0,0-1.06-.2,1.1,1.1,0,0,1-1-.54l-.72-1.28a1,1,0,0,0-1.19-.56c-.28.06-.39.21-.16.42s.64.48.94.74.4.4.36.52S104.85,78.88,104.67,79.06Zm-29,6.63a19.44,19.44,0,0,0,8,17.43,5.44,5.44,0,0,0-.39-.55,9.35,9.35,0,0,1-2.44-4.86,4,4,0,0,0-1.15-2.34A6,6,0,0,1,78,92.18c-.22-1.31-.6-2.59-.94-3.88A5.73,5.73,0,0,0,75.67,85.69Z"/><path d="M95.53,65.89a21.32,21.32,0,1,0,21.33,21.32A21.21,21.21,0,0,0,95.53,65.89Zm0,41.16a19.84,19.84,0,1,1,19.82-19.84A19.79,19.79,0,0,1,95.56,107.05Z"/><path d="M603.6,429.85a1.47,1.47,0,0,1-.19-.5q0-18.14,0-36.27v-.45h6.36v36.8c0,.14,0,.28,0,.42Z"/><path d="M499.16,392.63h4.26v37.22h-4.26Z"/><path d="M616.15,429.85V392.62h4.26v37.23Z"/><path d="M531.13,429.85c0-.22,0-.44,0-.65V392.63h4.19v.57q0,18,0,36.05a2.61,2.61,0,0,1-.14.6Z"/><path d="M558.84,429.85a2.38,2.38,0,0,1-.15-.55q0-18.07,0-36.13v-.54h4.2a3.93,3.93,0,0,1,.06.48v36.23a3,3,0,0,1-.09.51Z"/><path d="M569.49,429.85a1.68,1.68,0,0,1-.18-.5q0-18.14,0-36.27v-.45h4.27v.48q0,18.11,0,36.23a4.38,4.38,0,0,1,0,.51Z"/><path d="M578,429.85a1.68,1.68,0,0,1-.18-.5q0-18.14,0-36.27v-.45h4.26v36.71c0,.17,0,.34,0,.51Z"/><path d="M586.55,429.85a1.47,1.47,0,0,1-.19-.5q0-18.14,0-36.27v-.45h4.27v36.71a4.4,4.4,0,0,1,0,.51Z"/><path d="M592.94,429.85c-.07-.17-.21-.33-.21-.49q0-18.15,0-36.29v-.44h4.21a2.84,2.84,0,0,1,.05.42v36.38c0,.14,0,.28,0,.42Z"/><path d="M505.55,429.85c0-.22,0-.44,0-.65V392.62h2.15v37.23Z"/><path d="M611.89,429.85V392.62H614c0,.14,0,.29,0,.44q0,18.18,0,36.37c0,.14,0,.28,0,.42Z"/><path d="M512,429.85V392.62h2.11v.5q0,18.11,0,36.19a1.73,1.73,0,0,1-.21.54Z"/><path d="M522.6,429.85c0-.2,0-.41,0-.61V392.63h2.1v.49q0,18.09,0,36.18a2,2,0,0,1-.18.55Z"/><path d="M541.79,429.85c0-.2,0-.41,0-.61V392.62h2.09v.53q0,18.08,0,36.15a2.34,2.34,0,0,1-.14.55Z"/><path d="M546.05,429.85c0-.2,0-.41,0-.61V392.62h2.09v.53q0,18.08,0,36.15a2.34,2.34,0,0,1-.14.55Z"/><path d="M550.31,429.85c0-.2,0-.41,0-.61V392.62h2.09V429.3a3,3,0,0,1-.14.55Z"/></g></svg>