<svg xmlns="http://www.w3.org/2000/svg" xmlns:xlink="http://www.w3.org/1999/xlink" viewBox="0 0 694.64 500"><defs><style>.cls-1{fill:#fff;}.cls-2{opacity:0.5;}.cls-3{fill:url(#무제_그라디언트_11);}.cls-4{fill:#f5b7c9;}.cls-5{fill:#654e25;}.cls-6{fill:#ff989e;}.cls-7{fill:#ffcbda;}.cls-8{fill:#b7ed8d;}.cls-9{fill:#caaf92;}.cls-10{fill:#5371a7;}.cls-11{fill:#545454;}.cls-12{fill:#757f89;}.cls-13{fill:#4c5260;}.cls-14{fill:#717171;}.cls-15{fill:#c1594c;}.cls-16{fill:#feffff;}.cls-17{fill:#464346;}.cls-18{fill:#f09fc3;}.cls-19{fill:#a8a8a8;}.cls-20{fill:#7d7978;}.cls-21{fill:#423628;}.cls-22{fill:#f9e2d0;}.cls-23{fill:#ffb7b8;}.cls-24{fill:#352822;}.cls-25{fill:none;stroke:#e6e6e6;stroke-linecap:round;stroke-miterlimit:10;stroke-width:0.18px;}.cls-26{fill:#fec6c5;}.cls-27{fill:#f2f2f2;}.cls-28{fill:#00ccb2;}.cls-29{fill:#068e7b;}.cls-30{fill:#fae58a;}.cls-31{fill:#9c6;}.cls-32{fill:#3f8cb9;}.cls-33{fill:#9bcc60;}</style><linearGradient id="무제_그라디언트_11" x1="347.29" y1="350.95" x2="347.29" y2="121.15" gradientUnits="userSpaceOnUse"><stop offset="0.26" stop-color="#fff"/><stop offset="0.5" stop-color="#f1fffa"/><stop offset="0.51" stop-color="#f0fffa"/><stop offset="0.58" stop-color="#e8fff8"/><stop offset="0.75" stop-color="#d6fef3"/><stop offset="0.93" stop-color="#c6fdfb"/><stop offset="1" stop-color="#bffcff"/></linearGradient></defs><g id="레이어_3" data-name="레이어 3"><rect class="cls-1" x="40.73" y="125.19" width="613.18" height="249.96"/><g class="cls-2"><rect class="cls-3" x="40.7" y="125.82" width="613.19" height="248.7"/><path class="cls-4" d="M653.88,267.09a14.6,14.6,0,0,0-3.76-.85c-3.68-.39-15.77.39-18.43,1.88-8.83,4.94-6.84,10.95-6.9,13.85,0,1.46-.55,5.24-2,6.44-6.63,5.52,0,11.12,0,11.12,6.85,6.48,16.21,7.5,21.33,8.07a19.71,19.71,0,0,0,3.26.1c2.35-.12,4.51-.31,6.49-.54Z"/><path class="cls-5" d="M653.88,301.82a34,34,0,0,1-5.22,4.14v33.75a1.61,1.61,0,0,1-3.16,0V301.39a34,34,0,0,1-9.5-9.13,1.18,1.18,0,0,1,.59-1.77,1.75,1.75,0,0,1,2.15.49,31.5,31.5,0,0,0,6.76,7V283a1.61,1.61,0,0,1,3.16,0v19.56a32.84,32.84,0,0,0,5.29-5.06Z"/><path class="cls-6" d="M593.29,314.53a21.72,21.72,0,0,0,3.61-.11c5.69-.64,16.07-1.77,23.68-8.95,0,0,7.36-6.22,0-12.35-1.6-1.33-2.17-5.53-2.21-7.14-.06-3.23,2.13-9.89-7.66-15.38-3-1.65-16.37-2.51-20.45-2.09-5.12.54-8.65,2.62-15.63,9.76a17.53,17.53,0,0,1-2.77,2.3c-2.19,1.47-6.31,5-5,9.74.4,1.41-.65,3.88-1.67,5.2C561.38,300.46,560.79,312.84,593.29,314.53Z"/><path class="cls-5" d="M582,295.43a2,2,0,0,1,2.39.54,34.5,34.5,0,0,0,7.5,7.76V287.1a1.78,1.78,0,0,1,3.5,0v21.7a34.36,34.36,0,0,0,7.5-7.77,2,2,0,0,1,2.39-.54,1.32,1.32,0,0,1,.66,2,37.84,37.84,0,0,1-10.55,10.13v26.33a1.78,1.78,0,0,1-3.5,0V307.53a37.63,37.63,0,0,1-10.54-10.14A1.31,1.31,0,0,1,582,295.43Z"/><path class="cls-7" d="M627.82,320.25a17.53,17.53,0,0,1-2.81-.08c-4.43-.5-12.52-1.38-18.45-7,0,0-5.72-4.84,0-9.61,1.25-1,1.7-4.31,1.72-5.56.06-2.51-1.66-7.7,6-12,2.3-1.29,12.75-2,15.93-1.63,4,.41,6.73,2,12.17,7.6a13.35,13.35,0,0,0,2.15,1.79c1.71,1.14,4.91,3.86,3.85,7.58-.31,1.1.51,3,1.31,4.05C652.66,309.3,653.12,318.93,627.82,320.25Z"/><path class="cls-5" d="M618.49,305.38a1.51,1.51,0,0,1,1.86.42,26.86,26.86,0,0,0,5.83,6V298.89a1.39,1.39,0,0,1,2.73,0v16.9a27,27,0,0,0,5.84-6.05,1.53,1.53,0,0,1,1.86-.42,1,1,0,0,1,.51,1.53,29.3,29.3,0,0,1-8.21,7.89v20.5a1.39,1.39,0,0,1-2.73,0V314.8a29.44,29.44,0,0,1-8.2-7.89A1,1,0,0,1,618.49,305.38Z"/><path class="cls-7" d="M559.7,320.25a17.53,17.53,0,0,1-2.81-.08c-4.43-.5-12.52-1.38-18.44-7,0,0-5.73-4.84,0-9.61,1.24-1,1.69-4.31,1.72-5.56.05-2.51-1.66-7.7,6-12,2.3-1.29,12.75-2,15.93-1.63,4,.41,6.73,2,12.17,7.6a13.8,13.8,0,0,0,2.15,1.79c1.71,1.14,4.91,3.86,3.86,7.58-.32,1.1.51,3,1.3,4.05C584.54,309.3,585,318.93,559.7,320.25Z"/><path class="cls-5" d="M550.37,305.38a1.51,1.51,0,0,1,1.86.42,26.66,26.66,0,0,0,5.84,6V298.89a1.39,1.39,0,0,1,2.73,0v16.9a26.94,26.94,0,0,0,5.83-6.05,1.53,1.53,0,0,1,1.86-.42,1,1,0,0,1,.51,1.53,29.44,29.44,0,0,1-8.2,7.89v20.5a1.39,1.39,0,0,1-2.73,0V314.8a29.3,29.3,0,0,1-8.21-7.89A1,1,0,0,1,550.37,305.38Z"/><path class="cls-4" d="M40.7,303.93c4.14,1.87,10.39,3.29,19.57,3.77a19.55,19.55,0,0,0,3.25-.1C68.65,307,78,306,84.86,299.53c0,0,6.63-5.6,0-11.12-1.44-1.2-2-5-2-6.44-.06-2.9,1.92-8.91-6.9-13.85-2.66-1.49-14.76-2.27-18.43-1.88-4.61.48-7.79,2.36-14.08,8.79a17.81,17.81,0,0,1-2.76,2.08Z"/><path class="cls-5" d="M71.07,290.49a1.77,1.77,0,0,0-2.16.49,31.27,31.27,0,0,1-6.75,7V283A1.61,1.61,0,0,0,59,283v19.56a31.13,31.13,0,0,1-6.75-7,1.77,1.77,0,0,0-2.16-.49,1.18,1.18,0,0,0-.59,1.77A34.23,34.23,0,0,0,59,306v33.75a1.61,1.61,0,0,0,3.16,0V301.39a34.13,34.13,0,0,0,9.5-9.13A1.19,1.19,0,0,0,71.07,290.49Z"/><path class="cls-6" d="M114.37,314.53a21.72,21.72,0,0,1-3.61-.11c-5.69-.64-16.07-1.77-23.69-8.95,0,0-7.35-6.22,0-12.35,1.61-1.33,2.18-5.53,2.21-7.14.07-3.23-2.13-9.89,7.66-15.38,3-1.65,16.38-2.51,20.46-2.09,5.12.54,8.64,2.62,15.63,9.76a17,17,0,0,0,2.76,2.3c2.2,1.47,6.31,5,5,9.74-.41,1.41.65,3.88,1.67,5.2C146.28,300.46,146.87,312.84,114.37,314.53Z"/><path class="cls-5" d="M125.66,295.43a1.93,1.93,0,0,0-2.38.54,34.71,34.71,0,0,1-7.5,7.76V287.1a1.79,1.79,0,0,0-3.51,0v21.7a34.56,34.56,0,0,1-7.49-7.77,2,2,0,0,0-2.39-.54,1.32,1.32,0,0,0-.66,2,37.84,37.84,0,0,0,10.54,10.13v26.33a1.79,1.79,0,0,0,3.51,0V307.53a37.77,37.77,0,0,0,10.54-10.14A1.3,1.3,0,0,0,125.66,295.43Z"/><path class="cls-6" d="M190.88,314.53a21.72,21.72,0,0,1-3.61-.11c-5.69-.64-16.07-1.77-23.68-8.95,0,0-7.36-6.22,0-12.35,1.6-1.33,2.17-5.53,2.2-7.14.07-3.23-2.13-9.89,7.66-15.38,3-1.65,16.38-2.51,20.46-2.09,5.12.54,8.64,2.62,15.63,9.76a17,17,0,0,0,2.76,2.3c2.2,1.47,6.31,5,5,9.74-.41,1.41.65,3.88,1.67,5.2C222.79,300.46,223.38,312.84,190.88,314.53Z"/><path class="cls-5" d="M202.17,295.43a1.93,1.93,0,0,0-2.38.54,34.71,34.71,0,0,1-7.5,7.76V287.1a1.79,1.79,0,0,0-3.51,0v21.7a34.56,34.56,0,0,1-7.49-7.77,2,2,0,0,0-2.39-.54,1.32,1.32,0,0,0-.66,2,38,38,0,0,0,10.54,10.13v26.33a1.79,1.79,0,0,0,3.51,0V307.53a37.77,37.77,0,0,0,10.54-10.14A1.3,1.3,0,0,0,202.17,295.43Z"/><path class="cls-7" d="M84.84,320.25a17.53,17.53,0,0,0,2.81-.08c4.43-.5,12.52-1.38,18.44-7,0,0,5.73-4.84,0-9.61-1.25-1-1.69-4.31-1.72-5.56-.05-2.51,1.66-7.7-6-12-2.3-1.29-12.75-2-15.93-1.63-4,.41-6.73,2-12.17,7.6a13.8,13.8,0,0,1-2.15,1.79c-1.71,1.14-4.91,3.86-3.86,7.58.32,1.1-.51,3-1.3,4.05C60,309.3,59.53,318.93,84.84,320.25Z"/><path class="cls-5" d="M94.17,305.38a1.51,1.51,0,0,0-1.86.42,26.87,26.87,0,0,1-5.84,6V298.89a1.39,1.39,0,0,0-2.73,0v16.9a26.94,26.94,0,0,1-5.83-6.05,1.53,1.53,0,0,0-1.86-.42,1,1,0,0,0-.52,1.53,29.57,29.57,0,0,0,8.21,7.89v20.5a1.39,1.39,0,0,0,2.73,0V314.8a29.3,29.3,0,0,0,8.21-7.89A1,1,0,0,0,94.17,305.38Z"/><path class="cls-4" d="M226.88,309.7a19.59,19.59,0,0,0,3.25-.1c5.13-.57,14.48-1.59,21.34-8.07,0,0,6.62-5.6,0-11.12-1.45-1.2-2-5-2-6.44-.06-2.9,1.92-8.91-6.9-13.85-2.66-1.49-14.76-2.27-18.44-1.88-4.61.48-7.78,2.36-14.08,8.79a15.61,15.61,0,0,1-2.49,2.08c-2,1.32-5.68,4.46-4.46,8.77.36,1.27-.59,3.5-1.51,4.68C198.13,297,197.59,308.18,226.88,309.7Z"/><path class="cls-5" d="M237.67,292.49a1.75,1.75,0,0,0-2.15.49,31.28,31.28,0,0,1-6.76,7V285a1.61,1.61,0,0,0-3.15,0v19.56a31.36,31.36,0,0,1-6.76-7,1.75,1.75,0,0,0-2.15-.49,1.18,1.18,0,0,0-.59,1.77,34.23,34.23,0,0,0,9.5,9.14v33.75a1.6,1.6,0,0,0,3.15,0V303.39a34,34,0,0,0,9.5-9.13A1.18,1.18,0,0,0,237.67,292.49Z"/><path class="cls-6" d="M281,316.53a21.63,21.63,0,0,1-3.6-.11c-5.69-.64-16.08-1.77-23.69-8.95,0,0-7.35-6.22,0-12.35,1.6-1.33,2.18-5.53,2.21-7.14.07-3.23-2.13-9.89,7.66-15.38,2.95-1.65,16.38-2.51,20.46-2.09,5.12.54,8.64,2.62,15.63,9.76a17,17,0,0,0,2.76,2.3c2.2,1.47,6.31,5,5,9.74-.4,1.41.66,3.88,1.68,5.2C312.88,302.46,313.48,314.84,281,316.53Z"/><path class="cls-5" d="M292.27,297.43a2,2,0,0,0-2.39.54,34.5,34.5,0,0,1-7.5,7.76V289.1a1.78,1.78,0,0,0-3.5,0v21.7a34.79,34.79,0,0,1-7.5-7.77,2,2,0,0,0-2.39-.54,1.31,1.31,0,0,0-.65,2,37.71,37.71,0,0,0,10.54,10.13v26.33a1.78,1.78,0,0,0,3.5,0V309.53a37.76,37.76,0,0,0,10.55-10.14A1.31,1.31,0,0,0,292.27,297.43Z"/><path class="cls-7" d="M256.45,322.25a17.56,17.56,0,0,0,2.81-.08c4.43-.5,12.51-1.38,18.44-7,0,0,5.72-4.84,0-9.61-1.25-1-1.7-4.31-1.72-5.56-.05-2.51,1.66-7.7-6-12-2.29-1.29-12.75-2-15.92-1.63-4,.41-6.73,2-12.17,7.6a14.28,14.28,0,0,1-2.15,1.79c-1.71,1.14-4.92,3.86-3.86,7.58.31,1.1-.51,3-1.3,4.05C231.6,311.3,231.14,320.93,256.45,322.25Z"/><path class="cls-5" d="M265.78,307.38a1.51,1.51,0,0,0-1.86.42,27.09,27.09,0,0,1-5.84,6V300.89a1.39,1.39,0,0,0-2.73,0v16.9a27.17,27.17,0,0,1-5.84-6.05,1.52,1.52,0,0,0-1.86-.42,1,1,0,0,0-.51,1.53,29.57,29.57,0,0,0,8.21,7.89v20.5a1.39,1.39,0,0,0,2.73,0V316.8a29.57,29.57,0,0,0,8.21-7.89A1,1,0,0,0,265.78,307.38Z"/><path class="cls-7" d="M148,320.25a17.56,17.56,0,0,0,2.81-.08c4.43-.5,12.51-1.38,18.44-7,0,0,5.73-4.84,0-9.61-1.25-1-1.7-4.31-1.72-5.56-.05-2.51,1.66-7.7-6-12-2.29-1.29-12.75-2-15.92-1.63-4,.41-6.73,2-12.17,7.6a14.28,14.28,0,0,1-2.15,1.79c-1.71,1.14-4.92,3.86-3.86,7.58.31,1.1-.51,3-1.3,4.05C123.11,309.3,122.65,318.93,148,320.25Z"/><path class="cls-5" d="M157.29,305.38a1.51,1.51,0,0,0-1.86.42,27.09,27.09,0,0,1-5.84,6V298.89a1.39,1.39,0,0,0-2.73,0v16.9a27.17,27.17,0,0,1-5.84-6.05,1.52,1.52,0,0,0-1.86-.42,1,1,0,0,0-.51,1.53,29.57,29.57,0,0,0,8.21,7.89v20.5a1.39,1.39,0,0,0,2.73,0V314.8a29.57,29.57,0,0,0,8.21-7.89A1,1,0,0,0,157.29,305.38Z"/><path class="cls-4" d="M178.92,324.27a14,14,0,0,0,2.25-.06c3.55-.4,10-1.11,14.75-5.58,0,0,4.58-3.88,0-7.69-1-.83-1.35-3.45-1.37-4.45,0-2,1.33-6.16-4.77-9.58-1.84-1-10.2-1.57-12.74-1.3-3.19.33-5.39,1.63-9.74,6.08a10.79,10.79,0,0,1-1.72,1.43c-1.37.92-3.93,3.09-3.08,6.07a4.6,4.6,0,0,1-1.05,3.23C159.05,315.51,158.68,323.22,178.92,324.27Z"/><path class="cls-5" d="M186.39,312.37a1.24,1.24,0,0,0-1.49.34,21.73,21.73,0,0,1-4.67,4.84V307.19a1.11,1.11,0,0,0-2.18,0V320.7a21.09,21.09,0,0,1-4.67-4.84,1.22,1.22,0,0,0-1.49-.33.81.81,0,0,0-.41,1.22,23.67,23.67,0,0,0,6.57,6.32v16.39a1.11,1.11,0,0,0,2.18,0V319.91a23.59,23.59,0,0,0,6.57-6.31A.83.83,0,0,0,186.39,312.37Z"/><rect class="cls-8" x="40.7" y="339.46" width="613.19" height="35.06"/><path class="cls-7" d="M429.92,290.44a16.47,16.47,0,0,1-2.81-.09c-4.43-.5-12.51-1.37-18.44-7,0,0-5.73-4.84,0-9.61,1.25-1,1.7-4.31,1.72-5.56.05-2.52-1.66-7.7,6-12,2.3-1.29,12.76-2,15.93-1.63,4,.41,6.73,2,12.17,7.59a13.77,13.77,0,0,0,2.15,1.8c1.71,1.14,4.92,3.85,3.86,7.58-.31,1.1.51,3,1.3,4C454.77,279.48,455.23,289.12,429.92,290.44Z"/><path class="cls-5" d="M420.59,275.56a1.51,1.51,0,0,1,1.86.43,27.31,27.31,0,0,0,5.84,6V269.08a1.39,1.39,0,0,1,2.73,0V286a27.17,27.17,0,0,0,5.84-6.05,1.52,1.52,0,0,1,1.86-.42,1,1,0,0,1,.51,1.53,29.57,29.57,0,0,1-8.21,7.89v20.49a1.39,1.39,0,0,1-2.73,0V285a29.5,29.5,0,0,1-8.21-7.9A1,1,0,0,1,420.59,275.56Z"/><rect class="cls-9" x="303.71" y="298.4" width="245.94" height="40.99"/><rect class="cls-10" x="303.71" y="330.96" width="245.94" height="8.43"/><path class="cls-11" d="M415,288.68s-1.93,10.32-14.14,13.85h-100s-10.32-2.91-12.55-13.85"/><path class="cls-12" d="M387,281.66l-.09-.75H316.47l-.09.75-28,7s3,6.08,5.37,7.16,23.83,3.79,58,3.79,55.62-2.7,58-3.79,5.37-7.16,5.37-7.16Z"/><path class="cls-13" d="M391.41,285.73l-2-.52v13.18l2-.15Z"/><path class="cls-13" d="M387.6,284.73l-2-.52v14.43l2-.12Z"/><path class="cls-13" d="M381.81,280.91v18l2-.11V283.38l-.32-2.47Z"/><path class="cls-13" d="M328.41,280.91v18.28l2,.07V280.91Z"/><path class="cls-13" d="M395.23,286.73l-2-.52v11.88l2-.17Z"/><path class="cls-13" d="M406.67,289.73l-2-.52v7.64l2-.31Z"/><path class="cls-13" d="M399,287.73l-2-.52v10.53l2-.2Z"/><path class="cls-13" d="M402.86,288.73l-2-.52v9.13l2-.24Z"/><path class="cls-13" d="M358.93,280.91v18.68l2,0V280.91Z"/><path class="cls-13" d="M355.11,280.91v18.71h2v-18.7Z"/><path class="cls-13" d="M362.74,280.91v18.63l2,0V280.91Z"/><path class="cls-13" d="M378,280.91v18.15l2-.1v-18Z"/><path class="cls-13" d="M412.32,291.21v2.2a13.12,13.12,0,0,0,1.13-1.9Z"/><path class="cls-13" d="M374.18,280.91v18.31l2-.08V280.91Z"/><path class="cls-13" d="M370.37,280.91v18.44l2-.06V280.91Z"/><path class="cls-13" d="M366.55,280.91v18.55l2-.06V280.91Z"/><path class="cls-13" d="M299.87,288.9l-2,.52v7.31c.6.09,1.26.19,2,.28Z"/><path class="cls-13" d="M303.69,287.9l-2,.52v8.83l2,.22Z"/><path class="cls-13" d="M318.94,283.9l-2,.52v14.17l2,.13Z"/><path class="cls-13" d="M315.13,284.9l-2,.52v12.91l2,.14Z"/><path class="cls-13" d="M307.5,286.9l-2,.52v10.25l2,.19Z"/><path class="cls-13" d="M311.32,285.9l-2,.52V298l2,.17Z"/><path class="cls-13" d="M410.49,290.73l-2-.52v6a6,6,0,0,0,1.14-.34,4.72,4.72,0,0,0,.84-.49Z"/><path class="cls-13" d="M292.24,290.9l-2.3.61a11.81,11.81,0,0,0,2.3,3.28Z"/><path class="cls-13" d="M351.3,280.91v18.72h2V280.91Z"/><path class="cls-13" d="M339.86,280.91v18.61l2,0V280.91Z"/><path class="cls-13" d="M324.6,280.91V299l2,.09v-18.2Z"/><path class="cls-13" d="M336,280.91v18.53l2,0V280.91Z"/><path class="cls-13" d="M296.06,289.9l-2,.52V296a16.22,16.22,0,0,0,2,.45Z"/><path class="cls-13" d="M332.23,280.91v18.41l2,.07V280.91Z"/><path class="cls-13" d="M343.67,280.91v18.67l2,0v-18.7Z"/><path class="cls-13" d="M320.78,280.91v17.91l2,.11v-18Z"/><path class="cls-13" d="M347.48,280.91v18.71h2V280.91Z"/><polygon class="cls-12" points="387.24 283.53 316.05 283.53 316.64 279.79 386.77 279.79 387.24 283.53"/><path class="cls-11" d="M385.63,288.68v13.85h63V288.68Z"/><path class="cls-12" d="M414.5,280.91H385.63v17.67c8.75.6,19.9,1.05,33,1.05,11.65,0,21.73-.35,30-.85V280.91Z"/><path class="cls-13" d="M446.65,280.91v18l2-.11V283.38l-.32-2.47Z"/><path class="cls-13" d="M393.25,280.91v18.28l2,.07V280.91Z"/><path class="cls-13" d="M423.77,280.91v18.68l2,0V280.91Z"/><path class="cls-13" d="M420,280.91v18.71h2v-18.7Z"/><path class="cls-13" d="M427.58,280.91v18.63l2,0V280.91Z"/><path class="cls-13" d="M442.84,280.91v18.15l2-.1v-18Z"/><path class="cls-13" d="M439,280.91v18.31l2-.08V280.91Z"/><path class="cls-13" d="M435.21,280.91v18.44l2-.06V280.91Z"/><path class="cls-13" d="M431.4,280.91v18.55l2-.06V280.91Z"/><path class="cls-13" d="M416.14,280.91v18.72h2V280.91Z"/><path class="cls-13" d="M404.7,280.91v18.61l2,0V280.91Z"/><path class="cls-13" d="M389.44,280.91V299l2,.09v-18.2Z"/><path class="cls-13" d="M400.88,280.91v18.53l2,0V280.91Z"/><path class="cls-13" d="M397.07,280.91v18.41l2,.07V280.91Z"/><path class="cls-13" d="M408.51,280.91v18.67l2,0v-18.7Z"/><path class="cls-13" d="M385.63,280.91v17.91l2,.11v-18Z"/><path class="cls-13" d="M412.32,280.91v18.71h2V280.91Z"/><path class="cls-12" d="M385.63,279.79v3.74h63v-3.74Z"/><path class="cls-11" d="M567.19,288.68s-1.93,10.32-14.13,13.85h-100s-10.32-2.91-12.55-13.85"/><path class="cls-12" d="M539.18,281.66l-.1-.75H468.65l-.09.75-28,7s3,6.08,5.36,7.16,23.84,3.79,58,3.79,55.61-2.7,58-3.79,5.36-7.16,5.36-7.16Z"/><path class="cls-13" d="M543.59,285.73l-2-.52v13.18l2-.15Z"/><path class="cls-13" d="M539.77,284.73l-2-.52v14.43l2-.12Z"/><path class="cls-13" d="M534,280.91v18l2-.11V283.38l-.32-2.47Z"/><path class="cls-13" d="M480.59,280.91v18.28l2,.07V280.91Z"/><path class="cls-13" d="M547.4,286.73l-2-.52v11.88l2-.17Z"/><path class="cls-13" d="M558.84,289.73l-2-.52v7.64l2-.31Z"/><path class="cls-13" d="M551.22,287.73l-2-.52v10.53l2-.2Z"/><path class="cls-13" d="M555,288.73l-2-.52v9.13l2-.24Z"/><path class="cls-13" d="M511.1,280.91v18.68l2,0V280.91Z"/><path class="cls-13" d="M507.29,280.91v18.71h2v-18.7Z"/><path class="cls-13" d="M514.91,280.91v18.63l2,0V280.91Z"/><path class="cls-13" d="M530.17,280.91v18.15l2-.1v-18Z"/><path class="cls-13" d="M564.5,291.21v2.2a13.57,13.57,0,0,0,1.12-1.9Z"/><path class="cls-13" d="M526.36,280.91v18.31l2-.08V280.91Z"/><path class="cls-13" d="M522.54,280.91v18.44l2-.06V280.91Z"/><path class="cls-13" d="M518.73,280.91v18.55l2-.06V280.91Z"/><path class="cls-13" d="M452.05,288.9l-2,.52v7.31c.6.09,1.26.19,2,.28Z"/><path class="cls-13" d="M455.86,287.9l-2,.52v8.83l2,.22Z"/><path class="cls-13" d="M471.12,283.9l-2,.52v14.17l2,.13Z"/><path class="cls-13" d="M467.3,284.9l-2,.52v12.91l2,.14Z"/><path class="cls-13" d="M459.67,286.9l-2,.52v10.25l2,.19Z"/><path class="cls-13" d="M463.49,285.9l-2,.52V298l2,.17Z"/><path class="cls-13" d="M562.66,290.73l-2-.52v6a6.2,6.2,0,0,0,1.15-.34,4.64,4.64,0,0,0,.83-.49Z"/><path class="cls-13" d="M444.42,290.9l-2.31.61a12,12,0,0,0,2.31,3.28Z"/><path class="cls-13" d="M503.47,280.91v18.72h2V280.91Z"/><path class="cls-13" d="M492,280.91v18.61l2,0V280.91Z"/><path class="cls-13" d="M476.77,280.91V299l2,.09v-18.2Z"/><path class="cls-13" d="M488.21,280.91v18.53l2,0V280.91Z"/><path class="cls-13" d="M448.23,289.9l-2,.52V296a15.53,15.53,0,0,0,2,.45Z"/><path class="cls-13" d="M484.4,280.91v18.41l2,.07V280.91Z"/><path class="cls-13" d="M495.84,280.91v18.67l2,0v-18.7Z"/><path class="cls-13" d="M473,280.91v17.91l2,.11v-18Z"/><path class="cls-13" d="M499.66,280.91v18.71h2V280.91Z"/><polygon class="cls-12" points="539.41 283.53 468.22 283.53 468.81 279.79 538.95 279.79 539.41 283.53"/><path class="cls-11" d="M423.77,288.74v13.85h63V288.74Z"/><path class="cls-12" d="M452.64,281H423.77v17.67c8.75.6,19.9,1.05,33,1.05,11.64,0,21.72-.35,30-.85V281Z"/><path class="cls-13" d="M484.79,281v17.95l2-.11V283.44l-.32-2.47Z"/><path class="cls-13" d="M431.4,281v18.28l2,.07V281Z"/><path class="cls-13" d="M461.91,281v18.68l2,0V281Z"/><path class="cls-13" d="M458.09,281v18.71h2V281Z"/><path class="cls-13" d="M465.72,281v18.62l2,0V281Z"/><path class="cls-13" d="M481,281v18.14l2-.09V281Z"/><path class="cls-13" d="M477.17,281v18.31l2-.08V281Z"/><path class="cls-13" d="M473.35,281v18.44l2-.07V281Z"/><path class="cls-13" d="M469.54,281v18.54l2-.05V281Z"/><path class="cls-13" d="M454.28,281v18.72h2V281Z"/><path class="cls-13" d="M442.84,281v18.61l2,0V281Z"/><path class="cls-13" d="M427.58,281v18.11l2,.09V281Z"/><path class="cls-13" d="M439,281v18.52l2,.05V281Z"/><path class="cls-13" d="M435.21,281v18.41l2,.06V281Z"/><path class="cls-13" d="M446.65,281v18.67l2,0V281Z"/><path class="cls-13" d="M423.77,281v17.91l2,.11V281Z"/><path class="cls-13" d="M450.47,281v18.71h2V281Z"/><path class="cls-12" d="M423.77,279.84v3.74h63v-3.74Z"/><rect class="cls-14" x="303.71" y="302.53" width="245.94" height="5.03"/><rect class="cls-15" x="325.18" y="307.56" width="3.78" height="23.41"/><rect class="cls-15" x="362.33" y="307.56" width="3.78" height="23.41"/><rect class="cls-15" x="487.8" y="307.56" width="3.78" height="23.41"/><rect class="cls-15" x="524.96" y="307.56" width="3.78" height="23.41"/><rect class="cls-15" x="459.75" y="284.33" width="7.56" height="60.07"/><rect class="cls-15" x="387.76" y="284.33" width="7.56" height="60.07"/><path class="cls-13" d="M427.22,253.22v2.19a13,13,0,0,0,1.12-1.9Z"/><rect class="cls-9" x="395.32" y="284.33" width="64.43" height="60.07"/><rect class="cls-14" x="387.76" y="279.3" width="79.56" height="5.03"/><rect class="cls-16" x="411.77" y="287.67" width="31.54" height="10.05"/><path class="cls-11" d="M491.11,266.26s-1.93,10.32-14.14,13.85H377s-10.32-2.91-12.55-13.85"/><path class="cls-12" d="M427.78,277.21c-34.13,0-55.62-2.7-58-3.79s-5.37-7.16-5.37-7.16l28-7,2.3-18.72h66l2.31,18.72,28,7s-3,6.08-5.37,7.16S461.91,277.21,427.78,277.21Z"/><path class="cls-13" d="M467.5,263.31l-2-.52V276l2-.15Z"/><path class="cls-13" d="M463.69,262.31l-2-.52v14.43l2-.13Z"/><path class="cls-13" d="M459.87,261l-2-15.3v30.79l2-.11Z"/><path class="cls-13" d="M406.47,244.53h-2v32.24l2,.07Z"/><path class="cls-13" d="M471.31,264.31l-2-.52v11.88l2-.17Z"/><path class="cls-13" d="M482.76,267.31l-2-.52v7.64l2-.31Z"/><path class="cls-13" d="M475.13,265.31l-2-.52v10.53l2-.2Z"/><path class="cls-13" d="M478.94,266.31l-2-.52v9.13l2-.24Z"/><path class="cls-13" d="M437,244.53h-2v32.64l2,0Z"/><path class="cls-13" d="M431.2,277.2h2V244.53h-2Z"/><path class="cls-13" d="M440.8,244.53h-2v32.59l2,0Z"/><path class="cls-13" d="M456.06,244.53h-2v32.11l2-.1Z"/><path class="cls-13" d="M488.41,268.79V271a12.46,12.46,0,0,0,1.12-1.9Z"/><path class="cls-13" d="M452.24,244.53h-2V276.8l2-.08Z"/><path class="cls-13" d="M448.43,244.53h-2v32.4l2-.06Z"/><path class="cls-13" d="M444.62,244.53h-2V277l2-.06Z"/><path class="cls-13" d="M376,266.48l-2,.52v7.31c.59.09,1.26.19,2,.28Z"/><path class="cls-13" d="M379.77,265.48l-2,.52v8.83l2,.22Z"/><path class="cls-13" d="M395,261.48l-2,.52v14.17l2,.13Z"/><path class="cls-13" d="M391.22,262.48l-2,.52v12.91l2,.14Z"/><path class="cls-13" d="M383.59,264.48l-2,.52v10.25l2,.19Z"/><path class="cls-13" d="M387.4,263.48l-2,.52v11.6l2,.17Z"/><path class="cls-13" d="M486.57,268.31l-2-.52v6a6.29,6.29,0,0,0,1.14-.34,4.64,4.64,0,0,0,.83-.49Z"/><path class="cls-13" d="M368.33,268.48l-2.31.61a12,12,0,0,0,2.31,3.28Z"/><path class="cls-13" d="M429.36,244.53h-2v32.68h2Z"/><path class="cls-13" d="M417.92,244.53h-2V277.1l2,0Z"/><path class="cls-13" d="M400.68,276.6l2,.09V244.53h-2Z"/><path class="cls-13" d="M414.1,244.53h-2V277l2,0Z"/><path class="cls-13" d="M372.15,267.48l-2,.52v5.55a16.22,16.22,0,0,0,2,.45Z"/><path class="cls-13" d="M410.29,244.53h-2V276.9l2,.07Z"/><path class="cls-13" d="M421.73,244.53h-2v32.63l2,0Z"/><path class="cls-13" d="M396.87,276.4l2,.11v-32H397.8l-.93,7.24Z"/><path class="cls-13" d="M425.54,244.53h-2V277.2h2Z"/><rect class="cls-10" x="387.76" y="335.81" width="79.56" height="8.59"/><rect class="cls-15" x="387.76" y="301.07" width="79.56" height="5.6"/><rect class="cls-15" x="397.2" y="315.64" width="34.74" height="5.6" transform="translate(96.13 733) rotate(-90)"/><rect class="cls-15" x="423.14" y="315.64" width="34.74" height="5.6" transform="translate(122.07 758.94) rotate(-90)"/><rect class="cls-17" x="417.37" y="306.66" width="20.34" height="29.14"/><path class="cls-4" d="M111.3,328.31a2.91,2.91,0,0,1-3-2c-.08-.2-.18-.41-.06-.59s.42-.12.62-.09c.68.08.68.09.53-.57,0-.21-.19-.45,0-.62s.43,0,.64.05a3.22,3.22,0,0,1,2.2,3.37C112.19,328.61,111.59,328.17,111.3,328.31Z"/><path class="cls-18" d="M97.39,328.06a3,3,0,0,1-2.67-1.63c-.2-.34-.12-.49.28-.46.12,0,.25,0,.37,0,.38,0,.47-.12.31-.47s-.36-.49-.17-.72.53-.1.81,0a2.93,2.93,0,0,1,2.46,2.68c0,.28-.07.37-.29.42Z"/><path class="cls-18" d="M102.8,323.25a2.92,2.92,0,0,1,2.13-2.89c.25-.07.55-.17.76,0s0,.43-.08.62c-.19.5,0,.58.43.45.2-.06.49-.13.64.06s0,.43-.12.63a2.93,2.93,0,0,1-3.47,1.61C102.75,323.68,102.8,323.47,102.8,323.25Z"/><path class="cls-4" d="M218.9,329.84a2.9,2.9,0,0,1-3-2,.61.61,0,0,1-.07-.58c.15-.23.42-.12.63-.1.67.09.68.1.53-.56,0-.22-.2-.46,0-.63s.43,0,.64,0a3.23,3.23,0,0,1,2.2,3.38C219.78,330.15,219.18,329.7,218.9,329.84Z"/><path class="cls-18" d="M205,329.6a3.06,3.06,0,0,1-2.68-1.64c-.2-.33-.12-.49.28-.46H203c.39,0,.48-.12.31-.47s-.36-.5-.17-.72.53-.11.81-.05a2.93,2.93,0,0,1,2.47,2.68c0,.28-.08.37-.3.42Z"/><path class="cls-18" d="M210.39,324.79a2.92,2.92,0,0,1,2.13-2.89c.25-.07.55-.18.76,0s0,.43-.08.63c-.19.5,0,.58.43.45.21-.06.49-.13.64.06s0,.42-.12.62a2.92,2.92,0,0,1-3.47,1.62C210.34,325.22,210.4,325,210.39,324.79Z"/><path class="cls-4" d="M52.72,332.08a2.91,2.91,0,0,0,3-2c.08-.2.18-.41.06-.59s-.41-.12-.62-.09c-.68.08-.68.09-.53-.57,0-.21.2-.45,0-.62s-.43,0-.64.05a3.23,3.23,0,0,0-2.2,3.38C51.84,332.38,52.43,331.94,52.72,332.08Z"/><path class="cls-18" d="M66.63,331.83a3,3,0,0,0,2.67-1.63c.21-.34.12-.49-.28-.46h-.37c-.38,0-.47-.12-.3-.48s.35-.49.16-.72-.52-.1-.81-.05a2.93,2.93,0,0,0-2.46,2.68c0,.29.07.38.3.43Z"/><path class="cls-18" d="M61.23,327a3,3,0,0,0-2.13-2.89c-.26-.07-.56-.17-.76,0s0,.43.07.62c.2.5,0,.58-.43.45-.2-.05-.49-.13-.64.06s0,.43.12.63a3,3,0,0,0,3.48,1.62C61.27,327.45,61.22,327.24,61.23,327Z"/><path class="cls-4" d="M159,335a2.91,2.91,0,0,0,3-2c.08-.19.18-.4.06-.58s-.42-.13-.62-.1c-.68.08-.68.09-.53-.56,0-.22.19-.46,0-.63s-.43,0-.64.05a3.23,3.23,0,0,0-2.2,3.38C158.06,335.29,158.66,334.84,159,335Z"/><path class="cls-18" d="M172.86,334.74a3,3,0,0,0,2.67-1.64c.2-.33.12-.49-.28-.46h-.37c-.38,0-.47-.12-.31-.48s.36-.49.17-.72-.53-.1-.81-.05a2.93,2.93,0,0,0-2.46,2.68c0,.29.07.38.29.43Z"/><path class="cls-18" d="M167.45,329.92a2.92,2.92,0,0,0-2.13-2.89c-.25-.07-.55-.17-.76,0s0,.43.08.63c.19.49,0,.57-.43.44-.2-.05-.49-.13-.64.06s0,.43.12.63a2.93,2.93,0,0,0,3.47,1.62C167.5,330.35,167.45,330.14,167.45,329.92Z"/><path class="cls-4" d="M288.51,335.6a2.91,2.91,0,0,0,.25-3.58c-.1-.18-.21-.39-.43-.41s-.35.26-.45.44c-.35.58-.35.59-.77.07-.14-.17-.24-.43-.5-.38s-.28.33-.36.54a3.24,3.24,0,0,0,1.33,3.81C288.22,336.49,288.23,335.74,288.51,335.6Z"/><path class="cls-18" d="M296.84,324.45a3.05,3.05,0,0,0,.34-3.11c-.14-.37-.32-.4-.54-.06-.06.1-.15.19-.22.29-.22.32-.39.3-.57-.05s-.17-.58-.46-.57-.41.35-.54.61a2.93,2.93,0,0,0,.61,3.59.32.32,0,0,0,.52,0Z"/><path class="cls-18" d="M289.72,325.78a2.94,2.94,0,0,0-3.59-.09c-.21.16-.47.34-.45.62s.34.26.54.32c.52.15.48.33.1.61-.17.13-.41.31-.35.54s.36.25.57.29a2.93,2.93,0,0,0,3.41-1.75C290.09,326,289.89,325.92,289.72,325.78Z"/><path class="cls-4" d="M233.29,322.91a2.93,2.93,0,0,0,3-2c.08-.19.18-.41.06-.59s-.42-.12-.63-.09c-.67.08-.67.09-.53-.56,0-.22.2-.46,0-.63s-.43,0-.64,0a3.23,3.23,0,0,0-2.2,3.38C232.41,323.22,233,322.77,233.29,322.91Z"/><path class="cls-18" d="M246.52,323.6a3,3,0,0,0-.41-3.11c-.22-.32-.4-.3-.53.08,0,.11-.11.22-.15.33-.14.36-.31.38-.56.09s-.31-.53-.59-.45-.31.44-.38.72a2.93,2.93,0,0,0,1.45,3.34c.25.15.37.09.51-.1Z"/><path class="cls-18" d="M241,315.52a2.92,2.92,0,0,0-2.13-2.89c-.25-.07-.55-.17-.76,0s0,.43.08.62c.19.5,0,.58-.43.45-.21-.05-.49-.13-.64.06s0,.43.12.63a2.93,2.93,0,0,0,3.47,1.61C241,316,241,315.74,241,315.52Z"/><path class="cls-18" d="M243,331.89a2.93,2.93,0,0,0,1.66-3.18c-.05-.26-.09-.58-.35-.68s-.39.19-.54.35c-.36.39-.5.28-.59-.19,0-.21-.09-.5-.33-.55s-.37.22-.51.39a2.93,2.93,0,0,0,.08,3.83C242.59,332.12,242.76,332,243,331.89Z"/><path class="cls-4" d="M125.67,335.37a2.92,2.92,0,0,0,3-2c.08-.19.18-.4.06-.58s-.42-.13-.62-.1c-.68.08-.68.09-.53-.56,0-.22.19-.46,0-.63s-.43,0-.64.05a3.23,3.23,0,0,0-2.2,3.38C124.78,335.68,125.38,335.23,125.67,335.37Z"/><path class="cls-18" d="M138.89,336.06a3,3,0,0,0-.41-3.11c-.22-.32-.4-.3-.53.08,0,.11-.11.22-.15.33-.14.36-.3.38-.56.09s-.3-.53-.59-.45-.31.44-.38.72a2.93,2.93,0,0,0,1.45,3.34c.25.15.37.09.51-.09Z"/><path class="cls-18" d="M133.33,328a2.92,2.92,0,0,0-2.13-2.89c-.25-.07-.55-.17-.76,0s0,.43.08.63c.19.49,0,.57-.43.44-.2-.05-.49-.13-.64.06s0,.43.12.63a3,3,0,0,0,3.47,1.62C133.38,328.41,133.33,328.2,133.33,328Z"/><path class="cls-4" d="M264.76,341.39a2.91,2.91,0,0,0,3-2c.08-.2.18-.41.06-.59s-.41-.12-.62-.09c-.68.08-.68.09-.53-.57.05-.21.2-.45,0-.62s-.43,0-.64.05a3.22,3.22,0,0,0-2.2,3.37C263.88,341.69,264.47,341.25,264.76,341.39Z"/><path class="cls-18" d="M272.43,334a2.94,2.94,0,0,0-2.13-2.89c-.26-.07-.56-.18-.76,0s0,.44.07.63c.19.5,0,.58-.43.45-.2-.06-.49-.13-.64.06s0,.43.12.63a3,3,0,0,0,3.48,1.61C272.47,334.43,272.42,334.22,272.43,334Z"/><path class="cls-18" d="M135.33,344.35a2.92,2.92,0,0,0,1.66-3.18c-.05-.26-.09-.58-.35-.68s-.39.19-.53.35c-.36.39-.51.28-.59-.19,0-.21-.1-.5-.34-.55s-.37.22-.51.39a2.93,2.93,0,0,0,.08,3.83C135,344.58,135.13,344.44,135.33,344.35Z"/><path class="cls-18" d="M206.5,320.55a2.94,2.94,0,0,0-1.06-3.43c-.22-.14-.47-.34-.72-.23s-.15.41-.14.62c0,.53-.16.55-.55.28-.17-.12-.42-.28-.62-.15s-.12.41-.1.63a3,3,0,0,0,2.75,2.67C206.4,321,206.42,320.76,206.5,320.55Z"/><path class="cls-4" d="M650.51,333.12a2.91,2.91,0,0,1-3-2c-.08-.19-.18-.41-.07-.59s.42-.12.63-.09c.67.08.68.09.53-.56,0-.22-.2-.46,0-.63s.43,0,.64.05a3.22,3.22,0,0,1,2.2,3.38C651.39,333.43,650.79,333,650.51,333.12Z"/><path class="cls-18" d="M636.6,332.87a3,3,0,0,1-2.68-1.63c-.2-.34-.12-.49.28-.46.13,0,.25,0,.37,0,.39,0,.48-.12.31-.48s-.36-.49-.17-.72.53-.1.81-.05a2.93,2.93,0,0,1,2.47,2.68c0,.29-.08.38-.3.43Z"/><path class="cls-18" d="M642,328.06a2.94,2.94,0,0,1,2.13-2.89c.25-.07.56-.17.76,0s0,.43-.07.63c-.2.49,0,.57.42.44.21-.05.49-.13.64.06s0,.43-.12.63a2.93,2.93,0,0,1-3.47,1.62C642,328.49,642,328.28,642,328.06Z"/><path class="cls-4" d="M589.23,333a2.91,2.91,0,0,0,3-2c.09-.2.18-.41.07-.59s-.42-.12-.63-.09c-.67.08-.68.09-.53-.57,0-.21.2-.46,0-.62s-.43,0-.64,0a3.23,3.23,0,0,0-2.2,3.38C588.35,333.35,589,332.9,589.23,333Z"/><path class="cls-18" d="M603.14,332.8a3,3,0,0,0,2.68-1.64c.2-.33.12-.49-.28-.45-.13,0-.25,0-.37,0-.39,0-.48-.12-.31-.47s.36-.49.17-.72-.53-.1-.81-.05a2.94,2.94,0,0,0-2.47,2.68c0,.28.08.37.3.42Z"/><path class="cls-18" d="M597.74,328a2.92,2.92,0,0,0-2.13-2.89c-.25-.07-.55-.17-.76,0s0,.43.08.62c.19.5,0,.58-.43.45-.21-.06-.49-.13-.64.06s0,.43.12.63a2.93,2.93,0,0,0,3.47,1.61C597.79,328.42,597.73,328.21,597.74,328Z"/><path class="cls-4" d="M553,334a2.91,2.91,0,0,0,3-2c.08-.19.18-.41.06-.59s-.41-.12-.62-.09c-.68.08-.68.09-.53-.56,0-.22.2-.46,0-.63s-.43,0-.64.05a3.23,3.23,0,0,0-2.2,3.38C552.1,334.29,552.69,333.84,553,334Z"/><path class="cls-18" d="M569.18,331.16a3,3,0,0,0-.41-3.11c-.22-.31-.4-.3-.53.08,0,.11-.11.22-.16.33-.13.36-.3.39-.56.09s-.3-.53-.58-.45-.31.44-.38.72a2.9,2.9,0,0,0,1.45,3.34.32.32,0,0,0,.51-.09Z"/><path class="cls-18" d="M566.26,324.31a3,3,0,0,0-2.13-2.89c-.26-.07-.56-.17-.76,0s0,.43.07.63c.2.49,0,.57-.43.44-.2-.05-.49-.13-.64.06s0,.43.12.63a3,3,0,0,0,3.48,1.62C566.3,324.74,566.25,324.53,566.26,324.31Z"/><path class="cls-18" d="M562.47,337.88a2.94,2.94,0,0,0,1.66-3.19c0-.26-.09-.57-.35-.67s-.39.19-.53.34c-.36.4-.51.29-.59-.19,0-.2-.1-.49-.34-.54s-.37.21-.51.38a2.93,2.93,0,0,0,.08,3.83C562.1,338.11,562.27,338,562.47,337.88Z"/><path class="cls-18" d="M637.43,321a2.93,2.93,0,0,0-1.06-3.43c-.22-.15-.47-.35-.73-.24s-.14.41-.13.62c0,.53-.16.56-.55.28-.18-.12-.42-.28-.62-.15s-.12.41-.1.63a2.94,2.94,0,0,0,2.75,2.67C637.33,321.42,637.35,321.2,637.43,321Z"/><path class="cls-19" d="M567.56,350.49s-.71-54.88,7.71-55.85,20.62,3.22,29,4.08,18.64,0,20.79,19.21c0,0,2.51,25,2.51,32.56Z"/><rect class="cls-20" x="560.5" y="348.72" width="73.04" height="18.28" rx="4.61"/><path class="cls-1" d="M584.52,314.69c0,1.28,0,3.2,0,4.07a2.25,2.25,0,0,1-1.18,2.17,5.31,5.31,0,0,0-.2-.84,4.27,4.27,0,0,1-.13-.95c0-.39,0-.95,0-1.58a16.28,16.28,0,0,0-2.09,0v1.52a1.75,1.75,0,0,1-.29,1.25c-.28.31-.56.36-.76.57a4.57,4.57,0,0,1-.43-1.48c-.07-1.19,0-3.91-.06-4.78a1.25,1.25,0,0,0-.2-.5c-.08-.18,0-.31.18-.44.43-.33.77-.42,1.07-.13a1.84,1.84,0,0,1,.49,1.6v1a18.77,18.77,0,0,1,2.12,0c0-.46,0-.91,0-1.3a1.35,1.35,0,0,0-.23-.9c-.19-.24-.14-.37.12-.63a.67.67,0,0,1,.9-.08A1.42,1.42,0,0,1,584.52,314.69Z"/><path class="cls-1" d="M590.5,320.94a2.68,2.68,0,0,0-.5-.53,2.39,2.39,0,0,1-.54-.86c-.05-.11-.15-.38-.29-.73a2.34,2.34,0,0,1-.24.31c-.15.17-.36.16-.66.13a9.14,9.14,0,0,0-1.38,0q-.12.33-.21.54c-.2.49-.53.76-1.26,1.14-.1-.48-.35-.73-.19-1.2.41-1.21,1.57-4.07,1.88-5.21a.68.68,0,0,0-.06-.53.18.18,0,0,1,0-.23,1.84,1.84,0,0,1,.27-.32.39.39,0,0,1,.58-.07,2.43,2.43,0,0,1,.29.22.73.73,0,0,1,.19.28.46.46,0,0,1,.35.24,46.25,46.25,0,0,1,2.19,5.22A1.49,1.49,0,0,1,590.5,320.94Zm-1.67-3-.8-2.06c-.19.61-.42,1.33-.65,2a7.35,7.35,0,0,1,1.16,0Z"/><path class="cls-1" d="M597,319.22a3.44,3.44,0,0,1-.21,1,1,1,0,0,1-.76.44.47.47,0,0,1-.45-.32,1.06,1.06,0,0,1,0-.19,2.49,2.49,0,0,1-.3-.38c-.49-.82-1.25-2-1.94-3.12,0,.77,0,1.49,0,2a2.45,2.45,0,0,1-1,2.34,2.53,2.53,0,0,0-.34-.89,3.48,3.48,0,0,1-.15-1.43c0-1.26,0-2.67,0-3.64,0-.46,0-.65-.15-.83s-.12-.36.18-.61a.7.7,0,0,1,.94,0,1.5,1.5,0,0,1,.4.4,1.12,1.12,0,0,1,.23.25l2.15,3.43c0-1.08.06-2.32.06-2.73a1.55,1.55,0,0,0-.19-1c-.07-.12,0-.23.11-.36a1.24,1.24,0,0,1,.39-.3.52.52,0,0,1,.6.05,1.4,1.4,0,0,1,.57,1C597.13,315.16,597.07,318.41,597,319.22Z"/><path class="cls-1" d="M602.12,320.5l-.17.05a1.79,1.79,0,0,1-1.17.28c-1.86,0-3-2.37-2.75-4.21a4.34,4.34,0,0,1,1.58-2.83.18.18,0,0,1,.06-.09,1.48,1.48,0,0,1,1-.34c1.43-.05,3,1.5,3.16,3.23C604,318.15,603.33,320,602.12,320.5Zm.15-3.54a2.33,2.33,0,0,0-1.69-2.23,3.18,3.18,0,0,0-1,2c-.2,1.62.63,2.57,1.35,2.63h0A2.23,2.23,0,0,0,602.27,317Z"/><path class="cls-1" d="M610.26,320.33a2.15,2.15,0,0,1-1,.4,1.27,1.27,0,0,1-1.22-.49c-.25-.32-1-1.65-1.47-2.43l-.31.29c0,.23,0,.46,0,.67a7,7,0,0,1-.07,1.12c-.06.4-.35.65-.45,1a2.58,2.58,0,0,1-.87-.95,7.86,7.86,0,0,1-.11-2.05c0-.65,0-.86,0-1.51s0-1.12,0-1.63a1.42,1.42,0,0,0-.09-.59.6.6,0,0,1-.07-.32c0-.11.16-.23.24-.3a1,1,0,0,1,.57-.25c.2,0,.33.19.45.31a1.3,1.3,0,0,1,.32.78c0,.41,0,.82,0,1.17v.72c.61-.63,1.29-1.39,1.59-1.77a3.6,3.6,0,0,0,.47-.8c.06-.16.11-.36.28-.37a2.09,2.09,0,0,1,.76.15.5.5,0,0,1,.27.55,3.61,3.61,0,0,1-.82,1.4c-.23.29-.7.8-1.22,1.33.56.91,1.25,2,1.69,2.57A2.94,2.94,0,0,0,610.26,320.33Z"/><path class="cls-1" d="M584.82,326.22a19.51,19.51,0,0,1-.56,2.22,24.27,24.27,0,0,1-1.32,3.44c-.53,1-.8,1-1.18.86h-.21c-.41-.06-.59-.47-.69-.85s-.14-.56-.31-1.18-1.1-3.59-1.24-3.92a1.68,1.68,0,0,0-.19-.38c-.06-.08-.23-.14-.27-.23s-.07-.38.07-.47a3.14,3.14,0,0,1,1.06-.35.7.7,0,0,1,.59.43,4.9,4.9,0,0,1,.33.75c.33.92.7,2.16,1,3.42,0,.16.08.3.1.43.46-1.28,1-3,1.25-4,.1-.4-.08-.61.19-.78a2.19,2.19,0,0,1,.66-.27.57.57,0,0,1,.49.08A.83.83,0,0,1,584.82,326.22Z"/><path class="cls-1" d="M589.13,331.21a5.17,5.17,0,0,0-.17.61c-.06.32-.15.86-.77.83s-2,0-2.17,0a.53.53,0,0,1-.49-.28,1.15,1.15,0,0,1-.16-.74.43.43,0,0,1,.35-.29l.72,0c0-.27,0-.65,0-1.2,0-1,0-1.48,0-2.08,0-.37,0-.83,0-1.22h-.39c-.25,0-.57,0-.55-.33a3.29,3.29,0,0,1,.17-.8c.11-.26.23-.21.46-.19h.38c.4,0,1.18,0,1.65,0a.6.6,0,0,1,.56.24.42.42,0,0,1,.16.43c-.1.3-.19.62-.5.64l-.49,0c0,.21,0,.43,0,.63,0,1.49,0,1.83,0,2.33,0,.65,0,1.08,0,1.57h.27A2.31,2.31,0,0,0,589.13,331.21Z"/><path class="cls-1" d="M594.36,331a2.68,2.68,0,0,1-.16.69,1.17,1.17,0,0,1-1,.92c-.71.07-2.4,0-2.78,0s-.58-.38-.51-.87a.85.85,0,0,1,.11-.34c0-1.16,0-3.4,0-4.61a1.53,1.53,0,0,0-.13-.68c-.11-.24-.12-.33,0-.49a1.36,1.36,0,0,1,.59-.32c.22-.05.41-.08.55.08a1.87,1.87,0,0,1,.52,1.48c0,1.35,0,3.2-.06,4.3.57,0,1.45,0,1.93,0A3.17,3.17,0,0,0,594.36,331Z"/><path class="cls-1" d="M599.44,331a2.68,2.68,0,0,1-.16.69,1.17,1.17,0,0,1-1,.92c-.71.07-2.4,0-2.78,0s-.58-.38-.51-.87a.85.85,0,0,1,.11-.34c0-1.16,0-3.4,0-4.61a1.53,1.53,0,0,0-.13-.68c-.11-.24-.12-.33,0-.49a1.36,1.36,0,0,1,.59-.32c.22-.05.41-.08.55.08a1.87,1.87,0,0,1,.52,1.48c0,1.35,0,3.2-.06,4.3.57,0,1.45,0,1.93,0A3.17,3.17,0,0,0,599.44,331Z"/><path class="cls-1" d="M605,332.94a2.68,2.68,0,0,0-.5-.53,2.39,2.39,0,0,1-.54-.86c0-.11-.15-.38-.29-.73a2.34,2.34,0,0,1-.24.31c-.15.17-.36.16-.66.13a9.14,9.14,0,0,0-1.38,0q-.12.33-.21.54c-.2.49-.53.76-1.26,1.14-.1-.48-.35-.73-.19-1.2.41-1.21,1.57-4.07,1.88-5.21a.68.68,0,0,0-.06-.53.18.18,0,0,1,0-.23,1.84,1.84,0,0,1,.27-.32.39.39,0,0,1,.58-.07,2.43,2.43,0,0,1,.29.22.73.73,0,0,1,.19.28.46.46,0,0,1,.35.24,46.25,46.25,0,0,1,2.19,5.22A1.49,1.49,0,0,1,605,332.94Zm-1.67-3-.8-2.06c-.19.61-.42,1.33-.65,2a7.35,7.35,0,0,1,1.16,0Z"/><path class="cls-1" d="M611.73,329.47l-.16.15c0,.3,0,.67,0,.8s0,1.05,0,1.29a1.47,1.47,0,0,1-.42.83.91.91,0,0,0-.22.45,1.52,1.52,0,0,1-.63-.65,2.19,2.19,0,0,1-1.38.47c-1.79,0-3-1.56-3-3.74s1.41-3.75,3.27-3.72a2.87,2.87,0,0,1,1.44.37c.3.16.51.32.48.66a3.65,3.65,0,0,0,.18,1.22,2.57,2.57,0,0,0-2.05-.88,2.07,2.07,0,0,0-1.79,2.35c0,1.19.55,2.32,1.55,2.32a1.45,1.45,0,0,0,1.13-.37c0-.49,0-.94,0-1.27l-.5,0a.72.72,0,0,1-.53-.11,1.88,1.88,0,0,1-.6-.59c-.07-.12-.08-.16,0-.26a.72.72,0,0,1,.61-.26,10.62,10.62,0,0,0,1.74-.21.49.49,0,0,1,.45.05,1.86,1.86,0,0,1,.46.57C611.81,329.16,611.88,329.32,611.73,329.47Z"/><path class="cls-1" d="M617.06,331a4,4,0,0,1-.16.62c-.08.2-.33,1-.91,1h-3c-.36,0-.48-.53-.46-.88a.48.48,0,0,1,.16-.35c0-.33,0-.66,0-1,0-.75,0-2.32,0-3.65a.64.64,0,0,1-.12-.22,2.79,2.79,0,0,1-.15-.73c0-.22.38-.39.58-.39s.55,0,.79,0a15.13,15.13,0,0,0,2.23,0c.23,0,.33,0,.47.19a3.87,3.87,0,0,1,.32.57.47.47,0,0,1,.05.38c-.15.27-.57.32-.93.3s-1.1,0-1.71,0c0,.43,0,.92,0,1.4l1.67-.05a.93.93,0,0,1,.86.54c0,.14-.07.34-.29.58a1,1,0,0,1-.85.27c-.2,0-.94,0-1.41,0,0,.36,0,.67,0,.88s0,.54,0,.76c.57,0,1.45,0,2.12,0A1.52,1.52,0,0,0,617.06,331Z"/><path class="cls-21" d="M338,304.85a3.65,3.65,0,0,0-1.83.14,3.78,3.78,0,0,0-1.83,2.14,10.41,10.41,0,0,0-.47,2.4,4.77,4.77,0,0,0,.31,1.91,5.26,5.26,0,0,0,2.14,2.26,5.91,5.91,0,0,0,3.07-.19,7.51,7.51,0,0,0,1.84-2.81,11.89,11.89,0,0,0-.18-3.62,8.81,8.81,0,0,0-1.1-1.43A2.92,2.92,0,0,0,339,305,5.37,5.37,0,0,0,338,304.85Z"/><path class="cls-22" d="M335.45,310.34a1.91,1.91,0,0,0,.77,1.26l0,2.1,1.41,1.41,1-1.15.11-2.27s.93-.47,1.06-1.15,0-.48,0-.48a.87.87,0,0,0,.67-.47,1.56,1.56,0,0,0,0-1.33c-.22-.22-.38-.3-.46-.17-.25.46.43-.73,0-1.21s-.85-1.17-1.47-1.19-.9-.38-1.61,0-1.32.53-1.41,1-.39.46-.39,1,0,.86,0,1-.12-.11-.38,0-.44,0-.48.24a1.93,1.93,0,0,0,.17,1,.64.64,0,0,0,.44.37A2.17,2.17,0,0,0,335.45,310.34Z"/><path class="cls-21" d="M335.24,309a3.85,3.85,0,0,0,3.64-1.9s.23,1.58.88,1.76c0,0,1.37-1,1.37-1.31a3.15,3.15,0,0,0-.83-1.85A2.21,2.21,0,0,0,339,305a5.46,5.46,0,0,0-2.16.21,2.36,2.36,0,0,0-1.34.8c-.42.57-.69.69-.77,1.2A5.07,5.07,0,0,0,335.24,309Z"/><path class="cls-1" d="M335.24,313.65a17,17,0,0,0-2,1.38,21.81,21.81,0,0,0-4.27,7.15c-.06.71.87,8.11.87,8.11l3.44.13-.51-8s6.82.87,8,.21l-.14-4.39a52,52,0,0,1,.86,5.39c-.09.58-1.15,4.73-1.15,4.73l4.08,2s1-6.5.71-7.49-2.42-7.06-5.66-8.58l-1.81.83Z"/><path class="cls-23" d="M340.79,322.63s7.65,14.76,8.59,21,.32,18,0,19.09-26.31.48-26.31-1,2.67-27.43,9.73-39.32Z"/><polygon class="cls-24" points="336.57 319.26 337.17 328.24 338.6 328.17 337.17 318.77 336.57 318.77 336.57 319.26"/><polyline class="cls-24" points="337.17 318.77 340.05 319.2 339.97 320.94 337.27 319.47"/><polygon class="cls-24" points="336.63 318.77 336.31 318.77 335.37 332.66 336.52 332.66 337.09 319.92 337.17 318.77 336.63 318.77"/><line class="cls-25" x1="333.82" y1="317.78" x2="332.8" y2="322.42"/><polygon class="cls-26" points="336.29 313.53 335.24 313.65 337.36 315.81 339.5 314.28 338.69 313.96 337.54 314.67 336.29 313.53"/><path class="cls-1" d="M351.17,331.44s-4.86,24.36,0,27.52h3s3-.59,2.68-8.1-1.36-19.42-1.36-19.42Z"/><path class="cls-27" d="M351.17,359v1.33l-2.79.46s-.53,1,.2,1,4.84.35,5.29,0,.47-.57.47-.8-.2-2-.2-2Z"/><path class="cls-28" d="M348.38,360.75l.2,1a38.7,38.7,0,0,0,5.16-.5l.6-.3s.45.86,0,1.28-.35.51-.79.51-6.18,0-6.56,0a.67.67,0,0,1-.76-.61c0-.38.12-.83.31-.89Z"/><path class="cls-22" d="M349.59,306.47a7.05,7.05,0,0,0,0,1.32c.07.3-.31.3-.31.57s-.32.72.53.91a1.84,1.84,0,0,0,2.12,1.86,3.78,3.78,0,0,1,.38.54c.05.15,3.19-.44,3.54-1.26l-.46-1.2a7,7,0,0,0,.46-2.53c-.16-.85-.35-2.11-1.36-2.53s-3.1-.11-3.53.55A10.41,10.41,0,0,1,349.59,306.47Z"/><path class="cls-21" d="M349.22,306a2,2,0,0,0,2.36,1.61s.59.69.76.92.33-1.27.33-1.27a.61.61,0,0,1,.8,0c.45.34.26,1.08.15,1.28s-.15.24,0,.42.08.6,1.81.24a4.61,4.61,0,0,0,.68-2,4.55,4.55,0,0,0-.45-2.63,4.29,4.29,0,0,0-2.23-1,4.53,4.53,0,0,0-2.49.44c-1.09.59-1.49.74-1.68,1.1A1.46,1.46,0,0,0,349.22,306Z"/><path class="cls-22" d="M341.51,318l-1-.68-.21-1.1-.33-.34-.4-.55s-.41-.06-.42,0-.26.16,0,.41a2.49,2.49,0,0,1,.45.76v.39l-.44.07-.42-.53-.43-.62-.14-.51-.08-.3-.38.08-.32.41v.29l-.19.47.08.63.22.51.25.38.72.58,1.17.33h.44l.75.49"/><polygon class="cls-1" points="352.1 313 352.1 311.75 355.87 310.21 356.52 311.49 352.1 313"/><path class="cls-28" d="M343.86,349.82l6.07-26.06.47-8.24,1.7-2.52,4.42-1.51s3.25,1.71,1.7,11.82l2.37,31.56a5.31,5.31,0,0,1-6.14.29l-1.06-14.33s-1.39,14.37-1.76,14.74S344.53,355.26,343.86,349.82Z"/><polygon class="cls-29" points="350 322.42 358.35 322.42 358.22 323.31 358.35 323.9 349.93 323.76 350 322.42"/><path class="cls-1" d="M348.05,318.27s4.89-5.24,5.42-5.45a3.75,3.75,0,0,1,2.62,0,3,3,0,0,1,.92,3.33c-.6,1.38-5.17,7.51-6.65,7.65a12.29,12.29,0,0,1-10.31-3.38l1.79-2.92Z"/><ellipse class="cls-30" cx="559.37" cy="170.58" rx="19" ry="18.78"/><path class="cls-1" d="M458.59,208.05q-20,0-39.94,0c-7,0-11.53-3.44-11.93-9.24-.42-6,3.31-10,10.5-10.51,3.33-.22,2.59-2.52,3-4.1,3.4-12.9,16.91-18.65,28.23-11.86a17.31,17.31,0,0,1,8.14,10.87c.53,2.08,1,2.81,3.61,2.27,5.67-1.21,9,.74,11.53,6.17.86,1.88,1.57,2.63,3.42,1.43a4,4,0,0,1,.89-.46c5-1.6,8.2,2.82,12,3.63s8.42-2.19,12.46,1.17a9.63,9.63,0,0,1,3.19,4.93c1.29,4.58.55,5.67-4.2,5.68C485.87,208.06,472.23,208,458.59,208.05Z"/><path class="cls-1" d="M592.81,206.68q14.61,0,29.22,0c5.15,0,8.44-2.52,8.73-6.76s-2.42-7.34-7.68-7.69c-2.44-.16-1.9-1.85-2.2-3-2.49-9.44-12.37-13.65-20.66-8.68a12.68,12.68,0,0,0-6,8c-.38,1.52-.76,2-2.64,1.65-4.15-.88-6.62.55-8.43,4.52-.63,1.38-1.15,1.93-2.51,1.05a3.09,3.09,0,0,0-.65-.34c-3.67-1.17-6,2.06-8.79,2.66s-6.17-1.61-9.12.85a7.14,7.14,0,0,0-2.34,3.61c-.94,3.35-.4,4.15,3.08,4.15Q577.83,206.7,592.81,206.68Z"/><path class="cls-1" d="M610.87,214.42h17.26c3,0,5-1.38,5.16-3.7s-1.43-4-4.54-4.21c-1.44-.09-1.12-1-1.3-1.65a8.26,8.26,0,0,0-12.2-4.75,7,7,0,0,0-3.52,4.36c-.23.83-.45,1.12-1.56.9a4,4,0,0,0-5,2.48c-.37.75-.68,1.05-1.48.57a1.88,1.88,0,0,0-.38-.18c-2.17-.65-3.55,1.13-5.2,1.45s-3.64-.88-5.38.47a3.78,3.78,0,0,0-1.38,2c-.56,1.83-.24,2.27,1.82,2.27Z"/><path class="cls-1" d="M408.38,215.67H386.5c-3.86,0-6.32-1.74-6.54-4.69s1.81-5.11,5.75-5.35c1.83-.11,1.42-1.28,1.65-2.08,1.86-6.56,9.27-9.48,15.47-6a8.89,8.89,0,0,1,4.47,5.53c.29,1,.57,1.42,2,1.15,3.11-.61,5,.38,6.31,3.14.48.95.86,1.33,1.88.72a2.19,2.19,0,0,1,.49-.23c2.75-.82,4.49,1.43,6.59,1.85s4.61-1.12,6.82.59a4.83,4.83,0,0,1,1.75,2.5c.71,2.33.31,2.89-2.3,2.89Z"/><path class="cls-1" d="M534.62,168.21c-4.91,0-9.82,0-14.73,0-2.6,0-4.25-1.17-4.4-3.16s1.22-3.43,3.87-3.6c1.23-.07,1-.86,1.11-1.4A7.06,7.06,0,0,1,530.89,156a6,6,0,0,1,3,3.72c.2.72.38,1,1.33.78a3.41,3.41,0,0,1,4.25,2.11c.32.64.58.9,1.27.49a1.91,1.91,0,0,1,.32-.16c1.86-.55,3,1,4.44,1.25s3.1-.76,4.59.39a3.34,3.34,0,0,1,1.18,1.69c.48,1.57.2,1.94-1.55,1.94Z"/></g><path d="M105.68,205.73a1.16,1.16,0,0,1-1.72,0l-2.33-2.18c-.46-.46-.41-.95.15-1.48a33.51,33.51,0,0,0,5.49-6.52,35.32,35.32,0,0,0,3.65-7.61,36.87,36.87,0,0,0,1.71-7.34,56.65,56.65,0,0,0,.37-8.13.72.72,0,0,1,.22-.52.69.69,0,0,1,.47-.22l4.4.15a.57.57,0,0,1,.44.22.77.77,0,0,1,.2.52,65.35,65.35,0,0,1-.89,11.17,22.74,22.74,0,0,0,1.48,4.77,32.08,32.08,0,0,0,2.45,4.59,34.32,34.32,0,0,0,3,4.08,24,24,0,0,0,3.26,3.16c.52.39.56.92.1,1.58l-2.08,2.52a1,1,0,0,1-.67.4,1.35,1.35,0,0,1-.91-.3,22.52,22.52,0,0,1-2.59-2.37,34.22,34.22,0,0,1-2.6-3.09,38.08,38.08,0,0,1-2.27-3.41,20.32,20.32,0,0,1-1.63-3.38,34.91,34.91,0,0,1-2,4c-.76,1.28-1.55,2.51-2.39,3.68a33.11,33.11,0,0,1-2.62,3.21A28.59,28.59,0,0,1,105.68,205.73Zm34.74,10.42H136a.56.56,0,0,1-.64-.64V189.37H125.2a.68.68,0,0,1-.47-.2.57.57,0,0,1-.22-.44v-3.51a.52.52,0,0,1,.22-.42.74.74,0,0,1,.47-.17h10.18V169.9a.57.57,0,0,1,.64-.64h4.4a.57.57,0,0,1,.64.64v45.61A.56.56,0,0,1,140.42,216.15Z"/><path d="M191.11,192.76a.77.77,0,0,1-.49.22H171.94v3.65H181a4.17,4.17,0,0,1,2.7.62,3.11,3.11,0,0,1,.66,2.3v5.68a3.07,3.07,0,0,1-.66,2.32,4.25,4.25,0,0,1-2.7.6h-20.8c-.26,0-.43,0-.49.12a1,1,0,0,0-.1.57v1.53c0,.3,0,.47.1.52a1.15,1.15,0,0,0,.54.07h24.56a.79.79,0,0,1,.49.2.6.6,0,0,1,.25.49v3.22a.63.63,0,0,1-.25.47.73.73,0,0,1-.44.22H157.37a3.73,3.73,0,0,1-2.62-.69,3.16,3.16,0,0,1-.69-2.28V207a3.22,3.22,0,0,1,.66-2.27,3.65,3.65,0,0,1,2.6-.69h21a.94.94,0,0,0,.49-.08c.07,0,.1-.24.1-.57V202c0-.36,0-.58-.1-.64s-.25-.1-.54-.1H154.6a.7.7,0,0,1-.47-.2.57.57,0,0,1-.22-.44v-3.31a.58.58,0,0,1,.22-.45.7.7,0,0,1,.47-.2h11.66V193H147.58a.61.61,0,0,1-.69-.69v-3.07a.77.77,0,0,1,.2-.52.66.66,0,0,1,.49-.22h43a.89.89,0,0,1,.74.74v3.07A.63.63,0,0,1,191.11,192.76Zm-6.37-15.64a6.07,6.07,0,0,1-1,3.43,8.64,8.64,0,0,1-3,2.69,17,17,0,0,1-4.87,1.78,34.82,34.82,0,0,1-13.29,0,17,17,0,0,1-4.87-1.78,8.73,8.73,0,0,1-3-2.69,6.07,6.07,0,0,1-1-3.43,5.79,5.79,0,0,1,1-3.31,9,9,0,0,1,3-2.67,17.28,17.28,0,0,1,4.87-1.78,34.82,34.82,0,0,1,13.29,0,17.28,17.28,0,0,1,4.87,1.78,8.9,8.9,0,0,1,3,2.67A5.79,5.79,0,0,1,184.74,177.12ZM169.18,173a21.24,21.24,0,0,0-4,.34,15.43,15.43,0,0,0-3.14.92,6,6,0,0,0-2.07,1.36,2.39,2.39,0,0,0-.75,1.68,2.27,2.27,0,0,0,.75,1.6,6.23,6.23,0,0,0,2.07,1.34,16.12,16.12,0,0,0,3.14.91,22.63,22.63,0,0,0,7.93,0,15.94,15.94,0,0,0,3.16-.91,6.39,6.39,0,0,0,2.08-1.34,2.3,2.3,0,0,0,.74-1.6,2.42,2.42,0,0,0-.74-1.68,6.1,6.1,0,0,0-2.08-1.36,15.27,15.27,0,0,0-3.16-.92A21.37,21.37,0,0,0,169.18,173Z"/><path d="M129.71,244.9a4.34,4.34,0,0,1-1.29.92,4.63,4.63,0,0,1-1.66.46,6,6,0,0,1-1,0c-.38,0-.75-.07-1.11-.13s-.68-.12-1-.19a3.64,3.64,0,0,1-.63-.2,1.5,1.5,0,0,1-.35-.21s0-.14,0-.28l.14-1.44a.21.21,0,0,1,.1-.19c.05,0,.14,0,.29.06a6.24,6.24,0,0,0,.66.22,5.82,5.82,0,0,0,1,.21,7.47,7.47,0,0,0,1.06.11,3.66,3.66,0,0,0,1-.08,3,3,0,0,0,.91-.36,1.72,1.72,0,0,0,.55-.52,1.76,1.76,0,0,0,.28-.66,3.08,3.08,0,0,0,.08-.75,2,2,0,0,0-.47-1,4.74,4.74,0,0,0-1.37-1.16c-.73-.43-1.36-.83-1.89-1.19a9,9,0,0,1-1.31-1.1,3.94,3.94,0,0,1-.76-1.13,3.14,3.14,0,0,1-.25-1.28,3.62,3.62,0,0,1,.33-1.52,3.93,3.93,0,0,1,.94-1.27,4.36,4.36,0,0,1,1.41-.87,5.08,5.08,0,0,1,1.82-.32,8.52,8.52,0,0,1,1.66.13,6.29,6.29,0,0,1,1.11.3.57.57,0,0,1,.27.16.35.35,0,0,1,0,.23l-.26,1.24a.46.46,0,0,1-.12.29q-.09.07-.3,0c-.2-.06-.41-.13-.64-.18l-.72-.15c-.25,0-.48-.06-.71-.08a3.92,3.92,0,0,0-.61,0,2.47,2.47,0,0,0-1.53.71,2.08,2.08,0,0,0-.43,1.35,1.8,1.8,0,0,0,.5,1.08,6.15,6.15,0,0,0,1.48,1.17q1.22.74,2,1.32a7.83,7.83,0,0,1,1.24,1.12,3.21,3.21,0,0,1,.64,1.08,3.7,3.7,0,0,1,.18,1.18A4.07,4.07,0,0,1,129.71,244.9Z"/><path d="M141.65,241.06a.29.29,0,0,1-.09.23.29.29,0,0,1-.19.08H135a3.48,3.48,0,0,0,.81,2.12,2.48,2.48,0,0,0,2,.83,7.45,7.45,0,0,0,1.46-.17,4.7,4.7,0,0,0,1.49-.57c.1-.05.15,0,.18,0a.87.87,0,0,1,0,.25v1.34a.49.49,0,0,1-.06.27.67.67,0,0,1-.23.2,4.5,4.5,0,0,1-1.37.44,9.52,9.52,0,0,1-1.6.14,4.49,4.49,0,0,1-3.64-1.45,6.37,6.37,0,0,1-1.24-4.24,7.86,7.86,0,0,1,.28-2.05,5.64,5.64,0,0,1,.82-1.81,4.22,4.22,0,0,1,1.41-1.28,4.05,4.05,0,0,1,2-.49,4.15,4.15,0,0,1,2,.45,3.9,3.9,0,0,1,1.35,1.2,5,5,0,0,1,.75,1.77,9.26,9.26,0,0,1,.24,2.15c0,.1,0,.2,0,.32S141.65,241,141.65,241.06Zm-4.25-4.27a1.85,1.85,0,0,0-.94.23,2.69,2.69,0,0,0-.7.6,3.22,3.22,0,0,0-.47.86,4.8,4.8,0,0,0-.26,1h4.44a3.48,3.48,0,0,0-.12-.86,3.17,3.17,0,0,0-.38-.86,2.27,2.27,0,0,0-.64-.67A1.59,1.59,0,0,0,137.4,236.79Z"/><path d="M152.24,244.45a4.51,4.51,0,0,1-1.66,1.33,5.52,5.52,0,0,1-4.39,0,4.29,4.29,0,0,1-1.59-1.22,5.2,5.2,0,0,1-1-1.8,7.69,7.69,0,0,1,0-4.39,5.11,5.11,0,0,1,1-1.8,4.54,4.54,0,0,1,1.58-1.21,5.05,5.05,0,0,1,2.2-.45,5.12,5.12,0,0,1,2.2.45,4.67,4.67,0,0,1,1.59,1.21,5.45,5.45,0,0,1,1,1.8,7.63,7.63,0,0,1,0,4.34A5.36,5.36,0,0,1,152.24,244.45Zm-3.86-7.62a2.52,2.52,0,0,0-1.31.33,2.65,2.65,0,0,0-.9.86,4.34,4.34,0,0,0-.53,1.2,5.67,5.67,0,0,0-.17,1.35,5.55,5.55,0,0,0,.17,1.35,4.47,4.47,0,0,0,.53,1.22,2.68,2.68,0,0,0,.9.87,2.77,2.77,0,0,0,2.62,0,2.68,2.68,0,0,0,.9-.87,4.18,4.18,0,0,0,.53-1.22,5.37,5.37,0,0,0,0-2.68,4.06,4.06,0,0,0-.53-1.2,2.68,2.68,0,0,0-.9-.87A2.41,2.41,0,0,0,148.38,236.83Z"/><path d="M162.63,245.93a.31.31,0,0,1-.17-.05.13.13,0,0,1,0-.15V245a3.33,3.33,0,0,1-1.24,1,3.62,3.62,0,0,1-1.52.33,3.48,3.48,0,0,1-2.82-1.11,4.77,4.77,0,0,1-.93-3.16v-6.5a.34.34,0,0,1,.07-.19.23.23,0,0,1,.17-.08h1.59a.22.22,0,0,1,.17.09.34.34,0,0,1,.08.2v6.17a3.37,3.37,0,0,0,.48,2.06,1.67,1.67,0,0,0,1.4.6,2.21,2.21,0,0,0,1.74-.8,3.53,3.53,0,0,0,.69-2.37v-5.68a.28.28,0,0,1,.07-.19.21.21,0,0,1,.16-.08h1.61a.2.2,0,0,1,.17.1.44.44,0,0,1,.07.21v7.92c0,.4,0,.79,0,1.18s0,.74,0,1.07c0,.17-.07.25-.21.25Z"/><path d="M167.6,246a.2.2,0,0,1-.22-.23v-15.3a.28.28,0,0,1,.07-.17.25.25,0,0,1,.17-.06h1.63a.23.23,0,0,1,.16.06.23.23,0,0,1,.07.17v15.3a.24.24,0,0,1-.23.23Z"/><path d="M279.29,244a2.36,2.36,0,0,1-1.18.89,4.67,4.67,0,0,1-1.57.27h-.68a4.49,4.49,0,0,1-.63-.06c-.25-.07-.38-.19-.38-.37v-1.59a.17.17,0,0,1,0-.12.13.13,0,0,1,.1,0l.2,0a2.77,2.77,0,0,0,.63.1l.59,0a1.18,1.18,0,0,0,1-.46,2.81,2.81,0,0,0,.36-1.66V230.59a.2.2,0,0,1,.08-.17.28.28,0,0,1,.17-.07h1.73a.28.28,0,0,1,.17.07.23.23,0,0,1,.08.17v10.32a9.72,9.72,0,0,1-.15,1.74A3.81,3.81,0,0,1,279.29,244Z"/><path d="M291.29,240.1a.29.29,0,0,1-.09.23.29.29,0,0,1-.18.08h-6.39a3.56,3.56,0,0,0,.81,2.12,2.48,2.48,0,0,0,2,.83,7.45,7.45,0,0,0,1.46-.17,4.86,4.86,0,0,0,1.5-.57c.09-.05.14,0,.17,0a.6.6,0,0,1,0,.25v1.34a.49.49,0,0,1-.06.27.67.67,0,0,1-.23.2,4.79,4.79,0,0,1-1.37.44,9.52,9.52,0,0,1-1.6.14,4.49,4.49,0,0,1-3.64-1.45,6.37,6.37,0,0,1-1.23-4.24,8,8,0,0,1,.27-2.06,5.69,5.69,0,0,1,.82-1.8,4.22,4.22,0,0,1,1.41-1.28,4.05,4.05,0,0,1,2-.49,4.15,4.15,0,0,1,2,.45,3.9,3.9,0,0,1,1.35,1.2,5,5,0,0,1,.75,1.77,9.26,9.26,0,0,1,.24,2.15c0,.09,0,.2,0,.31S291.29,240.05,291.29,240.1ZM287,235.83a1.85,1.85,0,0,0-.94.23,2.34,2.34,0,0,0-.69.6,3,3,0,0,0-.48.86,4.8,4.8,0,0,0-.26,1h4.44a3.48,3.48,0,0,0-.12-.86,3.17,3.17,0,0,0-.38-.86,2.27,2.27,0,0,0-.64-.67A1.59,1.59,0,0,0,287,235.83Z"/><path d="M301.89,243.49a4.63,4.63,0,0,1-1.67,1.33,5.52,5.52,0,0,1-4.39,0,4.37,4.37,0,0,1-1.59-1.22,5.2,5.2,0,0,1-1-1.8,7.69,7.69,0,0,1,0-4.39,5,5,0,0,1,1-1.8,4.54,4.54,0,0,1,1.58-1.21A5.05,5.05,0,0,1,298,234a5.12,5.12,0,0,1,2.2.45,4.67,4.67,0,0,1,1.59,1.21,5,5,0,0,1,1,1.8,7.43,7.43,0,0,1,.32,2.19,7.12,7.12,0,0,1-.31,2.15A5.55,5.55,0,0,1,301.89,243.49ZM298,235.87a2.52,2.52,0,0,0-1.31.33,2.65,2.65,0,0,0-.9.86,4,4,0,0,0-.52,1.2,5.15,5.15,0,0,0,0,2.7,4,4,0,0,0,.52,1.21,2.61,2.61,0,0,0,.9.88,2.77,2.77,0,0,0,2.62,0,2.73,2.73,0,0,0,.91-.88,4.26,4.26,0,0,0,.52-1.21,5.21,5.21,0,0,0,.17-1.35,5.11,5.11,0,0,0-.17-1.33,4.19,4.19,0,0,0-.52-1.2,2.8,2.8,0,0,0-.91-.87A2.41,2.41,0,0,0,298,235.87Z"/><path d="M312.17,245a.19.19,0,0,1-.16-.09.27.27,0,0,1-.07-.18v-6.18a3.56,3.56,0,0,0-.44-2,1.53,1.53,0,0,0-1.37-.62,2.37,2.37,0,0,0-1.89.7,3.06,3.06,0,0,0-.61,2v6.08c0,.17-.08.25-.23.25h-1.61a.21.21,0,0,1-.17-.09.34.34,0,0,1-.07-.18V237c0-.49,0-1,0-1.41a9.55,9.55,0,0,0-.05-1.07c0-.17.07-.26.28-.26h1.53c.14,0,.2.06.18.16l0,.71a4.5,4.5,0,0,1,1.16-.8,3.42,3.42,0,0,1,1.57-.34,3.63,3.63,0,0,1,2.85,1.1,4.63,4.63,0,0,1,1,3.17v6.49c0,.17-.08.25-.24.25Z"/><path d="M319,246.89a1.88,1.88,0,0,1-.82.85,2.44,2.44,0,0,1-1.21.3h-.63a1.63,1.63,0,0,1-.46-.09.27.27,0,0,1-.18-.27v-1.24q0-.18.24-.18a1.86,1.86,0,0,0,1-.05.64.64,0,0,0,.44-.49,5.82,5.82,0,0,0,.05-.69c0-.35,0-.72,0-1.12v-9.37c0-.17.08-.26.24-.26h1.63c.14,0,.21.09.21.26V244a12.4,12.4,0,0,1-.11,1.69A3.36,3.36,0,0,1,319,246.89Zm-.52-14.73a1.31,1.31,0,0,1-.94-.37,1.34,1.34,0,0,1,0-1.87,1.24,1.24,0,0,1,.94-.38,1.28,1.28,0,0,1,.94.38,1.29,1.29,0,0,1,0,1.87A1.36,1.36,0,0,1,318.5,232.16Z"/><path d="M329.25,245a.28.28,0,0,1-.16-.05s-.06-.08,0-.15V244a3.37,3.37,0,0,1-1.23,1,3.66,3.66,0,0,1-1.53.33,3.46,3.46,0,0,1-2.81-1.11,4.77,4.77,0,0,1-.93-3.16v-6.5a.28.28,0,0,1,.07-.19.19.19,0,0,1,.16-.09h1.59a.24.24,0,0,1,.18.1.34.34,0,0,1,.08.2v6.17a3.4,3.4,0,0,0,.47,2.06,1.7,1.7,0,0,0,1.41.6,2.21,2.21,0,0,0,1.74-.8,3.58,3.58,0,0,0,.68-2.37v-5.68a.34.34,0,0,1,.07-.19.21.21,0,0,1,.17-.09h1.61a.19.19,0,0,1,.16.11.35.35,0,0,1,.07.21v7.92c0,.4,0,.79,0,1.18s0,.74,0,1.07c0,.17-.07.25-.21.25Z"/><path d="M262.13,197.25a.87.87,0,0,1-.77-.54l-1.48-2.42a1,1,0,0,1-.13-.82,1.15,1.15,0,0,1,.57-.66,35.82,35.82,0,0,0,5.24-3.17,36.45,36.45,0,0,0,4.57-3.9,32,32,0,0,0,3.56-4.25,19.25,19.25,0,0,0,2.25-4.2,2,2,0,0,0,.17-.81q0-.33-.87-.33H263.09a.62.62,0,0,1-.52-.22.79.79,0,0,1-.17-.52V172.1c0-.46.24-.69.74-.69H278.8a5.12,5.12,0,0,1,3.21.82,2.34,2.34,0,0,1,.79,2.39,10.08,10.08,0,0,1-.24,1.09q-.15.54-.3,1a20,20,0,0,1-1.58,3.83,34.8,34.8,0,0,1-2.42,3.88,23.75,23.75,0,0,0,2,2c.76.66,1.54,1.3,2.35,1.9s1.61,1.18,2.4,1.71,1.51,1,2.17,1.33a.93.93,0,0,1,.4,1.49L286,195.33a1.09,1.09,0,0,1-1.54.29,18.06,18.06,0,0,1-2.1-1.26q-1.2-.81-2.52-1.83c-.87-.67-1.72-1.39-2.57-2.14s-1.58-1.49-2.24-2.18a41.55,41.55,0,0,1-5.59,4.94,40.28,40.28,0,0,1-6.52,3.95A1.69,1.69,0,0,1,262.13,197.25ZM299,214.15a.84.84,0,0,1-.47.15H272.82a4.19,4.19,0,0,1-3-.79,3.86,3.86,0,0,1-.76-2.72V200a.76.76,0,0,1,.69-.69H274a.7.7,0,0,1,.52.22.65.65,0,0,1,.22.47v8.75a.8.8,0,0,0,.2.64,1.3,1.3,0,0,0,.74.15h22.88a.71.71,0,0,1,.47.19.63.63,0,0,1,.22.45v3.51A.52.52,0,0,1,299,214.15ZM283.59,184.8v-3.41a.53.53,0,0,1,.23-.42.75.75,0,0,1,.47-.17h7.85V168.89a.57.57,0,0,1,.65-.64h4.39a.56.56,0,0,1,.64.64V201a.56.56,0,0,1-.64.64h-4.39a.57.57,0,0,1-.65-.64V185.44h-7.85a.67.67,0,0,1-.47-.19A.6.6,0,0,1,283.59,184.8Z"/><path d="M348.67,197.94a.71.71,0,0,1-.5.25H329.54V214.1a.61.61,0,0,1-.69.69h-4.3a.61.61,0,0,1-.69-.69V198.19H305.14a.6.6,0,0,1-.5-.25.77.77,0,0,1-.2-.49v-3.21a.77.77,0,0,1,.2-.52.63.63,0,0,1,.5-.22h43a.84.84,0,0,1,.74.74v3.21A.69.69,0,0,1,348.67,197.94Zm-37.85-8.79a1.06,1.06,0,0,1-.79-.1,1,1,0,0,1-.45-.49l-1.13-3a.69.69,0,0,1,.14-.64,1.16,1.16,0,0,1,.5-.44c2.3-.57,4.56-1.2,6.77-1.91s4.26-1.46,6.18-2.27a50.78,50.78,0,0,0,5.16-2.52,23.53,23.53,0,0,0,3.83-2.64c.36-.3.56-.54.59-.72s-.23-.27-.79-.27H312.74a.57.57,0,0,1-.64-.64v-3.36c0-.4.22-.6.64-.6H336a6.65,6.65,0,0,1,3.09.62,1.83,1.83,0,0,1,1.16,1.61,3.49,3.49,0,0,1-.47,1.65,12.44,12.44,0,0,1-.87,1.41,23.83,23.83,0,0,1-6.22,5.48c.89.33,1.83.67,2.84,1s2,.68,3.06,1,2.07.63,3.09.89,2,.48,2.87.64a1,1,0,0,1,.54.37.68.68,0,0,1,.05.67l-1.19,3a.91.91,0,0,1-1.08.65c-1-.2-2.1-.48-3.34-.84s-2.52-.79-3.85-1.26-2.69-1-4-1.56-2.68-1.12-3.93-1.68a69.32,69.32,0,0,1-8.28,3.43A87.08,87.08,0,0,1,310.82,189.15Z"/><polygon points="218.38 180.98 231.08 193.68 218.38 206.37 218.38 180.98"/><path class="cls-31" d="M58.32,51.84h578a17.6,17.6,0,0,1,17.6,17.6v56.84a0,0,0,0,1,0,0H40.73a0,0,0,0,1,0,0V69.44A17.6,17.6,0,0,1,58.32,51.84Z"/><path class="cls-31" d="M40.73,374.31H653.91a0,0,0,0,1,0,0v56.32a17.53,17.53,0,0,1-17.53,17.53H58.25a17.53,17.53,0,0,1-17.53-17.53V374.31A0,0,0,0,1,40.73,374.31Z"/><path d="M127.45,91.86a3.93,3.93,0,0,1-3.92-4.25V81.93a4.53,4.53,0,0,1,4.16-4.48h2.14a4.39,4.39,0,0,1,4.06,4.48v5.85a3.94,3.94,0,0,1-3.78,4.08Zm1.69-2.49a2.1,2.1,0,0,0,2-2.09V82.17a2.07,2.07,0,0,0-2-1.94h-.76a2.12,2.12,0,0,0-2.07,1.9v5.38a1.89,1.89,0,0,0,1.83,1.86Zm12.25,7h-3.33V89.72H135V86.94h3.06V84.48H135V81.67h3.06V76.43h3.33Z"/><path d="M154.61,77.8V80h-1.43a4.19,4.19,0,0,1,.55,2.19v2.09a3.46,3.46,0,0,1-3.58,3.44h-2.21c-1.71,0-3.11-1.14-3.11-3.4V82.2a3.64,3.64,0,0,1,.69-2.19h-1.76V77.8h3.87V76.4h3.3v1.4ZM151,82.41c0-.78-.31-1.4-1.1-1.4h-1.09c-.78,0-1.19.62-1.19,1.4v1.66a1.08,1.08,0,0,0,1.24,1.19h.9A1.15,1.15,0,0,0,151,84Zm8.45,7.27a2.63,2.63,0,0,1,2.78,2.44v1.95a2.37,2.37,0,0,1-2.54,2.3h-9.22a2.8,2.8,0,0,1-2.61-2.28v-2c.26-1.71,2.26-2.44,3.28-2.44Zm-7.34,2.46c-.92,0-1.07.38-1.23.69l0,.62c.29.64.62.62,1.26.62h6.34c.55,0,1-.17,1-.62V93a1,1,0,0,0-1-.86ZM162.28,76.4V87.94h-2.71v-4h-1.76v4h-2.7V76.4h2.7v5.25h1.76V76.4Z"/><path d="M174.57,95.29h-2.09V91.71a8.94,8.94,0,0,1-5,1.85,16.33,16.33,0,0,1-3,0V91.66c3.08.61,7.15-.88,8-1.21V83.52h2.12Zm-5.81-11.46a1.84,1.84,0,0,1,1.9,1.91v1.9a1.84,1.84,0,0,1-2.06,1.91h-1.67a1.85,1.85,0,0,1-2-1.76V85.74a1.9,1.9,0,0,1,2-1.91Zm.21,2.28a.79.79,0,0,0-.81-.8h-.6a.85.85,0,0,0-.88.8v1.16a.85.85,0,0,0,.88.81h.6a.79.79,0,0,0,.81-.81Z"/><path d="M187,77.21v9.5H177v-9.5H180v2.61h3.89V77.21ZM178.4,91.38h10.78V90.29H178.4V88.37h14.08V93.5H181.42v.9h11.06v2.23H178.4Zm5.53-7.09v-2H180v2Zm11.3-.91H192.5v3.71h-3V76.38h3v4.2h2.73Z"/><path d="M203.83,80.91c-.1,1.43-.17,6.89,3.75,8.22v2.75a8.8,8.8,0,0,1-2.23-.85,6.23,6.23,0,0,1-3.09-3.49,6,6,0,0,1-3.11,3.58,7.84,7.84,0,0,1-2.23.76V89.13c3.91-1.33,3.75-6.79,3.65-8.22h-3.68V78.26h10.73v2.65Zm11.91,2.16v3.07h-3V96.39h-3.3V76.66h3.3v6.41Z"/><path d="M235,87.44h-7.62v2h6v2.25a10.47,10.47,0,0,1-.52,3,13.65,13.65,0,0,1-.48,1.28h-2.92a9.21,9.21,0,0,0,.93-2.7,6.7,6.7,0,0,0,.09-1.14H219V89.44h5.35v-2h-7.18V84.78h11.78a17.56,17.56,0,0,0,.81-3.65,11.85,11.85,0,0,0,.09-1.52h-10.7V76.88H233v2.49a28.29,28.29,0,0,1-1,5.41h3Z"/><path class="cls-32" d="M104.67,79.06c.18-.18.44-.33.51-.55s-.2-.37-.36-.52-.65-.47-.94-.74-.12-.36.16-.42a1,1,0,0,1,1.19.56l.72,1.28a1.1,1.1,0,0,0,1,.54,5.65,5.65,0,0,1,1.06.2c.25,0,.49.13.74.16.72.08,1,.36.88,1a1,1,0,0,1-1.24.83c-.43-.13-.89.63-1.31.44s-1-.42-1.16.06c-1,3.56-1.06-.83-1.46-1.2a8.2,8.2,0,0,1-.88-1,2.29,2.29,0,0,0-2.51-.91L98,79.51a2.53,2.53,0,0,0-1.41,1c-.38.48-.73,1-1.1,1.46a4.31,4.31,0,0,0-.88,2.56c0,.43-.1.86-.11,1.29a4.94,4.94,0,0,0,1.73,4.23,3.46,3.46,0,0,0,3.2.79,1.82,1.82,0,0,1,2.29,1.32,17.86,17.86,0,0,1,.72,3,12.16,12.16,0,0,1-.15,2.07,3.25,3.25,0,0,0,.09,1.08c.29.93.63,1.84,1,2.76a6.67,6.67,0,0,0,.29.74,1,1,0,0,0,1.44.66,7.24,7.24,0,0,0,3.76-2.71c.29-.4-1.71-10.17,4-9.77.12,0,.17-.17.25-.26a1.21,1.21,0,0,0,.1-1.86c-.16-.23-.34-.45-.48-.69a.6.6,0,0,1,.31-1,1.57,1.57,0,0,0,1-1.15,9.24,9.24,0,0,1,.29-.89c.11-.3.35-.35.56-.14a1.53,1.53,0,0,1,.49.8c.06,1.44.13,2.89,0,4.34a16.92,16.92,0,0,1-1.84,6.67,19.52,19.52,0,0,1-14.62,11,19.31,19.31,0,0,1-13.36-2.4c-.17-.1-.39-.25-.43-.42a10.05,10.05,0,0,1-.27-2c0-.72.58-1.14,1.1-1.54s1.15-.79,1.69-1.22a5.07,5.07,0,0,0,1.74-5.57,1.6,1.6,0,0,0-.78-1c-.5-.26-1-.56-1.5-.78A5,5,0,0,1,85,90.21a5.3,5.3,0,0,0-1.82-1.67C82.09,88,81,87.34,79.9,86.86a2.73,2.73,0,0,1-1.15-4.39c.68-.85,1.46-1.6,2.2-2.39.39-.43.8-.84,1.16-1.28a3,3,0,0,1,1.61-1.11,12.76,12.76,0,0,0,1.8-.76A2.34,2.34,0,0,0,87,74.73c0-.29.06-.59.1-.88a2.24,2.24,0,0,0-.28-1.49,2.13,2.13,0,0,1-.31-1.83,1,1,0,0,1,.44-.56,4,4,0,0,1,2.24-.41c.66.06.78.26.7.91s-.19,1.47-.23,2.21.08.74.69.63c.88-.15,1.76-.37,2.64-.57s2-.44,3-.69A3.39,3.39,0,0,0,98.35,70a1.14,1.14,0,0,0-.2-1.14c-.35-.5-.75-1-1.12-1.45,2.42-.65,10.86,3.1,12.26,5.49a2.16,2.16,0,0,1-1.46-.19c-1.09-.49-2.18-1-3.26-1.51a1.18,1.18,0,0,0-1,0c-.53.23-1.07.44-1.6.66-.76.3-.92.67-.62,1.43s.18.65-.29,1.14.6,2.18,1.24,2.59c.42.27.86.53,1.3.77s1.11.46.9,1.29Z"/><path class="cls-32" d="M75.67,85.69a5.73,5.73,0,0,1,1.41,2.61c.34,1.29.72,2.57.94,3.88a6,6,0,0,0,1.64,3.19,4,4,0,0,1,1.15,2.34,9.35,9.35,0,0,0,2.44,4.86,5.44,5.44,0,0,1,.39.55A19.44,19.44,0,0,1,75.67,85.69Z"/><path class="cls-33" d="M92.4,83.24c-1.18-.88-2-1.76-3.3-1.53-1.08.2-1.82,2-1.45,3.05.58,1.65,2.74,2.21,4.23,2A1.84,1.84,0,0,0,93.46,84C93.2,83.57,92.58,83.48,92.4,83.24Z"/><path class="cls-33" d="M94.21,79.78c-.52-.45-.88-1.21-1.56-1.24a1.65,1.65,0,0,0-1.45,2.11,3,3,0,0,0,2.85,1.9,1.22,1.22,0,0,0,1.06-1.83c-.19-.38-.37-.39-.61-.75C94.48,80,94.23,79.77,94.21,79.78Z"/><path class="cls-33" d="M94.81,79.18a7.13,7.13,0,0,0,1.16.45,1,1,0,0,0,1.25-1.31A2.5,2.5,0,0,0,95,76.62c-.79,0-1.33.28-1.25,1.07a2,2,0,0,0,.72,1.37S94.82,79.16,94.81,79.18Z"/><path class="cls-33" d="M99.22,75.89a5,5,0,0,0-.51-.27.83.83,0,0,0-1.2.92,1.9,1.9,0,0,0,1.3,1.57.83.83,0,0,0,1.12-1A2.13,2.13,0,0,0,99.22,75.89Z"/><path class="cls-33" d="M109.28,77.37a1.55,1.55,0,0,0,1,.65.63.63,0,0,0,.74-.56,1.53,1.53,0,0,0-1.16-1.56c-.56-.11-.95.4-.76,1A4.41,4.41,0,0,0,109.28,77.37Z"/><path class="cls-33" d="M116.86,87.39a21.32,21.32,0,1,1-21.14-21.5A21.34,21.34,0,0,1,116.86,87.39Zm-12.19-8.33-.19-.07c.21-.83-.39-1-.9-1.29s-.88-.5-1.3-.77c-2.23-1.75-1.55.36-2.51,1-.31.2-.2.14-.77.15-.29,0-.46-.19-.75-.27s-.68-.89-.74-1.28c-.21-1.43,0-1.51,1.45-1.43.82,0,1.5.32,2.08-.77.47-.49.53-.51.29-1.14a1.11,1.11,0,0,1,.61-1.43c.52-.21,1-.41,1.55-.63a1.31,1.31,0,0,1,1.08,0c1.08.52,2.17,1,3.26,1.51a2.16,2.16,0,0,0,1.46.19c-1.4-2.39-9.84-6.14-12.26-5.49.37.48.77,1,1.12,1.45a1.14,1.14,0,0,1,.2,1.14A3.39,3.39,0,0,1,96,72.05c-1,.25-2,.47-3,.69s-1.76.42-2.64.57c-.61.11-.73,0-.69-.63s.14-1.48.23-2.21,0-.85-.7-.91a4,4,0,0,0-2.24.41,1,1,0,0,0-.44.56,2.13,2.13,0,0,0,.31,1.83,2.24,2.24,0,0,1,.28,1.49c0,.29-.08.59-.1.88a2.34,2.34,0,0,1-1.45,2.2,12.76,12.76,0,0,1-1.8.76,3,3,0,0,0-1.61,1.11c-.36.44-.77.85-1.16,1.28-.74.79-1.52,1.54-2.2,2.39a2.73,2.73,0,0,0,1.15,4.39c1.09.47,2.13,1.07,3.18,1.63A5.53,5.53,0,0,1,85,90.21,5,5,0,0,0,87.07,92c.51.22,1,.52,1.5.78a1.6,1.6,0,0,1,.78,1,5.07,5.07,0,0,1-1.74,5.57c-.54.43-1.14.8-1.69,1.22s-1.1.82-1.1,1.54a10.05,10.05,0,0,0,.27,2c0,.17.26.32.43.42a19.21,19.21,0,0,0,13.28,2.41,20.39,20.39,0,0,0,14-9.77,17.43,17.43,0,0,0,2.53-7.92c.08-1.45,0-2.9,0-4.34a1.53,1.53,0,0,0-.49-.8c-.21-.21-.45-.16-.56.14a9.24,9.24,0,0,0-.29.89,1.57,1.57,0,0,1-1,1.15.6.6,0,0,0-.31,1c.14.24.32.46.48.69a1.21,1.21,0,0,1-.1,1.86l-.25.26c-.88,1-3-.86-1.83,3.5a10,10,0,0,1-1,2.94,11.87,11.87,0,0,0-.67,1.87,5.61,5.61,0,0,1-.52,1.46,7.24,7.24,0,0,1-3.76,2.71,1,1,0,0,1-1.44-.66,6.67,6.67,0,0,1-.29-.74c-.33-.92-.67-1.83-1-2.76a3.25,3.25,0,0,1-.09-1.08,12.16,12.16,0,0,0,.15-2.07,17.86,17.86,0,0,0-.72-3,1.82,1.82,0,0,0-2.29-1.32,3.46,3.46,0,0,1-3.2-.79,4.94,4.94,0,0,1-1.73-4.23c0-.43.1-.86.11-1.29A4.31,4.31,0,0,1,95.46,82c.37-.48.72-1,1.1-1.46a2.55,2.55,0,0,1,1.46-1,25,25,0,0,0,2.82-.64,2.31,2.31,0,0,1,2.75.84,8.2,8.2,0,0,0,.88,1c.36.33.34,1.46,1.12.54a1.31,1.31,0,0,1,1.53-.36h0a9.9,9.9,0,0,0,1.27.51,1,1,0,0,0,1.24-.83c.1-.62-.16-.9-.88-1-.25,0-.49-.11-.74-.16a5.65,5.65,0,0,0-1.06-.2,1.1,1.1,0,0,1-1-.54l-.72-1.28a1,1,0,0,0-1.19-.56c-.28.06-.39.21-.16.42s.64.48.94.74.4.4.36.52S104.85,78.88,104.67,79.06Zm-29,6.63a19.44,19.44,0,0,0,8,17.43,5.44,5.44,0,0,0-.39-.55,9.35,9.35,0,0,1-2.44-4.86,4,4,0,0,0-1.15-2.34A6,6,0,0,1,78,92.18c-.22-1.31-.6-2.59-.94-3.88A5.73,5.73,0,0,0,75.67,85.69Z"/><path d="M95.53,65.89a21.32,21.32,0,1,0,21.33,21.32A21.21,21.21,0,0,0,95.53,65.89Zm0,41.16a19.84,19.84,0,1,1,19.82-19.84A19.79,19.79,0,0,1,95.56,107.05Z"/><path d="M603.6,429.85a1.47,1.47,0,0,1-.19-.5q0-18.14,0-36.27v-.45h6.36v36.8c0,.14,0,.28,0,.42Z"/><path d="M499.16,392.63h4.26v37.22h-4.26Z"/><path d="M616.15,429.85V392.62h4.26v37.23Z"/><path d="M531.13,429.85c0-.22,0-.44,0-.65V392.63h4.19v.57q0,18,0,36.05a2.61,2.61,0,0,1-.14.6Z"/><path d="M558.84,429.85a2.38,2.38,0,0,1-.15-.55q0-18.07,0-36.13v-.54h4.2a3.93,3.93,0,0,1,.06.48v36.23a3,3,0,0,1-.09.51Z"/><path d="M569.49,429.85a1.68,1.68,0,0,1-.18-.5q0-18.14,0-36.27v-.45h4.27v.48q0,18.11,0,36.23a4.38,4.38,0,0,1,0,.51Z"/><path d="M578,429.85a1.68,1.68,0,0,1-.18-.5q0-18.14,0-36.27v-.45h4.26v36.71c0,.17,0,.34,0,.51Z"/><path d="M586.55,429.85a1.47,1.47,0,0,1-.19-.5q0-18.14,0-36.27v-.45h4.27v36.71a4.4,4.4,0,0,1,0,.51Z"/><path d="M592.94,429.85c-.07-.17-.21-.33-.21-.49q0-18.15,0-36.29v-.44h4.21a2.84,2.84,0,0,1,.05.42v36.38c0,.14,0,.28,0,.42Z"/><path d="M505.55,429.85c0-.22,0-.44,0-.65V392.62h2.15v37.23Z"/><path d="M611.89,429.85V392.62H614c0,.14,0,.29,0,.44q0,18.18,0,36.37c0,.14,0,.28,0,.42Z"/><path d="M512,429.85V392.62h2.11v.5q0,18.11,0,36.19a1.73,1.73,0,0,1-.21.54Z"/><path d="M522.6,429.85c0-.2,0-.41,0-.61V392.63h2.1v.49q0,18.09,0,36.18a2,2,0,0,1-.18.55Z"/><path d="M541.79,429.85c0-.2,0-.41,0-.61V392.62h2.09v.53q0,18.08,0,36.15a2.34,2.34,0,0,1-.14.55Z"/><path d="M546.05,429.85c0-.2,0-.41,0-.61V392.62h2.09v.53q0,18.08,0,36.15a2.34,2.34,0,0,1-.14.55Z"/><path d="M550.31,429.85c0-.2,0-.41,0-.61V392.62h2.09V429.3a3,3,0,0,1-.14.55Z"/></g></svg>