<svg xmlns="http://www.w3.org/2000/svg" xmlns:xlink="http://www.w3.org/1999/xlink" viewBox="0 0 694.64 500"><defs><style>.cls-1{fill:#fff;}.cls-2{opacity:0.5;}.cls-3{fill:url(#무제_그라디언트_30);}.cls-4{fill:#4278be;}.cls-5{fill:#5d9cd0;}.cls-6{fill:#e17242;}.cls-7{fill:#919394;}.cls-8{fill:none;stroke:#666;stroke-linecap:round;stroke-linejoin:round;stroke-width:1.36px;}.cls-9{fill:#71a8d1;}.cls-10{fill:#f9e2cf;}.cls-11{fill:#edd1d1;}.cls-12{fill:#9c6;}.cls-13{fill:#3f8cb9;}.cls-14{fill:#9bcc60;}</style><linearGradient id="무제_그라디언트_30" x1="347.32" y1="403.41" x2="347.32" y2="119.42" gradientUnits="userSpaceOnUse"><stop offset="0.45" stop-color="#fff"/><stop offset="0.6" stop-color="#fdf9f7"/><stop offset="0.77" stop-color="#f9efe8"/><stop offset="0.78" stop-color="#f8ece6"/><stop offset="0.88" stop-color="#f0d8d6"/><stop offset="0.95" stop-color="#edd1d1"/></linearGradient></defs><g id="레이어_3" data-name="레이어 3"><rect class="cls-1" x="40.73" y="125.19" width="613.18" height="249.96"/><g class="cls-2"><rect class="cls-3" x="40.73" y="125.19" width="613.19" height="307.35"/><path class="cls-4" d="M40.73,319.79s102.49,6.39,145,10.61,176.92,0,184.32,0,153.9-3.3,192,0,91.9-4.09,91.9-4.09v17.83H40.73Z"/><path class="cls-5" d="M593.48,337.68c-17.36-.27-36.13-.36-52.83,0H68.48c-5.43,0,0,0-16.25-1a68.39,68.39,0,0,1-11.5-1.5v93.89H653.91V337.68Z"/><circle class="cls-6" cx="542.78" cy="211.36" r="51.8"/><path class="cls-7" d="M538.16,354.18a1.83,1.83,0,0,0,1.49-1.71c-.13-6.36-.63-34,0-39.35.74-6.07,5.89-24.28,6.62-33.08s4-4,10.22-15.61a1.26,1.26,0,0,1,.19-.28c.6-.73,3.73-4.72,3.53-9.76-.22-5.57-3.36-4.95-4.28-10.93S556.6,240,549,225a.91.91,0,0,1-.07-.14c-.27-.69-2.92-7.12-8.69-6.95-6.08.18-10,7-2.71,21a1.3,1.3,0,0,1,.13.36c.26,1.15,1.48,7.21-.69,7.37-2.4.18-8.72.18-10.68-3.24-1.43-2.48-4.57-3.9-6.18-4.49a1.87,1.87,0,0,1-1.21-1.24c-.47-1.81-1.57-5.8-2.58-7.22a1.53,1.53,0,0,1-.28-.73c-.15-1.68-.74-7.66-1.49-9.91a1.47,1.47,0,0,1,.13-1.19c1.55-2.75,7.12-13.82-1.13-17.41a2.42,2.42,0,0,0-1.07-.19c-2,.1-8.26,1.64-13.45,16.08a9.08,9.08,0,0,0-.47,4.09c.16,1.36.37,3.25.59,5.2s-2.71,2.66-3.93,1.11a10.4,10.4,0,0,0-2-2.06,1.75,1.75,0,0,1-.82-1.19,105.93,105.93,0,0,0-2-11.07,1.48,1.48,0,0,1,.26-1.35c2-2.67,8.54-12.51.15-17.38l-.37-.17c-.69-.26-3-1-4.61.08a2.47,2.47,0,0,1-2.49,0,4.76,4.76,0,0,0-5.53.08c-2.65,2-8.4,6.81-11,9.19a2.45,2.45,0,0,1-2.84.26l-.09-.06c-3.27-1.94-7.88-.51-8.78,2.73-1.42,5.14-3.64,12.11-3,14.32,0,0,3.3,10.35,3.16,12s12.54,15.39,13.09,17.45,18.66,16,22.56,19a19.34,19.34,0,0,1,5.53,6.9,1.72,1.72,0,0,1,.07.21c.25.9,1.89,7,1.51,8.4s-2,6.19-2.26,9.54a12.48,12.48,0,0,1-.78,3.69c-3.46,9-17.18,44.11-22.6,52.82-.64,1,.09,2.28,1.46,2.52C483.89,355.12,515.59,359.85,538.16,354.18Z"/><path class="cls-8" d="M478.17,235.26s.25-.11,0-1.34c-.5-2.15-8.19-7.34-8.19-7.34.14-2.52-3.37-8.65-3.37-8.65,4.39-7.33-2.52-13.39-2.52-13.39"/><path class="cls-8" d="M458,219.54s5.43-2.18,8.63-1.61"/><path class="cls-8" d="M462.27,229.06s5.47-3.28,7.68-2.48"/><path class="cls-8" d="M483.39,195.05s7.38,7.35-5.12,17.73c0,0,1.66,8,.5,11.82a15.3,15.3,0,0,1,6.78,9.65"/><path class="cls-8" d="M471.17,211.84a15.92,15.92,0,0,0,7.1.94"/><path class="cls-8" d="M471.8,224.46s5.35-1,7,.14"/><path class="cls-8" d="M490.86,195.15s10.4,4.21-.15,17.31c0,0,2,12,1.7,12.37,0,0,4.23,3.46,7.55,11-3.35-2-10.42-.91-10.42-.91-3.63-1.51-7.9.13-7.9.13-4.47-1-9.3,3.94-9.3,3.94"/><path class="cls-8" d="M490.71,212.46s-3.76.72-6.56-.62"/><path class="cls-8" d="M492.41,224.83s-2.21-1.43-7.22,0"/><path class="cls-8" d="M513.57,201.88s9.63,1.78,1,18.53c0,0,1.24,6.12,1.77,10.6,0,0,2.48,5.31,2.58,7.19s5,1.15,7.94,6.46A16.77,16.77,0,0,0,537,247.13s1.25-.2.56-7.7c0,0-10.63-19.86,2.71-21"/><path class="cls-8" d="M514.57,220.41a22,22,0,0,0-8.41-1.68"/><path class="cls-8" d="M516.06,230.28a15.35,15.35,0,0,0-9.45-.93"/><path class="cls-8" d="M537.55,239.43s2.71-2.82,11.51-2.27"/><path class="cls-8" d="M537.55,268.48c-.38-13.54-38.17-25.84-38.17-25.84s-9.38-3.9-14.19,4.57"/><path class="cls-8" d="M500,235.8s6.69.3,9.55,2c0,0,7.78-.36,9.83,1.15"/><path class="cls-8" d="M504.45,244.45s4,0,7.58-4.5"/><path class="cls-8" d="M518.6,250.62s-7.84-4.06,3-8.88"/><path class="cls-8" d="M484.15,236.14s5.59-.5,13.09,5.89"/><path class="cls-1" d="M531.56,190.37c-15.9-11.67-19.58,5-19.58,5,7.59-13.51,21-.13,21-.13l-.15-.74.15.43s4.89-18.29,18.23-10.39C551.19,184.56,539.5,171.78,531.56,190.37Z"/><path d="M543.09,180.3c4.53.36,8.1,4.26,8.1,4.26-3.34-2-6.14-2.31-8.48-1.71Z"/><path d="M517.44,187.29c-4.2,2.41-5.46,8.1-5.46,8.1,1.82-3.24,4-4.93,6.19-5.63Z"/><path class="cls-1" d="M569.12,212.55c-3.35-13-12.48-5.79-12.48-5.79,9.82-3.84,11.11,9,11.11,9l.24-.45-.11.29S578.34,208,582,218C582,218,581.31,206.18,569.12,212.55Z"/><path d="M579.53,212.22A9.65,9.65,0,0,1,582,218a7.44,7.44,0,0,0-3.73-4.55Z"/><path d="M563,204.85c-3.25-.54-6.37,1.91-6.37,1.91a7.62,7.62,0,0,1,5.69-.3Z"/><path class="cls-1" d="M542,350.28a2.89,2.89,0,0,1-1.08,2.14,10.39,10.39,0,0,1-2,1.41,27.47,27.47,0,0,1-4.53,1.86,64.18,64.18,0,0,1-9.47,2.14,121,121,0,0,1-19.29,1.28,119.8,119.8,0,0,1-19.26-1.72,64.22,64.22,0,0,1-9.42-2.35,26.62,26.62,0,0,1-4.48-2,10.1,10.1,0,0,1-2-1.45,2.92,2.92,0,0,1-1-2.17,2.71,2.71,0,0,0,1.32,1.84,10.1,10.1,0,0,0,2.07,1.06,28.84,28.84,0,0,0,4.51,1.32,86,86,0,0,0,9.36,1.48c3.14.32,6.3.62,9.46.76s6.33.29,9.5.3,6.34,0,9.51-.08,6.33-.29,9.48-.54a86.82,86.82,0,0,0,9.39-1.27,29.22,29.22,0,0,0,4.54-1.22,10.19,10.19,0,0,0,2.1-1A2.7,2.7,0,0,0,542,350.28Z"/><path class="cls-1" d="M492.1,362.31c-1.27-.1-2.54-.25-3.82-.37l-3.81-.5c-2.53-.38-5.05-.85-7.56-1.39a54.81,54.81,0,0,1-7.38-2.2,19.66,19.66,0,0,1-3.46-1.74,5,5,0,0,1-.78-.59,4.5,4.5,0,0,1-.69-.69A2.36,2.36,0,0,1,464,353a2.39,2.39,0,0,0,.8,1.66,4.17,4.17,0,0,0,.72.6,5.29,5.29,0,0,0,.79.5,19.17,19.17,0,0,0,3.47,1.51,65.93,65.93,0,0,0,7.35,2c1.23.31,2.49.54,3.73.82l3.76.74Z"/><path class="cls-1" d="M549.2,352.26a3.09,3.09,0,0,1-.82,2.14,11.19,11.19,0,0,1-1.62,1.68,23.08,23.08,0,0,1-3.89,2.59,41,41,0,0,1-8.69,3.33,59.59,59.59,0,0,1-9.17,1.57,65.2,65.2,0,0,1-9.27.21c3.09-.15,6.16-.38,9.21-.78a67.38,67.38,0,0,0,9-1.73,44.57,44.57,0,0,0,8.62-3.11,22.92,22.92,0,0,0,3.92-2.36,10.74,10.74,0,0,0,1.7-1.53,4.56,4.56,0,0,0,.66-.92A1.85,1.85,0,0,0,549.2,352.26Z"/><path class="cls-1" d="M479.12,364.7a55,55,0,0,1-5.57-.83,52,52,0,0,1-5.46-1.39,29.32,29.32,0,0,1-5.23-2.14,13,13,0,0,1-2.36-1.61,3.12,3.12,0,0,1-1.24-2.48,3.09,3.09,0,0,0,1.47,2.2,13.5,13.5,0,0,0,2.39,1.38,44.36,44.36,0,0,0,5.2,1.94c1.77.57,3.56,1.05,5.36,1.54Z"/><path class="cls-1" d="M552.25,355.31a2.49,2.49,0,0,1-.49,2,8.06,8.06,0,0,1-1.44,1.53,18.39,18.39,0,0,1-3.51,2.22,30.8,30.8,0,0,1-3.8,1.59,31.83,31.83,0,0,1-4,1.14c1.24-.59,2.5-1.11,3.74-1.67s2.47-1.11,3.67-1.73a28.83,28.83,0,0,0,3.5-2,8,8,0,0,0,1.5-1.29A2.46,2.46,0,0,0,552.25,355.31Z"/><path class="cls-9" d="M40.73,356.12s96.33,0,144.8,6.19c42.36,5.42,177-1.78,184.44-1.79,24.67,0,148.74,8.7,192,6.21,44.76-2.58,91.9-14.47,91.9-14.47v28.21H40.73Z"/><path class="cls-10" d="M595,242.47h25.25c4.45,0,7.29-2.17,7.55-5.84s-2.1-6.35-6.64-6.65c-2.11-.14-1.64-1.59-1.91-2.59-2.15-8.16-10.69-11.79-17.84-7.5a10.94,10.94,0,0,0-5.15,6.88c-.34,1.31-.66,1.77-2.28,1.43-3.59-.76-5.72.47-7.29,3.9-.54,1.19-1,1.67-2.17.91a2,2,0,0,0-.56-.29c-3.17-1-5.18,1.78-7.6,2.29s-5.32-1.38-7.87.74a6.14,6.14,0,0,0-2,3.12c-.82,2.89-.35,3.58,2.66,3.59Z"/><path class="cls-11" d="M487.84,188.94c5.45,0,10.91,0,16.36,0,1.14,0,2.88.61,3.05-1.16s-.87-3.07-2.94-3.29c-3.16-.34-4.81-2.16-6.87-3.76-1.55-1.19-2.54-2.67-3.93-3.91a8.43,8.43,0,0,0-11.65.59,3.69,3.69,0,0,1-2.89,1.44c-2.41.12-3,2.19-4.52,3.16s-4.11,0-5.66,1.56a3.63,3.63,0,0,0-.86,4.25c.69,1.64,2.42,1.12,3.81,1.13C477.11,189,482.47,188.94,487.84,188.94Z"/></g><path d="M105.68,205.72a1.16,1.16,0,0,1-1.72,0l-2.33-2.18c-.46-.46-.41-.95.15-1.48a33.51,33.51,0,0,0,5.49-6.52,35.32,35.32,0,0,0,3.65-7.61,36.87,36.87,0,0,0,1.71-7.34,56.65,56.65,0,0,0,.37-8.13.7.7,0,0,1,.22-.52.69.69,0,0,1,.47-.22l4.4.15a.57.57,0,0,1,.44.22.77.77,0,0,1,.2.52,65.44,65.44,0,0,1-.89,11.17,22.74,22.74,0,0,0,1.48,4.77,32.08,32.08,0,0,0,2.45,4.59,34.32,34.32,0,0,0,3,4.08,24,24,0,0,0,3.26,3.16c.52.39.56.92.1,1.58l-2.08,2.52a1,1,0,0,1-.67.4,1.35,1.35,0,0,1-.91-.3,22.52,22.52,0,0,1-2.59-2.37,34.22,34.22,0,0,1-2.6-3.09,38.08,38.08,0,0,1-2.27-3.41,20.32,20.32,0,0,1-1.63-3.38,34.91,34.91,0,0,1-2,4c-.76,1.28-1.55,2.51-2.39,3.68a33.11,33.11,0,0,1-2.62,3.21A27.2,27.2,0,0,1,105.68,205.72Zm34.74,10.43H136a.56.56,0,0,1-.64-.64V189.37H125.2a.72.72,0,0,1-.47-.2.57.57,0,0,1-.22-.44v-3.51a.52.52,0,0,1,.22-.42.74.74,0,0,1,.47-.17h10.18V169.9a.56.56,0,0,1,.64-.64h4.4a.56.56,0,0,1,.64.64v45.61A.56.56,0,0,1,140.42,216.15Z"/><path d="M191.11,192.76a.77.77,0,0,1-.49.22H171.94v3.65H181a4.17,4.17,0,0,1,2.7.62,3.11,3.11,0,0,1,.66,2.3v5.68a3.09,3.09,0,0,1-.66,2.32,4.25,4.25,0,0,1-2.7.6h-20.8c-.26,0-.43,0-.49.12a1,1,0,0,0-.1.57v1.53c0,.3,0,.47.1.52a1.15,1.15,0,0,0,.54.07h24.56a.79.79,0,0,1,.49.2.6.6,0,0,1,.25.49v3.22a.63.63,0,0,1-.25.47.73.73,0,0,1-.44.22H157.37a3.73,3.73,0,0,1-2.62-.69,3.16,3.16,0,0,1-.69-2.28V207a3.22,3.22,0,0,1,.66-2.27,3.65,3.65,0,0,1,2.6-.69h21a.94.94,0,0,0,.49-.08c.07,0,.1-.24.1-.57V202c0-.36,0-.58-.1-.64s-.25-.1-.54-.1H154.6a.7.7,0,0,1-.47-.2.57.57,0,0,1-.22-.44v-3.31a.58.58,0,0,1,.22-.45.7.7,0,0,1,.47-.2h11.66V193H147.58a.61.61,0,0,1-.69-.69v-3.07a.77.77,0,0,1,.2-.52.63.63,0,0,1,.49-.22h43a.89.89,0,0,1,.74.74v3.07A.63.63,0,0,1,191.11,192.76Zm-6.37-15.64a6.07,6.07,0,0,1-1,3.43,8.64,8.64,0,0,1-3,2.69,17.28,17.28,0,0,1-4.87,1.78,34.82,34.82,0,0,1-13.29,0,17.28,17.28,0,0,1-4.87-1.78,8.73,8.73,0,0,1-3-2.69,6.07,6.07,0,0,1-1-3.43,5.79,5.79,0,0,1,1-3.31,9,9,0,0,1,3-2.67,17.28,17.28,0,0,1,4.87-1.78,34.82,34.82,0,0,1,13.29,0,17.28,17.28,0,0,1,4.87,1.78,8.9,8.9,0,0,1,3,2.67A5.79,5.79,0,0,1,184.74,177.12ZM169.18,173a21.24,21.24,0,0,0-4,.34,15.43,15.43,0,0,0-3.14.92,6,6,0,0,0-2.07,1.36,2.39,2.39,0,0,0-.75,1.67,2.28,2.28,0,0,0,.75,1.61,6.23,6.23,0,0,0,2.07,1.34,16.12,16.12,0,0,0,3.14.91,22.63,22.63,0,0,0,7.93,0,15.94,15.94,0,0,0,3.16-.91,6.39,6.39,0,0,0,2.08-1.34,2.31,2.31,0,0,0,.74-1.61,2.42,2.42,0,0,0-.74-1.67,6.1,6.1,0,0,0-2.08-1.36,15.27,15.27,0,0,0-3.16-.92A21.37,21.37,0,0,0,169.18,173Z"/><path d="M129.71,244.9a4.34,4.34,0,0,1-1.29.92,4.63,4.63,0,0,1-1.66.46,9,9,0,0,1-1,0c-.38,0-.75-.07-1.11-.13s-.68-.12-1-.19a3.64,3.64,0,0,1-.63-.2,1.5,1.5,0,0,1-.35-.21s0-.14,0-.28l.14-1.44a.21.21,0,0,1,.1-.19c.05,0,.14,0,.29.06a6.24,6.24,0,0,0,.66.22,5.82,5.82,0,0,0,1,.21,7.47,7.47,0,0,0,1.06.11,3.66,3.66,0,0,0,1-.08,3,3,0,0,0,.91-.36,1.72,1.72,0,0,0,.55-.52,1.76,1.76,0,0,0,.28-.66,3.08,3.08,0,0,0,.08-.75,2,2,0,0,0-.47-1,4.74,4.74,0,0,0-1.37-1.16c-.73-.43-1.36-.83-1.89-1.19a9,9,0,0,1-1.31-1.1,3.94,3.94,0,0,1-.76-1.13,3.14,3.14,0,0,1-.25-1.28,3.62,3.62,0,0,1,.33-1.52,3.93,3.93,0,0,1,.94-1.27,4.36,4.36,0,0,1,1.41-.87,5.08,5.08,0,0,1,1.82-.32,8.52,8.52,0,0,1,1.66.13,6.29,6.29,0,0,1,1.11.3.57.57,0,0,1,.27.16.35.35,0,0,1,0,.23l-.26,1.24a.46.46,0,0,1-.12.29q-.09.07-.3,0c-.2-.06-.41-.13-.64-.18l-.72-.15c-.25,0-.48-.06-.71-.08a3.92,3.92,0,0,0-.61,0,2.47,2.47,0,0,0-1.53.71,2.08,2.08,0,0,0-.43,1.35,1.8,1.8,0,0,0,.5,1.08,6.15,6.15,0,0,0,1.48,1.17q1.22.74,2,1.32a7.83,7.83,0,0,1,1.24,1.12,3.27,3.27,0,0,1,.64,1.07,3.8,3.8,0,0,1,.18,1.19A4.07,4.07,0,0,1,129.71,244.9Z"/><path d="M141.65,241.06a.29.29,0,0,1-.09.23.29.29,0,0,1-.19.08H135a3.48,3.48,0,0,0,.81,2.12,2.48,2.48,0,0,0,2,.83,7.45,7.45,0,0,0,1.46-.17,4.7,4.7,0,0,0,1.49-.57c.1-.05.15,0,.18,0a.87.87,0,0,1,0,.25v1.34a.49.49,0,0,1-.06.27.67.67,0,0,1-.23.2,4.5,4.5,0,0,1-1.37.44,9.52,9.52,0,0,1-1.6.14,4.49,4.49,0,0,1-3.64-1.45,6.37,6.37,0,0,1-1.24-4.24,7.86,7.86,0,0,1,.28-2.05,5.64,5.64,0,0,1,.82-1.81,4.22,4.22,0,0,1,1.41-1.28,4.05,4.05,0,0,1,2-.49,4.15,4.15,0,0,1,2,.45,3.9,3.9,0,0,1,1.35,1.2,5,5,0,0,1,.75,1.77,9.26,9.26,0,0,1,.24,2.15c0,.1,0,.2,0,.31S141.65,241,141.65,241.06Zm-4.25-4.27a1.85,1.85,0,0,0-.94.23,2.69,2.69,0,0,0-.7.6,3.22,3.22,0,0,0-.47.86,4.8,4.8,0,0,0-.26,1h4.44a3.48,3.48,0,0,0-.12-.86,3.17,3.17,0,0,0-.38-.86,2.27,2.27,0,0,0-.64-.67A1.59,1.59,0,0,0,137.4,236.79Z"/><path d="M152.24,244.45a4.51,4.51,0,0,1-1.66,1.33,5.52,5.52,0,0,1-4.39,0,4.29,4.29,0,0,1-1.59-1.22,5.2,5.2,0,0,1-1-1.8,7.69,7.69,0,0,1,0-4.39,5,5,0,0,1,1-1.8,4.54,4.54,0,0,1,1.58-1.21,5.05,5.05,0,0,1,2.2-.45,5.12,5.12,0,0,1,2.2.45,4.67,4.67,0,0,1,1.59,1.21,5.36,5.36,0,0,1,1,1.8,7.63,7.63,0,0,1,0,4.34A5.36,5.36,0,0,1,152.24,244.45Zm-3.86-7.62a2.52,2.52,0,0,0-1.31.33,2.65,2.65,0,0,0-.9.86,4.34,4.34,0,0,0-.53,1.2,5.67,5.67,0,0,0-.17,1.35,5.61,5.61,0,0,0,.17,1.35,4.27,4.27,0,0,0,.53,1.21,2.61,2.61,0,0,0,.9.88,2.77,2.77,0,0,0,2.62,0,2.61,2.61,0,0,0,.9-.88,4,4,0,0,0,.53-1.21,5.37,5.37,0,0,0,0-2.68,4.06,4.06,0,0,0-.53-1.2,2.68,2.68,0,0,0-.9-.87A2.41,2.41,0,0,0,148.38,236.83Z"/><path d="M162.63,245.93a.31.31,0,0,1-.17-.05.13.13,0,0,1,0-.15V245a3.33,3.33,0,0,1-1.24,1,3.62,3.62,0,0,1-1.52.33,3.48,3.48,0,0,1-2.82-1.11,4.77,4.77,0,0,1-.93-3.16v-6.5a.34.34,0,0,1,.07-.19.2.2,0,0,1,.17-.08h1.59a.22.22,0,0,1,.17.09.34.34,0,0,1,.08.2v6.17a3.37,3.37,0,0,0,.48,2.06,1.67,1.67,0,0,0,1.4.6,2.21,2.21,0,0,0,1.74-.8,3.53,3.53,0,0,0,.69-2.37v-5.68a.28.28,0,0,1,.07-.19.18.18,0,0,1,.16-.08h1.61a.2.2,0,0,1,.17.1.44.44,0,0,1,.07.21v7.92c0,.4,0,.79,0,1.18s0,.74,0,1.07c0,.17-.07.25-.21.25Z"/><path d="M167.6,246a.2.2,0,0,1-.22-.23v-15.3a.28.28,0,0,1,.07-.17.25.25,0,0,1,.17-.06h1.63a.23.23,0,0,1,.16.06.23.23,0,0,1,.07.17v15.3a.24.24,0,0,1-.23.23Z"/><path d="M269.13,177.07a.87.87,0,0,1-.55-.25.75.75,0,0,1-.29-.59v-3a.68.68,0,0,1,.29-.49.87.87,0,0,1,.55-.25h31.18a.72.72,0,0,1,.52.22.74.74,0,0,1,.22.52v3a.77.77,0,0,1-.22.56.73.73,0,0,1-.52.23h-4.94v13.14h5.87a.69.69,0,0,1,.52.22.71.71,0,0,1,.23.52v3a.75.75,0,0,1-.23.56.7.7,0,0,1-.52.23H287.56v8.59h18.68a.89.89,0,0,1,.74.74v3.27a.89.89,0,0,1-.74.74h-43a.64.64,0,0,1-.5-.25.8.8,0,0,1-.19-.49v-3.27a.74.74,0,0,1,.19-.51.66.66,0,0,1,.5-.23h18.68v-8.59H268.19a.81.81,0,0,1-.52-.25.78.78,0,0,1-.27-.59v-3a.68.68,0,0,1,.27-.49.77.77,0,0,1,.52-.25h5.88V177.07Zm10.47,0v13.14h10.23V177.07Z"/><path d="M337.59,180.16a.76.76,0,0,1-.52.22H310.88a.72.72,0,0,1-.54-.25.74.74,0,0,1-.25-.54v-2.77a.78.78,0,0,1,.27-.52.8.8,0,0,1,.57-.27h26.14a.68.68,0,0,1,.52.25.81.81,0,0,1,.22.54v2.82A.76.76,0,0,1,337.59,180.16Zm-13.22,1.9a14.75,14.75,0,0,1,4.2.59A10.82,10.82,0,0,1,332,184.3a8.19,8.19,0,0,1,2.27,2.54,6.53,6.53,0,0,1,.84,3.3,6.69,6.69,0,0,1-.84,3.32,8.32,8.32,0,0,1-2.3,2.59,11,11,0,0,1-3.41,1.67,14.3,14.3,0,0,1-4.22.59,13.88,13.88,0,0,1-4.15-.59,10.58,10.58,0,0,1-3.36-1.67,8.35,8.35,0,0,1-2.27-2.59,6.69,6.69,0,0,1-.84-3.32,6.53,6.53,0,0,1,.84-3.3,8.07,8.07,0,0,1,2.27-2.54,10.76,10.76,0,0,1,3.38-1.65A14.51,14.51,0,0,1,324.37,182.06Zm6.84-8.23a.75.75,0,0,1-.62.27H317.7a.8.8,0,0,1-.47-.2.67.67,0,0,1-.27-.59V170.5a.63.63,0,0,1,.27-.55.87.87,0,0,1,.47-.2h12.89a.86.86,0,0,1,.6.25.78.78,0,0,1,.24.55v2.71A.87.87,0,0,1,331.21,173.83Zm16,34.17a5.63,5.63,0,0,1-1,3.26,8.41,8.41,0,0,1-2.89,2.54,16.51,16.51,0,0,1-4.64,1.66,30.25,30.25,0,0,1-6.23.59,29.88,29.88,0,0,1-6.2-.59,17.34,17.34,0,0,1-4.67-1.66,8.42,8.42,0,0,1-2.94-2.54,5.77,5.77,0,0,1,0-6.52,8.44,8.44,0,0,1,2.94-2.55,17,17,0,0,1,4.67-1.65,29.17,29.17,0,0,1,6.2-.6,29.53,29.53,0,0,1,6.23.6,16.21,16.21,0,0,1,4.64,1.65,8.43,8.43,0,0,1,2.89,2.55A5.59,5.59,0,0,1,347.24,208Zm-22.87-21.59a6.75,6.75,0,0,0-3.83,1,3.12,3.12,0,0,0-1.51,2.73,3.36,3.36,0,0,0,1.51,2.82,7.25,7.25,0,0,0,7.68,0,3.38,3.38,0,0,0,1.48-2.82,3.13,3.13,0,0,0-1.48-2.73A6.73,6.73,0,0,0,324.37,186.41ZM341.32,208c0-1.12-.78-2-2.33-2.67a17.09,17.09,0,0,0-6.52-1,16.8,16.8,0,0,0-6.45,1c-1.53.66-2.29,1.55-2.29,2.67s.76,2,2.29,2.69a16.38,16.38,0,0,0,6.45,1,16.66,16.66,0,0,0,6.52-1C340.54,210,341.32,209.12,341.32,208Zm12.57-20.56a.72.72,0,0,1-.52.2H346.7v10.72a.66.66,0,0,1-.2.47.57.57,0,0,1-.44.22h-4.4a.57.57,0,0,1-.44-.22.72.72,0,0,1-.2-.52V169.85a.57.57,0,0,1,.64-.64h4.4a.57.57,0,0,1,.64.64V182.9h6.67a.85.85,0,0,1,.52.17.52.52,0,0,1,.22.42V187A.57.57,0,0,1,353.89,187.44Z"/><path d="M278.09,240v5.69a.22.22,0,0,1-.25.25h-1.73c-.15,0-.23-.08-.23-.25V231.55a.22.22,0,0,1,.07-.17.24.24,0,0,1,.16-.07H280a5.12,5.12,0,0,1,3.4,1.05,4,4,0,0,1,1.25,3.26,4.7,4.7,0,0,1-.36,1.9,3.66,3.66,0,0,1-1,1.37,4.5,4.5,0,0,1-1.54.84,6.25,6.25,0,0,1-1.93.28Zm0-6.66V238h1.58a3.39,3.39,0,0,0,2.05-.55,2.11,2.11,0,0,0,.76-1.84,2.2,2.2,0,0,0-.6-1.67,2.16,2.16,0,0,0-1.57-.58Z"/><path d="M294.2,244.46a4.73,4.73,0,0,1-1.66,1.33,5.64,5.64,0,0,1-4.39,0,4.42,4.42,0,0,1-1.59-1.23,5.2,5.2,0,0,1-1-1.8,7.69,7.69,0,0,1,0-4.39,5.11,5.11,0,0,1,1-1.8,4.54,4.54,0,0,1,1.58-1.21,5.05,5.05,0,0,1,2.2-.44,5.12,5.12,0,0,1,2.2.44,4.67,4.67,0,0,1,1.59,1.21,5.45,5.45,0,0,1,1,1.8,7.63,7.63,0,0,1,0,4.34A5.52,5.52,0,0,1,294.2,244.46Zm-3.86-7.63a2.52,2.52,0,0,0-1.31.33,2.74,2.74,0,0,0-.9.86,4,4,0,0,0-.52,1.2,5.22,5.22,0,0,0-.18,1.35,5.11,5.11,0,0,0,.18,1.35,4.16,4.16,0,0,0,.52,1.22,2.68,2.68,0,0,0,.9.87,2.77,2.77,0,0,0,2.62,0,2.68,2.68,0,0,0,.9-.87,4.18,4.18,0,0,0,.53-1.22,5.37,5.37,0,0,0,0-2.68,4.06,4.06,0,0,0-.53-1.2,2.68,2.68,0,0,0-.9-.87A2.41,2.41,0,0,0,290.34,236.83Z"/><path d="M304.51,246c-.17,0-.25-.08-.25-.23v-6.22a4.09,4.09,0,0,0-.42-2.12,1.44,1.44,0,0,0-1.33-.67,2.41,2.41,0,0,0-2.58,1.55v7.46a.21.21,0,0,1-.23.23h-1.59a.22.22,0,0,1-.17-.07.24.24,0,0,1-.07-.16v-15.3a.24.24,0,0,1,.07-.16.22.22,0,0,1,.17-.07h1.59a.24.24,0,0,1,.23.23v5.24a4.23,4.23,0,0,1,1.14-.67,3.86,3.86,0,0,1,1.42-.26q3.86,0,3.85,4.75v6.24a.24.24,0,0,1-.07.16.22.22,0,0,1-.17.07Z"/><path d="M315.38,245.93a.29.29,0,0,1-.17,0s0-.07,0-.14v-.88a3,3,0,0,1-1.23,1,3.57,3.57,0,0,1-1.51.34A4.81,4.81,0,0,1,311,246a3.3,3.3,0,0,1-1.15-.64,3,3,0,0,1-.75-1.06,3.71,3.71,0,0,1-.27-1.47,4.08,4.08,0,0,1,.35-1.73,3,3,0,0,1,1.1-1.25,5.33,5.33,0,0,1,1.91-.73,13.37,13.37,0,0,1,2.81-.25,3.61,3.61,0,0,0-.07-.73,2,2,0,0,0-.27-.66,1.31,1.31,0,0,0-.51-.48,1.73,1.73,0,0,0-.83-.18,5,5,0,0,0-1.59.23,6,6,0,0,0-1.33.62.82.82,0,0,1-.41.18c-.08,0-.11-.09-.11-.22v-1.47a1,1,0,0,0,0-.17.16.16,0,0,1,0-.14.87.87,0,0,1,.29-.22,8.64,8.64,0,0,1,1.35-.54,6.08,6.08,0,0,1,1.74-.21,3.91,3.91,0,0,1,2.9,1,4.09,4.09,0,0,1,.94,3v4.6c0,.36,0,.74,0,1.13a9.84,9.84,0,0,0,.07,1c0,.21-.05.31-.22.31ZM312,241.27a1.69,1.69,0,0,0-.94,1.57,1.39,1.39,0,0,0,.43,1.11,1.69,1.69,0,0,0,1.15.37,2.16,2.16,0,0,0,1.77-.82A3.94,3.94,0,0,0,315,241v-.21A6.66,6.66,0,0,0,312,241.27Z"/><path d="M326.83,245.93a.19.19,0,0,1-.16-.09.26.26,0,0,1-.07-.18v-6.17a3.49,3.49,0,0,0-.44-2,1.53,1.53,0,0,0-1.36-.62,2.38,2.38,0,0,0-1.9.7,3.11,3.11,0,0,0-.61,2v6.08c0,.17-.08.25-.23.25h-1.61a.21.21,0,0,1-.17-.09.31.31,0,0,1-.07-.18v-7.73c0-.49,0-1,0-1.41s0-.81,0-1.07.06-.25.27-.25H322q.21,0,.18.15l0,.71a4.5,4.5,0,0,1,1.16-.8,3.55,3.55,0,0,1,1.57-.33A3.63,3.63,0,0,1,327.7,236a4.64,4.64,0,0,1,1,3.18v6.48c0,.17-.08.25-.23.25Z"/><path d="M335.55,249a11,11,0,0,1-1.53-.11,7.18,7.18,0,0,1-1.5-.38,1,1,0,0,1-.24-.15.23.23,0,0,1-.07-.2l.1-1.57c0-.24.15-.31.39-.19a6,6,0,0,0,1.42.49,7,7,0,0,0,1.45.17,2.93,2.93,0,0,0,2-.66,2.46,2.46,0,0,0,.8-1.81,3.11,3.11,0,0,1-1.18.82,3.6,3.6,0,0,1-1.34.27,4.38,4.38,0,0,1-1.81-.38,4.24,4.24,0,0,1-1.43-1,4.7,4.7,0,0,1-.94-1.6,5.82,5.82,0,0,1-.34-2,6.54,6.54,0,0,1,1.15-4.25,4.08,4.08,0,0,1,3.31-1.38,3.64,3.64,0,0,1,.79.1,6.15,6.15,0,0,1,.76.25,4.81,4.81,0,0,1,.68.36,3.54,3.54,0,0,1,.55.44l0-.68a.27.27,0,0,1,0-.21s.1-.06.23-.06h1.53c.16,0,.24.1.24.29v8a5.94,5.94,0,0,1-1.28,4.06A4.75,4.75,0,0,1,335.55,249Zm.48-12.11a2.16,2.16,0,0,0-1.87.89,4.9,4.9,0,0,0-.65,2.83,4.37,4.37,0,0,0,.19,1.32,2.8,2.8,0,0,0,.54,1,2.18,2.18,0,0,0,.78.61,2,2,0,0,0,.92.22,2.29,2.29,0,0,0,1-.22,2.2,2.2,0,0,0,.81-.62,3.16,3.16,0,0,0,.56-1,4.15,4.15,0,0,0,.2-1.34,4.77,4.77,0,0,0-.66-2.72A2.1,2.1,0,0,0,336,236.85Z"/><polygon points="220.64 180.98 233.33 193.68 220.64 206.37 220.64 180.98"/><path class="cls-12" d="M58.32,51.84h578a17.6,17.6,0,0,1,17.6,17.6v56.84a0,0,0,0,1,0,0H40.73a0,0,0,0,1,0,0V69.44A17.6,17.6,0,0,1,58.32,51.84Z"/><path class="cls-12" d="M40.73,374.31H653.91a0,0,0,0,1,0,0v56.32a17.53,17.53,0,0,1-17.53,17.53H58.25a17.53,17.53,0,0,1-17.53-17.53V374.31A0,0,0,0,1,40.73,374.31Z"/><path d="M127.45,91.86a3.93,3.93,0,0,1-3.92-4.25V81.93a4.53,4.53,0,0,1,4.16-4.48h2.14a4.39,4.39,0,0,1,4.06,4.48v5.85a3.94,3.94,0,0,1-3.78,4.08Zm1.69-2.49a2.1,2.1,0,0,0,2-2.09V82.17a2.08,2.08,0,0,0-2-2h-.76a2.13,2.13,0,0,0-2.07,1.91v5.38a1.89,1.89,0,0,0,1.83,1.86Zm12.25,7h-3.33V89.72H135V86.94h3.06V84.47H135v-2.8h3.06V76.43h3.33Z"/><path d="M154.61,77.8V80h-1.43a4.19,4.19,0,0,1,.55,2.19v2.09a3.46,3.46,0,0,1-3.58,3.44h-2.21c-1.71,0-3.11-1.14-3.11-3.4V82.2a3.64,3.64,0,0,1,.69-2.19h-1.76V77.8h3.87V76.4h3.3v1.4ZM151,82.41c0-.78-.31-1.4-1.1-1.4h-1.09c-.78,0-1.19.62-1.19,1.4v1.66a1.08,1.08,0,0,0,1.24,1.19h.9A1.15,1.15,0,0,0,151,84Zm8.45,7.27a2.63,2.63,0,0,1,2.78,2.44v1.95a2.37,2.37,0,0,1-2.54,2.3h-9.22a2.8,2.8,0,0,1-2.61-2.28v-2c.26-1.71,2.26-2.44,3.28-2.44Zm-7.34,2.46c-.92,0-1.07.38-1.23.69l0,.62c.29.64.62.62,1.26.62h6.34c.55,0,1-.17,1-.62V93a1,1,0,0,0-1-.86ZM162.28,76.4V87.94h-2.71v-4h-1.76v4h-2.7V76.4h2.7v5.25h1.76V76.4Z"/><path d="M174.57,95.29h-2.09V91.71a8.94,8.94,0,0,1-5,1.85,16.33,16.33,0,0,1-3,0V91.66c3.08.61,7.15-.88,8-1.21V83.52h2.12Zm-5.81-11.46a1.84,1.84,0,0,1,1.9,1.91v1.9a1.84,1.84,0,0,1-2.06,1.91h-1.67a1.85,1.85,0,0,1-2-1.76V85.74a1.9,1.9,0,0,1,2-1.91Zm.21,2.28a.79.79,0,0,0-.81-.8h-.6a.85.85,0,0,0-.88.8v1.16a.85.85,0,0,0,.88.81h.6a.79.79,0,0,0,.81-.81Z"/><path d="M187,77.21v9.5H177v-9.5H180v2.61h3.89V77.21ZM178.4,91.38h10.78V90.29H178.4V88.37h14.08V93.5H181.42v.9h11.06v2.23H178.4Zm5.53-7.09v-2H180v2Zm11.3-.91H192.5v3.71h-3V76.38h3v4.2h2.73Z"/><path d="M203.83,80.91c-.1,1.43-.17,6.89,3.75,8.22v2.75a8.8,8.8,0,0,1-2.23-.85,6.23,6.23,0,0,1-3.09-3.49,6,6,0,0,1-3.11,3.58,7.84,7.84,0,0,1-2.23.76V89.13c3.91-1.33,3.75-6.79,3.65-8.22h-3.68V78.26h10.73v2.65Zm11.91,2.16v3.07h-3V96.39h-3.3V76.66h3.3v6.41Z"/><path d="M235,87.44h-7.62v2h6v2.25a10.47,10.47,0,0,1-.52,3,13.65,13.65,0,0,1-.48,1.28h-2.92a9.21,9.21,0,0,0,.93-2.7,6.7,6.7,0,0,0,.09-1.14H219V89.44h5.35v-2h-7.18V84.78h11.78a17.56,17.56,0,0,0,.81-3.65,11.85,11.85,0,0,0,.09-1.52h-10.7V76.88H233v2.49a28.29,28.29,0,0,1-1,5.41h3Z"/><path class="cls-13" d="M104.67,79.06c.18-.18.44-.33.51-.55s-.2-.37-.36-.52-.65-.47-.94-.74-.12-.36.16-.42a1,1,0,0,1,1.19.56l.72,1.28a1.1,1.1,0,0,0,1,.54,5.65,5.65,0,0,1,1.06.2c.25,0,.49.13.74.16.72.08,1,.36.88,1a1,1,0,0,1-1.24.83c-.43-.13-.89.63-1.31.44s-1-.42-1.16.06c-1,3.56-1.06-.83-1.46-1.2a8.2,8.2,0,0,1-.88-1,2.29,2.29,0,0,0-2.51-.91L98,79.51a2.53,2.53,0,0,0-1.41,1c-.38.48-.73,1-1.1,1.46a4.31,4.31,0,0,0-.88,2.56c0,.43-.1.86-.11,1.29a4.94,4.94,0,0,0,1.73,4.23,3.46,3.46,0,0,0,3.2.79,1.82,1.82,0,0,1,2.29,1.32,17.86,17.86,0,0,1,.72,3,12.16,12.16,0,0,1-.15,2.07,3.25,3.25,0,0,0,.09,1.08c.29.93.63,1.84,1,2.76a6.67,6.67,0,0,0,.29.74,1,1,0,0,0,1.44.66,7.24,7.24,0,0,0,3.76-2.71c.29-.4-1.71-10.17,4-9.77.12,0,.17-.17.25-.26a1.21,1.21,0,0,0,.1-1.86c-.16-.23-.34-.45-.48-.69a.6.6,0,0,1,.31-1,1.57,1.57,0,0,0,1-1.15,9.24,9.24,0,0,1,.29-.89c.11-.3.35-.35.56-.14a1.53,1.53,0,0,1,.49.8c.06,1.44.13,2.89,0,4.34a16.92,16.92,0,0,1-1.84,6.67,19.52,19.52,0,0,1-14.62,11,19.31,19.31,0,0,1-13.36-2.4c-.17-.1-.39-.25-.43-.42a10.05,10.05,0,0,1-.27-2c0-.72.58-1.14,1.1-1.54s1.15-.79,1.69-1.22a5.07,5.07,0,0,0,1.74-5.57,1.6,1.6,0,0,0-.78-1c-.5-.26-1-.56-1.5-.78A5,5,0,0,1,85,90.21a5.3,5.3,0,0,0-1.82-1.67C82.09,88,81,87.34,79.9,86.86a2.73,2.73,0,0,1-1.15-4.39c.68-.85,1.46-1.6,2.2-2.39.39-.43.8-.84,1.16-1.28a3,3,0,0,1,1.61-1.11,12.76,12.76,0,0,0,1.8-.76A2.34,2.34,0,0,0,87,74.73c0-.29.06-.59.1-.88a2.24,2.24,0,0,0-.28-1.49,2.13,2.13,0,0,1-.31-1.83,1,1,0,0,1,.44-.56,4,4,0,0,1,2.24-.41c.66.06.78.26.7.91s-.19,1.47-.23,2.21.08.74.69.63c.88-.15,1.76-.37,2.64-.57s2-.44,3-.69A3.39,3.39,0,0,0,98.35,70a1.14,1.14,0,0,0-.2-1.14c-.35-.5-.75-1-1.12-1.45,2.42-.65,10.86,3.1,12.26,5.49a2.16,2.16,0,0,1-1.46-.19c-1.09-.49-2.18-1-3.26-1.51a1.18,1.18,0,0,0-1,0c-.53.23-1.07.44-1.6.66-.76.3-.92.67-.62,1.43s.18.65-.29,1.14.6,2.18,1.24,2.59c.42.27.86.53,1.3.77s1.11.46.9,1.29Z"/><path class="cls-13" d="M75.67,85.69a5.73,5.73,0,0,1,1.41,2.61c.34,1.29.72,2.57.94,3.88a6,6,0,0,0,1.64,3.19,4,4,0,0,1,1.15,2.34,9.35,9.35,0,0,0,2.44,4.86,5.44,5.44,0,0,1,.39.55A19.44,19.44,0,0,1,75.67,85.69Z"/><path class="cls-14" d="M92.4,83.24c-1.18-.88-2-1.76-3.3-1.53-1.08.2-1.82,2-1.45,3.05.58,1.65,2.74,2.21,4.23,2A1.84,1.84,0,0,0,93.46,84C93.2,83.57,92.58,83.48,92.4,83.24Z"/><path class="cls-14" d="M94.21,79.78c-.52-.45-.88-1.21-1.56-1.24a1.65,1.65,0,0,0-1.45,2.11,3,3,0,0,0,2.85,1.9,1.22,1.22,0,0,0,1.06-1.83c-.19-.38-.37-.39-.61-.75C94.48,80,94.23,79.77,94.21,79.78Z"/><path class="cls-14" d="M94.81,79.18a7.13,7.13,0,0,0,1.16.45,1,1,0,0,0,1.25-1.31A2.5,2.5,0,0,0,95,76.62c-.79,0-1.33.28-1.25,1.07a2,2,0,0,0,.72,1.37S94.82,79.16,94.81,79.18Z"/><path class="cls-14" d="M99.22,75.89a5,5,0,0,0-.51-.27.83.83,0,0,0-1.2.92,1.9,1.9,0,0,0,1.3,1.57.83.83,0,0,0,1.12-1A2.13,2.13,0,0,0,99.22,75.89Z"/><path class="cls-14" d="M109.28,77.37a1.55,1.55,0,0,0,1,.65.63.63,0,0,0,.74-.56,1.53,1.53,0,0,0-1.16-1.56c-.56-.11-.95.4-.76,1A4.41,4.41,0,0,0,109.28,77.37Z"/><path class="cls-14" d="M116.86,87.39a21.32,21.32,0,1,1-21.14-21.5A21.34,21.34,0,0,1,116.86,87.39Zm-12.19-8.33-.19-.07c.21-.83-.39-1-.9-1.29s-.88-.5-1.3-.77c-2.23-1.75-1.55.36-2.51,1-.31.2-.2.14-.77.15-.29,0-.46-.19-.75-.27s-.68-.89-.74-1.28c-.21-1.43,0-1.51,1.45-1.43.82,0,1.5.32,2.08-.77.47-.49.53-.51.29-1.14a1.11,1.11,0,0,1,.61-1.43c.52-.21,1-.41,1.55-.63a1.31,1.31,0,0,1,1.08,0c1.08.52,2.17,1,3.26,1.51a2.16,2.16,0,0,0,1.46.19c-1.4-2.39-9.84-6.14-12.26-5.49.37.48.77,1,1.12,1.45a1.14,1.14,0,0,1,.2,1.14A3.39,3.39,0,0,1,96,72.05c-1,.25-2,.47-3,.69s-1.76.42-2.64.57c-.61.11-.73,0-.69-.63s.14-1.48.23-2.21,0-.85-.7-.91a4,4,0,0,0-2.24.41,1,1,0,0,0-.44.56,2.13,2.13,0,0,0,.31,1.83,2.24,2.24,0,0,1,.28,1.49c0,.29-.08.59-.1.88a2.34,2.34,0,0,1-1.45,2.2,12.76,12.76,0,0,1-1.8.76,3,3,0,0,0-1.61,1.11c-.36.44-.77.85-1.16,1.28-.74.79-1.52,1.54-2.2,2.39a2.73,2.73,0,0,0,1.15,4.39c1.09.47,2.13,1.07,3.18,1.63A5.53,5.53,0,0,1,85,90.21,5,5,0,0,0,87.07,92c.51.22,1,.52,1.5.78a1.6,1.6,0,0,1,.78,1,5.07,5.07,0,0,1-1.74,5.57c-.54.43-1.14.8-1.69,1.22s-1.1.82-1.1,1.54a10.05,10.05,0,0,0,.27,2c0,.17.26.32.43.42a19.21,19.21,0,0,0,13.28,2.41,20.39,20.39,0,0,0,14-9.77,17.43,17.43,0,0,0,2.53-7.92c.08-1.45,0-2.9,0-4.34a1.53,1.53,0,0,0-.49-.8c-.21-.21-.45-.16-.56.14a9.24,9.24,0,0,0-.29.89,1.57,1.57,0,0,1-1,1.15.6.6,0,0,0-.31,1c.14.24.32.46.48.69a1.21,1.21,0,0,1-.1,1.86l-.25.26c-.88,1-3-.86-1.83,3.5a10,10,0,0,1-1,2.94,11.87,11.87,0,0,0-.67,1.87,5.61,5.61,0,0,1-.52,1.46,7.24,7.24,0,0,1-3.76,2.71,1,1,0,0,1-1.44-.66,6.67,6.67,0,0,1-.29-.74c-.33-.92-.67-1.83-1-2.76a3.25,3.25,0,0,1-.09-1.08,12.16,12.16,0,0,0,.15-2.07,17.86,17.86,0,0,0-.72-3,1.82,1.82,0,0,0-2.29-1.32,3.46,3.46,0,0,1-3.2-.79,4.94,4.94,0,0,1-1.73-4.23c0-.43.1-.86.11-1.29A4.31,4.31,0,0,1,95.46,82c.37-.48.72-1,1.1-1.46a2.55,2.55,0,0,1,1.46-1,25,25,0,0,0,2.82-.64,2.31,2.31,0,0,1,2.75.84,8.2,8.2,0,0,0,.88,1c.36.33.34,1.46,1.12.54a1.31,1.31,0,0,1,1.53-.36h0a9.9,9.9,0,0,0,1.27.51,1,1,0,0,0,1.24-.83c.1-.62-.16-.9-.88-1-.25,0-.49-.11-.74-.16a5.65,5.65,0,0,0-1.06-.2,1.1,1.1,0,0,1-1-.54l-.72-1.28a1,1,0,0,0-1.19-.56c-.28.06-.39.21-.16.42s.64.48.94.74.4.4.36.52S104.85,78.88,104.67,79.06Zm-29,6.63a19.44,19.44,0,0,0,8,17.43,5.44,5.44,0,0,0-.39-.55,9.35,9.35,0,0,1-2.44-4.86,4,4,0,0,0-1.15-2.34A6,6,0,0,1,78,92.18c-.22-1.31-.6-2.59-.94-3.88A5.73,5.73,0,0,0,75.67,85.69Z"/><path d="M95.53,65.89a21.32,21.32,0,1,0,21.33,21.32A21.21,21.21,0,0,0,95.53,65.89Zm0,41.16a19.84,19.84,0,1,1,19.82-19.84A19.79,19.79,0,0,1,95.56,107.05Z"/><path d="M603.6,429.85a1.47,1.47,0,0,1-.19-.5q0-18.14,0-36.27v-.45h6.36v36.8c0,.14,0,.28,0,.42Z"/><path d="M499.16,392.63h4.26v37.22h-4.26Z"/><path d="M616.15,429.85V392.62h4.26v37.23Z"/><path d="M531.13,429.85c0-.22,0-.44,0-.65V392.63h4.19v.57q0,18,0,36.05a2.61,2.61,0,0,1-.14.6Z"/><path d="M558.84,429.85a2.38,2.38,0,0,1-.15-.55q0-18.07,0-36.13v-.54h4.2a3.93,3.93,0,0,1,.06.48v36.23a3,3,0,0,1-.09.51Z"/><path d="M569.49,429.85a1.68,1.68,0,0,1-.18-.5q0-18.14,0-36.27v-.45h4.27v.48q0,18.11,0,36.23a4.38,4.38,0,0,1,0,.51Z"/><path d="M578,429.85a1.68,1.68,0,0,1-.18-.5q0-18.14,0-36.27v-.45h4.26v36.71c0,.17,0,.34,0,.51Z"/><path d="M586.55,429.85a1.47,1.47,0,0,1-.19-.5q0-18.14,0-36.27v-.45h4.27v36.71a4.4,4.4,0,0,1,0,.51Z"/><path d="M592.94,429.85c-.07-.17-.21-.33-.21-.49q0-18.15,0-36.29v-.44h4.21a2.84,2.84,0,0,1,.05.42v36.38c0,.14,0,.28,0,.42Z"/><path d="M505.55,429.85c0-.22,0-.44,0-.65V392.62h2.15v37.23Z"/><path d="M611.89,429.85V392.62H614c0,.14,0,.29,0,.44q0,18.18,0,36.37c0,.14,0,.28,0,.42Z"/><path d="M512,429.85V392.62h2.11v.5q0,18.11,0,36.19a1.73,1.73,0,0,1-.21.54Z"/><path d="M522.6,429.85c0-.2,0-.41,0-.61V392.63h2.1v.49q0,18.09,0,36.18a2,2,0,0,1-.18.55Z"/><path d="M541.79,429.85c0-.2,0-.41,0-.61V392.62h2.09v.53q0,18.08,0,36.15a2.34,2.34,0,0,1-.14.55Z"/><path d="M546.05,429.85c0-.2,0-.41,0-.61V392.62h2.09v.53q0,18.08,0,36.15a2.34,2.34,0,0,1-.14.55Z"/><path d="M550.31,429.85c0-.2,0-.41,0-.61V392.62h2.09V429.3a3,3,0,0,1-.14.55Z"/></g></svg>