<svg xmlns="http://www.w3.org/2000/svg" xmlns:xlink="http://www.w3.org/1999/xlink" viewBox="0 0 694.64 500"><defs><style>.cls-1{fill:#fff;}.cls-2{opacity:0.5;}.cls-3{fill:url(#무제_그라디언트_42);}.cls-4{fill:#66848c;}.cls-5{fill:#8aa8b2;}.cls-6{fill:#7a999e;}.cls-7{fill:#617a7f;}.cls-8{fill:#688c3f;}.cls-9{fill:#7ba04d;}.cls-10{fill:#85bd60;}.cls-11{fill:#999;}.cls-12{fill:#456f41;}.cls-13{fill:#4c3725;}.cls-14{fill:#47bf7d;}.cls-15{fill:#108a53;}.cls-16{fill:#7fc9b7;}.cls-17{fill:#ddd6c0;}.cls-18{fill:#c4bead;}.cls-19{fill:#d25a4e;}.cls-20,.cls-22{fill:#ff6f61;}.cls-20{opacity:0.36;}.cls-21{fill:#f2ebd1;}.cls-23{fill:#e2ded3;}.cls-24{fill:gray;}.cls-25{fill:#72b2a1;}.cls-26{fill:#f5fffd;}.cls-27{fill:#9c6;}.cls-28{fill:#3f8cb9;}.cls-29{fill:#9bcc60;}</style><linearGradient id="무제_그라디언트_42" x1="347.32" y1="374.55" x2="347.32" y2="125.86" gradientUnits="userSpaceOnUse"><stop offset="0.13" stop-color="#fff"/><stop offset="0.35" stop-color="#f1fbfd"/><stop offset="0.36" stop-color="#f0fbfd"/><stop offset="0.37" stop-color="#effbfc"/><stop offset="0.51" stop-color="#e1f6f5"/><stop offset="0.62" stop-color="#dcf4f3"/><stop offset="0.73" stop-color="#d3eff2"/><stop offset="0.89" stop-color="#bce3f1"/><stop offset="1" stop-color="#a8d9ef"/></linearGradient></defs><g id="레이어_3" data-name="레이어 3"><rect class="cls-1" x="40.73" y="125.19" width="613.18" height="249.96"/><g class="cls-2"><rect class="cls-3" x="40.73" y="125.86" width="613.19" height="248.7"/><rect class="cls-4" x="133.26" y="212.6" width="41.11" height="102.39"/><rect class="cls-5" x="133.26" y="297.7" width="41.11" height="6.5"/><rect class="cls-5" x="133.26" y="288.1" width="41.11" height="6.5"/><rect class="cls-5" x="133.26" y="307.3" width="41.11" height="6.5"/><rect class="cls-5" x="133.26" y="268.89" width="41.11" height="6.5"/><rect class="cls-5" x="133.26" y="212.6" width="41.11" height="5.17"/><rect class="cls-5" x="133.26" y="278.49" width="41.11" height="6.5"/><rect class="cls-5" x="133.26" y="230.48" width="41.11" height="6.5"/><rect class="cls-5" x="133.26" y="220.88" width="41.11" height="6.5"/><rect class="cls-5" x="133.26" y="249.69" width="41.11" height="6.5"/><rect class="cls-5" x="133.26" y="259.29" width="41.11" height="6.5"/><rect class="cls-5" x="133.26" y="240.08" width="41.11" height="6.5"/><rect class="cls-4" x="181.71" y="227.59" width="32.83" height="87.41"/><rect class="cls-5" x="181.71" y="300.23" width="32.83" height="5.55"/><rect class="cls-5" x="181.71" y="292.03" width="32.83" height="5.55"/><rect class="cls-5" x="181.71" y="308.43" width="32.83" height="5.55"/><rect class="cls-5" x="181.71" y="275.64" width="32.83" height="5.55"/><rect class="cls-5" x="181.71" y="227.59" width="32.83" height="4.41"/><rect class="cls-5" x="181.71" y="283.84" width="32.83" height="5.55"/><rect class="cls-5" x="181.71" y="242.85" width="32.83" height="5.55"/><rect class="cls-5" x="181.71" y="234.65" width="32.83" height="5.55"/><rect class="cls-5" x="181.71" y="259.25" width="32.83" height="5.55"/><rect class="cls-5" x="181.71" y="267.44" width="32.83" height="5.55"/><rect class="cls-5" x="181.71" y="251.05" width="32.83" height="5.55"/><rect class="cls-5" x="58.79" y="242.34" width="66.71" height="72.66"/><rect class="cls-6" x="58.79" y="242.34" width="16.24" height="72.66"/><rect class="cls-7" x="78.49" y="248.53" width="1.61" height="2.81"/><rect class="cls-7" x="82.42" y="248.53" width="1.61" height="2.81"/><rect class="cls-7" x="86.35" y="248.53" width="1.61" height="2.81"/><rect class="cls-7" x="90.27" y="248.53" width="1.61" height="2.81"/><rect class="cls-7" x="94.2" y="248.53" width="1.61" height="2.81"/><rect class="cls-7" x="98.12" y="248.53" width="1.61" height="2.81"/><rect class="cls-7" x="102.05" y="248.53" width="1.61" height="2.81"/><rect class="cls-7" x="105.97" y="248.53" width="1.61" height="2.81"/><rect class="cls-7" x="109.9" y="248.53" width="1.61" height="2.81"/><rect class="cls-7" x="113.82" y="248.53" width="1.61" height="2.81"/><rect class="cls-7" x="117.75" y="248.53" width="1.61" height="2.81"/><rect class="cls-7" x="121.67" y="248.53" width="1.61" height="2.81"/><rect class="cls-7" x="78.49" y="255.07" width="1.61" height="2.81"/><rect class="cls-7" x="82.42" y="255.07" width="1.61" height="2.81"/><rect class="cls-7" x="86.35" y="255.07" width="1.61" height="2.81"/><rect class="cls-7" x="90.27" y="255.07" width="1.61" height="2.81"/><rect class="cls-7" x="94.2" y="255.07" width="1.61" height="2.81"/><rect class="cls-7" x="98.12" y="255.07" width="1.61" height="2.81"/><rect class="cls-7" x="102.05" y="255.07" width="1.61" height="2.81"/><rect class="cls-7" x="105.97" y="255.07" width="1.61" height="2.81"/><rect class="cls-7" x="109.9" y="255.07" width="1.61" height="2.81"/><rect class="cls-7" x="113.82" y="255.07" width="1.61" height="2.81"/><rect class="cls-7" x="117.75" y="255.07" width="1.61" height="2.81"/><rect class="cls-7" x="121.67" y="255.07" width="1.61" height="2.81"/><rect class="cls-7" x="78.49" y="261.62" width="1.61" height="2.81"/><rect class="cls-7" x="82.42" y="261.62" width="1.61" height="2.81"/><rect class="cls-7" x="86.35" y="261.62" width="1.61" height="2.81"/><rect class="cls-7" x="90.27" y="261.62" width="1.61" height="2.81"/><rect class="cls-7" x="94.2" y="261.62" width="1.61" height="2.81"/><rect class="cls-7" x="98.12" y="261.62" width="1.61" height="2.81"/><rect class="cls-7" x="102.05" y="261.62" width="1.61" height="2.81"/><rect class="cls-7" x="105.97" y="261.62" width="1.61" height="2.81"/><rect class="cls-7" x="109.9" y="261.62" width="1.61" height="2.81"/><rect class="cls-7" x="113.82" y="261.62" width="1.61" height="2.81"/><rect class="cls-7" x="117.75" y="261.62" width="1.61" height="2.81"/><rect class="cls-7" x="121.67" y="261.62" width="1.61" height="2.81"/><rect class="cls-7" x="78.49" y="268.16" width="1.61" height="2.81"/><rect class="cls-7" x="82.42" y="268.16" width="1.61" height="2.81"/><rect class="cls-7" x="86.35" y="268.16" width="1.61" height="2.81"/><rect class="cls-7" x="90.27" y="268.16" width="1.61" height="2.81"/><rect class="cls-7" x="94.2" y="268.16" width="1.61" height="2.81"/><rect class="cls-7" x="98.12" y="268.16" width="1.61" height="2.81"/><rect class="cls-7" x="102.05" y="268.16" width="1.61" height="2.81"/><rect class="cls-7" x="105.97" y="268.16" width="1.61" height="2.81"/><rect class="cls-7" x="109.9" y="268.16" width="1.61" height="2.81"/><rect class="cls-7" x="113.82" y="268.16" width="1.61" height="2.81"/><rect class="cls-7" x="117.75" y="268.16" width="1.61" height="2.81"/><rect class="cls-7" x="121.67" y="268.16" width="1.61" height="2.81"/><rect class="cls-7" x="78.49" y="274.7" width="1.61" height="2.81"/><rect class="cls-7" x="82.42" y="274.7" width="1.61" height="2.81"/><rect class="cls-7" x="86.35" y="274.7" width="1.61" height="2.81"/><rect class="cls-7" x="90.27" y="274.7" width="1.61" height="2.81"/><rect class="cls-7" x="94.2" y="274.7" width="1.61" height="2.81"/><rect class="cls-7" x="98.12" y="274.7" width="1.61" height="2.81"/><rect class="cls-7" x="102.05" y="274.7" width="1.61" height="2.81"/><rect class="cls-7" x="105.97" y="274.7" width="1.61" height="2.81"/><rect class="cls-7" x="109.9" y="274.7" width="1.61" height="2.81"/><rect class="cls-7" x="113.82" y="274.7" width="1.61" height="2.81"/><rect class="cls-7" x="117.75" y="274.7" width="1.61" height="2.81"/><rect class="cls-7" x="121.67" y="274.7" width="1.61" height="2.81"/><rect class="cls-7" x="78.49" y="281.25" width="1.61" height="2.81"/><rect class="cls-7" x="82.42" y="281.25" width="1.61" height="2.81"/><rect class="cls-7" x="86.35" y="281.25" width="1.61" height="2.81"/><rect class="cls-7" x="90.27" y="281.25" width="1.61" height="2.81"/><rect class="cls-7" x="94.2" y="281.25" width="1.61" height="2.81"/><rect class="cls-7" x="98.12" y="281.25" width="1.61" height="2.81"/><rect class="cls-7" x="102.05" y="281.25" width="1.61" height="2.81"/><rect class="cls-7" x="105.97" y="281.25" width="1.61" height="2.81"/><rect class="cls-7" x="109.9" y="281.25" width="1.61" height="2.81"/><rect class="cls-7" x="113.82" y="281.25" width="1.61" height="2.81"/><rect class="cls-7" x="117.75" y="281.25" width="1.61" height="2.81"/><rect class="cls-7" x="121.67" y="281.25" width="1.61" height="2.81"/><rect class="cls-7" x="78.49" y="287.79" width="1.61" height="2.81"/><rect class="cls-7" x="82.42" y="287.79" width="1.61" height="2.81"/><rect class="cls-7" x="86.35" y="287.79" width="1.61" height="2.81"/><rect class="cls-7" x="90.27" y="287.79" width="1.61" height="2.81"/><rect class="cls-7" x="94.2" y="287.79" width="1.61" height="2.81"/><rect class="cls-7" x="98.12" y="287.79" width="1.61" height="2.81"/><rect class="cls-7" x="102.05" y="287.79" width="1.61" height="2.81"/><rect class="cls-7" x="105.97" y="287.79" width="1.61" height="2.81"/><rect class="cls-7" x="109.9" y="287.79" width="1.61" height="2.81"/><rect class="cls-7" x="113.82" y="287.79" width="1.61" height="2.81"/><rect class="cls-7" x="117.75" y="287.79" width="1.61" height="2.81"/><rect class="cls-7" x="121.67" y="287.79" width="1.61" height="2.81"/><rect class="cls-7" x="78.49" y="294.33" width="1.61" height="2.81"/><rect class="cls-7" x="82.42" y="294.33" width="1.61" height="2.81"/><rect class="cls-7" x="86.35" y="294.33" width="1.61" height="2.81"/><rect class="cls-7" x="90.27" y="294.33" width="1.61" height="2.81"/><rect class="cls-7" x="94.2" y="294.33" width="1.61" height="2.81"/><rect class="cls-7" x="98.12" y="294.33" width="1.61" height="2.81"/><rect class="cls-7" x="102.05" y="294.33" width="1.61" height="2.81"/><rect class="cls-7" x="105.97" y="294.33" width="1.61" height="2.81"/><rect class="cls-7" x="109.9" y="294.33" width="1.61" height="2.81"/><rect class="cls-7" x="113.82" y="294.33" width="1.61" height="2.81"/><rect class="cls-7" x="117.75" y="294.33" width="1.61" height="2.81"/><rect class="cls-7" x="121.67" y="294.33" width="1.61" height="2.81"/><rect class="cls-7" x="78.49" y="300.88" width="1.61" height="2.81"/><rect class="cls-7" x="82.42" y="300.88" width="1.61" height="2.81"/><rect class="cls-7" x="86.35" y="300.88" width="1.61" height="2.81"/><rect class="cls-7" x="90.27" y="300.88" width="1.61" height="2.81"/><rect class="cls-7" x="94.2" y="300.88" width="1.61" height="2.81"/><rect class="cls-7" x="98.12" y="300.88" width="1.61" height="2.81"/><rect class="cls-7" x="102.05" y="300.88" width="1.61" height="2.81"/><rect class="cls-7" x="105.97" y="300.88" width="1.61" height="2.81"/><rect class="cls-7" x="109.9" y="300.88" width="1.61" height="2.81"/><rect class="cls-7" x="113.82" y="300.88" width="1.61" height="2.81"/><rect class="cls-7" x="117.75" y="300.88" width="1.61" height="2.81"/><rect class="cls-7" x="121.67" y="300.88" width="1.61" height="2.81"/><rect class="cls-7" x="78.49" y="307.42" width="1.61" height="2.81"/><rect class="cls-7" x="82.42" y="307.42" width="1.61" height="2.81"/><rect class="cls-7" x="86.35" y="307.42" width="1.61" height="2.81"/><rect class="cls-7" x="90.27" y="307.42" width="1.61" height="2.81"/><rect class="cls-7" x="94.2" y="307.42" width="1.61" height="2.81"/><rect class="cls-7" x="98.12" y="307.42" width="1.61" height="2.81"/><rect class="cls-7" x="102.05" y="307.42" width="1.61" height="2.81"/><rect class="cls-7" x="105.97" y="307.42" width="1.61" height="2.81"/><rect class="cls-7" x="109.9" y="307.42" width="1.61" height="2.81"/><rect class="cls-7" x="113.82" y="307.42" width="1.61" height="2.81"/><rect class="cls-7" x="117.75" y="307.42" width="1.61" height="2.81"/><rect class="cls-7" x="121.67" y="307.42" width="1.61" height="2.81"/><rect class="cls-5" x="221.52" y="192.04" width="34.41" height="122.96"/><rect class="cls-7" x="230.06" y="199.1" width="1.61" height="2.81"/><rect class="cls-7" x="233.99" y="199.1" width="1.61" height="2.81"/><rect class="cls-7" x="237.92" y="199.1" width="1.61" height="2.81"/><rect class="cls-7" x="241.84" y="199.1" width="1.61" height="2.81"/><rect class="cls-7" x="245.77" y="199.1" width="1.61" height="2.81"/><rect class="cls-7" x="230.06" y="204.85" width="1.61" height="2.81"/><rect class="cls-7" x="233.99" y="204.85" width="1.61" height="2.81"/><rect class="cls-7" x="237.92" y="204.85" width="1.61" height="2.81"/><rect class="cls-7" x="241.84" y="204.85" width="1.61" height="2.81"/><rect class="cls-7" x="245.77" y="204.85" width="1.61" height="2.81"/><rect class="cls-7" x="230.06" y="210.61" width="1.61" height="2.81"/><rect class="cls-7" x="233.99" y="210.61" width="1.61" height="2.81"/><rect class="cls-7" x="237.92" y="210.61" width="1.61" height="2.81"/><rect class="cls-7" x="241.84" y="210.61" width="1.61" height="2.81"/><rect class="cls-7" x="245.77" y="210.61" width="1.61" height="2.81"/><rect class="cls-7" x="230.06" y="216.36" width="1.61" height="2.81"/><rect class="cls-7" x="233.99" y="216.36" width="1.61" height="2.81"/><rect class="cls-7" x="237.92" y="216.36" width="1.61" height="2.81"/><rect class="cls-7" x="241.84" y="216.36" width="1.61" height="2.81"/><rect class="cls-7" x="245.77" y="216.36" width="1.61" height="2.81"/><rect class="cls-7" x="230.06" y="222.12" width="1.61" height="2.81"/><rect class="cls-7" x="233.99" y="222.12" width="1.61" height="2.81"/><rect class="cls-7" x="237.92" y="222.12" width="1.61" height="2.81"/><rect class="cls-7" x="241.84" y="222.12" width="1.61" height="2.81"/><rect class="cls-7" x="245.77" y="222.12" width="1.61" height="2.81"/><rect class="cls-7" x="230.06" y="227.88" width="1.61" height="2.81"/><rect class="cls-7" x="233.99" y="227.88" width="1.61" height="2.81"/><rect class="cls-7" x="237.92" y="227.88" width="1.61" height="2.81"/><rect class="cls-7" x="241.84" y="227.88" width="1.61" height="2.81"/><rect class="cls-7" x="245.77" y="227.88" width="1.61" height="2.81"/><rect class="cls-7" x="230.06" y="233.63" width="1.61" height="2.81"/><rect class="cls-7" x="233.99" y="233.63" width="1.61" height="2.81"/><rect class="cls-7" x="237.92" y="233.63" width="1.61" height="2.81"/><rect class="cls-7" x="241.84" y="233.63" width="1.61" height="2.81"/><rect class="cls-7" x="245.77" y="233.63" width="1.61" height="2.81"/><rect class="cls-7" x="230.06" y="239.39" width="1.61" height="2.81"/><rect class="cls-7" x="233.99" y="239.39" width="1.61" height="2.81"/><rect class="cls-7" x="237.92" y="239.39" width="1.61" height="2.81"/><rect class="cls-7" x="241.84" y="239.39" width="1.61" height="2.81"/><rect class="cls-7" x="245.77" y="239.39" width="1.61" height="2.81"/><rect class="cls-7" x="230.06" y="245.14" width="1.61" height="2.81"/><rect class="cls-7" x="233.99" y="245.14" width="1.61" height="2.81"/><rect class="cls-7" x="237.92" y="245.14" width="1.61" height="2.81"/><rect class="cls-7" x="241.84" y="245.14" width="1.61" height="2.81"/><rect class="cls-7" x="245.77" y="245.14" width="1.61" height="2.81"/><rect class="cls-7" x="230.06" y="250.9" width="1.61" height="2.81"/><rect class="cls-7" x="233.99" y="250.9" width="1.61" height="2.81"/><rect class="cls-7" x="237.92" y="250.9" width="1.61" height="2.81"/><rect class="cls-7" x="241.84" y="250.9" width="1.61" height="2.81"/><rect class="cls-7" x="245.77" y="250.9" width="1.61" height="2.81"/><rect class="cls-7" x="230.06" y="256.66" width="1.61" height="2.81"/><rect class="cls-7" x="233.99" y="256.66" width="1.61" height="2.81"/><rect class="cls-7" x="237.92" y="256.66" width="1.61" height="2.81"/><rect class="cls-7" x="241.84" y="256.66" width="1.61" height="2.81"/><rect class="cls-7" x="245.77" y="256.66" width="1.61" height="2.81"/><rect class="cls-7" x="230.06" y="262.41" width="1.61" height="2.81"/><rect class="cls-7" x="233.99" y="262.41" width="1.61" height="2.81"/><rect class="cls-7" x="237.92" y="262.41" width="1.61" height="2.81"/><rect class="cls-7" x="241.84" y="262.41" width="1.61" height="2.81"/><rect class="cls-7" x="245.77" y="262.41" width="1.61" height="2.81"/><rect class="cls-7" x="230.06" y="268.17" width="1.61" height="2.81"/><rect class="cls-7" x="233.99" y="268.17" width="1.61" height="2.81"/><rect class="cls-7" x="237.92" y="268.17" width="1.61" height="2.81"/><rect class="cls-7" x="241.84" y="268.17" width="1.61" height="2.81"/><rect class="cls-7" x="245.77" y="268.17" width="1.61" height="2.81"/><rect class="cls-7" x="230.06" y="273.93" width="1.61" height="2.81"/><rect class="cls-7" x="233.99" y="273.93" width="1.61" height="2.81"/><rect class="cls-7" x="237.92" y="273.93" width="1.61" height="2.81"/><rect class="cls-7" x="241.84" y="273.93" width="1.61" height="2.81"/><rect class="cls-7" x="245.77" y="273.93" width="1.61" height="2.81"/><rect class="cls-7" x="230.06" y="279.68" width="1.61" height="2.81"/><rect class="cls-7" x="233.99" y="279.68" width="1.61" height="2.81"/><rect class="cls-7" x="237.92" y="279.68" width="1.61" height="2.81"/><rect class="cls-7" x="241.84" y="279.68" width="1.61" height="2.81"/><rect class="cls-7" x="245.77" y="279.68" width="1.61" height="2.81"/><rect class="cls-7" x="230.06" y="285.44" width="1.61" height="2.81"/><rect class="cls-7" x="233.99" y="285.44" width="1.61" height="2.81"/><rect class="cls-7" x="237.92" y="285.44" width="1.61" height="2.81"/><rect class="cls-7" x="241.84" y="285.44" width="1.61" height="2.81"/><rect class="cls-7" x="245.77" y="285.44" width="1.61" height="2.81"/><rect class="cls-7" x="230.06" y="291.19" width="1.61" height="2.81"/><rect class="cls-7" x="233.99" y="291.19" width="1.61" height="2.81"/><rect class="cls-7" x="237.92" y="291.19" width="1.61" height="2.81"/><rect class="cls-7" x="241.84" y="291.19" width="1.61" height="2.81"/><rect class="cls-7" x="245.77" y="291.19" width="1.61" height="2.81"/><rect class="cls-7" x="230.06" y="296.95" width="1.61" height="2.81"/><rect class="cls-7" x="233.99" y="296.95" width="1.61" height="2.81"/><rect class="cls-7" x="237.92" y="296.95" width="1.61" height="2.81"/><rect class="cls-7" x="241.84" y="296.95" width="1.61" height="2.81"/><rect class="cls-7" x="245.77" y="296.95" width="1.61" height="2.81"/><rect class="cls-7" x="230.06" y="302.71" width="1.61" height="2.81"/><rect class="cls-7" x="233.99" y="302.71" width="1.61" height="2.81"/><rect class="cls-7" x="237.92" y="302.71" width="1.61" height="2.81"/><rect class="cls-7" x="241.84" y="302.71" width="1.61" height="2.81"/><rect class="cls-7" x="245.77" y="302.71" width="1.61" height="2.81"/><rect class="cls-7" x="230.06" y="308.46" width="1.61" height="2.81"/><rect class="cls-7" x="233.99" y="308.46" width="1.61" height="2.81"/><rect class="cls-7" x="237.92" y="308.46" width="1.61" height="2.81"/><rect class="cls-7" x="241.84" y="308.46" width="1.61" height="2.81"/><rect class="cls-7" x="245.77" y="308.46" width="1.61" height="2.81"/><rect class="cls-5" x="262.49" y="238.46" width="34.41" height="76.54"/><rect class="cls-7" x="266.82" y="244.12" width="25.75" height="2.43"/><rect class="cls-7" x="266.82" y="249.83" width="25.75" height="2.43"/><rect class="cls-7" x="266.82" y="255.55" width="25.75" height="2.43"/><rect class="cls-7" x="266.82" y="261.26" width="25.75" height="2.43"/><rect class="cls-7" x="266.82" y="266.98" width="25.75" height="2.43"/><rect class="cls-7" x="266.82" y="272.69" width="25.75" height="2.43"/><rect class="cls-7" x="266.82" y="278.4" width="25.75" height="2.43"/><rect class="cls-7" x="266.82" y="284.12" width="25.75" height="2.43"/><rect class="cls-7" x="266.82" y="289.83" width="25.75" height="2.43"/><rect class="cls-7" x="266.82" y="295.54" width="25.75" height="2.43"/><rect class="cls-7" x="266.82" y="301.26" width="25.75" height="2.43"/><rect class="cls-7" x="266.82" y="306.97" width="25.75" height="2.43"/><path class="cls-8" d="M268.62,329.66h122.9c1.06,0,1.6-.49.85-.78-10-3.88-54.75-21-62.11-21-7.7,0-30.76,11.64-35.05,12-3.89.33-21.29,6.27-27.5,9C267,329.21,267.6,329.66,268.62,329.66Z"/><path class="cls-8" d="M41,329H312.89S179,267.46,159.09,267.44c-18.49,0-73.8,32.84-84.1,33.88-5,.51-19.35,5.65-34,11.49"/><path class="cls-9" d="M40.73,312.81c14.67-5.84,29-11,34.06-11.49,10.33-1,65.76-33.89,84.3-33.88L108.63,329H40.73"/><path class="cls-8" d="M426,329.66H303.12c-1.06,0-1.6-.52-.85-.83,10-4.13,54.74-22.38,62.11-22.38,7.7,0,30.76,12.39,35.05,12.78,3.89.36,21.29,6.68,27.5,9.63C427.6,329.18,427,329.66,426,329.66Z"/><path class="cls-8" d="M653.63,328.9H381.75s133.88-65.49,153.8-65.5c18.49,0,73.8,35,84.1,36.08,5,.54,19.35,6,34,12.23"/><path class="cls-9" d="M653.91,311.71c-14.67-6.22-29-11.69-34.06-12.23-10.33-1.11-65.76-36.09-84.3-36.08L586,328.9h67.9"/><path class="cls-1" d="M413.14,228c-13.31,0-26.62,0-39.93,0-7,0-11.53-3.43-11.93-9.23-.42-6,3.31-10,10.5-10.52,3.33-.22,2.59-2.52,3-4.1,3.4-12.9,16.91-18.65,28.22-11.86a17.31,17.31,0,0,1,8.15,10.88c.53,2.08,1,2.8,3.61,2.26,5.67-1.2,9,.75,11.53,6.18.86,1.87,1.57,2.63,3.42,1.42a3.92,3.92,0,0,1,.89-.45c5-1.61,8.2,2.81,12,3.63s8.42-2.2,12.46,1.16a9.69,9.69,0,0,1,3.19,4.93c1.29,4.59.55,5.67-4.21,5.68Q433.61,228,413.14,228Z"/><path class="cls-1" d="M576.84,190h29.21c5.16,0,8.44-2.51,8.74-6.76s-2.42-7.34-7.68-7.69c-2.44-.16-1.9-1.84-2.21-3-2.49-9.44-12.37-13.65-20.65-8.68a12.65,12.65,0,0,0-6,8c-.39,1.52-.77,2.05-2.65,1.65-4.15-.88-6.61.55-8.43,4.52-.63,1.38-1.15,1.93-2.51,1.05a2.59,2.59,0,0,0-.64-.33c-3.68-1.18-6,2.05-8.8,2.65s-6.16-1.61-9.11.85a7.08,7.08,0,0,0-2.34,3.61c-.95,3.35-.41,4.15,3.08,4.16Z"/><path class="cls-1" d="M594.9,197.71c5.75,0,11.5,0,17.25,0,3.05,0,5-1.38,5.16-3.7s-1.43-4-4.54-4.21c-1.43-.09-1.12-1-1.3-1.65a8.25,8.25,0,0,0-12.19-4.75,7,7,0,0,0-3.52,4.36c-.23.83-.45,1.12-1.56.91-2.46-.49-3.91.3-5,2.47-.38.75-.68,1.05-1.49.57a1.66,1.66,0,0,0-.38-.18c-2.17-.64-3.54,1.13-5.19,1.45s-3.64-.87-5.38.47a3.86,3.86,0,0,0-1.38,2c-.56,1.83-.24,2.27,1.81,2.27Z"/><path class="cls-1" d="M362.94,235.57H341.06c-3.86,0-6.32-1.75-6.55-4.7s1.82-5.1,5.76-5.34c1.82-.12,1.42-1.28,1.65-2.09,1.86-6.56,9.27-9.48,15.47-6a8.89,8.89,0,0,1,4.47,5.53c.29,1.06.57,1.43,2,1.15,3.1-.61,5,.38,6.31,3.14.47,1,.86,1.34,1.88.73a2,2,0,0,1,.49-.23c2.75-.82,4.49,1.43,6.59,1.84s4.61-1.12,6.82.59a4.91,4.91,0,0,1,1.75,2.51c.71,2.33.31,2.88-2.3,2.89Q374.16,235.59,362.94,235.57Z"/><rect class="cls-10" x="40.73" y="327.87" width="613.19" height="46.68"/><rect class="cls-11" x="40.73" y="344.29" width="613.19" height="13.84"/><path class="cls-12" d="M296.94,332.93a7.91,7.91,0,0,0,2.28-.12c3.6-.71,13.86-3.68,14.62-14.27a17,17,0,0,0-2.79-13.35,9.07,9.07,0,0,1-1.62-5,23.2,23.2,0,0,0-7.29-16.32,8.13,8.13,0,0,0-7.12-2.28c-3.46.63-7.93,3.41-10.82,12.59a27.79,27.79,0,0,0-.51,12.17,8.38,8.38,0,0,1-.55,4.67C280.7,316.56,276.38,331,296.94,332.93Z"/><path class="cls-13" d="M307.07,306a1.41,1.41,0,0,0-1.94.54,32.12,32.12,0,0,1-6.1,7.67V297.74a1.43,1.43,0,0,0-2.85,0v21.45a32.09,32.09,0,0,1-6.09-7.68,1.43,1.43,0,0,0-2.48,1.41,34.33,34.33,0,0,0,8.57,10V339a1.43,1.43,0,1,0,2.85,0V317.94a34.16,34.16,0,0,0,8.57-10A1.43,1.43,0,0,0,307.07,306Z"/><path class="cls-14" d="M266.37,331.81a4.7,4.7,0,0,0,1.35-.07c2.12-.42,8.18-2.17,8.63-8.42a10,10,0,0,0-1.65-7.88,5.43,5.43,0,0,1-1-3,13.7,13.7,0,0,0-4.3-9.63,4.81,4.81,0,0,0-4.2-1.35c-2,.38-4.69,2-6.39,7.44a16.3,16.3,0,0,0-.3,7.18,4.92,4.92,0,0,1-.33,2.76C256.78,322.15,254.23,330.7,266.37,331.81Z"/><path class="cls-13" d="M261.58,317.51a.78.78,0,0,1,1.07.29A17.6,17.6,0,0,0,266,322v-9a.78.78,0,1,1,1.56,0v11.75a17.43,17.43,0,0,0,3.34-4.21.78.78,0,0,1,1.36.77,18.67,18.67,0,0,1-4.7,5.49v8.81a.78.78,0,0,1-1.56,0V324.06a18.84,18.84,0,0,1-4.69-5.49A.78.78,0,0,1,261.58,317.51Z"/><path class="cls-15" d="M99.34,336.91a5.92,5.92,0,0,1-1.68-.09c-2.66-.52-10.23-2.71-10.79-10.53a12.57,12.57,0,0,1,2.06-9.85,6.64,6.64,0,0,0,1.19-3.7,17.14,17.14,0,0,1,5.39-12,6,6,0,0,1,5.25-1.69c2.55.47,5.85,2.53,8,9.3a20.58,20.58,0,0,1,.38,9,6.16,6.16,0,0,0,.4,3.45C111.33,324.83,114.52,335.52,99.34,336.91Z"/><path class="cls-13" d="M105.33,319a1,1,0,0,0-1.33.36,22.27,22.27,0,0,1-4.17,5.26V313.39a1,1,0,1,0-2,0v14.69a22.27,22.27,0,0,1-4.17-5.26,1,1,0,1,0-1.69,1,23.53,23.53,0,0,0,5.86,6.87v11a1,1,0,0,0,2,0V327.22a23.58,23.58,0,0,0,5.87-6.86A1,1,0,0,0,105.33,319Z"/><path class="cls-15" d="M205.87,329.49a6,6,0,0,1-1.69-.09c-2.65-.53-10.23-2.72-10.78-10.54a12.52,12.52,0,0,1,2.06-9.85,6.74,6.74,0,0,0,1.19-3.69,17.09,17.09,0,0,1,5.38-12,6,6,0,0,1,5.26-1.69c2.55.47,5.85,2.52,8,9.3a20.55,20.55,0,0,1,.38,9,6.08,6.08,0,0,0,.41,3.45C217.86,317.4,221.05,328.09,205.87,329.49Z"/><path class="cls-13" d="M211.86,311.6a1,1,0,0,0-1.33.37,22.13,22.13,0,0,1-4.18,5.25V306a1,1,0,0,0-1.95,0v14.69a22,22,0,0,1-4.17-5.25,1,1,0,1,0-1.7,1,23.29,23.29,0,0,0,5.87,6.86v11a1,1,0,0,0,1.95,0V319.79a23.29,23.29,0,0,0,5.87-6.86A1,1,0,0,0,211.86,311.6Z"/><path class="cls-12" d="M63.58,334.68a8.71,8.71,0,0,1-2.28-.12c-3.6-.72-13.86-3.68-14.62-14.28a17,17,0,0,1,2.8-13.34,9.09,9.09,0,0,0,1.61-5,23.16,23.16,0,0,1,7.3-16.31,8.09,8.09,0,0,1,7.11-2.29c3.46.64,7.93,3.42,10.83,12.59a28,28,0,0,1,.51,12.18,8.2,8.2,0,0,0,.55,4.67C79.83,318.3,84.15,332.79,63.58,334.68Z"/><path class="cls-13" d="M53.45,307.72a1.42,1.42,0,0,1,1.95.53,32.46,32.46,0,0,0,6.09,7.68V299.48a1.43,1.43,0,0,1,2.85,0v21.45a32,32,0,0,0,6.09-7.67,1.42,1.42,0,1,1,2.48,1.4,34,34,0,0,1-8.57,10v16.09a1.43,1.43,0,0,1-2.85,0V319.68a34.17,34.17,0,0,1-8.57-10A1.42,1.42,0,0,1,53.45,307.72Z"/><path class="cls-14" d="M176.22,332a5.92,5.92,0,0,0,1.68-.09c2.66-.53,10.23-2.71,10.79-10.54a12.52,12.52,0,0,0-2.06-9.85,6.59,6.59,0,0,1-1.19-3.69,17.09,17.09,0,0,0-5.39-12,6,6,0,0,0-5.25-1.69c-2.55.47-5.85,2.52-8,9.3a20.58,20.58,0,0,0-.38,9,6.16,6.16,0,0,1-.4,3.45C164.23,319.92,161,330.62,176.22,332Z"/><path class="cls-13" d="M170.23,314.12a1,1,0,0,1,1.33.37,22.39,22.39,0,0,0,4.17,5.25V308.48a1,1,0,0,1,2,0v14.69a22,22,0,0,0,4.17-5.25,1,1,0,0,1,1.7,1,23.44,23.44,0,0,1-5.87,6.86v11a1,1,0,0,1-2,0V322.32a23.67,23.67,0,0,1-5.87-6.87A1,1,0,0,1,170.23,314.12Z"/><rect x="489.21" y="193.89" width="1.1" height="8.45"/><path class="cls-16" d="M483.83,206.76a5.93,5.93,0,0,1,11.86,0"/><rect class="cls-17" x="342.49" y="252.74" width="145.67" height="7.28" transform="translate(830.65 512.76) rotate(-180)"/><rect class="cls-18" x="340.58" y="260.02" width="149.48" height="73.85" transform="translate(830.65 593.89) rotate(-180)"/><rect class="cls-18" x="376.49" y="288.13" width="53.48" height="45.75" transform="translate(806.46 622) rotate(-180)"/><rect class="cls-19" x="376.49" y="267.38" width="53.48" height="38.39" transform="translate(806.46 573.15) rotate(-180)"/><rect class="cls-20" x="340.58" y="260.02" width="35.91" height="7.28" transform="translate(717.07 527.33) rotate(-180)"/><rect class="cls-21" x="430" y="288.13" width="23.52" height="45.75" transform="translate(883.52 622) rotate(-180)"/><rect class="cls-18" x="340.51" y="260.09" width="149.37" height="7.28" transform="translate(830.39 527.47) rotate(-180)"/><rect class="cls-21" x="429.97" y="260.02" width="40.17" height="7.28" transform="translate(900.11 527.33) rotate(-180)"/><rect class="cls-21" x="340.58" y="260.09" width="35.91" height="73.78" transform="translate(717.07 593.97) rotate(-180)"/><rect class="cls-22" x="340.58" y="267.38" width="35.91" height="38.39" transform="translate(717.07 573.15) rotate(-180)"/><rect x="441.29" y="220.72" width="1.1" height="8.45" transform="translate(883.68 449.9) rotate(-180)"/><path class="cls-21" d="M435.86,233.33s.88-5.66,6-5.66,6,5.66,6,5.66l1,20.73H434.9Z"/><polygon class="cls-23" points="441.84 250.23 448.78 254.06 448.78 267.38 441.84 267.38 434.9 267.38 434.9 254.06 441.84 250.23"/><path class="cls-16" d="M447.77,233.6a5.93,5.93,0,0,0-11.86,0"/><polygon class="cls-23" points="441.84 233.33 450.85 233.33 450.85 236.36 441.84 236.36 432.83 236.36 432.83 233.33 441.84 233.33"/><polygon class="cls-23" points="358.66 243.11 372.81 248.47 372.81 267.31 358.66 267.31 344.51 267.31 344.51 248.47 358.66 243.11"/><path class="cls-18" d="M489.87,247.47h0c44.22,0,43.85,49.2,43.85,49.2H446S445.65,247.49,489.87,247.47Z"/><rect class="cls-24" x="413.23" y="310.94" width="13.23" height="22.93" transform="translate(839.7 644.82) rotate(-180)"/><rect class="cls-24" x="378.62" y="310.94" width="13.23" height="22.93" transform="translate(770.47 644.82) rotate(-180)"/><rect class="cls-17" x="491.6" y="252.74" width="145.67" height="7.28"/><path class="cls-21" d="M495.74,206.49s-.88-5.66-6-5.66-6,5.66-6,5.66l-1,20.74H496.7Z"/><polygon class="cls-23" points="489.76 206.49 480.75 206.49 480.75 209.52 489.76 209.52 498.77 209.52 498.77 206.49 489.76 206.49"/><path class="cls-17" d="M489.89,216.94h0c-26.95,0-26.73,28.39-26.73,28.39h53.48S516.84,217,489.89,216.94Z"/><path class="cls-18" d="M489.89,220.84h0c-22.32,0-22.14,24.49-22.14,24.49H512S512.21,220.85,489.89,220.84Z"/><path class="cls-24" d="M490.17,225.07h0c-17.09,0-17,20.26-17,20.26h33.91S507.26,225.07,490.17,225.07Z"/><rect class="cls-17" x="463.14" y="245.33" width="53.48" height="15.28"/><rect class="cls-21" x="464.97" y="240.51" width="6.13" height="15.28"/><rect class="cls-21" x="508.66" y="240.51" width="6.13" height="15.28"/><rect class="cls-21" x="463.14" y="245.33" width="9.78" height="15.28"/><rect class="cls-21" x="506.83" y="245.33" width="9.78" height="15.28"/><rect class="cls-18" x="489.69" y="260.02" width="149.48" height="73.85"/><rect class="cls-18" x="549.79" y="288.13" width="53.48" height="45.75"/><rect class="cls-19" x="549.79" y="267.38" width="53.48" height="38.39"/><rect class="cls-20" x="603.27" y="260.02" width="35.91" height="7.28"/><rect class="cls-21" x="526.24" y="288.13" width="23.52" height="45.75"/><rect class="cls-18" x="489.88" y="260.09" width="149.37" height="7.28"/><rect class="cls-21" x="509.61" y="260.02" width="40.17" height="7.28"/><rect class="cls-21" x="603.27" y="260.09" width="35.91" height="73.78"/><rect class="cls-22" x="603.27" y="267.38" width="35.91" height="38.39"/><rect x="537.37" y="220.72" width="1.1" height="8.45"/><path class="cls-21" d="M543.9,233.33s-.88-5.66-6-5.66-6,5.66-6,5.66l-1,20.73h13.88Z"/><polygon class="cls-23" points="537.92 250.23 530.98 254.06 530.98 267.38 537.92 267.38 544.86 267.38 544.86 254.06 537.92 250.23"/><path class="cls-16" d="M532,233.6a5.93,5.93,0,0,1,11.86,0"/><polygon class="cls-23" points="537.92 233.33 528.91 233.33 528.91 236.36 537.92 236.36 546.93 236.36 546.93 233.33 537.92 233.33"/><polygon class="cls-23" points="621.1 243.11 606.95 248.47 606.95 267.31 621.1 267.31 635.25 267.31 635.25 248.47 621.1 243.11"/><path class="cls-18" d="M489.89,247.47h0c-44.22,0-43.86,49.2-43.86,49.2h87.73S534.11,247.49,489.89,247.47Z"/><path class="cls-24" d="M489.89,256.38h0c-33.35,0-33.08,40.29-33.08,40.29H523S523.24,256.4,489.89,256.38Z"/><path class="cls-17" d="M481.07,257.45a34.66,34.66,0,0,1,8.8-1.07h0c33.35,0,33.07,40.29,33.07,40.29h4.6s.31-44-37.67-44.05h0c-38,0-37.67,44.05-37.67,44.05h4.59s-.21-30.83,22.08-38.55"/><path class="cls-17" d="M479.05,258.12c.71-.25,1.44-.47,2.2-.67"/><polygon class="cls-25" points="489.89 289.7 489.87 289.7 453.54 289.7 453.54 296.98 489.87 296.98 489.89 296.98 526.22 296.98 526.22 289.7 489.89 289.7"/><rect class="cls-16" x="489.89" y="282.42" width="36.35" height="7.28"/><rect class="cls-16" x="453.52" y="282.42" width="36.35" height="7.28"/><rect class="cls-22" x="526.24" y="267.31" width="23.52" height="38.46"/><path class="cls-18" d="M482.1,257.45v28.34h-2.2V258.12Z"/><path class="cls-18" d="M499.86,257.48v28.31h-2.21V257S499.38,257.33,499.86,257.48Z"/><path class="cls-21" d="M489.57,267.05l-9.41,6.37a.55.55,0,0,0,.31,1h18.82a.55.55,0,0,0,.31-1l-9.41-6.37A.54.54,0,0,0,489.57,267.05Z"/><rect class="cls-21" x="479.9" y="285.79" width="19.95" height="3.91"/><path class="cls-24" d="M489.88,298.72c-9,0-8.9,2.94-8.9,2.94v32.21h17.8V301.66S498.87,298.72,489.88,298.72Z"/><path class="cls-24" d="M511.05,298.72c-9,0-8.9,2.94-8.9,2.94v32.21H520V301.66S520,298.72,511.05,298.72Z"/><path class="cls-24" d="M468.71,298.72c-9,0-8.9,2.94-8.9,2.94v32.21h17.8V301.66S477.7,298.72,468.71,298.72Z"/><rect class="cls-24" x="553.29" y="310.94" width="13.23" height="22.93"/><rect class="cls-24" x="587.91" y="310.94" width="13.23" height="22.93"/><rect class="cls-22" x="430" y="267.31" width="23.52" height="38.46" transform="translate(883.52 573.07) rotate(-180)"/><path class="cls-26" d="M441.84,248.34c3.19,0,3.47,3.79,3.47,3.79h-6.94S438.65,248.34,441.84,248.34Z"/><path class="cls-26" d="M441.84,263.58c3.19,0,3.47,3.8,3.47,3.8h-6.94S438.65,263.58,441.84,263.58Z"/><path class="cls-26" d="M367.34,267.31c0-5.45-3.89-9.86-8.68-9.86s-8.68,4.41-8.68,9.86"/><rect class="cls-26" x="398.31" y="310.94" width="8.45" height="15.68" transform="translate(805.08 637.57) rotate(-180)"/><path class="cls-26" d="M419.85,300.32c4.58,0,5,5.45,5,5.45h-10S415.26,300.32,419.85,300.32Z"/><rect class="cls-26" x="415.62" y="275.14" width="8.45" height="17.24" transform="translate(839.7 567.52) rotate(-180)"/><path class="cls-26" d="M402.54,300.32c4.59,0,5,5.45,5,5.45h-10S398,300.32,402.54,300.32Z"/><rect class="cls-26" x="398.31" y="275.14" width="8.45" height="17.24" transform="translate(805.08 567.52) rotate(-180)"/><path class="cls-26" d="M385.23,300.32c4.59,0,5,5.45,5,5.45h-10S380.65,300.32,385.23,300.32Z"/><rect class="cls-26" x="381.01" y="275.14" width="8.45" height="17.24" transform="translate(770.47 567.52) rotate(-180)"/><rect class="cls-26" x="355.39" y="275.14" width="8.45" height="17.24" transform="translate(719.24 567.52) rotate(-180)"/><rect class="cls-26" x="355.39" y="301.1" width="8.45" height="27.08" transform="translate(719.24 629.28) rotate(-180)"/><path class="cls-26" d="M537.92,248.34c-3.19,0-3.47,3.79-3.47,3.79h6.94S541.11,248.34,537.92,248.34Z"/><path class="cls-26" d="M537.92,263.58c-3.19,0-3.47,3.8-3.47,3.8h6.94S541.11,263.58,537.92,263.58Z"/><path class="cls-26" d="M612.42,267.31c0-5.45,3.88-9.86,8.68-9.86s8.68,4.41,8.68,9.86"/><circle class="cls-26" cx="489.88" cy="280.26" r="5.59"/><rect class="cls-26" x="534.53" y="275.14" width="8.45" height="17.24"/><rect class="cls-26" x="572.99" y="310.94" width="8.45" height="15.68"/><path class="cls-26" d="M559.91,300.32c-4.59,0-5,5.45-5,5.45h10S564.49,300.32,559.91,300.32Z"/><rect class="cls-26" x="555.68" y="275.14" width="8.45" height="17.24"/><path class="cls-26" d="M577.22,300.32c-4.59,0-5,5.45-5,5.45h10S581.8,300.32,577.22,300.32Z"/><rect class="cls-26" x="572.99" y="275.14" width="8.45" height="17.24"/><path class="cls-26" d="M594.52,300.32c-4.58,0-5,5.45-5,5.45h10S599.11,300.32,594.52,300.32Z"/><rect class="cls-26" x="590.3" y="275.14" width="8.45" height="17.24"/><rect class="cls-26" x="534.53" y="301.1" width="8.45" height="27.08"/><rect class="cls-26" x="615.91" y="275.14" width="8.45" height="17.24"/><rect class="cls-26" x="615.91" y="301.1" width="8.45" height="27.08"/><rect class="cls-26" x="436.77" y="275.14" width="8.45" height="17.24" transform="translate(882 567.52) rotate(-180)"/><rect class="cls-26" x="436.77" y="301.1" width="8.45" height="27.08" transform="translate(882 629.28) rotate(-180)"/><rect class="cls-18" x="488.85" y="223.72" width="2.64" height="21.6"/><rect class="cls-18" x="488.85" y="218.98" width="2.64" height="34.75" transform="translate(253.81 726.52) rotate(-90)"/></g><path d="M105.68,205.73a1.16,1.16,0,0,1-1.72,0l-2.33-2.18c-.46-.46-.41-.95.15-1.48a33.51,33.51,0,0,0,5.49-6.52,35.32,35.32,0,0,0,3.65-7.61,36.71,36.71,0,0,0,1.71-7.34,56.51,56.51,0,0,0,.37-8.13.68.68,0,0,1,.22-.51.66.66,0,0,1,.47-.23l4.4.15a.61.61,0,0,1,.44.22.79.79,0,0,1,.2.52,65.35,65.35,0,0,1-.89,11.17,22.74,22.74,0,0,0,1.48,4.77,31.55,31.55,0,0,0,2.45,4.59,34.32,34.32,0,0,0,3,4.08,23.37,23.37,0,0,0,3.26,3.16c.52.4.56.92.1,1.58l-2.08,2.52a1,1,0,0,1-.67.4,1.35,1.35,0,0,1-.91-.3,20.83,20.83,0,0,1-2.59-2.37,32.89,32.89,0,0,1-2.6-3.09,38.08,38.08,0,0,1-2.27-3.41,20.32,20.32,0,0,1-1.63-3.38,34.91,34.91,0,0,1-2,4c-.76,1.28-1.55,2.51-2.39,3.68a33.11,33.11,0,0,1-2.62,3.21A28.59,28.59,0,0,1,105.68,205.73Zm34.74,10.42H136a.56.56,0,0,1-.64-.64V189.37H125.2a.68.68,0,0,1-.47-.2.56.56,0,0,1-.22-.44v-3.51a.52.52,0,0,1,.22-.42.8.8,0,0,1,.47-.17h10.18V169.9a.57.57,0,0,1,.64-.64h4.4a.57.57,0,0,1,.64.64v45.61A.56.56,0,0,1,140.42,216.15Z"/><path d="M191.11,192.76a.72.72,0,0,1-.49.22H171.94v3.66H181a4.18,4.18,0,0,1,2.7.61,3.13,3.13,0,0,1,.66,2.3v5.68a3.07,3.07,0,0,1-.66,2.32,4.25,4.25,0,0,1-2.7.6h-20.8c-.26,0-.43,0-.49.12a1,1,0,0,0-.1.57v1.53c0,.3,0,.47.1.52a1.15,1.15,0,0,0,.54.07h24.56a.79.79,0,0,1,.49.2.6.6,0,0,1,.25.5v3.21a.63.63,0,0,1-.25.47.68.68,0,0,1-.44.22H157.37a3.73,3.73,0,0,1-2.62-.69,3.14,3.14,0,0,1-.69-2.28V207a3.22,3.22,0,0,1,.66-2.27,3.65,3.65,0,0,1,2.6-.69h21a.94.94,0,0,0,.49-.08c.07,0,.1-.24.1-.56V202c0-.36,0-.57-.1-.64s-.25-.1-.54-.1H154.6a.66.66,0,0,1-.47-.2.57.57,0,0,1-.22-.44v-3.31a.58.58,0,0,1,.22-.45.69.69,0,0,1,.47-.19h11.66V193H147.58a.61.61,0,0,1-.69-.69v-3.07a.74.74,0,0,1,.2-.51.64.64,0,0,1,.49-.23h43a.73.73,0,0,1,.49.25.71.71,0,0,1,.25.49v3.07A.63.63,0,0,1,191.11,192.76Zm-6.37-15.64a6.07,6.07,0,0,1-1,3.43,8.76,8.76,0,0,1-3,2.7,17.28,17.28,0,0,1-4.87,1.77,34.29,34.29,0,0,1-13.29,0,17.28,17.28,0,0,1-4.87-1.77,8.85,8.85,0,0,1-3-2.7,6.07,6.07,0,0,1-1-3.43,5.79,5.79,0,0,1,1-3.31,9,9,0,0,1,3-2.67,17.28,17.28,0,0,1,4.87-1.78,34.82,34.82,0,0,1,13.29,0,17.28,17.28,0,0,1,4.87,1.78,8.9,8.9,0,0,1,3,2.67A5.79,5.79,0,0,1,184.74,177.12ZM169.18,173a21.24,21.24,0,0,0-4,.34,15.43,15.43,0,0,0-3.14.92,6,6,0,0,0-2.07,1.36,2.39,2.39,0,0,0-.75,1.68,2.27,2.27,0,0,0,.75,1.6,6.23,6.23,0,0,0,2.07,1.34,15.46,15.46,0,0,0,3.14.91,22.63,22.63,0,0,0,7.93,0,15.29,15.29,0,0,0,3.16-.91,6.39,6.39,0,0,0,2.08-1.34,2.3,2.3,0,0,0,.74-1.6,2.42,2.42,0,0,0-.74-1.68,6.1,6.1,0,0,0-2.08-1.36,15.27,15.27,0,0,0-3.16-.92A21.37,21.37,0,0,0,169.18,173Z"/><path d="M129.71,244.9a4.55,4.55,0,0,1-1.29.93,4.82,4.82,0,0,1-1.66.45,6,6,0,0,1-1,0q-.57,0-1.11-.12c-.35-.06-.68-.13-1-.2a3.64,3.64,0,0,1-.63-.2,1.21,1.21,0,0,1-.35-.21s0-.14,0-.28l.14-1.43c0-.11,0-.17.1-.2s.14,0,.29.06a6.24,6.24,0,0,0,.66.22,7,7,0,0,0,1,.22,9.28,9.28,0,0,0,1.06.1,3.68,3.68,0,0,0,1-.07,3,3,0,0,0,.91-.36,1.86,1.86,0,0,0,.55-.53,1.76,1.76,0,0,0,.28-.66,3.05,3.05,0,0,0,.08-.74,2,2,0,0,0-.47-1,4.61,4.61,0,0,0-1.37-1.17c-.73-.43-1.36-.82-1.89-1.19a9,9,0,0,1-1.31-1.1,3.94,3.94,0,0,1-.76-1.13,3.11,3.11,0,0,1-.25-1.28,3.62,3.62,0,0,1,.33-1.52,3.93,3.93,0,0,1,.94-1.27,4.54,4.54,0,0,1,1.41-.87,5.08,5.08,0,0,1,1.82-.32,9.38,9.38,0,0,1,1.66.13,6.29,6.29,0,0,1,1.11.3.5.5,0,0,1,.27.17.32.32,0,0,1,0,.22l-.26,1.24a.46.46,0,0,1-.12.29q-.09.07-.3,0l-.64-.18-.72-.15c-.25,0-.48-.06-.71-.08a3.92,3.92,0,0,0-.61,0,2.47,2.47,0,0,0-1.53.71,2.08,2.08,0,0,0-.43,1.35,1.77,1.77,0,0,0,.5,1.08,5.91,5.91,0,0,0,1.48,1.17q1.22.75,2,1.32a7.83,7.83,0,0,1,1.24,1.12,3.41,3.41,0,0,1,.64,1.08,3.7,3.7,0,0,1,.18,1.18A4.07,4.07,0,0,1,129.71,244.9Z"/><path d="M141.65,241.06a.29.29,0,0,1-.09.23.29.29,0,0,1-.19.08H135a3.51,3.51,0,0,0,.81,2.13,2.47,2.47,0,0,0,2,.82,7.38,7.38,0,0,0,1.46-.16,4.72,4.72,0,0,0,1.49-.58c.1-.05.15,0,.18,0a.87.87,0,0,1,0,.25v1.34a.55.55,0,0,1-.06.28.79.79,0,0,1-.23.19,4.5,4.5,0,0,1-1.37.45,9.51,9.51,0,0,1-1.6.13A4.52,4.52,0,0,1,134,244.8a6.41,6.41,0,0,1-1.24-4.25,7.92,7.92,0,0,1,.28-2.05,5.64,5.64,0,0,1,.82-1.81,4.22,4.22,0,0,1,1.41-1.28,4.05,4.05,0,0,1,2-.48,4.15,4.15,0,0,1,2,.44,3.83,3.83,0,0,1,1.35,1.21,4.91,4.91,0,0,1,.75,1.76,9.28,9.28,0,0,1,.24,2.16c0,.09,0,.19,0,.31S141.65,241,141.65,241.06Zm-4.25-4.27a2,2,0,0,0-.94.23,2.69,2.69,0,0,0-.7.6,3.22,3.22,0,0,0-.47.86,5,5,0,0,0-.26,1h4.44a3.48,3.48,0,0,0-.12-.86,3.31,3.31,0,0,0-.38-.86,2.27,2.27,0,0,0-.64-.67A1.59,1.59,0,0,0,137.4,236.79Z"/><path d="M152.24,244.46a4.73,4.73,0,0,1-1.66,1.33,5.64,5.64,0,0,1-4.39,0,4.42,4.42,0,0,1-1.59-1.23,5.11,5.11,0,0,1-1-1.8,7.69,7.69,0,0,1,0-4.39,5.06,5.06,0,0,1,1-1.79,4.45,4.45,0,0,1,1.58-1.22,5.05,5.05,0,0,1,2.2-.44,5.12,5.12,0,0,1,2.2.44,4.57,4.57,0,0,1,1.59,1.22,5.41,5.41,0,0,1,1,1.79,7.63,7.63,0,0,1,0,4.34A5.42,5.42,0,0,1,152.24,244.46Zm-3.86-7.63a2.52,2.52,0,0,0-1.31.33,2.74,2.74,0,0,0-.9.86,4.34,4.34,0,0,0-.53,1.2,5.67,5.67,0,0,0-.17,1.35,5.55,5.55,0,0,0,.17,1.35,4.47,4.47,0,0,0,.53,1.22,2.68,2.68,0,0,0,.9.87,2.77,2.77,0,0,0,2.62,0,2.68,2.68,0,0,0,.9-.87,4.18,4.18,0,0,0,.53-1.22,5.37,5.37,0,0,0,0-2.68,4.06,4.06,0,0,0-.53-1.2,2.77,2.77,0,0,0-.9-.87A2.41,2.41,0,0,0,148.38,236.83Z"/><path d="M162.63,245.93a.25.25,0,0,1-.17-.05.12.12,0,0,1,0-.14V245a3.41,3.41,0,0,1-1.24.95,3.62,3.62,0,0,1-1.52.33,3.51,3.51,0,0,1-2.82-1.1,4.81,4.81,0,0,1-.93-3.17v-6.5a.34.34,0,0,1,.07-.19.23.23,0,0,1,.17-.08h1.59a.22.22,0,0,1,.17.09.34.34,0,0,1,.08.2v6.17a3.37,3.37,0,0,0,.48,2.06,1.67,1.67,0,0,0,1.4.6,2.18,2.18,0,0,0,1.74-.8,3.5,3.5,0,0,0,.69-2.36v-5.69a.28.28,0,0,1,.07-.19.21.21,0,0,1,.16-.08h1.61a.2.2,0,0,1,.17.1.47.47,0,0,1,.07.21v7.92c0,.4,0,.79,0,1.18s0,.75,0,1.07c0,.17-.07.25-.21.25Z"/><path d="M167.6,246a.2.2,0,0,1-.22-.23v-15.3a.24.24,0,0,1,.07-.16.22.22,0,0,1,.17-.07h1.63a.24.24,0,0,1,.23.23v15.3a.24.24,0,0,1-.23.23Z"/><path d="M311.29,187.57q-1.34,1.78-2.52,3.48c-.79,1.14-1.45,2-2,2.75a9.64,9.64,0,0,0-1.28,2.71,11.58,11.58,0,0,0-.45,3.36c0,.6-.28.89-.84.89h-3.65a.85.85,0,0,1-.57-.15c-.12-.09-.17-.31-.17-.64a17.15,17.15,0,0,1,.29-3.14,12.84,12.84,0,0,1,.79-2.74,22.37,22.37,0,0,1,1.31-2.42A15.85,15.85,0,0,1,304,189.3a19.3,19.3,0,0,0,2.59-3.73,8.17,8.17,0,0,0,1.06-3.83,4.32,4.32,0,0,0-1.53-3.56,5.74,5.74,0,0,0-3.71-1.23,18.2,18.2,0,0,0-3.38.29,16.76,16.76,0,0,0-3.24,1c-.69.33-1,.22-1-.35v-4.1a.7.7,0,0,1,.54-.69c.56-.2,1.18-.39,1.85-.57s1.35-.32,2-.44,1.34-.21,2-.27a16.43,16.43,0,0,1,1.73-.1,11.64,11.64,0,0,1,4.05.69,9.73,9.73,0,0,1,3.24,1.93,9,9,0,0,1,2.12,2.89,8.53,8.53,0,0,1,.77,3.63,13.38,13.38,0,0,1-.5,3.95A9.08,9.08,0,0,1,311.29,187.57ZM302.2,210.2a3,3,0,0,1-2.25-.94,3.24,3.24,0,0,1,0-4.52,3,3,0,0,1,2.25-1,3.12,3.12,0,0,1,2.29,1,3.12,3.12,0,0,1,0,4.52A3.14,3.14,0,0,1,302.2,210.2Z"/><polygon points="218.38 180.98 231.08 193.68 218.38 206.37 218.38 180.98"/><path class="cls-27" d="M58.32,51.84h578a17.6,17.6,0,0,1,17.6,17.6v56.84a0,0,0,0,1,0,0H40.73a0,0,0,0,1,0,0V69.44A17.6,17.6,0,0,1,58.32,51.84Z"/><path class="cls-27" d="M40.73,374.31H653.91a0,0,0,0,1,0,0v56.32a17.53,17.53,0,0,1-17.53,17.53H58.25a17.53,17.53,0,0,1-17.53-17.53V374.31A0,0,0,0,1,40.73,374.31Z"/><path d="M127.45,91.86a3.93,3.93,0,0,1-3.92-4.25V81.93a4.53,4.53,0,0,1,4.16-4.48h2.14a4.38,4.38,0,0,1,4.06,4.48v5.85a3.94,3.94,0,0,1-3.78,4.08Zm1.69-2.49a2.1,2.1,0,0,0,2-2.09V82.17a2.08,2.08,0,0,0-2-2h-.76a2.13,2.13,0,0,0-2.07,1.91v5.38a1.89,1.89,0,0,0,1.83,1.86Zm12.25,7h-3.33V89.72H135V86.94h3.06V84.47H135v-2.8h3.06V76.43h3.33Z"/><path d="M154.61,77.8V80h-1.43a4.19,4.19,0,0,1,.55,2.19v2.09a3.46,3.46,0,0,1-3.58,3.44h-2.21c-1.71,0-3.11-1.14-3.11-3.4V82.2a3.64,3.64,0,0,1,.69-2.19h-1.76V77.8h3.87V76.4h3.3v1.4ZM151,82.41c0-.78-.31-1.4-1.1-1.4h-1.09c-.78,0-1.19.62-1.19,1.4v1.66a1.08,1.08,0,0,0,1.24,1.19h.9A1.15,1.15,0,0,0,151,84Zm8.45,7.26a2.64,2.64,0,0,1,2.78,2.45v1.95a2.37,2.37,0,0,1-2.54,2.3h-9.22a2.8,2.8,0,0,1-2.61-2.28v-2c.26-1.71,2.26-2.45,3.28-2.45Zm-7.34,2.47c-.92,0-1.07.38-1.23.69l0,.62c.29.64.62.62,1.26.62h6.34c.55,0,1-.17,1-.62V93a1,1,0,0,0-1-.86ZM162.28,76.4V87.94h-2.71v-4h-1.76v4h-2.7V76.4h2.7v5.25h1.76V76.4Z"/><path d="M174.57,95.29h-2.09V91.71a8.94,8.94,0,0,1-5,1.85,16.33,16.33,0,0,1-3,0V91.66c3.08.61,7.15-.88,8-1.21V83.52h2.12Zm-5.81-11.46a1.84,1.84,0,0,1,1.9,1.91v1.9a1.84,1.84,0,0,1-2.06,1.91h-1.67a1.85,1.85,0,0,1-2-1.76V85.74a1.9,1.9,0,0,1,2-1.91Zm.21,2.28a.79.79,0,0,0-.81-.8h-.6a.85.85,0,0,0-.88.8v1.16a.85.85,0,0,0,.88.81h.6a.79.79,0,0,0,.81-.81Z"/><path d="M187,77.21v9.5H177v-9.5H180v2.61h3.89V77.21ZM178.4,91.38h10.78V90.29H178.4V88.37h14.08V93.5H181.42v.9h11.06v2.23H178.4Zm5.53-7.09v-2H180v2Zm11.3-.91H192.5v3.71h-3V76.38h3v4.2h2.73Z"/><path d="M203.83,80.91c-.1,1.43-.17,6.89,3.75,8.22v2.75a8.8,8.8,0,0,1-2.23-.85,6.23,6.23,0,0,1-3.09-3.49,6,6,0,0,1-3.11,3.58,7.84,7.84,0,0,1-2.23.76V89.13c3.91-1.33,3.75-6.79,3.65-8.22h-3.68V78.25h10.73v2.66Zm11.91,2.16v3.07h-3V96.39h-3.3V76.66h3.3v6.41Z"/><path d="M235,87.44h-7.62v2h6v2.25a10.47,10.47,0,0,1-.52,3,13.65,13.65,0,0,1-.48,1.28h-2.92a9.21,9.21,0,0,0,.93-2.7,6.7,6.7,0,0,0,.09-1.14H219V89.44h5.35v-2h-7.18V84.78h11.78a17.56,17.56,0,0,0,.81-3.65,11.85,11.85,0,0,0,.09-1.52h-10.7V76.88H233v2.49a28.29,28.29,0,0,1-1,5.41h3Z"/><path class="cls-28" d="M104.67,79.06c.18-.18.44-.33.51-.55s-.2-.37-.36-.52-.65-.47-.94-.74-.12-.36.16-.42a1,1,0,0,1,1.19.56l.72,1.28a1.1,1.1,0,0,0,1,.54,5.65,5.65,0,0,1,1.06.2c.25,0,.49.13.74.16.72.08,1,.36.88,1a1,1,0,0,1-1.24.83c-.43-.13-.89.63-1.31.44s-1-.42-1.16.06c-1,3.56-1.06-.83-1.46-1.2a8.2,8.2,0,0,1-.88-1,2.29,2.29,0,0,0-2.51-.91L98,79.51a2.53,2.53,0,0,0-1.41,1c-.38.48-.73,1-1.1,1.46a4.31,4.31,0,0,0-.88,2.56c0,.43-.1.86-.11,1.29a4.94,4.94,0,0,0,1.73,4.23,3.46,3.46,0,0,0,3.2.79,1.82,1.82,0,0,1,2.29,1.32,17.86,17.86,0,0,1,.72,3,12.16,12.16,0,0,1-.15,2.07,3.25,3.25,0,0,0,.09,1.08c.29.93.63,1.84,1,2.76a6.67,6.67,0,0,0,.29.74,1,1,0,0,0,1.44.66,7.24,7.24,0,0,0,3.76-2.71c.29-.4-1.71-10.17,4-9.77.12,0,.17-.17.25-.26a1.21,1.21,0,0,0,.1-1.86c-.16-.23-.34-.45-.48-.69a.6.6,0,0,1,.31-1,1.57,1.57,0,0,0,1-1.15,9.24,9.24,0,0,1,.29-.89c.11-.3.35-.35.56-.14a1.53,1.53,0,0,1,.49.8c.06,1.44.13,2.89,0,4.34a16.92,16.92,0,0,1-1.84,6.67,19.52,19.52,0,0,1-14.62,11,19.31,19.31,0,0,1-13.36-2.4c-.17-.1-.39-.25-.43-.42a10.05,10.05,0,0,1-.27-2c0-.72.58-1.14,1.1-1.54s1.15-.79,1.69-1.22a5.07,5.07,0,0,0,1.74-5.57,1.6,1.6,0,0,0-.78-1c-.5-.26-1-.56-1.5-.78A5,5,0,0,1,85,90.21a5.3,5.3,0,0,0-1.82-1.67C82.09,88,81,87.34,79.9,86.86a2.73,2.73,0,0,1-1.15-4.39c.68-.85,1.46-1.6,2.2-2.39.39-.43.8-.84,1.16-1.28a3,3,0,0,1,1.61-1.11,12.76,12.76,0,0,0,1.8-.76A2.34,2.34,0,0,0,87,74.73c0-.29.06-.59.1-.88a2.24,2.24,0,0,0-.28-1.49,2.13,2.13,0,0,1-.31-1.83,1,1,0,0,1,.44-.56,4,4,0,0,1,2.24-.41c.66.06.78.26.7.91s-.19,1.47-.23,2.21.08.74.69.63c.88-.15,1.76-.37,2.64-.57s2-.44,3-.69A3.39,3.39,0,0,0,98.35,70a1.14,1.14,0,0,0-.2-1.14c-.35-.5-.75-1-1.12-1.45,2.42-.65,10.86,3.1,12.26,5.49a2.16,2.16,0,0,1-1.46-.19c-1.09-.49-2.18-1-3.26-1.51a1.18,1.18,0,0,0-1,0c-.53.23-1.07.44-1.6.66-.76.3-.92.67-.62,1.43s.18.65-.29,1.14.6,2.18,1.24,2.59c.42.27.86.53,1.3.77s1.11.46.9,1.29Z"/><path class="cls-28" d="M75.67,85.69a5.73,5.73,0,0,1,1.41,2.61c.34,1.29.72,2.57.94,3.88a6,6,0,0,0,1.64,3.19,4,4,0,0,1,1.15,2.34,9.35,9.35,0,0,0,2.44,4.86,5.44,5.44,0,0,1,.39.55A19.44,19.44,0,0,1,75.67,85.69Z"/><path class="cls-29" d="M92.4,83.24c-1.18-.88-2-1.76-3.3-1.53-1.08.2-1.82,2-1.45,3.05.58,1.65,2.74,2.21,4.23,2A1.84,1.84,0,0,0,93.46,84C93.2,83.57,92.58,83.48,92.4,83.24Z"/><path class="cls-29" d="M94.21,79.78c-.52-.45-.88-1.21-1.56-1.24a1.65,1.65,0,0,0-1.45,2.11,3,3,0,0,0,2.85,1.9,1.22,1.22,0,0,0,1.06-1.83c-.19-.38-.37-.39-.61-.75C94.48,80,94.23,79.77,94.21,79.78Z"/><path class="cls-29" d="M94.81,79.18a7.13,7.13,0,0,0,1.16.45,1,1,0,0,0,1.25-1.31A2.5,2.5,0,0,0,95,76.62c-.79,0-1.33.28-1.25,1.07a2,2,0,0,0,.72,1.37S94.82,79.16,94.81,79.18Z"/><path class="cls-29" d="M99.22,75.89a5,5,0,0,0-.51-.27.83.83,0,0,0-1.2.92,1.9,1.9,0,0,0,1.3,1.57.83.83,0,0,0,1.12-1A2.13,2.13,0,0,0,99.22,75.89Z"/><path class="cls-29" d="M109.28,77.37a1.55,1.55,0,0,0,1,.65.63.63,0,0,0,.74-.56,1.53,1.53,0,0,0-1.16-1.56c-.56-.11-.95.4-.76,1A4.41,4.41,0,0,0,109.28,77.37Z"/><path class="cls-29" d="M116.86,87.39a21.32,21.32,0,1,1-21.14-21.5A21.34,21.34,0,0,1,116.86,87.39Zm-12.19-8.33-.19-.07c.21-.83-.39-1-.9-1.29s-.88-.5-1.3-.77c-2.23-1.75-1.55.36-2.51,1-.31.2-.2.14-.77.15-.29,0-.46-.19-.75-.27s-.68-.89-.74-1.28c-.21-1.43,0-1.51,1.45-1.43.82,0,1.5.32,2.08-.77.47-.49.53-.51.29-1.14a1.11,1.11,0,0,1,.61-1.43c.52-.21,1-.41,1.55-.63a1.31,1.31,0,0,1,1.08,0c1.08.52,2.17,1,3.26,1.51a2.16,2.16,0,0,0,1.46.19c-1.4-2.39-9.84-6.14-12.26-5.49.37.48.77,1,1.12,1.45a1.14,1.14,0,0,1,.2,1.14A3.39,3.39,0,0,1,96,72.05c-1,.25-2,.47-3,.69s-1.76.42-2.64.57c-.61.11-.73,0-.69-.63s.14-1.48.23-2.21,0-.85-.7-.91a4,4,0,0,0-2.24.41,1,1,0,0,0-.44.56,2.13,2.13,0,0,0,.31,1.83,2.24,2.24,0,0,1,.28,1.49c0,.29-.08.59-.1.88a2.34,2.34,0,0,1-1.45,2.2,12.76,12.76,0,0,1-1.8.76,3,3,0,0,0-1.61,1.11c-.36.44-.77.85-1.16,1.28-.74.79-1.52,1.54-2.2,2.39a2.73,2.73,0,0,0,1.15,4.39c1.09.47,2.13,1.07,3.18,1.63A5.53,5.53,0,0,1,85,90.21,5,5,0,0,0,87.07,92c.51.22,1,.52,1.5.78a1.6,1.6,0,0,1,.78,1,5.07,5.07,0,0,1-1.74,5.57c-.54.43-1.14.8-1.69,1.22s-1.1.82-1.1,1.54a10.05,10.05,0,0,0,.27,2c0,.17.26.32.43.42a19.21,19.21,0,0,0,13.28,2.41,20.39,20.39,0,0,0,14-9.77,17.43,17.43,0,0,0,2.53-7.92c.08-1.45,0-2.9,0-4.34a1.53,1.53,0,0,0-.49-.8c-.21-.21-.45-.16-.56.14a9.24,9.24,0,0,0-.29.89,1.57,1.57,0,0,1-1,1.15.6.6,0,0,0-.31,1c.14.24.32.46.48.69a1.21,1.21,0,0,1-.1,1.86l-.25.26c-.88,1-3-.86-1.83,3.5a10,10,0,0,1-1,2.94,11.87,11.87,0,0,0-.67,1.87,5.61,5.61,0,0,1-.52,1.46,7.24,7.24,0,0,1-3.76,2.71,1,1,0,0,1-1.44-.66,6.67,6.67,0,0,1-.29-.74c-.33-.92-.67-1.83-1-2.76a3.25,3.25,0,0,1-.09-1.08,12.16,12.16,0,0,0,.15-2.07,17.86,17.86,0,0,0-.72-3,1.82,1.82,0,0,0-2.29-1.32,3.46,3.46,0,0,1-3.2-.79,4.94,4.94,0,0,1-1.73-4.23c0-.43.1-.86.11-1.29A4.31,4.31,0,0,1,95.46,82c.37-.48.72-1,1.1-1.46a2.55,2.55,0,0,1,1.46-1,25,25,0,0,0,2.82-.64,2.31,2.31,0,0,1,2.75.84,8.2,8.2,0,0,0,.88,1c.36.33.34,1.46,1.12.54a1.31,1.31,0,0,1,1.53-.36h0a9.9,9.9,0,0,0,1.27.51,1,1,0,0,0,1.24-.83c.1-.62-.16-.9-.88-1-.25,0-.49-.11-.74-.16a5.65,5.65,0,0,0-1.06-.2,1.1,1.1,0,0,1-1-.54l-.72-1.28a1,1,0,0,0-1.19-.56c-.28.06-.39.21-.16.42s.64.48.94.74.4.4.36.52S104.85,78.88,104.67,79.06Zm-29,6.63a19.44,19.44,0,0,0,8,17.43,5.44,5.44,0,0,0-.39-.55,9.35,9.35,0,0,1-2.44-4.86,4,4,0,0,0-1.15-2.34A6,6,0,0,1,78,92.18c-.22-1.31-.6-2.59-.94-3.88A5.73,5.73,0,0,0,75.67,85.69Z"/><path d="M95.53,65.89a21.32,21.32,0,1,0,21.33,21.32A21.21,21.21,0,0,0,95.53,65.89Zm0,41.16a19.84,19.84,0,1,1,19.82-19.84A19.79,19.79,0,0,1,95.56,107.05Z"/><path d="M603.6,429.85a1.47,1.47,0,0,1-.19-.5q0-18.14,0-36.27v-.45h6.36v36.8c0,.14,0,.28,0,.42Z"/><path d="M499.16,392.63h4.26v37.22h-4.26Z"/><path d="M616.15,429.85V392.62h4.26v37.23Z"/><path d="M531.13,429.85c0-.22,0-.44,0-.65V392.63h4.19v.57q0,18,0,36.05a2.61,2.61,0,0,1-.14.6Z"/><path d="M558.84,429.85a2.38,2.38,0,0,1-.15-.55q0-18.07,0-36.13v-.54h4.2a3.93,3.93,0,0,1,.06.48v36.23a3,3,0,0,1-.09.51Z"/><path d="M569.49,429.85a1.68,1.68,0,0,1-.18-.5q0-18.14,0-36.27v-.45h4.27v.48q0,18.11,0,36.23a4.38,4.38,0,0,1,0,.51Z"/><path d="M578,429.85a1.68,1.68,0,0,1-.18-.5q0-18.14,0-36.27v-.45h4.26v36.71c0,.17,0,.34,0,.51Z"/><path d="M586.55,429.85a1.47,1.47,0,0,1-.19-.5q0-18.14,0-36.27v-.45h4.27v36.71a4.4,4.4,0,0,1,0,.51Z"/><path d="M592.94,429.85c-.07-.17-.21-.33-.21-.49q0-18.15,0-36.29v-.44h4.21a2.84,2.84,0,0,1,.05.42v36.38c0,.14,0,.28,0,.42Z"/><path d="M505.55,429.85c0-.22,0-.44,0-.65V392.62h2.15v37.23Z"/><path d="M611.89,429.85V392.62H614c0,.14,0,.29,0,.44q0,18.18,0,36.37c0,.14,0,.28,0,.42Z"/><path d="M512,429.85V392.62h2.11v.5q0,18.11,0,36.19a1.73,1.73,0,0,1-.21.54Z"/><path d="M522.6,429.85c0-.2,0-.41,0-.61V392.63h2.1v.49q0,18.09,0,36.18a2,2,0,0,1-.18.55Z"/><path d="M541.79,429.85c0-.2,0-.41,0-.61V392.62h2.09v.53q0,18.08,0,36.15a2.34,2.34,0,0,1-.14.55Z"/><path d="M546.05,429.85c0-.2,0-.41,0-.61V392.62h2.09v.53q0,18.08,0,36.15a2.34,2.34,0,0,1-.14.55Z"/><path d="M550.31,429.85c0-.2,0-.41,0-.61V392.62h2.09V429.3a3,3,0,0,1-.14.55Z"/></g></svg>