<svg xmlns="http://www.w3.org/2000/svg" xmlns:xlink="http://www.w3.org/1999/xlink" viewBox="0 0 694.64 500"><defs><style>.cls-1{fill:#fff;}.cls-2{opacity:0.5;}.cls-3{fill:url(#무제_그라디언트_7);}.cls-4{fill:#688c3f;}.cls-5{fill:#7ba04d;}.cls-6{fill:#c9e8f2;}.cls-7{fill:#49493f;}.cls-8{fill:#f2ebd1;}.cls-9{fill:#f9d7e4;}.cls-10{fill:#d7ecf4;}.cls-11{fill:#b6c546;}.cls-12{fill:#418e7a;}.cls-13{fill:#c1594c;}.cls-14{fill:#717171;}.cls-15{fill:#464346;}.cls-16{fill:#545454;}.cls-17{fill:#757f89;}.cls-18{fill:#4c5260;}.cls-19{fill:#888984;}.cls-20{fill:#e4d7b5;}.cls-21{fill:#a89256;}.cls-22{fill:#3c3016;}.cls-23{fill:#b0b3ac;}.cls-24{fill:none;stroke:#49493f;stroke-miterlimit:10;stroke-width:2px;}.cls-25{fill:#f4fffc;}.cls-26{fill:#456f41;}.cls-27{fill:#4c3725;}.cls-28{fill:#bdcf5f;}.cls-29{fill:#9c6;}.cls-30{fill:#3f8cb9;}.cls-31{fill:#9bcc60;}</style><linearGradient id="무제_그라디언트_7" x1="347.19" y1="351.46" x2="347.19" y2="120.49" gradientUnits="userSpaceOnUse"><stop offset="0.45" stop-color="#fff"/><stop offset="0.67" stop-color="#f7fcfe"/><stop offset="0.77" stop-color="#f1fafd"/><stop offset="0.86" stop-color="#e5f5fe"/><stop offset="0.95" stop-color="#def2ff"/></linearGradient></defs><g id="레이어_3" data-name="레이어 3"><rect class="cls-1" x="40.73" y="125.19" width="613.18" height="249.96"/><g class="cls-2"><rect class="cls-3" x="40.59" y="125.19" width="613.19" height="249.96"/><path class="cls-4" d="M269.71,351H393.27c1.07,0,1.61-.8.86-1.28-10.09-6.37-55-34.49-62.44-34.5-7.75,0-30.93,19.1-35.25,19.71-3.91.55-21.41,10.29-27.65,14.83C268.12,350.25,268.68,351,269.71,351Z"/><path class="cls-4" d="M40.87,349.82H314.22S179.61,248.9,159.59,248.88c-18.59,0-74.19,53.89-84.55,55.6-5.07.84-19.45,9.27-34.17,18.86"/><path class="cls-5" d="M40.59,323.34c14.75-9.59,29.17-18,34.25-18.86,10.39-1.71,66.11-55.62,84.75-55.6L108.87,349.82H40.59"/><path class="cls-5" d="M653.61,350.57H488.1s81.5-76.94,93.63-77c11.25,0,44.92,41.09,51.19,42.39,3.07.64,11.78,7.07,20.69,14.38"/><path class="cls-4" d="M653.78,330.38c-8.93-7.31-17.66-13.74-20.74-14.38-6.29-1.3-40-42.4-51.31-42.39l-33.79,77H653.78"/><path class="cls-6" d="M404.33,232.28q-20,0-39.93,0c-7,0-11.53-3.44-11.94-9.24-.41-6,3.31-10,10.5-10.51,3.33-.22,2.6-2.52,3-4.1,3.41-12.9,16.91-18.65,28.23-11.86a17.31,17.31,0,0,1,8.15,10.87c.53,2.09,1,2.81,3.61,2.27,5.67-1.21,9,.75,11.52,6.17.86,1.88,1.57,2.63,3.43,1.43a3.85,3.85,0,0,1,.88-.45c5-1.61,8.21,2.81,12,3.62s8.42-2.19,12.45,1.17a9.71,9.71,0,0,1,3.2,4.93c1.29,4.58.55,5.67-4.21,5.68Q424.8,232.3,404.33,232.28Z"/><path class="cls-6" d="M561.49,202q14.61,0,29.22,0c5.15,0,8.43-2.52,8.73-6.76s-2.42-7.35-7.68-7.69c-2.44-.17-1.9-1.85-2.2-3-2.49-9.44-12.38-13.65-20.66-8.68a12.65,12.65,0,0,0-6,8c-.39,1.52-.76,2-2.64,1.65-4.15-.88-6.62.55-8.44,4.52-.62,1.37-1.14,1.92-2.5,1a3.31,3.31,0,0,0-.65-.33c-3.68-1.18-6,2.06-8.8,2.66s-6.16-1.61-9.11.85a7,7,0,0,0-2.34,3.61c-.94,3.35-.4,4.15,3.08,4.15Q546.51,202,561.49,202Z"/><path class="cls-6" d="M579.55,209.72h17.26c3,0,5-1.38,5.15-3.7s-1.43-4-4.53-4.22c-1.44-.08-1.12-1-1.3-1.64a8.26,8.26,0,0,0-12.2-4.75,7,7,0,0,0-3.52,4.36c-.23.83-.45,1.12-1.56.9a4,4,0,0,0-5,2.48c-.37.75-.68,1.05-1.48.57a1.88,1.88,0,0,0-.38-.18c-2.17-.65-3.55,1.12-5.2,1.45s-3.64-.88-5.38.47a3.8,3.8,0,0,0-1.38,2c-.56,1.84-.24,2.28,1.82,2.28Z"/><path class="cls-6" d="M354.13,239.9q-10.94,0-21.89,0c-3.86,0-6.32-1.74-6.54-4.69s1.82-5.11,5.76-5.35c1.82-.11,1.42-1.28,1.65-2.08,1.86-6.56,9.26-9.48,15.47-6a8.87,8.87,0,0,1,4.46,5.53c.29,1.06.58,1.43,2,1.15,3.11-.61,5,.38,6.32,3.14.47,1,.86,1.34,1.88.72a2.12,2.12,0,0,1,.48-.23c2.76-.81,4.5,1.43,6.59,1.85s4.62-1.12,6.83.59a4.87,4.87,0,0,1,1.75,2.51c.71,2.33.3,2.88-2.3,2.88Z"/><rect class="cls-7" x="580.14" y="273.81" width="31.1" height="66.21"/><path class="cls-8" d="M577.71,269.62v82.57h34.75V269.62Zm14,63.2h-7.78V330h7.78Zm0-6.54h-7.78V323.5h7.78Zm0-6.55h-7.78V317h7.78Zm0-6.54h-7.78v-2.78h7.78Zm0-6.55h-7.78v-2.78h7.78Zm0-6.54h-7.78v-2.78h7.78Zm0-6.55h-7.78v-2.78h7.78Zm0-6.54h-7.78v-2.78h7.78Zm0-6.55h-7.78v-2.78h7.78Zm14.51,52.36h-7.78V330h7.78Zm0-6.54h-7.78V323.5h7.78Zm0-6.55h-7.78V317h7.78Zm0-6.54h-7.78v-2.78h7.78Zm0-6.55h-7.78v-2.78h7.78Zm0-6.54h-7.78v-2.78h7.78Zm0-6.55h-7.78v-2.78h7.78Zm0-6.54h-7.78v-2.78h7.78Zm0-6.55h-7.78v-2.78h7.78Z"/><rect class="cls-7" x="619.32" y="289.3" width="21.29" height="45.34"/><path class="cls-8" d="M617,285.06V347.2H643.2V285.06Zm10.55,47.57h-5.86v-2.1h5.86Zm0-4.93h-5.86v-2.09h5.86Zm0-4.93h-5.86v-2.09h5.86Zm0-4.92h-5.86v-2.1h5.86Zm0-4.93h-5.86v-2.09h5.86Zm0-4.93h-5.86V305.9h5.86Zm0-4.92h-5.86V301h5.86Zm0-4.93h-5.86v-2.09h5.86Zm0-4.92h-5.86v-2.1h5.86Zm10.92,39.41h-5.86v-2.1h5.86Zm0-4.93h-5.86v-2.09h5.86Zm0-4.93h-5.86v-2.09h5.86Zm0-4.92h-5.86v-2.1h5.86Zm0-4.93h-5.86v-2.09h5.86Zm0-4.93h-5.86V305.9h5.86Zm0-4.92h-5.86V301h5.86Zm0-4.93h-5.86v-2.09h5.86Zm0-4.92h-5.86v-2.1h5.86Z"/><rect class="cls-7" x="362.68" y="280.86" width="25.52" height="54.35" transform="translate(750.89 616.06) rotate(-180)"/><path class="cls-9" d="M361.68,277.42v67.77H390.2V277.42Zm17,49.6h6.39v2.28H378.7Zm0-5.38h6.39v2.29H378.7Zm0-5.37h6.39v2.28H378.7Zm0-5.37h6.39v2.28H378.7Zm0-5.37h6.39v2.28H378.7Zm0-5.37h6.39v2.28H378.7Zm0-5.38h6.39v2.29H378.7Zm0-5.37h6.39v2.28H378.7Zm0-5.37h6.39v2.28H378.7Zm-11.91,43h6.39v2.28h-6.39Zm0-5.38h6.39v2.29h-6.39Zm0-5.37h6.39v2.28h-6.39Zm0-5.37h6.39v2.28h-6.39Zm0-5.37h6.39v2.28h-6.39Zm0-5.37h6.39v2.28h-6.39Zm0-5.38h6.39v2.29h-6.39Zm0-5.37h6.39v2.28h-6.39Zm0-5.37h6.39v2.28h-6.39Z"/><rect class="cls-7" x="330.96" y="289.63" width="21.29" height="45.34" transform="translate(683.22 624.61) rotate(-180)"/><path class="cls-10" d="M329.15,285v62.14H355.3V285Zm15.61,45.48h5.85v2.09h-5.85Zm0-4.93h5.85v2.09h-5.85Zm0-4.92h5.85v2.09h-5.85Zm0-4.93h5.85v2.09h-5.85Zm0-4.93h5.85v2.09h-5.85Zm0-4.92h5.85v2.09h-5.85Zm0-4.93h5.85V303h-5.85Zm0-4.93h5.85v2.1h-5.85Zm0-4.92h5.85v2.09h-5.85Zm-10.92,39.41h5.85v2.09h-5.85Zm0-4.93h5.85v2.09h-5.85Zm0-4.92h5.85v2.09h-5.85Zm0-4.93h5.85v2.09h-5.85Zm0-4.93h5.85v2.09h-5.85Zm0-4.92h5.85v2.09h-5.85Zm0-4.93h5.85V303h-5.85Zm0-4.93h5.85v2.1h-5.85Zm0-4.92h5.85v2.09h-5.85Z"/><rect class="cls-11" x="40.59" y="345.92" width="613.19" height="29.23"/><rect class="cls-12" x="444.49" y="245.77" width="79.56" height="22.34"/><rect class="cls-13" x="444.49" y="245.77" width="3.78" height="22.34"/><rect class="cls-13" x="468.95" y="245.77" width="3.78" height="22.34"/><rect class="cls-13" x="483.19" y="215.3" width="2.16" height="79.11" transform="translate(229.42 739.12) rotate(-90)"/><rect class="cls-13" x="495.65" y="245.77" width="3.78" height="22.34"/><rect class="cls-12" x="436.68" y="274.9" width="95.18" height="9.08"/><rect class="cls-13" x="465.94" y="274.9" width="4.52" height="10.16"/><rect class="cls-13" x="436.68" y="274.9" width="4.52" height="10.16"/><rect class="cls-13" x="483.19" y="236.39" width="2.16" height="95.18" transform="translate(200.29 768.25) rotate(-90)"/><rect class="cls-13" x="497.88" y="274.9" width="4.52" height="10.16"/><rect class="cls-13" x="527.34" y="274.9" width="4.52" height="10.16"/><rect class="cls-13" x="520.27" y="245.77" width="3.78" height="22.34"/><rect class="cls-14" x="444.49" y="243.26" width="79.56" height="2.51"/><rect class="cls-15" x="474.38" y="245.77" width="19.48" height="6.21"/><path class="cls-16" d="M547.84,232.63s-1.93,7.92-14.14,10.63h-100s-10.31-2.23-12.54-10.63"/><path class="cls-17" d="M484.51,241c-34.12,0-55.61-2.08-58-2.91s-5.36-5.5-5.36-5.5l28-5.4,2.31-14.37h66l2.3,14.37,28,5.4s-3,4.66-5.37,5.5S518.64,241,484.51,241Z"/><path class="cls-18" d="M524.24,230.36l-2-.4v10.12l2-.11Z"/><path class="cls-18" d="M520.42,229.59l-2-.39v11.08l2-.1Z"/><path class="cls-18" d="M516.61,228.56l-2-11.76v23.65l2-.09Z"/><path class="cls-18" d="M463.21,215.94h-2V240.7l2,.05Z"/><path class="cls-18" d="M528.05,231.13l-2-.4v9.12l2-.13Z"/><path class="cls-18" d="M539.49,233.43l-2-.39v5.86l2-.24Z"/><path class="cls-18" d="M531.86,231.9l-2-.4v8.09l2-.16Z"/><path class="cls-18" d="M535.68,232.67l-2-.4v7l2-.19Z"/><path class="cls-18" d="M493.72,215.94h-2V241l2,0Z"/><path class="cls-18" d="M487.93,241h2V215.94h-2Z"/><path class="cls-18" d="M497.54,215.94h-2v25l2,0Z"/><path class="cls-18" d="M512.79,215.94h-2v24.65l2-.07Z"/><path class="cls-18" d="M545.15,234.57v1.69a9.79,9.79,0,0,0,1.12-1.46Z"/><path class="cls-18" d="M509,215.94h-2v24.78l2-.06Z"/><path class="cls-18" d="M505.16,215.94h-2v24.88l2,0Z"/><path class="cls-18" d="M501.35,215.94h-2v25l2,0Z"/><path class="cls-18" d="M432.69,232.8l-2,.4v5.61l2,.22Z"/><path class="cls-18" d="M436.51,232l-2,.4v6.77l2,.18Z"/><path class="cls-18" d="M451.77,229l-2,.4v10.88l2,.09Z"/><path class="cls-18" d="M448,229.73l-2,.39V240l2,.1Z"/><path class="cls-18" d="M440.32,231.26l-2,.4v7.87l2,.14Z"/><path class="cls-18" d="M444.14,230.49l-2,.4v8.91l2,.13Z"/><path class="cls-18" d="M543.31,234.2l-2-.4v4.59a9.88,9.88,0,0,0,1.14-.26,7.14,7.14,0,0,0,.84-.38Z"/><path class="cls-18" d="M425.07,234.33l-2.31.47a9.28,9.28,0,0,0,2.31,2.52Z"/><path class="cls-18" d="M486.09,215.94h-2V241h2Z"/><path class="cls-18" d="M474.65,215.94h-2v25l2,0Z"/><path class="cls-18" d="M457.42,240.57l2,.07v-24.7h-2Z"/><path class="cls-18" d="M470.84,215.94h-2v24.95l2,0Z"/><path class="cls-18" d="M428.88,233.57l-2,.39v4.27c.42.1,1.08.22,2,.34Z"/><path class="cls-18" d="M467,215.94h-2V240.8l2,0Z"/><path class="cls-18" d="M478.46,215.94h-2V241l2,0Z"/><path class="cls-18" d="M453.61,240.42l2,.08V215.94h-1l-.93,5.56Z"/><path class="cls-18" d="M482.28,215.94h-2V241h2Z"/><rect class="cls-13" x="444.49" y="262.51" width="79.56" height="5.6"/><path class="cls-16" d="M556.17,263s-2.19,8.9-16.06,11.93H426.52s-11.73-2.5-14.26-11.93"/><path class="cls-17" d="M524.34,256.92l-.11-.64h-80l-.1.64L412.26,263s3.43,5.24,6.1,6.17,27.08,3.27,65.86,3.27,63.19-2.33,65.86-3.27,6.09-6.17,6.09-6.17Z"/><path class="cls-18" d="M529.35,260.43l-2.24-.45v11.35l2.24-.12Z"/><path class="cls-18" d="M525,259.57l-2.25-.45v12.44l2.25-.11Z"/><path class="cls-18" d="M518.44,256.28v15.47l2.24-.1V258.4l-.36-2.12Z"/><path class="cls-18" d="M457.77,256.28V272l2.24.06V256.28Z"/><path class="cls-18" d="M533.69,261.29l-2.25-.45v10.24l2.25-.15Z"/><path class="cls-18" d="M546.69,263.88l-2.25-.45V270q1.26-.13,2.25-.27Z"/><path class="cls-18" d="M538,262.15l-2.24-.44v9.07l2.24-.17Z"/><path class="cls-18" d="M542.35,263l-2.24-.44v7.86l2.24-.21Z"/><path class="cls-18" d="M492.44,256.28v16.09l2.24,0V256.28Z"/><path class="cls-18" d="M488.1,256.28V272.4h2.25V256.28Z"/><path class="cls-18" d="M496.77,256.28v16.05l2.24,0v-16Z"/><path class="cls-18" d="M514.11,256.28v15.63l2.24-.08V256.28Z"/><path class="cls-18" d="M553.11,265.15v1.9a10.62,10.62,0,0,0,1.28-1.64Z"/><path class="cls-18" d="M509.77,256.28v15.77L512,272v-15.7Z"/><path class="cls-18" d="M505.44,256.28v15.88l2.24-.05V256.28Z"/><path class="cls-18" d="M501.1,256.28v16l2.25-.05V256.28Z"/><path class="cls-18" d="M425.34,263.16l-2.25.45v6.3l2.25.24Z"/><path class="cls-18" d="M429.67,262.3l-2.24.45v7.6l2.24.2Z"/><path class="cls-18" d="M447,258.85l-2.25.45v12.21l2.25.11Z"/><path class="cls-18" d="M442.67,259.71l-2.24.45v11.12l2.24.13Z"/><path class="cls-18" d="M434,261.44l-2.25.44v8.83l2.25.17Z"/><path class="cls-18" d="M438.34,260.58l-2.24.44v10l2.24.14Z"/><path class="cls-18" d="M551,264.74l-2.24-.45v5.15a9.28,9.28,0,0,0,1.3-.3,6.11,6.11,0,0,0,.94-.42Z"/><path class="cls-18" d="M416.67,264.89l-2.62.52a10.57,10.57,0,0,0,2.62,2.83Z"/><path class="cls-18" d="M483.77,256.28v16.13H486V256.28Z"/><path class="cls-18" d="M470.77,256.28v16l2.24,0V256.28Z"/><path class="cls-18" d="M453.43,256.28v15.6l2.25.08V256.28Z"/><path class="cls-18" d="M466.43,256.28v16l2.25,0v-16Z"/><path class="cls-18" d="M421,264l-2.24.45v4.78c.48.12,1.23.25,2.24.39Z"/><path class="cls-18" d="M462.1,256.28v15.86l2.24.06V256.28Z"/><path class="cls-18" d="M475.1,256.28v16.08l2.25,0V256.28Z"/><path class="cls-18" d="M449.1,256.28v15.43l2.24.09V256.28Z"/><path class="cls-18" d="M479.44,256.28V272.4h2.24V256.28Z"/><polygon class="cls-17" points="524.61 258.53 443.72 258.53 444.39 255.3 524.08 255.3 524.61 258.53"/><path class="cls-16" d="M529.35,263s-1.37,8.9-10.07,11.93H448s-7.36-2.5-8.95-11.93"/><path class="cls-17" d="M509.38,256.92l-.06-.64h-50.2l-.07.64-20,6.05s2.15,5.24,3.83,6.17,17,3.27,41.31,3.27,39.63-2.33,41.31-3.27,3.82-6.17,3.82-6.17Z"/><path class="cls-18" d="M512.53,260.43l-1.41-.45v11.35l1.41-.12Z"/><path class="cls-18" d="M509.81,259.57l-1.41-.45v12.44l1.41-.11Z"/><path class="cls-18" d="M505.68,256.28v15.47l1.41-.1V258.4l-.23-2.12Z"/><path class="cls-18" d="M467.63,256.28V272l1.4.06V256.28Z"/><path class="cls-18" d="M515.25,261.29l-1.41-.45v10.24l1.41-.15Z"/><path class="cls-18" d="M523.4,263.88l-1.41-.45V270q.79-.13,1.41-.27Z"/><path class="cls-18" d="M518,262.15l-1.4-.44v9.07l1.4-.17Z"/><path class="cls-18" d="M520.68,263l-1.4-.44v7.86l1.4-.21Z"/><path class="cls-18" d="M489.37,256.28v16.09l1.41,0V256.28Z"/><path class="cls-18" d="M486.65,256.28V272.4h1.41V256.28Z"/><path class="cls-18" d="M492.09,256.28v16.05l1.41,0v-16Z"/><path class="cls-18" d="M503,256.28v15.63l1.4-.08V256.28Z"/><path class="cls-18" d="M527.43,265.15v1.9a12,12,0,0,0,.8-1.64Z"/><path class="cls-18" d="M500.25,256.28v15.77l1.4-.07v-15.7Z"/><path class="cls-18" d="M497.53,256.28v15.88l1.41-.05V256.28Z"/><path class="cls-18" d="M494.81,256.28v16l1.41-.05V256.28Z"/><path class="cls-18" d="M447.29,263.16l-1.41.45v6.3l1.41.24Z"/><path class="cls-18" d="M450,262.3l-1.4.45v7.6l1.4.2Z"/><path class="cls-18" d="M460.88,258.85l-1.41.45v12.21l1.41.11Z"/><path class="cls-18" d="M458.16,259.71l-1.41.45v11.12l1.41.13Z"/><path class="cls-18" d="M452.72,261.44l-1.41.44v8.83l1.41.17Z"/><path class="cls-18" d="M455.44,260.58,454,261v10l1.41.14Z"/><path class="cls-18" d="M526.12,264.74l-1.41-.45v5.15a4.08,4.08,0,0,0,.82-.3,3.35,3.35,0,0,0,.59-.42Z"/><path class="cls-18" d="M441.85,264.89l-1.65.52a10.52,10.52,0,0,0,1.65,2.83Z"/><path class="cls-18" d="M483.94,256.28v16.13h1.4V256.28Z"/><path class="cls-18" d="M475.78,256.28v16l1.41,0V256.28Z"/><path class="cls-18" d="M464.91,256.28v15.6l1.4.08V256.28Z"/><path class="cls-18" d="M473.06,256.28v16l1.41,0v-16Z"/><path class="cls-18" d="M444.57,264l-1.41.45v4.78a9.72,9.72,0,0,0,1.41.39Z"/><path class="cls-18" d="M470.34,256.28v15.86l1.41.06V256.28Z"/><path class="cls-18" d="M478.5,256.28v16.08l1.41,0V256.28Z"/><path class="cls-18" d="M462.19,256.28v15.43l1.41.09V256.28Z"/><path class="cls-18" d="M481.22,256.28V272.4h1.41V256.28Z"/><polygon class="cls-17" points="509.55 258.53 458.81 258.53 459.24 255.3 509.22 255.3 509.55 258.53"/><rect class="cls-19" x="443.15" y="311.91" width="79.79" height="6.75"/><rect class="cls-20" x="409.46" y="285.06" width="149.32" height="36.77"/><rect class="cls-21" x="409.46" y="285.06" width="149.32" height="4.69"/><rect class="cls-22" x="447.86" y="274.9" width="72.82" height="3.5"/><rect class="cls-22" x="442.77" y="279.99" width="13.67" height="3.5" transform="translate(167.87 731.35) rotate(-90)"/><rect class="cls-22" x="512.1" y="279.99" width="13.67" height="3.5" transform="translate(237.19 800.67) rotate(-90)"/><path class="cls-19" d="M621.86,315.83v-6.64H534.49v-6.74h-4.61V296.5H524v-6.75H444.23v6.75h-5.86v5.95h-4.61v6.74H346.68v6.64s-5.36,26.5-6.92,41.65h289C627.22,342.33,621.86,315.83,621.86,315.83Z"/><rect class="cls-23" x="442.04" y="287.41" width="83.91" height="2.34"/><rect class="cls-23" x="436.59" y="295.94" width="7.58" height="2.34"/><rect class="cls-23" x="431.76" y="302.57" width="12.42" height="2.34"/><rect class="cls-23" x="344.78" y="308.39" width="99.4" height="2.34"/><rect class="cls-23" x="523.96" y="295.94" width="7.58" height="2.34" transform="translate(1055.51 594.23) rotate(-180)"/><rect class="cls-23" x="523.96" y="302.57" width="12.42" height="2.34" transform="translate(1060.34 607.49) rotate(-180)"/><rect class="cls-23" x="523.96" y="308.39" width="99.4" height="2.34" transform="translate(1147.32 619.13) rotate(-180)"/><circle class="cls-7" cx="483.25" cy="299.46" r="1.96"/><circle class="cls-7" cx="463.5" cy="299.46" r="1.96"/><circle class="cls-7" cx="502.99" cy="299.46" r="1.96"/><line class="cls-24" x1="533.69" y1="329.17" x2="533.69" y2="352.57"/><line class="cls-24" x1="558.06" y1="329.17" x2="558.06" y2="352.57"/><line class="cls-24" x1="582.44" y1="329.17" x2="582.44" y2="352.57"/><line class="cls-24" x1="606.81" y1="329.17" x2="606.81" y2="352.57"/><line class="cls-24" x1="356.55" y1="329.17" x2="356.55" y2="352.57"/><line class="cls-24" x1="380.92" y1="329.17" x2="380.92" y2="352.57"/><line class="cls-24" x1="405.3" y1="329.17" x2="405.3" y2="352.57"/><line class="cls-24" x1="429.67" y1="329.17" x2="429.67" y2="352.57"/><path class="cls-25" d="M503.61,352.57H513v-6.23H508.4V342.1h-4.79V323.19s.46-15.78-20.56-15.82H483c-21,0-20.56,15.82-20.56,15.82V342.1h-4.6v4.24h-4.59v6.23H338.59v4.91H629.84v-4.91Z"/><path class="cls-7" d="M483.14,311.77h-.08c-16.69,0-16.33,14.43-16.33,14.43v31.28h32.74V326.2S499.83,311.81,483.14,311.77Z"/><rect class="cls-7" x="548.78" y="314.48" width="3.13" height="5.68"/><rect class="cls-7" x="576.96" y="314.48" width="3.13" height="5.68"/><rect class="cls-7" x="605.14" y="314.48" width="3.13" height="5.68"/><rect class="cls-7" x="356.55" y="314.48" width="3.13" height="5.68"/><rect class="cls-7" x="384.73" y="314.48" width="3.13" height="5.68"/><rect class="cls-7" x="412.91" y="314.48" width="3.13" height="5.68"/><path class="cls-26" d="M78.58,342.62a7.79,7.79,0,0,0,2.26-.12c3.55-.7,13.68-3.63,14.43-14.09a16.78,16.78,0,0,0-2.76-13.18,9,9,0,0,1-1.6-4.94,22.89,22.89,0,0,0-7.2-16.11,8,8,0,0,0-7-2.26c-3.42.63-7.84,3.38-10.69,12.44a27.49,27.49,0,0,0-.51,12A8.17,8.17,0,0,1,65,321C62.54,326.46,58.27,340.76,78.58,342.62Z"/><path class="cls-27" d="M88.58,316a1.41,1.41,0,0,0-1.92.52,31.78,31.78,0,0,1-6,7.58V307.88a1.41,1.41,0,1,0-2.82,0v21.18a31.7,31.7,0,0,1-6-7.59,1.41,1.41,0,0,0-2.45,1.39,33.89,33.89,0,0,0,8.46,9.9v15.88a1.41,1.41,0,0,0,2.82,0V327.82a33.89,33.89,0,0,0,8.46-9.9A1.4,1.4,0,0,0,88.58,316Z"/><path class="cls-28" d="M111.43,344.39a6.15,6.15,0,0,1-1.66-.08c-2.63-.53-10.1-2.68-10.66-10.41a12.4,12.4,0,0,1,2-9.72,6.66,6.66,0,0,0,1.18-3.65,16.91,16.91,0,0,1,5.31-11.89,6,6,0,0,1,5.19-1.67c2.52.47,5.78,2.49,7.89,9.18a20.36,20.36,0,0,1,.37,8.87,6.12,6.12,0,0,0,.4,3.41C123.27,332.46,126.42,343,111.43,344.39Z"/><path class="cls-27" d="M117.34,326.73a1,1,0,0,0-1.31.36,21.63,21.63,0,0,1-4.12,5.19V321.16a1,1,0,0,0-1.93,0v14.51a21.63,21.63,0,0,1-4.12-5.19,1,1,0,1,0-1.67.95,23.14,23.14,0,0,0,5.79,6.78v10.87a1,1,0,1,0,1.93,0V334.82a22.91,22.91,0,0,0,5.79-6.77A1,1,0,0,0,117.34,326.73Z"/></g><path d="M105.68,205.73a1.16,1.16,0,0,1-1.72,0l-2.33-2.18c-.46-.46-.41-.95.15-1.48a33.51,33.51,0,0,0,5.49-6.52,35.32,35.32,0,0,0,3.65-7.61,36.87,36.87,0,0,0,1.71-7.34,56.51,56.51,0,0,0,.37-8.13.72.72,0,0,1,.22-.52.69.69,0,0,1,.47-.22l4.4.15a.57.57,0,0,1,.44.22.77.77,0,0,1,.2.52,65.35,65.35,0,0,1-.89,11.17,22.74,22.74,0,0,0,1.48,4.77,32.08,32.08,0,0,0,2.45,4.59,34.32,34.32,0,0,0,3,4.08,24,24,0,0,0,3.26,3.16c.52.39.56.92.1,1.58l-2.08,2.52a1,1,0,0,1-.67.4,1.35,1.35,0,0,1-.91-.3,22.52,22.52,0,0,1-2.59-2.37,34.22,34.22,0,0,1-2.6-3.09,38.08,38.08,0,0,1-2.27-3.41,20.32,20.32,0,0,1-1.63-3.38,34.91,34.91,0,0,1-2,4c-.76,1.28-1.55,2.51-2.39,3.68a33.11,33.11,0,0,1-2.62,3.21A28.59,28.59,0,0,1,105.68,205.73Zm34.74,10.42H136a.56.56,0,0,1-.64-.64V189.37H125.2a.68.68,0,0,1-.47-.2.56.56,0,0,1-.22-.44v-3.51a.52.52,0,0,1,.22-.42.8.8,0,0,1,.47-.17h10.18V169.9a.57.57,0,0,1,.64-.64h4.4a.57.57,0,0,1,.64.64v45.61A.56.56,0,0,1,140.42,216.15Z"/><path d="M191.11,192.76a.77.77,0,0,1-.49.22H171.94v3.66H181a4.18,4.18,0,0,1,2.7.61,3.11,3.11,0,0,1,.66,2.3v5.68a3.07,3.07,0,0,1-.66,2.32,4.25,4.25,0,0,1-2.7.6h-20.8c-.26,0-.43,0-.49.12a1,1,0,0,0-.1.57v1.53c0,.3,0,.47.1.52a1.15,1.15,0,0,0,.54.07h24.56a.79.79,0,0,1,.49.2.6.6,0,0,1,.25.49v3.22a.63.63,0,0,1-.25.47.73.73,0,0,1-.44.22H157.37a3.73,3.73,0,0,1-2.62-.69,3.16,3.16,0,0,1-.69-2.28V207a3.22,3.22,0,0,1,.66-2.27,3.65,3.65,0,0,1,2.6-.69h21a.94.94,0,0,0,.49-.08c.07,0,.1-.24.1-.57V202c0-.36,0-.57-.1-.64s-.25-.1-.54-.1H154.6a.7.7,0,0,1-.47-.2.57.57,0,0,1-.22-.44v-3.31a.58.58,0,0,1,.22-.45.69.69,0,0,1,.47-.19h11.66V193H147.58a.61.61,0,0,1-.69-.69v-3.07a.79.79,0,0,1,.2-.52.66.66,0,0,1,.49-.22h43a.73.73,0,0,1,.49.25.71.71,0,0,1,.25.49v3.07A.63.63,0,0,1,191.11,192.76Zm-6.37-15.64a6.07,6.07,0,0,1-1,3.43,8.64,8.64,0,0,1-3,2.69,17,17,0,0,1-4.87,1.78,34.82,34.82,0,0,1-13.29,0,17,17,0,0,1-4.87-1.78,8.73,8.73,0,0,1-3-2.69,6.07,6.07,0,0,1-1-3.43,5.79,5.79,0,0,1,1-3.31,9,9,0,0,1,3-2.67,17.28,17.28,0,0,1,4.87-1.78,34.82,34.82,0,0,1,13.29,0,17.28,17.28,0,0,1,4.87,1.78,8.9,8.9,0,0,1,3,2.67A5.79,5.79,0,0,1,184.74,177.12ZM169.18,173a21.24,21.24,0,0,0-4,.34,15.43,15.43,0,0,0-3.14.92,6,6,0,0,0-2.07,1.36,2.39,2.39,0,0,0-.75,1.68,2.27,2.27,0,0,0,.75,1.6,6.23,6.23,0,0,0,2.07,1.34,16.12,16.12,0,0,0,3.14.91,22.63,22.63,0,0,0,7.93,0,15.94,15.94,0,0,0,3.16-.91,6.39,6.39,0,0,0,2.08-1.34,2.3,2.3,0,0,0,.74-1.6,2.42,2.42,0,0,0-.74-1.68,6.1,6.1,0,0,0-2.08-1.36,15.27,15.27,0,0,0-3.16-.92A21.37,21.37,0,0,0,169.18,173Z"/><path d="M129.71,244.9a4.34,4.34,0,0,1-1.29.92,4.63,4.63,0,0,1-1.66.46,6,6,0,0,1-1,0c-.38,0-.75-.07-1.11-.13s-.68-.12-1-.19a3.64,3.64,0,0,1-.63-.2,1.5,1.5,0,0,1-.35-.21s0-.14,0-.28l.14-1.44a.21.21,0,0,1,.1-.19c.05,0,.14,0,.29.06a6.24,6.24,0,0,0,.66.22,7,7,0,0,0,1,.22,9.28,9.28,0,0,0,1.06.1,3.66,3.66,0,0,0,1-.08,3.26,3.26,0,0,0,.91-.35,1.86,1.86,0,0,0,.55-.53,1.76,1.76,0,0,0,.28-.66,3.08,3.08,0,0,0,.08-.75,2,2,0,0,0-.47-1,4.74,4.74,0,0,0-1.37-1.16c-.73-.43-1.36-.82-1.89-1.19a9,9,0,0,1-1.31-1.1,3.94,3.94,0,0,1-.76-1.13,3.11,3.11,0,0,1-.25-1.28,3.62,3.62,0,0,1,.33-1.52,3.93,3.93,0,0,1,.94-1.27,4.36,4.36,0,0,1,1.41-.87,5.08,5.08,0,0,1,1.82-.32,9.38,9.38,0,0,1,1.66.13,6.29,6.29,0,0,1,1.11.3.5.5,0,0,1,.27.17.32.32,0,0,1,0,.22l-.26,1.24a.46.46,0,0,1-.12.29q-.09.07-.3,0c-.2-.06-.41-.13-.64-.18l-.72-.15c-.25,0-.48-.06-.71-.08a3.92,3.92,0,0,0-.61,0,2.47,2.47,0,0,0-1.53.71,2.08,2.08,0,0,0-.43,1.35,1.8,1.8,0,0,0,.5,1.08,6.15,6.15,0,0,0,1.48,1.17c.81.49,1.48.94,2,1.32a7.83,7.83,0,0,1,1.24,1.12,3.21,3.21,0,0,1,.64,1.08,3.7,3.7,0,0,1,.18,1.18A4.07,4.07,0,0,1,129.71,244.9Z"/><path d="M141.65,241.06a.29.29,0,0,1-.09.23.29.29,0,0,1-.19.08H135a3.48,3.48,0,0,0,.81,2.12,2.45,2.45,0,0,0,2,.83,7.45,7.45,0,0,0,1.46-.17,4.48,4.48,0,0,0,1.49-.57c.1-.05.15,0,.18,0a.87.87,0,0,1,0,.25v1.34a.55.55,0,0,1-.06.28.79.79,0,0,1-.23.19,4.79,4.79,0,0,1-1.37.45,9.51,9.51,0,0,1-1.6.13A4.52,4.52,0,0,1,134,244.8a6.41,6.41,0,0,1-1.24-4.25,7.86,7.86,0,0,1,.28-2.05,5.64,5.64,0,0,1,.82-1.81,4.22,4.22,0,0,1,1.41-1.28,4.05,4.05,0,0,1,2-.49,4.15,4.15,0,0,1,2,.45,3.9,3.9,0,0,1,1.35,1.2,5,5,0,0,1,.75,1.77,9.26,9.26,0,0,1,.24,2.15c0,.1,0,.2,0,.32S141.65,241,141.65,241.06Zm-4.25-4.27a2,2,0,0,0-.94.23,2.69,2.69,0,0,0-.7.6,3.22,3.22,0,0,0-.47.86,4.8,4.8,0,0,0-.26,1h4.44a3.48,3.48,0,0,0-.12-.86,3.17,3.17,0,0,0-.38-.86,2.27,2.27,0,0,0-.64-.67A1.59,1.59,0,0,0,137.4,236.79Z"/><path d="M152.24,244.46a4.73,4.73,0,0,1-1.66,1.33,5.64,5.64,0,0,1-4.39,0,4.42,4.42,0,0,1-1.59-1.23,5.11,5.11,0,0,1-1-1.8,7.69,7.69,0,0,1,0-4.39,5.11,5.11,0,0,1,1-1.8,4.54,4.54,0,0,1,1.58-1.21,5.05,5.05,0,0,1,2.2-.45,5.12,5.12,0,0,1,2.2.45,4.67,4.67,0,0,1,1.59,1.21,5.45,5.45,0,0,1,1,1.8,7.63,7.63,0,0,1,0,4.34A5.42,5.42,0,0,1,152.24,244.46Zm-3.86-7.63a2.52,2.52,0,0,0-1.31.33,2.65,2.65,0,0,0-.9.86,4.34,4.34,0,0,0-.53,1.2,5.67,5.67,0,0,0-.17,1.35,5.55,5.55,0,0,0,.17,1.35,4.47,4.47,0,0,0,.53,1.22,2.68,2.68,0,0,0,.9.87,2.77,2.77,0,0,0,2.62,0,2.68,2.68,0,0,0,.9-.87,4.18,4.18,0,0,0,.53-1.22,5.37,5.37,0,0,0,0-2.68,4.06,4.06,0,0,0-.53-1.2,2.68,2.68,0,0,0-.9-.87A2.41,2.41,0,0,0,148.38,236.83Z"/><path d="M162.63,245.93a.31.31,0,0,1-.17-.05.13.13,0,0,1,0-.15V245a3.41,3.41,0,0,1-1.24.95,3.62,3.62,0,0,1-1.52.33,3.51,3.51,0,0,1-2.82-1.1,4.81,4.81,0,0,1-.93-3.17v-6.5a.34.34,0,0,1,.07-.19.23.23,0,0,1,.17-.08h1.59a.22.22,0,0,1,.17.09.34.34,0,0,1,.08.2v6.17a3.37,3.37,0,0,0,.48,2.06,1.67,1.67,0,0,0,1.4.6,2.18,2.18,0,0,0,1.74-.8,3.53,3.53,0,0,0,.69-2.37v-5.68a.28.28,0,0,1,.07-.19.21.21,0,0,1,.16-.08h1.61a.2.2,0,0,1,.17.1.44.44,0,0,1,.07.21v7.92c0,.4,0,.79,0,1.18s0,.74,0,1.07c0,.17-.07.25-.21.25Z"/><path d="M167.6,246a.2.2,0,0,1-.22-.23v-15.3a.24.24,0,0,1,.07-.16.22.22,0,0,1,.17-.07h1.63a.24.24,0,0,1,.23.23v15.3a.24.24,0,0,1-.23.23Z"/><path d="M280.79,243.94a4.27,4.27,0,0,1-1.3.92,4.52,4.52,0,0,1-1.66.46,8.83,8.83,0,0,1-1,0c-.39,0-.75-.07-1.11-.13a9.83,9.83,0,0,1-1-.19,3.64,3.64,0,0,1-.63-.2,1.29,1.29,0,0,1-.35-.21s-.05-.14,0-.28l.14-1.44a.23.23,0,0,1,.09-.19c.05,0,.15,0,.29.06s.38.14.66.22a6.2,6.2,0,0,0,1,.21,7.33,7.33,0,0,0,1.05.11,3.59,3.59,0,0,0,1-.08,3,3,0,0,0,.92-.36,1.83,1.83,0,0,0,.55-.52,1.76,1.76,0,0,0,.28-.66,3.67,3.67,0,0,0,.08-.75,2,2,0,0,0-.48-1,4.48,4.48,0,0,0-1.37-1.16c-.72-.43-1.35-.83-1.88-1.19a8.5,8.5,0,0,1-1.31-1.1,4,4,0,0,1-.77-1.13,3.32,3.32,0,0,1-.25-1.28,3.63,3.63,0,0,1,.34-1.52,4,4,0,0,1,.93-1.27,4.52,4.52,0,0,1,1.42-.87,5.08,5.08,0,0,1,1.82-.32,8.52,8.52,0,0,1,1.66.13,6.29,6.29,0,0,1,1.11.3.52.52,0,0,1,.26.16.26.26,0,0,1,0,.23l-.25,1.24a.52.52,0,0,1-.13.29q-.07.08-.3,0a6.35,6.35,0,0,0-.64-.18c-.23-.06-.47-.11-.71-.15s-.49-.06-.71-.08a4.1,4.1,0,0,0-.62,0,2.44,2.44,0,0,0-1.52.71,2.09,2.09,0,0,0-.44,1.35,1.76,1.76,0,0,0,.51,1.08,6.28,6.28,0,0,0,1.47,1.17,23.57,23.57,0,0,1,2,1.32,7.52,7.52,0,0,1,1.25,1.12,3.45,3.45,0,0,1,.64,1.07,3.8,3.8,0,0,1,.18,1.19A4.07,4.07,0,0,1,280.79,243.94Z"/><path d="M291.37,245a.29.29,0,0,1-.17-.05c-.05,0-.06-.08-.05-.15V244a3.37,3.37,0,0,1-1.23,1,3.66,3.66,0,0,1-1.53.33,3.46,3.46,0,0,1-2.81-1.11,4.77,4.77,0,0,1-.93-3.16v-6.5a.28.28,0,0,1,.07-.19.19.19,0,0,1,.16-.09h1.59a.24.24,0,0,1,.18.1.34.34,0,0,1,.08.2v6.17a3.38,3.38,0,0,0,.47,2.06,1.7,1.7,0,0,0,1.41.6,2.21,2.21,0,0,0,1.74-.8,3.58,3.58,0,0,0,.69-2.37v-5.68a.33.33,0,0,1,.06-.19.21.21,0,0,1,.17-.09h1.61a.19.19,0,0,1,.16.11.35.35,0,0,1,.07.21v7.92c0,.4,0,.79,0,1.18s0,.74,0,1.07c0,.17-.07.25-.21.25Z"/><path d="M307.54,244.92a.26.26,0,0,1-.14,0h-1.81a.26.26,0,0,1-.14,0,.34.34,0,0,1-.11-.14l-2.41-7.31-2.42,7.31a.35.35,0,0,1-.12.14.33.33,0,0,1-.15,0h-1.79a.32.32,0,0,1-.14,0,.21.21,0,0,1-.09-.14l-3.46-10.31a.23.23,0,0,1,0-.16s.1-.06.24-.06h1.69a.34.34,0,0,1,.17,0,.36.36,0,0,1,.09.13l2.4,7.6,2.45-7.6a.21.21,0,0,1,.23-.16h1.81a.22.22,0,0,1,.23.16l2.44,7.6,2.41-7.6a.22.22,0,0,1,.23-.16h1.73q.19,0,.24.06a.22.22,0,0,1,0,.16l-3.48,10.31C307.6,244.85,307.58,244.9,307.54,244.92Z"/><path d="M321,243.49a4.63,4.63,0,0,1-1.67,1.33,5.52,5.52,0,0,1-4.39,0,4.46,4.46,0,0,1-1.59-1.22,5.2,5.2,0,0,1-1-1.8,7.69,7.69,0,0,1,0-4.39,5.11,5.11,0,0,1,1-1.8,4.63,4.63,0,0,1,1.58-1.21,5.05,5.05,0,0,1,2.2-.45,5.12,5.12,0,0,1,2.2.45,4.67,4.67,0,0,1,1.59,1.21,5.11,5.11,0,0,1,1,1.8,7.43,7.43,0,0,1,.32,2.19,7.12,7.12,0,0,1-.31,2.15A5.55,5.55,0,0,1,321,243.49Zm-3.87-7.62a2.52,2.52,0,0,0-1.31.33,2.65,2.65,0,0,0-.9.86,4,4,0,0,0-.52,1.2,5.22,5.22,0,0,0-.18,1.35,5.16,5.16,0,0,0,.18,1.35,4,4,0,0,0,.52,1.21,2.61,2.61,0,0,0,.9.88,2.77,2.77,0,0,0,2.62,0,2.73,2.73,0,0,0,.91-.88,4.26,4.26,0,0,0,.52-1.21,5.08,5.08,0,0,0,0-2.68,4.32,4.32,0,0,0-.52-1.2,2.8,2.8,0,0,0-.91-.87A2.41,2.41,0,0,0,317.1,235.87Z"/><path d="M331.25,245a.19.19,0,0,1-.16-.09.27.27,0,0,1-.07-.18v-6.17a3.49,3.49,0,0,0-.44-2,1.53,1.53,0,0,0-1.36-.62,2.38,2.38,0,0,0-1.9.7,3.11,3.11,0,0,0-.61,2v6.08c0,.17-.08.25-.23.25h-1.61a.21.21,0,0,1-.17-.09.34.34,0,0,1-.07-.18V237c0-.49,0-1,0-1.41s0-.81,0-1.07.06-.26.27-.26h1.53c.14,0,.2.06.18.16l0,.71a4.5,4.5,0,0,1,1.16-.8,3.42,3.42,0,0,1,1.57-.34,3.63,3.63,0,0,1,2.85,1.1,4.63,4.63,0,0,1,1,3.17v6.49c0,.17-.08.25-.23.25Z"/><path d="M302.22,197.67a.7.7,0,0,1-.49.28H283V214.1a.61.61,0,0,1-.69.69H278a.61.61,0,0,1-.69-.69V198H258.69a.59.59,0,0,1-.49-.28.9.9,0,0,1-.2-.52v-3.21a.77.77,0,0,1,.2-.52.64.64,0,0,1,.49-.22h43a.89.89,0,0,1,.74.74v3.21A.77.77,0,0,1,302.22,197.67Zm-38.14-9a2,2,0,0,1-.69.07.6.6,0,0,1-.5-.27l-1.68-3.16a.79.79,0,0,1,0-.67.76.76,0,0,1,.54-.42,39.37,39.37,0,0,0,6.3-2.32,19.33,19.33,0,0,0,4.82-3.19,14.24,14.24,0,0,0,3.21-4.25,15.7,15.7,0,0,0,1.49-5.46,1.23,1.23,0,0,1,.27-.62.75.75,0,0,1,.61-.27l4.16.15c.46,0,.69.26.69.79-.07,1-.17,1.89-.3,2.72a11.52,11.52,0,0,0,2.25,3.83,21.29,21.29,0,0,0,3.66,3.31,25,25,0,0,0,4.64,2.62,31.59,31.59,0,0,0,5.21,1.75,1.09,1.09,0,0,1,.55.35.56.56,0,0,1,.05.59l-1.49,3.26a.8.8,0,0,1-1,.49,26.11,26.11,0,0,1-4.82-1.4,30.14,30.14,0,0,1-4.62-2.3,27.11,27.11,0,0,1-3.95-2.92,15,15,0,0,1-2.87-3.31,20.71,20.71,0,0,1-6.6,6.5A33.55,33.55,0,0,1,264.08,188.66Z"/><path d="M336.68,192.24a1.37,1.37,0,0,1-.46.32c-.93.17-2,.3-3.07.42s-2.27.22-3.46.32l-3.53.27c-1.17.08-2.26.14-3.29.17v7.12a.75.75,0,0,1-.74.74H318a.7.7,0,0,1-.52-.22.74.74,0,0,1-.22-.52v-6.72l-3,.08c-1,0-2.05,0-3,.07s-1.92.05-2.81.05-1.67,0-2.32-.05a.6.6,0,0,1-.5-.25.84.84,0,0,1-.2-.54v-3.07a.76.76,0,0,1,.2-.51.64.64,0,0,1,.5-.23q3.41,0,7.43-.07c2.69-.05,5.36-.13,8-.25s5.24-.26,7.71-.44,4.61-.41,6.42-.67a.77.77,0,0,1,.52.1.6.6,0,0,1,.32.44l.35,2.82A.71.71,0,0,1,336.68,192.24Zm-16.33-23.3a14.12,14.12,0,0,1,4.62.72,11.92,11.92,0,0,1,3.61,1.92,8.75,8.75,0,0,1,2.35,2.85,7.43,7.43,0,0,1,.84,3.46,7.94,7.94,0,0,1-.84,3.6,8.59,8.59,0,0,1-2.35,2.89,11.72,11.72,0,0,1-3.61,1.93,14.12,14.12,0,0,1-4.62.72,13.9,13.9,0,0,1-4.59-.72,11.79,11.79,0,0,1-3.58-1.93,8.27,8.27,0,0,1-2.32-2.89,8.05,8.05,0,0,1-.82-3.6,7.53,7.53,0,0,1,.82-3.46,8.42,8.42,0,0,1,2.32-2.85,12,12,0,0,1,3.58-1.92A13.9,13.9,0,0,1,320.35,168.94Zm24.73,45.21a.79.79,0,0,1-.46.15h-28c-1.52,0-2.53-.26-3-.79a3.86,3.86,0,0,1-.77-2.72v-7.06a.64.64,0,0,1,.23-.47.66.66,0,0,1,.47-.23h4.25a.69.69,0,0,1,.51.23.64.64,0,0,1,.23.47v5a.8.8,0,0,0,.19.64,1.34,1.34,0,0,0,.75.15h25.2a.67.67,0,0,1,.46.19.6.6,0,0,1,.23.45v3.51A.5.5,0,0,1,345.08,214.15Zm-24.73-40.86a6.92,6.92,0,0,0-2.27.37,6.58,6.58,0,0,0-1.88,1,5,5,0,0,0-1.26,1.48,3.85,3.85,0,0,0-.47,1.85,4,4,0,0,0,.47,1.91,5,5,0,0,0,1.26,1.48,6.58,6.58,0,0,0,1.88,1,7.2,7.2,0,0,0,2.27.37,7.11,7.11,0,0,0,2.3-.37,6.85,6.85,0,0,0,1.88-1,4.63,4.63,0,0,0,1.28-1.48,3.89,3.89,0,0,0,.47-1.91,3.74,3.74,0,0,0-.47-1.85,4.63,4.63,0,0,0-1.28-1.48,6.88,6.88,0,0,0-4.18-1.36Zm23.23,31.87h-4.4c-.43,0-.64-.23-.64-.69V200h-8.45a.7.7,0,0,1-.47-.2.57.57,0,0,1-.22-.44v-3.11a.5.5,0,0,1,.22-.42.73.73,0,0,1,.47-.18h8.45V168.89a.56.56,0,0,1,.64-.64h4.4a.57.57,0,0,1,.64.64v35.58C344.22,204.93,344,205.16,343.58,205.16Z"/><polygon points="218.38 180.98 231.08 193.68 218.38 206.37 218.38 180.98"/><path class="cls-29" d="M58.32,51.84h578a17.6,17.6,0,0,1,17.6,17.6v56.84a0,0,0,0,1,0,0H40.73a0,0,0,0,1,0,0V69.44A17.6,17.6,0,0,1,58.32,51.84Z"/><path class="cls-29" d="M40.73,374.31H653.91a0,0,0,0,1,0,0v56.32a17.53,17.53,0,0,1-17.53,17.53H58.25a17.53,17.53,0,0,1-17.53-17.53V374.31A0,0,0,0,1,40.73,374.31Z"/><path d="M127.45,91.86a3.93,3.93,0,0,1-3.92-4.25V81.94a4.54,4.54,0,0,1,4.16-4.49h2.14a4.39,4.39,0,0,1,4.06,4.49v5.84a3.94,3.94,0,0,1-3.78,4.08Zm1.69-2.49a2.1,2.1,0,0,0,2-2.09V82.17a2.07,2.07,0,0,0-2-1.94h-.76a2.12,2.12,0,0,0-2.07,1.9v5.38a1.89,1.89,0,0,0,1.83,1.86Zm12.25,7h-3.33V89.72H135V86.94h3.06V84.48H135V81.67h3.06V76.43h3.33Z"/><path d="M154.61,77.8V80h-1.43a4.19,4.19,0,0,1,.55,2.19v2.09a3.46,3.46,0,0,1-3.58,3.44h-2.21c-1.71,0-3.11-1.14-3.11-3.4V82.2a3.64,3.64,0,0,1,.69-2.19h-1.76V77.8h3.87V76.4h3.3v1.4ZM151,82.41c0-.78-.31-1.4-1.1-1.4h-1.09c-.78,0-1.19.62-1.19,1.4v1.66c0,.79.41,1.19,1.24,1.19h.9A1.15,1.15,0,0,0,151,84Zm8.45,7.27a2.63,2.63,0,0,1,2.78,2.44v1.95a2.37,2.37,0,0,1-2.54,2.3h-9.22a2.8,2.8,0,0,1-2.61-2.28v-2c.26-1.71,2.26-2.44,3.28-2.44Zm-7.34,2.46c-.92,0-1.07.38-1.23.69l0,.62c.29.64.62.62,1.26.62h6.34c.55,0,1-.17,1-.62V93a1,1,0,0,0-1-.86ZM162.28,76.4V87.94h-2.71v-4h-1.76v4h-2.7V76.4h2.7v5.25h1.76V76.4Z"/><path d="M174.57,95.29h-2.09V91.71a8.94,8.94,0,0,1-5,1.85,16.33,16.33,0,0,1-3,0V91.66c3.08.61,7.15-.88,8-1.21V83.52h2.12Zm-5.81-11.46a1.84,1.84,0,0,1,1.9,1.91v1.91a1.83,1.83,0,0,1-2.06,1.9h-1.67a1.85,1.85,0,0,1-2-1.76V85.74a1.9,1.9,0,0,1,2-1.91Zm.21,2.28a.79.79,0,0,0-.81-.8h-.6a.85.85,0,0,0-.88.8v1.16a.85.85,0,0,0,.88.81h.6a.79.79,0,0,0,.81-.81Z"/><path d="M187,77.21v9.5H177v-9.5H180v2.61h3.89V77.21ZM178.4,91.38h10.78V90.29H178.4V88.37h14.08V93.5H181.42v.9h11.06v2.23H178.4Zm5.53-7.09v-2H180v2Zm11.3-.91H192.5v3.71h-3V76.38h3v4.2h2.73Z"/><path d="M203.83,80.91c-.1,1.43-.17,6.89,3.75,8.22v2.75a8.8,8.8,0,0,1-2.23-.85,6.23,6.23,0,0,1-3.09-3.49,6,6,0,0,1-3.11,3.58,7.84,7.84,0,0,1-2.23.76V89.13c3.91-1.33,3.75-6.79,3.65-8.22h-3.68V78.26h10.73v2.65Zm11.91,2.16v3.07h-3V96.39h-3.3V76.66h3.3v6.41Z"/><path d="M235,87.44h-7.62v2h6v2.25a10.47,10.47,0,0,1-.52,3,13.65,13.65,0,0,1-.48,1.28h-2.92a9.21,9.21,0,0,0,.93-2.7,6.7,6.7,0,0,0,.09-1.14H219V89.44h5.35v-2h-7.18V84.78h11.78a17.56,17.56,0,0,0,.81-3.65,11.85,11.85,0,0,0,.09-1.52h-10.7V76.88H233v2.49a28.29,28.29,0,0,1-1,5.41h3Z"/><path class="cls-30" d="M104.67,79.06c.18-.18.44-.33.51-.55s-.2-.37-.36-.52-.65-.47-.94-.74-.12-.36.16-.42a1,1,0,0,1,1.19.56l.72,1.28a1.1,1.1,0,0,0,1,.54,5.65,5.65,0,0,1,1.06.2c.25,0,.49.13.74.16.72.08,1,.36.88,1a1,1,0,0,1-1.24.83c-.43-.13-.89.63-1.31.44s-1-.42-1.16.06c-1,3.56-1.06-.83-1.46-1.2a8.2,8.2,0,0,1-.88-1,2.29,2.29,0,0,0-2.51-.91L98,79.51a2.53,2.53,0,0,0-1.41,1c-.38.48-.73,1-1.1,1.46a4.31,4.31,0,0,0-.88,2.56c0,.43-.1.86-.11,1.29a4.94,4.94,0,0,0,1.73,4.23,3.46,3.46,0,0,0,3.2.79,1.82,1.82,0,0,1,2.29,1.32,17.86,17.86,0,0,1,.72,3,12.16,12.16,0,0,1-.15,2.07,3.25,3.25,0,0,0,.09,1.08c.29.93.63,1.84,1,2.76a6.67,6.67,0,0,0,.29.74,1,1,0,0,0,1.44.66,7.24,7.24,0,0,0,3.76-2.71c.29-.4-1.71-10.17,4-9.77.12,0,.17-.17.25-.26a1.21,1.21,0,0,0,.1-1.86c-.16-.23-.34-.45-.48-.69a.6.6,0,0,1,.31-1,1.57,1.57,0,0,0,1-1.15,9.24,9.24,0,0,1,.29-.89c.11-.3.35-.35.56-.14a1.53,1.53,0,0,1,.49.8c.06,1.44.13,2.89,0,4.34a16.92,16.92,0,0,1-1.84,6.67,19.52,19.52,0,0,1-14.62,11,19.31,19.31,0,0,1-13.36-2.4c-.17-.1-.39-.25-.43-.42a10.05,10.05,0,0,1-.27-2c0-.72.58-1.14,1.1-1.54s1.15-.79,1.69-1.22a5.07,5.07,0,0,0,1.74-5.57,1.6,1.6,0,0,0-.78-1c-.5-.26-1-.56-1.5-.78A5,5,0,0,1,85,90.21a5.3,5.3,0,0,0-1.82-1.67C82.09,88,81,87.34,79.9,86.86a2.73,2.73,0,0,1-1.15-4.39c.68-.85,1.46-1.6,2.2-2.39.39-.43.8-.84,1.16-1.28a3,3,0,0,1,1.61-1.11,12.76,12.76,0,0,0,1.8-.76A2.34,2.34,0,0,0,87,74.73c0-.29.06-.59.1-.88a2.24,2.24,0,0,0-.28-1.49,2.13,2.13,0,0,1-.31-1.83,1,1,0,0,1,.44-.56,4,4,0,0,1,2.24-.41c.66.06.78.26.7.91s-.19,1.47-.23,2.21.08.74.69.63c.88-.15,1.76-.37,2.64-.57s2-.44,3-.69A3.39,3.39,0,0,0,98.35,70a1.14,1.14,0,0,0-.2-1.14c-.35-.5-.75-1-1.12-1.45,2.42-.65,10.86,3.1,12.26,5.49a2.16,2.16,0,0,1-1.46-.19c-1.09-.49-2.18-1-3.26-1.51a1.18,1.18,0,0,0-1,0c-.53.23-1.07.44-1.6.66-.76.3-.92.67-.62,1.43s.18.65-.29,1.14.6,2.18,1.24,2.59c.42.27.86.53,1.3.77s1.11.46.9,1.29Z"/><path class="cls-30" d="M75.67,85.69a5.73,5.73,0,0,1,1.41,2.61c.34,1.29.72,2.57.94,3.88a6,6,0,0,0,1.64,3.19,4,4,0,0,1,1.15,2.34,9.35,9.35,0,0,0,2.44,4.86,5.44,5.44,0,0,1,.39.55A19.44,19.44,0,0,1,75.67,85.69Z"/><path class="cls-31" d="M92.4,83.24c-1.18-.88-2-1.76-3.3-1.53-1.08.2-1.82,2-1.45,3.05.58,1.65,2.74,2.21,4.23,2A1.84,1.84,0,0,0,93.46,84C93.2,83.57,92.58,83.48,92.4,83.24Z"/><path class="cls-31" d="M94.21,79.78c-.52-.45-.88-1.21-1.56-1.24a1.65,1.65,0,0,0-1.45,2.11,3,3,0,0,0,2.85,1.9,1.22,1.22,0,0,0,1.06-1.83c-.19-.38-.37-.39-.61-.75C94.48,80,94.23,79.77,94.21,79.78Z"/><path class="cls-31" d="M94.81,79.18a7.13,7.13,0,0,0,1.16.45,1,1,0,0,0,1.25-1.31A2.5,2.5,0,0,0,95,76.62c-.79,0-1.33.28-1.25,1.07a2,2,0,0,0,.72,1.37S94.82,79.16,94.81,79.18Z"/><path class="cls-31" d="M99.22,75.89a5,5,0,0,0-.51-.27.83.83,0,0,0-1.2.92,1.9,1.9,0,0,0,1.3,1.57.83.83,0,0,0,1.12-1A2.13,2.13,0,0,0,99.22,75.89Z"/><path class="cls-31" d="M109.28,77.37a1.55,1.55,0,0,0,1,.65.63.63,0,0,0,.74-.56,1.53,1.53,0,0,0-1.16-1.56c-.56-.11-.95.4-.76,1A4.41,4.41,0,0,0,109.28,77.37Z"/><path class="cls-31" d="M116.86,87.39a21.32,21.32,0,1,1-21.14-21.5A21.34,21.34,0,0,1,116.86,87.39Zm-12.19-8.33-.19-.07c.21-.83-.39-1-.9-1.29s-.88-.5-1.3-.77c-2.23-1.75-1.55.36-2.51,1-.31.2-.2.14-.77.15-.29,0-.46-.19-.75-.27s-.68-.89-.74-1.28c-.21-1.43,0-1.51,1.45-1.43.82,0,1.5.32,2.08-.77.47-.49.53-.51.29-1.14a1.11,1.11,0,0,1,.61-1.43c.52-.21,1-.41,1.55-.63a1.31,1.31,0,0,1,1.08,0c1.08.52,2.17,1,3.26,1.51a2.16,2.16,0,0,0,1.46.19c-1.4-2.39-9.84-6.14-12.26-5.49.37.48.77,1,1.12,1.45a1.14,1.14,0,0,1,.2,1.14A3.39,3.39,0,0,1,96,72.05c-1,.25-2,.47-3,.69s-1.76.42-2.64.57c-.61.11-.73,0-.69-.63s.14-1.48.23-2.21,0-.85-.7-.91a4,4,0,0,0-2.24.41,1,1,0,0,0-.44.56,2.13,2.13,0,0,0,.31,1.83,2.24,2.24,0,0,1,.28,1.49c0,.29-.08.59-.1.88a2.34,2.34,0,0,1-1.45,2.2,12.76,12.76,0,0,1-1.8.76,3,3,0,0,0-1.61,1.11c-.36.44-.77.85-1.16,1.28-.74.79-1.52,1.54-2.2,2.39a2.73,2.73,0,0,0,1.15,4.39c1.09.47,2.13,1.07,3.18,1.63A5.53,5.53,0,0,1,85,90.21,5,5,0,0,0,87.07,92c.51.22,1,.52,1.5.78a1.6,1.6,0,0,1,.78,1,5.07,5.07,0,0,1-1.74,5.57c-.54.43-1.14.8-1.69,1.22s-1.1.82-1.1,1.54a10.05,10.05,0,0,0,.27,2c0,.17.26.32.43.42a19.21,19.21,0,0,0,13.28,2.41,20.39,20.39,0,0,0,14-9.77,17.43,17.43,0,0,0,2.53-7.92c.08-1.45,0-2.9,0-4.34a1.53,1.53,0,0,0-.49-.8c-.21-.21-.45-.16-.56.14a9.24,9.24,0,0,0-.29.89,1.57,1.57,0,0,1-1,1.15.6.6,0,0,0-.31,1c.14.24.32.46.48.69a1.21,1.21,0,0,1-.1,1.86l-.25.26c-.88,1-3-.86-1.83,3.5a10,10,0,0,1-1,2.94,11.87,11.87,0,0,0-.67,1.87,5.61,5.61,0,0,1-.52,1.46,7.24,7.24,0,0,1-3.76,2.71,1,1,0,0,1-1.44-.66,6.67,6.67,0,0,1-.29-.74c-.33-.92-.67-1.83-1-2.76a3.25,3.25,0,0,1-.09-1.08,12.16,12.16,0,0,0,.15-2.07,17.86,17.86,0,0,0-.72-3,1.82,1.82,0,0,0-2.29-1.32,3.46,3.46,0,0,1-3.2-.79,4.94,4.94,0,0,1-1.73-4.23c0-.43.1-.86.11-1.29A4.31,4.31,0,0,1,95.46,82c.37-.48.72-1,1.1-1.46a2.55,2.55,0,0,1,1.46-1,25,25,0,0,0,2.82-.64,2.31,2.31,0,0,1,2.75.84,8.2,8.2,0,0,0,.88,1c.36.33.34,1.46,1.12.54a1.31,1.31,0,0,1,1.53-.36h0a9.9,9.9,0,0,0,1.27.51,1,1,0,0,0,1.24-.83c.1-.62-.16-.9-.88-1-.25,0-.49-.11-.74-.16a5.65,5.65,0,0,0-1.06-.2,1.1,1.1,0,0,1-1-.54l-.72-1.28a1,1,0,0,0-1.19-.56c-.28.06-.39.21-.16.42s.64.48.94.74.4.4.36.52S104.85,78.88,104.67,79.06Zm-29,6.63a19.44,19.44,0,0,0,8,17.43,5.44,5.44,0,0,0-.39-.55,9.35,9.35,0,0,1-2.44-4.86,4,4,0,0,0-1.15-2.34A6,6,0,0,1,78,92.18c-.22-1.31-.6-2.59-.94-3.88A5.73,5.73,0,0,0,75.67,85.69Z"/><path d="M95.53,65.89a21.32,21.32,0,1,0,21.33,21.32A21.21,21.21,0,0,0,95.53,65.89Zm0,41.16a19.84,19.84,0,1,1,19.82-19.84A19.79,19.79,0,0,1,95.56,107.05Z"/><path d="M603.6,429.85a1.47,1.47,0,0,1-.19-.5q0-18.14,0-36.27v-.45h6.36v36.8c0,.14,0,.28,0,.42Z"/><path d="M499.16,392.63h4.26v37.22h-4.26Z"/><path d="M616.15,429.85V392.62h4.26v37.23Z"/><path d="M531.13,429.85c0-.22,0-.44,0-.65V392.63h4.19v.57q0,18,0,36.05a2.61,2.61,0,0,1-.14.6Z"/><path d="M558.84,429.85a2.38,2.38,0,0,1-.15-.55q0-18.07,0-36.13v-.54h4.2a3.93,3.93,0,0,1,.06.48v36.23a3,3,0,0,1-.09.51Z"/><path d="M569.49,429.85a1.68,1.68,0,0,1-.18-.5q0-18.14,0-36.27v-.45h4.27v.48q0,18.11,0,36.23a4.38,4.38,0,0,1,0,.51Z"/><path d="M578,429.85a1.68,1.68,0,0,1-.18-.5q0-18.14,0-36.27v-.45h4.26v36.71c0,.17,0,.34,0,.51Z"/><path d="M586.55,429.85a1.47,1.47,0,0,1-.19-.5q0-18.14,0-36.27v-.45h4.27v36.71a4.4,4.4,0,0,1,0,.51Z"/><path d="M592.94,429.85c-.07-.17-.21-.33-.21-.49q0-18.15,0-36.29v-.44h4.21a2.84,2.84,0,0,1,.05.42v36.38c0,.14,0,.28,0,.42Z"/><path d="M505.55,429.85c0-.22,0-.44,0-.65V392.62h2.15v37.23Z"/><path d="M611.89,429.85V392.62H614c0,.14,0,.29,0,.44q0,18.18,0,36.37c0,.14,0,.28,0,.42Z"/><path d="M512,429.85V392.62h2.11v.5q0,18.11,0,36.19a1.73,1.73,0,0,1-.21.54Z"/><path d="M522.6,429.85c0-.2,0-.41,0-.61V392.63h2.1v.49q0,18.09,0,36.18a2,2,0,0,1-.18.55Z"/><path d="M541.79,429.85c0-.2,0-.41,0-.61V392.62h2.09v.53q0,18.08,0,36.15a2.34,2.34,0,0,1-.14.55Z"/><path d="M546.05,429.85c0-.2,0-.41,0-.61V392.62h2.09v.53q0,18.08,0,36.15a2.34,2.34,0,0,1-.14.55Z"/><path d="M550.31,429.85c0-.2,0-.41,0-.61V392.62h2.09V429.3a3,3,0,0,1-.14.55Z"/></g></svg>