<svg xmlns="http://www.w3.org/2000/svg" xmlns:xlink="http://www.w3.org/1999/xlink" viewBox="0 0 694.64 500"><defs><style>.cls-1,.cls-21{fill:#fff;}.cls-2{opacity:0.5;}.cls-3{fill:url(#무제_그라디언트_7);}.cls-4{fill:#e6e6e6;}.cls-5{fill:#528fd8;}.cls-6{fill:#4b84bc;}.cls-7{fill:#a5bc62;}.cls-8{fill:#688c3f;}.cls-9{fill:#7ba04d;}.cls-10{fill:#7ca14e;}.cls-11{fill:#3e5422;}.cls-12{fill:#283516;}.cls-13{fill:#5a7831;}.cls-14{fill:#943e4a;}.cls-15{fill:#d9574f;}.cls-16{fill:#f5dc67;}.cls-17{fill:#a54757;}.cls-18{fill:#ee7151;}.cls-19{fill:#666;}.cls-20{fill:#999;}.cls-21,.cls-22,.cls-23{stroke:#b3b3b3;}.cls-21,.cls-22{stroke-miterlimit:10;}.cls-21{stroke-width:2px;}.cls-22,.cls-23{fill:none;stroke-width:3px;}.cls-23{stroke-linejoin:round;}.cls-24{fill:#96b444;}.cls-25{fill:#7aa94f;}.cls-26{fill:#bdcf5f;}.cls-27{fill:#456f41;}.cls-28{fill:#9c6;}.cls-29{fill:#3f8cb9;}.cls-30{fill:#9bcc60;}</style><linearGradient id="무제_그라디언트_7" x1="347.32" y1="351.41" x2="347.32" y2="121.61" gradientUnits="userSpaceOnUse"><stop offset="0.45" stop-color="#fff"/><stop offset="0.67" stop-color="#f7fcfe"/><stop offset="0.77" stop-color="#f1fafd"/><stop offset="0.86" stop-color="#e5f5fe"/><stop offset="0.95" stop-color="#def2ff"/></linearGradient></defs><g id="레이어_3" data-name="레이어 3"><rect class="cls-1" x="40.73" y="125.19" width="613.18" height="249.96"/><g class="cls-2"><rect class="cls-3" x="40.73" y="126.28" width="613.19" height="248.7"/><path class="cls-4" d="M426.83,229.84v-2h-6.44v-7.13a1.28,1.28,0,0,0-1.27-1.28h-1.69V210a1,1,0,0,0-1-1H416a1,1,0,0,0-1,1v9.37h-1.69a1.29,1.29,0,0,0-1.28,1.28v7.13h-6.44v2h2.54V237h-2.54v2.17h3.11v64.89h15.07V239.17h3.1V237H424.3v-7.16Zm-5.64,70.27H419.3v-5.64h1.89Zm0-8.75H419.3v-5.63h1.89Zm0-8.75H419.3V277h1.89Zm0-8.74H419.3v-5.64h1.89Zm0-8.75H419.3v-5.63h1.89Zm0-8.75H419.3v-5.63h1.89Zm0-8.74H419.3V242h1.89Zm-3.1-17.79V237H414.3v-7.16Zm1.21,0h3.78V237H419.3Zm-10,0h3.78V237h-3.78Z"/><rect class="cls-5" x="40.73" y="300.3" width="613.19" height="73.61"/><polygon class="cls-6" points="653.91 373.92 40.73 373.92 40.73 340.36 653.91 313.66 653.91 373.92"/><rect class="cls-7" x="40.73" y="343.03" width="612.01" height="31.48"/><path class="cls-4" d="M347.92,294.33l.32-1.12c-28.73-8.25-32.84-26.11-33.4-32.13l-.15-4.18L307.92,258l-.12,2c-1.35,10-5.27,17.49-11.65,22.3-10.37,7.82-23.92,5.87-24.06,5.85l0,.13-1.7-.07v-.07c-37.06-4.78-53.27-45.84-54.4-48.83l0-1.16-8.33,1.43-.05.87c-10.21,39.37-59.28,44.39-59.77,44.44V285l-10-.15,0,2.34c.68,0,29.83.4,67,1.33l-1.11,19.1h14.62l-.63-18.77c29.07.8,61.35,1.9,88.19,3.4l-.93,15.35h11.57L316,292.81c12.59.79,23.55,1.68,31.82,2.68Zm-38.83-17.9,4-.26.51,14.15-5.32-.31Zm3.91-2.55-3.77.25L310.1,260l2.33-.38C312.45,260,313,273.88,313,273.88Zm-104.49-9.49,6-.4.76,22.42-8-.21Zm5.88-2.74-5.74.39,1.19-20.47,3.85-.66Zm-55.57,23.5c14.1-3.56,40.31-13.43,49.24-39.52l-3.16,40.51C186.89,285.69,170.75,285.37,158.82,285.15Zm57.05,20.09h-9.74l1-16.7,8.2.21Zm.32-59.61c5.16,10.76,18.62,33.74,42.56,42.14-13.85-.5-27.86-.93-41.18-1.3ZM288.1,289a31.31,31.31,0,0,0,9.44-4.79,29.91,29.91,0,0,0,9.55-12.46L306,289.88C300.24,289.56,294.25,289.26,288.1,289Zm26,16.3h-6.77l.79-12.93c1.87.11,3.72.21,5.54.33Zm1.07-34.54c3.07,6.91,9.54,15.43,23.21,21.43-6.6-.61-14.21-1.17-22.51-1.7Z"/><path class="cls-8" d="M40.91,355.45h180.4s-88.83-85.87-102-85.89c-12.27,0-49,45.85-55.8,47.31-3.35.71-12.83,7.89-22.55,16.05"/><path class="cls-9" d="M40.73,332.92c9.73-8.16,19.25-15.34,22.6-16.05,6.85-1.46,43.63-47.32,55.93-47.31L85.79,355.45H40.73"/><path class="cls-10" d="M326.18,315.36h112a1.09,1.09,0,0,0,.78-1.85c-9.15-9.29-49.91-50.26-56.62-50.27-7,0-28.05,27.83-32,28.71-3.55.8-19.41,15-25.08,21.61A1.1,1.1,0,0,0,326.18,315.36Z"/><path class="cls-11" d="M387.65,279.84s-13.06-4.62-14,7.76C384.6,293.35,387.65,279.84,387.65,279.84Z"/><path class="cls-12" d="M373.6,287.6a15.36,15.36,0,0,1,2.95-2.8,28.13,28.13,0,0,1,3.47-2.14,33.62,33.62,0,0,1,3.74-1.64c.63-.24,1.28-.44,1.93-.65l2-.53c-1.28.44-2.55.9-3.8,1.41s-2.49,1.05-3.68,1.69A31.14,31.14,0,0,0,376.7,285,18.69,18.69,0,0,0,373.6,287.6Z"/><path class="cls-13" d="M352.6,274s13.74-1.7,12,10.61C352.68,287.87,352.6,274,352.6,274Z"/><path class="cls-11" d="M364.65,284.62a18.32,18.32,0,0,0-2.47-3.2,29.46,29.46,0,0,0-2.94-2.76,40.31,40.31,0,0,0-3.23-2.45c-1.11-.77-2.25-1.49-3.41-2.2l1.8.94c.59.35,1.18.69,1.75,1.05a33.84,33.84,0,0,1,3.29,2.41,27.09,27.09,0,0,1,2.93,2.84A15,15,0,0,1,364.65,284.62Z"/><path class="cls-14" d="M370.17,283.05a4.4,4.4,0,1,0-7.62,3.56c0,.05.1.08.14.13a4.47,4.47,0,0,0-2.5,1.13,4.52,4.52,0,1,0,6.07,6.71,2.11,2.11,0,0,0,.25-.27,4.39,4.39,0,1,0,7.7-3.64,4.29,4.29,0,0,0,1.63-.92,4.39,4.39,0,0,0-5.67-6.7Z"/><path class="cls-15" d="M373.52,285.72a4.4,4.4,0,1,0-8-2.48c0,.07,0,.13,0,.19a4.52,4.52,0,1,0-2.62,8.21c.13,0,.25,0,.38,0a4.32,4.32,0,0,0-.63,2.23,4.39,4.39,0,0,0,8.77.24,4.29,4.29,0,0,0,1.82.41,4.39,4.39,0,0,0,.3-8.77Z"/><circle class="cls-16" cx="367.99" cy="288.54" r="2.57"/><path class="cls-11" d="M124.89,303.57s-26.51-9.37-28.52,15.76C118.7,331,124.89,303.57,124.89,303.57Z"/><path class="cls-12" d="M96.37,319.33a30.17,30.17,0,0,1,6-5.67,54.74,54.74,0,0,1,7-4.37l1.85-.92,1.89-.85c1.25-.58,2.55-1.06,3.84-1.55s2.61-.89,3.91-1.33,2.66-.73,4-1.07L121,305c-1.28.5-2.58,1-3.84,1.49a81.18,81.18,0,0,0-7.46,3.44,64.07,64.07,0,0,0-7,4.18c-1.12.79-2.23,1.59-3.28,2.47A26.55,26.55,0,0,0,96.37,319.33Z"/><path class="cls-13" d="M53.73,291.75s27.91-3.45,24.47,21.52C53.89,319.88,53.73,291.75,53.73,291.75Z"/><path class="cls-11" d="M78.2,313.27a26.08,26.08,0,0,0-2.34-3.38c-.83-1.08-1.74-2.11-2.67-3.11a62.32,62.32,0,0,0-6-5.61c-2.07-1.79-4.3-3.38-6.54-5-1.12-.79-2.29-1.52-3.43-2.28l-3.5-2.18c1.23.61,2.45,1.26,3.67,1.9s2.38,1.39,3.54,2.14,2.31,1.5,3.41,2.34L66,299.37l1.61,1.3a55.82,55.82,0,0,1,5.94,5.77A30.28,30.28,0,0,1,78.2,313.27Z"/><path class="cls-14" d="M89.4,310.08a8.94,8.94,0,1,0-15.47,7.24c.09.1.2.17.29.26a9.19,9.19,0,1,0,7.25,15.93c.19-.18.34-.38.51-.57a8.83,8.83,0,0,0,2.1,4.22,8.92,8.92,0,0,0,13.53-11.61,8.65,8.65,0,0,0,3.3-1.86A8.92,8.92,0,0,0,89.4,310.08Z"/><path class="cls-15" d="M96.2,315.5a8.93,8.93,0,1,0-16.32-5c0,.13,0,.26,0,.39a9.18,9.18,0,1,0-5.31,16.67c.26,0,.5-.05.76-.07A8.85,8.85,0,0,0,74.09,332a8.92,8.92,0,0,0,17.82.49,8.75,8.75,0,0,0,3.69.83,8.92,8.92,0,0,0,.6-17.82Z"/><circle class="cls-16" cx="84.98" cy="321.24" r="5.21"/><path class="cls-11" d="M410,285.17s-8.34-2.94-9,5C408,293.81,410,285.17,410,285.17Z"/><path class="cls-12" d="M401,290.13a12.82,12.82,0,0,1,4.1-3.16,20.91,20.91,0,0,1,2.38-1c.41-.15.82-.28,1.23-.42l1.26-.34a33.92,33.92,0,0,0-4.78,2,21.4,21.4,0,0,0-2.21,1.31A11.7,11.7,0,0,0,401,290.13Z"/><path class="cls-13" d="M410.54,293.33s-6.91,5.52-10.1-1.75C405.88,285.81,410.54,293.33,410.54,293.33Z"/><path class="cls-11" d="M400.44,291.58a11.82,11.82,0,0,0,2.42.92,19.77,19.77,0,0,0,2.52.52,33,33,0,0,0,5.16.31l-1.29.09c-.44,0-.87,0-1.3,0a22.58,22.58,0,0,1-2.6-.2A12.93,12.93,0,0,1,400.44,291.58Z"/><path class="cls-14" d="M398.82,287.22a2.89,2.89,0,0,0-.7-1.5A2.81,2.81,0,0,0,394,289.5l.09.08a2.89,2.89,0,1,0,2.28,5,1.37,1.37,0,0,0,.16-.18,2.8,2.8,0,1,0,4.92-2.32,2.85,2.85,0,0,0,1-.59,2.8,2.8,0,0,0-3.62-4.28Z"/><path class="cls-15" d="M401,288.93a2.86,2.86,0,0,0,.48-1.58,2.81,2.81,0,1,0-5.62,0,.5.5,0,0,0,0,.12,2.89,2.89,0,1,0-1.68,5.24l.24,0a2.77,2.77,0,0,0-.4,1.43,2.81,2.81,0,0,0,5.61.15,2.78,2.78,0,0,0,1.16.26,2.8,2.8,0,0,0,.19-5.6Z"/><circle class="cls-16" cx="397.43" cy="290.73" r="1.64"/><path class="cls-11" d="M148.33,291.37s-8.34-2.95-9,5C146.38,300,148.33,291.37,148.33,291.37Z"/><path class="cls-12" d="M139.36,296.33a12.82,12.82,0,0,1,4.1-3.16,22.18,22.18,0,0,1,2.39-1.05c.4-.15.82-.27,1.23-.41l1.25-.34a33.75,33.75,0,0,0-4.77,2,20.6,20.6,0,0,0-2.22,1.32A12.54,12.54,0,0,0,139.36,296.33Z"/><path class="cls-13" d="M148.9,299.53S142,305,138.8,297.78C144.23,292,148.9,299.53,148.9,299.53Z"/><path class="cls-11" d="M138.8,297.78a12.1,12.1,0,0,0,2.41.92,19.56,19.56,0,0,0,2.53.52,34.13,34.13,0,0,0,5.16.31l-1.3.09c-.43,0-.87,0-1.3,0a20.4,20.4,0,0,1-2.59-.21A12.69,12.69,0,0,1,138.8,297.78Z"/><path class="cls-14" d="M137.17,293.42a2.85,2.85,0,0,0-.7-1.5,2.81,2.81,0,1,0-4.17,3.77.81.81,0,0,0,.1.09,2.85,2.85,0,0,0-1.6.72,2.89,2.89,0,1,0,3.88,4.29l.16-.18a2.74,2.74,0,0,0,.66,1.33,2.81,2.81,0,0,0,4.25-3.66,2.62,2.62,0,0,0,1-.58,2.8,2.8,0,0,0-3.62-4.28Z"/><path class="cls-15" d="M139.31,295.12a2.76,2.76,0,0,0,.49-1.58,2.81,2.81,0,1,0-5.62,0s0,.08,0,.13a2.85,2.85,0,0,0-1.67-.54,2.89,2.89,0,1,0,0,5.78l.24,0a2.76,2.76,0,0,0-.4,1.42,2.8,2.8,0,0,0,5.6.16,2.78,2.78,0,0,0,1.16.26,2.81,2.81,0,0,0,.19-5.61Z"/><circle class="cls-16" cx="135.78" cy="296.93" r="1.64"/><path class="cls-11" d="M392.08,299.92s-6-.6-5.11,4.69C392.18,305.9,392.08,299.92,392.08,299.92Z"/><path class="cls-12" d="M387,304.61a9,9,0,0,1,2.19-2.73,16.22,16.22,0,0,1,1.41-1.06,12.79,12.79,0,0,1,1.51-.9,19.85,19.85,0,0,0-2.82,2.07A12,12,0,0,0,388,303.2,10.18,10.18,0,0,0,387,304.61Z"/><path class="cls-13" d="M378.36,299.34s6.69-.83,5.87,5.16C378.4,306.09,378.36,299.34,378.36,299.34Z"/><path class="cls-11" d="M384.23,304.5a10.11,10.11,0,0,0-1.2-1.56,14.1,14.1,0,0,0-1.44-1.34,24.27,24.27,0,0,0-3.23-2.26,14.64,14.64,0,0,1,1.72,1,18.23,18.23,0,0,1,1.61,1.16A10,10,0,0,1,384.23,304.5Z"/><path class="cls-14" d="M386.91,303.74a2.21,2.21,0,0,0-.53-1.15,2.15,2.15,0,0,0-3.18,2.88s.05,0,.07.07a2.16,2.16,0,0,0-1.22.55,2.2,2.2,0,0,0,3,3.26,1.42,1.42,0,0,0,.12-.13,2.21,2.21,0,0,0,.51,1,2.14,2.14,0,0,0,3.24-2.78,2.24,2.24,0,0,0,.79-.45,2.14,2.14,0,0,0-2.76-3.26Z"/><path class="cls-15" d="M388.54,305a2.11,2.11,0,0,0,.37-1.21,2.14,2.14,0,0,0-4.28,0s0,.06,0,.1a2.17,2.17,0,0,0-1.27-.42,2.21,2.21,0,1,0,0,4.41l.18,0a2.14,2.14,0,1,0,4,1.21,2,2,0,0,0,.89.2,2.14,2.14,0,0,0,.14-4.27Z"/><circle class="cls-16" cx="385.85" cy="306.41" r="1.25"/><path class="cls-11" d="M163.75,315s-14.25-1.44-12.22,11.24C164,329.37,163.75,315,163.75,315Z"/><path class="cls-12" d="M151.53,326.28a15.71,15.71,0,0,1,2.29-3.53,28,28,0,0,1,3-3,36.16,36.16,0,0,1,3.35-2.56c.58-.39,1.18-.75,1.78-1.13l1.84-1c-1.18.76-2.34,1.53-3.48,2.35S158,319.06,157,320a31.81,31.81,0,0,0-3,2.93A19.57,19.57,0,0,0,151.53,326.28Z"/><path class="cls-13" d="M131.91,313.66s16-2,14.05,12.36C132,329.81,131.91,313.66,131.91,313.66Z"/><path class="cls-11" d="M146,326a13.65,13.65,0,0,0-1.34-1.94,22,22,0,0,0-1.54-1.79,36,36,0,0,0-3.43-3.22c-1.19-1-2.48-1.94-3.76-2.85s-2.63-1.73-4-2.56l2.11,1.1c.67.4,1.36.79,2,1.22a40.51,40.51,0,0,1,3.84,2.8,32.29,32.29,0,0,1,3.41,3.31A17.66,17.66,0,0,1,146,326Z"/><path class="cls-14" d="M151.38,324.18a5,5,0,0,0-1.27-2.73,5.13,5.13,0,1,0-7.6,6.89l.17.15a5.2,5.2,0,0,0-2.93,1.32,5.27,5.27,0,0,0,7.08,7.82c.11-.1.2-.22.3-.32a5,5,0,0,0,1.2,2.42,5.12,5.12,0,0,0,7.77-6.67A4.94,4.94,0,0,0,158,332a5.12,5.12,0,0,0-6.61-7.82Z"/><path class="cls-15" d="M155.29,327.3a5.13,5.13,0,1,0-9.37-2.89,1.81,1.81,0,0,0,0,.23,5.22,5.22,0,0,0-3-1,5.28,5.28,0,1,0,0,10.55c.15,0,.29,0,.43,0a5.11,5.11,0,1,0,9.5,2.88,4.81,4.81,0,0,0,2.11.48,5.12,5.12,0,0,0,.35-10.22Z"/><circle class="cls-16" cx="148.85" cy="330.59" r="2.99"/><path class="cls-17" d="M163.47,331a3.08,3.08,0,0,0-.79-1.69,3.17,3.17,0,1,0-4.69,4.26l.11.09a3.25,3.25,0,1,0,2.56,5.64,1.71,1.71,0,0,0,.18-.2,3.14,3.14,0,0,0,.75,1.5,3.16,3.16,0,0,0,4.79-4.12,3,3,0,0,0,1.17-.66,3.16,3.16,0,0,0-4.08-4.82Z"/><path class="cls-18" d="M165.88,332.88a3.1,3.1,0,0,0,.55-1.78,3.17,3.17,0,1,0-6.33,0s0,.09,0,.14a3.2,3.2,0,0,0-1.88-.61,3.26,3.26,0,0,0,0,6.52l.27,0a3.15,3.15,0,1,0,5.86,1.78,3,3,0,0,0,1.31.3,3.16,3.16,0,0,0,.21-6.32Z"/><circle class="cls-16" cx="161.91" cy="334.91" r="1.85"/><path class="cls-8" d="M402.55,315.36h55.24a.53.53,0,0,0,.38-.91c-4.51-4.58-24.61-24.78-27.92-24.78s-13.82,13.72-15.75,14.15c-1.75.4-9.57,7.4-12.36,10.66A.53.53,0,0,0,402.55,315.36Z"/><path class="cls-19" d="M399.07,194.54c-9.57-5.7-10.84,3.87-10.84,3.87,3.64-8,11.87-1.19,11.87-1.19l-.12-.41.11.23s1.88-10.53,9.81-6.81C409.9,190.23,402.66,183.68,399.07,194.54Z"/><path class="cls-19" d="M405.11,188.27a8,8,0,0,1,4.79,2,6.28,6.28,0,0,0-4.88-.51Z"/><path class="cls-19" d="M390.93,193.57c-2.27,1.58-2.7,4.84-2.7,4.84a6.38,6.38,0,0,1,3.23-3.49Z"/><path class="cls-19" d="M434.32,204.34c-2.17-13.92-12.42-7.46-12.42-7.46,10.63-2.88,10.67,10.62,10.67,10.62l.3-.45-.15.29s11.67-6.64,14.43,4.09C447.15,211.43,447.67,199.1,434.32,204.34Z"/><path class="cls-19" d="M445.2,205.18c2.11,2.49,1.95,6.25,1.95,6.25a8,8,0,0,0-3.42-5.17Z"/><path class="cls-19" d="M428.74,195.62c-3.34-.94-6.84,1.26-6.84,1.26a7.94,7.94,0,0,1,6,.34Z"/><path class="cls-20" d="M583.08,333.26H575a.59.59,0,0,1-.56-.76l7.47-22.31a.59.59,0,0,0-.78-.72l-15.73,5.87a.59.59,0,0,0-.37.41l-4.18,17.06a.59.59,0,0,1-.57.45H540.57a.6.6,0,0,1-.59-.48l-3.09-17a.6.6,0,0,0-.38-.44l-15.77-5.88a.59.59,0,0,0-.78.7l6.46,22.37a.59.59,0,0,1-.57.74h-7a.59.59,0,0,0-.59.48l-3.34,18.43a.59.59,0,0,0,.59.68h70.94a.59.59,0,0,0,.59-.68l-3.33-18.43A.59.59,0,0,0,583.08,333.26Z"/><path class="cls-21" d="M550.94,169.16c-38.76,0-70.17,33.05-70.17,73.83s31.41,73.82,70.17,73.82,70.18-33.05,70.18-73.82S589.7,169.16,550.94,169.16Zm0,126c-27.4,0-49.62-23.37-49.62-52.2s22.22-52.21,49.62-52.21,49.62,23.38,49.62,52.21S578.35,295.19,550.94,295.19Z"/><ellipse class="cls-22" cx="550.94" cy="242.99" rx="48.42" ry="50.93"/><ellipse class="cls-22" cx="550.94" cy="242.99" rx="81.84" ry="82.77"/><polyline class="cls-23" points="537.27 194.46 550.94 163.01 564.61 194.46"/><polyline class="cls-23" points="514.27 207.63 510.02 173.73 537.94 194.28"/><polyline class="cls-23" points="501.09 230.29 480.06 203 514.76 207.16"/><polyline class="cls-23" points="501.27 256.34 469.1 242.99 501.27 229.63"/><polyline class="cls-23" points="514.76 278.82 480.06 282.97 501.09 255.69"/><polyline class="cls-23" points="537.94 291.69 510.02 312.25 514.27 278.34"/><polyline class="cls-23" points="564.61 291.52 550.94 322.96 537.27 291.52"/><polyline class="cls-23" points="587.61 278.34 591.86 312.25 563.94 291.69"/><polyline class="cls-23" points="600.79 255.69 621.82 282.97 587.12 278.82"/><polyline class="cls-23" points="600.61 229.63 632.78 242.99 600.61 256.34"/><polyline class="cls-23" points="587.12 207.16 621.82 203 600.79 230.29"/><polyline class="cls-23" points="563.94 194.28 591.86 173.73 587.61 207.63"/><path class="cls-24" d="M653.76,395.73q-40.54.06-81.09,0a2.83,2.83,0,0,1-.63-.13c-1.42-1.68-3.74-1.84-5.35-3.41-6.51-6.34-5.93-16.51,2.16-22.22,1.77-1.26,2.07-2.17,1.08-4.2-3.12-6.38-2.52-12.44,1.93-18.18,1-1.26,3-.92,3.31-2.76,4-3.3,8.57-3.82,13.44-3,1.36.23,2.1.55,2-1.45-.26-9.24,4.15-15.73,12-18.09,7.6-2.26,14.9.84,19.86,8.43.12.18.27.34.44.55,1.28-.23,1.38-1.52,2-2.32a17,17,0,0,1,29,1.56v44"/><path class="cls-25" d="M476.23,361.48a8.57,8.57,0,0,1,7.38-1.64c.75.13,1.15.31,1.12-.8-.14-5.09,2.28-8.67,6.62-10,4.17-1.25,8.18.46,10.91,4.65.06.1.15.18.24.3.7-.13.76-.84,1.07-1.28A9.35,9.35,0,0,1,514,349.1a9.14,9.14,0,0,1,6.6,8.77c0,1.24.22,1.71,1.58,1.88a9.2,9.2,0,0,1,7.11,13.39c-.61,1.23-.41,1.62.68,2.28a7.57,7.57,0,0,1,3.31,8.52,7.38,7.38,0,0,1-7,5.59q-25.68,0-51.35,0a1.36,1.36,0,0,1-.35-.07c-.78-.93-2.05-1-2.94-1.88-3.58-3.49-3.26-9.1,1.18-12.25,1-.69,1.15-1.2.6-2.31a8.87,8.87,0,0,1,1.06-10C475,362.3,476.07,362.49,476.23,361.48Z"/><path class="cls-26" d="M575.13,344.82c-.28,1.84-2.33,1.5-3.3,2.76-4.44,5.74-5,11.8-1.92,18.18,1,2,.69,2.94-1.08,4.2-8.07,5.71-8.65,15.88-2.16,22.22,1.61,1.57,3.93,1.73,5.34,3.41-2.12.62-4.28.26-6.42.27-15,.05-30,0-45,0-4.32,0-7.84-1.47-9.93-5.41-1.81-3.41-2.11-7.45.53-10,3.36-3.29,3.62-6.13,2.77-10.6-1.41-7.4,4.93-13.51,12.66-13.16,2.34.1,3.33-.06,3.35-2.85a11.65,11.65,0,0,1,8.46-11,12.3,12.3,0,0,1,13.33,4.25c.53.66,1,1.35,1.64,2.16,2.89-4.32,6.46-7.13,11.81-6.9a11.93,11.93,0,0,1,6.36,2.08C572.8,345.23,573.85,345.59,575.13,344.82Z"/><path class="cls-27" d="M40.73,380q22.92,0,45.85,0a1.61,1.61,0,0,0,.37-.07c.81-1,2.14-1.06,3.06-2,3.73-3.64,3.4-9.49-1.23-12.77a1.57,1.57,0,0,1-.63-2.41,9.27,9.27,0,0,0-1.1-10.45c-.56-.73-1.73-.53-1.9-1.59A9,9,0,0,0,77.46,349c-.78.14-1.21.33-1.17-.83.14-5.31-2.38-9-6.9-10.39-4.35-1.3-8.53.48-11.38,4.85-.07.1-.15.19-.25.31-.73-.13-.79-.87-1.12-1.33a9.73,9.73,0,0,0-10.82-3.8c-2.74.85-4,2.72-5.09,5.15Z"/><path class="cls-27" d="M85.15,350.75c.17,1.06,1.34.86,1.9,1.59a9.27,9.27,0,0,1,1.1,10.45,1.57,1.57,0,0,0,.63,2.41c4.63,3.28,5,9.13,1.23,12.77-.92.9-2.25,1-3.06,2a13,13,0,0,0,3.68.15c8.62,0,17.23,0,25.84,0,2.48,0,4.5-.85,5.7-3.11,1-2,1.22-4.28-.3-5.77-1.93-1.89-2.08-3.52-1.59-6.09.81-4.25-2.84-7.76-7.28-7.56-1.34.06-1.91,0-1.92-1.64a6.7,6.7,0,0,0-4.87-6.34A7.07,7.07,0,0,0,98.55,352c-.3.38-.58.78-.93,1.24-1.67-2.48-3.72-4.09-6.79-4a6.81,6.81,0,0,0-3.66,1.19A1.66,1.66,0,0,1,85.15,350.75Z"/><path class="cls-25" d="M95.93,355.66a6.65,6.65,0,0,1,5.7-1.26c.58.1.9.24.87-.62-.11-3.94,1.77-6.7,5.12-7.7s6.32.35,8.43,3.59l.19.23c.54-.1.58-.65.83-1a7.21,7.21,0,0,1,8-2.81,7.06,7.06,0,0,1,5.1,6.78c0,1,.17,1.32,1.22,1.45a7.12,7.12,0,0,1,5.5,10.35c-.47.95-.32,1.25.53,1.77A5.84,5.84,0,0,1,140,373a5.7,5.7,0,0,1-5.42,4.32q-19.86,0-39.7,0a1.28,1.28,0,0,1-.27-.05c-.6-.72-1.59-.78-2.28-1.45a6,6,0,0,1,.92-9.47c.76-.54.88-.93.46-1.79a6.89,6.89,0,0,1,.82-7.75C94.94,356.3,95.81,356.45,95.93,355.66Z"/><path class="cls-25" d="M131.41,360.26a5,5,0,0,1,4.3-1c.44.08.68.18.66-.47-.08-3,1.33-5.05,3.86-5.81s4.78.26,6.37,2.71a2.09,2.09,0,0,0,.14.17c.41-.07.44-.49.63-.74a5.46,5.46,0,0,1,6.06-2.13,5.34,5.34,0,0,1,3.85,5.12c0,.73.13,1,.92,1.1a5.38,5.38,0,0,1,4.15,7.82c-.35.71-.24.94.4,1.33a4.4,4.4,0,0,1,1.93,5,4.31,4.31,0,0,1-4.1,3.26q-15,0-30,0a.78.78,0,0,1-.21,0c-.45-.54-1.2-.59-1.72-1.1a4.55,4.55,0,0,1,.7-7.15c.57-.4.66-.69.35-1.35a5.19,5.19,0,0,1,.61-5.85C130.66,360.74,131.32,360.85,131.41,360.26Z"/><path class="cls-26" d="M77.86,365.66a3.88,3.88,0,0,1,3.33-.74c.34.06.52.14.51-.36a4.19,4.19,0,0,1,3-4.5,4.28,4.28,0,0,1,4.93,2.1.58.58,0,0,0,.11.13c.31-.05.34-.37.48-.57a4.23,4.23,0,0,1,4.69-1.65,4.14,4.14,0,0,1,3,4c0,.56.1.77.71.85a4.16,4.16,0,0,1,3.21,6.05c-.27.55-.19.73.31,1a3.42,3.42,0,0,1,1.49,3.85,3.32,3.32,0,0,1-3.17,2.52q-11.59,0-23.19,0l-.16,0c-.35-.42-.92-.46-1.33-.85a3.52,3.52,0,0,1,.54-5.53.68.68,0,0,0,.27-1.05,4,4,0,0,1,.48-4.52C77.28,366,77.79,366.12,77.86,365.66Z"/><path class="cls-27" d="M196.88,342.13a5,5,0,0,1,4.3-1c.43.08.67.18.65-.46-.08-3,1.33-5,3.86-5.81s4.77.27,6.36,2.71a1.77,1.77,0,0,0,.14.17c.41-.07.44-.49.62-.74a5.43,5.43,0,0,1,6.05-2.12,5.32,5.32,0,0,1,3.85,5.11c0,.72.13,1,.92,1.09a5.37,5.37,0,0,1,4.15,7.81c-.36.71-.25.94.39,1.33a4.4,4.4,0,0,1,1.93,5,4.31,4.31,0,0,1-4.09,3.26c-10,0-20,0-29.93,0a1.55,1.55,0,0,1-.21,0c-.45-.54-1.19-.59-1.71-1.1a4.54,4.54,0,0,1,.69-7.14c.57-.4.67-.69.35-1.34a5.21,5.21,0,0,1,.61-5.85C196.13,342.61,196.79,342.72,196.88,342.13Z"/><path class="cls-27" d="M176.85,346.6a3.67,3.67,0,0,1,3.13-.7c.31.06.49.13.47-.33a3.93,3.93,0,0,1,2.81-4.23,4,4,0,0,1,4.62,2,.91.91,0,0,0,.1.13c.3-.05.32-.36.45-.54a4,4,0,0,1,4.4-1.54,3.84,3.84,0,0,1,2.79,3.71c0,.53.1.72.67.79a3.91,3.91,0,0,1,3,5.68c-.26.52-.18.68.29,1a3.2,3.2,0,0,1,1.4,3.6,3.12,3.12,0,0,1-3,2.37q-10.87,0-21.75,0l-.15,0c-.33-.39-.87-.43-1.25-.79a3.3,3.3,0,0,1,.51-5.19.64.64,0,0,0,.25-1,3.76,3.76,0,0,1,.45-4.25C176.31,347,176.78,347,176.85,346.6Z"/><path class="cls-26" d="M191.89,351.67a2.51,2.51,0,0,1,2.16-.48c.22,0,.34.09.33-.24a2.7,2.7,0,0,1,1.93-2.91,2.75,2.75,0,0,1,3.19,1.36l.08.09c.2,0,.22-.25.31-.38a2.73,2.73,0,0,1,3-1.06,2.65,2.65,0,0,1,1.93,2.56c0,.37.07.5.47.55a2.7,2.7,0,0,1,2.08,3.92c-.18.36-.12.47.2.67a2.21,2.21,0,0,1,1,2.49,2.15,2.15,0,0,1-2.05,1.63c-5,0-10,0-15,0a.29.29,0,0,1-.1,0c-.23-.27-.61-.29-.87-.55a2.28,2.28,0,0,1,.35-3.58.44.44,0,0,0,.18-.68,2.58,2.58,0,0,1,.31-2.93C191.51,351.91,191.84,352,191.89,351.67Z"/></g><path d="M105.68,205.72a1.16,1.16,0,0,1-1.72,0l-2.33-2.18c-.46-.46-.41-.95.15-1.48a33.51,33.51,0,0,0,5.49-6.52,35.55,35.55,0,0,0,3.65-7.61,36.87,36.87,0,0,0,1.71-7.34,56.65,56.65,0,0,0,.37-8.13.7.7,0,0,1,.22-.52.69.69,0,0,1,.47-.22l4.4.15a.57.57,0,0,1,.44.22.77.77,0,0,1,.2.52,65.44,65.44,0,0,1-.89,11.17,22.74,22.74,0,0,0,1.48,4.77,32.62,32.62,0,0,0,2.45,4.59,34.32,34.32,0,0,0,3,4.08,24,24,0,0,0,3.26,3.16c.52.39.56.92.1,1.58l-2.08,2.52a1,1,0,0,1-.67.4,1.35,1.35,0,0,1-.91-.3,22.52,22.52,0,0,1-2.59-2.37,34.22,34.22,0,0,1-2.6-3.09,38.08,38.08,0,0,1-2.27-3.41,20.32,20.32,0,0,1-1.63-3.38,34.91,34.91,0,0,1-2,4c-.76,1.28-1.55,2.51-2.39,3.68a33.11,33.11,0,0,1-2.62,3.21A27.2,27.2,0,0,1,105.68,205.72Zm34.74,10.43H136a.56.56,0,0,1-.64-.64V189.37H125.2a.72.72,0,0,1-.47-.2.57.57,0,0,1-.22-.44v-3.51a.51.51,0,0,1,.22-.42.74.74,0,0,1,.47-.17h10.18V169.9a.56.56,0,0,1,.64-.64h4.4a.56.56,0,0,1,.64.64v45.61A.56.56,0,0,1,140.42,216.15Z"/><path d="M191.11,192.75a.74.74,0,0,1-.49.23H171.94v3.65H181a4.17,4.17,0,0,1,2.7.62,3.11,3.11,0,0,1,.66,2.3v5.68a3.09,3.09,0,0,1-.66,2.32,4.25,4.25,0,0,1-2.7.6h-20.8c-.26,0-.43,0-.49.12a1,1,0,0,0-.1.57v1.53c0,.3,0,.47.1.52a1.15,1.15,0,0,0,.54.07h24.56a.79.79,0,0,1,.49.2.6.6,0,0,1,.25.49v3.22a.6.6,0,0,1-.25.46.7.7,0,0,1-.44.23H157.37a3.73,3.73,0,0,1-2.62-.69,3.16,3.16,0,0,1-.69-2.28V207a3.22,3.22,0,0,1,.66-2.27,3.65,3.65,0,0,1,2.6-.69h21a.94.94,0,0,0,.49-.08c.07,0,.1-.24.1-.57V202c0-.36,0-.58-.1-.64s-.25-.1-.54-.1H154.6a.7.7,0,0,1-.47-.2.57.57,0,0,1-.22-.44v-3.31a.58.58,0,0,1,.22-.45.7.7,0,0,1,.47-.2h11.66V193H147.58a.61.61,0,0,1-.69-.69v-3.07a.77.77,0,0,1,.2-.52.63.63,0,0,1,.49-.22h43a.89.89,0,0,1,.74.74v3.07A.6.6,0,0,1,191.11,192.75Zm-6.37-15.63a6.07,6.07,0,0,1-1,3.43,8.64,8.64,0,0,1-3,2.69,17.28,17.28,0,0,1-4.87,1.78,34.82,34.82,0,0,1-13.29,0,17.28,17.28,0,0,1-4.87-1.78,8.73,8.73,0,0,1-3-2.69,6.07,6.07,0,0,1-1-3.43,5.84,5.84,0,0,1,1-3.32,9.08,9.08,0,0,1,3-2.66,17.28,17.28,0,0,1,4.87-1.78,34.82,34.82,0,0,1,13.29,0,17.28,17.28,0,0,1,4.87,1.78,9,9,0,0,1,3,2.66A5.84,5.84,0,0,1,184.74,177.12ZM169.18,173a21.21,21.21,0,0,0-4,.35,16.12,16.12,0,0,0-3.14.91,6.25,6.25,0,0,0-2.07,1.36,2.43,2.43,0,0,0-.75,1.68,2.3,2.3,0,0,0,.75,1.61,6.07,6.07,0,0,0,2.07,1.33,15.43,15.43,0,0,0,3.14.92,23.29,23.29,0,0,0,7.93,0,15.27,15.27,0,0,0,3.16-.92,6.22,6.22,0,0,0,2.08-1.33,2.32,2.32,0,0,0,.74-1.61,2.46,2.46,0,0,0-.74-1.68,6.41,6.41,0,0,0-2.08-1.36,15.94,15.94,0,0,0-3.16-.91A21.34,21.34,0,0,0,169.18,173Z"/><path d="M129.71,244.9a4.34,4.34,0,0,1-1.29.92,4.84,4.84,0,0,1-1.66.46,9,9,0,0,1-1,0c-.38,0-.75-.07-1.11-.13s-.68-.12-1-.19a2.83,2.83,0,0,1-.63-.21,1.27,1.27,0,0,1-.35-.2s0-.14,0-.28l.14-1.44c0-.1,0-.17.1-.19s.14,0,.29.06a6.24,6.24,0,0,0,.66.22,7.1,7.1,0,0,0,1,.21,7.47,7.47,0,0,0,1.06.11,3.66,3.66,0,0,0,1-.08,3,3,0,0,0,.91-.36,1.84,1.84,0,0,0,.55-.52,1.76,1.76,0,0,0,.28-.66,3.08,3.08,0,0,0,.08-.75,2,2,0,0,0-.47-1,4.74,4.74,0,0,0-1.37-1.16q-1.09-.64-1.89-1.2a9,9,0,0,1-1.31-1.09,4.08,4.08,0,0,1-.76-1.13,3.14,3.14,0,0,1-.25-1.28,3.62,3.62,0,0,1,.33-1.52,4.08,4.08,0,0,1,.94-1.28,4.34,4.34,0,0,1,1.41-.86,5.08,5.08,0,0,1,1.82-.32,8.52,8.52,0,0,1,1.66.13,6.29,6.29,0,0,1,1.11.3.5.5,0,0,1,.27.16.35.35,0,0,1,0,.23l-.26,1.24a.46.46,0,0,1-.12.29q-.09.07-.3,0a5.38,5.38,0,0,0-.64-.18l-.72-.15a6.17,6.17,0,0,0-.71-.08,3.92,3.92,0,0,0-.61,0,2.42,2.42,0,0,0-1.53.71,2.08,2.08,0,0,0-.43,1.35,1.8,1.8,0,0,0,.5,1.08,6.15,6.15,0,0,0,1.48,1.17q1.22.74,2,1.32a7.83,7.83,0,0,1,1.24,1.12,3.27,3.27,0,0,1,.64,1.07,3.8,3.8,0,0,1,.18,1.19A4.07,4.07,0,0,1,129.71,244.9Z"/><path d="M141.65,241.06a.29.29,0,0,1-.09.23.29.29,0,0,1-.19.08H135a3.5,3.5,0,0,0,.81,2.12,2.48,2.48,0,0,0,2,.83,7.45,7.45,0,0,0,1.46-.17,4.7,4.7,0,0,0,1.49-.57c.1-.05.15,0,.18,0a.82.82,0,0,1,0,.25v1.34a.49.49,0,0,1-.06.27.67.67,0,0,1-.23.2,4.5,4.5,0,0,1-1.37.44,9.52,9.52,0,0,1-1.6.14,4.49,4.49,0,0,1-3.64-1.45,6.37,6.37,0,0,1-1.24-4.24,8,8,0,0,1,.28-2.06,5.69,5.69,0,0,1,.82-1.8,4.22,4.22,0,0,1,1.41-1.28,4.05,4.05,0,0,1,2-.49,4.15,4.15,0,0,1,2,.45,3.9,3.9,0,0,1,1.35,1.2,5,5,0,0,1,.75,1.77,9.26,9.26,0,0,1,.24,2.15c0,.09,0,.2,0,.31S141.65,241,141.65,241.06Zm-4.25-4.27a1.85,1.85,0,0,0-.94.23,2.35,2.35,0,0,0-.7.6,3.32,3.32,0,0,0-.47.85,5.08,5.08,0,0,0-.26,1h4.44a3.48,3.48,0,0,0-.12-.86,3.17,3.17,0,0,0-.38-.86,2.27,2.27,0,0,0-.64-.67A1.59,1.59,0,0,0,137.4,236.79Z"/><path d="M152.24,244.45a4.51,4.51,0,0,1-1.66,1.33,5.52,5.52,0,0,1-4.39,0,4.29,4.29,0,0,1-1.59-1.22,5.2,5.2,0,0,1-1-1.8,7.18,7.18,0,0,1-.32-2.2,7.07,7.07,0,0,1,.32-2.19,5,5,0,0,1,1-1.8,4.54,4.54,0,0,1,1.58-1.21,5.05,5.05,0,0,1,2.2-.45,5.12,5.12,0,0,1,2.2.45,4.67,4.67,0,0,1,1.59,1.21,5.36,5.36,0,0,1,1,1.8,7.63,7.63,0,0,1,0,4.34A5.36,5.36,0,0,1,152.24,244.45Zm-3.86-7.62a2.52,2.52,0,0,0-1.31.33,2.56,2.56,0,0,0-.9.86,4.21,4.21,0,0,0-.53,1.2,5.67,5.67,0,0,0-.17,1.35,5.61,5.61,0,0,0,.17,1.35,4.27,4.27,0,0,0,.53,1.21,2.61,2.61,0,0,0,.9.88,2.77,2.77,0,0,0,2.62,0,2.61,2.61,0,0,0,.9-.88,4,4,0,0,0,.53-1.21,5.37,5.37,0,0,0,0-2.68,3.85,3.85,0,0,0-.53-1.2,2.68,2.68,0,0,0-.9-.87A2.41,2.41,0,0,0,148.38,236.83Z"/><path d="M162.63,245.93a.31.31,0,0,1-.17-.05.13.13,0,0,1,0-.15V245a3.33,3.33,0,0,1-1.24,1,3.62,3.62,0,0,1-1.52.33,3.48,3.48,0,0,1-2.82-1.11,4.77,4.77,0,0,1-.93-3.16v-6.5a.34.34,0,0,1,.07-.19.2.2,0,0,1,.17-.08h1.59a.22.22,0,0,1,.17.09.34.34,0,0,1,.08.2v6.17a3.39,3.39,0,0,0,.48,2.06,1.67,1.67,0,0,0,1.4.6,2.21,2.21,0,0,0,1.74-.8,3.53,3.53,0,0,0,.69-2.37v-5.68a.28.28,0,0,1,.07-.19.18.18,0,0,1,.16-.08h1.61a.2.2,0,0,1,.17.1.44.44,0,0,1,.07.21v7.92c0,.4,0,.79,0,1.18s0,.74,0,1.07c0,.17-.07.25-.21.25Z"/><path d="M167.6,246c-.14,0-.22-.08-.22-.24V230.44a.26.26,0,0,1,.07-.17.25.25,0,0,1,.17-.06h1.63a.23.23,0,0,1,.16.06.22.22,0,0,1,.07.17v15.29a.21.21,0,0,1-.07.17.2.2,0,0,1-.16.07Z"/><path d="M284.56,244.75a.21.21,0,0,1-.23.24H282.6a.21.21,0,0,1-.23-.24v-5.86l-5.13-8.29c-.09-.16,0-.25.18-.25h2a.25.25,0,0,1,.25.12l3.84,6.24,3.87-6.24a.25.25,0,0,1,.25-.12h2c.21,0,.27.09.17.25l-5.16,8.31Z"/><path d="M297.55,240.1a.29.29,0,0,1-.09.23.29.29,0,0,1-.18.08h-6.39a3.56,3.56,0,0,0,.81,2.12,2.48,2.48,0,0,0,2,.83,7.45,7.45,0,0,0,1.46-.17,4.86,4.86,0,0,0,1.5-.57c.09-.05.14,0,.17,0a.6.6,0,0,1,0,.25v1.34a.49.49,0,0,1-.06.27.59.59,0,0,1-.23.2,4.79,4.79,0,0,1-1.37.44,9.42,9.42,0,0,1-1.6.14,4.49,4.49,0,0,1-3.64-1.45,6.38,6.38,0,0,1-1.23-4.24,8,8,0,0,1,.27-2.06,5.69,5.69,0,0,1,.82-1.8,4.22,4.22,0,0,1,1.41-1.28,4,4,0,0,1,2-.49,4.15,4.15,0,0,1,2,.45,3.9,3.9,0,0,1,1.35,1.2,5,5,0,0,1,.75,1.77,9.26,9.26,0,0,1,.24,2.15c0,.09,0,.2,0,.31S297.55,240,297.55,240.1Zm-4.25-4.27a1.78,1.78,0,0,0-.93.23,2.13,2.13,0,0,0-.7.6,3.07,3.07,0,0,0-.48.85,5.08,5.08,0,0,0-.26,1h4.44a3.48,3.48,0,0,0-.12-.86,3.17,3.17,0,0,0-.38-.86,2.27,2.27,0,0,0-.64-.67A1.59,1.59,0,0,0,293.3,235.83Z"/><path d="M308.15,243.49a4.63,4.63,0,0,1-1.67,1.33,5.52,5.52,0,0,1-4.39,0,4.46,4.46,0,0,1-1.59-1.22,5.16,5.16,0,0,1-1-1.81,7.65,7.65,0,0,1,0-4.38,5,5,0,0,1,1-1.8,4.63,4.63,0,0,1,1.58-1.21,5.05,5.05,0,0,1,2.2-.45,5.12,5.12,0,0,1,2.2.45,4.67,4.67,0,0,1,1.59,1.21,5,5,0,0,1,1,1.8,7.38,7.38,0,0,1,.32,2.19,7.17,7.17,0,0,1-.31,2.15A5.55,5.55,0,0,1,308.15,243.49Zm-3.87-7.62a2.43,2.43,0,0,0-1.31.33,2.56,2.56,0,0,0-.9.86,3.93,3.93,0,0,0-.52,1.2,5.15,5.15,0,0,0,0,2.7,4,4,0,0,0,.52,1.21,2.61,2.61,0,0,0,.9.88,2.77,2.77,0,0,0,2.62,0,2.73,2.73,0,0,0,.91-.88A4.26,4.26,0,0,0,307,241a5.22,5.22,0,0,0,.18-1.35,5.13,5.13,0,0,0-.18-1.33,4.08,4.08,0,0,0-.52-1.2,2.94,2.94,0,0,0-.91-.88A2.5,2.5,0,0,0,304.28,235.87Z"/><path d="M316.45,244.58a4.33,4.33,0,0,1-2.48.7,7.88,7.88,0,0,1-.82,0l-.82-.1c-.27,0-.5-.08-.71-.13a3.13,3.13,0,0,1-.49-.16.66.66,0,0,1-.16-.11c-.06,0-.08-.11-.07-.22l.12-1.26c0-.13,0-.21.06-.23s.11,0,.25,0a8.26,8.26,0,0,0,1.33.28,9.62,9.62,0,0,0,1.23.09,1.72,1.72,0,0,0,1.27-.43,1.39,1.39,0,0,0,.42-1,1.13,1.13,0,0,0-.21-.63,2.46,2.46,0,0,0-.72-.65l-1.09-.63q-.56-.33-1.11-.63a3.32,3.32,0,0,1-1-1,2.34,2.34,0,0,1-.42-1.35,3.19,3.19,0,0,1,.29-1.41,2.82,2.82,0,0,1,.78-1,3,3,0,0,1,1.11-.58,4.5,4.5,0,0,1,1.33-.19c.25,0,.5,0,.77,0s.52.06.78.11a5.74,5.74,0,0,1,.68.15,1.63,1.63,0,0,1,.45.19c.07,0,.1.07.11.1a.86.86,0,0,1,0,.15l-.12,1.24c0,.14,0,.23-.09.25a1.06,1.06,0,0,1-.3,0,6.29,6.29,0,0,0-.83-.26l-.57-.07a5.28,5.28,0,0,0-.75,0,1.45,1.45,0,0,0-1.13.37,1.27,1.27,0,0,0-.33.89,1,1,0,0,0,.37.66,4.58,4.58,0,0,0,.93.64,11.71,11.71,0,0,1,1.12.6c.34.21.6.38.77.51a3.84,3.84,0,0,1,1.05,1.09,2.8,2.8,0,0,1,.34,1.43A3,3,0,0,1,316.45,244.58Z"/><path d="M326.76,245a.28.28,0,0,1-.16-.05c-.05,0-.06-.08-.05-.15V244a3.37,3.37,0,0,1-1.23,1,3.7,3.7,0,0,1-1.53.33,3.46,3.46,0,0,1-2.81-1.11A4.77,4.77,0,0,1,320,241v-6.5a.34.34,0,0,1,.07-.19.21.21,0,0,1,.17-.09h1.59a.24.24,0,0,1,.17.1.29.29,0,0,1,.08.2v6.17a3.39,3.39,0,0,0,.48,2.06,1.67,1.67,0,0,0,1.4.6,2.21,2.21,0,0,0,1.74-.8,3.53,3.53,0,0,0,.69-2.37v-5.68a.28.28,0,0,1,.07-.19.19.19,0,0,1,.16-.09h1.62a.21.21,0,0,1,.16.11.35.35,0,0,1,.07.2v7.92c0,.41,0,.8,0,1.19s0,.74,0,1.07c0,.16-.07.25-.22.25Z"/><path d="M272.77,203.82a10.48,10.48,0,0,1-5.06-1.21,10.84,10.84,0,0,1-3.78-3.36,16.13,16.13,0,0,1-2.35-5.16,25.49,25.49,0,0,1-.81-6.62,25.9,25.9,0,0,1,.81-6.72,15.92,15.92,0,0,1,2.35-5.14,10.51,10.51,0,0,1,3.78-3.28,11.63,11.63,0,0,1,11,.46,11.31,11.31,0,0,1,4,4.6h9.69v-8.5a.56.56,0,0,1,.64-.64h4.4a.56.56,0,0,1,.64.64V214.5a.57.57,0,0,1-.64.64h-4.4a.57.57,0,0,1-.64-.64V197.1H283a11.43,11.43,0,0,1-4,5A10.74,10.74,0,0,1,272.77,203.82Zm6.52-16.35a21.39,21.39,0,0,0-.42-4.32,13.05,13.05,0,0,0-1.23-3.59,7.16,7.16,0,0,0-2.05-2.44,4.6,4.6,0,0,0-2.82-.92,4.44,4.44,0,0,0-2.74.92,7.2,7.2,0,0,0-2,2.44,13.05,13.05,0,0,0-1.24,3.59,22.17,22.17,0,0,0,0,8.59,13.44,13.44,0,0,0,1.24,3.61,7.44,7.44,0,0,0,2,2.5,4.39,4.39,0,0,0,2.74.93,4.55,4.55,0,0,0,2.82-.93,7.39,7.39,0,0,0,2.05-2.5,13.43,13.43,0,0,0,1.23-3.61A21.18,21.18,0,0,0,279.29,187.47Zm5-5.44a26.91,26.91,0,0,1,.54,5.44,25.27,25.27,0,0,1-.45,5h8V182Z"/><path d="M348.67,197.67a.7.7,0,0,1-.5.27H329.45V214.1a.61.61,0,0,1-.7.69h-4.29a.61.61,0,0,1-.7-.69V197.94H305.14a.6.6,0,0,1-.5-.27.9.9,0,0,1-.2-.52v-3.21a.77.77,0,0,1,.2-.52.63.63,0,0,1,.5-.22h43a.86.86,0,0,1,.74.74v3.21A.79.79,0,0,1,348.67,197.67Zm-38.15-9a2,2,0,0,1-.69.07.6.6,0,0,1-.49-.27l-1.68-3.17a.76.76,0,0,1,0-.66.72.72,0,0,1,.54-.42,39.37,39.37,0,0,0,6.3-2.32,19.8,19.8,0,0,0,4.82-3.19,14.37,14.37,0,0,0,3.21-4.25A15.69,15.69,0,0,0,324,169a1.2,1.2,0,0,1,.27-.62.77.77,0,0,1,.62-.27l4.15.15c.46,0,.69.26.69.79-.06,1-.16,1.89-.29,2.72a11.76,11.76,0,0,0,2.24,3.83,21.29,21.29,0,0,0,3.66,3.31,26.33,26.33,0,0,0,4.64,2.62,31.7,31.7,0,0,0,5.22,1.75,1,1,0,0,1,.54.35.54.54,0,0,1,.05.59l-1.48,3.26a.81.81,0,0,1-1,.49,25.41,25.41,0,0,1-4.82-1.41,29.22,29.22,0,0,1-4.62-2.29,27.66,27.66,0,0,1-3.95-2.92A15,15,0,0,1,327,178a20.92,20.92,0,0,1-6.6,6.5A33.62,33.62,0,0,1,310.52,188.66Z"/><polygon points="218.38 180.98 231.08 193.68 218.38 206.37 218.38 180.98"/><path class="cls-28" d="M58.32,51.84h578a17.6,17.6,0,0,1,17.6,17.6v56.84a0,0,0,0,1,0,0H40.73a0,0,0,0,1,0,0V69.44A17.6,17.6,0,0,1,58.32,51.84Z"/><path class="cls-28" d="M40.73,374.31H653.91a0,0,0,0,1,0,0v56.32a17.53,17.53,0,0,1-17.53,17.53H58.25a17.53,17.53,0,0,1-17.53-17.53V374.31A0,0,0,0,1,40.73,374.31Z"/><path d="M127.45,91.86a3.93,3.93,0,0,1-3.92-4.25V81.93a4.53,4.53,0,0,1,4.16-4.48h2.14a4.38,4.38,0,0,1,4.06,4.48v5.85a3.94,3.94,0,0,1-3.78,4.08Zm1.69-2.49a2.1,2.1,0,0,0,2-2.09V82.17a2.08,2.08,0,0,0-2-2h-.76a2.13,2.13,0,0,0-2.07,1.9v5.39a1.89,1.89,0,0,0,1.83,1.86Zm12.25,7h-3.33V89.72H135V86.94h3.06V84.47H135v-2.8h3.06V76.43h3.33Z"/><path d="M154.61,77.8V80h-1.43a4.19,4.19,0,0,1,.55,2.19v2.09a3.46,3.46,0,0,1-3.58,3.44h-2.21c-1.71,0-3.11-1.14-3.11-3.4V82.2a3.64,3.64,0,0,1,.69-2.19h-1.76V77.8h3.87V76.4h3.3v1.4ZM151,82.41c0-.78-.31-1.4-1.1-1.4h-1.09c-.78,0-1.19.62-1.19,1.4v1.66a1.08,1.08,0,0,0,1.24,1.19h.9A1.15,1.15,0,0,0,151,84Zm8.45,7.26a2.64,2.64,0,0,1,2.78,2.45v1.95a2.37,2.37,0,0,1-2.54,2.3h-9.22a2.81,2.81,0,0,1-2.61-2.28v-2c.26-1.71,2.26-2.45,3.28-2.45Zm-7.34,2.47c-.92,0-1.07.38-1.23.69l0,.62c.29.64.62.62,1.26.62h6.34c.55,0,1-.17,1-.62V93a1,1,0,0,0-1-.86ZM162.28,76.4V87.94h-2.71v-4h-1.76v4h-2.7V76.4h2.7v5.25h1.76V76.4Z"/><path d="M174.57,95.29h-2.09V91.71a8.94,8.94,0,0,1-5,1.85,15.49,15.49,0,0,1-3,0V91.66c3.08.61,7.15-.88,8-1.21V83.52h2.12Zm-5.81-11.46a1.84,1.84,0,0,1,1.9,1.91v1.9a1.84,1.84,0,0,1-2.06,1.91h-1.67a1.85,1.85,0,0,1-2-1.76V85.74a1.9,1.9,0,0,1,2-1.91Zm.21,2.28a.79.79,0,0,0-.81-.8h-.6a.85.85,0,0,0-.88.8v1.16a.85.85,0,0,0,.88.81h.6a.79.79,0,0,0,.81-.81Z"/><path d="M187,77.21v9.5H177v-9.5H180v2.61h3.89V77.21ZM178.4,91.38h10.78V90.29H178.4V88.37h14.08V93.5H181.42v.9h11.06v2.23H178.4Zm5.53-7.09v-2H180v2Zm11.3-.91H192.5v3.71h-3V76.38h3v4.2h2.73Z"/><path d="M203.83,80.91c-.1,1.43-.17,6.89,3.75,8.22v2.75a8.8,8.8,0,0,1-2.23-.85,6.23,6.23,0,0,1-3.09-3.49,6,6,0,0,1-3.11,3.58,7.84,7.84,0,0,1-2.23.76V89.13c3.91-1.33,3.75-6.79,3.65-8.22h-3.68V78.25h10.73v2.66Zm11.91,2.16v3.07h-3V96.39h-3.3V76.66h3.3v6.41Z"/><path d="M235,87.44h-7.62v2h6v2.25a10.47,10.47,0,0,1-.52,3,13.65,13.65,0,0,1-.48,1.28h-2.92a9.21,9.21,0,0,0,.93-2.7,6.7,6.7,0,0,0,.09-1.14H219V89.44h5.35v-2h-7.18V84.78h11.78a17.56,17.56,0,0,0,.81-3.65,11.85,11.85,0,0,0,.09-1.52h-10.7V76.88H233v2.49a28.29,28.29,0,0,1-1,5.41h3Z"/><path class="cls-29" d="M104.67,79.06c.18-.18.44-.33.51-.55s-.2-.37-.36-.52-.65-.47-.94-.74-.12-.36.16-.42a1,1,0,0,1,1.19.56l.72,1.28a1.1,1.1,0,0,0,1,.54,5.65,5.65,0,0,1,1.06.2c.25,0,.49.13.74.16.72.08,1,.36.88,1a1,1,0,0,1-1.24.83c-.43-.13-.89.63-1.31.44s-1-.42-1.16.06c-1,3.56-1.06-.83-1.46-1.2a8.2,8.2,0,0,1-.88-1,2.29,2.29,0,0,0-2.51-.91L98,79.51a2.53,2.53,0,0,0-1.41,1c-.38.48-.73,1-1.1,1.46a4.31,4.31,0,0,0-.88,2.56c0,.43-.1.86-.11,1.29a4.94,4.94,0,0,0,1.73,4.23,3.46,3.46,0,0,0,3.2.79,1.82,1.82,0,0,1,2.29,1.32,17.86,17.86,0,0,1,.72,3,12.16,12.16,0,0,1-.15,2.07,3.25,3.25,0,0,0,.09,1.08c.29.93.63,1.84,1,2.76a6.67,6.67,0,0,0,.29.74,1,1,0,0,0,1.44.66,7.24,7.24,0,0,0,3.76-2.71c.29-.4-1.71-10.17,4-9.77.12,0,.17-.17.25-.26a1.21,1.21,0,0,0,.1-1.86c-.16-.23-.34-.45-.48-.69a.6.6,0,0,1,.31-1,1.57,1.57,0,0,0,1-1.15,9.24,9.24,0,0,1,.29-.89c.11-.3.35-.35.56-.14a1.53,1.53,0,0,1,.49.8c.06,1.44.13,2.89,0,4.34a16.92,16.92,0,0,1-1.84,6.67,19.52,19.52,0,0,1-14.62,11,19.31,19.31,0,0,1-13.36-2.4c-.17-.1-.39-.25-.43-.42a10.05,10.05,0,0,1-.27-2c0-.72.58-1.14,1.1-1.54s1.15-.79,1.69-1.22a5.07,5.07,0,0,0,1.74-5.57,1.6,1.6,0,0,0-.78-1c-.5-.26-1-.56-1.5-.78A5,5,0,0,1,85,90.21a5.3,5.3,0,0,0-1.82-1.67C82.09,88,81,87.34,79.9,86.86a2.73,2.73,0,0,1-1.15-4.39c.68-.85,1.46-1.6,2.2-2.39.39-.43.8-.84,1.16-1.28a3,3,0,0,1,1.61-1.11,12.76,12.76,0,0,0,1.8-.76A2.34,2.34,0,0,0,87,74.73c0-.29.06-.59.1-.88a2.24,2.24,0,0,0-.28-1.49,2.13,2.13,0,0,1-.31-1.83,1,1,0,0,1,.44-.56,4,4,0,0,1,2.24-.41c.66.06.78.26.7.91s-.19,1.47-.23,2.21.08.74.69.63c.88-.15,1.76-.37,2.64-.57s2-.44,3-.69A3.39,3.39,0,0,0,98.35,70a1.14,1.14,0,0,0-.2-1.14c-.35-.5-.75-1-1.12-1.45,2.42-.65,10.86,3.1,12.26,5.49a2.16,2.16,0,0,1-1.46-.19c-1.09-.49-2.18-1-3.26-1.51a1.18,1.18,0,0,0-1,0c-.53.23-1.07.44-1.6.66-.76.3-.92.67-.62,1.43s.18.65-.29,1.14.6,2.18,1.24,2.59c.42.27.86.53,1.3.77s1.11.46.9,1.29Z"/><path class="cls-29" d="M75.67,85.69a5.73,5.73,0,0,1,1.41,2.61c.34,1.29.72,2.57.94,3.88a6,6,0,0,0,1.64,3.19,4,4,0,0,1,1.15,2.34,9.35,9.35,0,0,0,2.44,4.86,5.44,5.44,0,0,1,.39.55A19.44,19.44,0,0,1,75.67,85.69Z"/><path class="cls-30" d="M92.4,83.24c-1.18-.88-2-1.76-3.3-1.53-1.08.2-1.82,2-1.45,3.05.58,1.65,2.74,2.21,4.23,2A1.84,1.84,0,0,0,93.46,84C93.2,83.57,92.58,83.48,92.4,83.24Z"/><path class="cls-30" d="M94.21,79.78c-.52-.45-.88-1.21-1.56-1.24a1.65,1.65,0,0,0-1.45,2.11,3,3,0,0,0,2.85,1.9,1.22,1.22,0,0,0,1.06-1.83c-.19-.38-.37-.39-.61-.75C94.48,80,94.23,79.77,94.21,79.78Z"/><path class="cls-30" d="M94.81,79.18a7.13,7.13,0,0,0,1.16.45,1,1,0,0,0,1.25-1.31A2.5,2.5,0,0,0,95,76.62c-.79,0-1.33.28-1.25,1.07a2,2,0,0,0,.72,1.37S94.82,79.16,94.81,79.18Z"/><path class="cls-30" d="M99.22,75.89a5,5,0,0,0-.51-.27.83.83,0,0,0-1.2.92,1.9,1.9,0,0,0,1.3,1.57.83.83,0,0,0,1.12-1A2.13,2.13,0,0,0,99.22,75.89Z"/><path class="cls-30" d="M109.28,77.37a1.55,1.55,0,0,0,1,.65.63.63,0,0,0,.74-.56,1.53,1.53,0,0,0-1.16-1.56c-.56-.11-.95.4-.76,1A4.41,4.41,0,0,0,109.28,77.37Z"/><path class="cls-30" d="M116.86,87.39a21.32,21.32,0,1,1-21.14-21.5A21.34,21.34,0,0,1,116.86,87.39Zm-12.19-8.33-.19-.07c.21-.83-.39-1-.9-1.29s-.88-.5-1.3-.77c-2.23-1.75-1.55.36-2.51,1-.31.2-.2.14-.77.15-.29,0-.46-.19-.75-.27s-.68-.89-.74-1.28c-.21-1.43,0-1.51,1.45-1.43.82,0,1.5.32,2.08-.77.47-.49.53-.51.29-1.14a1.11,1.11,0,0,1,.61-1.43c.52-.21,1-.41,1.55-.63a1.31,1.31,0,0,1,1.08,0c1.08.52,2.17,1,3.26,1.51a2.16,2.16,0,0,0,1.46.19c-1.4-2.39-9.84-6.14-12.26-5.49.37.48.77,1,1.12,1.45a1.14,1.14,0,0,1,.2,1.14A3.39,3.39,0,0,1,96,72.05c-1,.25-2,.47-3,.69s-1.76.42-2.64.57c-.61.11-.73,0-.69-.63s.14-1.48.23-2.21,0-.85-.7-.91a4,4,0,0,0-2.24.41,1,1,0,0,0-.44.56,2.13,2.13,0,0,0,.31,1.83,2.24,2.24,0,0,1,.28,1.49c0,.29-.08.59-.1.88a2.34,2.34,0,0,1-1.45,2.2,12.76,12.76,0,0,1-1.8.76,3,3,0,0,0-1.61,1.11c-.36.44-.77.85-1.16,1.28-.74.79-1.52,1.54-2.2,2.39a2.73,2.73,0,0,0,1.15,4.39c1.09.47,2.13,1.07,3.18,1.63A5.53,5.53,0,0,1,85,90.21,5,5,0,0,0,87.07,92c.51.22,1,.52,1.5.78a1.6,1.6,0,0,1,.78,1,5.07,5.07,0,0,1-1.74,5.57c-.54.43-1.14.8-1.69,1.22s-1.1.82-1.1,1.54a10.05,10.05,0,0,0,.27,2c0,.17.26.32.43.42a19.21,19.21,0,0,0,13.28,2.41,20.39,20.39,0,0,0,14-9.77,17.43,17.43,0,0,0,2.53-7.92c.08-1.45,0-2.9,0-4.34a1.53,1.53,0,0,0-.49-.8c-.21-.21-.45-.16-.56.14a9.24,9.24,0,0,0-.29.89,1.57,1.57,0,0,1-1,1.15.6.6,0,0,0-.31,1c.14.24.32.46.48.69a1.21,1.21,0,0,1-.1,1.86l-.25.26c-.88,1-3-.86-1.83,3.5a10,10,0,0,1-1,2.94,11.87,11.87,0,0,0-.67,1.87,5.61,5.61,0,0,1-.52,1.46,7.24,7.24,0,0,1-3.76,2.71,1,1,0,0,1-1.44-.66,6.67,6.67,0,0,1-.29-.74c-.33-.92-.67-1.83-1-2.76a3.25,3.25,0,0,1-.09-1.08,12.16,12.16,0,0,0,.15-2.07,17.86,17.86,0,0,0-.72-3,1.82,1.82,0,0,0-2.29-1.32,3.46,3.46,0,0,1-3.2-.79,4.94,4.94,0,0,1-1.73-4.23c0-.43.1-.86.11-1.29A4.31,4.31,0,0,1,95.46,82c.37-.48.72-1,1.1-1.46a2.55,2.55,0,0,1,1.46-1,25,25,0,0,0,2.82-.64,2.31,2.31,0,0,1,2.75.84,8.2,8.2,0,0,0,.88,1c.36.33.34,1.46,1.12.54a1.31,1.31,0,0,1,1.53-.36h0a9.9,9.9,0,0,0,1.27.51,1,1,0,0,0,1.24-.83c.1-.62-.16-.9-.88-1-.25,0-.49-.11-.74-.16a5.65,5.65,0,0,0-1.06-.2,1.1,1.1,0,0,1-1-.54l-.72-1.28a1,1,0,0,0-1.19-.56c-.28.06-.39.21-.16.42s.64.48.94.74.4.4.36.52S104.85,78.88,104.67,79.06Zm-29,6.63a19.44,19.44,0,0,0,8,17.43,5.44,5.44,0,0,0-.39-.55,9.35,9.35,0,0,1-2.44-4.86,4,4,0,0,0-1.15-2.34A6,6,0,0,1,78,92.18c-.22-1.31-.6-2.59-.94-3.88A5.73,5.73,0,0,0,75.67,85.69Z"/><path d="M95.53,65.89a21.32,21.32,0,1,0,21.33,21.32A21.21,21.21,0,0,0,95.53,65.89Zm0,41.16a19.84,19.84,0,1,1,19.82-19.84A19.79,19.79,0,0,1,95.56,107.05Z"/><path d="M603.6,429.85a1.47,1.47,0,0,1-.19-.5q0-18.14,0-36.27v-.45h6.36v36.8c0,.14,0,.28,0,.42Z"/><path d="M499.16,392.63h4.26v37.22h-4.26Z"/><path d="M616.15,429.85V392.62h4.26v37.23Z"/><path d="M531.13,429.85c0-.22,0-.44,0-.65V392.63h4.19v.57q0,18,0,36.05a2.61,2.61,0,0,1-.14.6Z"/><path d="M558.84,429.85a2.38,2.38,0,0,1-.15-.55q0-18.07,0-36.13v-.54h4.2a3.93,3.93,0,0,1,.06.48v36.23a3,3,0,0,1-.09.51Z"/><path d="M569.49,429.85a1.68,1.68,0,0,1-.18-.5q0-18.14,0-36.27v-.45h4.27v.48q0,18.11,0,36.23a4.38,4.38,0,0,1,0,.51Z"/><path d="M578,429.85a1.68,1.68,0,0,1-.18-.5q0-18.14,0-36.27v-.45h4.26v36.71c0,.17,0,.34,0,.51Z"/><path d="M586.55,429.85a1.47,1.47,0,0,1-.19-.5q0-18.14,0-36.27v-.45h4.27v36.71a4.4,4.4,0,0,1,0,.51Z"/><path d="M592.94,429.85c-.07-.17-.21-.33-.21-.49q0-18.15,0-36.29v-.44h4.21a2.84,2.84,0,0,1,.05.42v36.38c0,.14,0,.28,0,.42Z"/><path d="M505.55,429.85c0-.22,0-.44,0-.65V392.62h2.15v37.23Z"/><path d="M611.89,429.85V392.62H614c0,.14,0,.29,0,.44q0,18.18,0,36.37c0,.14,0,.28,0,.42Z"/><path d="M512,429.85V392.62h2.11v.5q0,18.11,0,36.19a1.73,1.73,0,0,1-.21.54Z"/><path d="M522.6,429.85c0-.2,0-.41,0-.61V392.63h2.1v.49q0,18.09,0,36.18a2,2,0,0,1-.18.55Z"/><path d="M541.79,429.85c0-.2,0-.41,0-.61V392.62h2.09v.53q0,18.08,0,36.15a2.34,2.34,0,0,1-.14.55Z"/><path d="M546.05,429.85c0-.2,0-.41,0-.61V392.62h2.09v.53q0,18.08,0,36.15a2.34,2.34,0,0,1-.14.55Z"/><path d="M550.31,429.85c0-.2,0-.41,0-.61V392.62h2.09V429.3a3,3,0,0,1-.14.55Z"/></g></svg>