<svg xmlns="http://www.w3.org/2000/svg" viewBox="0 0 410.4 107.41"><defs><style>.cls-1{fill:#0f8ebe;}.cls-2{fill:#8dd04d;}</style></defs><g id="레이어_2" data-name="레이어 2"><g id="레이어_1-2" data-name="레이어 1"><path class="cls-1" d="M76.5,33c.45-.45,1.1-.84,1.27-1.39.1-.31-.52-.94-.93-1.3-.75-.66-1.63-1.17-2.37-1.84-.58-.53-.31-.91.39-1.06a2.59,2.59,0,0,1,3,1.39c.62,1.06,1.22,2.14,1.84,3.2a2.77,2.77,0,0,0,2.55,1.32,18.12,18.12,0,0,1,2.69.49c.62.12,1.23.33,1.85.39,1.84.19,2.49.87,2.25,2.45A2.45,2.45,0,0,1,86,38.74c-1.1-.31-2.24,1.61-3.29,1.13s-2.61-1-2.92.17c-2.33,9-2.69-2.06-3.71-3a20.39,20.39,0,0,1-2.25-2.48,5.75,5.75,0,0,0-6.33-2.22c-2.61.66-5.22,1.28-7.83,1.89a6.5,6.5,0,0,0-3.52,2.62c-1,1.2-1.81,2.47-2.74,3.69A10.89,10.89,0,0,0,51.21,47c0,1.08-.24,2.15-.26,3.23-.07,4.19,1.12,8,4.46,10.62a8.72,8.72,0,0,0,8.07,1.92,4.6,4.6,0,0,1,5.8,3.27,45.17,45.17,0,0,1,1.89,7.47c.24,1.69-.27,3.48-.34,5.23a7.94,7.94,0,0,0,.26,2.71c.74,2.33,1.63,4.62,2.47,6.93a17.62,17.62,0,0,0,.75,1.86c.83,1.71,1.81,2.2,3.65,1.62A18.1,18.1,0,0,0,87.35,85c.72-1-4.53-25.57,9.81-24.69.29,0,.4-.44.6-.67,1.54-1.84,1.58-2.7.22-4.67-.41-.58-.87-1.13-1.23-1.74a1.53,1.53,0,0,1,.75-2.45A4,4,0,0,0,100,47.85c.2-.76.44-1.51.71-2.24s.88-.89,1.39-.35a3.84,3.84,0,0,1,1.27,2c.18,3.64.38,7.3.21,10.93A42.58,42.58,0,0,1,99.1,75c-7.56,15.36-19.76,24.88-36.58,28.05a48.59,48.59,0,0,1-33.7-5.75c-.43-.24-1-.63-1.07-1A25.3,25.3,0,0,1,27,91.35c0-1.81,1.42-2.89,2.72-3.9s2.88-2,4.24-3.12a12.74,12.74,0,0,0,4.25-14.07,4,4,0,0,0-2-2.45c-1.27-.63-2.49-1.37-3.79-1.93a12.64,12.64,0,0,1-5.28-4.37,13.39,13.39,0,0,0-4.61-4.18c-2.74-1.42-5.44-3-8.28-4.16-4.69-2-6.18-7-3-11,1.67-2.14,3.64-4,5.47-6.07,1-1.08,2-2.12,2.9-3.26a7.49,7.49,0,0,1,4-2.81,31.28,31.28,0,0,0,4.5-2,5.91,5.91,0,0,0,3.63-5.57c0-.75.13-1.49.21-2.23a5.51,5.51,0,0,0-.73-3.74,5.36,5.36,0,0,1-.83-4.59,2.6,2.6,0,0,1,1.11-1.42,10,10,0,0,1,5.63-1.1c1.67.15,2,.63,1.78,2.27-.21,1.85-.44,3.71-.53,5.57-.08,1.58.22,1.87,1.75,1.59,2.23-.4,4.43-1,6.63-1.49,2.55-.59,5.1-1.15,7.62-1.81a8.56,8.56,0,0,0,5.92-5.36,2.91,2.91,0,0,0-.54-2.85C59,6.05,57.94,4.87,57,3.67,63.08,2,84.42,11.25,88,17.24a5.42,5.42,0,0,1-3.68-.46c-2.76-1.21-5.52-2.43-8.25-3.71A2.87,2.87,0,0,0,73.5,13c-1.33.58-2.68,1.13-4,1.69-1.9.79-2.29,1.71-1.54,3.61.63,1.59.49,1.65-.68,2.89-1.46,1.54,1.54,5.47,3.17,6.5,1.07.68,2.17,1.32,3.29,1.9,1.3.68,2.8,1.15,2.3,3.23Z"/><path class="cls-1" d="M3.6,50.31a14.66,14.66,0,0,1,3.62,6.56c.88,3.23,1.87,6.46,2.45,9.75a14.87,14.87,0,0,0,4.21,8,10.12,10.12,0,0,1,2.94,5.89c.61,4.81,3.22,8.59,6.24,12.16a9.89,9.89,0,0,1,1,1.4C9.13,83.9,2,65.22,3.6,50.31Z"/><path class="cls-2" d="M45.68,43.77c-3-2.17-5.18-4.37-8.34-3.77-2.73.52-4.54,5.1-3.6,7.7,1.51,4.16,7,5.51,10.71,5.07s5.71-3.72,3.91-7C47.72,44.6,46.14,44.38,45.68,43.77Z"/><path class="cls-2" d="M50.16,35c-1.31-1.13-2.23-3-4-3.08-2.53-.07-4.36,3-3.59,5.34A7.5,7.5,0,0,0,49.84,42a3.06,3.06,0,0,0,2.61-4.63c-.49-1-.92-1-1.54-1.88C50.85,35.55,50.22,35,50.16,35Z"/><path class="cls-2" d="M51.66,33.5a19,19,0,0,0,2.94,1.11c2.28.49,3.7-1.08,3.12-3.33a6.29,6.29,0,0,0-5.55-4.23c-2,0-3.34.73-3.12,2.73a4.92,4.92,0,0,0,1.83,3.42C50.85,33.27,51.69,33.44,51.66,33.5Z"/><path class="cls-2" d="M62.7,25.12a13.15,13.15,0,0,0-1.29-.67,2.09,2.09,0,0,0-3,2.33,4.8,4.8,0,0,0,3.31,3.95,2.1,2.1,0,0,0,2.8-2.63A5.46,5.46,0,0,0,62.7,25.12Z"/><path class="cls-2" d="M88.08,28.62a3.81,3.81,0,0,0,2.43,1.62,1.61,1.61,0,0,0,1.86-1.43,3.91,3.91,0,0,0-3-3.91c-1.41-.26-2.37,1-1.87,2.55A8.15,8.15,0,0,0,88.08,28.62Z"/><path class="cls-2" d="M107.39,53.7A53.7,53.7,0,1,1,53.66,0,53.76,53.76,0,0,1,107.39,53.7ZM76.5,33,76,32.8c.5-2.08-1-2.55-2.3-3.23-1.12-.58-2.22-1.22-3.29-1.9-5.67-4.36-3.89.94-6.31,2.58-.75.52-.49.36-1.91.4-.74,0-1.19-.44-1.9-.66-1-.29-1.74-2.23-1.9-3.21-.58-3.6,0-3.79,3.62-3.62,2.07.09,3.64.8,5.08-2,1.17-1.24,1-1.33.4-2.92A2.8,2.8,0,0,1,69,14.66c1.3-.54,3.06-1.22,4.35-1.79a3.27,3.27,0,0,1,2.72,0c2.73,1.28,5.47,2.67,8.23,3.88a5.42,5.42,0,0,0,3.68.46C84.42,11.25,63.08,2,57,3.67c.95,1.2,2,2.38,2.86,3.64a2.91,2.91,0,0,1,.54,2.85,8.56,8.56,0,0,1-5.92,5.36c-2.52.66-5.07,1.22-7.62,1.81-2.2.51-4.4,1.09-6.63,1.49-1.53.28-1.83,0-1.75-1.59.09-1.86.32-3.72.53-5.57.19-1.64-.11-2.12-1.78-2.27a10,10,0,0,0-5.63,1.1,2.6,2.6,0,0,0-1.11,1.42,5.36,5.36,0,0,0,.83,4.59A5.51,5.51,0,0,1,32,20.24c-.08.74-.18,1.48-.21,2.23A5.91,5.91,0,0,1,28.2,28a31.28,31.28,0,0,1-4.5,2,7.49,7.49,0,0,0-4,2.81c-.9,1.14-1.93,2.18-2.9,3.26-1.83,2-3.8,3.93-5.47,6.07-3.2,4.07-1.71,9.06,3,11,2.76,1.17,5.39,2.65,8.06,4a14.07,14.07,0,0,1,4.83,4.28,12.59,12.59,0,0,0,5.28,4.38c1.3.56,2.52,1.3,3.79,1.93a4,4,0,0,1,2,2.45A12.74,12.74,0,0,1,34,84.33c-1.36,1.11-2.86,2-4.24,3.12S27,89.54,27,91.35a25.3,25.3,0,0,0,.73,4.94c.08.41.64.8,1.07,1a48.59,48.59,0,0,0,33.51,5.79A51.37,51.37,0,0,0,97.4,78.2a43.73,43.73,0,0,0,6.19-20c.17-3.63,0-7.29-.21-10.93a3.84,3.84,0,0,0-1.27-2c-.51-.54-1.11-.4-1.39.35s-.51,1.48-.71,2.24a4,4,0,0,1-2.51,2.92,1.53,1.53,0,0,0-.75,2.45c.36.61.82,1.16,1.23,1.74,1.36,2,1.32,2.83-.22,4.67-.2.23-.41.44-.6.67-2.2,2.6-7.53-2.1-4.54,8.85a25.51,25.51,0,0,1-2.34,7.43,32.76,32.76,0,0,0-1.65,4.74c-.41,1.23-.56,2.66-1.28,3.67A18.1,18.1,0,0,1,78,91.9c-1.84.58-2.82.09-3.65-1.62a17.62,17.62,0,0,1-.75-1.86c-.84-2.31-1.73-4.6-2.47-6.93a7.94,7.94,0,0,1-.26-2.71c.07-1.75.58-3.54.34-5.23a45.17,45.17,0,0,0-1.89-7.47,4.6,4.6,0,0,0-5.8-3.27,8.72,8.72,0,0,1-8.07-1.92c-3.34-2.64-4.53-6.43-4.46-10.62,0-1.08.23-2.15.26-3.23a10.89,10.89,0,0,1,2.15-6.48c.93-1.22,1.79-2.49,2.74-3.69s2-2.5,3.64-2.84a65.84,65.84,0,0,0,7.09-1.69c2.91-1,5.16,0,7,2.24A20.39,20.39,0,0,0,76,37.06c.92.83.89,3.68,2.83,1.35a3.3,3.3,0,0,1,3.84-.95l0,0A23.86,23.86,0,0,0,86,38.74a2.45,2.45,0,0,0,3.1-2.12c.24-1.58-.41-2.26-2.25-2.45-.62-.06-1.23-.27-1.85-.39a18.12,18.12,0,0,0-2.69-.49A2.77,2.77,0,0,1,79.71,32c-.62-1.06-1.22-2.14-1.84-3.2a2.59,2.59,0,0,0-3-1.39c-.7.15-1,.53-.39,1.06.74.67,1.62,1.18,2.37,1.84.41.36,1,1,.93,1.3C77.6,32.13,77,32.52,76.5,33ZM3.6,50.31C2,65.22,9.13,83.9,24.06,94.06a9.89,9.89,0,0,0-1-1.4c-3-3.57-5.63-7.35-6.24-12.16a10.12,10.12,0,0,0-2.94-5.89,14.87,14.87,0,0,1-4.21-8c-.58-3.29-1.57-6.52-2.45-9.75A14.66,14.66,0,0,0,3.6,50.31Z"/><path d="M53.66,0a53.71,53.71,0,1,0,53.73,53.7A53.43,53.43,0,0,0,53.66,0Zm.08,103.67a50,50,0,1,1,49.92-50A49.84,49.84,0,0,1,53.74,103.67Z"/><path d="M135.9,67.37c-4.19,0-10-2.91-10-10.85V42c0-6.3,5.46-11.46,10.61-11.46H142c5.39,0,10.36,5.16,10.36,11.46V57c0,6.24-4.78,10.42-9.63,10.42ZM140.2,61c3.09,0,5-3,5-5.34v-13a5.3,5.3,0,0,0-5-5h-1.94c-2.43,0-5.27,2.18-5.27,4.85V56.28A4.81,4.81,0,0,0,137.65,61ZM171.48,79H163v-17h-7.82v-7.1H163v-6.3h-7.82V41.37H163V28h8.49Z"/><path d="M205.24,31.48v5.64h-3.63A10.74,10.74,0,0,1,203,42.7V48a8.84,8.84,0,0,1-9.15,8.79h-5.64c-4.37,0-7.94-2.91-7.94-8.66V42.7A9.36,9.36,0,0,1,182,37.12h-4.49V31.48h9.88V27.91h8.43v3.57ZM196,43.25c0-2-.79-3.58-2.79-3.58h-2.79c-2,0-3,1.57-3,3.58v4.24c0,2,1,3,3.15,3h2.31A2.91,2.91,0,0,0,196,47.31ZM217.55,61.8c3.64,0,7.09,2.54,7.09,6.24v5c0,3.4-2.79,5.88-6.48,5.88H194.63A7.12,7.12,0,0,1,188,73.07V68c.66-4.36,5.76-6.24,8.36-6.24Zm-18.73,6.3c-2.37,0-2.73,1-3.15,1.76l-.06,1.58c.72,1.63,1.57,1.57,3.21,1.57H215c1.4,0,2.55-.42,2.55-1.57V70.28a2.45,2.45,0,0,0-2.61-2.18Zm26-40.19V57.37h-6.92V47.13h-4.48V57.37h-6.91V27.91h6.91v13.4h4.48V27.91Z"/><path d="M256.24,76.14h-5.36V67c-3.5,3.1-8.6,4.32-12.82,4.71a41.52,41.52,0,0,1-7.57.07V66.85c7.86,1.57,18.25-2.25,20.32-3.07V46.07h5.43ZM241.38,46.86a4.7,4.7,0,0,1,4.86,4.89v4.86c0,3-2,4.85-5.25,4.85h-4.28a4.71,4.71,0,0,1-5-4.5V51.75a4.85,4.85,0,0,1,5-4.89Zm.54,5.82a2,2,0,0,0-2.07-2h-1.54a2.18,2.18,0,0,0-2.25,2v3a2.18,2.18,0,0,0,2.25,2.07h1.54a2,2,0,0,0,2.07-2.07Z"/><path d="M288,30V54.22H262.37V30h7.82v6.67h9.94V30ZM266,66.16h27.53V63.37H266V58.46H302v13.1H273.7v2.3H302v5.7H266ZM280.13,48v-5h-9.94v5ZM309,45.73h-7v9.46h-7.64V27.85H302V38.58h7Z"/><path d="M330.93,39.43c-.24,3.63-.43,17.58,9.58,21v7a23,23,0,0,1-5.7-2.18,15.83,15.83,0,0,1-7.88-8.91A15.36,15.36,0,0,1,319,65.49a20.32,20.32,0,0,1-5.7,1.94v-7c10-3.39,9.58-17.34,9.33-21h-9.39V32.64h27.4v6.79Zm30.43,5.51v7.82h-7.58V79h-8.42V28.57h8.42V44.94Z"/><path d="M410.4,56.1H390.94v5.09H406.4V67a27,27,0,0,1-1.33,7.76c-.37,1.15-.79,2.24-1.21,3.27H396.4a23.77,23.77,0,0,0,2.36-6.91,15.9,15.9,0,0,0,.25-2.91H369.66v-7H383.3V56.1H365V49.31h30.07A45.46,45.46,0,0,0,397.13,40a29.88,29.88,0,0,0,.24-3.88H370v-7h35.34v6.37c-.18,4.54-2,11.51-2.67,13.82h7.7Z"/></g></g></svg>