<svg xmlns="http://www.w3.org/2000/svg" viewBox="0 0 238.46 238.5"><defs><style>.cls-1{fill:#0f8ebe;}.cls-2{fill:#8dd04d;}</style></defs><g id="레이어_2" data-name="레이어 2"><g id="레이어_1-2" data-name="레이어 1"><path class="cls-1" d="M169.86,73.21c1-1,2.45-1.87,2.84-3.08.22-.68-1.16-2.09-2.06-2.88-1.68-1.47-3.63-2.62-5.27-4.11-1.3-1.16-.69-2,.86-2.34a5.74,5.74,0,0,1,6.69,3.08c1.38,2.37,2.7,4.76,4.09,7.12,1.26,2.15,3.2,2.84,5.65,2.93a38.93,38.93,0,0,1,6,1.08c1.37.27,2.72.73,4.1.87,4.08.41,5.54,1.94,5,5.43S194.19,87,190.86,86c-2.45-.68-5,3.58-7.31,2.52s-5.79-2.29-6.48.38c-5.18,20-6-4.58-8.25-6.61a46.65,46.65,0,0,1-5-5.51c-3.69-4.59-8.25-6.41-14.07-4.94s-11.57,2.84-17.37,4.2c-3.47.82-5.74,3.22-7.82,5.83s-4,5.49-6.08,8.18a24.15,24.15,0,0,0-4.77,14.39c-.07,2.4-.55,4.79-.59,7.18-.15,9.3,2.49,17.72,9.91,23.58,5,4,11,6.23,17.92,4.26,5.69-1.62,10.91,1.29,12.87,7.27a98.85,98.85,0,0,1,4.2,16.59c.54,3.75-.6,7.71-.76,11.59a17.87,17.87,0,0,0,.58,6c1.66,5.18,3.63,10.27,5.49,15.38a40.33,40.33,0,0,0,1.66,4.15c1.86,3.78,4,4.87,8.1,3.58A40,40,0,0,0,194,188.72c1.6-2.25-10.06-56.77,21.77-54.82.66,0,.91-1,1.33-1.48,3.44-4.09,3.53-6,.49-10.38-.9-1.3-1.93-2.51-2.72-3.86-1.4-2.39-.79-4.49,1.67-5.44a8.84,8.84,0,0,0,5.58-6.49,50.24,50.24,0,0,1,1.56-5c.62-1.67,2-2,3.1-.79s2.72,2.88,2.8,4.4c.42,8.09.86,16.21.48,24.28a94.39,94.39,0,0,1-10,37.43c-16.79,34.12-43.88,55.26-81.23,62.3-26.3,4.95-51.42.44-74.83-12.78-1-.54-2.19-1.39-2.39-2.3a56.28,56.28,0,0,1-1.6-11c0-4,3.15-6.41,6-8.66,3.07-2.4,6.39-4.46,9.41-6.91C85,179.5,88.73,167.09,84.9,156a8.92,8.92,0,0,0-4.43-5.43c-2.81-1.41-5.52-3.06-8.41-4.3a27.92,27.92,0,0,1-11.72-9.7,29.68,29.68,0,0,0-10.25-9.27C44,124.14,38,120.73,31.7,118.07c-10.41-4.39-13.71-15.45-6.61-24.5,3.72-4.75,8.08-9,12.14-13.48,2.17-2.39,4.45-4.7,6.44-7.23a16.61,16.61,0,0,1,8.95-6.25c3.47-1,6.69-2.84,10-4.34,5.33-2.39,7.78-6.66,8.05-12.38.08-1.65.3-3.3.48-5a12.32,12.32,0,0,0-1.64-8.3c-1.93-3.06-3-6.56-1.83-10.2a5.76,5.76,0,0,1,2.45-3.15,22.34,22.34,0,0,1,12.52-2.44c3.7.34,4.36,1.41,3.94,5-.47,4.11-1,8.23-1.18,12.36-.17,3.5.5,4.15,3.89,3.53,5-.9,9.83-2.17,14.73-3.31,5.64-1.31,11.31-2.56,16.91-4,6.39-1.68,10.65-5.85,13.15-11.89,1-2.34.08-4.49-1.21-6.33-2-2.81-4.24-5.43-6.35-8.09C140.07,4.39,187.45,25,195.42,38.28c-2.93.8-5.6.09-8.17-1C181.11,34.57,175,31.86,168.92,29a6.4,6.4,0,0,0-5.7-.2c-3,1.3-6,2.5-8.94,3.75-4.21,1.76-5.08,3.81-3.41,8,1.4,3.53,1.09,3.66-1.51,6.41-3.26,3.43,3.42,12.15,7,14.43,2.38,1.51,4.81,2.93,7.3,4.23,2.88,1.5,6.22,2.54,5.11,7.17Z"/><path class="cls-1" d="M8,111.72a32.64,32.64,0,0,1,8,14.55c2,7.19,4.14,14.36,5.42,21.67a33.28,33.28,0,0,0,9.35,17.73,22.51,22.51,0,0,1,6.54,13.07c1.36,10.7,7.16,19.08,13.86,27a23.59,23.59,0,0,1,2.22,3.1C20.28,186.3,4.53,144.82,8,111.72Z"/><path class="cls-2" d="M101.43,97.19c-6.61-4.82-11.5-9.69-18.51-8.36-6.06,1.14-10.08,11.32-8,17.1,3.35,9.24,15.49,12.22,23.77,11.24,8.13-1,12.67-8.25,8.69-15.52C106,99,102.46,98.55,101.43,97.19Z"/><path class="cls-2" d="M111.39,77.79c-2.91-2.51-5-6.75-8.8-6.85-5.62-.14-9.69,6.61-8,11.87,2,6.15,9.63,11.12,16,10.46,5.5-.56,8.27-5.32,5.79-10.27-1.08-2.16-2-2.15-3.41-4.16C112.92,78.93,111.52,77.69,111.39,77.79Z"/><path class="cls-2" d="M114.72,74.4a44.72,44.72,0,0,0,6.51,2.46c5.07,1.09,8.23-2.41,6.94-7.4s-7.25-9.46-12.31-9.39c-4.46.06-7.44,1.61-7,6.06a11,11,0,0,0,4.06,7.6C112.92,73.87,114.78,74.25,114.72,74.4Z"/><path class="cls-2" d="M139.23,55.77c-.95-.5-1.87-1.08-2.86-1.49-3.81-1.55-7.34,1.12-6.67,5.18a10.68,10.68,0,0,0,7.36,8.77c3.95,1.38,7.13-1.67,6.21-5.82A12.13,12.13,0,0,0,139.23,55.77Z"/><path class="cls-2" d="M195.58,63.55c1.66,2,3.22,3.29,5.4,3.6A3.57,3.57,0,0,0,205.1,64a8.68,8.68,0,0,0-6.61-8.69c-3.13-.57-5.26,2.29-4.15,5.67A19.66,19.66,0,0,0,195.58,63.55Z"/><path class="cls-2" d="M238.46,119.24C238.47,185,185,238.49,119.35,238.5A119.25,119.25,0,1,1,238.46,119.24Zm-68.6-46-1.05-.37c1.11-4.63-2.23-5.67-5.11-7.17-2.49-1.3-4.92-2.72-7.3-4.23-12.59-9.68-8.64,2.09-14,5.74-1.68,1.14-1.1.8-4.26.88-1.63,0-2.63-1-4.22-1.45-2.24-.67-3.86-5-4.21-7.15-1.28-8-.09-8.41,8.05-8,4.58.2,8.07,1.78,11.27-4.37,2.6-2.74,2.28-2.95.89-6.48a6.19,6.19,0,0,1,3.35-8c2.88-1.21,6.8-2.72,9.66-4a7.3,7.3,0,0,1,6.05.05c6.06,2.84,12.14,5.93,18.28,8.61,2.57,1.12,5.24,1.83,8.17,1-8-13.31-55.35-33.89-68.88-30.13,2.11,2.66,4.37,5.28,6.35,8.09,1.29,1.84,2.17,4,1.21,6.33-2.5,6-6.76,10.21-13.15,11.89-5.6,1.46-11.27,2.71-16.91,4-4.9,1.14-9.78,2.41-14.73,3.31-3.39.62-4.06,0-3.89-3.53.2-4.13.71-8.25,1.18-12.36.42-3.64-.24-4.71-3.94-5a22.34,22.34,0,0,0-12.52,2.44,5.76,5.76,0,0,0-2.45,3.15c-1.19,3.64-.1,7.14,1.83,10.2a12.32,12.32,0,0,1,1.64,8.3c-.18,1.65-.4,3.3-.48,5-.27,5.72-2.72,10-8.05,12.38-3.32,1.5-6.54,3.38-10,4.34a16.61,16.61,0,0,0-8.95,6.25c-2,2.53-4.27,4.84-6.44,7.23-4.06,4.48-8.42,8.73-12.14,13.48-7.1,9.05-3.8,20.11,6.61,24.5,6.14,2.59,12,5.89,17.9,9a31.08,31.08,0,0,1,10.73,9.5,27.86,27.86,0,0,0,11.73,9.72c2.89,1.24,5.6,2.89,8.41,4.3A8.92,8.92,0,0,1,84.9,156c3.83,11.08.14,23.49-9.45,31.26-3,2.45-6.34,4.51-9.41,6.91-2.88,2.25-6.07,4.64-6,8.66a56.28,56.28,0,0,0,1.6,11c.2.91,1.44,1.76,2.39,2.3,23.28,13.15,48.26,17.68,74.4,12.86,32.93-6.08,61-26.39,77.89-55.34,8-13.78,13-28.69,13.74-44.47.38-8.07-.06-16.19-.48-24.28-.08-1.52-1.61-3.14-2.8-4.4s-2.48-.88-3.1.79a50.24,50.24,0,0,0-1.56,5,8.84,8.84,0,0,1-5.58,6.49c-2.46,1-3.07,3.05-1.67,5.44.79,1.35,1.82,2.56,2.72,3.86,3,4.36,2.95,6.29-.49,10.38-.42.51-.9,1-1.33,1.48-4.89,5.76-16.72-4.66-10.07,19.65a56.72,56.72,0,0,1-5.2,16.5c-1.68,3.27-2.48,7-3.66,10.52-.92,2.74-1.24,5.9-2.84,8.15a40,40,0,0,1-20.87,15.34c-4.07,1.29-6.24.2-8.1-3.58a40.33,40.33,0,0,1-1.66-4.15c-1.86-5.11-3.83-10.2-5.49-15.38a17.87,17.87,0,0,1-.58-6c.16-3.88,1.3-7.84.76-11.59a98.85,98.85,0,0,0-4.2-16.59c-2-6-7.18-8.89-12.87-7.27-6.87,2-12.88-.28-17.92-4.26-7.42-5.86-10.06-14.28-9.91-23.58,0-2.39.52-4.78.59-7.18a24.15,24.15,0,0,1,4.77-14.39c2.07-2.69,4-5.52,6.08-8.18s4.45-5.57,8.08-6.32a143.83,143.83,0,0,0,15.76-3.75c6.46-2.12,11.46,0,15.42,5a46.65,46.65,0,0,0,5,5.51c2.06,1.84,2,8.17,6.29,3a7.33,7.33,0,0,1,8.52-2.1l.08,0A49.46,49.46,0,0,0,190.86,86c3.33.94,6.33-1.26,6.87-4.7s-.91-5-5-5.43c-1.38-.14-2.73-.6-4.1-.87a38.93,38.93,0,0,0-6-1.08c-2.45-.09-4.39-.78-5.65-2.93-1.39-2.36-2.71-4.75-4.09-7.12a5.74,5.74,0,0,0-6.69-3.08c-1.55.32-2.16,1.18-.86,2.34,1.64,1.49,3.59,2.64,5.27,4.11.9.79,2.28,2.2,2.06,2.88C172.31,71.34,170.87,72.2,169.86,73.21ZM8,111.72c-3.46,33.1,12.29,74.58,45.44,97.14a23.59,23.59,0,0,0-2.22-3.1c-6.7-7.94-12.5-16.32-13.86-27a22.51,22.51,0,0,0-6.54-13.07,33.28,33.28,0,0,1-9.35-17.73C20.18,140.63,18,133.46,16,126.27A32.64,32.64,0,0,0,8,111.72Z"/><path d="M119.16,0a119.25,119.25,0,1,0,.19,238.5c65.66,0,119.12-53.52,119.11-119.26A119,119,0,0,0,119.16,0Zm.18,230.21a111,111,0,1,1,110.83-111C230.18,180.41,180.44,230.2,119.34,230.21Z"/></g></g></svg>