<svg xmlns="http://www.w3.org/2000/svg" viewBox="0 0 380.72 69.19"><g id="레이어_2" data-name="레이어 2"><g id="레이어_1-2" data-name="레이어 1"><path d="M13.38,52.89C7.79,52.89,0,49,0,38.37V19C0,10.55,7.3,3.65,14.2,3.65h7.3c7.21,0,13.87,6.9,13.87,15.33v20c0,8.35-6.41,14-12.9,14Zm5.76-8.52c4.14,0,6.74-4,6.74-7.14V19.79a7.1,7.1,0,0,0-6.74-6.65H16.55c-3.25,0-7.06,2.92-7.06,6.49V38c0,2.52,2.11,6.33,6.25,6.33ZM61,68.38H49.64V45.59H39.18V36.1H49.64V27.66H39.18V18.09H49.64V.16H61Z"/><path d="M106.18,4.87v7.54h-4.86a14.4,14.4,0,0,1,1.86,7.46V27A11.82,11.82,0,0,1,90.93,38.77H83.39c-5.84,0-10.63-3.89-10.63-11.6v-7.3a12.57,12.57,0,0,1,2.36-7.46h-6V4.87H82.34V.08H93.61V4.87ZM93.77,20.6c0-2.67-1-4.78-3.73-4.78H86.31c-2.68,0-4,2.11-4,4.78v5.68c0,2.68,1.37,4.06,4.21,4.06h3.09c2.67,0,4.21-1.62,4.21-4.3Zm28.88,24.82c4.87,0,9.49,3.41,9.49,8.36v6.65c0,4.54-3.73,7.87-8.68,7.87H92c-2.76,0-8-2.27-8.92-7.79V53.78c.89-5.84,7.7-8.36,11.19-8.36ZM97.59,53.86c-3.17,0-3.65,1.3-4.22,2.35l-.08,2.11c1,2.19,2.11,2.11,4.3,2.11h21.65c1.87,0,3.41-.57,3.41-2.11V56.78a3.28,3.28,0,0,0-3.49-2.92ZM132.38.08V39.5h-9.24V25.79h-6V39.5h-9.25V.08h9.25V18h6V.08Z"/><path d="M174.42,64.61h-7.16V52.38c-4.68,4.16-11.52,5.78-17.15,6.31a56.07,56.07,0,0,1-10.13.1v-6.6c10.51,2.1,24.41-3,27.18-4.11V24.39h7.26ZM154.55,25.44a6.29,6.29,0,0,1,6.5,6.54v6.5c0,4-2.63,6.5-7,6.5h-5.73c-3.44,0-6.64-2.39-6.64-6V32a6.48,6.48,0,0,1,6.64-6.54Zm.72,7.79a2.71,2.71,0,0,0-2.78-2.73h-2.05a2.92,2.92,0,0,0-3,2.73v4a2.92,2.92,0,0,0,3,2.77h2.05a2.72,2.72,0,0,0,2.78-2.77Z"/><path d="M216.94,2.84V35.29H182.63V2.84h10.46v8.92H206.4V2.84ZM187.5,51.27h36.82V47.53H187.5V41h48.1V58.48H197.8v3.09h37.8v7.62H187.5ZM206.4,27V20.36H193.09V27ZM245,23.93h-9.33V36.58H225.46V0h10.22V14.36H245Z"/><path d="M274.38,15.49c-.33,4.87-.57,23.53,12.81,28.07V53a30.9,30.9,0,0,1-7.62-2.92A21.24,21.24,0,0,1,269,38.12,20.59,20.59,0,0,1,258.4,50.37a27.42,27.42,0,0,1-7.63,2.6V43.56c13.39-4.54,12.82-23.2,12.49-28.07H250.69V6.41h36.66v9.08Zm40.72,7.39V33.34H305v35H293.68V1H305V22.88Z"/><path d="M380.72,37.8h-26v6.81h20.69v7.71a35.9,35.9,0,0,1-1.79,10.38c-.48,1.54-1.05,3-1.62,4.38H362a32.21,32.21,0,0,0,3.16-9.24,22.59,22.59,0,0,0,.32-3.9H326.21V44.61h18.25V37.8H320V28.72H360.2A60.54,60.54,0,0,0,363,16.22a40.09,40.09,0,0,0,.32-5.19H326.7V1.7H374v8.52c-.24,6.08-2.68,15.41-3.57,18.5h10.3Z"/></g></g></svg>